<?xml version="1.0" encoding="utf-8"?>
<!-- Generator: Adobe Illustrator 17.1.0, SVG Export Plug-In . SVG Version: 6.00 Build 0)  -->
<!DOCTYPE svg PUBLIC "-//W3C//DTD SVG 1.1//EN" "http://www.w3.org/Graphics/SVG/1.1/DTD/svg11.dtd">
<svg version="1.1" id="Layer_1" xmlns="http://www.w3.org/2000/svg" xmlns:xlink="http://www.w3.org/1999/xlink" x="0px" y="0px"
	 viewBox="0 0 40 23" enable-background="new 0 0 40 23" xml:space="preserve">
<g>
	<g>
		<defs>
			<rect id="SVGID_29_" x="0" width="40" height="23"/>
		</defs>
		<clipPath id="SVGID_2_">
			<use xlink:href="#SVGID_29_"  overflow="visible"/>
		</clipPath>
		<rect x="0" clip-path="url(#SVGID_2_)" fill="#CB1D23" width="40" height="23"/>
		<polygon clip-path="url(#SVGID_2_)" fill="#F7DE29" points="3.8,8.3 4.6,6 2.6,4.6 5.1,4.6 5.8,2.3 6.6,4.6 9,4.6 7.1,6 7.8,8.3 
			5.8,6.9 		"/>
		<polygon clip-path="url(#SVGID_2_)" fill="#F7DE29" points="10.7,9.6 11.5,9.9 12.1,9.2 12,10.1 12.8,10.4 12,10.6 11.9,11.5 
			11.4,10.8 10.6,11 11.1,10.3 		"/>
		<polygon clip-path="url(#SVGID_2_)" fill="#F7DE29" points="15.1,5.2 14.3,5 13.8,5.8 13.7,4.9 12.8,4.8 13.6,4.4 13.5,3.5 
			14.1,4.1 14.9,3.7 14.5,4.5 		"/>
		<polygon clip-path="url(#SVGID_2_)" fill="#F7DE29" points="13.3,9.1 13.6,8.3 12.8,7.7 13.7,7.7 14,6.9 14.3,7.7 15.2,7.7 
			14.4,8.3 14.7,9.1 14,8.6 		"/>
		<polygon clip-path="url(#SVGID_2_)" fill="#F7DE29" points="10.7,1.5 11.5,1.8 12.1,1.2 12,2.1 12.8,2.4 12,2.6 11.8,3.5 
			11.4,2.7 10.5,2.9 11.1,2.2 		"/>
	</g>
</g>
<g>
	<path fill="#CCCCCC" d="M39.8,0.2v22.5H0.2V0.2H39.8 M40,0H0v23h40V0L40,0z"/>
</g>
</svg>
