<?xml version="1.0" encoding="utf-8"?>
<!-- Generator: Adobe Illustrator 17.1.0, SVG Export Plug-In . SVG Version: 6.00 Build 0)  -->
<!DOCTYPE svg PUBLIC "-//W3C//DTD SVG 1.1//EN" "http://www.w3.org/Graphics/SVG/1.1/DTD/svg11.dtd">
<svg version="1.1" id="Layer_1" xmlns="http://www.w3.org/2000/svg" xmlns:xlink="http://www.w3.org/1999/xlink" x="0px" y="0px"
	 viewBox="0 0 40 23" enable-background="new 0 0 40 23" xml:space="preserve">
<g>
	<rect x="0.1" y="0.1" fill="#FFFFFF" width="39.8" height="22.8"/>
	<path fill="#CCCCCC" d="M39.7,0.2v22.5H0.2V0.2H39.7 M40,0H0v23h40V0L40,0z"/>
</g>
<g>
	<path fill="#333333" d="M13.7,11.2l1.6-3C15.4,8.1,15.5,8,15.7,8c0.1,0,0.2,0,0.3,0.1c0.1,0.1,0.1,0.2,0.1,0.3c0,0.1,0,0.1-0.1,0.2
		l-1.8,3.2l1.9,3.4c0,0.1,0.1,0.2,0.1,0.2c0,0.1,0,0.2-0.1,0.3C15.9,16,15.9,16,15.7,16c-0.2,0-0.3-0.1-0.4-0.2l-1.7-3.1l-1.7,3.1
		c-0.1,0.1-0.2,0.2-0.4,0.2c-0.1,0-0.2,0-0.3-0.1s-0.1-0.2-0.1-0.3c0-0.1,0-0.1,0.1-0.2l1.9-3.4l-1.8-3.3c0-0.1-0.1-0.2-0.1-0.2
		c0-0.1,0-0.2,0.1-0.3C11.4,8,11.5,8,11.6,8c0.2,0,0.3,0.1,0.4,0.2L13.7,11.2z"/>
	<path fill="#333333" d="M17.7,8.5c0-0.1,0-0.2,0.1-0.3c0.1-0.1,0.2-0.1,0.3-0.1h2c0.8,0,1.4,0.2,1.9,0.7c0.5,0.5,0.7,1.1,0.7,1.8
		c0,0.8-0.3,1.4-0.7,1.8c-0.5,0.5-1.1,0.7-1.9,0.7h-1.5v2.4c0,0.1,0,0.2-0.1,0.3C18.4,16,18.3,16,18.1,16s-0.3,0-0.3-0.1
		c-0.1-0.1-0.1-0.2-0.1-0.3V8.5z M18.6,8.9v3.5H20c0.6,0,1-0.2,1.3-0.5c0.3-0.3,0.5-0.7,0.5-1.3c0-0.5-0.2-0.9-0.5-1.2
		S20.6,8.9,20,8.9H18.6z"/>
	<path fill="#333333" d="M25.3,12.5v3c0,0.1,0,0.2-0.1,0.3C25,16,24.9,16,24.8,16s-0.3,0-0.3-0.1c-0.1-0.1-0.1-0.2-0.1-0.3V8.5
		c0-0.1,0-0.2,0.1-0.3c0.1-0.1,0.2-0.1,0.3-0.1h3.7c0.1,0,0.2,0,0.3,0.1c0.1,0.1,0.1,0.2,0.1,0.3s0,0.2-0.1,0.3
		c-0.1,0.1-0.2,0.1-0.3,0.1h-3.2v2.8h3c0.1,0,0.2,0,0.3,0.1s0.1,0.2,0.1,0.3s0,0.2-0.1,0.3c-0.1,0.1-0.2,0.1-0.3,0.1H25.3z"/>
</g>
</svg>
