<?xml version="1.0" encoding="utf-8"?>
<!-- Generator: Adobe Illustrator 17.1.0, SVG Export Plug-In . SVG Version: 6.00 Build 0)  -->
<!DOCTYPE svg PUBLIC "-//W3C//DTD SVG 1.1//EN" "http://www.w3.org/Graphics/SVG/1.1/DTD/svg11.dtd">
<svg version="1.1" id="Layer_1" xmlns="http://www.w3.org/2000/svg" xmlns:xlink="http://www.w3.org/1999/xlink" x="0px" y="0px"
	 viewBox="0 0 40 23" enable-background="new 0 0 40 23" xml:space="preserve">
<g>
	<g>
		<defs>
			<rect id="SVGID_63_" width="40" height="23"/>
		</defs>
		<clipPath id="SVGID_2_">
			<use xlink:href="#SVGID_63_"  overflow="visible"/>
		</clipPath>
		<rect clip-path="url(#SVGID_2_)" fill="#FFFFFF" width="40" height="23"/>
		<rect y="1.8" clip-path="url(#SVGID_2_)" fill="#313883" width="40" height="3.7"/>
		<rect y="17.5" clip-path="url(#SVGID_2_)" fill="#313883" width="40" height="3.7"/>
		<path clip-path="url(#SVGID_2_)" fill="#313883" d="M23,11.5l1.5-2.6h-3.1L20,6.3l-1.5,2.6h-3.1l1.5,2.6l-1.5,2.6h3.1l1.5,2.6
			l1.5-2.6h3.1L23,11.5z M19.5,8.9L20,8l0.5,0.9H19.5z M22.5,12.3l0.5,0.9H22L22.5,12.3z M22,9.8h1.1l-0.5,0.9L22,9.8z M20.5,14.1
			L20,15l-0.5-0.9H20.5z M19,13.2l-1-1.7l1-1.7H21l1,1.7l-1,1.7H19z M18,13.2h-1.1l0.5-0.9L18,13.2z M16.9,9.8H18l-0.5,0.9L16.9,9.8
			z"/>
	</g>
</g>
<g>
	<path fill="#CCCCCC" d="M39.8,0.2v22.5H0.2V0.2H39.8 M40,0H0v23h40V0L40,0z"/>
</g>
</svg>
