<?xml version="1.0" encoding="utf-8"?>
<!-- Generator: Adobe Illustrator 17.1.0, SVG Export Plug-In . SVG Version: 6.00 Build 0)  -->
<!DOCTYPE svg PUBLIC "-//W3C//DTD SVG 1.1//EN" "http://www.w3.org/Graphics/SVG/1.1/DTD/svg11.dtd">
<svg version="1.1" id="Layer_1" xmlns="http://www.w3.org/2000/svg" xmlns:xlink="http://www.w3.org/1999/xlink" x="0px" y="0px"
	 viewBox="0 0 40 23" enable-background="new 0 0 40 23" xml:space="preserve">
<g>
	<g>
		<defs>
			<rect id="SVGID_106_" x="0" width="40" height="23"/>
		</defs>
		<clipPath id="SVGID_2_">
			<use xlink:href="#SVGID_106_"  overflow="visible"/>
		</clipPath>
		<polygon clip-path="url(#SVGID_2_)" fill="#1A237B" points="20,0 20,0.7 20,1 20,1.1 15.6,3.3 20,3.3 20,3.9 20,4.9 20,5.9 
			20,6.6 15.6,6.6 20,8.8 20,9.1 20,9.9 20,9.9 18.6,9.9 18.1,9.9 17.9,9.9 11.7,6.9 11.7,9.9 11,9.9 10,9.9 9,9.9 8.3,9.9 8.3,6.9 
			2.1,9.9 1.4,9.9 0,9.9 0,23 40,23 40,0 		"/>
		<polygon clip-path="url(#SVGID_2_)" fill="#1A237B" points="0,6.6 0,8.8 4.4,6.6 		"/>
		<polygon clip-path="url(#SVGID_2_)" fill="#1A237B" points="11.7,0 11.7,3 17.8,0 		"/>
		<polygon clip-path="url(#SVGID_2_)" fill="#1A237B" points="8.3,0 2.2,0 8.3,3 		"/>
		<polygon clip-path="url(#SVGID_2_)" fill="#1A237B" points="0,3.3 4.4,3.3 0,1.1 		"/>
		<polygon clip-path="url(#SVGID_2_)" fill="#FFFFFF" points="20,0 13.3,3.3 11.8,3.3 18.5,0 17.8,0 11.7,3 11.7,0 11,0 11,3.3 
			11,3.7 11,3.9 12,3.9 13.5,3.9 14,3.9 14.2,3.9 20,3.9 20,3.3 15.6,3.3 20,1.1 20,1 20,0.7 20,0 		"/>
		<polygon clip-path="url(#SVGID_2_)" fill="#FFFFFF" points="8.3,0 8.3,3 2.2,0 0,0 6.7,3.3 5.2,3.3 0,0.7 0,1.1 4.4,3.3 0,3.3 
			0,3.9 5.8,3.9 6.5,3.9 8,3.9 9,3.9 9,3.7 9,3.5 9,3.3 9,0 		"/>
		<polygon clip-path="url(#SVGID_2_)" fill="#FFFFFF" points="13.5,5.9 12,5.9 11,5.9 11,6.2 11,6.4 11,6.5 11,9.9 11.7,9.9 
			11.7,6.9 17.9,9.9 18.1,9.9 18.6,9.9 20,9.9 20,9.9 13.3,6.6 14.8,6.6 20,9.1 20,8.8 15.6,6.6 20,6.6 20,5.9 14.2,5.9 		"/>
		<polygon clip-path="url(#SVGID_2_)" fill="#FFFFFF" points="8,5.9 6.5,5.9 6,5.9 5.8,5.9 0,5.9 0,6.6 4.4,6.6 0,8.8 0,9.9 
			6.7,6.6 8.2,6.6 1.4,9.9 2.1,9.9 8.3,6.9 8.3,9.9 9,9.9 9,6.5 9,6.2 9,5.9 		"/>
		<polygon clip-path="url(#SVGID_2_)" fill="#BD0034" points="6.7,6.6 0,9.9 0,9.9 1.4,9.9 8.2,6.6 		"/>
		<polygon clip-path="url(#SVGID_2_)" fill="#BD0034" points="0,0.7 5.2,3.3 6.7,3.3 0,0 		"/>
		<polygon clip-path="url(#SVGID_2_)" fill="#BD0034" points="20,0 18.5,0 11.8,3.3 13.3,3.3 		"/>
		<polygon clip-path="url(#SVGID_2_)" fill="#BD0034" points="13.3,6.6 20,9.9 20,9.1 14.8,6.6 		"/>
		<polygon clip-path="url(#SVGID_2_)" fill="#BD0034" points="9,0 9,3.3 9,3.5 9,3.7 9,3.9 8,3.9 6.5,3.9 5.8,3.9 0,3.9 0,5.9 
			5.8,5.9 6,5.9 6.5,5.9 8,5.9 9,5.9 9,6.2 9,6.5 9,9.9 10,9.9 11,9.9 11,6.5 11,6.4 11,6.2 11,5.9 12,5.9 13.5,5.9 14.2,5.9 
			20,5.9 20,4.9 20,3.9 14.2,3.9 14,3.9 13.5,3.9 12,3.9 11,3.9 11,3.7 11,3.3 11,0 		"/>
		<polygon clip-path="url(#SVGID_2_)" fill="#FFFFFF" points="27.8,6.7 28.9,6.7 29.2,5.7 29.5,6.7 30.6,6.7 29.7,7.3 30.1,8.4 
			29.2,7.7 28.3,8.4 28.6,7.3 		"/>
		<polygon clip-path="url(#SVGID_2_)" fill="#BD0034" points="28.2,6.9 29,6.9 29.2,6.2 29.4,6.9 30.1,6.9 29.5,7.3 29.8,8 
			29.2,7.5 28.6,8 28.8,7.3 		"/>
		<polygon clip-path="url(#SVGID_2_)" fill="#FFFFFF" points="23.4,11 24.5,11 24.8,10 25.2,11 26.3,11 25.4,11.7 25.7,12.7 
			24.8,12 24,12.7 24.3,11.7 		"/>
		<polygon clip-path="url(#SVGID_2_)" fill="#BD0034" points="23.9,11.2 24.6,11.2 24.8,10.5 25.1,11.2 25.8,11.2 25.2,11.6 
			25.4,12.3 24.8,11.9 24.3,12.3 24.5,11.6 		"/>
		<polygon clip-path="url(#SVGID_2_)" fill="#FFFFFF" points="31.6,10 32.6,10 32.9,9 33.2,10 34.2,10 33.4,10.5 33.7,11.4 
			32.9,10.9 32.1,11.4 32.4,10.5 		"/>
		<polygon clip-path="url(#SVGID_2_)" fill="#BD0034" points="32.1,10.1 32.7,10.1 32.9,9.5 33.1,10.1 33.8,10.1 33.2,10.5 
			33.4,11.1 32.9,10.7 32.4,11.1 32.6,10.5 		"/>
		<polygon clip-path="url(#SVGID_2_)" fill="#FFFFFF" points="27.6,17.8 28.8,17.8 29.2,16.7 29.6,17.8 30.8,17.8 29.8,18.5 
			30.2,19.6 29.2,18.9 28.2,19.6 28.6,18.5 		"/>
		<polygon clip-path="url(#SVGID_2_)" fill="#BD0034" points="28.1,18 28.9,18 29.2,17.2 29.4,18 30.2,18 29.6,18.4 29.8,19.2 
			29.2,18.7 28.5,19.2 28.8,18.4 		"/>
	</g>
</g>
<g>
	<path fill="#CCCCCC" d="M39.8,0.2v22.5H0.2V0.2H39.8 M40,0H0v23h40V0L40,0z"/>
</g>
</svg>
