<?xml version="1.0" encoding="utf-8"?>
<!-- Generator: Adobe Illustrator 17.1.0, SVG Export Plug-In . SVG Version: 6.00 Build 0)  -->
<!DOCTYPE svg PUBLIC "-//W3C//DTD SVG 1.1//EN" "http://www.w3.org/Graphics/SVG/1.1/DTD/svg11.dtd">
<svg version="1.1" id="Layer_1" xmlns="http://www.w3.org/2000/svg" xmlns:xlink="http://www.w3.org/1999/xlink" x="0px" y="0px"
	 viewBox="0 0 40 23" enable-background="new 0 0 40 23" xml:space="preserve">
<g>
	<g>
		<defs>
			<rect id="SVGID_162_" width="40" height="23"/>
		</defs>
		<clipPath id="SVGID_2_">
			<use xlink:href="#SVGID_162_"  overflow="visible"/>
		</clipPath>
		<rect clip-path="url(#SVGID_2_)" fill="#BC0030" width="40" height="23"/>
		<rect y="0" clip-path="url(#SVGID_2_)" fill="#1C2A7D" width="21.4" height="10.5"/>
		<polygon clip-path="url(#SVGID_2_)" fill="#FFFFFF" points="10.7,7.3 11.6,10.1 9.2,8.4 12.2,8.4 9.8,10.1 		"/>
		<polygon clip-path="url(#SVGID_2_)" fill="#FFFFFF" points="7.4,3.1 8.2,5.3 6.2,3.9 8.6,3.9 6.7,5.3 		"/>
		<polygon clip-path="url(#SVGID_2_)" fill="#FFFFFF" points="14,2.6 14.7,4.7 12.9,3.4 15.1,3.4 13.3,4.7 		"/>
		<polygon clip-path="url(#SVGID_2_)" fill="#FFFFFF" points="10.7,0.4 11.4,2.7 9.5,1.3 11.9,1.3 10,2.7 		"/>
		<polygon clip-path="url(#SVGID_2_)" fill="#FFFFFF" points="12.3,5.3 12.8,6.7 11.6,5.9 13.1,5.9 11.9,6.7 		"/>
	</g>
</g>
<g>
	<path fill="#CCCCCC" d="M39.8,0.2v22.5H0.2V0.2H39.8 M40,0H0v23h40V0L40,0z"/>
</g>
</svg>
