<?xml version="1.0" encoding="utf-8"?>
<!-- Generator: Adobe Illustrator 17.1.0, SVG Export Plug-In . SVG Version: 6.00 Build 0)  -->
<!DOCTYPE svg PUBLIC "-//W3C//DTD SVG 1.1//EN" "http://www.w3.org/Graphics/SVG/1.1/DTD/svg11.dtd">
<svg version="1.1" id="Layer_1" xmlns="http://www.w3.org/2000/svg" xmlns:xlink="http://www.w3.org/1999/xlink" x="0px" y="0px"
	 viewBox="0 0 40 23" enable-background="new 0 0 40 23" xml:space="preserve">
<g>
	<g>
		<defs>
			<rect id="SVGID_146_" width="40" height="23"/>
		</defs>
		<clipPath id="SVGID_2_">
			<use xlink:href="#SVGID_146_"  overflow="visible"/>
		</clipPath>
		<rect clip-path="url(#SVGID_2_)" fill="#D10E2F" width="40" height="23"/>
		<rect x="0" y="0" clip-path="url(#SVGID_2_)" fill="#1C2666" width="17.5" height="11.5"/>
		<path clip-path="url(#SVGID_2_)" fill="#FFFFFF" d="M9.9,5.7l-1.2,4.3L7.6,5.7l1.2-4.3 M8.8,6.9l4.4-1.1L8.8,4.6L4.4,5.7"/>
		<path clip-path="url(#SVGID_2_)" fill="#FFFFFF" d="M9.8,6.3L6.6,9.5l1.2-4.3L10.9,2 M8.2,6.7l4.4,1.2L9.3,4.8L5,3.6"/>
		<path clip-path="url(#SVGID_2_)" fill="#FFFFFF" d="M9.3,6.7L5,7.9l3.2-3.2l4.4-1.2 M7.7,6.3l3.2,3.2L9.8,5.2L6.6,2"/>
		<g clip-path="url(#SVGID_2_)">
			<defs>
				<rect id="SVGID_148_" width="40" height="23"/>
			</defs>
			<clipPath id="SVGID_4_">
				<use xlink:href="#SVGID_148_"  overflow="visible"/>
			</clipPath>
			<path clip-path="url(#SVGID_4_)" fill="#1C2666" d="M8.8,3.3c1.4,0,2.5,1.1,2.5,2.4c0,1.3-1.1,2.4-2.5,2.4
				c-1.4,0-2.5-1.1-2.5-2.4C6.3,4.4,7.4,3.3,8.8,3.3"/>
			<path clip-path="url(#SVGID_4_)" fill="#FFFFFF" d="M8.8,3.6c1.2,0,2.2,1,2.2,2.2c0,1.2-1,2.2-2.2,2.2c-1.2,0-2.2-1-2.2-2.2
				C6.6,4.6,7.5,3.6,8.8,3.6"/>
		</g>
	</g>
</g>
<g>
	<path fill="#CCCCCC" d="M39.8,0.2v22.5H0.2V0.2H39.8 M40,0H0v23h40V0L40,0z"/>
</g>
</svg>
