<?xml version="1.0" encoding="utf-8"?>
<!-- Generator: Adobe Illustrator 17.1.0, SVG Export Plug-In . SVG Version: 6.00 Build 0)  -->
<!DOCTYPE svg PUBLIC "-//W3C//DTD SVG 1.1//EN" "http://www.w3.org/Graphics/SVG/1.1/DTD/svg11.dtd">
<svg version="1.1" id="Layer_1" xmlns="http://www.w3.org/2000/svg" xmlns:xlink="http://www.w3.org/1999/xlink" x="0px" y="0px"
	 viewBox="0 0 40 23" enable-background="new 0 0 40 23" xml:space="preserve">
<g>
	<g>
		<defs>
			<rect id="SVGID_69_" width="40" height="23"/>
		</defs>
		<clipPath id="SVGID_2_">
			<use xlink:href="#SVGID_69_"  overflow="visible"/>
		</clipPath>
		<rect clip-path="url(#SVGID_2_)" fill="#FFFFFF" width="40" height="23"/>
		<polygon clip-path="url(#SVGID_2_)" points="26.5,3.8 28,6 27.1,6.5 25.7,4.3 		"/>
		<polygon clip-path="url(#SVGID_2_)" points="28.2,6.4 29.7,8.6 28.9,9.1 27.4,6.9 		"/>
		<polygon clip-path="url(#SVGID_2_)" points="27.7,3 30.9,7.8 30.1,8.3 26.9,3.5 		"/>
		<polygon clip-path="url(#SVGID_2_)" points="28.9,2.2 30.4,4.4 29.6,4.9 28.1,2.7 		"/>
		<polygon clip-path="url(#SVGID_2_)" points="30.7,4.8 32.1,7 31.3,7.5 29.8,5.3 		"/>
		<polygon clip-path="url(#SVGID_2_)" points="11.1,13.9 14.3,18.7 13.5,19.2 10.3,14.4 		"/>
		<polygon clip-path="url(#SVGID_2_)" points="9.9,14.7 11.4,16.9 10.6,17.4 9.1,15.2 		"/>
		<polygon clip-path="url(#SVGID_2_)" points="11.6,17.3 13.1,19.5 12.3,20 10.8,17.8 		"/>
		<polygon clip-path="url(#SVGID_2_)" points="8.7,15.5 11.9,20.3 11.1,20.8 7.9,16 		"/>
		<polygon clip-path="url(#SVGID_2_)" points="10.3,8.6 13.5,3.8 14.3,4.3 11.1,9.1 		"/>
		<polygon clip-path="url(#SVGID_2_)" points="9.1,7.8 12.3,3 13.1,3.5 9.9,8.3 		"/>
		<polygon clip-path="url(#SVGID_2_)" points="7.9,7 11.1,2.2 11.9,2.7 8.7,7.5 		"/>
		<polygon clip-path="url(#SVGID_2_)" points="25.7,18.7 27.1,16.5 28,17 26.5,19.2 		"/>
		<polygon clip-path="url(#SVGID_2_)" points="27.4,16.1 28.9,13.9 29.7,14.4 28.2,16.6 		"/>
		<polygon clip-path="url(#SVGID_2_)" points="26.9,19.5 28.4,17.3 29.2,17.8 27.7,20 		"/>
		<polygon clip-path="url(#SVGID_2_)" points="28.6,16.9 30.1,14.7 30.9,15.2 29.4,17.4 		"/>
		<polygon clip-path="url(#SVGID_2_)" points="28.1,20.3 29.6,18.1 30.4,18.6 28.9,20.8 		"/>
		<polygon clip-path="url(#SVGID_2_)" points="29.8,17.7 31.3,15.5 32.1,16 30.7,18.2 		"/>
		<g clip-path="url(#SVGID_2_)">
			<defs>
				<rect id="SVGID_71_" width="40" height="23"/>
			</defs>
			<clipPath id="SVGID_4_">
				<use xlink:href="#SVGID_71_"  overflow="visible"/>
			</clipPath>
			<path clip-path="url(#SVGID_4_)" fill="#B50037" d="M15.1,8.3C15.1,8.3,15.1,8.4,15.1,8.3C15.1,8.4,15.1,8.3,15.1,8.3"/>
			<path clip-path="url(#SVGID_4_)" fill="#B50037" d="M23.2,6.7c-2.7-1.8-6.3-1-8.1,1.6c-0.9,1.3-0.5,3.1,0.8,4
				c1.3,0.9,3.2,0.5,4-0.8c0.9-1.3,2.7-1.7,4-0.8c1.3,0.9,1.7,2.7,0.8,4C26.6,12,25.9,8.5,23.2,6.7"/>
			<path clip-path="url(#SVGID_4_)" fill="#1E3476" d="M15.1,8.3c-0.9,1.3-0.5,3.1,0.8,4c1.3,0.9,3.2,0.5,4-0.8
				c0.9-1.3,2.7-1.7,4-0.8c1.3,0.9,1.7,2.7,0.8,4c-1.8,2.6-5.4,3.4-8.1,1.6C14.1,14.5,13.4,11,15.1,8.3"/>
		</g>
	</g>
</g>
<g>
	<path fill="#CCCCCC" d="M39.8,0.2v22.5H0.2V0.2H39.8 M40,0H0v23h40V0L40,0z"/>
</g>
</svg>
