<?xml version="1.0" encoding="utf-8"?>
<!-- Generator: Adobe Illustrator 17.1.0, SVG Export Plug-In . SVG Version: 6.00 Build 0)  -->
<!DOCTYPE svg PUBLIC "-//W3C//DTD SVG 1.1//EN" "http://www.w3.org/Graphics/SVG/1.1/DTD/svg11.dtd">
<svg version="1.1" id="Layer_1" xmlns="http://www.w3.org/2000/svg" xmlns:xlink="http://www.w3.org/1999/xlink" x="0px" y="0px"
	 viewBox="0 0 40 23" enable-background="new 0 0 40 23" xml:space="preserve">
<g>
	<g>
		<defs>
			<rect id="SVGID_122_" width="40" height="23"/>
		</defs>
		<clipPath id="SVGID_2_">
			<use xlink:href="#SVGID_122_"  overflow="visible"/>
		</clipPath>
		<rect clip-path="url(#SVGID_2_)" width="40" height="23"/>
		<polygon clip-path="url(#SVGID_2_)" fill="#BC0030" points="0,0 40,23 40,0 		"/>
		<g clip-path="url(#SVGID_2_)">
			<defs>
				<rect id="SVGID_124_" width="40" height="23"/>
			</defs>
			<clipPath id="SVGID_4_">
				<use xlink:href="#SVGID_124_"  overflow="visible"/>
			</clipPath>
			<path clip-path="url(#SVGID_4_)" fill="#F3D02F" d="M25.9,6.7c-0.2,0.3-0.8-0.3-1.4-0.3c-0.7,0-1.1,0.6-1.3,0.8
				c-0.2,0.2-0.8,1.3-0.8,1.5c0,0.1,0.4-0.3,0.5-0.4c0,0.2-0.1,0.3-0.1,0.4c0,0.1,0.5-0.3,0.6-0.3c0,0.1-0.1,0.2,0,0.4
				c0.1,0.1,0.3-0.3,0.5-0.3c0,0.1-0.1,0.3-0.1,0.5c0.1,0,0.5-0.5,0.6-0.5c0.1-0.1-0.1,0.4,0,0.5c0.1-0.1,0.5-0.5,0.6-0.6
				c0.1-0.1,0,0.5,0,0.5c0.1-0.1,0.5-0.6,0.6-0.7c0-0.1,0,0.8,0.4,1.2c0.4,0.5,1.1,1,1.1,1c0.1-0.1,0-0.5,0-0.4
				c0.2,0.2,0.5,0.5,0.6,0.5c0.1,0-0.1-0.3,0.1-0.3c0.2,0.2,0.8,1,2.1,1.4c-0.1-0.2-0.3-0.4-0.3-0.5c0.1,0,0.4,0.1,0.4,0.1
				c0.1,0-0.6-0.8-0.6-0.9c0.1,0,0.2,0.1,0.3,0c-0.1-0.1-0.6-0.7-0.6-0.9c0-0.1,0.2,0,0.2,0c0.1,0-0.2-0.6-0.2-0.7
				c0.1-0.1,0.7,0.4,0.8,0.4c0.1,0,0-0.5,0.1-0.5c0.1,0,0.6,0.3,0.7,0.3c0.1,0,0.1-0.2,0.1-0.2c0,0,1.2,1.2,0.8,2.6
				c-0.4,1-1.2,1.5-2.4,1.1c0.1,0.1,0.7,0.6,1.4,0.4c0.7-0.2,1.5-0.7,1.4-2.1c-0.1-1.3-0.5-1.5-0.6-1.7c-0.1-0.2,0.1,0.1,0.3,0.1
				c0.1,0.1,0-0.3-0.1-0.4c0-0.1,0.4,0.3,0.6,0.3c0.1,0-0.3-1.1-0.4-1.2c-0.1-0.1,0.1,0,0.2,0.1c0.1,0-0.7-1.2-0.9-1.2
				c-0.2,0,0.1-0.1,0.2-0.1c0.1,0-0.9-0.8-1.1-0.8c-0.2,0,0.4-0.2,0.4-0.2c0.1,0-1.2-0.7-2.4,0C28.3,5.2,29,4.8,29,4.6
				c0,0-0.2-0.1-0.2-0.2c0-0.1,0.3-0.2,0.3-0.3C29,4,28.9,4,28.8,4c0-0.1,0.3-0.3,0.3-0.5c0-0.1-0.2-0.1-0.3,0
				c-0.1,0,0.1-0.3,0.1-0.4c0,0-0.1,0-0.2,0c-0.1,0,0.4-0.6,0.3-0.7c-0.1-0.1-1.2,0.6-1.6,1.3c-0.4,0.7-0.1,1.4-0.1,1.6
				C27,5.7,27,5.9,26.8,5.9c-0.2,0-0.6-0.3-0.7-0.4c-0.1-0.1-0.2-0.2-0.4-0.3c-0.2-0.1-0.6,0.1-0.8,0.1c-0.2,0-0.8-0.1-0.8-0.1
				c0,0,0.6,0.3,0.8,0.4C25,5.7,25,5.8,25.1,5.9C25.2,6,26.3,6.3,25.9,6.7"/>
			<path clip-path="url(#SVGID_4_)" fill="#F3D02F" d="M29.9,8.6c0.3,0.3,2.5,1.8,2.5,3.5c0,1.8-1.6,1.7-2.1,1.7
				c0.5,0.4,2.5,0.3,2.5-1.7c0-1.8-2.5-3.5-2.8-3.7C29.7,8.2,29.6,8.2,29.9,8.6"/>
			<polygon clip-path="url(#SVGID_4_)" fill="#FFFFFF" points="10.3,7.1 10.6,8.3 11.8,8.3 10.9,9 11.2,10.1 10.3,9.4 9.4,10.1 
				9.7,9 8.8,8.3 9.9,8.3 			"/>
			<polygon clip-path="url(#SVGID_4_)" fill="#FFFFFF" points="6.7,11.6 7.1,12.8 8.3,12.8 7.3,13.5 7.7,14.6 6.7,13.9 5.8,14.6 
				6.1,13.5 5.2,12.8 6.4,12.8 			"/>
			<polygon clip-path="url(#SVGID_4_)" fill="#FFFFFF" points="13.8,11.3 14.2,12.5 15.4,12.5 14.4,13.2 14.8,14.3 13.8,13.6 
				12.9,14.2 13.3,13.2 12.3,12.5 13.5,12.5 			"/>
			<polygon clip-path="url(#SVGID_4_)" fill="#FFFFFF" points="10.3,17.7 10.6,18.8 11.8,18.8 10.9,19.5 11.2,20.7 10.3,20 
				9.4,20.6 9.7,19.5 8.8,18.8 9.9,18.8 			"/>
			<polygon clip-path="url(#SVGID_4_)" fill="#FFFFFF" points="11.9,15.2 12.1,15.8 12.6,15.8 12.2,16.2 12.4,16.7 11.9,16.4 
				11.4,16.7 11.6,16.2 11.1,15.8 11.7,15.8 			"/>
		</g>
	</g>
</g>
<g>
	<path fill="#CCCCCC" d="M39.8,0.2v22.5H0.2V0.2H39.8 M40,0H0v23h40V0L40,0z"/>
</g>
</svg>
