<?xml version="1.0" encoding="utf-8"?>
<!-- Generator: Adobe Illustrator 17.1.0, SVG Export Plug-In . SVG Version: 6.00 Build 0)  -->
<!DOCTYPE svg PUBLIC "-//W3C//DTD SVG 1.1//EN" "http://www.w3.org/Graphics/SVG/1.1/DTD/svg11.dtd">
<svg version="1.1" id="Layer_1" xmlns="http://www.w3.org/2000/svg" xmlns:xlink="http://www.w3.org/1999/xlink" x="0px" y="0px"
	 viewBox="0 0 40 23" enable-background="new 0 0 40 23" xml:space="preserve">
<g>
	<g>
		<defs>
			<rect id="SVGID_130_" width="40" height="23"/>
		</defs>
		<clipPath id="SVGID_2_">
			<use xlink:href="#SVGID_130_"  overflow="visible"/>
		</clipPath>
		<rect clip-path="url(#SVGID_2_)" fill="#3D9635" width="40" height="23"/>
		<g clip-path="url(#SVGID_2_)">
			<defs>
				<rect id="SVGID_132_" width="40" height="23"/>
			</defs>
			<clipPath id="SVGID_4_">
				<use xlink:href="#SVGID_132_"  overflow="visible"/>
			</clipPath>
			<path clip-path="url(#SVGID_4_)" fill="#FFFFFF" d="M11.3,6.5c0,0.5-0.1,1.5,0.4,1.6c0.6,0.1,0.3-0.9,0.5-1.1
				c0-0.1,0.1-0.1,0.1,0v0.8c0,0.3,0.2,0.4,0.3,0.4c0.1,0,0.2,0,0.3,0.1c0,0.5,0,1,0.1,1.4c0,0,0.3,0.1,0.4-0.8c0-0.5-0.1-1,0-1.1
				c0-0.1,0.1-0.1,0.2-0.1c0.1,0.1,0.2,0.2,0.4,0.2c0.3-0.1,0.6-0.3,0.6-0.5c0-0.2,0-0.5-0.2-0.7c0,0-0.1-0.2-0.1-0.2
				c0.1,0.1,0.2,0.1,0.2,0c-0.1-0.2-0.2-0.4-0.3-0.5C14,6,13.9,6,13.8,6.3c0,0.3,0.1,0.6,0.3,0.8c0,0.1,0.1,0.3,0.1,0.4
				c-0.1,0.1-0.2,0-0.3-0.1c0,0-0.3-0.2-0.3-0.2c0.1-0.5,0-0.5,0-0.6c0-0.2-0.1-0.2-0.2-0.4c-0.1-0.1-0.2-0.1-0.2,0
				c-0.1,0.2-0.1,0.7,0,0.9c0.1,0.2,0.2,0.3,0.1,0.3c0,0.1-0.1,0.1-0.2,0c-0.1-0.2-0.1-0.6-0.1-0.8c0-0.2-0.1-0.6-0.2-0.8
				c-0.1-0.1-0.2-0.1-0.3,0c0,0.2,0,0.4,0,0.6c0.1,0.3,0.1,0.6,0.2,1c0,0.5-0.3,0.2-0.3,0c0.1-0.3,0-0.8,0-0.9
				c0-0.1-0.1-0.1-0.2-0.1c-0.1,0-0.3,0.2-0.4,0.6c0,0-0.1,0.2-0.1,0.4c0,0.2-0.2,0.4-0.3,0C11.5,7,11.5,6.4,11.3,6.5"/>
			<path clip-path="url(#SVGID_4_)" fill="#FFFFFF" d="M12.8,8.7c-0.5,0.2-1,0.5-1.5,0.7c0-0.3,0.7-0.9,1.2-0.9
				C12.8,8.5,12.8,8.6,12.8,8.7"/>
			<path clip-path="url(#SVGID_4_)" fill="#FFFFFF" d="M14.7,5.7C14.7,5.7,14.6,5.7,14.7,5.7c-0.2,0.1-0.3,0.2-0.3,0.4
				c0.1,0.8,0.2,1.5,0.4,2.3c0,0.1-0.1,0.2-0.2,0.2c-0.2-0.1-0.2-0.4-0.5-0.4c-0.2,0-0.5,0.2-0.5,0.5c0,0.2-0.1,0.4,0,0.6
				c0.2,0.2,0.4,0.2,0.5,0.1c0.1-0.1,0.3-0.2,0.3-0.2c0,0,0,0,0,0c0,0,0,0,0,0c0,0.1,0,0.5-0.7,0.8c-0.4,0.2-0.7,0.2-0.9-0.1
				c-0.1-0.2,0-1-0.3-0.8c-0.8,2,1.8,2.2,2.1,0.1c0-0.1,0.1-0.1,0.1-0.1c0,0,0,0,0,0.1c-0.1,1.9-2,2.1-2.3,1.5
				c-0.1-0.1-0.1-0.5-0.1-0.7c0-0.1,0-0.2-0.1-0.2c-0.1-0.1-0.2,0.1-0.2,0.4c0,0.2,0,0.3,0,0.5c0.1,1.5,2.6,0.9,3-0.4
				c0.2-0.7,0-1.2,0.1-1.2c0,0,0,0,0,0c0,0,0,0,0,0l0,0c0,0,0,0,0,0c0.2,0.3,0.6,0,0.7-0.1c0,0,0.1-0.1,0.2,0
				c0.2,0.1,0.5,0.1,0.6-0.2c0-0.2,0.1-0.5,0.1-0.7c-0.1,0-0.2,0.1-0.3,0.1c0,0,0,0,0,0c0,0.1,0,0.1,0,0.2c0,0,0,0,0,0c0,0,0,0,0,0
				c0,0-0.1,0-0.1-0.1c-0.1-0.3-0.3-0.3-0.5,0.1c-0.1,0.1-0.3,0.1-0.3,0c0-0.3-0.1-0.3-0.3-0.2c-0.1-0.5-0.1-1.1-0.2-1.6
				c0.1,0,0.2,0.1,0.3,0C15.1,6.4,14.9,5.8,14.7,5.7C14.8,5.7,14.8,5.7,14.7,5.7C14.8,5.7,14.8,5.7,14.7,5.7
				C14.8,5.7,14.8,5.7,14.7,5.7C14.8,5.7,14.8,5.7,14.7,5.7C14.7,5.7,14.7,5.7,14.7,5.7C14.7,5.7,14.7,5.7,14.7,5.7 M14,8.7
				c0,0,0.1,0,0.1,0.1c0,0.1,0,0.1,0,0.1v0c0,0,0,0,0,0c0,0-0.1,0-0.1,0c-0.1,0-0.1,0-0.1-0.1C13.8,8.8,13.9,8.8,14,8.7
				C13.9,8.7,13.9,8.7,14,8.7C13.9,8.7,13.9,8.7,14,8.7C13.9,8.7,14,8.7,14,8.7"/>
			<path clip-path="url(#SVGID_4_)" fill="#FFFFFF" d="M16.4,5.6c-0.1,0-0.1,0-0.2,0c-0.1,0.1-0.2,0.3-0.1,0.4
				c0.1,0,0.2,0.1,0.1,0.2c-0.3,0.3-1,0.8-1,0.9c0,0,0,0,0,0c0,0,0,0,0,0v0c0,0,0,0,0,0c0,0,0,0,0,0s0,0,0,0c0,0,0,0,0,0
				c0,0,0,0,0,0l0,0c0,0,0.5,0,0.5,0c0,0,0,0,0,0h0v0c0.2-0.1,0.9-0.9,0.9-0.9c0,0-0.1-0.1-0.1-0.1c0,0,0-0.1,0-0.1
				c0.2-0.1,0.1-0.3,0-0.4C16.6,5.6,16.5,5.6,16.4,5.6 M16.4,5.9c0,0,0.1,0,0.1,0.1c0,0.1,0,0.1,0,0.1c0,0-0.1,0-0.1-0.1
				C16.3,6,16.3,5.9,16.4,5.9C16.4,5.9,16.4,5.9,16.4,5.9"/>
			<path clip-path="url(#SVGID_4_)" fill="#FFFFFF" d="M11.4,10.1c-0.3,0.4-0.3,1.1-0.1,1.3c0.1,0.1,0.2,0.1,0.3,0.1
				c0.2-0.1,0.2-0.4,0.2-0.5c-0.1-0.1-0.1-0.1-0.2,0c-0.1,0.2-0.2,0.1-0.2-0.1C11.4,10.6,11.5,10.4,11.4,10.1
				C11.5,10,11.5,10,11.4,10.1"/>
			<path clip-path="url(#SVGID_4_)" fill="#FFFFFF" d="M23.2,9.4c-0.3-0.6-0.6-1.1-0.7-1.3c-0.1-0.2-1-1.5-1.1-1.6
				c-0.3-0.3,0.5,0.1-0.1-0.5C21,5.8,21,5.8,20.8,5.6c-0.1-0.1-0.3-0.2-0.3,0c0,0.2,0,0.3,0,0.4c0,0.1,0.2,0.2,0.2,0.3
				c0.9,1.2,1.7,2.4,2.5,3.9C23.2,10.2,23.2,9.5,23.2,9.4"/>
			<path clip-path="url(#SVGID_4_)" fill="#FFFFFF" d="M22,11.3c-0.1,0.1,0.1,0.3,0.4,0.3c0.4,0,0.7-0.3,1.1-0.8
				c0.1-0.1,0.2-0.4,0.2-0.6c0-1.3-0.1-2.3-0.3-3.2c0-0.1,0-0.2,0-0.2c0,0,0.1,0,0.2-0.1c0.1-0.1-0.2-0.6-0.3-0.8
				c0-0.1-0.1-0.2-0.1,0c-0.1,0.1-0.1,0.4-0.1,0.6c0.2,1.3,0.2,2.4,0.4,3.7c0,0.1,0,0.3-0.1,0.4C22.9,10.7,22.5,11.1,22,11.3"/>
			<path clip-path="url(#SVGID_4_)" fill="#FFFFFF" d="M27.3,11.3c-0.3,0.2-0.3,0.3-0.1,0.4c0.4,0,0.9-0.1,1.2-0.6
				c0.1-0.1,0.2-0.5,0.2-0.7c0-1.3,0-2.6-0.2-3.5c0-0.1-0.1-0.3,0-0.3c0-0.1,0.2,0,0.2-0.1c0.1-0.1-0.3-0.6-0.5-0.8
				c0-0.1-0.1-0.2-0.1,0c-0.1,0.1-0.1,0.4-0.1,0.6c0.2,1.4,0.4,2.7,0.4,4c0,0.1,0,0.2-0.1,0.3c-0.1,0.2-0.3,0.3-0.4,0.4
				C27.7,11.1,27.4,11.2,27.3,11.3"/>
			<path clip-path="url(#SVGID_4_)" fill="#FFFFFF" d="M27.5,10c0-0.3,0-0.6,0-0.8c0-0.2-0.1-1.2-0.2-1.3c0-0.2-0.1-0.5-0.1-0.7
				c0-0.1-0.1-0.4,0-0.4c0-0.1,0.1,0,0.2-0.1c0.1-0.1-0.2-0.8-0.4-1c-0.1-0.1-0.1-0.1-0.3,0.1c-0.1,0.1-0.1,0.3,0,0.6
				c0.3,1.5,0.5,3,0.4,4.4C27.1,10.7,27.5,10.3,27.5,10"/>
			<path clip-path="url(#SVGID_4_)" fill="#FFFFFF" d="M25.4,8.2c-0.2,0-0.5-0.3-0.7-0.5c0-0.1,0-0.2,0-0.3c0.1,0,0.2-0.1,0.2,0
				c0,0,0.1,0.1,0.1,0.1c0.1,0,0.1,0,0.1,0c0-0.1,0-0.1,0-0.2c0-0.2,0.3-0.2,0.4-0.1c0.1,0.1,0.1,0.2,0.1,0.4c0,0.1-0.1,0-0.2,0
				c-0.1,0-0.1,0.1-0.1,0.1C25.4,7.8,25.4,8.1,25.4,8.2"/>
			<path clip-path="url(#SVGID_4_)" fill="#FFFFFF" d="M22.1,10.4c0-0.4,0-1.3,0-1.6c0-0.6-0.1-1.8-0.2-2c-0.1-0.4,0.2,0,0.1-0.2
				c-0.1-0.4-0.3-0.6-0.5-1c-0.1-0.1-0.1-0.1-0.2,0c-0.1,0.3,0,0.5,0,0.8c0.2,0.8,0.3,1.5,0.3,2.2c0,0.7,0.1,1.6,0,2.3
				C21.9,10.9,22.1,10.7,22.1,10.4"/>
			<path clip-path="url(#SVGID_4_)" fill="#FFFFFF" d="M28.1,9.7c-0.3-0.5-0.8-1.1-0.9-1.3c-0.1-0.2-1.2-1.7-1.3-1.9
				c-0.4-0.4,0.2-0.1-0.1-0.4c-0.2-0.2-0.3-0.3-0.5-0.4c-0.1-0.1-0.1-0.2-0.2,0c0,0.2,0,0.4,0,0.5c0,0.1,0.1,0.2,0.2,0.3
				c0.9,1.1,2,2.5,2.8,4C28.2,10.5,28.2,9.8,28.1,9.7"/>
			<path clip-path="url(#SVGID_4_)" fill="#FFFFFF" d="M24.3,15.8L24.3,15.8c-0.3,0.1-0.3,0.4-0.1,0.5c-2.9,0-7.4,0-8.4,0
				c-0.5,0-2.2-0.1-2.3-0.1c0.4,0.5,0.9,0.6,1.6,0.6c1.3,0,7.3,0,9,0c-0.1,0.2,0,0.6,0.1,0.6c0,0,0,0,0,0c0,0,0,0,0,0c0,0,0,0,0,0
				c0.1,0,0.2-0.1,0.2-0.1c0.2,0,1.2,0,1.3,0l0,0c0.1,0.1,0.1,0.2,0.2,0.2c0.2,0,0.4-0.1,0.4-0.5c0,0,0-0.7-0.5-0.7
				c-0.1,0-0.4,0-0.4,0c-0.4,0-0.6,0-1.1-0.1c0,0,0.1-0.2,0-0.3c0,0-0.1,0-0.1,0h0c0,0,0,0,0,0l0,0c0,0,0,0,0,0c0,0,0,0,0,0
				c0,0,0,0,0,0C24.4,15.9,24.3,15.8,24.3,15.8C24.3,15.8,24.3,15.8,24.3,15.8L24.3,15.8L24.3,15.8L24.3,15.8L24.3,15.8 M24.5,16.8
				C24.5,16.8,24.5,16.8,24.5,16.8c0.4,0,0.8,0,1.3,0c0.1,0.1,0,0.2,0,0.2c0,0,0,0,0,0h0c0,0,0,0,0,0c-0.1,0-0.2,0-0.4,0
				c0,0,0,0,0,0c0-0.1-0.3-0.1-0.3,0c0,0,0,0,0,0c0,0,0,0,0,0c0,0,0,0,0,0c0,0,0,0,0,0c0,0,0,0,0,0c-0.2,0-0.4,0-0.5,0
				C24.4,17,24.5,16.9,24.5,16.8"/>
			<path clip-path="url(#SVGID_4_)" fill="#FFFFFF" d="M16.9,6.1c-0.3,0.8,0.2,1.7,0.5,1.6c0.2,0.1,0.4-0.3,0.5-0.8
				C17.9,6.8,18,6.7,18,6.8c0,0.6,0,0.7,0.2,0.9c0.4,0.3,0.7,0,0.7,0c0,0,0.3-0.3,0.3-0.3c0.1-0.1,0.1-0.1,0.2,0
				c0.1,0.1,0.1,0.2,0.3,0.3c0.2,0.1,0.5,0,0.6-0.1c0.1-0.2,0.1-0.2,0.2-0.3c0.1-0.1,0.2-0.1,0.2,0c0,0.1-0.1,0.1,0,0.2
				c0.1,0.1,0.1,0,0.2,0C20.9,7.5,21,7.1,21,7.1c0-0.1-0.1-0.1-0.1-0.1c-0.1,0-0.1,0.1-0.1,0.1c-0.1,0-0.3,0.1-0.3-0.1
				c-0.1-0.2-0.1-0.4-0.2-0.5c0,0-0.1-0.2,0-0.3c0.1,0,0.2,0,0.2-0.1c0.1-0.1-0.1-0.4-0.2-0.5c-0.1-0.1-0.3-0.1-0.4,0
				c-0.1,0.1-0.1,0.2-0.1,0.3c0,0.1,0,0.2,0.1,0.4c0.1,0.2,0.3,0.4,0.2,0.8c0,0-0.1,0.2-0.3,0.1c-0.1,0-0.2,0-0.3-0.5
				c0-0.4,0-0.9-0.1-1.1c-0.1-0.1-0.1-0.3-0.2,0c0,0.1-0.2,0.2-0.1,0.5c0.1,0.2,0.1,0.5,0.1,0.9C19,7.1,19,7.1,18.9,7.2
				c-0.1,0.1-0.3,0.1-0.4,0c-0.1-0.1-0.2-0.1-0.2-0.3c0-0.3,0-0.8,0-0.9C18.2,5.9,18.1,5.9,18,6c-0.3,0.3-0.4,0.7-0.5,1.1
				c-0.1,0.3-0.2,0.2-0.2,0.1C17.1,7,17.1,5.9,16.9,6.1"/>
			<path clip-path="url(#SVGID_4_)" fill="#FFFFFF" d="M17.9,7.7C17.9,7.7,17.9,7.7,17.9,7.7C17.9,7.7,17.9,7.7,17.9,7.7
				c0,0-0.1,0.1-0.1,0.1c-0.1,0.1-0.1,0.2-0.1,0.3c0,0,0.2,0.4,0.3,0.7c0.1,0.3,0.2,0.7,0.1,1c-0.2,0.4-0.6,0.8-1,1
				c-0.2,0.1-0.4,0-0.4,0l0,0c-0.1-0.1-0.1-0.2-0.1-0.2v0l0,0c0.3-0.2,0.7-0.4,1-1c0.1-0.2,0.1-0.4,0-0.8c0-0.1-0.1-0.2-0.2-0.3
				c0,0,0,0,0,0c0.1,0,0.2,0.1,0.2,0c0-0.2-0.2-0.4-0.3-0.5c-0.1-0.1-0.2-0.1-0.4,0c-0.1,0.1-0.2,0.3-0.1,0.5
				c0.1,0.2,0.2,0.2,0.4,0.5v0c0,0,0,0.2,0,0.3c-0.1,0.2-0.7,0.7-0.8,0.7c0,0,0,0,0,0c0,0,0,0,0,0l0,0l0,0h0h0c0,0,0,0,0,0l0,0
				c0,0,0,0,0,0c0,0,0,0,0-0.1c0-0.1,0-0.3,0-0.4v0l0,0v0h0c-0.2,0.1-0.3,0.6-0.3,0.7c-0.6,0.4-1.2,0.7-1.6,1
				c-0.2,0.3,1.3-0.3,1.5-0.4c0,0,0,0,0,0c0,0,0,0.2,0.1,0.3c0.2,0.2,0.5,0.3,0.8,0.3c0.5-0.2,0.9-0.6,1.2-1c0-0.1,0.1-0.1,0.2-0.1
				c0.2,0.5,0.8,0.8,1.7,0.9c0.2-0.2,0.1-0.3,0-0.4c0,0-0.4-0.2-0.5-0.3c0-0.1,0.1-0.3,0.2-0.3c0.5-0.1,1-0.1,1.5-0.3
				c0-0.2,0.1-0.4,0.2-0.5c0-0.1,0.1-0.1,0.1-0.1c0,0,0,0,0,0l0,0c0,0,0,0,0,0v0c0,0,0,0,0,0l-0.1,0l-1.7,0c0,0,0,0,0,0c0,0,0,0,0,0
				c0,0,0,0,0,0l0,0c0,0,0,0,0,0l0,0c0,0,0,0,0,0l0,0v0v0v0v0v0c0,0,0,0,0,0v0v0l0,0c0,0,0,0,0,0c0,0,0,0,0.1,0
				C20.3,9.2,21,9.1,21,8.4c0-0.3-0.2-0.6-0.6-0.6c-0.3,0-0.5,0.3-0.5,0.7c0,0.1,0,0.3-0.1,0.3c-0.6,0.1-1.3,0.4-1.3,0.7h0l0,0
				c0,0,0,0,0,0h0c0,0,0,0,0,0s0,0,0,0h0h0h0l0,0c0,0-0.1-0.1-0.1-0.2c0-0.5-0.2-1-0.4-1.4C18,7.8,17.9,7.7,17.9,7.7L17.9,7.7
				L17.9,7.7C17.9,7.7,17.9,7.7,17.9,7.7L17.9,7.7L17.9,7.7 M20.3,8.3c0,0,0.1,0,0.1,0c0.1,0,0.1,0.1,0.1,0.1c0,0,0,0,0,0
				c0,0,0,0,0,0c0,0,0,0,0,0c0,0,0,0,0,0c0,0,0,0,0,0c0,0,0,0,0,0c0,0-0.1,0-0.2,0C20.3,8.5,20.3,8.4,20.3,8.3
				C20.3,8.4,20.3,8.4,20.3,8.3C20.3,8.4,20.3,8.4,20.3,8.3C20.3,8.4,20.3,8.4,20.3,8.3L20.3,8.3C20.3,8.4,20.3,8.4,20.3,8.3
				C20.3,8.3,20.3,8.3,20.3,8.3 M18.8,9.7C18.8,9.7,18.8,9.7,18.8,9.7L18.8,9.7c0.2,0,0.5,0.1,0.7,0.1c0.2,0,0.3,0.2,0.1,0.2
				c-0.2,0.1-0.4,0.1-0.4,0.4c0,0.1,0,0.2,0,0.2c0,0,0,0,0,0c0,0,0,0,0,0l0,0c0,0,0,0,0,0l0,0c0,0,0,0,0,0c0,0,0,0,0,0c0,0,0,0,0,0
				c0,0-0.1,0-0.2-0.1c-0.1-0.1-0.4-0.3-0.5-0.7C18.6,9.8,18.7,9.7,18.8,9.7"/>
			<path clip-path="url(#SVGID_4_)" fill="#FFFFFF" d="M13.4,6.1C13.6,6.2,14,6.1,14,5.8c0,0,0-0.1,0-0.1c0-0.1-0.1-0.1-0.2,0
				c0,0,0,0.1,0,0.1c0,0-0.1,0-0.1-0.1c0,0,0-0.1,0-0.1c0,0,0,0,0,0c0,0,0,0,0,0c0,0,0,0,0,0.1c0,0,0,0,0,0c0,0,0,0,0,0c0,0,0,0,0,0
				c0,0,0-0.1,0-0.1c0,0,0,0,0,0c-0.1,0-0.1,0.1-0.1,0.2C13.3,5.8,13.3,6,13.4,6.1"/>
			<path clip-path="url(#SVGID_4_)" fill="#FFFFFF" d="M19,8.4c0.2,0.1,0.6,0,0.5-0.3c0,0,0-0.1,0-0.1c0-0.1-0.1-0.1-0.2,0
				c0,0,0,0.1,0,0.1c0,0-0.1,0-0.1-0.1c0,0,0-0.1,0-0.1c0,0,0,0,0,0c0,0,0,0,0,0c0,0,0,0,0,0.1c0,0,0,0,0,0c0,0,0,0,0,0c0,0,0,0,0,0
				c0,0,0-0.1,0-0.1c0,0,0,0,0,0c-0.1,0-0.1,0.1-0.1,0.2C18.9,8.2,18.9,8.4,19,8.4"/>
			<path clip-path="url(#SVGID_4_)" fill="#FFFFFF" d="M22.3,7.5c0.2,0.1,0.6,0.1,0.5-0.3c0,0,0-0.1,0-0.1c0-0.1-0.1-0.1-0.2,0
				c0,0,0,0.1,0,0.1c0,0-0.1,0-0.1-0.1c0,0,0-0.1,0-0.1c0,0,0,0,0,0c0,0,0,0,0,0c0,0,0,0,0,0.1c0,0,0,0,0,0c0,0,0,0,0,0c0,0,0,0,0,0
				c0,0,0-0.1,0-0.1c0,0,0,0,0,0c-0.1,0-0.1,0.1-0.1,0.2C22.2,7.2,22.2,7.4,22.3,7.5"/>
			<path clip-path="url(#SVGID_4_)" fill="#FFFFFF" d="M24,9.9c-0.3,0.4-0.2,1-0.1,1.1c0.1,0.2,0.2,0.4,0.4,0.5
				c0.2,0.1,0.3,0.1,0.4,0c0.2-0.2,0.2-0.7,0.3-0.8c0.1-0.2,0.2-0.2,0.3-0.1c0.1,0.1,0.2,0.2,0.3,0.2c0.2,0.2,0.4,0.2,0.6,0
				c0.1-0.1,0.2-0.2,0.3-0.4c0.1-0.3,0-1.6,0-2.3c0-0.1-0.2-1-0.2-1s0-0.5,0-0.6c0,0,0-0.1,0-0.1c0,0,0.1,0,0.1,0.1
				c0,0,0.1-0.1,0.1-0.1c-0.2-0.3-0.3-0.6-0.5-0.8c0,0-0.1-0.1-0.1,0c-0.1,0-0.1,0.1-0.1,0.2c0,0.2,0,0.4,0.1,0.6
				c0.1,0.3,0.1,0.7,0.2,1c0.1,0.7,0.1,1.4,0.1,2.1c0,0.3-0.1,0.7-0.2,0.7c0,0-0.1,0.1-0.2,0c-0.1,0-0.3-0.4-0.3-0.4
				c-0.1-0.1-0.2-0.1-0.3,0c-0.3,0.3-0.4,0.7-0.6,1.1c0,0.1-0.2,0.1-0.3,0C23.9,10.4,24.1,9.7,24,9.9"/>
			<path clip-path="url(#SVGID_4_)" fill="#FFFFFF" d="M22.4,5.7c0.2,0.1,0.3,0.4,0.3,0.6c0,0.2-0.1,0.4-0.2,0.4c-0.1,0,0-0.2,0-0.4
				c0-0.1-0.3-0.3-0.2-0.4C22.2,5.7,22.3,5.7,22.4,5.7"/>
			<path clip-path="url(#SVGID_4_)" fill="#FFFFFF" d="M24.6,10.1c0-0.4,0-0.7,0-0.9c0-0.2-0.3-2.2-0.3-2.4c-0.1-0.3,0.3,0,0.2-0.2
				C24.3,6.3,24,5.9,24,5.7c-0.1-0.1,0-0.2-0.1,0c-0.1,0.4-0.1,0.6-0.1,0.9c0.3,1.5,0.6,2.8,0.5,4.2C24.4,10.7,24.5,10.4,24.6,10.1"
				/>
			<path clip-path="url(#SVGID_4_)" fill="#FFFFFF" d="M27.5,6.2c0.2,0.1,0.2,0.5,0.2,0.6c0,0.2-0.1,0.5-0.2,0.4c-0.1,0,0-0.3,0-0.4
				c0-0.1-0.2-0.4-0.2-0.4C27.3,6.2,27.4,6.2,27.5,6.2"/>
			<path clip-path="url(#SVGID_4_)" fill="#FFFFFF" d="M15.9,9.3c0.2,0.1,0.2,0.4,0.2,0.5c0,0.2-0.1,0.3-0.2,0.3c-0.1,0,0-0.2,0-0.3
				c0-0.2-0.2-0.3-0.2-0.3C15.7,9.3,15.8,9.3,15.9,9.3"/>
			<path clip-path="url(#SVGID_4_)" fill="#FFFFFF" d="M11.9,5.6c0.2,0.1,0.2,0.4,0.2,0.5c0,0.2-0.1,0.4-0.2,0.3c-0.1,0,0-0.3,0-0.3
				c0-0.1-0.2-0.3-0.2-0.3C11.6,5.6,11.8,5.6,11.9,5.6"/>
			<path clip-path="url(#SVGID_4_)" fill="#FFFFFF" d="M16.2,7.1c-0.2,0.1-0.2,0.4-0.1,0.5c0.1,0.1,0.3,0.1,0.3,0.1
				c0.2,0,0.3-0.3,0.3-0.3s0-0.1-0.2,0.1c-0.1,0-0.1,0-0.1-0.1c0-0.1,0-0.2,0-0.3C16.4,7.1,16.3,7,16.2,7.1"/>
			<path clip-path="url(#SVGID_4_)" fill="#FFFFFF" d="M17.5,5.5c-0.1,0.1-0.3,0.2-0.3,0.4c0,0.1,0,0.1,0,0.2c0.1,0.1,0.1,0.1,0.2,0
				c0.1,0,0.1-0.1,0.1-0.2c0-0.1-0.1,0.1-0.2-0.1c0-0.1,0.1-0.2,0.2-0.3C17.6,5.5,17.6,5.4,17.5,5.5"/>
			<path clip-path="url(#SVGID_4_)" fill="#FFFFFF" d="M18.5,5.6c0,0.1-0.1,0.5-0.1,0.5c0,0.1,0.1,0.2,0.2,0
				c0.1-0.3,0.1-0.4,0.1-0.5C18.7,5.4,18.6,5.4,18.5,5.6"/>
			<path clip-path="url(#SVGID_4_)" fill="#FFFFFF" d="M25,8.9c0,0,0.9-0.6,0.9-0.6c0.1,0,0.1,0.3,0,0.3c0,0.1-0.9,0.7-0.9,0.6
				C25,9.2,24.9,9,25,8.9"/>
			<path clip-path="url(#SVGID_4_)" fill="#FFFFFF" d="M25.8,8.9C26,9,26,9.4,26,9.5c0,0.2-0.2,0.4-0.2,0.4c-0.1,0,0-0.3,0-0.4
				c0-0.1-0.2-0.4-0.1-0.5C25.6,8.9,25.7,8.9,25.8,8.9"/>
			<path clip-path="url(#SVGID_4_)" fill="#FFFFFF" d="M20.5,10.8c0.1-0.1,0.3-0.2,0.3-0.2c0.1,0,0.2,0,0.2,0c0,0.1-0.1,0.2,0,0.3
				c0,0,0,0.1,0.1,0.1c0.1-0.1,0.3-0.1,0.4-0.1c0.1,0,0.1,0.2,0,0.2c-0.3,0.1-0.4,0.1-0.6,0.2c-0.1,0.1-0.2,0-0.2,0
				c0,0-0.1-0.1,0-0.2c0-0.1,0-0.1-0.1-0.1c-0.1,0-0.1,0.1-0.1,0C20.5,10.9,20.5,10.9,20.5,10.8"/>
			<path clip-path="url(#SVGID_4_)" fill="#FFFFFF" d="M26.7,11.1c0,0,0.1,0.1,0,0.2c-0.1,0.1-0.1,0.1-0.2,0.1c0,0,0,0.1,0,0.1
				c0.2,0,0.6-0.2,0.6-0.2c0.1,0,0-0.1,0-0.1c0,0-0.1,0-0.2,0c0,0-0.1,0-0.1-0.1c0,0,0-0.1,0.1-0.1c0-0.1,0-0.1-0.1-0.1
				c-0.1,0-0.1,0-0.2,0c-0.1,0-0.1,0-0.1,0.1C26.6,11,26.7,11,26.7,11.1"/>
		</g>
	</g>
</g>
<g>
	<path fill="#CCCCCC" d="M39.8,0.2v22.5H0.2V0.2H39.8 M40,0H0v23h40V0L40,0z"/>
</g>
</svg>
