<?xml version="1.0" encoding="utf-8"?>
<!-- Generator: Adobe Illustrator 17.1.0, SVG Export Plug-In . SVG Version: 6.00 Build 0)  -->
<!DOCTYPE svg PUBLIC "-//W3C//DTD SVG 1.1//EN" "http://www.w3.org/Graphics/SVG/1.1/DTD/svg11.dtd">
<svg version="1.1" id="Layer_1" xmlns="http://www.w3.org/2000/svg" xmlns:xlink="http://www.w3.org/1999/xlink" x="0px" y="0px"
	 viewBox="0 0 40 23" enable-background="new 0 0 40 23" xml:space="preserve">
<g>
	<g>
		<defs>
			<rect id="SVGID_154_" width="40" height="23"/>
		</defs>
		<clipPath id="SVGID_2_">
			<use xlink:href="#SVGID_154_"  overflow="visible"/>
		</clipPath>
		<rect y="0" clip-path="url(#SVGID_2_)" fill="#EED12F" width="40" height="7.7"/>
		<rect y="7.7" clip-path="url(#SVGID_2_)" fill="#242EA7" width="40" height="7.7"/>
		<rect y="15.3" clip-path="url(#SVGID_2_)" fill="#BD0034" width="40" height="7.7"/>
		<polygon clip-path="url(#SVGID_2_)" fill="#FFFFFF" points="18.3,10.4 18.6,8.2 19.6,10.2 17.6,9.2 19.8,8.8 		"/>
		<polygon clip-path="url(#SVGID_2_)" fill="#FFFFFF" points="20.4,10.2 21.4,8.2 21.7,10.4 20.2,8.8 22.4,9.2 		"/>
		<polygon clip-path="url(#SVGID_2_)" fill="#FFFFFF" points="16.3,11.3 15.9,9.2 17.5,10.7 15.3,10.4 17.3,9.3 		"/>
		<polygon clip-path="url(#SVGID_2_)" fill="#FFFFFF" points="22.5,10.7 24.1,9.2 23.7,11.3 22.7,9.3 24.7,10.4 		"/>
		<polygon clip-path="url(#SVGID_2_)" fill="#FFFFFF" points="14.9,12.9 13.7,11 15.8,11.8 13.6,12.3 15,10.7 		"/>
		<polygon clip-path="url(#SVGID_2_)" fill="#FFFFFF" points="24.2,11.8 26.3,11 25.1,12.9 25,10.7 26.4,12.3 		"/>
		<polygon clip-path="url(#SVGID_2_)" fill="#FFFFFF" points="14,14.8 12.3,13.4 14.5,13.5 12.6,14.7 13.4,12.7 		"/>
		<polygon clip-path="url(#SVGID_2_)" fill="#FFFFFF" points="25.5,13.5 27.7,13.4 26,14.8 26.6,12.7 27.4,14.7 		"/>
	</g>
</g>
<g>
	<path fill="#CCCCCC" d="M39.8,0.2v22.5H0.2V0.2H39.8 M40,0H0v23h40V0L40,0z"/>
</g>
</svg>
