<?xml version="1.0" encoding="utf-8"?>
<!-- Generator: Adobe Illustrator 17.1.0, SVG Export Plug-In . SVG Version: 6.00 Build 0)  -->
<!DOCTYPE svg PUBLIC "-//W3C//DTD SVG 1.1//EN" "http://www.w3.org/Graphics/SVG/1.1/DTD/svg11.dtd">
<svg version="1.1" id="Layer_1" xmlns="http://www.w3.org/2000/svg" xmlns:xlink="http://www.w3.org/1999/xlink" x="0px" y="0px"
	 viewBox="0 0 40 23" enable-background="new 0 0 40 23" xml:space="preserve">
<g>
	<g>
		<defs>
			<rect id="SVGID_118_" x="0" width="40" height="23"/>
		</defs>
		<clipPath id="SVGID_2_">
			<use xlink:href="#SVGID_118_"  overflow="visible"/>
		</clipPath>
		<rect x="0" y="0" clip-path="url(#SVGID_2_)" fill="#2534A4" width="40" height="11.5"/>
		<rect x="0" y="11.5" clip-path="url(#SVGID_2_)" fill="#BC0030" width="40" height="11.5"/>
		<polygon clip-path="url(#SVGID_2_)" fill="#FFFFFF" points="0,0 0,23 20.3,11.5 		"/>
		<polygon clip-path="url(#SVGID_2_)" fill="#F3D02F" points="2.7,20.8 1.8,20.3 1.1,21 1.3,20 0.4,19.4 1.4,19.3 1.6,18.3 
			2.1,19.3 3.1,19.2 2.3,19.8 		"/>
		<path clip-path="url(#SVGID_2_)" fill="#F3D02F" d="M5.5,9.4L4.7,8.1l-0.4,0l1,1.5L5.5,9.4z M4.9,10L3.3,8.8L3.2,8.1l0.6,0
			l1.3,1.6L4.9,10z M4.7,10.3L3.3,9.6L3.3,9.1l1.5,1L4.7,10.3z"/>
		<path clip-path="url(#SVGID_2_)" fill="#F3D02F" d="M7.4,9.2l0.4-1.4L7.5,7.4L7.2,9.1L7.4,9.2z M6.5,9.2l-0.2-2l0.5-0.5l0.5,0.4
			L7,9.1L6.5,9.2z M6.2,9.2L5.8,7.7L6,7.4l0.3,1.8L6.2,9.2z"/>
		<path clip-path="url(#SVGID_2_)" fill="#F3D02F" d="M8.9,10.3l1.3-0.7l0.1-0.4l-1.5,1L8.9,10.3z M8.3,9.7l1.3-1.5l0.7,0l0,0.6
			L8.7,10L8.3,9.7z M8,9.5l0.8-1.3l0.4,0L8.2,9.6L8,9.5z"/>
		<path clip-path="url(#SVGID_2_)" fill="#F3D02F" d="M9.1,12.1l1.5,0.4l0.3-0.3l-1.8-0.3L9.1,12.1z M9.1,11.3l2-0.2l0.5,0.5
			L11.2,12l-2.1-0.2L9.1,11.3z M9.1,10.9l1.5-0.4l0.3,0.3l-1.8,0.3L9.1,10.9z"/>
		<path clip-path="url(#SVGID_2_)" fill="#F3D02F" d="M8,13.6l0.8,1.3l0.4,0l-1-1.5L8,13.6z M8.6,13l1.6,1.2l0.1,0.7l-0.6,0
			l-1.3-1.6L8.6,13z M8.8,12.7l1.3,0.7l0.1,0.4l-1.5-1L8.8,12.7z"/>
		<path clip-path="url(#SVGID_2_)" fill="#F3D02F" d="M6.1,13.9l-0.4,1.4L6,15.6l0.3-1.8L6.1,13.9z M7,13.8l0.3,2l-0.5,0.5l-0.5-0.4
			l0.2-2L7,13.8z M7.4,13.8l0.4,1.4l-0.3,0.3l-0.3-1.8L7.4,13.8z"/>
		<path clip-path="url(#SVGID_2_)" fill="#F3D02F" d="M4.6,12.7l-1.3,0.7l-0.1,0.4l1.5-1L4.6,12.7z M5.2,13.3L4,14.9l-0.7,0l0-0.6
			L4.9,13L5.2,13.3z M5.5,13.6l-0.8,1.3l-0.4,0.1l1-1.5L5.5,13.6z"/>
		<path clip-path="url(#SVGID_2_)" fill="#F3D02F" d="M4.4,10.9l-1.5-0.4l-0.3,0.3l1.8,0.3L4.4,10.9z M4.4,11.7l-2,0.3l-0.5-0.5
			l0.4-0.5l2.1,0.2L4.4,11.7z M4.4,12.1l-1.5,0.4l-0.3-0.3l1.8-0.3L4.4,12.1z"/>
		<g clip-path="url(#SVGID_2_)">
			<defs>
				<rect id="SVGID_120_" x="0" width="40" height="23"/>
			</defs>
			<clipPath id="SVGID_4_">
				<use xlink:href="#SVGID_120_"  overflow="visible"/>
			</clipPath>
			<path clip-path="url(#SVGID_4_)" fill="#F3D02F" d="M6.7,9.1c1.4,0,2.5,1.1,2.5,2.4c0,1.3-1.1,2.4-2.5,2.4
				c-1.4,0-2.5-1.1-2.5-2.4C4.3,10.2,5.4,9.1,6.7,9.1"/>
			<polygon clip-path="url(#SVGID_4_)" fill="#F3D02F" points="15.2,12.3 15.8,11.5 15.2,10.7 16.2,11 16.8,10.2 16.8,11.2 
				17.8,11.5 16.8,11.8 16.8,12.8 16.2,12 			"/>
			<polygon clip-path="url(#SVGID_4_)" fill="#F3D02F" points="2.7,2 1.8,2.5 1.1,1.8 1.3,2.8 0.4,3.3 1.4,3.4 1.6,4.4 2.1,3.5 
				3.1,3.6 2.3,2.9 			"/>
		</g>
	</g>
</g>
<g>
	<path fill="#CCCCCC" d="M39.8,0.2v22.5H0.2V0.2H39.8 M40,0H0v23h40V0L40,0z"/>
</g>
</svg>
