<?xml version="1.0" encoding="utf-8"?>
<!-- Generator: Adobe Illustrator 17.1.0, SVG Export Plug-In . SVG Version: 6.00 Build 0)  -->
<!DOCTYPE svg PUBLIC "-//W3C//DTD SVG 1.1//EN" "http://www.w3.org/Graphics/SVG/1.1/DTD/svg11.dtd">
<svg version="1.1" id="Layer_1" xmlns="http://www.w3.org/2000/svg" xmlns:xlink="http://www.w3.org/1999/xlink" x="0px" y="0px"
	 viewBox="0 0 40 23" enable-background="new 0 0 40 23" xml:space="preserve">
<g>
	<g>
		<defs>
			<rect id="SVGID_11_" width="40" height="23"/>
		</defs>
		<clipPath id="SVGID_2_">
			<use xlink:href="#SVGID_11_"  overflow="visible"/>
		</clipPath>
		<g clip-path="url(#SVGID_2_)">
			<defs>
				<rect id="SVGID_13_" width="40" height="23"/>
			</defs>
			<clipPath id="SVGID_4_">
				<use xlink:href="#SVGID_13_"  overflow="visible"/>
			</clipPath>
			<rect clip-path="url(#SVGID_4_)" fill="#F0E030" width="40" height="23"/>
			<polygon clip-path="url(#SVGID_4_)" fill="#FFFFFF" points="0,7 40,16.6 40,11.2 0,1.6 			"/>
			<polygon clip-path="url(#SVGID_4_)" points="0,11.8 40,21.4 40,16.6 0,7 			"/>
			<rect x="19.8" y="9.6" clip-path="url(#SVGID_4_)" fill="#BD0030" width="0.4" height="1.1"/>
			<g clip-path="url(#SVGID_4_)">
				<path d="M20.2,10.7h-0.5V9.5h0.5V10.7L20.2,10.7z M19.8,10.6h0.3v-1h-0.3V10.6L19.8,10.6z"/>
			</g>
			<g clip-path="url(#SVGID_4_)">
				<defs>
					<rect id="SVGID_15_" width="40" height="23"/>
				</defs>
				<clipPath id="SVGID_6_">
					<use xlink:href="#SVGID_15_"  overflow="visible"/>
				</clipPath>
				<path clip-path="url(#SVGID_6_)" fill="#BD0030" d="M20.6,12.5c0-0.8,0-1.5,0.1-1.7c0.1-0.2,0.1-0.2,0.2-0.4
					c-0.2,0-0.5,0.2-0.6,0.5c-0.1-0.3-0.2-0.5-0.3-0.7c-0.1,0.1-0.3,0.3-0.3,0.7c-0.1-0.2-0.3-0.5-0.6-0.5c0.1,0.1,0.2,0.1,0.2,0.3
					c0.1,0.2,0.1,0.9,0.1,1.7L20.6,12.5z"/>
				<g clip-path="url(#SVGID_6_)">
					<path d="M20.5,12.5c0-0.7,0-1.5,0.1-1.7c0-0.1,0.1-0.2,0.1-0.2c-0.1,0.1-0.2,0.2-0.3,0.4l-0.1,0.2l-0.1-0.2
						c-0.1-0.2-0.1-0.4-0.3-0.6c-0.1,0.1-0.2,0.3-0.3,0.6l0,0.2L19.6,11c0-0.1-0.2-0.3-0.3-0.4c0,0,0.1,0.1,0.1,0.2
						c0.1,0.2,0.1,0.9,0.1,1.7l-0.1,0c0-0.7,0-1.5-0.1-1.7c0-0.1-0.1-0.2-0.1-0.2c0,0,0,0-0.1-0.1l-0.1-0.1l0.1,0
						c0.3,0,0.4,0.2,0.6,0.4c0.1-0.2,0.2-0.4,0.3-0.5l0.1,0l0.1,0c0.1,0.1,0.2,0.3,0.3,0.5c0.2-0.2,0.4-0.4,0.6-0.4l0.1,0l-0.2,0.2
						c-0.1,0.1-0.1,0.1-0.2,0.3c0,0.2-0.1,0.9-0.1,1.7L20.5,12.5L20.5,12.5z"/>
				</g>
				<path clip-path="url(#SVGID_6_)" fill="#BD0030" d="M20.6,14.4c0-0.9,0-1.7,0.1-1.9c0.1-0.2,0.1-0.3,0.2-0.4
					c-0.3,0-0.5,0-0.6,0.5c-0.1-0.4-0.2-0.6-0.4-0.7c-0.1,0.1-0.3,0.3-0.4,0.7c-0.2-0.4-0.4-0.5-0.6-0.5c0.1,0.1,0.2,0.2,0.3,0.4
					c0.1,0.2,0.1,1,0,1.9L20.6,14.4z"/>
				<g clip-path="url(#SVGID_6_)">
					<path d="M20.6,14.4c0-0.9,0-1.7,0.1-1.9c0-0.2,0.1-0.3,0.1-0.3c-0.2,0-0.3,0.1-0.4,0.4l-0.1,0.2l0-0.2
						c-0.1-0.3-0.2-0.5-0.3-0.6c-0.1,0.1-0.2,0.3-0.3,0.6l0,0.2l-0.1-0.2c-0.1-0.3-0.3-0.4-0.4-0.4c0.1,0.1,0.1,0.2,0.2,0.3
						c0.1,0.3,0.1,1.3,0,1.9l-0.1,0c0-1,0-1.7,0-1.9c0-0.2-0.1-0.2-0.2-0.3L18.8,12l0.1,0c0.3,0,0.5,0.1,0.6,0.3
						c0.1-0.3,0.2-0.5,0.3-0.6l0,0l0,0c0.1,0.1,0.2,0.3,0.3,0.6c0.1-0.3,0.3-0.4,0.6-0.3l0.1,0L21,12.1c-0.1,0.1-0.1,0.1-0.2,0.3
						c-0.1,0.3-0.1,1-0.1,1.9L20.6,14.4L20.6,14.4z"/>
				</g>
				<path clip-path="url(#SVGID_6_)" fill="#BD0030" d="M20.9,14.9c0-0.2,0-0.5,0.1-0.6c0-0.1,0.1-0.2,0.2-0.3c-0.3,0-0.6,0-0.8,0.4
					c-0.1-0.4-0.3-0.6-0.4-0.7c-0.2,0.1-0.3,0.3-0.4,0.7C19.4,14,19.1,14,18.8,14c0.1,0.1,0.1,0.2,0.2,0.3c0.1,0.1,0.1,0.4,0.1,0.6
					H20.9z"/>
				<g clip-path="url(#SVGID_6_)">
					<path d="M19.1,14.9l-0.1,0c0-0.2,0-0.5-0.1-0.6c0-0.1-0.1-0.1-0.1-0.2L18.7,14l0.1,0c0.3,0,0.6,0,0.8,0.3
						c0.1-0.3,0.2-0.5,0.4-0.6l0,0l0,0c0.2,0.1,0.3,0.3,0.4,0.6c0.2-0.3,0.5-0.3,0.8-0.3l0.1,0l-0.1,0.1c-0.1,0.1-0.1,0.1-0.1,0.2
						c0,0.1-0.1,0.4-0.1,0.6l-0.1,0c0-0.2,0-0.5,0.1-0.6c0-0.1,0.1-0.1,0.1-0.2c-0.3,0-0.5,0.1-0.6,0.4l-0.1,0.2l0-0.2
						c-0.1-0.4-0.3-0.6-0.4-0.7c-0.2,0.1-0.3,0.4-0.4,0.7l0,0.2l-0.1-0.2c-0.1-0.3-0.4-0.4-0.6-0.4c0,0.1,0.1,0.1,0.1,0.2
						C19.1,14.4,19.1,14.7,19.1,14.9L19.1,14.9z"/>
				</g>
				<rect x="19.8" y="7.4" clip-path="url(#SVGID_6_)" fill="#BD0030" width="0.3" height="0.9"/>
				<g clip-path="url(#SVGID_6_)">
					<path d="M20.2,8.4h-0.4v-1h0.4V8.4L20.2,8.4z M19.9,8.2h0.2V7.5h-0.2V8.2L19.9,8.2z"/>
				</g>
				<g clip-path="url(#SVGID_6_)">
					<g>
						<defs>
							<rect id="SVGID_17_" x="14.5" y="15.6" width="11" height="2.8"/>
						</defs>
						<clipPath id="SVGID_8_">
							<use xlink:href="#SVGID_17_"  overflow="visible"/>
						</clipPath>
						<path clip-path="url(#SVGID_8_)" fill="#BD0030" d="M22,18.2c0.1,0.1,0.4,0.1,0.9,0c1-0.2,1-1.1,2.5-0.7
							c-0.1-0.1-0.3-0.6-0.9-0.6c0.1-0.2,0.1-0.5,0-0.7c-0.1,0.3-0.3,0.4-0.4,0.5c0,0-0.3-0.2-0.3-0.5c0-0.6-0.3-0.7-0.3-0.6
							c-0.2,0-1.2,1.6-3.5,1.7c-2.2,0-3.4-1.6-3.5-1.7c0,0-0.3,0.1-0.3,0.6c0,0.3-0.3,0.5-0.3,0.5c-0.1-0.1-0.3-0.2-0.4-0.4
							c-0.1,0.2-0.1,0.5,0,0.7c-0.6,0-0.8,0.4-0.9,0.6C16,17.1,16,18,17,18.2c0.6,0.1,0.8,0.1,0.9,0L22,18.2z"/>
						<g clip-path="url(#SVGID_8_)">
							<path d="M17.6,18.3c-0.2,0-0.3,0-0.6-0.1c-0.4-0.1-0.6-0.2-0.8-0.4c-0.4-0.3-0.7-0.5-1.6-0.3l-0.1-0.1
								c0.1-0.2,0.4-0.6,0.9-0.6c0-0.2-0.1-0.4,0-0.6l0.1,0c0.1,0.2,0.2,0.3,0.4,0.4c0.1-0.1,0.2-0.2,0.2-0.4c0-0.5,0.2-0.6,0.3-0.7
								c0,0,0.1,0,0.1,0c0,0,0.1,0,0.2,0.2c0.4,0.4,1.5,1.5,3.2,1.5c0,0,0,0,0,0c1.7,0,2.8-1,3.2-1.4c0.2-0.2,0.2-0.2,0.3-0.2
								c0,0,0,0,0,0c0,0,0.1,0,0.1,0c0.1,0,0.3,0.2,0.3,0.7c0,0.2,0.2,0.4,0.2,0.4c0.1-0.1,0.3-0.2,0.4-0.4l0.1,0
								c0.1,0.2,0.1,0.5,0,0.6c0.5,0,0.8,0.4,0.9,0.6l-0.1,0.1c-0.9-0.3-1.3,0-1.6,0.3c-0.2,0.2-0.5,0.3-0.8,0.4c-0.6,0.1-0.9,0-1,0
								l0.1-0.1c0.1,0,0.4,0.1,0.9,0c0.4-0.1,0.6-0.2,0.8-0.4c0.3-0.3,0.7-0.5,1.6-0.3c-0.1-0.2-0.4-0.4-0.8-0.4L24.5,17
								c0-0.2,0.1-0.4,0-0.5c-0.1,0.2-0.3,0.3-0.4,0.4l-0.1,0c0,0-0.3-0.2-0.3-0.5c0-0.5-0.2-0.6-0.3-0.6c0,0-0.1,0.1-0.2,0.2
								c-0.4,0.4-1.5,1.5-3.3,1.5c0,0,0,0,0,0c-1.8,0-2.9-1.1-3.3-1.5c-0.1-0.1-0.1-0.1-0.1-0.1c0,0-0.2,0.1-0.3,0.6
								c0,0.3-0.2,0.5-0.3,0.5l-0.1,0c-0.1-0.1-0.3-0.2-0.4-0.4c0,0.2,0,0.4,0,0.5L15.4,17c-0.4,0-0.7,0.2-0.8,0.4
								c0.9-0.2,1.2,0.1,1.6,0.3c0.2,0.2,0.4,0.3,0.8,0.4c0.6,0.1,0.8,0,0.9,0l0.1,0.1C17.9,18.3,17.8,18.3,17.6,18.3L17.6,18.3z"/>
						</g>
					</g>
				</g>
				<g clip-path="url(#SVGID_6_)">
					<g>
						<defs>
							<rect id="SVGID_19_" x="15.8" y="16.7" width="8.4" height="2"/>
						</defs>
						<clipPath id="SVGID_10_">
							<use xlink:href="#SVGID_19_"  overflow="visible"/>
						</clipPath>
						<path clip-path="url(#SVGID_10_)" fill="#BD0030" d="M17.3,17.7c-0.5,0-1.6-0.8-1.4-1c0,0,0.3,0,0.7,0.3
							c0.6,0.4,1.1,1.6,3.4,1.6c2.4,0,2.9-1.2,3.5-1.6c0.4-0.3,0.6-0.3,0.7-0.3c0.1,0.2-0.9,0.9-1.4,1L17.3,17.7z"/>
						<g clip-path="url(#SVGID_10_)">
							<path d="M19.9,18.7c-1.4,0-2.2-0.5-2.7-0.9c-0.5,0-1.3-0.6-1.4-0.9c0-0.1,0-0.1,0-0.2c0.1-0.1,0.4,0,0.7,0.3
								c0.1,0.1,0.3,0.2,0.4,0.4c0.5,0.5,1.2,1.2,3,1.2c0,0,0,0,0,0c1.8,0,2.5-0.7,3-1.2c0.1-0.2,0.3-0.3,0.4-0.4
								c0.3-0.2,0.6-0.3,0.7-0.3l0.1,0c0,0,0,0.1,0,0.1c-0.1,0.3-1,0.9-1.4,0.9C22.2,18.2,21.4,18.7,19.9,18.7
								C20,18.7,19.9,18.7,19.9,18.7L19.9,18.7z M24,16.8c-0.1,0-0.3,0.1-0.6,0.3c-0.1,0.1-0.3,0.2-0.4,0.4
								c-0.1,0.1-0.1,0.1-0.2,0.2c0.4-0.1,0.9-0.5,1.1-0.7C24.1,16.8,24.1,16.8,24,16.8C24,16.8,24,16.8,24,16.8L24,16.8z
								 M15.9,16.8C15.9,16.8,15.9,16.8,15.9,16.8c0.2,0.3,0.8,0.7,1.2,0.8c-0.1-0.1-0.1-0.1-0.2-0.2c-0.1-0.2-0.3-0.3-0.4-0.4
								C16.1,16.8,15.9,16.8,15.9,16.8L15.9,16.8z"/>
						</g>
					</g>
				</g>
				<path clip-path="url(#SVGID_6_)" fill="#BD0030" d="M16.5,9.7c-2.1,2.2-1,7.2,3.4,7.2c4.4,0,5.7-5,3.5-7.3L16.5,9.7z M17,9.8
					c-1.1,1.8,0,5.1,3,5.1c3,0,4.1-3.3,3-5.1L17,9.8z"/>
				<g clip-path="url(#SVGID_6_)">
					<path d="M20,17C20,17,20,17,20,17c-1.9,0-3.4-1-4.1-2.7c-0.7-1.6-0.4-3.6,0.7-4.7l0.1,0.1c-1,1.1-1.3,3-0.6,4.6
						c0.7,1.6,2.1,2.6,4,2.6c1.8,0,3.3-0.9,4.1-2.5c0.7-1.6,0.5-3.5-0.6-4.6l0.1-0.1c1.1,1.2,1.4,3.1,0.6,4.8
						C23.4,16.1,21.9,17,20,17L20,17z M20,14.9c-1.3,0-2.4-0.6-3-1.7c-0.6-1.1-0.7-2.5-0.1-3.5L17,9.8c-0.6,0.9-0.5,2.3,0.1,3.4
						c0.6,1,1.7,1.6,2.9,1.6c1.3,0,2.3-0.6,2.9-1.6c0.6-1.1,0.7-2.4,0.1-3.4L23,9.7c0.6,1,0.6,2.4-0.1,3.5
						C22.3,14.3,21.3,14.9,20,14.9L20,14.9z"/>
				</g>
				<path clip-path="url(#SVGID_6_)" fill="#F4D02E" d="M20.8,17.6c0.2,0,0.3,0.2,0.2,0.3c-0.1,0.2-0.3,0.2-0.4,0.2
					c-0.1-0.1,0-0.1,0.2-0.2c0.2-0.1,0-0.2-0.1-0.3C20.7,17.7,20.7,17.6,20.8,17.6L20.8,17.6z"/>
				<g clip-path="url(#SVGID_6_)">
					<path fill="#BD0030" d="M20.6,18.2L20.6,18.2C20.6,18.1,20.6,18.1,20.6,18.2c-0.1-0.1,0-0.2,0.2-0.2c0.1,0,0.1,0,0.1-0.1
						c0-0.1-0.1-0.1-0.2-0.2c0,0-0.1-0.1,0-0.1c0,0,0-0.1,0.1-0.1c0.1,0,0.2,0.1,0.2,0.2c0,0.1,0,0.1,0,0.2
						C20.9,18.1,20.8,18.2,20.6,18.2L20.6,18.2z M20.8,17.6C20.7,17.6,20.7,17.6,20.8,17.6c-0.1,0.1-0.1,0.1,0,0.1
						c0.1,0,0.2,0.1,0.2,0.2c0,0,0,0.1-0.1,0.1c-0.2,0-0.3,0.1-0.3,0.1c0,0,0,0,0,0.1l0,0c0.1,0,0.3-0.1,0.3-0.2c0-0.1,0-0.1,0-0.2
						C20.9,17.7,20.8,17.6,20.8,17.6C20.8,17.6,20.8,17.6,20.8,17.6L20.8,17.6z"/>
				</g>
				<path clip-path="url(#SVGID_6_)" fill="#F4D02E" d="M20.3,17.5c0.1-0.1,0.1,0.2,0.1,0.3c0,0.2,0,0.4,0,0.4c0,0,0-0.2,0-0.4
					C20.3,17.7,20.3,17.6,20.3,17.5L20.3,17.5z"/>
				<g clip-path="url(#SVGID_6_)">
					<path fill="#BD0030" d="M20.4,18.3c0,0,0,0,0-0.1c0-0.1,0-0.2,0-0.2c-0.1-0.2-0.1-0.3,0-0.3c0,0,0,0,0,0c0,0.1,0,0.2,0,0.3
						c0,0.1,0,0.2,0,0.3C20.4,18.2,20.4,18.2,20.4,18.3L20.4,18.3L20.4,18.3c0.1,0,0.1-0.2,0-0.4c0-0.1,0-0.2-0.1-0.3
						c0,0.1,0.1,0.2,0.1,0.3C20.4,17.9,20.5,18.2,20.4,18.3L20.4,18.3L20.4,18.3z"/>
				</g>
				<path clip-path="url(#SVGID_6_)" fill="#F4D02E" d="M20.1,17.8c0.2,0.2-0.1,0.7-0.8,0.4c0-0.1,0.3,0,0.5,0
					C20.2,18.2,20,17.8,20.1,17.8L20.1,17.8z"/>
				<g clip-path="url(#SVGID_6_)">
					<path fill="#BB4B4B" d="M19.7,18.3c-0.1,0-0.2,0-0.3-0.1c0,0,0,0,0,0C19.4,18.3,19.6,18.3,19.7,18.3c0.3,0,0.4-0.2,0.5-0.3
						c0-0.1,0-0.2,0-0.2c0,0,0,0,0,0c0,0.1,0,0.3-0.3,0.4C19.8,18.3,19.7,18.3,19.7,18.3L19.7,18.3c-0.1-0.1-0.1-0.1-0.1-0.1l-0.1,0
						c0,0-0.1,0-0.1,0c0,0,0,0,0.1,0l0.1,0c0.1,0,0.2,0,0.3,0c0.3,0,0.3-0.3,0.3-0.4c0,0,0-0.1,0-0.1c0.1,0.1,0.1,0.1,0,0.2
						C20.1,18.2,19.9,18.3,19.7,18.3L19.7,18.3z"/>
				</g>
				<path clip-path="url(#SVGID_6_)" fill="#F4D02E" d="M19.8,17.5c0.1-0.1,0,0.2,0,0.3c0,0.2,0,0.4-0.1,0.3c0,0,0-0.2,0-0.4
					C19.7,17.6,19.7,17.6,19.8,17.5L19.8,17.5z"/>
				<g clip-path="url(#SVGID_6_)">
					<path fill="#BD0030" d="M19.8,18.2L19.8,18.2c0,0,0-0.1,0-0.1c0-0.1,0-0.2,0-0.3c0-0.2,0-0.3,0.1-0.3c0,0,0,0,0,0
						c-0.1,0.1-0.1,0.1-0.1,0.3c0,0.1,0,0.2,0,0.3C19.8,18.1,19.8,18.2,19.8,18.2L19.8,18.2L19.8,18.2c0.1-0.1,0.1-0.2,0.1-0.3
						c0-0.1,0-0.1,0-0.2c0-0.1,0-0.1,0-0.1c0,0,0,0.1,0,0.1c0,0.1,0,0.1,0,0.2C19.9,18,19.9,18.1,19.8,18.2L19.8,18.2L19.8,18.2z"/>
				</g>
				<path clip-path="url(#SVGID_6_)" fill="#F4D02E" d="M19.3,17.4c0.1,0,0.1,0,0.1,0.4c0,0.4-0.3,0.4-0.4,0.3C19,18,19,18,18.7,18
					c-0.1,0-0.1-0.1-0.3-0.1c-0.1,0-0.1-0.1-0.1-0.2c-0.2-0.1-0.2,0.1-0.5-0.1c0,0-0.2-0.1-0.1-0.3c0-0.2-0.2,0-0.4-0.1
					c0,0-0.2-0.1-0.3-0.2c-0.2-0.1,0-0.2,0.2,0c0.1,0.1,0.3-0.1,0.3-0.3c0-0.2-0.1-0.2,0.1-0.2c0.1,0,0.1,0.3-0.1,0.5
					c-0.2,0.2-0.1,0.2,0,0.2c0.1,0,0.4-0.4,0.4-0.4c0.1,0.1-0.3,0.3-0.2,0.5c0,0.1,0.2,0.2,0.4,0.2c0.2,0,0.2-0.2,0.3-0.2
					c0.1,0.1-0.2,0.2,0.1,0.3c0.1,0,0.1-0.2,0.2-0.2c0.1,0-0.1,0.2,0.1,0.2c0.1,0,0.1-0.2,0.2-0.2c0.1,0,0,0.3,0.3,0.3
					C19.4,18,19.2,17.4,19.3,17.4L19.3,17.4z"/>
				<g clip-path="url(#SVGID_6_)">
					<path fill="#BD0030" d="M19.1,18.2c-0.1,0-0.1,0-0.1-0.1C19,18,18.9,18,18.7,18c0,0,0,0,0,0c0,0-0.1-0.1-0.2-0.1
						c0,0,0,0-0.1-0.1c0,0,0-0.1-0.1-0.1c-0.1,0-0.1,0-0.2,0c-0.1,0-0.1,0-0.4-0.1c0,0-0.2-0.1-0.1-0.3c0,0,0-0.1,0-0.1
						c0,0-0.1,0-0.1,0c-0.1,0-0.2,0-0.3,0c-0.1,0-0.2-0.1-0.3-0.2c0,0-0.1-0.1-0.1-0.1c0,0,0.1,0,0.3,0.1c0.1,0.1,0.3-0.1,0.3-0.3
						c0-0.1,0-0.1,0-0.2c0,0,0-0.1,0-0.1c0,0,0,0,0.1,0c0,0,0,0,0.1,0c0,0.1,0,0.3-0.1,0.5c-0.1,0.1-0.1,0.1-0.1,0.1
						c0,0,0-0.1,0.1-0.1c0.1-0.1,0.2-0.4,0.1-0.4l0,0l0,0c0,0-0.1,0-0.1,0c0,0,0,0,0,0.1c0,0,0,0.1,0,0.2c0,0.2-0.2,0.4-0.3,0.3
						c-0.1-0.1-0.2-0.1-0.2-0.1c0,0,0,0,0,0.1c0.1,0.1,0.2,0.1,0.3,0.2c0.1,0,0.2,0,0.3,0c0,0,0.1,0,0.1,0c0,0,0,0.1,0,0.1
						c0,0.2,0.1,0.2,0.1,0.2c0.2,0.1,0.3,0.1,0.4,0.1c0.1,0,0.1,0,0.2,0c0,0,0.1,0.1,0.1,0.1c0,0,0,0,0,0c0,0,0.1,0,0.1,0
						c0.1,0,0.1,0,0.2,0.1c0,0,0,0,0,0c0.2,0,0.3,0,0.3,0.1C19.1,18.1,19.1,18.2,19.1,18.2c0.1,0,0.3-0.1,0.3-0.4l0-0.2
						c0-0.1,0-0.2,0-0.2c0,0,0,0-0.1,0c-0.1,0-0.1,0.2,0,0.3c0,0.1,0,0.3,0,0.3c-0.2,0-0.2-0.1-0.2-0.2c0-0.1,0-0.1,0-0.1
						c0,0,0,0-0.1,0.1c0,0,0,0.1-0.1,0.1c-0.1,0-0.1-0.1-0.1-0.2c0-0.1,0-0.1,0-0.1c0,0,0,0,0,0c0,0,0,0-0.1,0.1
						c0,0-0.1,0.1-0.1,0.1c-0.1,0-0.2-0.1-0.2-0.1c0,0,0-0.1,0-0.1c0,0,0-0.1,0-0.1c0,0-0.1,0-0.1,0.1c0,0.1-0.1,0.1-0.2,0.1
						c-0.2,0-0.4-0.1-0.4-0.2c0-0.1,0.1-0.3,0.1-0.4c0-0.1,0.1-0.1,0.1-0.2h0c0,0-0.2,0.1-0.2,0.2c-0.1,0.1-0.2,0.2-0.2,0.2
						c0,0-0.1,0-0.1,0c0,0,0,0,0,0c0,0,0.1,0,0.1,0c0,0,0.1-0.1,0.2-0.2c0.1-0.1,0.2-0.2,0.2-0.2c0.1,0,0,0.1,0,0.2
						c-0.1,0.1-0.2,0.2-0.1,0.4c0,0.1,0.2,0.2,0.4,0.2c0.1,0,0.2-0.1,0.2-0.1c0,0,0-0.1,0.1-0.1c0.1,0,0,0.1,0,0.1c0,0,0,0.1,0,0.1
						c0,0,0.1,0.1,0.1,0.1c0,0,0.1,0,0.1-0.1c0,0,0-0.1,0.1-0.1c0.1,0,0,0.1,0,0.1c0,0.1,0,0.1,0.1,0.1c0,0,0,0,0,0
						c0.1,0,0.1,0,0.1-0.1c0,0,0-0.1,0.1-0.1c0,0,0.1,0,0.1,0.1c0,0.1,0,0.2,0.2,0.2c0.1,0,0.1-0.1,0.1-0.3c0-0.1,0-0.3,0-0.3
						c0.1,0,0.1,0,0.1,0c0,0,0,0.1,0,0.2l0,0.2C19.4,18.1,19.3,18.2,19.1,18.2L19.1,18.2z"/>
				</g>
				<path clip-path="url(#SVGID_6_)" fill="#F4D02E" d="M17,17c0.1,0,0.2-0.1,0.2-0.2c0-0.1-0.2-0.2-0.4-0.1c-0.1,0-0.3-0.1-0.4-0.1
					c-0.1-0.1-0.1-0.3-0.2-0.2c-0.1,0,0.1,0.3,0.2,0.3c0.1,0.1,0.3,0.1,0.3,0.1C16.8,16.9,16.7,17,17,17L17,17z"/>
				<g clip-path="url(#SVGID_6_)">
					<path fill="#BD0030" d="M17,17c-0.2,0-0.2-0.1-0.2-0.2c0-0.1-0.1-0.1-0.2-0.1c-0.1,0-0.1,0-0.1,0c-0.1,0-0.3-0.2-0.3-0.3
						c0,0,0,0,0,0c0,0.1,0.2,0.3,0.2,0.3c0,0,0.1,0,0.1,0c0.1,0,0.2,0,0.2,0.1C16.8,16.9,16.8,17,17,17L17,17L17,17
						c0.1,0,0.2-0.1,0.2-0.2c0,0,0-0.1,0-0.1c-0.1-0.1-0.2-0.1-0.3-0.1c-0.1,0-0.3-0.1-0.4-0.1c0,0-0.1-0.1-0.1-0.1
						c0-0.1-0.1-0.1-0.1-0.1c0,0,0,0,0.1,0c0.1,0,0.1,0,0.1,0.1c0,0,0,0.1,0.1,0.1c0.1,0.1,0.3,0.1,0.4,0.1c0.1,0,0.1,0,0.2,0
						c0.1,0,0.2,0,0.2,0.1c0,0,0,0.1,0,0.1C17.2,16.9,17.1,17,17,17L17,17L17,17z"/>
				</g>
				<path clip-path="url(#SVGID_6_)" fill="#F4D02E" d="M21.6,17.6c0,0-0.1,0.4,0.2,0.4c0.3,0,0.4-0.1,0.5-0.2
					c0.1-0.1,0.3-0.3,0.2-0.4c-0.1-0.1-0.1,0.1-0.1,0.2c-0.1,0.1-0.4,0.3-0.6,0.3C21.5,17.8,21.6,17.6,21.6,17.6L21.6,17.6z"/>
				<g clip-path="url(#SVGID_6_)">
					<path fill="#BD0030" d="M21.7,18L21.7,18c-0.1,0-0.2-0.1-0.2-0.2c0-0.1,0-0.2,0-0.2c0,0,0,0,0,0.1c0,0.1,0,0.2,0.2,0.2
						c0.2,0,0.5-0.1,0.6-0.3c0,0,0-0.1,0.1-0.1c0-0.1,0-0.1,0.1-0.1c0,0,0,0,0,0c0,0-0.1,0-0.1,0.1c0,0,0,0.1-0.1,0.1
						c-0.1,0.1-0.3,0.3-0.5,0.3c-0.2,0-0.2-0.1-0.2-0.2c0,0,0,0,0,0c0,0,0,0.1,0,0.2C21.6,17.9,21.6,18,21.7,18L21.7,18L21.7,18
						c0.2,0,0.4-0.1,0.4-0.2c0.2-0.2,0.3-0.3,0.3-0.4c0,0.1-0.1,0.2-0.3,0.4C22.1,17.9,22,18,21.7,18L21.7,18z"/>
				</g>
				<path clip-path="url(#SVGID_6_)" fill="#F4D02E" d="M22.2,17.4c-0.1,0,0.1-0.1,0.2-0.2c0-0.1-0.1-0.1,0-0.2
					c0.1-0.1,0.1,0.2,0.1,0.2c0.2,0,0.1,0.2,0,0.1C22.3,17.3,22.2,17.4,22.2,17.4L22.2,17.4z"/>
				<g clip-path="url(#SVGID_6_)">
					<path fill="#BD0030" d="M22.2,17.4L22.2,17.4C22.1,17.4,22.1,17.4,22.2,17.4L22.2,17.4C22.2,17.4,22.2,17.4,22.2,17.4
						c0.1-0.1,0.2-0.1,0.2-0.1l0.1,0c0,0,0.1,0,0.1-0.1c0,0,0,0-0.1-0.1c0,0-0.1-0.1-0.1-0.1c0,0,0-0.1,0-0.1c0,0,0,0,0,0.1
						c0,0.1,0,0.1,0.1,0.1c0.1,0,0.1,0,0.1,0.1c0,0-0.1,0.1-0.1,0.1l-0.1,0C22.3,17.3,22.3,17.4,22.2,17.4
						C22.2,17.4,22.2,17.4,22.2,17.4L22.2,17.4L22.2,17.4z M22.1,17.4C22.1,17.3,22.2,17.3,22.1,17.4c0.1-0.1,0.1-0.1,0.2-0.2
						c0,0,0-0.1,0-0.1c0,0,0-0.1,0-0.1c0,0,0,0,0,0c0,0.1,0,0.1,0,0.1c0,0,0,0.1,0,0.1C22.3,17.2,22.3,17.3,22.1,17.4
						C22.2,17.3,22.2,17.4,22.1,17.4L22.1,17.4z"/>
				</g>
				<path clip-path="url(#SVGID_6_)" fill="#F4D02E" d="M22,17C22,17.1,22,17.1,22,17C22.1,16.9,22,16.9,22,17L22,17z"/>
				<g clip-path="url(#SVGID_6_)">
					<path fill="none" d="M22,17C22,17.1,22,17.1,22,17C22.1,16.9,22,16.9,22,17z"/>
				</g>
				<path clip-path="url(#SVGID_6_)" fill="#F4D02E" d="M22.1,16.9c0,0,0,0.1,0,0.1c0,0,0,0.1,0.1,0.1
					C22.3,17.1,22.3,16.9,22.1,16.9C22.2,16.9,22.2,16.9,22.1,16.9L22.1,16.9z"/>
				<g clip-path="url(#SVGID_6_)">
					<path fill="#BD0030" d="M22.2,17.1L22.2,17.1L22.2,17.1C22.2,17,22.2,17,22.2,17.1c-0.1-0.1-0.1-0.1-0.1-0.2c0,0,0-0.1,0-0.1
						c0,0.1,0,0.1,0.1,0.1C22.2,16.9,22.3,17,22.2,17.1C22.3,17,22.2,17.1,22.2,17.1L22.2,17.1L22.2,17.1z M22.1,16.9
						C22.1,16.9,22.1,16.9,22.1,16.9C22.1,17,22.1,17,22.1,16.9c0,0.1,0,0.1,0.1,0.1l0,0l0,0c0,0,0,0,0-0.1
						C22.2,17,22.2,16.9,22.1,16.9C22.2,16.9,22.2,16.9,22.1,16.9C22.2,16.9,22.1,16.9,22.1,16.9L22.1,16.9z"/>
				</g>
				<path clip-path="url(#SVGID_6_)" fill="#F4D02E" d="M22.5,16.8c0,0.1-0.1-0.2,0.1-0.2c0.1,0,0.2,0.2,0.2,0.4c0,0.1,0,0.2,0,0.3
					c0,0.1-0.2,0.3-0.2,0.3c-0.1,0,0-0.1,0.1-0.3c0.1-0.1,0.1-0.4,0.1-0.5c0-0.1-0.1,0.1-0.2,0.2C22.6,17.1,22.5,17,22.5,16.8
					C22.5,16.9,22.5,16.8,22.5,16.8c0.1,0.1,0.2,0,0.2-0.1C22.7,16.6,22.6,16.7,22.5,16.8L22.5,16.8z"/>
				<g clip-path="url(#SVGID_6_)">
					<path fill="#BD0030" d="M22.6,17.6L22.6,17.6C22.6,17.6,22.6,17.6,22.6,17.6L22.6,17.6c0.1,0,0.2-0.2,0.2-0.3
						c0-0.1,0-0.2,0-0.3c0-0.2-0.1-0.4-0.2-0.4c-0.1,0-0.2,0.1-0.2,0.2c0,0,0,0.1,0,0.1c0.1-0.1,0.1-0.1,0.2-0.1c0,0,0,0,0,0.1
						c0,0,0,0.1-0.1,0.1c0,0,0,0,0,0c0,0-0.1-0.1-0.1-0.1c0,0,0,0,0,0.1c0,0,0.1,0.1,0.1,0.1c0.1,0,0.1-0.1,0.1-0.1
						c0,0,0-0.1,0.1-0.1c0,0,0,0,0,0c0,0,0,0,0,0c0,0,0,0-0.1,0.1c0,0-0.1,0.1-0.1,0.1c-0.1,0-0.2-0.1-0.2-0.1c0,0,0,0,0-0.1
						c0,0,0.1,0,0.1,0l0.1,0c0,0,0.1-0.1,0.1-0.1c0,0,0,0,0,0c0,0-0.1,0-0.1,0.1l0,0c0,0,0,0,0-0.1c0-0.1,0-0.2,0.2-0.2
						c0.1,0,0.2,0.2,0.2,0.4c0,0.1,0,0.2,0,0.3C22.8,17.3,22.7,17.6,22.6,17.6L22.6,17.6z M22.6,17.6c0-0.1,0.1-0.1,0.1-0.2
						c0.1-0.1,0.1-0.4,0.1-0.5c0,0.1,0,0.4-0.1,0.5C22.7,17.5,22.6,17.5,22.6,17.6L22.6,17.6z"/>
				</g>
				<path clip-path="url(#SVGID_6_)" fill="#F4D02E" d="M23.1,16.3c0,0-0.1,0.2-0.2,0.2c0,0,0,0.1,0,0.2c0,0.1,0.1,0.2,0.1,0.3
					s-0.1,0.3,0,0.3c0,0,0.1-0.2,0.1-0.4c0-0.2-0.1-0.3-0.1-0.3C23,16.5,23.1,16.4,23.1,16.3c0.1,0,0-0.2,0-0.2c0,0-0.1,0-0.1,0.1
					C23.1,16.2,23.1,16.2,23.1,16.3L23.1,16.3z"/>
				<g clip-path="url(#SVGID_6_)">
					<path fill="#BD0030" d="M23,17.3L23,17.3c0,0,0-0.1,0-0.2c0-0.1,0-0.1,0-0.1c0-0.1,0-0.2-0.1-0.3c-0.1-0.1-0.1-0.2,0-0.2
						c0,0,0.1-0.1,0.1-0.1c0,0,0.1-0.1,0.1-0.1c0-0.1,0-0.1,0-0.1c0,0,0,0,0,0c0,0,0,0,0-0.1c0,0,0,0,0.1,0c0,0,0.1,0.2,0.1,0.3
						c0,0,0,0.1-0.1,0.1c0,0,0,0.1-0.1,0.1c0,0,0,0.1,0,0.1c0,0.1,0,0.1,0.1,0.2C23.1,17,23,17.3,23,17.3L23,17.3L23,17.3z
						 M23.1,16.1C23.1,16.1,23,16.1,23.1,16.1c-0.1,0.1,0,0.1,0,0.1c0,0,0,0,0,0.1c0,0,0,0.1-0.1,0.1c0,0-0.1,0.1-0.1,0.1
						c0,0,0,0.1,0,0.2c0.1,0.1,0.1,0.2,0.1,0.3c0,0,0,0.1,0,0.1c0,0.1,0,0.1,0,0.2l0,0c0,0,0.1-0.2,0.1-0.4c0-0.1,0-0.1-0.1-0.2
						c0,0,0-0.1,0-0.1c0,0,0-0.1,0.1-0.1c0,0,0.1-0.1,0.1-0.1C23.2,16.3,23.1,16.1,23.1,16.1C23.1,16.1,23.1,16.1,23.1,16.1
						L23.1,16.1z"/>
				</g>
				<path clip-path="url(#SVGID_6_)" fill="#F4D02E" d="M23.2,16.4c0,0,0,0.2,0,0.2C23.3,16.5,23.3,16.3,23.2,16.4L23.2,16.4z"/>
				<g clip-path="url(#SVGID_6_)">
					<path fill="none" d="M23.2,16.4c0,0,0,0.2,0,0.2C23.3,16.5,23.3,16.3,23.2,16.4z"/>
				</g>
				<path clip-path="url(#SVGID_6_)" fill="#F4D02E" d="M22.2,17.9C22.1,18,22.2,18,22.2,17.9C22.3,17.8,22.2,17.8,22.2,17.9
					L22.2,17.9z"/>
				<g clip-path="url(#SVGID_6_)">
					<path fill="none" d="M22.2,17.9C22.1,18,22.2,18,22.2,17.9C22.3,17.8,22.2,17.8,22.2,17.9z"/>
				</g>
				<path clip-path="url(#SVGID_6_)" fill="#F4D02E" d="M22.3,17.8c0,0.1,0.1,0.1,0.1,0C22.5,17.8,22.4,17.7,22.3,17.8L22.3,17.8z"
					/>
				<g clip-path="url(#SVGID_6_)">
					<path fill="#BD0030" d="M22.4,17.9C22.3,17.9,22.3,17.9,22.4,17.9C22.3,17.8,22.3,17.8,22.4,17.9
						C22.3,17.9,22.4,17.9,22.4,17.9C22.4,17.7,22.4,17.8,22.4,17.9C22.4,17.7,22.4,17.7,22.4,17.9C22.5,17.8,22.5,17.8,22.4,17.9
						C22.4,17.9,22.4,17.9,22.4,17.9L22.4,17.9z"/>
				</g>
				<path clip-path="url(#SVGID_6_)" fill="#BD0030" d="M17,16.7c-0.1,0-0.1,0.1,0,0.1C17,16.9,17.2,16.8,17,16.7L17,16.7z"/>
				<g clip-path="url(#SVGID_6_)">
					<path fill="#BD0030" d="M17,16.9L17,16.9L17,16.9c-0.1,0-0.1-0.1,0-0.1l0.1,0C17.1,16.8,17.1,16.8,17,16.9
						C17.1,16.9,17,16.9,17,16.9L17,16.9z M17,16.8c-0.1,0,0,0.1,0,0.1l0,0l0,0C17,16.9,17.1,16.9,17,16.8
						C17.1,16.8,17,16.8,17,16.8L17,16.8z"/>
				</g>
				<path clip-path="url(#SVGID_6_)" fill="#BD0030" d="M20,9.3c-0.7,0.1-1.2,0.5-0.9,0.7c0.1,0.1,0.8-0.2,0.9-0.4
					c0.2,0.4,0.9,0.5,1.1,0.4L20,9.3z"/>
				<g clip-path="url(#SVGID_6_)">
					<path d="M20.9,10.1c-0.3,0-0.7-0.1-0.9-0.4c-0.1,0.1-0.5,0.3-0.7,0.3c-0.1,0-0.2,0-0.3,0C19,10,18.9,9.9,19,9.9
						c0-0.2,0.5-0.5,1-0.6c0,0,0.1,0,0.1,0c0,0,0,0.1,0,0.1c-0.5,0.1-0.9,0.4-0.9,0.5c0,0,0,0,0,0.1c0,0,0.1,0,0.2,0
						c0.2,0,0.6-0.2,0.7-0.3l0-0.1l0,0.1c0.2,0.4,0.9,0.5,1,0.4c0,0,0.1,0,0.1,0c0,0,0,0.1,0,0.1C21,10.1,21,10.1,20.9,10.1
						L20.9,10.1z"/>
				</g>
				<path clip-path="url(#SVGID_6_)" fill="#BD0030" d="M16.4,9.1c0.1,0.2,0.7,0.6,1.1,0.6c0.4,0,1.4,0.2,1.6,0.1
					c0.2-0.1,0.7-0.4,0.8-0.4c0.1,0.1,0.9,0.5,1.2,0.5c0.3,0,2.2-0.5,2.2-0.6C23.5,9.2,23.1,9,22.8,9C22.5,9,16.4,9.1,16.4,9.1
					L16.4,9.1z"/>
				<path clip-path="url(#SVGID_6_)" fill="#BD0030" d="M18.1,9.9c0,0.1,0.1,0.2,0.3,0.2c0.3,0,0.9-0.1,1.2-0.5L18.1,9.9z"/>
				<g clip-path="url(#SVGID_6_)">
					<path d="M18.4,10.2C18.4,10.2,18.4,10.2,18.4,10.2c-0.3,0-0.4-0.2-0.4-0.2c0,0,0-0.1,0.1-0.1c0.1,0,0.1,0,0.1,0.1
						c0,0.1,0.1,0.1,0.2,0.1c0.3,0,0.9-0.2,1.2-0.5c0,0,0.1,0,0.1,0c0,0,0,0.1,0,0.1C19.3,10,18.7,10.2,18.4,10.2L18.4,10.2z"/>
				</g>
				<path clip-path="url(#SVGID_6_)" fill="#BD0030" d="M17.1,9.8c0,0.1,0.1,0.2,0.4,0.2c0.3,0,1.3-0.1,1.6-0.4L17.1,9.8z"/>
				<g clip-path="url(#SVGID_6_)">
					<path d="M17.5,10.1C17.5,10.1,17.5,10.1,17.5,10.1c-0.2,0-0.4-0.1-0.4-0.1c0,0,0-0.1,0-0.1c0,0,0-0.1,0.1,0c0,0,0.1,0,0,0.1
						c0,0,0,0,0,0c0,0,0.2,0.1,0.3,0.1c0.3,0,1.3-0.1,1.6-0.4c0,0,0.1,0,0.1,0c0,0,0,0.1,0,0.1C18.8,9.9,17.8,10.1,17.5,10.1
						L17.5,10.1z"/>
				</g>
				<path clip-path="url(#SVGID_6_)" fill="#BD0030" d="M16.4,9.5c-0.2,0.2,0.3,0.3,0.6,0.3c0.3,0,1.1,0,1.4-0.3L16.4,9.5z"/>
				<g clip-path="url(#SVGID_6_)">
					<path d="M17.1,9.8c-0.1,0-0.6,0-0.7-0.2c0,0,0-0.1,0-0.2c0,0,0.1,0,0.1,0c0,0,0,0.1,0,0.1c0,0,0,0,0,0c0,0.1,0.3,0.1,0.6,0.1
						c0.3,0,1,0,1.4-0.2c0,0,0.1,0,0.1,0c0,0,0,0.1,0,0.1C18.1,9.8,17.4,9.8,17.1,9.8C17.1,9.8,17.1,9.8,17.1,9.8L17.1,9.8z"/>
				</g>
				<path clip-path="url(#SVGID_6_)" fill="#BD0030" d="M15.9,9.2c-0.1,0.2,0.3,0.4,0.9,0.3c0.6,0,1.1-0.2,1.1-0.2L15.9,9.2z"/>
				<g clip-path="url(#SVGID_6_)">
					<path d="M16.8,9.6c-0.4,0-0.9-0.1-1-0.3c0-0.1,0-0.1,0-0.2c0,0,0.1,0,0.1,0c0,0,0,0.1,0,0.1c0,0,0,0,0,0.1
						c0.1,0.1,0.4,0.2,0.9,0.2c0.5,0,1.1-0.2,1.1-0.2c0,0,0.1,0,0.1,0c0,0,0,0.1,0,0.1C18,9.4,17.4,9.6,16.8,9.6
						C16.8,9.6,16.8,9.6,16.8,9.6L16.8,9.6z"/>
				</g>
				<path clip-path="url(#SVGID_6_)" fill="#BD0030" d="M21.8,9.9c0,0.1-0.1,0.2-0.3,0.2c-0.3,0-0.9-0.1-1.2-0.5L21.8,9.9z"/>
				<g clip-path="url(#SVGID_6_)">
					<path d="M21.5,10.2c-0.3,0-0.9-0.1-1.2-0.5c0,0,0-0.1,0-0.1c0,0,0.1,0,0.1,0c0.3,0.3,0.8,0.5,1.2,0.5c0.1,0,0.2,0,0.2-0.1
						c0,0,0-0.1,0.1-0.1c0,0,0.1,0,0.1,0.1C21.9,10,21.9,10.2,21.5,10.2C21.6,10.2,21.6,10.2,21.5,10.2L21.5,10.2z"/>
				</g>
				<path clip-path="url(#SVGID_6_)" fill="#BD0030" d="M22.8,9.8c0,0.1-0.1,0.2-0.4,0.2c-0.3,0-1.3-0.1-1.6-0.4L22.8,9.8z"/>
				<g clip-path="url(#SVGID_6_)">
					<path d="M22.4,10.1c-0.3,0-1.3-0.1-1.6-0.5c0,0,0-0.1,0-0.1c0,0,0.1,0,0.1,0c0.3,0.3,1.2,0.4,1.6,0.4c0.2,0,0.3-0.1,0.3-0.1
						c0,0,0-0.1,0.1-0.1c0,0,0.1,0,0.1,0c0,0,0,0.1,0,0.1C22.8,10,22.6,10,22.4,10.1C22.4,10.1,22.4,10.1,22.4,10.1L22.4,10.1z"/>
				</g>
				<path clip-path="url(#SVGID_6_)" fill="#BD0030" d="M23.5,9.5c0.2,0.2-0.3,0.3-0.6,0.3c-0.3,0-1.1,0-1.4-0.3L23.5,9.5z"/>
				<g clip-path="url(#SVGID_6_)">
					<path d="M22.9,9.8C22.9,9.8,22.9,9.8,22.9,9.8c-0.3,0-1.1,0-1.4-0.3c0,0,0-0.1,0-0.1c0,0,0.1,0,0.1,0c0.3,0.2,1.1,0.2,1.3,0.2
						c0.3,0,0.6-0.1,0.6-0.1c0,0,0-0.1,0-0.1c0,0,0.1,0,0.1,0c0.1,0.1,0,0.1,0,0.2C23.5,9.8,23,9.8,22.9,9.8L22.9,9.8z"/>
				</g>
				<path clip-path="url(#SVGID_6_)" fill="#BD0030" d="M24,9.2c0.1,0.2-0.3,0.4-0.9,0.4c-0.6,0-1.1-0.2-1.1-0.2L24,9.2z"/>
				<g clip-path="url(#SVGID_6_)">
					<path d="M23.2,9.6C23.1,9.6,23.1,9.6,23.2,9.6c-0.6,0-1.2-0.2-1.2-0.2c0,0,0,0,0-0.1c0,0,0,0,0.1,0c0,0,0.6,0.2,1.1,0.2
						c0.5,0,0.9-0.1,0.9-0.2c0,0,0,0,0-0.1c0,0,0-0.1,0-0.1c0,0,0.1,0,0.1,0c0,0.1,0,0.1,0,0.2C24,9.5,23.6,9.6,23.2,9.6L23.2,9.6z"
						/>
				</g>
				<path clip-path="url(#SVGID_6_)" fill="#BD0030" d="M17.1,9.2c-0.8,0.1-1.1,0.1-1.3,0c-0.2-0.1-0.5-0.3,0-0.3c0.3,0,0.5,0,0.8,0
					c0.9,0,2.3-0.7,2.7-0.7c0.4,0,0.5,0.2,0.7,0.2c0.2,0,0.3-0.2,0.7-0.2c0.4,0,1.7,0.7,2.7,0.7c0.4,0,0.5,0,0.8,0
					c0.5,0,0.2,0.3,0,0.3c-0.2,0.1-0.5,0.1-1.3,0H17.1z"/>
				<g clip-path="url(#SVGID_6_)">
					<path d="M23.6,9.3c-0.2,0-0.4,0-0.7-0.1c0,0-0.1,0,0-0.1c0,0,0-0.1,0.1,0c0.8,0.1,1.1,0,1.2,0c0.1-0.1,0.3-0.2,0.3-0.2l0,0
						c0,0,0,0-0.2,0c-0.2,0-0.3,0-0.4,0c-0.1,0-0.3,0-0.4,0c-0.6,0-1.3-0.3-1.8-0.5c-0.4-0.1-0.7-0.3-0.8-0.3
						c-0.2,0-0.3,0.1-0.4,0.1c-0.1,0-0.2,0.1-0.3,0.1c-0.1,0-0.2,0-0.3-0.1c-0.1,0-0.2-0.1-0.4-0.1c-0.2,0-0.5,0.1-0.8,0.3
						c-0.6,0.2-1.3,0.5-1.8,0.5c-0.2,0-0.3,0-0.4,0c-0.1,0-0.3,0-0.4,0c-0.2,0-0.2,0-0.2,0c0,0,0.1,0.1,0.3,0.2
						c0.1,0.1,0.4,0.1,1.2,0c0,0,0.1,0,0.1,0c0,0,0,0.1,0,0.1c-0.8,0.1-1.1,0-1.3,0c-0.1,0-0.3-0.2-0.3-0.3c0-0.1,0.2-0.1,0.3-0.1
						c0.2,0,0.3,0,0.4,0c0.1,0,0.2,0,0.4,0c0.5,0,1.2-0.3,1.8-0.5C18.8,8.2,19.1,8,19.3,8c0.2,0,0.4,0.1,0.5,0.1
						c0.1,0,0.1,0.1,0.2,0.1c0.1,0,0.1,0,0.2-0.1c0.1,0,0.2-0.1,0.5-0.1c0.2,0,0.5,0.1,0.9,0.3c0.6,0.2,1.3,0.5,1.8,0.5
						c0.2,0,0.3,0,0.4,0c0.1,0,0.3,0,0.4,0c0.1,0,0.3,0,0.3,0.1c0,0.1-0.2,0.3-0.3,0.3C24.1,9.3,23.9,9.3,23.6,9.3L23.6,9.3z"/>
				</g>
				<path clip-path="url(#SVGID_6_)" fill="#BD0030" d="M20,6.5c-0.4,0-0.9,0-1,0.4c-0.2,0.5-0.2,1-0.1,1c0.2,0,0.2-0.5,0.3-0.5
					c0.1,0,0.1,0.5,0.3,0.5c0.1,0,0.2-0.5,0.2-0.5c0,0,0.1,0.4,0.3,0.4c0.2,0,0.2-0.4,0.3-0.4c0,0,0.1,0.5,0.2,0.5
					c0.2,0,0.2-0.5,0.3-0.5c0.1,0,0.1,0.5,0.3,0.5c0.1,0,0.2-0.5-0.1-1C20.8,6.4,20.3,6.5,20,6.5L20,6.5z"/>
				<g clip-path="url(#SVGID_6_)">
					<path d="M18.9,7.9L18.9,7.9c0,0-0.1,0-0.1-0.1c-0.1-0.2-0.1-0.6,0.1-1c0.1-0.4,0.6-0.4,0.9-0.4c0.1,0,0.1,0,0.2,0
						c0.1,0,0.1,0,0.2,0c0.3,0,0.8,0,0.9,0.4c0.2,0.4,0.2,0.8,0.1,1c0,0.1-0.1,0.1-0.1,0.1c0,0,0,0,0,0c-0.2,0-0.2-0.2-0.3-0.4
						c0,0,0-0.1,0-0.1c0,0,0,0.1,0,0.1c0,0.1-0.1,0.3-0.2,0.3c-0.1,0-0.2-0.2-0.2-0.4c0,0,0,0,0,0c-0.1,0.1-0.1,0.4-0.3,0.4
						c-0.1,0-0.2-0.2-0.3-0.4c0,0,0,0,0,0c-0.1,0.2-0.1,0.4-0.2,0.4c-0.1,0-0.2-0.2-0.2-0.3c0,0,0-0.1,0-0.1c0,0,0,0.1,0,0.1
						C19.1,7.7,19.1,7.9,18.9,7.9L18.9,7.9z M20,6.5c0,0-0.1,0-0.2,0c-0.3,0-0.7,0-0.8,0.3c-0.2,0.4-0.2,0.9-0.1,0.9l0,0
						C19,7.7,19,7.6,19,7.5c0-0.1,0.1-0.2,0.1-0.2c0.1,0,0.1,0.1,0.1,0.2c0,0.1,0.1,0.2,0.1,0.2c0,0,0.1-0.2,0.1-0.3
						c0-0.1,0.1-0.2,0.1-0.2c0.1,0,0.1,0,0.1,0.2c0,0.1,0.1,0.3,0.2,0.3c0.1,0,0.1-0.2,0.2-0.3c0-0.1,0-0.1,0.1-0.1
						c0,0,0.1,0.1,0.1,0.2c0,0.1,0.1,0.3,0.1,0.3c0.1,0,0.1-0.2,0.1-0.2c0-0.1,0.1-0.2,0.1-0.2c0.1,0,0.1,0.1,0.1,0.2
						c0,0.1,0.1,0.3,0.2,0.3c0,0,0.1-0.5-0.1-0.9c-0.1-0.3-0.5-0.3-0.8-0.3C20.1,6.5,20,6.5,20,6.5L20,6.5z"/>
				</g>
				<path clip-path="url(#SVGID_6_)" fill="#BD0030" d="M19.1,6.6C19.2,6.8,20,6.8,20,6.8c0,0,0.7,0,0.9-0.1L19.1,6.6z"/>
				<g clip-path="url(#SVGID_6_)">
					<path d="M20,6.9C20,6.9,20,6.9,20,6.9c-0.3,0-0.9,0-1-0.2l0.1-0.1c0,0.1,0.4,0.1,0.8,0.1c0,0,0,0,0,0c0.4,0,0.7-0.1,0.8-0.1
						l0.1,0.1C20.7,6.8,20.3,6.9,20,6.9L20,6.9z"/>
				</g>
				<path clip-path="url(#SVGID_6_)" fill="#BD0030" d="M19.8,5v1.6c0,0,0,0.1,0.1,0.1c0.1,0,0.2-0.1,0.2-0.1l0-1.6L19.8,5z"/>
				<g clip-path="url(#SVGID_6_)">
					<path d="M20,6.7C20,6.7,20,6.7,20,6.7c-0.2,0-0.2-0.1-0.2-0.1l0-1.6h0.1v1.6h0c0,0,0,0,0.1,0c0.1,0,0.1,0,0.1,0l0-1.6h0.1
						l0,1.6c0,0,0,0.1,0,0.1C20.1,6.7,20.1,6.7,20,6.7L20,6.7z"/>
				</g>
				<path clip-path="url(#SVGID_6_)" fill="#BD0030" d="M20,5.2c0.6,0,0.8,0.3,0.9,0.4c0.2,0.1,0.2,0.1,0.5,0.1C21.6,5.6,21,6,21,6
					l0.2,0.4c-0.2,0-0.6-0.2-0.8-0.3c-0.2-0.1-0.4,0-0.5-0.1L20,5.2z"/>
				<g clip-path="url(#SVGID_6_)">
					<path d="M21.2,6.5c-0.3,0-0.6-0.2-0.8-0.3c-0.1,0-0.2-0.1-0.3-0.1l-0.1,0l0,0l0-0.1l0-1l0.1,0c0.4,0,0.6,0.2,0.8,0.3
						c0,0,0.1,0.1,0.1,0.1c0.2,0.1,0.2,0.1,0.4,0.1c0,0,0,0,0,0c0.1,0,0.1,0,0.1,0.1c0,0.1-0.1,0.1-0.4,0.4c0,0,0,0,0,0l0.2,0.4
						L21.2,6.5L21.2,6.5z M20.2,6.1c0.1,0,0.2,0,0.3,0.1c0.2,0.1,0.5,0.2,0.7,0.3L21,6.1C21,6,21,6,21.1,5.9c0.1,0,0.2-0.2,0.3-0.2
						c-0.2,0-0.3,0-0.5-0.1c-0.1,0-0.1-0.1-0.2-0.1c-0.1-0.1-0.3-0.3-0.7-0.3l0,0l0,0.8L20.2,6.1C20.1,6.1,20.2,6.1,20.2,6.1
						L20.2,6.1z"/>
				</g>
				<path clip-path="url(#SVGID_6_)" fill="#BD0030" d="M20.3,4.7C20.3,4.9,20.2,5,20,5s-0.3-0.1-0.3-0.3c0-0.2,0.2-0.3,0.3-0.3
					S20.3,4.5,20.3,4.7L20.3,4.7z"/>
				<g clip-path="url(#SVGID_6_)">
					<path d="M20,5c-0.2,0-0.4-0.2-0.4-0.4c0-0.2,0.2-0.4,0.4-0.4s0.4,0.2,0.4,0.4C20.4,4.9,20.2,5,20,5L20,5z M20,4.4
						c-0.2,0-0.3,0.1-0.3,0.3C19.7,4.8,19.8,5,20,5s0.3-0.1,0.3-0.3C20.3,4.5,20.1,4.4,20,4.4L20,4.4z"/>
				</g>
				<path clip-path="url(#SVGID_6_)" fill="#F4D02E" d="M16.3,12.5c0,0.1-0.1-0.1-0.2,0c-0.1,0.1-0.1,0.2-0.1,0.4
					c0,0.2,0.1,0.3,0.2,0.3c0.1,0,0.1-0.3,0.2-0.3c0.2-0.1,0.4,0,0.4,0.2c0,0.1-0.1,0.3-0.2,0.3c-0.1,0,0-0.1,0.1-0.2
					c0,0,0-0.2-0.1-0.2c-0.1,0-0.1,0.1-0.1,0.1c0,0-0.1,0.2-0.2,0.2c-0.1,0-0.2,0-0.4-0.1c-0.1-0.1-0.2-0.3-0.1-0.5
					c0.1-0.3,0.2-0.3,0.3-0.3C16.1,12.4,16.3,12.4,16.3,12.5L16.3,12.5z"/>
				<g clip-path="url(#SVGID_6_)">
					<path fill="#BD0030" d="M16.5,13.4L16.5,13.4c-0.1-0.1,0-0.1,0-0.1c0,0,0,0,0-0.1c0,0,0-0.2-0.1-0.2c-0.1,0-0.1,0.1-0.1,0.1
						c0,0.1-0.1,0.2-0.2,0.2c-0.1,0-0.2,0-0.4-0.2c-0.1-0.1-0.2-0.3-0.1-0.5c0.1-0.2,0.2-0.3,0.3-0.3c0.1,0,0.2,0,0.2,0.1l0,0l0,0
						l-0.1,0c0,0-0.1,0-0.2,0c-0.1,0.1-0.1,0.2-0.1,0.4c0,0.2,0.1,0.3,0.2,0.3c0.1,0,0.1-0.1,0.1-0.1c0-0.1,0-0.1,0.1-0.2
						c0.2-0.1,0.4,0,0.5,0.2c0,0.1,0,0.2,0,0.2C16.6,13.4,16.6,13.4,16.5,13.4L16.5,13.4z M16.4,13c0.2,0.1,0.1,0.2,0.1,0.3
						c0,0,0,0,0,0.1c0,0,0,0.1,0,0.1l0,0c0,0,0.1,0,0.1-0.1c0-0.1,0.1-0.1,0-0.2c0-0.1-0.3-0.3-0.4-0.2c-0.1,0-0.1,0.1-0.1,0.2
						c0,0.1,0,0.1-0.1,0.1c0,0,0,0,0,0c-0.1,0-0.2-0.1-0.2-0.3c0-0.2,0-0.4,0.1-0.4c0.1-0.1,0.2,0,0.2,0c0-0.1-0.1-0.1-0.2-0.1
						c-0.1,0-0.2,0-0.3,0.3c-0.1,0.2,0,0.4,0.1,0.5c0.1,0.1,0.3,0.1,0.3,0.1c0,0,0,0,0,0c0.1,0,0.2-0.1,0.2-0.2
						C16.3,13.1,16.3,13,16.4,13L16.4,13z"/>
				</g>
				<path clip-path="url(#SVGID_6_)" fill="#F4D02E" d="M16.1,13.5c-0.1,0,0-0.2-0.2-0.1c-0.1,0,0.1,0.2,0.2,0.3
					C16.2,13.7,16.2,13.6,16.1,13.5L16.1,13.5z"/>
				<g clip-path="url(#SVGID_6_)">
					<path fill="#BD0030" d="M16.1,13.7L16.1,13.7c-0.1,0-0.2-0.2-0.2-0.2c0.1,0,0.1,0,0.1,0c0.1,0,0.1,0,0.1,0.1c0,0,0,0.1,0,0.1
						C16.1,13.6,16.2,13.6,16.1,13.7C16.2,13.7,16.2,13.7,16.1,13.7L16.1,13.7L16.1,13.7z M16,13.4C16,13.4,15.9,13.4,16,13.4
						c-0.1,0.1,0.1,0.2,0.1,0.3c0,0,0,0,0.1,0c0,0,0,0-0.1-0.1C16,13.5,16,13.5,16,13.4C16,13.4,16,13.4,16,13.4L16,13.4z"/>
				</g>
				<path clip-path="url(#SVGID_6_)" fill="#F4D02E" d="M16.3,13.7c0,0.2,0.1,0.2,0.1,0.3c0,0.1-0.2,0.1-0.2,0.1
					c0,0.1-0.1,0.2,0.1,0.2c0.1,0,0.3,0,0.4,0c0.1,0.3,0.3,0.2,0.4,0.2c0.1,0,0.4-0.3,0.5-0.3c0.1,0-0.1-0.1-0.2,0
					c0,0-0.3,0.3-0.4,0.3c-0.1,0-0.2-0.2-0.2-0.3c0-0.1,0.2,0,0.2-0.1c0-0.1,0-0.2,0-0.2c-0.1,0-0.4,0-0.4,0c-0.1-0.1,0.1-0.2,0-0.2
					C16.5,13.6,16.3,13.6,16.3,13.7L16.3,13.7z"/>
				<g clip-path="url(#SVGID_6_)">
					<path fill="#BD0030" d="M16.8,14.5c-0.1,0-0.2,0-0.3-0.2c0,0-0.1-0.1-0.2,0c0,0-0.1,0-0.1,0c-0.1,0-0.1,0-0.1,0
						c0-0.1,0-0.1,0-0.2c0,0,0.1,0,0.1,0c0.1,0,0.1,0,0.1-0.1c0,0,0-0.1,0-0.1c0,0,0-0.1-0.1-0.2c0-0.1,0-0.1,0.1-0.1
						c0,0,0.1,0,0.1,0c0,0,0,0,0,0.1c0,0,0,0.1,0,0.2c0,0,0,0,0.1,0c0,0,0.1,0,0.2,0c0,0,0.1,0,0.1,0c0,0,0,0,0.1,0c0,0,0,0.1,0,0.2
						c0,0.1-0.1,0.1-0.2,0.1c0,0-0.1,0-0.1,0c0,0,0.1,0.2,0.1,0.2c0,0,0.1,0.1,0.1,0.1c0.1,0,0.2-0.1,0.4-0.3c0.1-0.1,0.2-0.1,0.2,0
						c-0.1,0-0.1,0.1-0.2,0.2c-0.1,0.1-0.2,0.2-0.3,0.2C17,14.5,16.9,14.5,16.8,14.5L16.8,14.5z M16.4,14.2c0.1,0,0.1,0,0.2,0.1
						c0.1,0.3,0.4,0.2,0.4,0.2c0.1,0,0.2-0.1,0.3-0.2c0.1-0.1,0.1-0.1,0.2-0.1c0,0-0.1-0.1-0.2,0c-0.1,0.1-0.3,0.3-0.4,0.3h0
						c0,0-0.1,0-0.1-0.1c-0.1-0.1-0.1-0.2-0.1-0.2c0,0,0,0,0.1,0c0.1,0,0.1,0,0.1-0.1c0-0.1,0-0.1,0-0.1l0,0c0,0-0.1,0-0.1,0
						c-0.1,0-0.3,0-0.3,0c0-0.1,0-0.1,0-0.2c0,0,0,0,0,0c0,0-0.2-0.1-0.2,0c0,0.1,0,0.1,0.1,0.2c0,0,0,0,0,0.1
						c0,0.1-0.1,0.1-0.1,0.1c0,0-0.1,0-0.1,0c0,0,0,0.1,0,0.2c0,0,0,0,0.1,0C16.3,14.2,16.3,14.2,16.4,14.2
						C16.4,14.2,16.4,14.2,16.4,14.2L16.4,14.2z"/>
				</g>
				<path clip-path="url(#SVGID_6_)" fill="#F4D02E" d="M17.3,14.4c-0.1,0.1-0.4,0.3-0.4,0.4c0,0.1,0.1,0.2,0.1,0.2
					c0.1,0,0.2,0,0.3-0.1c0.1-0.1,0.2-0.2,0.1-0.2c-0.2,0-0.2,0.2-0.3,0.2c-0.1,0-0.2-0.1,0-0.3c0.2-0.2,0.4-0.3,0.4-0.4
					C17.6,14.2,17.4,14.3,17.3,14.4L17.3,14.4z"/>
				<g clip-path="url(#SVGID_6_)">
					<path fill="#BD0030" d="M17.2,15c0,0-0.1,0-0.1,0c-0.1,0-0.1-0.1-0.1-0.2c0-0.1,0.1-0.2,0.2-0.3c0,0,0.1-0.1,0.1-0.1
						c0.1-0.1,0.2-0.2,0.3-0.2c0,0,0,0,0,0c0,0,0,0,0,0c-0.1,0-0.2,0.1-0.3,0.1c0,0-0.1,0.1-0.1,0.1c-0.1,0.1-0.2,0.2-0.2,0.3
						c0,0.1,0.1,0.2,0.1,0.2c0.1,0,0.2,0,0.3-0.1c0.1-0.1,0.1-0.1,0.1-0.2l-0.1,0c-0.1,0-0.1,0.1-0.1,0.1
						C17.3,14.9,17.3,14.9,17.2,15C17.3,14.9,17.3,14.9,17.2,15c0-0.1,0-0.1,0-0.2c0,0,0-0.1,0.1-0.2c0.1-0.1,0.1-0.1,0.2-0.2
						c0.1-0.1,0.2-0.1,0.2-0.2c0,0-0.1,0.1-0.2,0.2c-0.1,0.1-0.1,0.1-0.2,0.2c-0.1,0.1-0.1,0.2-0.1,0.2C17.2,14.9,17.2,14.9,17.2,15
						c0.1-0.1,0.1-0.1,0.1-0.2c0-0.1,0.1-0.1,0.2-0.1l0,0c0,0.1,0,0.1-0.1,0.2C17.3,15,17.3,15,17.2,15L17.2,15z"/>
				</g>
				<path clip-path="url(#SVGID_6_)" fill="#F4D02E" d="M16.9,15.1c0,0.1,0.2,0.1,0.2,0C17.1,15,16.9,15,16.9,15.1L16.9,15.1z"/>
				<g clip-path="url(#SVGID_6_)">
					<path fill="#BD0030" d="M17,15.1L17,15.1C16.9,15.1,16.9,15.1,17,15.1C16.9,15,17.1,15,17.1,15C17.1,15.1,17,15.1,17,15.1
						L17,15.1z M17,15C16.9,15,16.9,15,17,15C16.9,15.1,16.9,15.1,17,15L17,15c0.1,0.1,0.1,0.1,0.1,0C17.1,15,17,15,17,15L17,15z"/>
				</g>
				<path clip-path="url(#SVGID_6_)" fill="#F4D02E" d="M17.5,15.1c-0.1,0.1,0,0.2,0.1,0.3c0,0.1,0.1,0.1,0.2,0.1
					c0.1,0,0.3,0,0.4-0.1c0.1-0.1,0.1-0.3,0.1-0.3c-0.2,0-0.1,0.2-0.1,0.2c-0.1,0-0.3,0-0.4-0.3C17.5,15,17.7,15,17.7,15
					C17.7,14.9,17.5,15,17.5,15.1L17.5,15.1z"/>
				<g clip-path="url(#SVGID_6_)">
					<path fill="#BD0030" d="M17.9,15.5c0,0-0.1,0-0.1,0c-0.1,0-0.2-0.1-0.2-0.1c-0.1-0.1-0.2-0.2-0.1-0.3c0.1-0.1,0.2-0.1,0.2-0.1
						c0,0.1,0,0.1,0,0.1c0,0-0.1,0.1,0,0.1c0.1,0.2,0.3,0.3,0.4,0.3c0,0,0,0,0-0.1c0,0,0-0.1,0-0.1c0,0,0.1,0,0.1,0
						c0,0.1,0,0.2-0.1,0.2C18,15.5,18,15.5,17.9,15.5L17.9,15.5z M17.7,15c-0.1,0-0.1,0.1-0.2,0.1c-0.1,0.1,0,0.2,0.1,0.3
						c0.1,0.1,0.2,0.1,0.2,0.1c0.1,0,0.3,0,0.4-0.1c0.1-0.1,0.1-0.2,0.1-0.2c-0.1,0-0.1,0-0.1,0c0,0,0,0.1,0,0.1c0,0,0,0.1,0,0.1
						c0,0,0,0,0,0c-0.1,0-0.3-0.1-0.4-0.3C17.6,15.1,17.6,15.1,17.7,15C17.7,15,17.7,15,17.7,15C17.7,15,17.7,15,17.7,15L17.7,15z"
						/>
				</g>
				<path clip-path="url(#SVGID_6_)" fill="#F4D02E" d="M17.9,15.1c0,0.1,0.2-0.1,0.2-0.1C18.1,14.9,17.9,15,17.9,15.1L17.9,15.1z"
					/>
				<g clip-path="url(#SVGID_6_)">
					<path fill="#BD0030" d="M18,15.1L18,15.1L18,15.1L18,15.1c0-0.1,0.1-0.2,0.1-0.2c0,0,0,0.1,0,0.1C18,15.1,18,15.1,18,15.1
						L18,15.1z"/>
				</g>
				<path clip-path="url(#SVGID_6_)" fill="#F4D02E" d="M18.2,15.6c0,0.1,0,0.2-0.1,0.2c-0.1,0-0.2-0.1-0.3-0.1
					c-0.1,0-0.1,0.1-0.1,0.1c0,0,0.2,0.1,0.4,0.1c0.3,0,0.2,0.1,0.4,0.1c0.2,0,0.2-0.1,0.2-0.1c0,0-0.2,0-0.2,0
					c-0.1,0-0.2-0.1-0.2-0.2c0-0.1,0-0.2,0.1-0.2c0.1,0,0.1,0.1,0.1,0.2c0,0,0,0.1,0.1,0c0.1-0.1,0-0.2,0-0.3
					C18.4,15.2,18.2,15.4,18.2,15.6L18.2,15.6z"/>
				<g clip-path="url(#SVGID_6_)">
					<path fill="#BD0030" d="M18.5,15.9c-0.1,0-0.1,0-0.1-0.1c0,0-0.1-0.1-0.2-0.1c-0.1,0-0.1,0-0.1,0c-0.2,0-0.3,0-0.3-0.1
						c0,0,0,0,0-0.1c0,0,0,0,0.1-0.1l0,0c0,0,0.1,0,0.1,0.1c0,0,0.1,0.1,0.1,0.1c0.1,0,0.1,0,0.1-0.1c0-0.2,0.2-0.3,0.3-0.3
						c0.1,0,0.1,0.1,0.1,0.1c0,0.1,0,0.1,0,0.1c0,0,0,0-0.1,0l0,0c0,0,0,0-0.1-0.1c0-0.1,0-0.1,0-0.1c0,0,0,0-0.1,0
						c-0.1,0-0.1,0.1,0,0.2c0,0.1,0.1,0.2,0.2,0.2l0.1,0l0.1,0c0,0,0.1,0,0.1,0c0,0,0,0,0,0.1C18.7,15.9,18.6,15.9,18.5,15.9
						L18.5,15.9L18.5,15.9z M18.1,15.8c0.1,0,0.2,0,0.2,0.1c0,0,0.1,0.1,0.1,0.1v0l0,0c0.1,0,0.2,0,0.2-0.1c0-0.1,0-0.1-0.1-0.1
						l-0.1,0l-0.1,0c-0.1,0-0.2-0.1-0.2-0.2c0-0.1,0-0.2,0-0.2l0,0c0,0,0.1,0,0.1,0c0,0,0,0.1,0,0.1c0,0.1,0,0.1,0.1,0
						c0,0,0-0.1,0-0.1c0-0.1,0-0.1-0.1-0.1c-0.1,0-0.3,0.1-0.3,0.3C18.2,15.7,18.2,15.7,18.1,15.8L18.1,15.8c-0.1,0-0.1-0.1-0.2-0.1
						c0,0-0.1-0.1-0.1-0.1c-0.1,0-0.1,0-0.1,0c0,0,0,0,0,0.1C17.7,15.8,17.9,15.8,18.1,15.8C18.1,15.8,18.1,15.8,18.1,15.8
						L18.1,15.8z"/>
				</g>
				<path clip-path="url(#SVGID_6_)" fill="#F4D02E" d="M18.8,15.6c0,0.1-0.1,0.1-0.1,0.2c0,0.1,0,0.1,0.1,0.2
					c0,0.1,0.1,0.1,0.2,0.1c0.1,0,0.1-0.1,0.2-0.1c0.1,0,0,0.2,0.2,0.2c0.2,0,0.2-0.1,0.2-0.1c0.1,0,0,0.1,0.2,0.1
					c0.1,0,0.2-0.1,0.2-0.1c0.1,0,0.1,0.1,0.2,0.1c0.2,0,0.3,0,0.4-0.1c0,0,0.1-0.2,0.1-0.2c0.1,0,0.2,0.1,0.2,0.1s0.3-0.2,0.3-0.2
					c0.1,0,0.1,0.1,0.2,0.1c0.2,0,0.2-0.2,0.3-0.3c0.2,0,0.2-0.1,0.2-0.1c0,0,0-0.3,0-0.4c0-0.1-0.2-0.5-0.3-0.5
					c-0.1,0-0.1,0.1,0,0.2c0.1,0.1,0.3,0.4,0.3,0.5c0,0.1-0.2,0-0.4,0c-0.2,0-0.3,0.4-0.5,0.4c-0.1,0-0.1-0.1-0.1-0.1
					c0-0.1,0.1-0.2-0.1-0.2c-0.2,0-0.3,0.1-0.3,0.2c0,0.1,0.1,0.2,0,0.2c-0.1,0-0.3,0-0.4,0c-0.1,0,0-0.2-0.1-0.2
					c-0.1,0-0.1,0.2-0.2,0.3c-0.1,0-0.2,0-0.2-0.1c0-0.1,0-0.2,0-0.2c-0.1,0-0.1,0.3-0.2,0.3c-0.1,0-0.1,0-0.1-0.1
					c-0.1-0.1,0-0.2,0-0.3c-0.1,0-0.2,0.3-0.2,0.3c-0.1,0-0.2,0-0.2-0.1C18.9,15.8,18.9,15.6,18.8,15.6
					C18.9,15.5,18.8,15.5,18.8,15.6L18.8,15.6z"/>
				<g clip-path="url(#SVGID_6_)">
					<path fill="#BD0030" d="M19.8,16.2c-0.1,0-0.1-0.1-0.1-0.1c0,0,0,0,0,0c0,0,0,0-0.1,0c0,0-0.1,0.1-0.2,0.1
						c-0.1,0-0.1-0.1-0.2-0.1c0,0,0-0.1,0-0.1c0,0,0,0-0.1,0c0,0-0.1,0.1-0.1,0.1c-0.1,0-0.2,0-0.2-0.1c0-0.1,0-0.1,0-0.2
						c0,0,0,0,0-0.1c0,0,0,0,0-0.1c0,0,0.1-0.1,0.1-0.1c0,0,0,0,0.1,0l0,0c0,0.1,0,0.3,0,0.3c0,0.1,0.1,0.1,0.2,0.1l0,0
						c0,0,0.1-0.1,0.1-0.1c0-0.1,0.1-0.2,0.1-0.2c0.1,0,0.1,0.1,0,0.1c0,0,0,0.1,0,0.1c0.1,0.1,0.1,0.1,0.1,0.1l0,0
						c0,0,0.1-0.1,0.1-0.1c0-0.1,0.1-0.1,0.1-0.1c0,0,0,0,0,0.1c0,0,0,0.1,0,0.1c0,0.1,0.1,0.1,0.2,0.1c0.1,0,0.1-0.1,0.1-0.1
						c0-0.1,0-0.1,0.1-0.1c0,0,0,0,0,0.1c0,0.1,0,0.1,0.1,0.1c0.1,0,0.3,0,0.4,0c0,0,0,0,0,0c0,0,0-0.1,0-0.1c0,0,0-0.1,0-0.1
						c0,0,0,0,0-0.1c0-0.1,0.2-0.1,0.3-0.1c0.1,0,0.1,0,0.1,0c0,0.1,0,0.1,0,0.2c0,0.1,0.1,0.1,0.1,0.1c0.1,0,0.1-0.1,0.2-0.2
						c0.1-0.1,0.2-0.3,0.3-0.3c0.1,0,0.1,0,0.2,0c0.1,0,0.2,0.1,0.2,0c0-0.1-0.2-0.4-0.3-0.5l0,0c0-0.1-0.1-0.1,0-0.2c0,0,0,0,0.1,0
						c0.1,0,0.3,0.5,0.3,0.5c0,0.1,0.1,0.3,0,0.4c0,0,0,0.1-0.2,0.1c0,0-0.1,0-0.1,0.1c0,0.1-0.1,0.2-0.2,0.2c-0.1,0-0.1,0-0.2-0.1
						c0,0,0,0-0.1,0c0,0-0.1,0-0.1,0.1C21.2,16,21.1,16,21,16c0,0-0.1,0-0.1-0.1c0,0-0.1,0-0.1,0c0,0-0.1,0-0.1,0.1c0,0,0,0.1,0,0.1
						c0,0-0.2,0.1-0.4,0.1c0,0,0,0,0,0c-0.1,0-0.2-0.1-0.2-0.1c0,0,0,0,0,0c0,0,0,0-0.1,0C20,16.1,19.9,16.2,19.8,16.2L19.8,16.2z
						 M19.7,16C19.7,16,19.7,16,19.7,16c0.1,0.1,0.1,0.1,0.2,0.1c0.1,0,0.1,0,0.2-0.1c0,0,0.1-0.1,0.1-0.1c0,0,0,0,0.1,0
						c0,0,0.1,0.1,0.2,0.1c0.2,0,0.3,0,0.4-0.1c0,0,0,0,0-0.1c0,0,0-0.1,0.1-0.1c0,0,0.1,0,0.1,0.1C21,16,21,16,21,16
						c0,0,0.1-0.1,0.2-0.1c0.1-0.1,0.1-0.1,0.1-0.1c0,0,0,0,0,0c0,0,0,0,0.1,0c0,0,0.1,0.1,0.1,0.1c0.1,0,0.2-0.1,0.2-0.2
						c0,0,0.1-0.1,0.1-0.1c0.1,0,0.2-0.1,0.2-0.1c0-0.1,0-0.3,0-0.4c0-0.1-0.2-0.5-0.3-0.5c-0.1,0.1,0,0.1,0,0.2l0,0
						c0.1,0.2,0.3,0.4,0.3,0.5c0,0.1-0.1,0-0.2,0c-0.1,0-0.1,0-0.2,0c-0.1,0-0.2,0.1-0.3,0.2c-0.1,0.1-0.1,0.2-0.2,0.2
						c-0.1,0-0.1,0-0.1-0.1c0,0,0,0,0-0.1c0,0,0.1-0.1,0-0.2c0,0,0,0-0.1,0c-0.2,0-0.3,0.1-0.3,0.1c0,0,0,0,0,0.1c0,0,0,0.1,0,0.1
						c0,0,0,0.1,0,0.1c0,0,0,0-0.1,0c-0.1,0-0.3,0-0.4,0c-0.1,0-0.1-0.1-0.1-0.2c0-0.1-0.1-0.1-0.1,0c0,0.1,0,0.1-0.1,0.2
						c0,0,0,0,0,0c-0.1,0-0.2,0-0.2-0.1c0,0,0-0.1,0-0.1c0,0,0-0.1,0-0.1l0,0c0,0-0.1,0.1-0.1,0.1c0,0.1-0.1,0.2-0.1,0.2
						c-0.1,0-0.1,0-0.1-0.1c0-0.1,0-0.1,0-0.2c0-0.1,0-0.1,0-0.1h0c0,0-0.1,0.1-0.1,0.2c0,0.1-0.1,0.1-0.1,0.1c-0.1,0-0.2,0-0.2-0.1
						c0,0,0-0.3,0-0.3l-0.1,0c0,0.1-0.1,0.1-0.1,0.2c0,0,0,0,0,0c0,0,0,0,0,0c0,0,0,0.1,0.1,0.2c0,0.1,0.1,0.1,0.2,0.1
						c0.1,0,0.1,0,0.1-0.1c0,0,0.1-0.1,0.1-0.1c0,0,0.1,0,0.1,0.1c0,0.1,0,0.1,0.1,0.1C19.5,16.1,19.6,16.1,19.7,16
						C19.6,16,19.6,16,19.7,16L19.7,16L19.7,16z"/>
				</g>
				<path clip-path="url(#SVGID_6_)" fill="#F4D02E" d="M21.9,14.8c0.2,0.2,0.3,0.6,0.4,0.6c0.1,0-0.2-0.4-0.3-0.6
					C22,14.7,21.7,14.5,21.9,14.8L21.9,14.8z"/>
				<g clip-path="url(#SVGID_6_)">
					<path fill="#BD0030" d="M22.3,15.4L22.3,15.4c-0.1,0-0.1-0.2-0.3-0.3c-0.1-0.1-0.1-0.2-0.2-0.3c-0.1-0.1-0.1-0.1,0-0.1
						c0.1,0,0.2,0.1,0.2,0.2C22.1,14.9,22.3,15.3,22.3,15.4L22.3,15.4L22.3,15.4z M21.8,14.7C21.9,14.7,21.8,14.7,21.8,14.7
						c0.1,0.2,0.2,0.3,0.2,0.4c0.1,0.2,0.2,0.3,0.2,0.3c0,0-0.2-0.4-0.3-0.5C22,14.7,21.9,14.7,21.8,14.7L21.8,14.7z"/>
				</g>
				<path clip-path="url(#SVGID_6_)" fill="#F4D02E" d="M18.8,15.4c0,0.1,0,0.1,0,0.1c0,0,0.1-0.1,0.1-0.1
					C18.9,15.3,18.8,15.3,18.8,15.4L18.8,15.4z"/>
				<g clip-path="url(#SVGID_6_)">
					<path fill="#BD0030" d="M18.8,15.5L18.8,15.5c0,0,0-0.1,0-0.1c0.1-0.1,0.1,0,0.1,0C18.9,15.4,18.9,15.5,18.8,15.5L18.8,15.5
						L18.8,15.5z"/>
				</g>
				<path clip-path="url(#SVGID_6_)" fill="#F4D02E" d="M22.4,14.9c0,0.1,0.1,0.3,0.3,0.3c0.2,0,0.4-0.2,0.4-0.4
					c0-0.2-0.2-0.3-0.3-0.3c-0.1,0,0,0.2,0.2,0.2c0.1,0,0,0.1-0.1,0.2C22.7,15,22.5,15,22.4,14.9C22.4,14.8,22.4,14.8,22.4,14.9
					L22.4,14.9z"/>
				<g clip-path="url(#SVGID_6_)">
					<path fill="#BD0030" d="M22.6,15.2c-0.1,0-0.1,0-0.2-0.1c-0.1-0.1-0.1-0.1-0.1-0.2l0,0c0,0,0.1,0,0.1,0.1c0,0.1,0.3,0.1,0.4,0
						c0.1-0.1,0.1-0.2,0.1-0.2c-0.1,0-0.2-0.1-0.2-0.2c0,0,0-0.1,0-0.1c0.1,0,0.2,0,0.2,0.1c0.1,0.1,0.1,0.1,0.1,0.2
						C23,14.9,22.8,15.1,22.6,15.2L22.6,15.2L22.6,15.2z M22.4,14.8c0,0.1,0,0.2,0.1,0.2c0,0,0.1,0.1,0.2,0.1v0l0,0
						c0.2,0,0.4-0.2,0.4-0.4c0-0.1,0-0.1-0.1-0.2c-0.1-0.1-0.1-0.1-0.2-0.1c0,0,0,0,0,0.1c0,0.1,0.1,0.1,0.2,0.1l0,0l0,0
						c0,0,0,0.1-0.1,0.2C22.7,15,22.5,15,22.4,14.8C22.4,14.8,22.4,14.8,22.4,14.8L22.4,14.8z"/>
				</g>
				<path clip-path="url(#SVGID_6_)" fill="#F4D02E" d="M22.5,14.5c0,0.1,0,0.2,0.1,0.2C22.6,14.6,22.5,14.4,22.5,14.5L22.5,14.5z"
					/>
				<g clip-path="url(#SVGID_6_)">
					<path fill="#BD0030" d="M22.5,14.5c0,0,0,0.1,0,0.1c0,0,0,0,0.1,0v0l0,0C22.6,14.6,22.5,14.5,22.5,14.5L22.5,14.5z"/>
				</g>
				<path clip-path="url(#SVGID_6_)" fill="#F4D02E" d="M23,14.4c0,0.1,0.1,0.2,0.2,0.2c0.1,0,0.1,0,0.1,0.1c0,0.1-0.2,0.3-0.2,0.3
					c0,0.1,0.1,0.1,0.1,0c0-0.1,0.2-0.4,0.2-0.4c0-0.1,0.1-0.2,0.1-0.3c0-0.1,0.1,0,0.2,0c0.1,0,0.1-0.1,0.1-0.2
					c0-0.1-0.1-0.1-0.1-0.2c0,0,0.1-0.2,0.1-0.2c0-0.1-0.1-0.3-0.2-0.3c-0.1,0,0,0.1,0,0.1c0,0,0.1,0.1,0.1,0.2
					c-0.1,0.1-0.3,0.2-0.3,0.3c0,0.1,0,0.4-0.1,0.4s-0.1-0.2-0.3-0.2C23,14.1,23,14.3,23,14.4L23,14.4z"/>
				<g clip-path="url(#SVGID_6_)">
					<path fill="#BD0030" d="M23.1,15.1L23.1,15.1c-0.1,0-0.1-0.1-0.1-0.1c0,0,0.1-0.1,0.1-0.2c0-0.1,0.1-0.1,0.1-0.2
						c0,0,0-0.1-0.1-0.1c-0.1,0-0.1-0.1-0.1-0.2c0-0.1,0-0.2,0-0.2c0.1-0.1,0.2,0,0.3,0.1c0,0,0.1,0.1,0.1,0.1c0,0,0.1-0.2,0.1-0.3
						c0,0,0-0.1,0-0.1c0-0.1,0.1-0.1,0.2-0.2c0.1,0,0.1-0.1,0.2-0.1c0,0,0-0.1-0.1-0.1c0,0-0.1-0.1-0.1-0.1c0.1,0,0.1,0,0.1,0.1
						c0.1,0.1,0.1,0.2,0.1,0.2c0,0,0,0.1-0.1,0.2c0,0,0,0.1,0,0.1c0,0,0,0,0,0.1c0,0,0,0,0,0.1c0,0.1-0.1,0.2-0.1,0.2c0,0,0,0-0.1,0
						c0,0-0.1,0-0.1,0c0,0,0,0,0,0.1c0,0.1,0,0.2-0.1,0.2c0,0,0,0.1,0,0.1C23.4,14.7,23.3,15,23.1,15.1
						C23.2,15.1,23.2,15.1,23.1,15.1L23.1,15.1z M23.1,14.1C23.1,14.1,23,14.1,23.1,14.1C23,14.2,23,14.3,23,14.4
						c0,0.1,0.1,0.2,0.1,0.2c0.1,0,0.1,0,0.1,0.1c0,0,0,0.1-0.1,0.2c0,0.1-0.1,0.1-0.1,0.2c0,0,0,0.1,0,0.1l0,0c0,0,0,0,0.1,0
						c0-0.1,0.2-0.4,0.2-0.4c0,0,0-0.1,0-0.1c0-0.1,0.1-0.1,0.1-0.2c0,0,0-0.1,0-0.1c0.1,0,0.1,0,0.1,0c0,0,0,0,0.1,0l0,0
						c0.1,0,0.1-0.1,0.1-0.2c0,0,0-0.1,0-0.1c0,0,0,0,0-0.1c0,0,0,0,0-0.1c0-0.1,0-0.1,0-0.2c0,0,0-0.1-0.1-0.2c0,0-0.1-0.1-0.1-0.1
						c0,0,0,0.1,0,0.1c0,0.1,0.1,0.1,0.1,0.2c0,0.1-0.1,0.1-0.2,0.1c-0.1,0-0.1,0.1-0.2,0.1c0,0,0,0.1,0,0.1c0,0.1,0,0.3-0.1,0.3
						c0,0-0.1,0-0.1-0.1C23.2,14.2,23.2,14.1,23.1,14.1L23.1,14.1L23.1,14.1z"/>
				</g>
				<path clip-path="url(#SVGID_6_)" fill="#F4D02E" d="M23.2,13.3c0,0.1,0.1,0.3,0.2,0.3c0.1,0,0-0.1,0-0.1c0,0,0.1-0.1,0.1-0.1
					C23.3,13.3,23.2,13.2,23.2,13.3L23.2,13.3z"/>
				<g clip-path="url(#SVGID_6_)">
					<path fill="#BD0030" d="M23.4,13.6c-0.1,0-0.2-0.2-0.2-0.3l0,0c0,0,0.1,0,0.1,0l0,0c0,0,0,0,0,0.1c0,0-0.1,0-0.1,0.1
						C23.4,13.4,23.4,13.4,23.4,13.6C23.4,13.5,23.4,13.5,23.4,13.6L23.4,13.6L23.4,13.6z M23.2,13.2c0,0.1,0.1,0.3,0.1,0.3v0l0,0
						c0,0,0,0,0-0.1c0,0,0-0.1,0-0.1c0,0,0,0,0.1-0.1c0,0,0,0,0,0l-0.1,0C23.3,13.3,23.3,13.2,23.2,13.2L23.2,13.2z"/>
				</g>
				<path clip-path="url(#SVGID_6_)" fill="#F4D02E" d="M23.2,13c0,0.1,0.3,0.2,0.5,0.2c0.1,0,0.3,0.2,0.3,0.1
					c0.1,0-0.4-0.2-0.5-0.3C23.5,13.1,23.2,12.9,23.2,13L23.2,13z"/>
				<g clip-path="url(#SVGID_6_)">
					<path fill="#BD0030" d="M24,13.4c0,0-0.1,0-0.2-0.1c-0.1,0-0.1-0.1-0.2-0.1c-0.1,0-0.4-0.1-0.5-0.2c0,0,0,0,0,0
						c0,0.1,0.3,0.2,0.4,0.2c0.1,0,0.1,0,0.2,0.1C23.9,13.3,23.9,13.3,24,13.4L24,13.4L24,13.4c0-0.1-0.3-0.2-0.4-0.3c0,0,0,0-0.1,0
						c-0.1,0-0.2-0.1-0.2-0.1c0.1,0,0.1,0,0.2,0.1c0,0,0.1,0,0.1,0C23.5,13.1,24,13.2,24,13.4L24,13.4L24,13.4z"/>
				</g>
				<path clip-path="url(#SVGID_6_)" fill="#F4D02E" d="M24.1,13.4c0.1,0,0.1-0.2,0-0.3c0-0.1-0.1,0.1-0.1,0.1
					C24.1,13.4,24.1,13.4,24.1,13.4L24.1,13.4z"/>
				<g clip-path="url(#SVGID_6_)">
					<path fill="#BD0030" d="M24.1,13.5L24.1,13.5L24.1,13.5c0,0,0-0.1-0.1-0.1c0-0.1,0-0.1,0-0.2c0,0,0,0,0,0c0,0,0,0.1,0,0.1
						C24.1,13.4,24.1,13.4,24.1,13.5L24.1,13.5L24.1,13.5C24.1,13.4,24.1,13.4,24.1,13.5c0.1-0.1,0-0.2,0-0.3
						C24.2,13.3,24.2,13.4,24.1,13.5C24.2,13.4,24.1,13.5,24.1,13.5L24.1,13.5z"/>
				</g>
				<path clip-path="url(#SVGID_6_)" fill="#F4D02E" d="M23.5,12.3c0,0,0.3,0,0.5,0.1c0.1,0,0.3,0.1,0.3,0.1c0-0.1-0.3-0.2-0.5-0.2
					C23.7,12.3,23.5,12.3,23.5,12.3L23.5,12.3z"/>
				<g clip-path="url(#SVGID_6_)">
					<path fill="#BD0030" d="M24.2,12.5c0,0-0.1,0-0.2-0.1c0,0-0.1,0-0.1,0c-0.1,0-0.2,0-0.3,0c-0.1,0-0.2,0-0.2,0
						c0-0.1,0.2,0,0.2,0l0.1,0C23.9,12.3,24.2,12.4,24.2,12.5L24.2,12.5L24.2,12.5z M23.6,12.3c-0.1,0-0.1,0-0.1,0
						C23.5,12.4,23.6,12.4,23.6,12.3c0.2,0.1,0.3,0.1,0.3,0.1c0,0,0.1,0,0.1,0c0.1,0,0.2,0.1,0.2,0.1v0l0,0c0-0.1-0.3-0.2-0.5-0.2
						l-0.1,0C23.6,12.3,23.6,12.3,23.6,12.3L23.6,12.3z"/>
				</g>
				<path clip-path="url(#SVGID_6_)" fill="#F4D02E" d="M23.4,12.5c-0.1,0.1,0.2,0.1,0.4,0.1c0.2,0,0.4,0.1,0.3,0.2
					c0,0.2-0.3,0.1-0.3,0.1c0,0.1,0.1,0,0.2,0.1c0,0.1,0.1,0.1,0.1,0c0-0.1,0.2-0.2,0.2-0.2c0-0.1-0.1-0.3-0.4-0.3
					C23.6,12.5,23.4,12.4,23.4,12.5L23.4,12.5z"/>
				<g clip-path="url(#SVGID_6_)">
					<path fill="#BD0030" d="M24.1,13.2C24,13.2,24,13.2,24.1,13.2c-0.1-0.1-0.1-0.1-0.1-0.1c0,0-0.1,0-0.1-0.1c0,0,0-0.1,0.1-0.1
						c0.1,0,0.2,0,0.2-0.1c0,0,0-0.1,0-0.1c0-0.1-0.1-0.1-0.3-0.1c-0.2,0-0.4-0.1-0.4-0.1c0.1-0.1,0.1-0.1,0.2,0
						c0.1,0,0.2,0.1,0.3,0.1c0.3,0,0.4,0.3,0.4,0.3c0,0,0,0-0.1,0.1C24.2,13,24.1,13.1,24.1,13.2C24.1,13.1,24.1,13.2,24.1,13.2
						L24.1,13.2L24.1,13.2z M23.4,12.5C23.4,12.5,23.4,12.5,23.4,12.5c0,0.1,0.2,0.1,0.3,0.1c0.2,0,0.3,0.1,0.3,0.1c0,0,0,0.1,0,0.1
						c0,0.1-0.1,0.1-0.2,0.1c0,0-0.1,0-0.1,0c0,0,0,0.1,0.1,0.1c0,0,0.1,0,0.1,0.1c0,0,0,0.1,0,0.1v0l0,0c0,0,0,0,0,0
						c0,0,0.1-0.1,0.1-0.2c0,0,0.1-0.1,0.1-0.1c0-0.1-0.1-0.3-0.4-0.3c-0.1,0-0.2,0-0.3-0.1C23.5,12.5,23.5,12.5,23.4,12.5
						L23.4,12.5z"/>
				</g>
				<path clip-path="url(#SVGID_6_)" fill="#BD0030" d="M16.4,14.1c0,0-0.2,0.1-0.1,0.1C16.4,14.2,16.5,14.1,16.4,14.1L16.4,14.1z"
					/>
				<g clip-path="url(#SVGID_6_)">
					<path fill="#BD0030" d="M16.3,14.2L16.3,14.2L16.3,14.2C16.3,14.2,16.3,14.2,16.3,14.2L16.3,14.2
						C16.4,14.2,16.4,14.1,16.3,14.2c0.1-0.1,0.1-0.1,0.1-0.1C16.4,14.1,16.4,14.1,16.3,14.2c0-0.1,0-0.1,0.1-0.1
						C16.4,14.1,16.4,14.1,16.3,14.2C16.4,14.1,16.4,14.2,16.3,14.2L16.3,14.2z"/>
				</g>
				<path clip-path="url(#SVGID_6_)" fill="#BD0030" d="M16.7,13.9c-0.1,0-0.1,0.1,0,0.1C16.8,14.1,16.8,13.9,16.7,13.9L16.7,13.9z"
					/>
				<g clip-path="url(#SVGID_6_)">
					<path fill="#BD0030" d="M16.7,14.1L16.7,14.1L16.7,14.1C16.6,14,16.6,14,16.7,14.1c0-0.1,0-0.1,0-0.1
						C16.7,13.9,16.8,14,16.7,14.1C16.7,14,16.7,14.1,16.7,14.1L16.7,14.1z"/>
				</g>
				<path clip-path="url(#SVGID_6_)" fill="#BD0030" d="M23.2,14.3c0,0-0.1,0-0.1,0.1c0,0.1,0.1,0.1,0.2,0
					C23.3,14.4,23.3,14.3,23.2,14.3L23.2,14.3z"/>
				<g clip-path="url(#SVGID_6_)">
					<path fill="#BD0030" d="M23.2,14.4C23.2,14.4,23.1,14.4,23.2,14.4c-0.1-0.1-0.1-0.1-0.1-0.1c0,0,0.1,0,0.1,0c0,0,0.1,0,0.1,0.1
						C23.3,14.4,23.3,14.4,23.2,14.4C23.3,14.4,23.2,14.4,23.2,14.4L23.2,14.4z M23.2,14.3C23.2,14.3,23.1,14.3,23.2,14.3
						C23.1,14.3,23.1,14.4,23.2,14.3c-0.1,0.1,0,0.2,0.1,0.1C23.3,14.4,23.3,14.4,23.2,14.3C23.3,14.3,23.3,14.3,23.2,14.3
						L23.2,14.3z"/>
				</g>
				<path clip-path="url(#SVGID_6_)" fill="#BD0030" d="M23.5,14C23.6,14.1,23.6,14.1,23.5,14c0.1,0,0.2,0,0.1-0.1
					C23.6,13.9,23.5,14,23.5,14L23.5,14z"/>
				<g clip-path="url(#SVGID_6_)">
					<path fill="#BD0030" d="M23.6,14.1C23.6,14.1,23.6,14,23.6,14.1C23.6,14,23.6,14,23.6,14.1C23.6,14.1,23.6,14.1,23.6,14.1
						C23.7,14,23.7,14,23.6,14.1C23.7,14,23.7,14,23.6,14.1C23.7,14,23.7,14,23.6,14.1C23.7,14,23.7,14,23.6,14.1
						C23.6,14.1,23.6,14.1,23.6,14.1L23.6,14.1z"/>
				</g>
				<path clip-path="url(#SVGID_6_)" fill="#BD0030" d="M21.5,15.6c-0.1,0.1,0,0.3,0.1,0.2c0.1,0,0.2-0.2,0.1-0.3
					C21.6,15.5,21.5,15.5,21.5,15.6L21.5,15.6z"/>
				<g clip-path="url(#SVGID_6_)">
					<path fill="#BD0030" d="M21.6,15.8C21.5,15.8,21.5,15.8,21.6,15.8c-0.1-0.1-0.1-0.2-0.1-0.2c0-0.1,0.1-0.1,0.2,0
						c0,0,0,0.1,0,0.1C21.7,15.7,21.7,15.8,21.6,15.8L21.6,15.8L21.6,15.8z M21.6,15.5c0,0-0.1,0-0.1,0.1c0,0.1,0,0.2,0,0.2
						c0,0,0,0,0.1,0v0l0,0c0.1,0,0.1-0.1,0.1-0.2c0,0,0-0.1,0-0.1C21.7,15.5,21.6,15.5,21.6,15.5L21.6,15.5z"/>
				</g>
				<path clip-path="url(#SVGID_6_)" fill="#BD0030" d="M13.3,10.1c-0.2,0-0.7-0.1-0.8,0c0,0.1,0.3,1.3,0.4,1.4
					c0.2,0.2,0.9,0.5,0.9,0.4c0.1,0-0.1-0.8-0.2-0.9c-0.1-0.1-0.3-0.6-0.3-0.6C13.4,10.4,13.3,10.1,13.3,10.1L13.3,10.1z"/>
				<path clip-path="url(#SVGID_6_)" fill="#BD0030" d="M12.8,10c0.1-0.3,0.4,0.1,0.4,0.4c0,0.1,0.1,0.3,0.1,0.3L12.8,10z"/>
				<g clip-path="url(#SVGID_6_)">
					<path d="M13.3,10.8c-0.1-0.1-0.2-0.2-0.1-0.4c0-0.2-0.1-0.5-0.2-0.5c0,0,0,0,0,0.1l-0.1,0c0-0.2,0.1-0.2,0.2-0.2
						c0.2,0,0.3,0.3,0.3,0.6C13.2,10.6,13.3,10.7,13.3,10.8L13.3,10.8L13.3,10.8z"/>
				</g>
				<path clip-path="url(#SVGID_6_)" fill="#BD0030" d="M13.1,10L13.1,10c0.2-0.3,0.3,0.1,0.3,0.6L13.1,10z"/>
				<g clip-path="url(#SVGID_6_)">
					<path d="M13.4,10.7c0-0.4-0.1-0.6-0.2-0.6c0,0,0,0-0.1,0.1l0,0l0,0L13.1,10c0.1-0.1,0.1-0.1,0.2-0.1c0.2,0,0.3,0.5,0.3,0.7
						L13.4,10.7L13.4,10.7z"/>
				</g>
				<path clip-path="url(#SVGID_6_)" fill="#BD0030" d="M12.5,10c0-0.2,0.4-0.3,0.3,0.5c0.2,0.1,0.4,0.5,0.4,0.7
					c0.1,0,0.3,0.2,0.4,0.3L12.5,10z"/>
				<g clip-path="url(#SVGID_6_)">
					<path d="M13.6,11.5c0-0.1-0.2-0.2-0.3-0.3l0,0l0,0c0-0.1-0.2-0.5-0.3-0.6l0,0l0,0c0-0.5-0.1-0.6-0.1-0.6c0,0,0,0,0,0
						c0,0,0,0,0,0.1l-0.1,0c0-0.1,0-0.2,0.1-0.2c0.1,0,0.1,0,0.2,0c0.1,0,0.2,0.2,0.2,0.7c0.2,0.1,0.3,0.5,0.4,0.6
						c0.1,0.1,0.3,0.2,0.4,0.3L13.6,11.5L13.6,11.5z"/>
				</g>
				<path clip-path="url(#SVGID_6_)" fill="#BD0030" d="M13.5,14.6c0-0.6,0-2,0-2.2c-0.1-0.3-0.7-0.6-0.9-1
					c-0.2-0.5-0.3-1.5-0.3-1.6c0.1-0.2,0.4,0.2,0.3,0.7c0.4,0.5,0.3,0.7,0.4,0.8c0.2,0.2,0.6,0.3,0.7,0.5c0.1,0.3,0-0.4-0.1-0.6
					c-0.1-0.1-0.3-0.5-0.2-0.5c0.1-0.1,0.4,0.1,0.4,0.2c0,0.1,0.3,0.4,0.4,0.5c0.2,0.1,0.6,0.4,0.5,0.6c0,0.4,0,2.7,0,2.7L13.5,14.6
					z"/>
				<g clip-path="url(#SVGID_6_)">
					<path d="M13.5,14.6l-0.1,0c0-0.8,0-2,0-2.1c0-0.1-0.2-0.2-0.3-0.4c-0.2-0.2-0.4-0.4-0.6-0.6c-0.2-0.4-0.4-1.5-0.3-1.7
						c0-0.1,0.1-0.1,0.2-0.1c0.2,0.1,0.3,0.4,0.3,0.7c0.3,0.3,0.3,0.5,0.3,0.7c0,0,0,0.1,0,0.1c0.1,0.1,0.2,0.1,0.3,0.2
						c0.1,0.1,0.2,0.1,0.3,0.2c0-0.1-0.1-0.3-0.1-0.4c0,0-0.3-0.3-0.2-0.5c0,0,0-0.1,0.1-0.1c0,0,0.1,0,0.2,0c0.1,0,0.3,0.2,0.3,0.2
						c0,0,0.3,0.4,0.4,0.4l0.1,0c0.2,0.1,0.5,0.4,0.5,0.6c0,0.4,0,2.7,0,2.7l-0.1,0c0,0,0-2.4,0-2.7c0-0.2-0.3-0.4-0.5-0.5l-0.1,0
						c-0.1-0.1-0.4-0.4-0.4-0.5c0,0-0.1-0.1-0.2-0.2c0,0-0.1,0-0.1,0c0,0.1,0.1,0.3,0.2,0.5c0.1,0.1,0.2,0.6,0.2,0.7l0,0l0,0
						c0,0-0.1,0-0.1-0.1c0-0.1-0.2-0.2-0.3-0.3c-0.1-0.1-0.2-0.1-0.3-0.2c0,0,0-0.1-0.1-0.1c0-0.1-0.1-0.3-0.3-0.6l0,0l0,0
						c0.1-0.3-0.1-0.6-0.2-0.6c-0.1,0.1,0,1.1,0.2,1.6c0.1,0.2,0.3,0.4,0.5,0.6c0.2,0.2,0.3,0.3,0.4,0.4
						C13.6,12.6,13.5,14.2,13.5,14.6L13.5,14.6z"/>
				</g>
				<path clip-path="url(#SVGID_6_)" fill="#BD0030" d="M13.4,15.5c0,0,0,0.3,0,0.3c0.1,0.1,0.6,0.2,0.7,0.1c0.1,0,0.5,0,0.6-0.2
					c0,0,0-0.2,0-0.3L13.4,15.5z"/>
				<g clip-path="url(#SVGID_6_)">
					<path d="M14.1,16c-0.1,0-0.6,0-0.7-0.2l0-0.3l0.1,0l0,0.3c0.1,0.1,0.4,0.1,0.6,0.1c0.4,0,0.5-0.1,0.6-0.1c0,0,0-0.2,0-0.2h0.1
						c0,0.1,0,0.3,0,0.3C14.7,15.9,14.4,15.9,14.1,16C14.1,16,14.1,16,14.1,16L14.1,16z"/>
				</g>
				<path clip-path="url(#SVGID_6_)" fill="#BD0030" d="M13.4,15.1c-0.1,0-0.2,0.2-0.1,0.3c0.1,0.1,0.4,0.2,0.7,0.2
					c0.4,0,0.8-0.1,0.8-0.3c0-0.2-0.2-0.2-0.2-0.2L13.4,15.1z"/>
				<g clip-path="url(#SVGID_6_)">
					<path d="M14.1,15.7C14.1,15.7,14.1,15.7,14.1,15.7c-0.4,0-0.7-0.1-0.8-0.2c-0.1-0.1-0.1-0.2-0.1-0.3c0-0.1,0.1-0.1,0.2-0.1
						l0,0.1c0,0-0.1,0-0.1,0.1c0,0,0,0.1,0,0.1c0.1,0.1,0.4,0.2,0.7,0.2c0.4,0,0.8-0.1,0.8-0.3c0,0,0-0.1,0-0.1c0,0,0,0-0.1,0l0-0.1
						l0,0.1l0-0.1l0.1,0l0,0l0,0c0.1,0,0.2,0.1,0.2,0.2C14.9,15.5,14.4,15.7,14.1,15.7L14.1,15.7z"/>
				</g>
				<path clip-path="url(#SVGID_6_)" fill="#BD0030" d="M13.4,14.7c-0.1,0-0.2,0.2-0.1,0.3c0.1,0.1,0.4,0.2,0.7,0.2
					c0.4,0,0.8-0.1,0.8-0.3c0-0.2-0.1-0.2-0.1-0.2L13.4,14.7z"/>
				<g clip-path="url(#SVGID_6_)">
					<path d="M14.1,15.3C14.1,15.3,14.1,15.3,14.1,15.3c-0.4,0-0.7-0.1-0.8-0.3c-0.1-0.1-0.1-0.2-0.1-0.3c0-0.1,0.1-0.1,0.2-0.1
						l0,0.1c0,0-0.1,0-0.1,0.1c0,0,0,0.1,0,0.2c0.1,0.1,0.3,0.2,0.7,0.2c0.4,0,0.8-0.1,0.8-0.3c0,0,0-0.1,0-0.1l-0.1-0.1
						c0,0,0.1,0,0.1,0c0,0,0.1,0.1,0.1,0.2C14.9,15.2,14.4,15.3,14.1,15.3L14.1,15.3z"/>
				</g>
				<path clip-path="url(#SVGID_6_)" fill="#BD0030" d="M14.1,14.9c0.5,0,0.8-0.2,0.8-0.3c0-0.1-0.2-0.1-0.2-0.1
					c-0.1,0-0.2,0.1-0.5,0.1c-0.3,0-0.6-0.2-0.7-0.2c-0.1,0-0.2,0.1-0.1,0.2C13.3,14.8,13.7,15,14.1,14.9L14.1,14.9z"/>
				<g clip-path="url(#SVGID_6_)">
					<path d="M14.1,15c-0.4,0-0.8-0.2-0.8-0.3c0-0.1,0-0.1,0-0.2c0-0.1,0.1-0.1,0.2-0.1c0.1,0,0.1,0,0.2,0.1
						c0.1,0.1,0.3,0.1,0.5,0.1c0.3,0,0.4-0.1,0.5-0.1l0.1,0c0.1-0.1,0.3,0,0.3,0.1C15,14.8,14.6,15,14.1,15L14.1,15L14.1,15z
						 M13.4,14.5C13.4,14.5,13.4,14.5,13.4,14.5c-0.1,0.1-0.1,0.1-0.1,0.1c0,0.1,0.3,0.3,0.7,0.3v0.1l0-0.1h0c0.5,0,0.7-0.2,0.7-0.3
						c0,0,0-0.1-0.1-0.1c0,0-0.1,0-0.1,0l-0.1,0c-0.1,0-0.2,0.1-0.5,0.1c0,0,0,0,0,0c-0.2,0-0.4-0.1-0.5-0.2
						C13.5,14.5,13.5,14.5,13.4,14.5L13.4,14.5z"/>
				</g>
				<path clip-path="url(#SVGID_6_)" fill="#BD0030" d="M26.7,10.1c0.2,0,0.7-0.1,0.8,0c0,0.1-0.3,1.3-0.4,1.4
					c-0.2,0.2-0.9,0.5-0.9,0.4c-0.1,0,0.1-0.8,0.2-0.9c0.1-0.1,0.3-0.6,0.3-0.6C26.6,10.4,26.7,10.1,26.7,10.1L26.7,10.1z"/>
				<path clip-path="url(#SVGID_6_)" fill="#BD0030" d="M27.2,10c-0.1-0.3-0.4,0.1-0.4,0.4c0,0.1-0.1,0.3-0.1,0.3L27.2,10z"/>
				<g clip-path="url(#SVGID_6_)">
					<path d="M26.7,10.8L26.7,10.8c0-0.1,0-0.3,0-0.4c0-0.3,0.2-0.6,0.3-0.6c0,0,0.1,0,0.2,0.2l-0.1,0c0,0,0-0.1,0-0.1
						c-0.1,0-0.2,0.2-0.2,0.5C26.9,10.6,26.8,10.8,26.7,10.8L26.7,10.8z"/>
				</g>
				<path clip-path="url(#SVGID_6_)" fill="#BD0030" d="M26.9,10L26.9,10c-0.2-0.3-0.3,0.1-0.3,0.6L26.9,10z"/>
				<g clip-path="url(#SVGID_6_)">
					<path d="M26.6,10.7l-0.1,0c0-0.2,0.1-0.7,0.3-0.7c0,0,0.1,0,0.2,0.1l-0.1,0.1l0,0l0,0c0,0-0.1-0.1-0.1-0.1
						C26.7,10,26.6,10.3,26.6,10.7L26.6,10.7z"/>
				</g>
				<path clip-path="url(#SVGID_6_)" fill="#BD0030" d="M27.5,10c0-0.2-0.4-0.3-0.3,0.5c-0.2,0.1-0.4,0.5-0.4,0.7
					c-0.1,0-0.3,0.2-0.4,0.3L27.5,10z"/>
				<g clip-path="url(#SVGID_6_)">
					<path d="M26.4,11.5l-0.1,0c0.1-0.1,0.2-0.3,0.4-0.3c0-0.2,0.2-0.5,0.4-0.6c0-0.5,0.1-0.6,0.2-0.7c0.1,0,0.1,0,0.2,0
						c0.1,0,0.1,0.1,0.1,0.2l-0.1,0c0,0,0-0.1,0-0.1c0,0,0,0,0,0c0,0-0.2,0.1-0.1,0.6l0,0l0,0c-0.1,0.1-0.3,0.5-0.3,0.6l0,0l0,0
						C26.6,11.3,26.4,11.4,26.4,11.5L26.4,11.5z"/>
				</g>
				<path clip-path="url(#SVGID_6_)" fill="#BD0030" d="M26.5,14.6c0-0.6,0-2,0-2.2c0.1-0.3,0.7-0.6,0.9-1c0.2-0.5,0.3-1.5,0.3-1.6
					c-0.1-0.2-0.4,0.2-0.3,0.7C27,11,27.1,11.2,27,11.3c-0.2,0.2-0.6,0.3-0.7,0.5c-0.1,0.3,0-0.4,0.1-0.6c0.1-0.1,0.3-0.5,0.2-0.5
					c-0.1-0.1-0.4,0.1-0.4,0.2c0,0.1-0.3,0.4-0.4,0.5c-0.2,0.1-0.6,0.4-0.5,0.6c0,0.4,0,2.7,0,2.7L26.5,14.6z"/>
				<g clip-path="url(#SVGID_6_)">
					<path d="M26.5,14.6c0-0.4,0-2,0-2.2c0.1-0.1,0.2-0.3,0.4-0.4c0.2-0.2,0.4-0.4,0.5-0.6c0.2-0.5,0.3-1.5,0.3-1.6
						c-0.1,0-0.3,0.3-0.2,0.6l0,0l0,0c-0.3,0.3-0.3,0.5-0.3,0.6c0,0.1,0,0.1-0.1,0.1c-0.1,0.1-0.2,0.1-0.3,0.2
						c-0.2,0.1-0.3,0.2-0.3,0.3c0,0.1-0.1,0.1-0.1,0.1l0,0l0,0c0-0.1,0.1-0.6,0.2-0.7c0.1-0.1,0.2-0.4,0.2-0.4c0,0-0.1,0-0.1,0
						c-0.1,0-0.2,0.1-0.2,0.2c0,0.1-0.4,0.4-0.4,0.5l-0.1,0c-0.2,0.1-0.5,0.3-0.5,0.5c0,0.4,0,2.7,0,2.7l-0.1,0c0,0,0-2.4,0-2.7
						c0-0.2,0.3-0.5,0.5-0.6l0.1,0c0.1-0.1,0.4-0.4,0.4-0.4c0-0.1,0.2-0.2,0.3-0.2c0.1,0,0.1,0,0.2,0c0,0,0.1,0.1,0.1,0.1
						c0,0.2-0.2,0.5-0.2,0.5c0,0.1-0.1,0.2-0.1,0.4c0.1-0.1,0.2-0.1,0.3-0.2c0.1-0.1,0.2-0.1,0.3-0.2c0,0,0,0,0-0.1
						c0-0.1,0.1-0.4,0.3-0.7c-0.1-0.4,0.1-0.7,0.3-0.7c0.1,0,0.1,0,0.2,0.1c0.1,0.2-0.1,1.2-0.3,1.7c-0.1,0.3-0.3,0.5-0.6,0.6
						c-0.2,0.1-0.3,0.3-0.3,0.4c-0.1,0.1-0.1,1.3,0,2.1L26.5,14.6L26.5,14.6z"/>
				</g>
				<path clip-path="url(#SVGID_6_)" fill="#BD0030" d="M26.6,15.5c0,0,0,0.3,0,0.3c-0.1,0.1-0.6,0.2-0.7,0.1c-0.1,0-0.5,0-0.6-0.2
					c0,0,0-0.2,0-0.3L26.6,15.5z"/>
				<g clip-path="url(#SVGID_6_)">
					<path d="M25.9,16C25.9,16,25.9,16,25.9,16c-0.3,0-0.6,0-0.7-0.2c0,0,0-0.2,0-0.3h0.1c0,0.1,0,0.2,0,0.3c0,0.1,0.2,0.1,0.6,0.1
						c0.3,0,0.6,0,0.7-0.1l0-0.2l0.1,0l0,0.3C26.5,15.9,26,16,25.9,16L25.9,16z"/>
				</g>
				<path clip-path="url(#SVGID_6_)" fill="#BD0030" d="M26.6,15.1c0.1,0,0.2,0.2,0.1,0.3c-0.1,0.1-0.4,0.2-0.7,0.2
					c-0.4,0-0.8-0.1-0.8-0.3c0-0.2,0.2-0.2,0.2-0.2L26.6,15.1z"/>
				<g clip-path="url(#SVGID_6_)">
					<path d="M25.9,15.7c-0.4,0-0.8-0.1-0.9-0.4c0-0.2,0.1-0.2,0.2-0.2l0.1,0l0.1,0.1l-0.1,0l0-0.1l0,0.1c0,0,0,0-0.1,0
						c0,0,0,0.1,0,0.1c0,0.1,0.4,0.2,0.8,0.3c0.3,0,0.6-0.1,0.7-0.2c0,0,0-0.1,0-0.1c0,0,0-0.1-0.1-0.1l0-0.1c0.1,0,0.1,0.1,0.2,0.1
						c0,0.1,0,0.2-0.1,0.3C26.6,15.6,26.3,15.7,25.9,15.7C25.9,15.7,25.9,15.7,25.9,15.7L25.9,15.7z"/>
				</g>
				<path clip-path="url(#SVGID_6_)" fill="#BD0030" d="M26.6,14.7c0.1,0,0.2,0.2,0.1,0.3c-0.1,0.1-0.4,0.2-0.7,0.2
					c-0.4,0-0.8-0.1-0.8-0.3c0-0.2,0.1-0.2,0.1-0.2L26.6,14.7z"/>
				<g clip-path="url(#SVGID_6_)">
					<path d="M25.9,15.3c-0.3,0-0.8-0.1-0.9-0.4c0-0.1,0-0.2,0.1-0.2c0.1,0,0.1,0,0.1,0l-0.1,0.1c0,0-0.1,0.1-0.1,0.1
						c0,0.1,0.4,0.3,0.8,0.3c0.4,0,0.6-0.1,0.7-0.2c0,0,0.1-0.1,0-0.2c0,0,0,0-0.1-0.1l0-0.1c0.1,0,0.1,0.1,0.2,0.1
						c0,0.1,0,0.2-0.1,0.3C26.6,15.2,26.3,15.3,25.9,15.3C25.9,15.3,25.9,15.3,25.9,15.3L25.9,15.3z"/>
				</g>
				<path clip-path="url(#SVGID_6_)" fill="#BD0030" d="M25.9,14.9c-0.5,0-0.8-0.2-0.8-0.3c0-0.1,0.2-0.1,0.2-0.1
					c0.1,0,0.2,0.1,0.5,0.1c0.3,0,0.6-0.2,0.7-0.2c0.1,0,0.2,0.1,0.1,0.2C26.7,14.8,26.3,15,25.9,14.9L25.9,14.9z"/>
				<g clip-path="url(#SVGID_6_)">
					<path d="M25.9,15L25.9,15C25.9,15,25.9,15,25.9,15c-0.3,0-0.5,0-0.6-0.1c-0.1-0.1-0.2-0.2-0.2-0.3c0-0.1,0.2-0.2,0.3-0.1l0.1,0
						c0.1,0,0.2,0.1,0.5,0.1c0,0,0,0,0,0c0.2,0,0.4-0.1,0.5-0.1c0.1,0,0.1-0.1,0.2-0.1c0.1,0,0.1,0,0.2,0.1c0,0.1,0.1,0.1,0,0.2
						C26.7,14.8,26.4,15,25.9,15L25.9,15z M25.2,14.5C25.2,14.5,25.2,14.6,25.2,14.5c-0.1,0.1,0,0.1,0.1,0.2
						c0.1,0.1,0.3,0.1,0.5,0.1l0.1,0c0.4,0,0.7-0.2,0.7-0.3c0,0,0-0.1,0-0.1c0,0,0,0-0.1,0c0,0-0.1,0-0.1,0.1
						c-0.1,0.1-0.3,0.2-0.5,0.2c-0.3,0-0.4-0.1-0.5-0.1L25.2,14.5C25.3,14.6,25.3,14.5,25.2,14.5L25.2,14.5z"/>
				</g>
			</g>
		</g>
	</g>
</g>
<g>
	<path fill="#CCCCCC" d="M39.8,0.2v22.5H0.2V0.2H39.8 M40,0H0v23h40V0L40,0z"/>
</g>
</svg>
