<?xml version="1.0" encoding="utf-8"?>
<!-- Generator: Adobe Illustrator 17.1.0, SVG Export Plug-In . SVG Version: 6.00 Build 0)  -->
<!DOCTYPE svg PUBLIC "-//W3C//DTD SVG 1.1//EN" "http://www.w3.org/Graphics/SVG/1.1/DTD/svg11.dtd">
<svg version="1.1" id="Layer_1" xmlns="http://www.w3.org/2000/svg" xmlns:xlink="http://www.w3.org/1999/xlink" x="0px" y="0px"
	 viewBox="0 0 40 23" enable-background="new 0 0 40 23" xml:space="preserve">
<g>
	<g>
		<defs>
			<rect id="SVGID_49_" width="40" height="23"/>
		</defs>
		<clipPath id="SVGID_2_">
			<use xlink:href="#SVGID_49_"  overflow="visible"/>
		</clipPath>
		<rect clip-path="url(#SVGID_2_)" fill="#FFFFFF" width="40" height="23"/>
		<polygon clip-path="url(#SVGID_2_)" fill="#BD0034" points="26.8,8.3 40,1 40,0 39.1,0 24,8.3 		"/>
		<polygon clip-path="url(#SVGID_2_)" fill="#BD0034" points="26.2,15.1 40,22.8 40,21.3 28.9,15.1 		"/>
		<polygon clip-path="url(#SVGID_2_)" fill="#BD0034" points="0,1.8 11.8,8.3 14.6,8.3 0,0.2 		"/>
		<polygon clip-path="url(#SVGID_2_)" fill="#BD0034" points="14,15.1 0,22.9 0,23 2.5,23 16.7,15.1 		"/>
		<polygon clip-path="url(#SVGID_2_)" fill="#1A237B" points="37.3,0 23.3,0 23.3,7.7 		"/>
		<polygon clip-path="url(#SVGID_2_)" fill="#1A237B" points="17.1,0 3.1,0 17.1,7.7 		"/>
		<polygon clip-path="url(#SVGID_2_)" fill="#1A237B" points="40,8.3 40,3 30.5,8.3 		"/>
		<polygon clip-path="url(#SVGID_2_)" fill="#1A237B" points="40,20.4 40,15.1 30.5,15.1 		"/>
		<polygon clip-path="url(#SVGID_2_)" fill="#1A237B" points="3.9,23 17.1,23 17.1,15.7 		"/>
		<polygon clip-path="url(#SVGID_2_)" fill="#1A237B" points="23.3,23 36.5,23 23.3,15.7 		"/>
		<polygon clip-path="url(#SVGID_2_)" fill="#1A237B" points="0,15.1 0,20.6 9.8,15.1 		"/>
		<polygon clip-path="url(#SVGID_2_)" fill="#1A237B" points="0,8.3 9.8,8.3 0,2.9 		"/>
		<polygon clip-path="url(#SVGID_2_)" fill="#BD0034" points="18.3,0 18.3,9.7 0,9.7 0,13.8 18.3,13.8 18.3,23 22,23 22,13.8 
			40,13.8 40,9.7 22,9.7 22,0 		"/>
	</g>
</g>
<g>
	<path fill="#CCCCCC" d="M39.7,0.3v22.5H0.2V0.3H39.7 M40,0H0v23h40V0L40,0z"/>
</g>
</svg>
