<?xml version="1.0" encoding="utf-8"?>
<!-- Generator: Adobe Illustrator 17.1.0, SVG Export Plug-In . SVG Version: 6.00 Build 0)  -->
<!DOCTYPE svg PUBLIC "-//W3C//DTD SVG 1.1//EN" "http://www.w3.org/Graphics/SVG/1.1/DTD/svg11.dtd">
<svg version="1.1" id="Layer_1" xmlns="http://www.w3.org/2000/svg" xmlns:xlink="http://www.w3.org/1999/xlink" x="0px" y="0px"
	 viewBox="0 0 40 23" enable-background="new 0 0 40 23" xml:space="preserve">
<g>
	<g>
		<defs>
			<rect id="SVGID_59_" x="0" width="40" height="23"/>
		</defs>
		<clipPath id="SVGID_2_">
			<use xlink:href="#SVGID_59_"  overflow="visible"/>
		</clipPath>
		<rect x="0" clip-path="url(#SVGID_2_)" fill="#FFFFFF" width="40" height="23"/>
		<rect x="0" y="0" clip-path="url(#SVGID_2_)" fill="#F0953E" width="40" height="7.7"/>
		<rect x="0" y="15.3" clip-path="url(#SVGID_2_)" fill="#3B8916" width="40" height="7.7"/>
		<g clip-path="url(#SVGID_2_)">
			<defs>
				<rect id="SVGID_61_" x="0" width="40" height="23"/>
			</defs>
			<clipPath id="SVGID_4_">
				<use xlink:href="#SVGID_61_"  overflow="visible"/>
			</clipPath>
			<path clip-path="url(#SVGID_4_)" fill="#16007E" d="M20,8.1c-1.9,0-3.5,1.5-3.5,3.5c0,1.9,1.6,3.4,3.5,3.4s3.5-1.5,3.5-3.4
				C23.5,9.6,21.9,8.1,20,8.1 M20,8.4l-0.1,1.7l0.1,1l0.1-1L20,8.4c0.1,0,0.2,0,0.3,0c0,0,0,0,0,0c0,0.1,0.1,0.1,0.1,0.1
				c0.1,0,0.1-0.1,0.1-0.1c0.1,0,0.2,0,0.3,0.1l-0.5,1.7l-0.2,1l0.4-0.9l0.4-1.7c0.1,0,0.2,0,0.3,0.1c0,0,0,0,0,0.1
				c0,0.1,0.1,0.1,0.1,0.1c0.1,0,0.1,0,0.1-0.1c0.1,0,0.2,0.1,0.2,0.1l-1,1.5l-0.4,0.9l0.6-0.8l0.8-1.5c0.1,0,0.1,0.1,0.2,0.1
				c0,0,0,0.1,0,0.1c0,0.1,0.1,0.1,0.1,0.1c0,0,0.1,0,0.1-0.1c0.1,0.1,0.1,0.1,0.2,0.2l-1.3,1.2l-0.6,0.8l0.8-0.6l1.2-1.3
				c0.1,0.1,0.1,0.1,0.2,0.2c0,0-0.1,0.1-0.1,0.1c0,0.1,0.1,0.1,0.1,0.1c0,0,0.1,0,0.1,0c0.1,0.1,0.1,0.1,0.1,0.2l-1.6,0.8l-0.8,0.6
				l0.9-0.4l1.5-0.9c0,0.1,0.1,0.2,0.1,0.2c-0.1,0-0.1,0.1-0.1,0.1c0,0.1,0.1,0.1,0.1,0.1c0,0,0,0,0.1,0c0,0.1,0.1,0.2,0.1,0.2
				l-1.7,0.4l-0.9,0.3l1-0.2l1.7-0.5c0,0.1,0,0.2,0.1,0.3C23,11,23,11,23,11.1c0,0.1,0.1,0.1,0.1,0.1c0,0,0,0,0,0c0,0.1,0,0.2,0,0.3
				l-1.8-0.1l-1,0.1l1,0.1l1.8-0.1c0,0.1,0,0.2,0,0.3c0,0,0,0,0,0c-0.1,0-0.1,0.1-0.1,0.1C23,12,23,12,23.1,12c0,0.1,0,0.2-0.1,0.3
				l-0.6-0.2l-1.1-0.3l-1-0.2l0,0l0,0l0.9,0.3l1.7,0.4c0,0.1,0,0.2-0.1,0.2c0,0,0,0,0,0h0c0,0,0,0,0,0c-0.1,0-0.1,0.1-0.1,0.1
				c0,0,0,0,0,0.1c0,0,0,0,0,0c0,0,0,0,0,0.1h0c0,0,0,0,0,0h0c0,0,0,0,0,0c0,0,0,0,0,0c0,0,0,0,0,0c0,0.1-0.1,0.2-0.1,0.2l-1.5-0.9
				h0l-0.9-0.4l0,0l0.5,0.3l0.3,0.2h0l1.6,0.8c0,0.1-0.1,0.2-0.1,0.2c0,0-0.1,0-0.1,0c-0.1,0-0.1,0.1-0.1,0.1c0,0,0,0.1,0.1,0.1
				c-0.1,0.1-0.1,0.1-0.2,0.2l-1.2-1.3l-0.8-0.6l0.6,0.8l1.3,1.2c-0.1,0.1-0.1,0.1-0.2,0.2c0,0-0.1,0-0.1,0c-0.1,0-0.1,0.1-0.1,0.1
				c0,0,0,0,0,0.1c-0.1,0.1-0.2,0.1-0.2,0.1l-0.8-1.5l-0.6-0.8h0l0.4,0.9l1,1.5c-0.1,0-0.2,0.1-0.2,0.1c0-0.1-0.1-0.1-0.1-0.1
				c-0.1,0-0.1,0.1-0.1,0.1c0,0,0,0,0,0.1c-0.1,0-0.2,0.1-0.3,0.1l-0.4-1.7l-0.4-0.9l0,0l0.2,1l0.5,1.7c-0.1,0-0.2,0-0.3,0.1
				c0-0.1-0.1-0.1-0.1-0.1c-0.1,0-0.1,0.1-0.1,0.1c0,0,0,0,0,0c-0.1,0-0.2,0-0.3,0l0.1-1.7l-0.1-1l-0.1,1l0.1,1.7
				c-0.1,0-0.2,0-0.3,0c0,0,0,0,0,0c0-0.1-0.1-0.1-0.1-0.1c-0.1,0-0.1,0.1-0.1,0.1c-0.1,0-0.2,0-0.3-0.1l0.5-1.7l0.2-1l-0.3,0.9
				l-0.4,1.7c-0.1,0-0.2,0-0.3-0.1c0,0,0,0,0-0.1c0-0.1-0.1-0.1-0.1-0.1c-0.1,0-0.1,0-0.1,0.1c-0.1,0-0.2-0.1-0.2-0.1l1-1.5l0.4-0.9
				l-0.6,0.8l-0.8,1.5c-0.1,0-0.2-0.1-0.2-0.1c0,0,0-0.1,0-0.1c0-0.1-0.1-0.1-0.1-0.1c0,0-0.1,0-0.1,0.1c-0.1-0.1-0.1-0.1-0.2-0.2
				l1.3-1.2l0.6-0.8v0l-0.8,0.6l-1.2,1.3c-0.1-0.1-0.1-0.1-0.2-0.2c0,0,0.1-0.1,0.1-0.1c0-0.1-0.1-0.1-0.1-0.1c0,0-0.1,0-0.1,0
				c-0.1-0.1-0.1-0.1-0.1-0.2l1.6-0.8l0.8-0.6l-0.9,0.4l-1.5,0.9c0-0.1-0.1-0.1-0.1-0.2c0.1,0,0.1-0.1,0.1-0.1
				c0-0.1-0.1-0.1-0.1-0.1c0,0,0,0-0.1,0c0-0.1-0.1-0.2-0.1-0.3l1.7-0.4l0.9-0.3l-1,0.2l-1.7,0.5c0-0.1,0-0.2-0.1-0.3
				C17,12,17,12,17,11.9c0-0.1-0.1-0.1-0.1-0.1c0,0,0,0,0,0c0-0.1,0-0.2,0-0.3l1.8,0.1l1-0.1l-1-0.1l-1.8,0.1c0-0.1,0-0.2,0-0.3
				c0,0,0,0,0,0c0.1,0,0.1-0.1,0.1-0.1C17,11,17,11,16.9,11c0-0.1,0-0.2,0.1-0.3l1.7,0.5l1,0.2l-0.9-0.3l-1.7-0.4
				c0-0.1,0-0.2,0.1-0.2c0,0,0,0,0.1,0c0.1,0,0.1-0.1,0.1-0.1c0-0.1,0-0.1-0.1-0.1c0-0.1,0.1-0.2,0.1-0.2l1.5,0.9l0.9,0.4l-0.8-0.6
				l-1.6-0.8c0-0.1,0.1-0.1,0.1-0.2c0,0,0.1,0,0.1,0c0.1,0,0.1-0.1,0.1-0.1c0,0,0-0.1-0.1-0.1c0.1-0.1,0.1-0.1,0.2-0.2l1.2,1.3
				l0.8,0.6l-0.6-0.8l-1.3-1.2c0.1-0.1,0.1-0.1,0.2-0.2c0,0,0.1,0.1,0.1,0.1c0.1,0,0.1-0.1,0.1-0.1c0,0,0-0.1,0-0.1
				c0.1-0.1,0.1-0.1,0.2-0.1l0.8,1.5l0.6,0.8l-0.4-0.9l-1-1.5c0.1,0,0.2-0.1,0.2-0.1c0,0.1,0.1,0.1,0.1,0.1c0.1,0,0.1-0.1,0.1-0.1
				c0,0,0,0,0-0.1c0.1,0,0.2-0.1,0.3-0.1l0.4,1.7l0.3,0.9l-0.2-1l-0.5-1.7c0.1,0,0.2,0,0.3-0.1c0,0.1,0.1,0.1,0.1,0.1
				c0.1,0,0.1-0.1,0.1-0.1c0,0,0,0,0,0C19.8,8.4,19.9,8.4,20,8.4"/>
			<path clip-path="url(#SVGID_4_)" fill="#FFFFFF" d="M20,11c0.3,0,0.5,0.2,0.5,0.5c0,0.3-0.2,0.5-0.5,0.5c-0.3,0-0.5-0.2-0.5-0.5
				C19.5,11.2,19.7,11,20,11"/>
			<path clip-path="url(#SVGID_4_)" fill="#16007E" d="M20,11.1c0.2,0,0.4,0.2,0.4,0.4c0,0.2-0.2,0.4-0.4,0.4
				c-0.2,0-0.4-0.2-0.4-0.4C19.6,11.3,19.8,11.1,20,11.1"/>
		</g>
	</g>
</g>
<g>
	<path fill="#CCCCCC" d="M39.8,0.2v22.5H0.2V0.2H39.8 M40,0H0v23h40V0L40,0z"/>
</g>
</svg>
