<?xml version="1.0" encoding="utf-8"?>
<!-- Generator: Adobe Illustrator 17.1.0, SVG Export Plug-In . SVG Version: 6.00 Build 0)  -->
<!DOCTYPE svg PUBLIC "-//W3C//DTD SVG 1.1//EN" "http://www.w3.org/Graphics/SVG/1.1/DTD/svg11.dtd">
<svg version="1.1" id="Layer_1" xmlns="http://www.w3.org/2000/svg" xmlns:xlink="http://www.w3.org/1999/xlink" x="0px" y="0px"
	 viewBox="0 0 40 23" enable-background="new 0 0 40 23" xml:space="preserve">
<g>
	<g>
		<defs>
			<rect id="SVGID_108_" width="40" height="23"/>
		</defs>
		<clipPath id="SVGID_2_">
			<use xlink:href="#SVGID_108_"  overflow="visible"/>
		</clipPath>
		<rect clip-path="url(#SVGID_2_)" fill="#E8333C" width="40" height="23"/>
		<rect x="11.7" y="15.3" clip-path="url(#SVGID_2_)" fill="#3D9546" width="28.3" height="7.7"/>
		<rect x="11.7" y="0" clip-path="url(#SVGID_2_)" fill="#FFFFFF" width="28.3" height="7.7"/>
		<g clip-path="url(#SVGID_2_)">
			<defs>
				<rect id="SVGID_110_" width="40" height="23"/>
			</defs>
			<clipPath id="SVGID_4_">
				<use xlink:href="#SVGID_110_"  overflow="visible"/>
			</clipPath>
			<path clip-path="url(#SVGID_4_)" fill="#FFFFFF" d="M7.7,4H9C9.1,4,9.1,4,9.1,4.1v0.6c0,0.1-0.1,0.1-0.1,0.1H7.7
				c-0.1,0-0.1-0.1-0.1-0.1V4.1C7.6,4,7.7,4,7.7,4L7.7,4z"/>
			<g clip-path="url(#SVGID_4_)">
				<path fill="#DC1F34" d="M9,4.8H7.7c-0.1,0-0.1-0.1-0.1-0.1V4.1C7.6,4,7.7,4,7.7,4H9C9.1,4,9.1,4,9.1,4.1v0.6
					C9.1,4.7,9.1,4.8,9,4.8L9,4.8z M7.7,4C7.7,4,7.6,4,7.6,4.1v0.6c0,0.1,0.1,0.1,0.1,0.1H9c0.1,0,0.1,0,0.1-0.1V4.1
					C9.1,4,9.1,4,9,4H7.7L7.7,4z"/>
			</g>
			<path clip-path="url(#SVGID_4_)" fill="#FFFFFF" d="M7.8,4H9C9,4,9.1,4,9.1,4.1v0.5C9.1,4.7,9,4.7,9,4.7H7.8
				c-0.1,0-0.1,0-0.1-0.1V4.1C7.7,4,7.7,4,7.8,4L7.8,4z"/>
			<g clip-path="url(#SVGID_4_)">
				<path fill="#DC1F34" d="M9,4.8H7.8c-0.1,0-0.1-0.1-0.1-0.1V4.1C7.6,4,7.7,4,7.8,4H9C9,4,9.1,4,9.1,4.1v0.5C9.1,4.7,9,4.8,9,4.8
					L9,4.8z M7.8,4c-0.1,0-0.1,0-0.1,0.1v0.5c0,0.1,0,0.1,0.1,0.1H9c0.1,0,0.1,0,0.1-0.1V4.1C9.1,4.1,9,4,9,4H7.8L7.8,4z"/>
			</g>
			<polygon clip-path="url(#SVGID_4_)" fill="#FFFFFF" points="8.3,4.2 8.4,4.2 8.4,4.2 8.4,4.3 8.5,4.2 8.6,4.3 8.5,4.3 8.5,4.3 
				8.6,4.3 8.6,4.4 8.5,4.4 8.5,4.4 8.6,4.5 8.5,4.5 8.5,4.5 8.4,4.5 8.4,4.5 8.3,4.5 8.3,4.5 8.2,4.5 8.2,4.5 8.1,4.5 8.2,4.4 
				8.1,4.4 8.1,4.4 8.1,4.3 8.1,4.3 8.2,4.3 8.1,4.3 8.2,4.2 8.2,4.2 8.3,4.2 			"/>
			<g clip-path="url(#SVGID_4_)">
				<polygon fill="#DC1F34" points="8.3,4.6 8.3,4.5 8.2,4.5 8.2,4.5 8.1,4.5 8.2,4.4 8.1,4.4 8.1,4.3 8.1,4.3 8.2,4.3 8.1,4.3 
					8.2,4.2 8.2,4.2 8.3,4.2 8.2,4.3 8.2,4.2 8.1,4.3 8.2,4.3 8.1,4.3 8.1,4.3 8.1,4.4 8.1,4.4 8.2,4.4 8.2,4.5 8.2,4.5 8.2,4.5 
					8.3,4.5 8.3,4.5 8.4,4.5 8.4,4.5 8.5,4.5 8.5,4.5 8.6,4.5 8.5,4.4 8.5,4.4 8.6,4.4 8.6,4.3 8.5,4.3 8.5,4.3 8.5,4.3 8.5,4.2 
					8.5,4.3 8.3,4.2 8.4,4.2 8.5,4.3 8.5,4.2 8.6,4.3 8.5,4.3 8.6,4.3 8.6,4.4 8.5,4.4 8.6,4.5 8.5,4.5 8.5,4.5 8.4,4.5 8.4,4.5 
					8.3,4.6 				"/>
			</g>
			<path clip-path="url(#SVGID_4_)" fill="#FFFFFF" d="M8.3,4.3C8.4,4.3,8.4,4.3,8.3,4.3c0.1,0.1,0,0.1,0,0.1
				C8.3,4.4,8.3,4.4,8.3,4.3C8.3,4.3,8.3,4.3,8.3,4.3L8.3,4.3z"/>
			<g clip-path="url(#SVGID_4_)">
				<path fill="#DC1F34" d="M8.3,4.4C8.3,4.4,8.2,4.4,8.3,4.4C8.2,4.3,8.4,4.3,8.3,4.4C8.4,4.4,8.4,4.4,8.3,4.4L8.3,4.4z M8.3,4.3
					C8.3,4.3,8.3,4.3,8.3,4.3C8.3,4.4,8.4,4.4,8.3,4.3C8.4,4.3,8.4,4.3,8.3,4.3L8.3,4.3z"/>
			</g>
			<path clip-path="url(#SVGID_4_)" fill="#FFFFFF" d="M7.8,4L7.7,4.1L7.8,4z"/>
			<g clip-path="url(#SVGID_4_)">
				<path fill="none" d="M7.8,4L7.7,4.1L7.8,4z"/>
			</g>
			<path clip-path="url(#SVGID_4_)" fill="#FFFFFF" d="M7.9,4L7.8,4.1L7.9,4z"/>
			<g clip-path="url(#SVGID_4_)">
				<path fill="none" d="M7.9,4L7.8,4.1L7.9,4z"/>
			</g>
			<path clip-path="url(#SVGID_4_)" fill="#FFFFFF" d="M8,4L7.9,4.1L8,4z"/>
			<g clip-path="url(#SVGID_4_)">
				<path fill="none" d="M8,4L7.9,4.1L8,4z"/>
			</g>
			<path clip-path="url(#SVGID_4_)" fill="#FFFFFF" d="M8.1,4L8,4.1L8.1,4z"/>
			<g clip-path="url(#SVGID_4_)">
				<path fill="none" d="M8.1,4L8,4.1L8.1,4z"/>
			</g>
			<path clip-path="url(#SVGID_4_)" fill="#FFFFFF" d="M8.2,4L8,4.1L8.2,4z"/>
			<g clip-path="url(#SVGID_4_)">
				<path fill="none" d="M8.2,4L8,4.1L8.2,4z"/>
			</g>
			<path clip-path="url(#SVGID_4_)" fill="#FFFFFF" d="M8.2,4L8.1,4.1L8.2,4z"/>
			<g clip-path="url(#SVGID_4_)">
				<path fill="none" d="M8.2,4L8.1,4.1L8.2,4z"/>
			</g>
			<path clip-path="url(#SVGID_4_)" fill="#FFFFFF" d="M8.3,4L8.2,4.1L8.3,4z"/>
			<g clip-path="url(#SVGID_4_)">
				<path fill="none" d="M8.3,4L8.2,4.1L8.3,4z"/>
			</g>
			<path clip-path="url(#SVGID_4_)" fill="#FFFFFF" d="M8.4,4L8.3,4.1L8.4,4z"/>
			<g clip-path="url(#SVGID_4_)">
				<path fill="none" d="M8.4,4L8.3,4.1L8.4,4z"/>
			</g>
			<path clip-path="url(#SVGID_4_)" fill="#FFFFFF" d="M8.5,4L8.3,4.1L8.5,4z"/>
			<g clip-path="url(#SVGID_4_)">
				<path fill="none" d="M8.5,4L8.3,4.1L8.5,4z"/>
			</g>
			<path clip-path="url(#SVGID_4_)" fill="#FFFFFF" d="M8.5,4L8.4,4.1L8.5,4z"/>
			<g clip-path="url(#SVGID_4_)">
				<path fill="none" d="M8.5,4L8.4,4.1L8.5,4z"/>
			</g>
			<path clip-path="url(#SVGID_4_)" fill="#FFFFFF" d="M8.6,4L8.5,4.1L8.6,4z"/>
			<g clip-path="url(#SVGID_4_)">
				<path fill="none" d="M8.6,4L8.5,4.1L8.6,4z"/>
			</g>
			<path clip-path="url(#SVGID_4_)" fill="#FFFFFF" d="M8.7,4L8.6,4.1L8.7,4z"/>
			<g clip-path="url(#SVGID_4_)">
				<path fill="none" d="M8.7,4L8.6,4.1L8.7,4z"/>
			</g>
			<path clip-path="url(#SVGID_4_)" fill="#FFFFFF" d="M8.4,4L8.3,4.1L8.4,4z"/>
			<g clip-path="url(#SVGID_4_)">
				<path fill="none" d="M8.4,4L8.3,4.1L8.4,4z"/>
			</g>
			<path clip-path="url(#SVGID_4_)" fill="#FFFFFF" d="M8.8,4L8.7,4.1L8.8,4z"/>
			<g clip-path="url(#SVGID_4_)">
				<path fill="none" d="M8.8,4L8.7,4.1L8.8,4z"/>
			</g>
			<path clip-path="url(#SVGID_4_)" fill="#FFFFFF" d="M8.8,4L8.7,4.1L8.8,4z"/>
			<g clip-path="url(#SVGID_4_)">
				<path fill="none" d="M8.8,4L8.7,4.1L8.8,4z"/>
			</g>
			<path clip-path="url(#SVGID_4_)" fill="#FFFFFF" d="M8.9,4L8.8,4.1L8.9,4z"/>
			<g clip-path="url(#SVGID_4_)">
				<path fill="none" d="M8.9,4L8.8,4.1L8.9,4z"/>
			</g>
			<path clip-path="url(#SVGID_4_)" fill="#FFFFFF" d="M9,4L8.9,4.1L9,4z"/>
			<g clip-path="url(#SVGID_4_)">
				<path fill="none" d="M9,4L8.9,4.1L9,4z"/>
			</g>
			<path clip-path="url(#SVGID_4_)" fill="#FFFFFF" d="M8.9,4L9,4.1L8.9,4z"/>
			<g clip-path="url(#SVGID_4_)">
				<path fill="none" d="M8.9,4L9,4.1L8.9,4z"/>
			</g>
			<path clip-path="url(#SVGID_4_)" fill="#FFFFFF" d="M8.8,4l0.1,0.1L8.8,4z"/>
			<g clip-path="url(#SVGID_4_)">
				<path fill="none" d="M8.8,4l0.1,0.1L8.8,4z"/>
			</g>
			<path clip-path="url(#SVGID_4_)" fill="#FFFFFF" d="M8.7,4l0.1,0.1L8.7,4z"/>
			<g clip-path="url(#SVGID_4_)">
				<path fill="none" d="M8.7,4l0.1,0.1L8.7,4z"/>
			</g>
			<path clip-path="url(#SVGID_4_)" fill="#FFFFFF" d="M8.7,4l0.1,0.1L8.7,4z"/>
			<g clip-path="url(#SVGID_4_)">
				<path fill="none" d="M8.7,4l0.1,0.1L8.7,4z"/>
			</g>
			<path clip-path="url(#SVGID_4_)" fill="#FFFFFF" d="M8.6,4l0.1,0.1L8.6,4z"/>
			<g clip-path="url(#SVGID_4_)">
				<path fill="none" d="M8.6,4l0.1,0.1L8.6,4z"/>
			</g>
			<path clip-path="url(#SVGID_4_)" fill="#FFFFFF" d="M8.5,4l0.1,0.1L8.5,4z"/>
			<g clip-path="url(#SVGID_4_)">
				<path fill="none" d="M8.5,4l0.1,0.1L8.5,4z"/>
			</g>
			<path clip-path="url(#SVGID_4_)" fill="#FFFFFF" d="M8.4,4l0.1,0.1L8.4,4z"/>
			<g clip-path="url(#SVGID_4_)">
				<path fill="none" d="M8.4,4l0.1,0.1L8.4,4z"/>
			</g>
			<path clip-path="url(#SVGID_4_)" fill="#FFFFFF" d="M8.3,4l0.1,0.1L8.3,4z"/>
			<g clip-path="url(#SVGID_4_)">
				<path fill="none" d="M8.3,4l0.1,0.1L8.3,4z"/>
			</g>
			<path clip-path="url(#SVGID_4_)" fill="#FFFFFF" d="M8.3,4l0.1,0.1L8.3,4z"/>
			<g clip-path="url(#SVGID_4_)">
				<path fill="none" d="M8.3,4l0.1,0.1L8.3,4z"/>
			</g>
			<path clip-path="url(#SVGID_4_)" fill="#FFFFFF" d="M8.2,4l0.1,0.1L8.2,4z"/>
			<g clip-path="url(#SVGID_4_)">
				<path fill="none" d="M8.2,4l0.1,0.1L8.2,4z"/>
			</g>
			<path clip-path="url(#SVGID_4_)" fill="#FFFFFF" d="M8.1,4l0.1,0.1L8.1,4z"/>
			<g clip-path="url(#SVGID_4_)">
				<path fill="none" d="M8.1,4l0.1,0.1L8.1,4z"/>
			</g>
			<path clip-path="url(#SVGID_4_)" fill="#FFFFFF" d="M8,4l0.1,0.1L8,4z"/>
			<g clip-path="url(#SVGID_4_)">
				<path fill="none" d="M8,4l0.1,0.1L8,4z"/>
			</g>
			<path clip-path="url(#SVGID_4_)" fill="#FFFFFF" d="M8.3,4l0.1,0.1L8.3,4z"/>
			<g clip-path="url(#SVGID_4_)">
				<path fill="none" d="M8.3,4l0.1,0.1L8.3,4z"/>
			</g>
			<path clip-path="url(#SVGID_4_)" fill="#FFFFFF" d="M8,4l0.1,0.1L8,4z"/>
			<g clip-path="url(#SVGID_4_)">
				<path fill="none" d="M8,4l0.1,0.1L8,4z"/>
			</g>
			<path clip-path="url(#SVGID_4_)" fill="#FFFFFF" d="M7.9,4L8,4.1L7.9,4z"/>
			<g clip-path="url(#SVGID_4_)">
				<path fill="none" d="M7.9,4L8,4.1L7.9,4z"/>
			</g>
			<path clip-path="url(#SVGID_4_)" fill="#FFFFFF" d="M7.8,4l0.1,0.1L7.8,4z"/>
			<g clip-path="url(#SVGID_4_)">
				<path fill="none" d="M7.8,4l0.1,0.1L7.8,4z"/>
			</g>
			<path clip-path="url(#SVGID_4_)" fill="#FFFFFF" d="M7.7,4l0.1,0.1L7.7,4z"/>
			<g clip-path="url(#SVGID_4_)">
				<path fill="none" d="M7.7,4l0.1,0.1L7.7,4z"/>
			</g>
			<path clip-path="url(#SVGID_4_)" fill="#FFFFFF" d="M7.8,4.6L7.7,4.7L7.8,4.6z"/>
			<g clip-path="url(#SVGID_4_)">
				<path fill="none" d="M7.8,4.6L7.7,4.7L7.8,4.6z"/>
			</g>
			<path clip-path="url(#SVGID_4_)" fill="#FFFFFF" d="M7.9,4.6L7.8,4.7L7.9,4.6z"/>
			<g clip-path="url(#SVGID_4_)">
				<path fill="none" d="M7.9,4.6L7.8,4.7L7.9,4.6z"/>
			</g>
			<path clip-path="url(#SVGID_4_)" fill="#FFFFFF" d="M8,4.6L7.9,4.7L8,4.6z"/>
			<g clip-path="url(#SVGID_4_)">
				<path fill="none" d="M8,4.6L7.9,4.7L8,4.6z"/>
			</g>
			<path clip-path="url(#SVGID_4_)" fill="#FFFFFF" d="M8.1,4.6L8,4.7L8.1,4.6z"/>
			<g clip-path="url(#SVGID_4_)">
				<path fill="none" d="M8.1,4.6L8,4.7L8.1,4.6z"/>
			</g>
			<path clip-path="url(#SVGID_4_)" fill="#FFFFFF" d="M8.2,4.6L8,4.7L8.2,4.6z"/>
			<g clip-path="url(#SVGID_4_)">
				<path fill="none" d="M8.2,4.6L8,4.7L8.2,4.6z"/>
			</g>
			<path clip-path="url(#SVGID_4_)" fill="#FFFFFF" d="M8.2,4.6L8.1,4.7L8.2,4.6z"/>
			<g clip-path="url(#SVGID_4_)">
				<path fill="none" d="M8.2,4.6L8.1,4.7L8.2,4.6z"/>
			</g>
			<path clip-path="url(#SVGID_4_)" fill="#FFFFFF" d="M8.3,4.6L8.2,4.7L8.3,4.6z"/>
			<g clip-path="url(#SVGID_4_)">
				<path fill="none" d="M8.3,4.6L8.2,4.7L8.3,4.6z"/>
			</g>
			<path clip-path="url(#SVGID_4_)" fill="#FFFFFF" d="M8.4,4.6L8.3,4.7L8.4,4.6z"/>
			<g clip-path="url(#SVGID_4_)">
				<path fill="none" d="M8.4,4.6L8.3,4.7L8.4,4.6z"/>
			</g>
			<path clip-path="url(#SVGID_4_)" fill="#FFFFFF" d="M8.5,4.6L8.3,4.7L8.5,4.6z"/>
			<g clip-path="url(#SVGID_4_)">
				<path fill="none" d="M8.5,4.6L8.3,4.7L8.5,4.6z"/>
			</g>
			<path clip-path="url(#SVGID_4_)" fill="#FFFFFF" d="M8.5,4.6L8.4,4.7L8.5,4.6z"/>
			<g clip-path="url(#SVGID_4_)">
				<path fill="none" d="M8.5,4.6L8.4,4.7L8.5,4.6z"/>
			</g>
			<path clip-path="url(#SVGID_4_)" fill="#FFFFFF" d="M8.6,4.6L8.5,4.7L8.6,4.6z"/>
			<g clip-path="url(#SVGID_4_)">
				<path fill="none" d="M8.6,4.6L8.5,4.7L8.6,4.6z"/>
			</g>
			<path clip-path="url(#SVGID_4_)" fill="#FFFFFF" d="M8.7,4.6L8.6,4.7L8.7,4.6z"/>
			<g clip-path="url(#SVGID_4_)">
				<path fill="none" d="M8.7,4.6L8.6,4.7L8.7,4.6z"/>
			</g>
			<path clip-path="url(#SVGID_4_)" fill="#FFFFFF" d="M8.4,4.6L8.3,4.7L8.4,4.6z"/>
			<g clip-path="url(#SVGID_4_)">
				<path fill="none" d="M8.4,4.6L8.3,4.7L8.4,4.6z"/>
			</g>
			<path clip-path="url(#SVGID_4_)" fill="#FFFFFF" d="M8.8,4.6L8.7,4.7L8.8,4.6z"/>
			<g clip-path="url(#SVGID_4_)">
				<path fill="none" d="M8.8,4.6L8.7,4.7L8.8,4.6z"/>
			</g>
			<path clip-path="url(#SVGID_4_)" fill="#FFFFFF" d="M8.8,4.6L8.7,4.7L8.8,4.6z"/>
			<g clip-path="url(#SVGID_4_)">
				<path fill="none" d="M8.8,4.6L8.7,4.7L8.8,4.6z"/>
			</g>
			<path clip-path="url(#SVGID_4_)" fill="#FFFFFF" d="M8.9,4.6L8.8,4.7L8.9,4.6z"/>
			<g clip-path="url(#SVGID_4_)">
				<path fill="none" d="M8.9,4.6L8.8,4.7L8.9,4.6z"/>
			</g>
			<path clip-path="url(#SVGID_4_)" fill="#FFFFFF" d="M9,4.6L8.9,4.7L9,4.6z"/>
			<g clip-path="url(#SVGID_4_)">
				<path fill="none" d="M9,4.6L8.9,4.7L9,4.6z"/>
			</g>
			<path clip-path="url(#SVGID_4_)" fill="#FFFFFF" d="M8.9,4.6L9,4.7L8.9,4.6z"/>
			<g clip-path="url(#SVGID_4_)">
				<path fill="none" d="M8.9,4.6L9,4.7L8.9,4.6z"/>
			</g>
			<path clip-path="url(#SVGID_4_)" fill="#FFFFFF" d="M8.8,4.6l0.1,0.1L8.8,4.6z"/>
			<g clip-path="url(#SVGID_4_)">
				<path fill="none" d="M8.8,4.6l0.1,0.1L8.8,4.6z"/>
			</g>
			<path clip-path="url(#SVGID_4_)" fill="#FFFFFF" d="M8.7,4.6l0.1,0.1L8.7,4.6z"/>
			<g clip-path="url(#SVGID_4_)">
				<path fill="none" d="M8.7,4.6l0.1,0.1L8.7,4.6z"/>
			</g>
			<path clip-path="url(#SVGID_4_)" fill="#FFFFFF" d="M8.7,4.6l0.1,0.1L8.7,4.6z"/>
			<g clip-path="url(#SVGID_4_)">
				<path fill="none" d="M8.7,4.6l0.1,0.1L8.7,4.6z"/>
			</g>
			<path clip-path="url(#SVGID_4_)" fill="#FFFFFF" d="M8.6,4.6l0.1,0.1L8.6,4.6z"/>
			<g clip-path="url(#SVGID_4_)">
				<path fill="none" d="M8.6,4.6l0.1,0.1L8.6,4.6z"/>
			</g>
			<path clip-path="url(#SVGID_4_)" fill="#FFFFFF" d="M8.5,4.6l0.1,0.1L8.5,4.6z"/>
			<g clip-path="url(#SVGID_4_)">
				<path fill="none" d="M8.5,4.6l0.1,0.1L8.5,4.6z"/>
			</g>
			<path clip-path="url(#SVGID_4_)" fill="#FFFFFF" d="M8.4,4.6l0.1,0.1L8.4,4.6z"/>
			<g clip-path="url(#SVGID_4_)">
				<path fill="none" d="M8.4,4.6l0.1,0.1L8.4,4.6z"/>
			</g>
			<path clip-path="url(#SVGID_4_)" fill="#FFFFFF" d="M8.3,4.6l0.1,0.1L8.3,4.6z"/>
			<g clip-path="url(#SVGID_4_)">
				<path fill="none" d="M8.3,4.6l0.1,0.1L8.3,4.6z"/>
			</g>
			<path clip-path="url(#SVGID_4_)" fill="#FFFFFF" d="M8.3,4.6l0.1,0.1L8.3,4.6z"/>
			<g clip-path="url(#SVGID_4_)">
				<path fill="none" d="M8.3,4.6l0.1,0.1L8.3,4.6z"/>
			</g>
			<path clip-path="url(#SVGID_4_)" fill="#FFFFFF" d="M8.2,4.6l0.1,0.1L8.2,4.6z"/>
			<g clip-path="url(#SVGID_4_)">
				<path fill="none" d="M8.2,4.6l0.1,0.1L8.2,4.6z"/>
			</g>
			<path clip-path="url(#SVGID_4_)" fill="#FFFFFF" d="M8.1,4.6l0.1,0.1L8.1,4.6z"/>
			<g clip-path="url(#SVGID_4_)">
				<path fill="none" d="M8.1,4.6l0.1,0.1L8.1,4.6z"/>
			</g>
			<path clip-path="url(#SVGID_4_)" fill="#FFFFFF" d="M8,4.6l0.1,0.1L8,4.6z"/>
			<g clip-path="url(#SVGID_4_)">
				<path fill="none" d="M8,4.6l0.1,0.1L8,4.6z"/>
			</g>
			<path clip-path="url(#SVGID_4_)" fill="#FFFFFF" d="M8.3,4.6l0.1,0.1L8.3,4.6z"/>
			<g clip-path="url(#SVGID_4_)">
				<path fill="none" d="M8.3,4.6l0.1,0.1L8.3,4.6z"/>
			</g>
			<path clip-path="url(#SVGID_4_)" fill="#FFFFFF" d="M8,4.6l0.1,0.1L8,4.6z"/>
			<g clip-path="url(#SVGID_4_)">
				<path fill="none" d="M8,4.6l0.1,0.1L8,4.6z"/>
			</g>
			<path clip-path="url(#SVGID_4_)" fill="#FFFFFF" d="M7.9,4.6L8,4.7L7.9,4.6z"/>
			<g clip-path="url(#SVGID_4_)">
				<path fill="none" d="M7.9,4.6L8,4.7L7.9,4.6z"/>
			</g>
			<path clip-path="url(#SVGID_4_)" fill="#FFFFFF" d="M7.8,4.6l0.1,0.1L7.8,4.6z"/>
			<g clip-path="url(#SVGID_4_)">
				<path fill="none" d="M7.8,4.6l0.1,0.1L7.8,4.6z"/>
			</g>
			<path clip-path="url(#SVGID_4_)" fill="#FFFFFF" d="M7.7,4.6l0.1,0.1L7.7,4.6z"/>
			<g clip-path="url(#SVGID_4_)">
				<path fill="none" d="M7.7,4.6l0.1,0.1L7.7,4.6z"/>
			</g>
			<path clip-path="url(#SVGID_4_)" fill="#FFFFFF" d="M2.7,3.9h1.3C4,3.9,4.1,4,4.1,4.1v0.6c0,0.1-0.1,0.1-0.1,0.1H2.7
				c-0.1,0-0.1-0.1-0.1-0.1V4.1C2.6,4,2.6,3.9,2.7,3.9L2.7,3.9z"/>
			<g clip-path="url(#SVGID_4_)">
				<path fill="#DC1F34" d="M3.9,4.8H2.7c-0.1,0-0.1-0.1-0.1-0.1V4.1c0-0.1,0.1-0.1,0.1-0.1h1.3C4,3.9,4.1,4,4.1,4.1v0.6
					C4.1,4.7,4,4.8,3.9,4.8L3.9,4.8z M2.7,3.9c-0.1,0-0.1,0-0.1,0.1v0.6c0,0.1,0.1,0.1,0.1,0.1h1.3c0.1,0,0.1,0,0.1-0.1V4.1
					C4.1,4,4,3.9,3.9,3.9H2.7L2.7,3.9z"/>
			</g>
			<path clip-path="url(#SVGID_4_)" fill="#FFFFFF" d="M2.7,4h1.2C4,4,4,4,4,4.1v0.5C4,4.7,4,4.7,3.9,4.7H2.7c-0.1,0-0.1,0-0.1-0.1
				V4.1C2.6,4,2.7,4,2.7,4L2.7,4z"/>
			<g clip-path="url(#SVGID_4_)">
				<path fill="#DC1F34" d="M3.9,4.7H2.7c-0.1,0-0.1-0.1-0.1-0.1V4.1C2.6,4,2.6,4,2.7,4h1.2C4,4,4,4,4,4.1v0.5C4,4.7,4,4.7,3.9,4.7
					L3.9,4.7z M2.7,4C2.7,4,2.6,4,2.6,4.1v0.5c0,0.1,0,0.1,0.1,0.1h1.2C4,4.7,4,4.7,4,4.6V4.1C4,4,4,4,3.9,4H2.7L2.7,4z"/>
			</g>
			<polygon clip-path="url(#SVGID_4_)" fill="#FFFFFF" points="3.3,4.2 3.3,4.2 3.3,4.2 3.4,4.2 3.4,4.2 3.5,4.2 3.4,4.3 3.5,4.3 
				3.5,4.3 3.5,4.4 3.5,4.4 3.4,4.4 3.5,4.4 3.5,4.5 3.4,4.4 3.3,4.5 3.3,4.5 3.3,4.5 3.3,4.5 3.2,4.4 3.2,4.5 3.1,4.4 3.1,4.4 
				3.1,4.4 3,4.4 3,4.3 3.1,4.3 3.1,4.3 3.1,4.2 3.1,4.2 3.2,4.2 3.3,4.2 			"/>
			<g clip-path="url(#SVGID_4_)">
				<polygon fill="#DC1F34" points="3.3,4.5 3.2,4.5 3.2,4.4 3.2,4.5 3.1,4.4 3.1,4.4 3.1,4.4 3,4.4 3,4.3 3.1,4.3 3.1,4.2 3.1,4.2 
					3.1,4.2 3.2,4.2 3.2,4.2 3.2,4.2 3.1,4.2 3.1,4.2 3.1,4.2 3.1,4.3 3,4.3 3,4.4 3.1,4.4 3.1,4.4 3.1,4.4 3.2,4.5 3.2,4.4 
					3.3,4.4 3.3,4.5 3.3,4.5 3.3,4.5 3.4,4.4 3.5,4.5 3.5,4.4 3.4,4.4 3.5,4.4 3.5,4.4 3.5,4.3 3.5,4.3 3.4,4.3 3.5,4.2 3.4,4.2 
					3.4,4.2 3.3,4.2 3.3,4.2 3.4,4.2 3.4,4.2 3.5,4.2 3.5,4.3 3.5,4.3 3.5,4.4 3.5,4.4 3.5,4.4 3.5,4.5 3.4,4.4 3.3,4.5 3.4,4.5 
					3.3,4.5 				"/>
			</g>
			<path clip-path="url(#SVGID_4_)" fill="#FFFFFF" d="M3.3,4.3C3.3,4.3,3.4,4.3,3.3,4.3c0.1,0.1,0,0.1,0,0.1
				C3.2,4.4,3.2,4.4,3.3,4.3C3.2,4.3,3.2,4.3,3.3,4.3L3.3,4.3z"/>
			<g clip-path="url(#SVGID_4_)">
				<path fill="#DC1F34" d="M3.3,4.4C3.2,4.4,3.2,4.4,3.3,4.4C3.2,4.2,3.4,4.2,3.3,4.4C3.4,4.4,3.3,4.4,3.3,4.4L3.3,4.4z M3.3,4.3
					C3.2,4.3,3.2,4.3,3.3,4.3C3.2,4.4,3.4,4.4,3.3,4.3C3.4,4.3,3.3,4.3,3.3,4.3L3.3,4.3z"/>
			</g>
			<path clip-path="url(#SVGID_4_)" fill="#FFFFFF" d="M2.8,4L2.7,4.1L2.8,4z"/>
			<g clip-path="url(#SVGID_4_)">
				<path fill="none" d="M2.8,4L2.7,4.1L2.8,4z"/>
			</g>
			<path clip-path="url(#SVGID_4_)" fill="#FFFFFF" d="M2.9,4L2.8,4.1L2.9,4z"/>
			<g clip-path="url(#SVGID_4_)">
				<path fill="none" d="M2.9,4L2.8,4.1L2.9,4z"/>
			</g>
			<path clip-path="url(#SVGID_4_)" fill="#FFFFFF" d="M2.9,4L2.8,4.1L2.9,4z"/>
			<g clip-path="url(#SVGID_4_)">
				<path fill="none" d="M2.9,4L2.8,4.1L2.9,4z"/>
			</g>
			<path clip-path="url(#SVGID_4_)" fill="#FFFFFF" d="M3,4L2.9,4.1L3,4z"/>
			<g clip-path="url(#SVGID_4_)">
				<path fill="none" d="M3,4L2.9,4.1L3,4z"/>
			</g>
			<path clip-path="url(#SVGID_4_)" fill="#FFFFFF" d="M3.1,4L3,4.1L3.1,4z"/>
			<g clip-path="url(#SVGID_4_)">
				<path fill="none" d="M3.1,4L3,4.1L3.1,4z"/>
			</g>
			<path clip-path="url(#SVGID_4_)" fill="#FFFFFF" d="M3.2,4L3.1,4.1L3.2,4z"/>
			<g clip-path="url(#SVGID_4_)">
				<path fill="none" d="M3.2,4L3.1,4.1L3.2,4z"/>
			</g>
			<path clip-path="url(#SVGID_4_)" fill="#FFFFFF" d="M3.3,4L3.1,4.1L3.3,4z"/>
			<g clip-path="url(#SVGID_4_)">
				<path fill="none" d="M3.3,4L3.1,4.1L3.3,4z"/>
			</g>
			<path clip-path="url(#SVGID_4_)" fill="#FFFFFF" d="M3.3,4L3.2,4.1L3.3,4z"/>
			<g clip-path="url(#SVGID_4_)">
				<path fill="none" d="M3.3,4L3.2,4.1L3.3,4z"/>
			</g>
			<path clip-path="url(#SVGID_4_)" fill="#FFFFFF" d="M3.4,4L3.3,4.1L3.4,4z"/>
			<g clip-path="url(#SVGID_4_)">
				<path fill="none" d="M3.4,4L3.3,4.1L3.4,4z"/>
			</g>
			<path clip-path="url(#SVGID_4_)" fill="#FFFFFF" d="M3.5,4L3.4,4.1L3.5,4z"/>
			<g clip-path="url(#SVGID_4_)">
				<path fill="none" d="M3.5,4L3.4,4.1L3.5,4z"/>
			</g>
			<path clip-path="url(#SVGID_4_)" fill="#FFFFFF" d="M3.6,4L3.4,4.1L3.6,4z"/>
			<g clip-path="url(#SVGID_4_)">
				<path fill="none" d="M3.6,4L3.4,4.1L3.6,4z"/>
			</g>
			<path clip-path="url(#SVGID_4_)" fill="#FFFFFF" d="M3.6,4L3.5,4.1L3.6,4z"/>
			<g clip-path="url(#SVGID_4_)">
				<path fill="none" d="M3.6,4L3.5,4.1L3.6,4z"/>
			</g>
			<path clip-path="url(#SVGID_4_)" fill="#FFFFFF" d="M3.3,4L3.2,4.1L3.3,4z"/>
			<g clip-path="url(#SVGID_4_)">
				<path fill="none" d="M3.3,4L3.2,4.1L3.3,4z"/>
			</g>
			<path clip-path="url(#SVGID_4_)" fill="#FFFFFF" d="M3.7,4L3.6,4.1L3.7,4z"/>
			<g clip-path="url(#SVGID_4_)">
				<path fill="none" d="M3.7,4L3.6,4.1L3.7,4z"/>
			</g>
			<path clip-path="url(#SVGID_4_)" fill="#FFFFFF" d="M3.8,4L3.7,4.1L3.8,4z"/>
			<g clip-path="url(#SVGID_4_)">
				<path fill="none" d="M3.8,4L3.7,4.1L3.8,4z"/>
			</g>
			<path clip-path="url(#SVGID_4_)" fill="#FFFFFF" d="M3.9,4L3.8,4.1L3.9,4z"/>
			<g clip-path="url(#SVGID_4_)">
				<path fill="none" d="M3.9,4L3.8,4.1L3.9,4z"/>
			</g>
			<path clip-path="url(#SVGID_4_)" fill="#FFFFFF" d="M3.9,4L3.8,4.1L3.9,4z"/>
			<g clip-path="url(#SVGID_4_)">
				<path fill="none" d="M3.9,4L3.8,4.1L3.9,4z"/>
			</g>
			<path clip-path="url(#SVGID_4_)" fill="#FFFFFF" d="M3.8,4l0.1,0.1L3.8,4z"/>
			<g clip-path="url(#SVGID_4_)">
				<path fill="none" d="M3.8,4l0.1,0.1L3.8,4z"/>
			</g>
			<path clip-path="url(#SVGID_4_)" fill="#FFFFFF" d="M3.8,4l0.1,0.1L3.8,4z"/>
			<g clip-path="url(#SVGID_4_)">
				<path fill="none" d="M3.8,4l0.1,0.1L3.8,4z"/>
			</g>
			<path clip-path="url(#SVGID_4_)" fill="#FFFFFF" d="M3.7,4l0.1,0.1L3.7,4z"/>
			<g clip-path="url(#SVGID_4_)">
				<path fill="none" d="M3.7,4l0.1,0.1L3.7,4z"/>
			</g>
			<path clip-path="url(#SVGID_4_)" fill="#FFFFFF" d="M3.6,4l0.1,0.1L3.6,4z"/>
			<g clip-path="url(#SVGID_4_)">
				<path fill="none" d="M3.6,4l0.1,0.1L3.6,4z"/>
			</g>
			<path clip-path="url(#SVGID_4_)" fill="#FFFFFF" d="M3.5,4l0.1,0.1L3.5,4z"/>
			<g clip-path="url(#SVGID_4_)">
				<path fill="none" d="M3.5,4l0.1,0.1L3.5,4z"/>
			</g>
			<path clip-path="url(#SVGID_4_)" fill="#FFFFFF" d="M3.4,4l0.1,0.1L3.4,4z"/>
			<g clip-path="url(#SVGID_4_)">
				<path fill="none" d="M3.4,4l0.1,0.1L3.4,4z"/>
			</g>
			<path clip-path="url(#SVGID_4_)" fill="#FFFFFF" d="M3.4,4l0.1,0.1L3.4,4z"/>
			<g clip-path="url(#SVGID_4_)">
				<path fill="none" d="M3.4,4l0.1,0.1L3.4,4z"/>
			</g>
			<path clip-path="url(#SVGID_4_)" fill="#FFFFFF" d="M3.3,4l0.1,0.1L3.3,4z"/>
			<g clip-path="url(#SVGID_4_)">
				<path fill="none" d="M3.3,4l0.1,0.1L3.3,4z"/>
			</g>
			<path clip-path="url(#SVGID_4_)" fill="#FFFFFF" d="M3.2,4l0.1,0.1L3.2,4z"/>
			<g clip-path="url(#SVGID_4_)">
				<path fill="none" d="M3.2,4l0.1,0.1L3.2,4z"/>
			</g>
			<path clip-path="url(#SVGID_4_)" fill="#FFFFFF" d="M3.1,4l0.1,0.1L3.1,4z"/>
			<g clip-path="url(#SVGID_4_)">
				<path fill="none" d="M3.1,4l0.1,0.1L3.1,4z"/>
			</g>
			<path clip-path="url(#SVGID_4_)" fill="#FFFFFF" d="M3.1,4l0.1,0.1L3.1,4z"/>
			<g clip-path="url(#SVGID_4_)">
				<path fill="none" d="M3.1,4l0.1,0.1L3.1,4z"/>
			</g>
			<path clip-path="url(#SVGID_4_)" fill="#FFFFFF" d="M3,4l0.1,0.1L3,4z"/>
			<g clip-path="url(#SVGID_4_)">
				<path fill="none" d="M3,4l0.1,0.1L3,4z"/>
			</g>
			<path clip-path="url(#SVGID_4_)" fill="#FFFFFF" d="M3.3,4l0.1,0.1L3.3,4z"/>
			<g clip-path="url(#SVGID_4_)">
				<path fill="none" d="M3.3,4l0.1,0.1L3.3,4z"/>
			</g>
			<path clip-path="url(#SVGID_4_)" fill="#FFFFFF" d="M2.9,4L3,4.1L2.9,4z"/>
			<g clip-path="url(#SVGID_4_)">
				<path fill="none" d="M2.9,4L3,4.1L2.9,4z"/>
			</g>
			<path clip-path="url(#SVGID_4_)" fill="#FFFFFF" d="M2.8,4l0.1,0.1L2.8,4z"/>
			<g clip-path="url(#SVGID_4_)">
				<path fill="none" d="M2.8,4l0.1,0.1L2.8,4z"/>
			</g>
			<path clip-path="url(#SVGID_4_)" fill="#FFFFFF" d="M2.8,4l0.1,0.1L2.8,4z"/>
			<g clip-path="url(#SVGID_4_)">
				<path fill="none" d="M2.8,4l0.1,0.1L2.8,4z"/>
			</g>
			<path clip-path="url(#SVGID_4_)" fill="#FFFFFF" d="M2.7,4l0.1,0.1L2.7,4z"/>
			<g clip-path="url(#SVGID_4_)">
				<path fill="none" d="M2.7,4l0.1,0.1L2.7,4z"/>
			</g>
			<path clip-path="url(#SVGID_4_)" fill="#FFFFFF" d="M2.8,4.6L2.7,4.7L2.8,4.6z"/>
			<g clip-path="url(#SVGID_4_)">
				<path fill="none" d="M2.8,4.6L2.7,4.7L2.8,4.6z"/>
			</g>
			<path clip-path="url(#SVGID_4_)" fill="#FFFFFF" d="M2.9,4.6L2.8,4.7L2.9,4.6z"/>
			<g clip-path="url(#SVGID_4_)">
				<path fill="none" d="M2.9,4.6L2.8,4.7L2.9,4.6z"/>
			</g>
			<path clip-path="url(#SVGID_4_)" fill="#FFFFFF" d="M2.9,4.6L2.8,4.7L2.9,4.6z"/>
			<g clip-path="url(#SVGID_4_)">
				<path fill="none" d="M2.9,4.6L2.8,4.7L2.9,4.6z"/>
			</g>
			<path clip-path="url(#SVGID_4_)" fill="#FFFFFF" d="M3,4.6L2.9,4.7L3,4.6z"/>
			<g clip-path="url(#SVGID_4_)">
				<path fill="none" d="M3,4.6L2.9,4.7L3,4.6z"/>
			</g>
			<path clip-path="url(#SVGID_4_)" fill="#FFFFFF" d="M3.1,4.6L3,4.7L3.1,4.6z"/>
			<g clip-path="url(#SVGID_4_)">
				<path fill="none" d="M3.1,4.6L3,4.7L3.1,4.6z"/>
			</g>
			<path clip-path="url(#SVGID_4_)" fill="#FFFFFF" d="M3.2,4.6L3.1,4.7L3.2,4.6z"/>
			<g clip-path="url(#SVGID_4_)">
				<path fill="none" d="M3.2,4.6L3.1,4.7L3.2,4.6z"/>
			</g>
			<path clip-path="url(#SVGID_4_)" fill="#FFFFFF" d="M3.3,4.6L3.1,4.7L3.3,4.6z"/>
			<g clip-path="url(#SVGID_4_)">
				<path fill="none" d="M3.3,4.6L3.1,4.7L3.3,4.6z"/>
			</g>
			<path clip-path="url(#SVGID_4_)" fill="#FFFFFF" d="M3.3,4.6L3.2,4.7L3.3,4.6z"/>
			<g clip-path="url(#SVGID_4_)">
				<path fill="none" d="M3.3,4.6L3.2,4.7L3.3,4.6z"/>
			</g>
			<path clip-path="url(#SVGID_4_)" fill="#FFFFFF" d="M3.4,4.6L3.3,4.7L3.4,4.6z"/>
			<g clip-path="url(#SVGID_4_)">
				<path fill="none" d="M3.4,4.6L3.3,4.7L3.4,4.6z"/>
			</g>
			<path clip-path="url(#SVGID_4_)" fill="#FFFFFF" d="M3.5,4.6L3.4,4.7L3.5,4.6z"/>
			<g clip-path="url(#SVGID_4_)">
				<path fill="none" d="M3.5,4.6L3.4,4.7L3.5,4.6z"/>
			</g>
			<path clip-path="url(#SVGID_4_)" fill="#FFFFFF" d="M3.6,4.6L3.4,4.7L3.6,4.6z"/>
			<g clip-path="url(#SVGID_4_)">
				<path fill="none" d="M3.6,4.6L3.4,4.7L3.6,4.6z"/>
			</g>
			<path clip-path="url(#SVGID_4_)" fill="#FFFFFF" d="M3.6,4.6L3.5,4.7L3.6,4.6z"/>
			<g clip-path="url(#SVGID_4_)">
				<path fill="none" d="M3.6,4.6L3.5,4.7L3.6,4.6z"/>
			</g>
			<path clip-path="url(#SVGID_4_)" fill="#FFFFFF" d="M3.3,4.6L3.2,4.7L3.3,4.6z"/>
			<g clip-path="url(#SVGID_4_)">
				<path fill="none" d="M3.3,4.6L3.2,4.7L3.3,4.6z"/>
			</g>
			<path clip-path="url(#SVGID_4_)" fill="#FFFFFF" d="M3.7,4.6L3.6,4.7L3.7,4.6z"/>
			<g clip-path="url(#SVGID_4_)">
				<path fill="none" d="M3.7,4.6L3.6,4.7L3.7,4.6z"/>
			</g>
			<path clip-path="url(#SVGID_4_)" fill="#FFFFFF" d="M3.8,4.6L3.7,4.7L3.8,4.6z"/>
			<g clip-path="url(#SVGID_4_)">
				<path fill="none" d="M3.8,4.6L3.7,4.7L3.8,4.6z"/>
			</g>
			<path clip-path="url(#SVGID_4_)" fill="#FFFFFF" d="M3.9,4.6L3.8,4.7L3.9,4.6z"/>
			<g clip-path="url(#SVGID_4_)">
				<path fill="none" d="M3.9,4.6L3.8,4.7L3.9,4.6z"/>
			</g>
			<path clip-path="url(#SVGID_4_)" fill="#FFFFFF" d="M3.9,4.6L3.8,4.7L3.9,4.6z"/>
			<g clip-path="url(#SVGID_4_)">
				<path fill="none" d="M3.9,4.6L3.8,4.7L3.9,4.6z"/>
			</g>
			<path clip-path="url(#SVGID_4_)" fill="#FFFFFF" d="M3.8,4.6l0.1,0.1L3.8,4.6z"/>
			<g clip-path="url(#SVGID_4_)">
				<path fill="none" d="M3.8,4.6l0.1,0.1L3.8,4.6z"/>
			</g>
			<path clip-path="url(#SVGID_4_)" fill="#FFFFFF" d="M3.8,4.6l0.1,0.1L3.8,4.6z"/>
			<g clip-path="url(#SVGID_4_)">
				<path fill="none" d="M3.8,4.6l0.1,0.1L3.8,4.6z"/>
			</g>
			<path clip-path="url(#SVGID_4_)" fill="#FFFFFF" d="M3.7,4.6l0.1,0.1L3.7,4.6z"/>
			<g clip-path="url(#SVGID_4_)">
				<path fill="none" d="M3.7,4.6l0.1,0.1L3.7,4.6z"/>
			</g>
			<path clip-path="url(#SVGID_4_)" fill="#FFFFFF" d="M3.6,4.6l0.1,0.1L3.6,4.6z"/>
			<g clip-path="url(#SVGID_4_)">
				<path fill="none" d="M3.6,4.6l0.1,0.1L3.6,4.6z"/>
			</g>
			<path clip-path="url(#SVGID_4_)" fill="#FFFFFF" d="M3.5,4.6l0.1,0.1L3.5,4.6z"/>
			<g clip-path="url(#SVGID_4_)">
				<path fill="none" d="M3.5,4.6l0.1,0.1L3.5,4.6z"/>
			</g>
			<path clip-path="url(#SVGID_4_)" fill="#FFFFFF" d="M3.4,4.6l0.1,0.1L3.4,4.6z"/>
			<g clip-path="url(#SVGID_4_)">
				<path fill="none" d="M3.4,4.6l0.1,0.1L3.4,4.6z"/>
			</g>
			<path clip-path="url(#SVGID_4_)" fill="#FFFFFF" d="M3.4,4.6l0.1,0.1L3.4,4.6z"/>
			<g clip-path="url(#SVGID_4_)">
				<path fill="none" d="M3.4,4.6l0.1,0.1L3.4,4.6z"/>
			</g>
			<path clip-path="url(#SVGID_4_)" fill="#FFFFFF" d="M3.3,4.6l0.1,0.1L3.3,4.6z"/>
			<g clip-path="url(#SVGID_4_)">
				<path fill="none" d="M3.3,4.6l0.1,0.1L3.3,4.6z"/>
			</g>
			<path clip-path="url(#SVGID_4_)" fill="#FFFFFF" d="M3.2,4.6l0.1,0.1L3.2,4.6z"/>
			<g clip-path="url(#SVGID_4_)">
				<path fill="none" d="M3.2,4.6l0.1,0.1L3.2,4.6z"/>
			</g>
			<path clip-path="url(#SVGID_4_)" fill="#FFFFFF" d="M3.1,4.6l0.1,0.1L3.1,4.6z"/>
			<g clip-path="url(#SVGID_4_)">
				<path fill="none" d="M3.1,4.6l0.1,0.1L3.1,4.6z"/>
			</g>
			<path clip-path="url(#SVGID_4_)" fill="#FFFFFF" d="M3.1,4.6l0.1,0.1L3.1,4.6z"/>
			<g clip-path="url(#SVGID_4_)">
				<path fill="none" d="M3.1,4.6l0.1,0.1L3.1,4.6z"/>
			</g>
			<path clip-path="url(#SVGID_4_)" fill="#FFFFFF" d="M3,4.6l0.1,0.1L3,4.6z"/>
			<g clip-path="url(#SVGID_4_)">
				<path fill="none" d="M3,4.6l0.1,0.1L3,4.6z"/>
			</g>
			<path clip-path="url(#SVGID_4_)" fill="#FFFFFF" d="M3.3,4.6l0.1,0.1L3.3,4.6z"/>
			<g clip-path="url(#SVGID_4_)">
				<path fill="none" d="M3.3,4.6l0.1,0.1L3.3,4.6z"/>
			</g>
			<path clip-path="url(#SVGID_4_)" fill="#FFFFFF" d="M2.9,4.6L3,4.7L2.9,4.6z"/>
			<g clip-path="url(#SVGID_4_)">
				<path fill="none" d="M2.9,4.6L3,4.7L2.9,4.6z"/>
			</g>
			<path clip-path="url(#SVGID_4_)" fill="#FFFFFF" d="M2.8,4.6l0.1,0.1L2.8,4.6z"/>
			<g clip-path="url(#SVGID_4_)">
				<path fill="none" d="M2.8,4.6l0.1,0.1L2.8,4.6z"/>
			</g>
			<path clip-path="url(#SVGID_4_)" fill="#FFFFFF" d="M2.8,4.6l0.1,0.1L2.8,4.6z"/>
			<g clip-path="url(#SVGID_4_)">
				<path fill="none" d="M2.8,4.6l0.1,0.1L2.8,4.6z"/>
			</g>
			<path clip-path="url(#SVGID_4_)" fill="#FFFFFF" d="M2.7,4.6l0.1,0.1L2.7,4.6z"/>
			<g clip-path="url(#SVGID_4_)">
				<path fill="none" d="M2.7,4.6l0.1,0.1L2.7,4.6z"/>
			</g>
			<path clip-path="url(#SVGID_4_)" fill="#FFFFFF" d="M4.9,5.6C3,7.4,2.3,7.7,2.6,7.8C3,8,4.2,7,5.5,5.8c1.3-1.2,2-2.3,1.6-2.5
				C6.7,3.2,6.9,3.7,4.9,5.6L4.9,5.6z"/>
			<g clip-path="url(#SVGID_4_)">
				<path fill="#DC1F34" d="M2.7,7.8C2.7,7.8,2.7,7.8,2.7,7.8C2.7,7.8,2.6,7.8,2.7,7.8c-0.2,0-0.2-0.1-0.2-0.1
					c0-0.1,0.1-0.2,0.5-0.5C3.4,7,4,6.5,4.9,5.6c1.1-1,1.5-1.7,1.8-2c0.2-0.3,0.3-0.4,0.4-0.3c0.1,0,0.1,0.1,0.1,0.1
					c0.1,0.3-0.6,1.3-1.7,2.4C4.2,7.1,3.1,7.8,2.7,7.8L2.7,7.8z M7,3.3c-0.1,0-0.2,0.1-0.3,0.3C6.4,4,6,4.6,4.9,5.6
					C4,6.5,3.4,7,3,7.3C2.7,7.5,2.5,7.7,2.5,7.7c0,0,0,0,0.1,0.1c0,0,0.1,0,0.1,0c0,0,0,0,0,0c0.4,0,1.5-0.8,2.7-2
					c1.1-1.1,1.8-2,1.7-2.4C7.2,3.4,7.1,3.3,7,3.3C7.1,3.3,7,3.3,7,3.3L7,3.3z"/>
			</g>
			<path clip-path="url(#SVGID_4_)" fill="#FFFFFF" d="M3.3,7L4,7.1C3.4,7.7,2.7,7.9,2.5,7.8C2.3,7.7,2.8,7.5,3.3,7L3.3,7z"/>
			<g clip-path="url(#SVGID_4_)">
				<path fill="#DC1F34" d="M2.6,7.9c-0.1,0-0.1,0-0.1,0c0,0,0,0,0-0.1c0-0.1,0.1-0.2,0.3-0.3c0.2-0.1,0.4-0.3,0.6-0.5L4,7.1
					C3.5,7.6,2.9,7.9,2.6,7.9L2.6,7.9z M3.3,7C3.1,7.2,2.9,7.4,2.7,7.5C2.6,7.6,2.5,7.7,2.5,7.8c0,0,0,0,0,0C2.7,7.9,3.4,7.7,4,7.1
					L3.3,7L3.3,7z"/>
			</g>
			<path clip-path="url(#SVGID_4_)" fill="#FFFFFF" d="M3.3,7l0.5,0.1C3.3,7.7,2.7,7.9,2.5,7.8C2.4,7.7,2.9,7.5,3.3,7L3.3,7z"/>
			<g clip-path="url(#SVGID_4_)">
				<path fill="#DC1F34" d="M2.6,7.8C2.6,7.8,2.6,7.8,2.6,7.8L2.5,7.8c0,0,0.1-0.1,0.2-0.2C2.9,7.4,3.1,7.3,3.3,7l0.5,0.1
					C3.4,7.6,2.8,7.8,2.6,7.8L2.6,7.8z M3.3,7C3.1,7.3,2.9,7.4,2.7,7.6C2.6,7.7,2.5,7.7,2.5,7.8c0,0,0.1,0,0.1,0
					c0.2,0,0.7-0.2,1.3-0.7L3.3,7L3.3,7z"/>
			</g>
			<g clip-path="url(#SVGID_4_)">
				<path fill="#DC1F34" d="M5.1,5.8C5.1,5.7,5.1,5.7,5.1,5.8L5.1,5.8L5.1,5.8L5.1,5.8c0.1,0,0.1,0,0.1,0c0,0,0,0,0,0l0,0
					c0,0,0-0.1,0-0.1c0,0,0-0.1,0-0.1l0,0c0,0,0,0,0,0.1c0,0,0,0,0,0.1l0,0c0,0,0,0,0,0c0,0,0,0,0,0C5.2,5.8,5.2,5.8,5.1,5.8
					L5.1,5.8L5.1,5.8L5.1,5.8z"/>
			</g>
			<g clip-path="url(#SVGID_4_)">
				<path fill="#DC1F34" d="M4.9,6L4.9,6C4.9,6,4.8,6,4.9,6L4.9,6L4.8,6L4.9,6L4.9,6L4.9,6c0-0.1,0-0.1,0-0.1l0.1,0c0,0,0,0,0.1,0
					h0.1c0,0,0,0,0.1,0l0,0l0,0c0,0-0.1,0-0.1,0L5,5.8c0,0,0,0-0.1,0L4.9,6L4.9,6C4.9,5.9,4.9,5.9,4.9,6C4.9,6,4.9,6,4.9,6L4.9,6z"
					/>
			</g>
			<g clip-path="url(#SVGID_4_)">
				<path fill="#DC1F34" d="M4.6,6.3L4.6,6.3C4.7,6.3,4.6,6.3,4.6,6.3l0-0.1l0,0l0.1-0.1l0,0l0,0l-0.1,0l0,0L4.6,6.2l0,0L4.6,6.3
					L4.6,6.3L4.6,6.3L4.6,6.3z"/>
			</g>
			<g clip-path="url(#SVGID_4_)">
				<path fill="#DC1F34" d="M4.4,6.6C4.4,6.6,4.3,6.5,4.4,6.6L4.4,6.6c-0.1-0.1-0.1-0.1,0-0.2l0,0l0.1-0.1h0.1c0,0,0.1,0,0.1,0l0,0
					c0,0-0.1,0-0.1,0l-0.1,0l0,0c0,0,0,0,0,0l0,0l0,0C4.4,6.4,4.3,6.5,4.4,6.6L4.4,6.6L4.4,6.6C4.4,6.5,4.4,6.5,4.4,6.6L4.4,6.6z"/>
			</g>
			<g clip-path="url(#SVGID_4_)">
				<polygon fill="#DC1F34" points="4.2,6.8 4.1,6.8 4.2,6.7 4.3,6.7 4.3,6.7 4.3,6.6 4.3,6.6 4.3,6.6 4.3,6.6 4.3,6.6 4.3,6.6 
					4.3,6.6 4.2,6.5 4.3,6.7 4.3,6.7 4.3,6.7 4.4,6.6 4.4,6.7 4.3,6.7 4.3,6.7 4.3,6.7 4.2,6.8 				"/>
			</g>
			<g clip-path="url(#SVGID_4_)">
				<path fill="#DC1F34" d="M3.8,7L3.8,7C3.8,7,3.8,7,3.8,7l0-0.2L3.8,7L3.9,7C4,7,4,7,4,7l0,0c0-0.1,0-0.1,0-0.1l0-0.1l0,0l0,0.1
					c0,0,0,0,0,0.1l0,0l0,0C4,7,4,7,4,7c0,0,0,0-0.1,0C3.9,7,3.9,7,3.8,7l0-0.1L3.8,7L3.8,7C3.8,7,3.8,7,3.8,7L3.8,7L3.8,7z"/>
			</g>
			<g clip-path="url(#SVGID_4_)">
				<path fill="#DC1F34" d="M2.8,7.7C2.8,7.7,2.7,7.7,2.8,7.7C2.8,7.6,2.8,7.7,2.8,7.7C2.8,7.6,2.9,7.6,2.8,7.7
					C2.9,7.6,2.9,7.6,2.8,7.7c0-0.1,0.1-0.1,0.1-0.2c0,0,0-0.1,0-0.1c0,0,0,0,0.1,0c0,0,0.1,0,0.1,0l0,0l0,0c0,0,0,0,0.1,0
					c0,0,0,0-0.1,0l-0.1,0c0,0-0.1,0-0.1,0l0,0l-0.1,0c0,0,0,0,0,0.1c0,0,0,0,0,0.1C2.9,7.6,2.9,7.6,2.8,7.7
					C2.9,7.7,2.9,7.7,2.8,7.7C2.8,7.7,2.8,7.7,2.8,7.7L2.8,7.7z M3.4,7.4C3.4,7.4,3.4,7.4,3.4,7.4c0-0.1,0-0.1,0-0.1c0,0,0,0,0,0
					l0,0l0,0c0,0,0,0-0.1,0c0,0-0.1,0-0.1,0l0,0.1l0-0.1l0,0c0,0,0,0,0.1,0c0,0,0,0,0.1,0c0,0,0,0,0,0l0,0l0,0c0,0,0,0,0,0
					C3.4,7.3,3.4,7.3,3.4,7.4C3.4,7.4,3.4,7.4,3.4,7.4C3.4,7.4,3.4,7.4,3.4,7.4L3.4,7.4L3.4,7.4c0.1-0.1,0.1-0.1,0.1-0.1
					c0,0,0,0,0.1,0c0,0,0.1,0,0.1,0c0-0.1,0-0.1,0-0.1c0,0,0,0-0.1,0l-0.1,0c0,0-0.1,0-0.1,0l0,0v0c0,0,0,0,0.1,0c0,0,0,0,0.1,0
					c0,0,0.1,0,0.1,0c0,0,0,0,0.1,0l0,0.1c0,0,0,0-0.1,0l0,0l-0.1,0C3.5,7.3,3.5,7.3,3.4,7.4L3.4,7.4C3.5,7.4,3.4,7.4,3.4,7.4
					L3.4,7.4z"/>
			</g>
			<path clip-path="url(#SVGID_4_)" fill="#FFFFFF" d="M7.1,4c0.8-1.4,1.4-2.6,1.2-2.7c-0.2-0.1-0.9,1-1.8,2.4L7.1,4z"/>
			<g clip-path="url(#SVGID_4_)">
				<path fill="#DC1F34" d="M7.1,4L6.5,3.8c0.8-1.4,1.6-2.5,1.8-2.5l0,0C8.4,1.5,7.8,2.7,7.1,4L7.1,4L7.1,4z M8.3,1.4
					c-0.2,0-1,1.1-1.8,2.4L7.1,4C7.8,2.7,8.4,1.5,8.3,1.4C8.3,1.4,8.3,1.4,8.3,1.4L8.3,1.4z"/>
			</g>
			<path clip-path="url(#SVGID_4_)" fill="#FFFFFF" d="M7,4c0.8-1.4,1.4-2.5,1.2-2.6c-0.1-0.1-0.9,1-1.7,2.4L7,4z"/>
			<g clip-path="url(#SVGID_4_)">
				<path fill="#DC1F34" d="M7,4L7,4c0.7-1.3,1.3-2.4,1.2-2.6C8.1,1.4,7.4,2.3,6.6,3.8c0.7-1.2,1.5-2.5,1.7-2.4C8.3,1.6,7.8,2.7,7,4
					L7,4z"/>
			</g>
			<path clip-path="url(#SVGID_4_)" fill="#FFFFFF" d="M6.9,3.3C6.8,3.4,6.7,3.6,6.6,3.8L7,4c0.1-0.2,0.2-0.3,0.3-0.5L6.9,3.3z"/>
			<g clip-path="url(#SVGID_4_)">
				<path fill="#DC1F34" d="M7,4L6.6,3.8l0.1-0.2c0.1-0.1,0.1-0.2,0.2-0.3l0.5,0.2C7.2,3.6,7.2,3.7,7.1,3.8L7,4L7,4z M6.9,3.3
					C6.8,3.4,6.7,3.5,6.7,3.6L6.6,3.8L7,4l0.1-0.1c0.1-0.1,0.1-0.2,0.2-0.4L6.9,3.3L6.9,3.3z"/>
			</g>
			<path clip-path="url(#SVGID_4_)" fill="#FFFFFF" d="M6.9,3.3C6.8,3.5,6.7,3.6,6.6,3.8L7,3.9c0.1-0.2,0.2-0.3,0.3-0.5L6.9,3.3z"/>
			<g clip-path="url(#SVGID_4_)">
				<path fill="#DC1F34" d="M7,3.9L6.6,3.8l0.1-0.2c0.1-0.1,0.1-0.2,0.2-0.3l0.3,0.1C7.2,3.6,7.1,3.7,7.1,3.8L7,3.9L7,3.9z M6.9,3.3
					c0,0.1-0.1,0.2-0.2,0.3L6.6,3.8L7,3.9l0.1-0.2c0.1-0.1,0.1-0.2,0.2-0.3L6.9,3.3L6.9,3.3z"/>
			</g>
			<polygon clip-path="url(#SVGID_4_)" fill="#FFFFFF" points="7.1,3.5 6.9,3.4 6.7,3.7 6.9,3.8 			"/>
			<g clip-path="url(#SVGID_4_)">
				<path fill="#DC1F34" d="M6.9,3.9L6.7,3.8l0.2-0.3l0.2,0.1L6.9,3.9L6.9,3.9z M6.9,3.4L6.7,3.8l0.2,0.1l0.2-0.3L6.9,3.4L6.9,3.4z"
					/>
			</g>
			<path clip-path="url(#SVGID_4_)" fill="#FFFFFF" d="M7.1,3.5L6.7,3.7L7.1,3.5z"/>
			<g clip-path="url(#SVGID_4_)">
				<polygon fill="#DC1F34" points="6.7,3.8 7.1,3.5 7.1,3.5 6.7,3.8 				"/>
			</g>
			<path clip-path="url(#SVGID_4_)" fill="#FFFFFF" d="M6.9,3.8l0-0.4L6.9,3.8z"/>
			<g clip-path="url(#SVGID_4_)">
				<polygon fill="#DC1F34" points="6.9,3.8 6.9,3.4 7,3.8 6.9,3.8 				"/>
			</g>
			<path clip-path="url(#SVGID_4_)" fill="#FFFFFF" d="M8.1,1.8L7.9,1.7L8.1,1.8z"/>
			<g clip-path="url(#SVGID_4_)">
				<polygon fill="#DC1F34" points="8.1,1.8 7.9,1.7 8.1,1.8 8.1,1.8 				"/>
			</g>
			<path clip-path="url(#SVGID_4_)" fill="#DB001E" d="M8.1,1.6C8.1,1.6,8,1.6,8.1,1.6c0,0.1,0,0.1,0,0.1C8.2,1.7,8.2,1.6,8.1,1.6
				C8.2,1.6,8.1,1.6,8.1,1.6L8.1,1.6z"/>
			<g clip-path="url(#SVGID_4_)">
				<ellipse transform="matrix(-0.2538 -0.9673 0.9673 -0.2538 8.6078 9.8811)" fill="none" cx="8.1" cy="1.6" rx="0.1" ry="0.1"/>
			</g>
			<path clip-path="url(#SVGID_4_)" fill="#FFFFFF" d="M6.7,5.6c1.9,1.8,2.7,2,2.3,2.2C8.7,7.9,7.4,7,6.2,5.8
				c-1.3-1.2-2-2.3-1.6-2.5S4.7,3.7,6.7,5.6L6.7,5.6z"/>
			<g clip-path="url(#SVGID_4_)">
				<path fill="#DC1F34" d="M8.9,7.8c-0.4,0-1.5-0.8-2.8-2C5.1,4.7,4.4,3.7,4.4,3.4c0-0.1,0-0.1,0.1-0.1c0.2-0.1,0.2,0,0.4,0.3
					c0.2,0.3,0.7,1,1.8,2C7.6,6.5,8.3,7,8.7,7.3C9,7.5,9.1,7.6,9.1,7.7C9.1,7.7,9.1,7.8,8.9,7.8C9,7.8,9,7.8,8.9,7.8L8.9,7.8z
					 M4.6,3.3C4.6,3.3,4.6,3.3,4.6,3.3c-0.1,0-0.2,0.1-0.2,0.1C4.4,3.7,5.1,4.7,6.2,5.8c1.4,1.4,2.5,2.2,2.8,2c0.1,0,0.1,0,0.1-0.1
					c0-0.1-0.2-0.2-0.5-0.4C8.3,7,7.6,6.5,6.7,5.6c-1.1-1-1.5-1.7-1.8-2C4.8,3.4,4.7,3.3,4.6,3.3L4.6,3.3z"/>
			</g>
			<path clip-path="url(#SVGID_4_)" fill="#FFFFFF" d="M8.3,6.9L7.7,7.1C8.3,7.7,9,7.9,9.2,7.8C9.3,7.7,8.8,7.5,8.3,6.9L8.3,6.9z"/>
			<g clip-path="url(#SVGID_4_)">
				<path fill="#DC1F34" d="M9,7.8c-0.3,0-0.9-0.3-1.4-0.7l0.7-0.2c0.2,0.2,0.4,0.4,0.6,0.5c0.2,0.1,0.3,0.2,0.3,0.3c0,0,0,0,0,0.1
					C9.1,7.8,9.1,7.8,9,7.8L9,7.8z M8.3,6.9L7.7,7.1C8.2,7.6,8.7,7.8,9,7.8l0,0c0,0,0.1,0,0.1,0c0,0,0,0,0,0c0-0.1-0.1-0.2-0.3-0.3
					C8.7,7.3,8.5,7.2,8.3,6.9L8.3,6.9z"/>
			</g>
			<path clip-path="url(#SVGID_4_)" fill="#FFFFFF" d="M8.3,7L7.8,7.1C8.4,7.7,9,7.8,9.1,7.8C9.3,7.7,8.8,7.5,8.3,7L8.3,7z"/>
			<g clip-path="url(#SVGID_4_)">
				<path fill="#DC1F34" d="M9,7.8c-0.2,0-0.7-0.2-1.3-0.7L8.3,7c0.2,0.3,0.5,0.4,0.6,0.5c0.1,0.1,0.2,0.2,0.2,0.2l0,0L9,7.8
					C9.1,7.8,9.1,7.8,9,7.8L9,7.8z M8.3,7L7.8,7.1C8.4,7.7,9,7.8,9.1,7.8c0-0.1-0.1-0.1-0.2-0.2C8.8,7.4,8.5,7.2,8.3,7L8.3,7z"/>
			</g>
			<g clip-path="url(#SVGID_4_)">
				<path fill="#DC1F34" d="M6.5,5.7L6.5,5.7L6.5,5.7c-0.1,0-0.1,0-0.1,0c0,0,0,0-0.1,0c0,0,0,0,0,0l0,0l0-0.1l0,0l0,0.1l0.1,0.1
					c0,0,0,0,0,0C6.4,5.7,6.5,5.7,6.5,5.7L6.5,5.7C6.5,5.7,6.5,5.7,6.5,5.7L6.5,5.7L6.5,5.7L6.5,5.7L6.5,5.7z"/>
			</g>
			<g clip-path="url(#SVGID_4_)">
				<path fill="#DC1F34" d="M6.8,5.9L6.7,5.8l0,0c0,0,0,0-0.1,0H6.6c0,0,0,0-0.1,0l0,0l0,0c0,0,0.1,0,0.1,0l0.1,0c0,0,0,0,0.1,0
					L6.8,5.9L6.8,5.9L6.8,5.9L6.8,5.9z"/>
			</g>
			<g clip-path="url(#SVGID_4_)">
				<path fill="#DC1F34" d="M7,6.3L7,6.3l0-0.1l0,0c-0.1,0-0.1,0-0.1,0l0,0l0,0c0,0-0.1,0-0.1,0l0,0l0,0c0,0,0,0,0.1,0l0.1,0l0,0.1
					L7,6.1C7,6.2,7,6.2,7,6.3L7,6.3L7,6.3L7,6.3z"/>
			</g>
			<g clip-path="url(#SVGID_4_)">
				<path fill="#DC1F34" d="M7.3,6.5C7.3,6.5,7.3,6.5,7.3,6.5l0-0.1c0,0,0,0,0-0.1l0,0l0,0c0,0,0,0,0,0l0,0v0H7.1c0,0-0.1,0-0.1,0
					l0,0c0,0,0.1,0,0.1,0l0.1,0l0.1,0c0,0,0,0,0,0c0,0,0,0,0,0.1c0,0,0,0,0,0.1L7.3,6.5C7.3,6.5,7.3,6.5,7.3,6.5L7.3,6.5z"/>
			</g>
			<g clip-path="url(#SVGID_4_)">
				<polygon fill="#DC1F34" points="7.5,6.7 7.4,6.7 7.4,6.7 7.4,6.6 7.3,6.6 7.3,6.6 7.4,6.5 7.4,6.6 7.4,6.6 7.4,6.6 7.4,6.6 
					7.4,6.6 7.4,6.7 7.5,6.7 7.5,6.7 7.6,6.7 7.7,6.7 7.6,6.7 7.6,6.7 7.5,6.7 				"/>
			</g>
			<g clip-path="url(#SVGID_4_)">
				<path fill="#DC1F34" d="M7.9,7L7.9,7c0-0.1,0-0.1,0-0.1l0,0l0,0L7.7,6.9l0,0c0,0,0,0-0.1,0c0,0,0,0-0.1,0L7.6,6.9c0,0,0,0,0-0.1
					l0-0.1l0,0l0,0l0,0l0,0l0,0c0.1,0,0.1,0,0.1,0l0,0l0,0l0.1,0l0.1-0.1l0,0l0,0l0,0l0,0.1L7.9,7L7.9,7L7.9,7L7.9,7z"/>
			</g>
			<g clip-path="url(#SVGID_4_)">
				<path fill="#DC1F34" d="M8.8,7.6C8.8,7.6,8.8,7.6,8.8,7.6C8.7,7.6,8.7,7.6,8.8,7.5c0,0,0,0,0-0.1c0,0,0,0,0-0.1l0,0
					c0,0-0.1,0-0.1,0l-0.1,0c0,0-0.1,0-0.1,0l0.1-0.1l0,0l0,0l0-0.1c0,0,0,0-0.1,0h0c0,0,0,0-0.1,0c0,0,0,0,0,0c0,0,0,0,0,0l0,0.1
					c0,0,0,0.1,0,0.1c0,0-0.1,0-0.1,0l0-0.1c0,0,0,0,0-0.1c0,0,0,0,0,0c0,0-0.1,0-0.1,0l0-0.1c0,0,0,0,0.1,0c0,0,0,0,0.1,0
					c0,0,0,0,0.1,0c0,0,0.1,0,0.1,0l0,0v0c0,0-0.1,0.1-0.1,0l-0.1,0l0,0c0,0,0,0-0.1,0c0,0,0,0-0.1,0c0,0,0.1,0,0.1,0.1
					c0,0,0.1,0,0.1,0c0,0,0,0,0,0.1l0,0.1l0,0c0,0,0,0,0.1,0c0,0,0,0,0-0.1c0,0,0-0.1,0-0.1c0,0,0,0,0.1,0l0,0c0,0,0,0,0,0l0,0l0,0
					l0,0.1c0,0,0,0,0.1,0c0,0,0,0,0.1,0l0,0l0.1,0.2l0,0.1c0,0,0,0,0,0c0,0,0,0,0,0l0.1,0l0,0c0,0,0.1,0,0.1,0c0,0,0.1,0,0.1,0
					c0,0,0,0,0,0.1C8.8,7.5,8.8,7.5,8.8,7.6C8.8,7.6,8.8,7.6,8.8,7.6C8.8,7.6,8.8,7.6,8.8,7.6C8.9,7.6,8.9,7.6,8.8,7.6
					C8.9,7.6,8.9,7.6,8.8,7.6L8.8,7.6z"/>
			</g>
			<path clip-path="url(#SVGID_4_)" fill="#FFFFFF" d="M4.6,4C3.8,2.6,3.2,1.4,3.4,1.3c0.2-0.1,0.9,1,1.8,2.4L4.6,4z"/>
			<g clip-path="url(#SVGID_4_)">
				<path fill="#DC1F34" d="M4.6,4L4.6,4C3.8,2.7,3.3,1.5,3.3,1.3l0,0c0.2,0,1,1.1,1.8,2.4L4.6,4L4.6,4z M3.4,1.3
					C3.3,1.5,3.8,2.7,4.6,4l0.5-0.2C4.3,2.4,3.6,1.3,3.4,1.3L3.4,1.3z"/>
			</g>
			<path clip-path="url(#SVGID_4_)" fill="#FFFFFF" d="M4.7,4C3.8,2.6,3.3,1.4,3.4,1.4c0.1-0.1,0.9,1,1.7,2.4L4.7,4z"/>
			<g clip-path="url(#SVGID_4_)">
				<path fill="#DC1F34" d="M4.6,4C3.9,2.7,3.3,1.6,3.4,1.4c0,0,0,0,0,0C3.4,1.6,3.9,2.7,4.6,4L4.6,4L4.6,4z M5.1,3.7
					c-0.7-1.2-1.3-2-1.6-2.3C3.8,1.7,4.5,2.7,5.1,3.7L5.1,3.7z"/>
			</g>
			<path clip-path="url(#SVGID_4_)" fill="#FFFFFF" d="M4.8,3.2C4.9,3.4,5,3.6,5.1,3.8L4.7,4C4.6,3.8,4.4,3.6,4.4,3.4L4.8,3.2z"/>
			<g clip-path="url(#SVGID_4_)">
				<path fill="#DC1F34" d="M4.6,4L4.5,3.8C4.5,3.7,4.4,3.5,4.3,3.4l0.4-0.2C4.9,3.3,4.9,3.5,5,3.6l0.1,0.2L4.6,4L4.6,4z M4.8,3.2
					L4.4,3.4c0.1,0.1,0.1,0.2,0.2,0.3l0.1,0.2l0.4-0.2L5,3.6C4.9,3.5,4.8,3.4,4.8,3.2L4.8,3.2z"/>
			</g>
			<path clip-path="url(#SVGID_4_)" fill="#FFFFFF" d="M4.8,3.3C4.8,3.5,4.9,3.6,5,3.7L4.7,3.9C4.6,3.7,4.5,3.6,4.4,3.4L4.8,3.3z"/>
			<g clip-path="url(#SVGID_4_)">
				<path fill="#DC1F34" d="M4.7,3.9L4.6,3.7C4.5,3.6,4.5,3.6,4.4,3.5l0.3-0.2c0.1,0.1,0.1,0.2,0.2,0.3L5,3.7L4.7,3.9L4.7,3.9z
					 M4.7,3.3L4.4,3.5c0.1,0.1,0.1,0.2,0.2,0.3l0.1,0.1L5,3.7L4.9,3.6C4.9,3.5,4.8,3.4,4.7,3.3L4.7,3.3z"/>
			</g>
			<polygon clip-path="url(#SVGID_4_)" fill="#FFFFFF" points="4.5,3.5 4.7,3.4 4.9,3.7 4.7,3.8 			"/>
			<g clip-path="url(#SVGID_4_)">
				<path fill="#DC1F34" d="M4.7,3.8L4.5,3.5l0.2-0.1l0.2,0.3L4.7,3.8L4.7,3.8z M4.7,3.4L4.5,3.5l0.2,0.3l0.2-0.1L4.7,3.4L4.7,3.4z"
					/>
			</g>
			<path clip-path="url(#SVGID_4_)" fill="#FFFFFF" d="M4.5,3.5l0.4,0.2L4.5,3.5z"/>
			<g clip-path="url(#SVGID_4_)">
				<polygon fill="#DC1F34" points="4.9,3.7 4.5,3.5 4.5,3.5 4.9,3.7 				"/>
			</g>
			<path clip-path="url(#SVGID_4_)" fill="#FFFFFF" d="M4.7,3.8l0-0.4L4.7,3.8z"/>
			<g clip-path="url(#SVGID_4_)">
				<path fill="none" d="M4.7,3.8l0-0.4L4.7,3.8z"/>
			</g>
			<path clip-path="url(#SVGID_4_)" fill="#FFFFFF" d="M3.5,1.8l0.2-0.1L3.5,1.8z"/>
			<g clip-path="url(#SVGID_4_)">
				<path fill="none" d="M3.5,1.8l0.2-0.1L3.5,1.8z"/>
			</g>
			<path clip-path="url(#SVGID_4_)" fill="#DB001E" d="M3.6,1.5C3.6,1.5,3.6,1.6,3.6,1.5c0,0.1,0,0.1,0,0.1C3.5,1.6,3.5,1.6,3.6,1.5
				C3.5,1.5,3.5,1.5,3.6,1.5L3.6,1.5z"/>
			<g clip-path="url(#SVGID_4_)">
				<path fill="#DC1F34" d="M3.5,1.7L3.5,1.7C3.5,1.6,3.5,1.6,3.5,1.7c-0.1-0.1,0-0.1,0-0.1C3.6,1.5,3.6,1.6,3.5,1.7
					C3.6,1.6,3.6,1.7,3.5,1.7L3.5,1.7z"/>
			</g>
			<path clip-path="url(#SVGID_4_)" fill="#FFFFFF" d="M5.3,3.3c0,1.2,0,1.6-0.1,1.7C5.1,5,2.8,5,2.8,5.3C2.8,5.6,4.7,6,5.3,6
				C6,6,6.4,5.6,6.4,5V3.3H5.3z"/>
			<g clip-path="url(#SVGID_4_)">
				<path fill="#DC1F34" d="M5.3,6C4.7,6,2.7,5.6,2.7,5.3C2.7,5,3.9,5,4.6,5c0.3,0,0.5,0,0.6,0c0.1-0.1,0.1-0.5,0.1-1.5l0-0.2l1.2,0
					l0,1.7C6.4,5.6,6,6,5.3,6L5.3,6z M6.4,3.3l-1.1,0l0,0.2c0,1,0,1.4-0.1,1.5c0,0-0.2,0-0.6,0C3.9,5,2.8,5.1,2.8,5.3
					C2.8,5.6,4.6,6,5.3,6C6,6,6.4,5.6,6.4,5V3.3L6.4,3.3z"/>
			</g>
			<path clip-path="url(#SVGID_4_)" fill="#FFFFFF" d="M5.3,3.6v0.2c0.4,0.1,0.8,0.1,1.2,0V3.6C6,3.7,5.6,3.7,5.3,3.6L5.3,3.6z"/>
			<g clip-path="url(#SVGID_4_)">
				<path fill="#DC1F34" d="M5.8,3.8c-0.2,0-0.4,0-0.6,0l0-0.2c0.4,0,0.8,0,1.2,0l0,0.2C6.2,3.8,6,3.8,5.8,3.8L5.8,3.8z M5.3,3.6
					l0,0.2c0.4,0,0.8,0,1.1,0l0-0.2C6,3.7,5.6,3.7,5.3,3.6L5.3,3.6z"/>
			</g>
			<path clip-path="url(#SVGID_4_)" fill="#FFFFFF" d="M5.3,3.3v0.2c0.4,0.1,0.8,0.1,1.2,0V3.3C6,3.3,5.6,3.3,5.3,3.3L5.3,3.3z"/>
			<g clip-path="url(#SVGID_4_)">
				<path fill="#DC1F34" d="M5.8,3.5c-0.2,0-0.4,0-0.6,0l0-0.2c0.4,0,0.8,0,1.2,0l0,0.2C6.2,3.5,6,3.5,5.8,3.5L5.8,3.5z M5.3,3.3
					l0,0.2c0.4,0,0.8,0,1.1,0l0-0.2C6,3.3,5.6,3.3,5.3,3.3L5.3,3.3z"/>
			</g>
			<path clip-path="url(#SVGID_4_)" fill="#FFFFFF" d="M5.3,3.4v0.2c0.4,0.1,0.8,0.1,1.2,0V3.4C6,3.5,5.6,3.5,5.3,3.4L5.3,3.4z"/>
			<g clip-path="url(#SVGID_4_)">
				<path fill="#DC1F34" d="M5.8,3.6c-0.2,0-0.4,0-0.6,0l0-0.2c0.4,0,0.8,0,1.2,0l0,0.2C6.2,3.6,6,3.6,5.8,3.6L5.8,3.6z M5.3,3.4
					l0,0.2c0.4,0,0.8,0,1.1,0l0-0.2C6,3.5,5.6,3.5,5.3,3.4L5.3,3.4z"/>
			</g>
			<path clip-path="url(#SVGID_4_)" fill="#FFFFFF" d="M5.3,3.8v0.2C5.6,4,6,4,6.4,3.9V3.8C6,3.8,5.6,3.8,5.3,3.8L5.3,3.8z"/>
			<g clip-path="url(#SVGID_4_)">
				<path fill="#DC1F34" d="M5.8,4c-0.2,0-0.4,0-0.6,0l0-0.2c0.4,0,0.8,0,1.2,0l0,0.2C6.2,4,6,4,5.8,4L5.8,4z M5.3,3.8l0,0.2
					c0.4,0,0.8,0,1.1,0l0-0.2C6,3.8,5.6,3.8,5.3,3.8L5.3,3.8z"/>
			</g>
			<path clip-path="url(#SVGID_4_)" fill="#FFFFFF" d="M5.3,3.5C5.3,3.5,5.4,3.5,5.3,3.5C5.4,3.5,5.3,3.6,5.3,3.5
				C5.3,3.6,5.3,3.5,5.3,3.5C5.3,3.5,5.3,3.5,5.3,3.5L5.3,3.5z"/>
			<g clip-path="url(#SVGID_4_)">
				<ellipse fill="none" cx="5.3" cy="3.5" rx="0.1" ry="0"/>
			</g>
			<path clip-path="url(#SVGID_4_)" fill="#FFFFFF" d="M5.5,3.5C5.6,3.5,5.6,3.5,5.5,3.5C5.6,3.6,5.6,3.6,5.5,3.5
				C5.5,3.6,5.5,3.6,5.5,3.5C5.5,3.5,5.5,3.5,5.5,3.5L5.5,3.5z"/>
			<g clip-path="url(#SVGID_4_)">
				<ellipse fill="none" cx="5.5" cy="3.5" rx="0.1" ry="0"/>
			</g>
			<path clip-path="url(#SVGID_4_)" fill="#FFFFFF" d="M5.7,3.5C5.8,3.5,5.8,3.5,5.7,3.5C5.8,3.6,5.8,3.6,5.7,3.5
				C5.7,3.6,5.7,3.6,5.7,3.5C5.7,3.5,5.7,3.5,5.7,3.5L5.7,3.5z"/>
			<g clip-path="url(#SVGID_4_)">
				<ellipse fill="none" cx="5.7" cy="3.6" rx="0.1" ry="0"/>
			</g>
			<path clip-path="url(#SVGID_4_)" fill="#FFFFFF" d="M5.9,3.5C6,3.5,6,3.5,5.9,3.5C6,3.6,6,3.6,5.9,3.5C5.9,3.6,5.9,3.6,5.9,3.5
				C5.9,3.5,5.9,3.5,5.9,3.5L5.9,3.5z"/>
			<g clip-path="url(#SVGID_4_)">
				<ellipse fill="none" cx="5.9" cy="3.6" rx="0.1" ry="0"/>
			</g>
			<path clip-path="url(#SVGID_4_)" fill="#FFFFFF" d="M6.2,3.5C6.2,3.5,6.2,3.5,6.2,3.5C6.2,3.6,6.2,3.6,6.2,3.5
				C6.1,3.6,6.1,3.6,6.2,3.5C6.1,3.5,6.1,3.5,6.2,3.5L6.2,3.5z"/>
			<g clip-path="url(#SVGID_4_)">
				<ellipse fill="none" cx="6.2" cy="3.5" rx="0.1" ry="0"/>
			</g>
			<path clip-path="url(#SVGID_4_)" fill="#FFFFFF" d="M6.4,3.5C6.4,3.5,6.4,3.5,6.4,3.5C6.4,3.5,6.4,3.6,6.4,3.5
				C6.3,3.6,6.3,3.5,6.4,3.5C6.3,3.5,6.3,3.5,6.4,3.5L6.4,3.5z"/>
			<g clip-path="url(#SVGID_4_)">
				<ellipse fill="none" cx="6.4" cy="3.5" rx="0.1" ry="0"/>
			</g>
			<path clip-path="url(#SVGID_4_)" fill="#FFFFFF" d="M5.3,4.1L6.4,5L5.3,4.1z"/>
			<g clip-path="url(#SVGID_4_)">
				<polygon fill="#DC1F34" points="6.4,5 5.3,4.1 5.3,4.1 6.4,5 				"/>
			</g>
			<path clip-path="url(#SVGID_4_)" fill="#FFFFFF" d="M5.4,4.1l1,0.8L5.4,4.1z"/>
			<g clip-path="url(#SVGID_4_)">
				<polygon fill="#DC1F34" points="6.4,4.9 5.4,4.1 5.4,4.1 6.4,4.9 				"/>
			</g>
			<path clip-path="url(#SVGID_4_)" fill="#FFFFFF" d="M5.5,4.1l0.9,0.7L5.5,4.1z"/>
			<g clip-path="url(#SVGID_4_)">
				<polygon fill="#DC1F34" points="6.4,4.8 5.5,4.1 5.5,4.1 6.4,4.8 				"/>
			</g>
			<path clip-path="url(#SVGID_4_)" fill="#FFFFFF" d="M5.6,4.1l0.8,0.6L5.6,4.1z"/>
			<g clip-path="url(#SVGID_4_)">
				<polygon fill="#DC1F34" points="6.4,4.7 5.6,4.1 5.7,4.1 6.4,4.7 				"/>
			</g>
			<path clip-path="url(#SVGID_4_)" fill="#FFFFFF" d="M5.8,4.1l0.7,0.5L5.8,4.1z"/>
			<g clip-path="url(#SVGID_4_)">
				<polygon fill="#DC1F34" points="6.4,4.6 5.8,4.1 5.8,4.1 6.4,4.6 				"/>
			</g>
			<path clip-path="url(#SVGID_4_)" fill="#FFFFFF" d="M5.9,4.1l0.5,0.4L5.9,4.1z"/>
			<g clip-path="url(#SVGID_4_)">
				<polygon fill="#DC1F34" points="6.4,4.5 5.9,4.1 5.9,4.1 6.4,4.5 				"/>
			</g>
			<path clip-path="url(#SVGID_4_)" fill="#FFFFFF" d="M6,4.1l0.4,0.3L6,4.1z"/>
			<g clip-path="url(#SVGID_4_)">
				<polygon fill="#DC1F34" points="6.4,4.4 6,4.1 6,4.1 6.4,4.4 				"/>
			</g>
			<path clip-path="url(#SVGID_4_)" fill="#FFFFFF" d="M6.1,4.1l0.3,0.2L6.1,4.1z"/>
			<g clip-path="url(#SVGID_4_)">
				<path fill="none" d="M6.1,4.1l0.3,0.2L6.1,4.1z"/>
			</g>
			<path clip-path="url(#SVGID_4_)" fill="#FFFFFF" d="M6.2,4.1l0.2,0.1L6.2,4.1z"/>
			<g clip-path="url(#SVGID_4_)">
				<path fill="none" d="M6.2,4.1l0.2,0.1L6.2,4.1z"/>
			</g>
			<path clip-path="url(#SVGID_4_)" fill="#FFFFFF" d="M6.3,4.1L6.3,4.1L6.3,4.1z"/>
			<g clip-path="url(#SVGID_4_)">
				<path fill="none" d="M6.3,4.1L6.3,4.1L6.3,4.1z"/>
			</g>
			<path clip-path="url(#SVGID_4_)" fill="#FFFFFF" d="M5.3,4.2l1.2,0.9L5.3,4.2z"/>
			<g clip-path="url(#SVGID_4_)">
				<polygon fill="#DC1F34" points="6.4,5.1 5.3,4.2 5.3,4.2 6.4,5.1 				"/>
			</g>
			<path clip-path="url(#SVGID_4_)" fill="#FFFFFF" d="M6.4,4.1l-1.3,1L6.4,4.1z"/>
			<g clip-path="url(#SVGID_4_)">
				<polygon fill="#DC1F34" points="5.2,5.1 6.4,4.1 6.4,4.1 5.2,5.1 				"/>
			</g>
			<path clip-path="url(#SVGID_4_)" fill="#FFFFFF" d="M6.3,4.1L5.2,5L6.3,4.1z"/>
			<g clip-path="url(#SVGID_4_)">
				<polygon fill="#DC1F34" points="5.2,5 6.3,4.1 6.3,4.1 5.2,5 				"/>
			</g>
			<path clip-path="url(#SVGID_4_)" fill="#FFFFFF" d="M6.1,4.1L5.3,4.8L6.1,4.1z"/>
			<g clip-path="url(#SVGID_4_)">
				<polygon fill="#DC1F34" points="5.3,4.8 6.1,4.1 6.2,4.1 5.3,4.8 				"/>
			</g>
			<path clip-path="url(#SVGID_4_)" fill="#FFFFFF" d="M6,4.1L5.3,4.7L6,4.1z"/>
			<g clip-path="url(#SVGID_4_)">
				<polygon fill="#DC1F34" points="5.3,4.7 6,4.1 6,4.1 5.3,4.7 				"/>
			</g>
			<path clip-path="url(#SVGID_4_)" fill="#FFFFFF" d="M5.9,4.1L5.3,4.6L5.9,4.1z"/>
			<g clip-path="url(#SVGID_4_)">
				<polygon fill="#DC1F34" points="5.3,4.6 5.9,4.1 5.9,4.1 5.3,4.6 				"/>
			</g>
			<path clip-path="url(#SVGID_4_)" fill="#FFFFFF" d="M5.8,4.1L5.3,4.5L5.8,4.1z"/>
			<g clip-path="url(#SVGID_4_)">
				<polygon fill="#DC1F34" points="5.3,4.5 5.8,4.1 5.8,4.1 5.3,4.5 				"/>
			</g>
			<path clip-path="url(#SVGID_4_)" fill="#FFFFFF" d="M5.7,4.1L5.3,4.4L5.7,4.1z"/>
			<g clip-path="url(#SVGID_4_)">
				<polygon fill="#DC1F34" points="5.3,4.4 5.7,4.1 5.7,4.1 5.3,4.4 				"/>
			</g>
			<path clip-path="url(#SVGID_4_)" fill="#FFFFFF" d="M5.6,4.1L5.3,4.3L5.6,4.1z"/>
			<g clip-path="url(#SVGID_4_)">
				<path fill="none" d="M5.6,4.1L5.3,4.3L5.6,4.1z"/>
			</g>
			<path clip-path="url(#SVGID_4_)" fill="#FFFFFF" d="M5.5,4.1L5.3,4.3L5.5,4.1z"/>
			<g clip-path="url(#SVGID_4_)">
				<path fill="none" d="M5.5,4.1L5.3,4.3L5.5,4.1z"/>
			</g>
			<path clip-path="url(#SVGID_4_)" fill="#FFFFFF" d="M5.3,4.1L5.3,4.1L5.3,4.1z"/>
			<g clip-path="url(#SVGID_4_)">
				<path fill="none" d="M5.3,4.1L5.3,4.1L5.3,4.1z"/>
			</g>
			<path clip-path="url(#SVGID_4_)" fill="#FFFFFF" d="M6.4,4.2l-1.3,1L6.4,4.2z"/>
			<g clip-path="url(#SVGID_4_)">
				<polygon fill="#DC1F34" points="5.2,5.2 6.4,4.2 6.4,4.2 5.2,5.2 				"/>
			</g>
			<path clip-path="url(#SVGID_4_)" fill="#FFFFFF" d="M6.4,4.3l-1.3,1L6.4,4.3z"/>
			<g clip-path="url(#SVGID_4_)">
				<polygon fill="#DC1F34" points="5.2,5.3 6.4,4.3 6.4,4.3 5.2,5.3 				"/>
			</g>
			<path clip-path="url(#SVGID_4_)" fill="#FFFFFF" d="M6.4,4.4l-1.3,1L6.4,4.4z"/>
			<g clip-path="url(#SVGID_4_)">
				<polygon fill="#DC1F34" points="5.2,5.4 6.4,4.4 6.4,4.4 5.2,5.4 				"/>
			</g>
			<path clip-path="url(#SVGID_4_)" fill="#FFFFFF" d="M6.4,4.5l-1.3,1L6.4,4.5z"/>
			<g clip-path="url(#SVGID_4_)">
				<polygon fill="#DC1F34" points="5.2,5.5 6.4,4.5 6.4,4.5 5.2,5.5 				"/>
			</g>
			<path clip-path="url(#SVGID_4_)" fill="#FFFFFF" d="M6.4,4.6l-1.3,1L6.4,4.6z"/>
			<g clip-path="url(#SVGID_4_)">
				<polygon fill="#DC1F34" points="5.2,5.6 6.4,4.6 6.4,4.6 5.2,5.6 				"/>
			</g>
			<path clip-path="url(#SVGID_4_)" fill="#FFFFFF" d="M6.4,4.7l-1.3,1L6.4,4.7z"/>
			<g clip-path="url(#SVGID_4_)">
				<polygon fill="#DC1F34" points="5.2,5.7 6.4,4.7 6.4,4.7 5.2,5.7 				"/>
			</g>
			<path clip-path="url(#SVGID_4_)" fill="#FFFFFF" d="M6.4,4.8l-1.3,1L6.4,4.8z"/>
			<g clip-path="url(#SVGID_4_)">
				<polygon fill="#DC1F34" points="5.2,5.8 6.4,4.8 6.4,4.8 5.2,5.8 				"/>
			</g>
			<path clip-path="url(#SVGID_4_)" fill="#FFFFFF" d="M6.4,4.9l-1.3,1L6.4,4.9z"/>
			<g clip-path="url(#SVGID_4_)">
				<polygon fill="#DC1F34" points="5.2,5.9 6.4,4.9 6.4,4.9 5.2,5.9 				"/>
			</g>
			<path clip-path="url(#SVGID_4_)" fill="#FFFFFF" d="M6.4,5L5.2,6L6.4,5z"/>
			<g clip-path="url(#SVGID_4_)">
				<polygon fill="#DC1F34" points="5.2,6 6.4,5 6.4,5 5.2,6 				"/>
			</g>
			<path clip-path="url(#SVGID_4_)" fill="#FFFFFF" d="M6.4,5.1L5.3,6L6.4,5.1z"/>
			<g clip-path="url(#SVGID_4_)">
				<polygon fill="#DC1F34" points="5.3,6 6.4,5.1 6.4,5.1 5.3,6 				"/>
			</g>
			<path clip-path="url(#SVGID_4_)" fill="#FFFFFF" d="M6.4,5.3L5.5,5.9L6.4,5.3z"/>
			<g clip-path="url(#SVGID_4_)">
				<polygon fill="#DC1F34" points="5.5,5.9 6.4,5.2 6.4,5.3 5.5,5.9 				"/>
			</g>
			<path clip-path="url(#SVGID_4_)" fill="#FFFFFF" d="M6.3,5.4L5.6,5.9L6.3,5.4z"/>
			<g clip-path="url(#SVGID_4_)">
				<polygon fill="#DC1F34" points="5.7,5.9 6.3,5.4 6.3,5.4 5.7,5.9 				"/>
			</g>
			<path clip-path="url(#SVGID_4_)" fill="#FFFFFF" d="M6.3,5.6L5.9,5.8L6.3,5.6z"/>
			<g clip-path="url(#SVGID_4_)">
				<path fill="none" d="M6.3,5.6L5.9,5.8L6.3,5.6z"/>
			</g>
			<path clip-path="url(#SVGID_4_)" fill="#FFFFFF" d="M5.3,4.3l1.1,0.9L5.3,4.3z"/>
			<g clip-path="url(#SVGID_4_)">
				<polygon fill="#DC1F34" points="6.4,5.2 5.3,4.3 5.3,4.3 6.4,5.2 				"/>
			</g>
			<path clip-path="url(#SVGID_4_)" fill="#FFFFFF" d="M5.3,4.4l1.1,0.9L5.3,4.4z"/>
			<g clip-path="url(#SVGID_4_)">
				<polygon fill="#DC1F34" points="6.4,5.3 5.3,4.4 5.3,4.4 6.4,5.3 				"/>
			</g>
			<path clip-path="url(#SVGID_4_)" fill="#FFFFFF" d="M5.3,4.5l1.1,0.8L5.3,4.5z"/>
			<g clip-path="url(#SVGID_4_)">
				<polygon fill="#DC1F34" points="6.3,5.4 5.3,4.5 5.3,4.5 6.3,5.4 				"/>
			</g>
			<path clip-path="url(#SVGID_4_)" fill="#FFFFFF" d="M5.3,4.6l1.1,0.8L5.3,4.6z"/>
			<g clip-path="url(#SVGID_4_)">
				<polygon fill="#DC1F34" points="6.3,5.5 5.3,4.6 5.3,4.6 6.3,5.5 				"/>
			</g>
			<path clip-path="url(#SVGID_4_)" fill="#FFFFFF" d="M5.3,4.7l1,0.8L5.3,4.7z"/>
			<g clip-path="url(#SVGID_4_)">
				<polygon fill="#DC1F34" points="6.3,5.5 5.3,4.7 5.3,4.7 6.3,5.5 				"/>
			</g>
			<path clip-path="url(#SVGID_4_)" fill="#FFFFFF" d="M5.2,4.8l1,0.8L5.2,4.8z"/>
			<g clip-path="url(#SVGID_4_)">
				<polygon fill="#DC1F34" points="6.3,5.6 5.2,4.8 5.2,4.8 6.3,5.6 				"/>
			</g>
			<path clip-path="url(#SVGID_4_)" fill="#FFFFFF" d="M5.2,4.9l1,0.7L5.2,4.9z"/>
			<g clip-path="url(#SVGID_4_)">
				<polygon fill="#DC1F34" points="6.2,5.6 5.2,4.9 5.2,4.9 6.2,5.6 				"/>
			</g>
			<path clip-path="url(#SVGID_4_)" fill="#FFFFFF" d="M5.2,5l1,0.7L5.2,5z"/>
			<g clip-path="url(#SVGID_4_)">
				<polygon fill="#DC1F34" points="6.2,5.7 5.2,5 5.2,4.9 6.2,5.7 				"/>
			</g>
			<path clip-path="url(#SVGID_4_)" fill="#FFFFFF" d="M5.1,5l0.9,0.7L5.1,5z"/>
			<g clip-path="url(#SVGID_4_)">
				<polygon fill="#DC1F34" points="6.1,5.7 5.1,5 5.2,5 6.1,5.7 				"/>
			</g>
			<path clip-path="url(#SVGID_4_)" fill="#FFFFFF" d="M5.1,5.1L6,5.8L5.1,5.1z"/>
			<g clip-path="url(#SVGID_4_)">
				<polygon fill="#DC1F34" points="6,5.8 5.1,5.1 5.2,5.1 6,5.8 				"/>
			</g>
			<path clip-path="url(#SVGID_4_)" fill="#FFFFFF" d="M5.1,5.2l0.8,0.6L5.1,5.2z"/>
			<g clip-path="url(#SVGID_4_)">
				<polygon fill="#DC1F34" points="5.9,5.8 5.1,5.2 5.2,5.2 5.9,5.8 				"/>
			</g>
			<path clip-path="url(#SVGID_4_)" fill="#FFFFFF" d="M5.3,3.9v0.2c0.4,0.1,0.8,0.1,1.2,0V3.9C6,4,5.6,4,5.3,3.9L5.3,3.9z"/>
			<g clip-path="url(#SVGID_4_)">
				<path fill="#DC1F34" d="M5.8,4.2c-0.2,0-0.4,0-0.6,0l0-0.2c0.4,0,0.8,0,1.2,0l0,0.2C6.2,4.1,6,4.2,5.8,4.2L5.8,4.2z M5.3,3.9
					l0,0.2c0.4,0,0.8,0,1.1,0l0-0.2C6,4,5.6,4,5.3,3.9L5.3,3.9z"/>
			</g>
			<path clip-path="url(#SVGID_4_)" fill="#FFFFFF" d="M5.1,5.3l0.7,0.5L5.1,5.3z"/>
			<g clip-path="url(#SVGID_4_)">
				<polygon fill="#DC1F34" points="5.8,5.9 5.1,5.3 5.2,5.3 5.8,5.9 				"/>
			</g>
			<path clip-path="url(#SVGID_4_)" fill="#FFFFFF" d="M5.1,5.4l0.6,0.5L5.1,5.4z"/>
			<g clip-path="url(#SVGID_4_)">
				<polygon fill="#DC1F34" points="5.8,5.9 5.1,5.4 5.2,5.4 5.8,5.9 				"/>
			</g>
			<path clip-path="url(#SVGID_4_)" fill="#FFFFFF" d="M5.1,5.5l0.5,0.4L5.1,5.5z"/>
			<g clip-path="url(#SVGID_4_)">
				<polygon fill="#DC1F34" points="5.7,5.9 5.1,5.5 5.2,5.5 5.7,5.9 				"/>
			</g>
			<path clip-path="url(#SVGID_4_)" fill="#FFFFFF" d="M5.1,5.6l0.4,0.3L5.1,5.6z"/>
			<g clip-path="url(#SVGID_4_)">
				<polygon fill="#DC1F34" points="5.5,5.9 5.1,5.6 5.2,5.6 5.5,5.9 				"/>
			</g>
			<path clip-path="url(#SVGID_4_)" fill="#FFFFFF" d="M5.1,5.7L5.5,6L5.1,5.7z"/>
			<g clip-path="url(#SVGID_4_)">
				<path fill="none" d="M5.1,5.7L5.5,6L5.1,5.7z"/>
			</g>
			<path clip-path="url(#SVGID_4_)" fill="#FFFFFF" d="M5.1,5.8L5.3,6L5.1,5.8z"/>
			<g clip-path="url(#SVGID_4_)">
				<path fill="none" d="M5.1,5.8L5.3,6L5.1,5.8z"/>
			</g>
			<path clip-path="url(#SVGID_4_)" fill="#FFFFFF" d="M5.3,4C5.3,4,5.4,4,5.3,4C5.4,4.1,5.3,4.1,5.3,4C5.3,4.1,5.3,4.1,5.3,4
				C5.3,4,5.3,4,5.3,4L5.3,4z"/>
			<g clip-path="url(#SVGID_4_)">
				<ellipse fill="none" cx="5.3" cy="4" rx="0.1" ry="0"/>
			</g>
			<path clip-path="url(#SVGID_4_)" fill="#FFFFFF" d="M5.5,4C5.6,4,5.6,4,5.5,4C5.6,4.1,5.6,4.1,5.5,4C5.5,4.1,5.5,4.1,5.5,4
				C5.5,4,5.5,4,5.5,4L5.5,4z"/>
			<g clip-path="url(#SVGID_4_)">
				<ellipse fill="none" cx="5.5" cy="4" rx="0.1" ry="0"/>
			</g>
			<path clip-path="url(#SVGID_4_)" fill="#FFFFFF" d="M5.7,4C5.8,4,5.8,4,5.7,4C5.8,4.1,5.8,4.1,5.7,4C5.7,4.1,5.7,4.1,5.7,4
				C5.7,4,5.7,4,5.7,4L5.7,4z"/>
			<g clip-path="url(#SVGID_4_)">
				<ellipse fill="none" cx="5.7" cy="4.1" rx="0.1" ry="0"/>
			</g>
			<path clip-path="url(#SVGID_4_)" fill="#FFFFFF" d="M5.9,4C6,4,6,4,5.9,4C6,4.1,6,4.1,5.9,4C5.9,4.1,5.9,4.1,5.9,4
				C5.9,4,5.9,4,5.9,4L5.9,4z"/>
			<g clip-path="url(#SVGID_4_)">
				<ellipse fill="none" cx="5.9" cy="4.1" rx="0.1" ry="0"/>
			</g>
			<path clip-path="url(#SVGID_4_)" fill="#FFFFFF" d="M6.2,4C6.2,4,6.2,4,6.2,4C6.2,4.1,6.2,4.1,6.2,4C6.1,4.1,6.1,4.1,6.2,4
				C6.1,4,6.1,4,6.2,4L6.2,4z"/>
			<g clip-path="url(#SVGID_4_)">
				<ellipse fill="none" cx="6.2" cy="4" rx="0.1" ry="0"/>
			</g>
			<path clip-path="url(#SVGID_4_)" fill="#FFFFFF" d="M6.4,4C6.4,4,6.4,4,6.4,4C6.4,4.1,6.4,4.1,6.4,4C6.3,4.1,6.3,4.1,6.4,4
				C6.3,4,6.3,4,6.4,4L6.4,4z"/>
			<g clip-path="url(#SVGID_4_)">
				<ellipse fill="none" cx="6.4" cy="4" rx="0.1" ry="0"/>
			</g>
			<path clip-path="url(#SVGID_4_)" fill="#FFFFFF" d="M3.6,5.7L5,5L3.6,5.7z"/>
			<g clip-path="url(#SVGID_4_)">
				<polygon fill="#DC1F34" points="3.6,5.7 3.6,5.7 5,5 3.6,5.7 				"/>
			</g>
			<path clip-path="url(#SVGID_4_)" fill="#FFFFFF" d="M3.5,5.7L4.8,5L3.5,5.7z"/>
			<g clip-path="url(#SVGID_4_)">
				<polygon fill="#DC1F34" points="3.5,5.7 3.5,5.7 4.8,5 3.5,5.7 				"/>
			</g>
			<path clip-path="url(#SVGID_4_)" fill="#FFFFFF" d="M3.5,5.6L4.7,5L3.5,5.6z"/>
			<g clip-path="url(#SVGID_4_)">
				<polygon fill="#DC1F34" points="3.5,5.6 3.5,5.6 4.7,5 3.5,5.6 				"/>
			</g>
			<path clip-path="url(#SVGID_4_)" fill="#FFFFFF" d="M3.4,5.5l1-0.5L3.4,5.5z"/>
			<g clip-path="url(#SVGID_4_)">
				<polygon fill="#DC1F34" points="3.5,5.5 3.4,5.5 4.5,5 3.5,5.5 				"/>
			</g>
			<path clip-path="url(#SVGID_4_)" fill="#FFFFFF" d="M3.4,5.5l1-0.5L3.4,5.5z"/>
			<g clip-path="url(#SVGID_4_)">
				<polygon fill="#DC1F34" points="3.4,5.5 3.4,5.5 4.3,5 3.4,5.5 				"/>
			</g>
			<path clip-path="url(#SVGID_4_)" fill="#FFFFFF" d="M3.4,5.4L4.1,5L3.4,5.4z"/>
			<g clip-path="url(#SVGID_4_)">
				<polygon fill="#DC1F34" points="3.4,5.4 3.4,5.3 4.1,5 3.4,5.4 				"/>
			</g>
			<path clip-path="url(#SVGID_4_)" fill="#FFFFFF" d="M3.4,5.3L3.9,5L3.4,5.3z"/>
			<g clip-path="url(#SVGID_4_)">
				<polygon fill="#DC1F34" points="3.4,5.3 3.4,5.3 3.9,5 3.4,5.3 				"/>
			</g>
			<path clip-path="url(#SVGID_4_)" fill="#FFFFFF" d="M3.4,5.2L3.7,5L3.4,5.2z"/>
			<g clip-path="url(#SVGID_4_)">
				<path fill="none" d="M3.4,5.2L3.7,5L3.4,5.2z"/>
			</g>
			<path clip-path="url(#SVGID_4_)" fill="#FFFFFF" d="M3.7,5.7L5,5.1L3.7,5.7z"/>
			<g clip-path="url(#SVGID_4_)">
				<polygon fill="#DC1F34" points="3.7,5.7 3.7,5.7 5,5 3.7,5.7 				"/>
			</g>
			<path clip-path="url(#SVGID_4_)" fill="#FFFFFF" d="M3.8,5.8l1.2-0.6L3.8,5.8z"/>
			<g clip-path="url(#SVGID_4_)">
				<polygon fill="#DC1F34" points="3.8,5.8 3.8,5.8 5.1,5.1 3.8,5.8 				"/>
			</g>
			<path clip-path="url(#SVGID_4_)" fill="#FFFFFF" d="M3.9,5.8l1.2-0.6L3.9,5.8z"/>
			<g clip-path="url(#SVGID_4_)">
				<polygon fill="#DC1F34" points="4,5.8 3.9,5.8 5.1,5.2 4,5.8 				"/>
			</g>
			<path clip-path="url(#SVGID_4_)" fill="#FFFFFF" d="M4.1,5.8l1-0.5L4.1,5.8z"/>
			<g clip-path="url(#SVGID_4_)">
				<polygon fill="#DC1F34" points="4.1,5.8 4.1,5.8 5,5.3 4.1,5.8 				"/>
			</g>
			<path clip-path="url(#SVGID_4_)" fill="#FFFFFF" d="M4.2,5.8l0.8-0.4L4.2,5.8z"/>
			<g clip-path="url(#SVGID_4_)">
				<polygon fill="#DC1F34" points="4.2,5.8 4.2,5.8 5.1,5.4 4.2,5.8 				"/>
			</g>
			<path clip-path="url(#SVGID_4_)" fill="#FFFFFF" d="M4.3,5.9l0.7-0.4L4.3,5.9z"/>
			<g clip-path="url(#SVGID_4_)">
				<polygon fill="#DC1F34" points="4.3,5.9 4.3,5.9 5.1,5.5 4.3,5.9 				"/>
			</g>
			<path clip-path="url(#SVGID_4_)" fill="#FFFFFF" d="M4.5,5.9L5,5.6L4.5,5.9z"/>
			<g clip-path="url(#SVGID_4_)">
				<polygon fill="#DC1F34" points="4.5,5.9 4.4,5.9 5,5.6 4.5,5.9 				"/>
			</g>
			<path clip-path="url(#SVGID_4_)" fill="#FFFFFF" d="M4.6,5.9l0.5-0.2L4.6,5.9z"/>
			<g clip-path="url(#SVGID_4_)">
				<polygon fill="#DC1F34" points="4.6,5.9 4.6,5.9 5.1,5.7 4.6,5.9 				"/>
			</g>
			<path clip-path="url(#SVGID_4_)" fill="#FFFFFF" d="M4.8,5.9l0.3-0.2L4.8,5.9z"/>
			<g clip-path="url(#SVGID_4_)">
				<path fill="none" d="M4.8,5.9l0.3-0.2L4.8,5.9z"/>
			</g>
			<path clip-path="url(#SVGID_4_)" fill="#FFFFFF" d="M4.9,5.9l0.2-0.1L4.9,5.9z"/>
			<g clip-path="url(#SVGID_4_)">
				<path fill="none" d="M4.9,5.9l0.2-0.1L4.9,5.9z"/>
			</g>
			<path clip-path="url(#SVGID_4_)" fill="#FFFFFF" d="M5.2,5H5C4.9,5.3,4.9,5.6,5,6h0.2C5.1,5.6,5.1,5.3,5.2,5L5.2,5z"/>
			<g clip-path="url(#SVGID_4_)">
				<path fill="#DC1F34" d="M5.2,6H5c-0.1-0.3-0.1-0.7,0-1l0.2,0C5.1,5.3,5.1,5.6,5.2,6L5.2,6L5.2,6z M5.2,4.9L5,5
					C4.9,5.3,4.9,5.6,5,6l0.2,0C5.1,5.6,5.1,5.3,5.2,4.9L5.2,4.9z"/>
			</g>
			<path clip-path="url(#SVGID_4_)" fill="#FFFFFF" d="M2.9,5.4l0.5-0.3L2.9,5.4z"/>
			<g clip-path="url(#SVGID_4_)">
				<polygon fill="#DC1F34" points="2.9,5.4 2.9,5.4 3.4,5.1 2.9,5.4 				"/>
			</g>
			<path clip-path="url(#SVGID_4_)" fill="#FFFFFF" d="M2.9,5.2l0.5,0.4L2.9,5.2z"/>
			<g clip-path="url(#SVGID_4_)">
				<polygon fill="#DC1F34" points="3.4,5.6 2.9,5.2 2.9,5.2 3.4,5.6 				"/>
			</g>
			<path clip-path="url(#SVGID_4_)" fill="#FFFFFF" d="M3.6,5l-0.2,0c-0.1,0.2-0.1,0.4,0,0.6l0.2,0.1C3.6,5.5,3.6,5.2,3.6,5L3.6,5z"
				/>
			<g clip-path="url(#SVGID_4_)">
				<path fill="#DC1F34" d="M3.6,5.7L3.4,5.7c-0.1-0.2-0.1-0.4,0-0.6l0.2,0C3.6,5.2,3.6,5.5,3.6,5.7L3.6,5.7L3.6,5.7z M3.6,5l-0.2,0
					c0,0.2,0,0.4,0,0.6l0.2,0.1C3.5,5.5,3.5,5.2,3.6,5L3.6,5z"/>
			</g>
			<path clip-path="url(#SVGID_4_)" fill="#FFFFFF" d="M6.4,3.3V3.2C6.2,3.2,6.1,3.1,6.1,3L5.5,3c0,0.1-0.1,0.2-0.3,0.2v0.2H6.4z"/>
			<g clip-path="url(#SVGID_4_)">
				<path fill="#DC1F34" d="M6.4,3.3H5.3l0-0.2C5.4,3.1,5.5,3,5.5,3l0.6,0c0,0.1,0,0.1,0.1,0.1c0.1,0,0.1,0.1,0.2,0.1L6.4,3.3
					L6.4,3.3z M6.1,3L5.5,3c0,0.1-0.1,0.2-0.3,0.2l0,0.2l1.1,0V3.2c-0.1,0-0.2,0-0.2-0.1C6.1,3.1,6.1,3,6.1,3L6.1,3z"/>
			</g>
			<rect x="5.6" y="2.7" clip-path="url(#SVGID_4_)" fill="#FFFFFF" width="0.5" height="0.2"/>
			<g clip-path="url(#SVGID_4_)">
				<path fill="#DC1F34" d="M6.1,3H5.6l0-0.2l0.5,0L6.1,3L6.1,3z M6.1,2.7l-0.5,0l0,0.2l0.5,0V2.7L6.1,2.7z"/>
			</g>
			<rect x="5.6" y="2.5" clip-path="url(#SVGID_4_)" fill="#FFFFFF" width="0.4" height="0.2"/>
			<g clip-path="url(#SVGID_4_)">
				<path fill="#DC1F34" d="M6.1,2.8H5.6l0-0.2l0.4,0L6.1,2.8L6.1,2.8z M6,2.5l-0.4,0l0,0.2l0.4,0V2.5L6,2.5z"/>
			</g>
			<rect x="5.6" y="2.3" clip-path="url(#SVGID_4_)" fill="#FFFFFF" width="0.4" height="0.2"/>
			<g clip-path="url(#SVGID_4_)">
				<path fill="#DC1F34" d="M6.1,2.6H5.6l0-0.2l0.4,0L6.1,2.6L6.1,2.6z M6,2.3l-0.4,0l0,0.2l0.4,0V2.3L6,2.3z"/>
			</g>
			<rect x="5.7" y="2.1" clip-path="url(#SVGID_4_)" fill="#FFFFFF" width="0.3" height="0.3"/>
			<g clip-path="url(#SVGID_4_)">
				<path fill="#DC1F34" d="M6,2.4H5.7l0-0.3l0.3,0L6,2.4L6,2.4z M6,2.1l-0.3,0l0,0.3l0.3,0V2.1L6,2.1z"/>
			</g>
			<rect x="5.7" y="1.8" clip-path="url(#SVGID_4_)" fill="#FFFFFF" width="0.4" height="0.2"/>
			<g clip-path="url(#SVGID_4_)">
				<path fill="#DC1F34" d="M6,2.1H5.7l0-0.2l0.4,0L6,2.1L6,2.1z M6,1.8l-0.3,0l0,0.2l0.3,0V1.8L6,1.8z"/>
			</g>
			<path clip-path="url(#SVGID_4_)" fill="#FFFFFF" d="M5.9,1.3c0.3,0,0.5,0.1,0.5,0.3S6.1,1.9,5.9,1.9c-0.3,0-0.5-0.1-0.5-0.3
				S5.6,1.3,5.9,1.3L5.9,1.3z"/>
			<g clip-path="url(#SVGID_4_)">
				<path fill="#DC1F34" d="M5.9,1.9c-0.3,0-0.5-0.1-0.5-0.3c0-0.2,0.2-0.3,0.5-0.3s0.5,0.1,0.5,0.3C6.3,1.8,6.1,1.9,5.9,1.9
					L5.9,1.9z M5.9,1.3c-0.3,0-0.5,0.1-0.5,0.3s0.2,0.3,0.5,0.3s0.5-0.1,0.5-0.3S6.1,1.3,5.9,1.3L5.9,1.3z"/>
			</g>
			<path clip-path="url(#SVGID_4_)" fill="#FFFFFF" d="M6.1,1.6c0,0.1,0.1,0.2,0.1,0.2C6.1,1.9,6,1.9,5.9,1.9c-0.1,0-0.3,0-0.4-0.1
				c0,0,0.1-0.1,0.1-0.2c0-0.1-0.1-0.2-0.1-0.2c0.1-0.1,0.2-0.1,0.4-0.1c0.1,0,0.3,0,0.4,0.1C6.2,1.4,6.1,1.5,6.1,1.6L6.1,1.6z"/>
			<g clip-path="url(#SVGID_4_)">
				<path fill="#DC1F34" d="M5.9,1.9c-0.1,0-0.3,0-0.4-0.1c0,0,0.1-0.2,0.1-0.2c0-0.1-0.1-0.2-0.1-0.2c0.2-0.2,0.5-0.1,0.7,0
					c0,0-0.1,0.1-0.1,0.2c0,0.1,0.1,0.2,0.1,0.2C6.1,1.9,6,1.9,5.9,1.9L5.9,1.9z M5.5,1.4c0,0,0.1,0.1,0.1,0.2
					c0,0.1-0.1,0.2-0.1,0.2c0.1,0.1,0.3,0.1,0.4,0.1c0.1,0,0.3,0,0.4-0.1c0,0-0.1-0.1-0.1-0.2c0-0.1,0.1-0.2,0.1-0.2
					C6,1.3,5.7,1.3,5.5,1.4L5.5,1.4L5.5,1.4z"/>
			</g>
			<path clip-path="url(#SVGID_4_)" fill="#FFFFFF" d="M6,1.6c0,0.1,0.1,0.3,0.1,0.3C6.1,1.9,6,1.9,5.9,1.9c-0.1,0-0.2,0-0.3-0.1
				c0,0,0.1-0.2,0.1-0.3c0-0.1-0.1-0.2-0.1-0.2c0.1-0.1,0.1-0.1,0.3-0.1c0.1,0,0.2,0,0.3,0.1C6.1,1.4,6,1.5,6,1.6L6,1.6z"/>
			<g clip-path="url(#SVGID_4_)">
				<path fill="#DC1F34" d="M5.8,1.9c-0.1,0-0.2,0-0.2-0.1c0,0,0.1-0.2,0.1-0.3c0-0.1-0.1-0.2-0.1-0.2c0.1-0.1,0.2-0.1,0.3-0.1
					c0.1,0,0.2,0,0.3,0.1c0,0-0.1,0.2-0.1,0.2c0,0.1,0.1,0.3,0.1,0.3C6.1,1.9,6,1.9,5.8,1.9L5.8,1.9L5.8,1.9z M5.6,1.4
					c0,0,0.1,0.1,0.1,0.2c0,0.1-0.1,0.3-0.1,0.3c0,0,0.1,0.1,0.2,0.1v0l0,0c0.2,0,0.2,0,0.3-0.1h0c0,0-0.1-0.2-0.1-0.3
					c0-0.1,0.1-0.2,0.1-0.2C6,1.3,6,1.3,5.9,1.3C5.7,1.3,5.7,1.3,5.6,1.4C5.6,1.4,5.6,1.4,5.6,1.4L5.6,1.4z"/>
			</g>
			<path clip-path="url(#SVGID_4_)" fill="#FFFFFF" d="M5.4,1.5c0.1,0,0.1,0,0.1,0.1c0,0.1-0.1,0.1-0.1,0.1s-0.1,0-0.1-0.1
				C5.3,1.6,5.3,1.5,5.4,1.5L5.4,1.5z"/>
			<g clip-path="url(#SVGID_4_)">
				<path fill="#DC1F34" d="M5.4,1.7c-0.1,0-0.1-0.1-0.1-0.1c0-0.1,0.3-0.1,0.3,0C5.5,1.7,5.5,1.7,5.4,1.7L5.4,1.7z M5.4,1.5
					c-0.1,0-0.1,0-0.1,0.1c0,0.1,0.2,0.1,0.2,0C5.5,1.6,5.4,1.5,5.4,1.5L5.4,1.5z"/>
			</g>
			<path clip-path="url(#SVGID_4_)" fill="#FFFFFF" d="M6.3,1.5c0.1,0,0.1,0,0.1,0.1c0,0.1-0.1,0.1-0.1,0.1c-0.1,0-0.1,0-0.1-0.1
				C6.2,1.6,6.3,1.5,6.3,1.5L6.3,1.5z"/>
			<g clip-path="url(#SVGID_4_)">
				<path fill="#DC1F34" d="M6.3,1.7c-0.1,0-0.1-0.1-0.1-0.1c0-0.1,0.3-0.1,0.3,0C6.5,1.7,6.4,1.7,6.3,1.7L6.3,1.7z M6.3,1.5
					c-0.1,0-0.1,0-0.1,0.1c0,0.1,0.2,0.1,0.2,0C6.4,1.6,6.4,1.5,6.3,1.5L6.3,1.5z"/>
			</g>
			<path clip-path="url(#SVGID_4_)" fill="#FFFFFF" d="M5.9,1.5c0.1,0,0.1,0,0.1,0.1c0,0.1-0.1,0.1-0.1,0.1c-0.1,0-0.1,0-0.1-0.1
				C5.7,1.6,5.8,1.5,5.9,1.5L5.9,1.5z"/>
			<g clip-path="url(#SVGID_4_)">
				<path fill="#DC1F34" d="M5.9,1.7c-0.1,0-0.1-0.1-0.1-0.1c0-0.1,0.3-0.1,0.3,0C6,1.7,5.9,1.7,5.9,1.7L5.9,1.7z M5.9,1.5
					c-0.1,0-0.1,0-0.1,0.1c0,0.1,0.2,0.1,0.2,0C6,1.6,5.9,1.5,5.9,1.5L5.9,1.5z"/>
			</g>
			<path clip-path="url(#SVGID_4_)" fill="#FFFFFF" d="M5.9,1.2c0.1,0,0.1,0,0.1,0.1c0,0.1-0.1,0.1-0.1,0.1c-0.1,0-0.1,0-0.1-0.1
				C5.7,1.2,5.8,1.2,5.9,1.2L5.9,1.2z"/>
			<g clip-path="url(#SVGID_4_)">
				<path fill="#DC1F34" d="M5.9,1.4c-0.1,0-0.1,0-0.1-0.1c0-0.1,0.3-0.1,0.3,0C6,1.4,5.9,1.4,5.9,1.4L5.9,1.4z M5.9,1.2
					c-0.1,0-0.1,0-0.1,0.1c0,0.1,0.2,0.1,0.2,0C6,1.2,5.9,1.2,5.9,1.2L5.9,1.2z"/>
			</g>
			<path clip-path="url(#SVGID_4_)" fill="#FFFFFF" d="M5.5,3.1c0.1,0,0.1,0,0.1,0.1c0,0.1-0.1,0.1-0.1,0.1c-0.1,0-0.1,0-0.1-0.1
				C5.4,3.2,5.4,3.1,5.5,3.1L5.5,3.1z"/>
			<g clip-path="url(#SVGID_4_)">
				<path fill="#DC1F34" d="M5.5,3.3c-0.1,0-0.1-0.1-0.1-0.1c0-0.1,0.3-0.1,0.3,0C5.6,3.3,5.6,3.3,5.5,3.3L5.5,3.3z M5.5,3.1
					c-0.1,0-0.1,0-0.1,0.1c0,0.1,0.2,0.1,0.2,0C5.6,3.2,5.6,3.1,5.5,3.1L5.5,3.1z"/>
			</g>
			<path clip-path="url(#SVGID_4_)" fill="#FFFFFF" d="M6.2,3.1c0.1,0,0.1,0,0.1,0.1c0,0.1-0.1,0.1-0.1,0.1C6.1,3.3,6,3.3,6,3.2
				C6,3.2,6.1,3.1,6.2,3.1L6.2,3.1z"/>
			<g clip-path="url(#SVGID_4_)">
				<path fill="#DC1F34" d="M6.2,3.3C6.1,3.3,6,3.3,6,3.2c0-0.1,0.3-0.1,0.3,0C6.3,3.3,6.2,3.3,6.2,3.3L6.2,3.3z M6.2,3.1
					c-0.1,0-0.1,0-0.1,0.1c0,0.1,0.2,0.1,0.2,0C6.3,3.2,6.2,3.1,6.2,3.1L6.2,3.1z"/>
			</g>
			<polygon clip-path="url(#SVGID_4_)" fill="#FFFFFF" points="5.5,3 6.1,3 5.8,3.3 			"/>
			<g clip-path="url(#SVGID_4_)">
				<path fill="#DC1F34" d="M5.8,3.3L5.5,3l0.6,0L5.8,3.3L5.8,3.3z M6.1,2.9L5.5,3l0.3,0.3L6.1,2.9L6.1,2.9z"/>
			</g>
			<path clip-path="url(#SVGID_4_)" fill="#FFFFFF" d="M5.8,3.1C5.9,3.1,6,3.1,6,3.2c0,0.1-0.1,0.1-0.2,0.1c-0.1,0-0.2-0.1-0.2-0.1
				C5.7,3.1,5.7,3.1,5.8,3.1L5.8,3.1z"/>
			<g clip-path="url(#SVGID_4_)">
				<path fill="#DC1F34" d="M5.8,3.3c-0.1,0-0.2-0.1-0.2-0.1C5.7,3.1,5.7,3,5.8,3C5.9,3,6,3.1,6,3.2C6,3.3,5.9,3.3,5.8,3.3L5.8,3.3z
					 M5.8,3.1c-0.1,0-0.2,0.1-0.2,0.1c0,0.1,0.3,0.1,0.3,0C6,3.1,5.9,3.1,5.8,3.1L5.8,3.1z"/>
			</g>
			<path clip-path="url(#SVGID_4_)" fill="#FFFFFF" d="M5.3,4.2H6c0,0,0,0,0,0v0.1c0,0,0,0,0,0H5.3c0,0,0,0,0,0L5.3,4.2
				C5.2,4.2,5.2,4.2,5.3,4.2L5.3,4.2z"/>
			<g clip-path="url(#SVGID_4_)">
				<path fill="#DC1F34" d="M6,4.4H5.3c0,0-0.1,0-0.1,0V4.2c0,0,0,0,0.1,0H6c0,0,0.1,0,0.1,0L6,4.4C6.1,4.4,6.1,4.4,6,4.4L6,4.4z
					 M5.3,4.2l0,0.2l0.8,0c0,0,0,0,0,0V4.2L5.3,4.2L5.3,4.2z"/>
			</g>
			<path clip-path="url(#SVGID_4_)" fill="#FFFFFF" d="M6.4,4C6.3,4,6.2,4.1,6.2,4.2v0.2c0,0.1,0.1,0.2,0.2,0.2
				c0.1,0,0.2-0.1,0.2-0.2V4.2C6.6,4.1,6.5,4,6.4,4L6.4,4z M6.4,4.1c-0.1,0-0.1,0.1-0.1,0.1v0.1c0,0.1,0.1,0.1,0.1,0.1
				c0.1,0,0.1-0.1,0.1-0.1V4.2C6.5,4.2,6.4,4.1,6.4,4.1L6.4,4.1z"/>
			<g clip-path="url(#SVGID_4_)">
				<path fill="#DC1F34" d="M6.4,4.6c-0.1,0-0.2-0.1-0.2-0.2V4.2C6.2,4.1,6.2,4,6.4,4c0.1,0,0.2,0.1,0.2,0.2v0.2
					C6.6,4.5,6.5,4.6,6.4,4.6L6.4,4.6z M6.4,4C6.3,4,6.2,4.1,6.2,4.2v0.2c0,0.1,0.1,0.2,0.2,0.2s0.2-0.1,0.2-0.2V4.2
					C6.5,4.1,6.5,4,6.4,4L6.4,4z M6.4,4.5c-0.1,0-0.1-0.1-0.1-0.2V4.2c0-0.1,0.1-0.2,0.1-0.2c0.1,0,0.1,0.1,0.1,0.2v0.1
					C6.5,4.4,6.4,4.5,6.4,4.5L6.4,4.5z M6.4,4.1c-0.1,0-0.1,0.1-0.1,0.1v0.1c0,0.1,0.2,0.1,0.2,0V4.2C6.5,4.2,6.4,4.1,6.4,4.1
					L6.4,4.1z"/>
			</g>
			<path clip-path="url(#SVGID_4_)" fill="#FFFFFF" d="M5.4,4.1c-0.1,0-0.1,0.1-0.1,0.1v0.2c0,0.1,0.1,0.1,0.1,0.1
				c0.1,0,0.1-0.1,0.1-0.1V4.2C5.5,4.1,5.4,4.1,5.4,4.1L5.4,4.1z M5.4,4C5.3,4,5.2,4.1,5.2,4.2v0.2c0,0.1,0.1,0.2,0.2,0.2
				c0.1,0,0.2-0.1,0.2-0.2V4.2C5.5,4.1,5.5,4,5.4,4L5.4,4z"/>
			<g clip-path="url(#SVGID_4_)">
				<path fill="#DC1F34" d="M5.4,4.6c-0.1,0-0.2-0.1-0.2-0.2V4.2C5.2,4.1,5.2,4,5.4,4c0.1,0,0.2,0.1,0.2,0.2v0.2
					C5.6,4.5,5.5,4.6,5.4,4.6L5.4,4.6z M5.4,4C5.3,4,5.2,4.1,5.2,4.2v0.2c0,0.1,0.1,0.2,0.2,0.2c0.1,0,0.2-0.1,0.2-0.2V4.2
					C5.5,4.1,5.5,4,5.4,4L5.4,4z M5.4,4.5c-0.1,0-0.1-0.1-0.1-0.2V4.2c0-0.1,0.1-0.2,0.1-0.2c0.1,0,0.1,0.1,0.1,0.2v0.2
					C5.5,4.5,5.4,4.5,5.4,4.5L5.4,4.5z M5.4,4.1c-0.1,0-0.1,0.1-0.1,0.1v0.2c0,0.1,0.2,0.1,0.2,0V4.2C5.5,4.1,5.4,4.1,5.4,4.1
					L5.4,4.1z"/>
			</g>
			<path clip-path="url(#SVGID_4_)" fill="#FFFFFF" d="M5,4.1C5,4.1,4.9,4.2,4.9,4.3v0C4.9,4.4,5,4.5,5,4.5c0.1,0,0.1-0.1,0.1-0.1v0
				C5.2,4.2,5.1,4.1,5,4.1L5,4.1z M5,4.1c-0.1,0-0.2,0.1-0.2,0.2v0.1c0,0.1,0.1,0.2,0.2,0.2c0.1,0,0.2-0.1,0.2-0.2V4.2
				C5.2,4.1,5.2,4.1,5,4.1L5,4.1z"/>
			<g clip-path="url(#SVGID_4_)">
				<path fill="#DC1F34" d="M5,4.5c-0.1,0-0.2-0.1-0.2-0.2V4.2c0-0.1,0.1-0.2,0.2-0.2c0.1,0,0.2,0.1,0.2,0.2v0.1
					C5.3,4.5,5.2,4.5,5,4.5L5,4.5z M5,4.1c-0.1,0-0.2,0.1-0.2,0.2v0.1c0,0.1,0.1,0.2,0.2,0.2c0.1,0,0.2-0.1,0.2-0.2V4.2
					C5.2,4.2,5.1,4.1,5,4.1L5,4.1z M5,4.5C5,4.5,4.9,4.4,4.9,4.3c0-0.2,0.3-0.2,0.3,0C5.2,4.4,5.1,4.5,5,4.5L5,4.5z M5,4.1
					C5,4.1,4.9,4.2,4.9,4.3c0,0.2,0.2,0.2,0.2,0C5.2,4.2,5.1,4.1,5,4.1L5,4.1z"/>
			</g>
			<path clip-path="url(#SVGID_4_)" fill="#FFFFFF" d="M4.6,4C4.5,4,4.4,4.1,4.4,4.2v0.2c0,0.1,0.1,0.2,0.2,0.2
				c0.1,0,0.2-0.1,0.2-0.2V4.2C4.8,4.1,4.7,4,4.6,4L4.6,4z M4.6,4C4.4,4,4.2,4.1,4.2,4.2v0.2c0,0.1,0.2,0.2,0.3,0.2
				c0.2,0,0.3-0.1,0.3-0.2V4.2C4.9,4.1,4.8,4,4.6,4L4.6,4z"/>
			<g clip-path="url(#SVGID_4_)">
				<path fill="#DC1F34" d="M4.6,4.6c-0.2,0-0.4-0.1-0.4-0.2V4.2C4.2,4.1,4.4,4,4.6,4c0.2,0,0.4,0.1,0.4,0.2v0.2
					C4.9,4.5,4.8,4.6,4.6,4.6L4.6,4.6z M4.6,4C4.4,4,4.2,4.1,4.2,4.2v0.2c0,0.1,0.2,0.2,0.3,0.2c0.2,0,0.3-0.1,0.3-0.2V4.2
					C4.9,4.1,4.8,4,4.6,4L4.6,4z M4.6,4.5c-0.1,0-0.2-0.1-0.2-0.2V4.2C4.4,4.1,4.5,4,4.6,4c0.1,0,0.2,0.1,0.2,0.2v0.2
					C4.8,4.5,4.7,4.5,4.6,4.5L4.6,4.5z M4.6,4.1c-0.1,0-0.2,0.1-0.2,0.1v0.2c0,0.1,0.1,0.1,0.2,0.1c0.1,0,0.2-0.1,0.2-0.1V4.2
					C4.8,4.1,4.7,4.1,4.6,4.1L4.6,4.1z"/>
			</g>
			<path clip-path="url(#SVGID_4_)" fill="#FFFFFF" d="M7.1,4.1C7,4.1,6.9,4.1,6.9,4.2v0.2c0,0.1,0.1,0.2,0.2,0.2
				c0.1,0,0.2-0.1,0.2-0.2V4.2C7.3,4.1,7.2,4.1,7.1,4.1L7.1,4.1z M7.1,4C6.9,4,6.7,4.1,6.7,4.2v0.2c0,0.1,0.2,0.2,0.3,0.2
				c0.2,0,0.3-0.1,0.3-0.2V4.2C7.4,4.1,7.3,4,7.1,4L7.1,4z"/>
			<g clip-path="url(#SVGID_4_)">
				<path fill="#DC1F34" d="M7.1,4.7c-0.2,0-0.4-0.1-0.4-0.2V4.2C6.7,4.1,6.9,4,7.1,4c0.2,0,0.4,0.1,0.4,0.2v0.2
					C7.4,4.6,7.3,4.7,7.1,4.7L7.1,4.7z M7.1,4C6.9,4,6.8,4.1,6.8,4.2v0.2c0,0.1,0.2,0.2,0.3,0.2c0.2,0,0.3-0.1,0.3-0.2V4.2
					C7.4,4.1,7.3,4,7.1,4L7.1,4z M7.1,4.6C7,4.6,6.9,4.5,6.9,4.4V4.2c0-0.1,0.1-0.2,0.2-0.2c0.1,0,0.2,0.1,0.2,0.2v0.2
					C7.3,4.5,7.2,4.6,7.1,4.6L7.1,4.6z M7.1,4.1C7,4.1,6.9,4.2,6.9,4.2v0.2c0,0.1,0.1,0.1,0.2,0.1c0.1,0,0.2-0.1,0.2-0.1V4.2
					C7.3,4.2,7.2,4.1,7.1,4.1L7.1,4.1z"/>
			</g>
			<path clip-path="url(#SVGID_4_)" fill="#FFFFFF" d="M6.5,4.2h0.4c0,0,0,0,0,0v0.1c0,0,0,0,0,0H6.5c0,0,0,0,0,0L6.5,4.2
				C6.4,4.2,6.4,4.2,6.5,4.2L6.5,4.2z"/>
			<g clip-path="url(#SVGID_4_)">
				<path fill="#DC1F34" d="M6.9,4.4H6.5l0,0V4.2l0,0h0.4l0,0L6.9,4.4L6.9,4.4L6.9,4.4z M6.5,4.2l0,0.2l0.4,0l0,0V4.2L6.5,4.2
					L6.5,4.2z"/>
			</g>
			<path clip-path="url(#SVGID_4_)" fill="#FFFFFF" d="M6,4.2h0.2c0,0,0,0,0,0v0.2c0,0,0,0,0,0H6c0,0,0,0,0,0L6,4.2
				C6,4.2,6,4.2,6,4.2L6,4.2z"/>
			<g clip-path="url(#SVGID_4_)">
				<path fill="#DC1F34" d="M6.3,4.5H6c0,0,0,0,0-0.1V4.2c0,0,0-0.1,0-0.1h0.2c0,0,0,0,0,0.1L6.3,4.5C6.3,4.4,6.3,4.5,6.3,4.5
					L6.3,4.5z M6,4.2l0,0.2l0.2,0l0-0.2L6,4.2L6,4.2z"/>
			</g>
			<path clip-path="url(#SVGID_4_)" fill="#FFFFFF" d="M4.8,4.2H5c0,0,0,0,0,0v0.2c0,0,0,0,0,0H4.8c0,0,0,0,0,0L4.8,4.2
				C4.7,4.2,4.7,4.2,4.8,4.2L4.8,4.2z"/>
			<g clip-path="url(#SVGID_4_)">
				<path fill="#DC1F34" d="M5,4.5H4.8c0,0,0,0,0-0.1V4.2c0,0,0-0.1,0-0.1H5c0,0,0,0,0,0.1L5,4.5C5,4.4,5,4.5,5,4.5L5,4.5z M4.8,4.2
					l0,0.2l0.2,0l0-0.2L4.8,4.2L4.8,4.2z"/>
			</g>
			<path clip-path="url(#SVGID_4_)" fill="#FFFFFF" d="M3.9,4.1h0.5c0,0,0,0,0,0.1v0.2c0,0,0,0.1,0,0.1H3.9c0,0,0,0,0-0.1L3.9,4.1
				C3.9,4.2,3.9,4.1,3.9,4.1L3.9,4.1z"/>
			<g clip-path="url(#SVGID_4_)">
				<path fill="#DC1F34" d="M4.4,4.5H3.9c0,0,0,0,0-0.1V4.2c0,0,0-0.1,0-0.1h0.5c0,0,0,0,0,0.1L4.4,4.5C4.4,4.5,4.4,4.5,4.4,4.5
					L4.4,4.5z M3.9,4.1C3.9,4.1,3.9,4.2,3.9,4.1l0,0.3c0,0,0,0.1,0,0.1h0.5c0,0,0,0,0-0.1V4.2c0,0,0-0.1,0-0.1H3.9L3.9,4.1z"/>
			</g>
			<path clip-path="url(#SVGID_4_)" fill="#FFFFFF" d="M7.3,4.2h0.4c0,0,0,0,0,0.1v0.2c0,0,0,0.1,0,0.1H7.3c0,0,0,0,0-0.1L7.3,4.2
				C7.2,4.2,7.3,4.2,7.3,4.2L7.3,4.2z"/>
			<g clip-path="url(#SVGID_4_)">
				<path fill="#DC1F34" d="M7.7,4.5H7.3c0,0,0,0,0-0.1V4.2c0,0,0-0.1,0-0.1h0.4c0,0,0,0,0,0.1L7.7,4.5C7.8,4.5,7.7,4.5,7.7,4.5
					L7.7,4.5z M7.3,4.2C7.3,4.2,7.3,4.2,7.3,4.2l0,0.3c0,0,0,0.1,0,0.1h0.4c0,0,0,0,0-0.1V4.2c0,0,0-0.1,0-0.1H7.3L7.3,4.2z"/>
			</g>
		</g>
	</g>
</g>
<g>
	<path fill="#CCCCCC" d="M39.8,0.2v22.5H0.2V0.2H39.8 M40,0H0v23h40V0L40,0z"/>
</g>
</svg>
