<?xml version="1.0" encoding="utf-8"?>
<!-- Generator: Adobe Illustrator 17.1.0, SVG Export Plug-In . SVG Version: 6.00 Build 0)  -->
<!DOCTYPE svg PUBLIC "-//W3C//DTD SVG 1.1//EN" "http://www.w3.org/Graphics/SVG/1.1/DTD/svg11.dtd">
<svg version="1.1" id="Layer_1" xmlns="http://www.w3.org/2000/svg" xmlns:xlink="http://www.w3.org/1999/xlink" x="0px" y="0px"
	 viewBox="0 0 40 23" enable-background="new 0 0 40 23" xml:space="preserve">
<g>
	<g>
		<defs>
			<rect id="SVGID_43_" width="40" height="23"/>
		</defs>
		<clipPath id="SVGID_2_">
			<use xlink:href="#SVGID_43_"  overflow="visible"/>
		</clipPath>
		<rect clip-path="url(#SVGID_2_)" fill="#6CB2DD" width="40" height="23"/>
		<g clip-path="url(#SVGID_2_)">
			<defs>
				<rect id="SVGID_45_" width="40" height="23"/>
			</defs>
			<clipPath id="SVGID_4_">
				<use xlink:href="#SVGID_45_"  overflow="visible"/>
			</clipPath>
			<path clip-path="url(#SVGID_4_)" fill="#FFFFFF" d="M26.3,7.3v4.9c0.1,3,1.6,4.1,3.8,5c2.5-1.1,3.7-2.4,3.7-5V7.3H26.3z"/>
			<g clip-path="url(#SVGID_4_)">
				<path d="M30.1,17.2L30.1,17.2c-2.3-0.9-3.7-2.1-3.8-5V7.3h7.6v4.9C33.9,14.7,32.8,16.1,30.1,17.2L30.1,17.2L30.1,17.2z
					 M26.4,7.4v4.9c0.1,2.9,1.4,4,3.7,4.9c2.6-1.2,3.7-2.5,3.7-4.9V7.4H26.4L26.4,7.4z"/>
			</g>
			<path clip-path="url(#SVGID_4_)" fill="#C0003B" d="M26.3,12.1c0,0,0,0.6,0.2,1.4l7.2,0c0.2-0.7,0.2-1.4,0.2-1.4H26.3z"/>
			<path clip-path="url(#SVGID_4_)" fill="#C0003B" d="M29.3,9.7l0,7.2c0.4,0.2,0.8,0.4,0.8,0.4s0.3-0.2,0.6-0.4l0-7.2H29.3z"/>
			<rect x="0" y="0" clip-path="url(#SVGID_4_)" fill="#192967" width="20" height="9.9"/>
			<polygon clip-path="url(#SVGID_4_)" fill="#FFFFFF" points="0,0 0,1.1 17.8,9.9 20,9.9 20,8.8 2.2,0 			"/>
			<polygon clip-path="url(#SVGID_4_)" fill="#FFFFFF" points="20,0 20,1.1 2.2,9.9 0,9.9 0,8.8 17.8,0 			"/>
			<rect x="8.4" y="0" clip-path="url(#SVGID_4_)" fill="#FFFFFF" width="3.3" height="9.9"/>
			<rect x="0" y="3.3" clip-path="url(#SVGID_4_)" fill="#FFFFFF" width="20" height="3.3"/>
			<rect x="0" y="4" clip-path="url(#SVGID_4_)" fill="#BC0030" width="20" height="2"/>
			<rect x="9" y="0" clip-path="url(#SVGID_4_)" fill="#BC0030" width="2" height="9.9"/>
			<polygon clip-path="url(#SVGID_4_)" fill="#C0003B" points="0,9.9 6.7,6.6 8.2,6.6 1.5,9.9 			"/>
			<polygon clip-path="url(#SVGID_4_)" fill="#C0003B" points="0,0 6.7,3.3 5.2,3.3 0,0.7 			"/>
			<polygon clip-path="url(#SVGID_4_)" fill="#C0003B" points="11.9,3.3 18.5,0 20,0 13.4,3.3 			"/>
			<polygon clip-path="url(#SVGID_4_)" fill="#C0003B" points="20,9.9 13.4,6.6 14.9,6.6 20,9.1 			"/>
			<rect x="26.3" y="7.3" clip-path="url(#SVGID_4_)" fill="#C0003B" width="7.5" height="2.6"/>
			<path clip-path="url(#SVGID_4_)" fill="#F3EDEB" d="M26.7,8.5L26.7,8.5c0.1,0,0.2,0.1,0.2,0.3v0c0,0.2-0.1,0.3-0.2,0.3h0
				c-0.1,0-0.2-0.1-0.2-0.3v0C26.5,8.7,26.6,8.5,26.7,8.5L26.7,8.5z"/>
			<g clip-path="url(#SVGID_4_)">
				<path d="M26.7,9.2L26.7,9.2c-0.1,0-0.2-0.1-0.2-0.3c0-0.2,0.1-0.3,0.2-0.3c0.1,0,0.2,0.1,0.2,0.3C27,9,26.9,9.2,26.7,9.2
					L26.7,9.2z M26.7,8.5c-0.1,0-0.2,0.1-0.2,0.3c0,0.2,0.1,0.3,0.2,0.3h0C26.8,9.1,27,9,27,8.8C27,8.7,26.8,8.5,26.7,8.5L26.7,8.5z
					"/>
			</g>
			<path clip-path="url(#SVGID_4_)" fill="#F5D028" d="M32.2,8.4c0,0,0.4,0,0.6-0.2C33,8,32.7,7.8,32.9,7.8c0.1,0,0.2,0,0.2,0.1
				c0-0.1-0.1-0.1-0.1-0.1c-0.1,0-0.1,0-0.2,0c-0.1,0-0.1,0-0.2-0.1c0,0,0-0.2,0-0.2c-0.1,0.1-0.1,0.2-0.1,0.2
				c0,0.1,0.1,0.1,0.1,0.2c0,0-0.1-0.1-0.4-0.2c-0.3,0-1.1,0.2-1.4,0.2c-0.4,0-0.9-0.1-0.9-0.1s0.1-0.1,0-0.1c-0.2,0-0.5,0.1-0.6,0
				c-0.1-0.1,0-0.1-0.1-0.1c0,0,0,0.1,0,0.1c0,0.1,0.1,0,0.1,0c0,0-0.1,0-0.1,0c0,0,0,0.1,0,0.2c0-0.1-0.1-0.1,0.1-0.1
				c0.2,0,0.3,0.1,0.5,0.1c0.2,0,0.2-0.1,0.2-0.1c0,0,0.5,0.1,0.9,0.1c0.4,0,1.1-0.2,1.4-0.2c0.3,0,0.5,0.2,0.5,0.4
				c0,0.1-0.1,0.2-0.2,0.2c-0.1,0-0.4,0-0.4,0L32.2,8.4z"/>
			<g clip-path="url(#SVGID_4_)">
				<path d="M32.2,8.4L32.2,8.4L32,8.3c0,0,0.3,0,0.4-0.1c0.1,0,0.2-0.1,0.2-0.2c0-0.2-0.2-0.4-0.5-0.4c-0.2,0-0.5,0-0.8,0.1
					c-0.2,0-0.5,0.1-0.6,0.1c-0.4,0-0.9-0.1-0.9-0.1c0.1,0,0.5,0.1,0.9,0.1c0.2,0,0.4-0.1,0.6-0.1c0.3-0.1,0.6-0.1,0.8-0.1
					c0.3,0,0.5,0.2,0.5,0.4c0,0.1-0.2,0.2-0.3,0.2c-0.1,0-0.4,0-0.4,0L32.2,8.4c0,0,0.4,0,0.6-0.2c0.1-0.1,0-0.2,0-0.3
					c0-0.1,0-0.1,0-0.1c0,0,0,0,0,0c0.1,0,0.2,0,0.2,0.1c0,0,0-0.1-0.1-0.1c-0.1-0.1-0.1-0.1-0.2-0.1l-0.1,0v0c0,0-0.1,0-0.1-0.1
					c-0.1-0.1-0.1-0.2,0-0.3c-0.1,0.1-0.1,0.2-0.1,0.2c0,0,0,0.1,0,0.1c0,0,0,0,0,0.1c-0.1-0.1-0.2-0.1-0.4-0.1
					c-0.2,0-0.5,0-0.7,0.1c-0.3,0-0.5,0.1-0.7,0.1c-0.3,0-0.9-0.1-0.9-0.1c0,0,0.1,0,0-0.1c0,0,0,0-0.1,0c-0.1,0-0.2,0-0.3,0
					c-0.1,0-0.3,0.1-0.3,0c-0.1-0.1-0.1-0.1-0.1-0.1c0,0,0,0,0,0.1c0,0,0,0,0,0c-0.1,0-0.1,0-0.1,0c0,0,0,0.1,0,0.2c0,0,0-0.1,0-0.1
					c0,0,0,0,0,0c0,0,0,0.1,0,0.1c-0.1-0.1-0.1-0.1,0-0.2c0,0,0.1,0,0.1,0c0,0,0,0,0,0c0-0.1,0-0.1,0-0.1c0,0,0,0,0.1,0.1
					c0,0,0.2,0,0.3,0c0.1,0,0.2,0,0.3,0c0,0,0.1,0,0.1,0.1c0,0,0,0.1-0.1,0.1c0,0,0,0,0,0c0,0,0.5,0.1,0.9,0.1c0.2,0,0.4,0,0.7-0.1
					c0.3,0,0.5-0.1,0.7-0.1c0.3,0,0.4,0.1,0.4,0.1c0,0,0,0,0,0c0,0,0-0.1,0-0.1c0,0,0-0.1,0.1-0.2c0,0.1,0,0.2,0,0.2
					c0.1,0.1,0.1,0.1,0.1,0.1l0.1,0c0.1,0,0.1,0,0.2,0c0,0.1,0.1,0.1,0.1,0.1c-0.1-0.1-0.2-0.1-0.2-0.1c0,0-0.1,0-0.1,0
					c0,0,0,0.1,0,0.1c0,0.1,0.1,0.2,0,0.3C32.7,8.3,32.2,8.4,32.2,8.4L32.2,8.4L32.2,8.4z M29.8,7.8C29.8,7.8,29.8,7.8,29.8,7.8
					c-0.1,0-0.2,0-0.2,0c-0.1,0-0.2,0-0.3,0c-0.1,0-0.1,0-0.1,0c0,0,0,0,0.1,0c0.1,0,0.2,0,0.3,0C29.6,7.7,29.7,7.8,29.8,7.8
					C29.9,7.8,29.9,7.7,29.8,7.8c0.1-0.1,0.1-0.1,0.1-0.1C29.9,7.7,29.9,7.8,29.8,7.8L29.8,7.8z"/>
			</g>
			<path clip-path="url(#SVGID_4_)" fill="#F5D028" d="M31.7,8.5c0,0-0.3,0-0.4,0.2c-0.1,0.2-0.1,0.3-0.1,0.3c0,0,0.2-0.1,0.2-0.1
				S31.3,9,31.4,9.3c0.1,0.2-0.2,0.2-0.3,0.2c-0.1-0.1-0.3-0.2-0.4-0.2c0,0-0.1,0-0.2,0.1c-0.1,0.1,0.1-0.1,0.2-0.1c0,0,0,0,0,0.1
				c-0.1,0-0.2-0.1-0.3,0.1c0.1-0.1,0.1-0.1,0.2-0.1c0.1,0,0.1,0,0.1,0c0,0,0,0-0.1,0.1c0,0-0.1,0.1-0.1,0.1c0,0,0,0,0.1-0.1
				c0,0,0.1,0,0.2,0c0.5,0.2,0.8,0,0.8,0c0,0-0.3-0.8,0.5-1C32.1,8.6,31.7,8.5,31.7,8.5L31.7,8.5z"/>
			<g clip-path="url(#SVGID_4_)">
				<path d="M31.2,9.7L31.2,9.7c-0.1,0-0.3,0-0.5-0.1c-0.1,0-0.1,0-0.2,0c0,0,0,0-0.1,0.1c0,0,0,0,0,0c0,0,0.1,0,0.1-0.1
					c0,0,0.1,0,0.2,0c0.4,0.1,0.8,0,0.8,0c-0.1-0.5,0.1-0.9,0.5-1c0,0-0.1,0-0.1,0c-0.2-0.1-0.2-0.1-0.2-0.1c0,0-0.3,0-0.4,0.2
					c-0.1,0.1-0.1,0.3-0.1,0.3c0,0,0.1-0.1,0.2-0.1c0,0-0.1,0.3-0.1,0.5c0,0.1,0,0.1,0,0.1c-0.1,0.1-0.2,0.1-0.3,0.1c0,0,0,0,0,0
					c0.1,0,0.3,0,0.3-0.1c0,0,0-0.1,0-0.1c-0.1-0.2,0.1-0.5,0.1-0.5c-0.1,0.1-0.2,0.1-0.2,0.1c0,0,0-0.2,0.1-0.3
					c0.1-0.2,0.4-0.2,0.4-0.2c0,0,0.1,0,0.2,0.1c0.1,0,0.1,0,0.1,0c-0.5,0.1-0.7,0.4-0.5,0.9c0,0,0,0,0,0
					C31.5,9.6,31.4,9.7,31.2,9.7L31.2,9.7z M30.4,9.5c0.1-0.1,0.1-0.2,0.2-0.1c0,0,0,0,0.1,0c0,0,0,0,0-0.1c0,0,0,0,0,0.1
					c0,0,0,0-0.1,0C30.6,9.4,30.5,9.3,30.4,9.5c0.1-0.1,0.1-0.1,0.1-0.1c0,0,0.1,0,0.1,0c0,0,0,0,0,0l0,0
					C30.5,9.5,30.5,9.5,30.4,9.5L30.4,9.5z M30.4,9.4C30.4,9.4,30.4,9.4,30.4,9.4c0.1,0,0.1-0.1,0.2-0.1c0,0,0,0,0,0
					C30.5,9.3,30.5,9.4,30.4,9.4L30.4,9.4z M30.9,9.4c-0.1,0-0.2-0.1-0.2-0.1c0,0-0.1,0-0.2,0c0.1-0.1,0.1,0,0.2,0
					C30.7,9.3,30.8,9.3,30.9,9.4L30.9,9.4z"/>
			</g>
			<path clip-path="url(#SVGID_4_)" fill="#F5D028" d="M28.2,9.3c0.3,0.3,2.6-0.3,2.9-0.5c0.2-0.1,0.5-0.2,0.5,0.2
				c0.1-0.3,0.1-0.4,0.1-0.4c0,0,0.1,0.1,0.2,0.5c0-0.3,0-0.5,0-0.5c0,0,0,0.2,0.2,0.4C32,8.8,32,8.7,32,8.7s0.4,0.4,0.6,0.4
				c0.2,0.1,0.5-0.1,0.6,0c0.1,0.1,0.3,0.3,0.2,0.4c0,0.1-0.3,0-0.4,0.1c0,0.1,0,0.1,0,0.1s0,0.1,0.1,0.1c0,0,0-0.1,0-0.2
				c0,0,0,0.1,0.1,0.1c0-0.1,0-0.2,0-0.2c0,0,0.1,0.1,0.1,0.1V9.7c0.1,0,0.3-0.1,0.3-0.2c0-0.1-0.2-0.3-0.3-0.5
				c-0.1-0.1,0-0.2-0.1-0.3c-0.1-0.1-0.5,0.1-0.7,0c-0.2-0.1-0.1-0.6-0.8-0.8c-0.7-0.1-2.6,0.7-2.9,0.7c-0.3,0-0.7-0.1-0.7-0.1
				L28.2,9.3z"/>
			<g clip-path="url(#SVGID_4_)">
				<path d="M33.1,9.9L33.1,9.9L33.1,9.9C33.1,9.9,33.1,9.9,33.1,9.9c0-0.1,0-0.2,0-0.2c0,0,0.1,0.1,0.1,0.1c0-0.1,0-0.1,0-0.1
					c0,0,0,0,0,0c0,0,0,0,0.1,0.1c0,0,0,0,0,0.1l0-0.1l0.1,0c0.1,0,0.2,0,0.2-0.1c0-0.1-0.1-0.2-0.1-0.3c-0.1-0.1-0.1-0.2-0.1-0.2
					c0-0.1,0-0.1,0-0.2c0,0,0-0.1,0-0.1c0,0-0.2,0-0.3,0c-0.1,0-0.3,0.1-0.4,0c-0.1,0-0.1-0.1-0.1-0.2c-0.1-0.2-0.2-0.5-0.7-0.6
					c-0.5-0.1-1.5,0.2-2.2,0.5c-0.3,0.1-0.6,0.2-0.7,0.2c-0.3,0-0.7-0.1-0.7-0.1l0,0.6c0.1,0.1,0.2,0.1,0.4,0.1
					c0.8,0,2.3-0.4,2.5-0.6c0,0,0.2-0.1,0.3-0.1c0.1,0,0.2,0.1,0.2,0.3c0.1-0.3,0.1-0.3,0.1-0.4c0,0,0.1,0.1,0.2,0.5
					c0-0.2,0-0.3,0-0.4c0-0.1,0-0.1,0-0.1c0,0,0,0,0,0c0,0.1,0.1,0.2,0.2,0.4C32,8.8,32,8.7,32,8.7c0,0,0.4,0.4,0.6,0.4
					c0.1,0,0.2,0,0.3,0c0.1,0,0.2,0,0.3,0c0.1,0.1,0.3,0.3,0.2,0.4c0,0.1-0.1,0.1-0.2,0.1c-0.1,0-0.2,0-0.2,0c0,0,0,0.1,0,0.1
					c0,0,0,0,0-0.1c0-0.1,0.1-0.1,0.2-0.1c0.1,0,0.2,0,0.2-0.1c0-0.1-0.2-0.3-0.2-0.4c0,0-0.1,0-0.3,0c-0.1,0-0.2,0-0.3,0
					C32.4,9.1,32,8.8,32,8.7c0,0,0,0.1,0.1,0.3c-0.1-0.2-0.2-0.3-0.2-0.4c0,0,0,0,0,0c0,0,0,0,0,0.1c0,0.1,0,0.2,0,0.4
					c-0.1-0.3-0.2-0.4-0.2-0.5c0,0,0,0.1-0.1,0.4c0-0.3-0.2-0.4-0.5-0.2c-0.2,0.2-1.8,0.6-2.5,0.6c0,0,0,0,0,0c-0.2,0-0.3,0-0.4-0.1
					l0-0.6h0c0,0,0.4,0.1,0.7,0.1c0.1,0,0.4-0.1,0.7-0.2c0.7-0.2,1.7-0.6,2.2-0.5c0.5,0.1,0.6,0.4,0.7,0.6c0,0.1,0.1,0.2,0.1,0.2
					c0.1,0,0.2,0,0.4,0c0.1,0,0.3-0.1,0.3,0c0.1,0,0.1,0.1,0,0.1c0,0,0,0.1,0,0.1c0,0.1,0.1,0.1,0.1,0.2c0.1,0.1,0.1,0.2,0.1,0.3
					c0,0.1-0.1,0.1-0.2,0.1l-0.1,0l0,0.1c0,0,0,0,0-0.1c0-0.1-0.1-0.1-0.1,0c0,0,0,0,0,0.1c0-0.1,0-0.1-0.1-0.1
					C33.1,9.8,33.1,9.8,33.1,9.9C33.1,9.9,33.1,9.9,33.1,9.9L33.1,9.9L33.1,9.9z"/>
			</g>
			<path clip-path="url(#SVGID_4_)" fill="#F5D028" d="M27.8,9.1c0,0-0.4,0.4-0.6,0.4c-0.2,0-0.4-0.3-0.5-0.3c-0.1,0-0.1,0-0.1-0.1
				c0-0.1,0-0.1,0-0.1c0,0,0,0.1,0,0.1c0,0,0-0.2,0-0.2c0,0,0,0.1,0,0.2c0,0,0-0.2,0-0.2c0,0,0,0.2,0.1,0.2c0.1,0.1,0.2,0.1,0.3,0.2
				C27.3,9.4,27.7,9,27.8,9.1L27.8,9.1z"/>
			<g clip-path="url(#SVGID_4_)">
				<path d="M27.2,9.5L27.2,9.5c-0.2,0-0.3-0.1-0.4-0.2c0,0-0.1-0.1-0.1-0.1c0,0,0.1,0,0.1,0.1C26.9,9.4,27,9.5,27.2,9.5L27.2,9.5
					L27.2,9.5c0.2,0,0.6-0.4,0.6-0.4L27.7,9c0,0-0.1,0.1-0.1,0.1c-0.1,0.1-0.3,0.3-0.4,0.3c-0.2,0-0.3-0.1-0.3-0.2
					c0,0,0-0.1-0.1-0.1c0,0,0-0.1,0-0.1c0,0,0,0.1,0,0.1c0,0,0,0.1,0,0.1c0,0,0-0.1,0-0.1c0,0,0,0,0-0.1c0,0,0,0,0,0.1
					c0,0,0,0.1,0,0.1c0,0,0,0,0,0c0-0.1,0-0.1,0-0.1c0,0,0,0,0.1,0.1c0,0.1,0,0.1,0.1,0.1c0.1,0.1,0.2,0.1,0.3,0.2
					c0.1,0,0.3-0.2,0.4-0.3C27.6,9,27.7,9,27.7,9l0.1,0.1C27.8,9.1,27.4,9.5,27.2,9.5L27.2,9.5z"/>
			</g>
			<path clip-path="url(#SVGID_4_)" fill="#F5D028" d="M27.8,8.8c0,0-0.3-0.5-0.5-0.5c-0.2,0-0.5,0.2-0.5,0.1c0,0-0.1,0-0.1,0.1
				c0,0.1,0,0.1,0,0.1c0,0,0-0.1,0.1-0.1c0,0-0.1,0.1,0,0.1c0,0,0-0.1,0.1-0.1c0,0,0,0.2,0,0.2c0,0,0.1-0.1,0.1-0.2
				c0.1-0.1,0.2-0.1,0.3-0.1C27.4,8.5,27.7,8.9,27.8,8.8L27.8,8.8z"/>
			<g clip-path="url(#SVGID_4_)">
				<path d="M27.7,8.9c0,0-0.1,0-0.1-0.1c-0.1-0.1-0.3-0.3-0.4-0.3c-0.2,0-0.3,0-0.3,0.1c0,0-0.1,0.1-0.1,0.1c0,0,0,0.1-0.1,0.1
					c0,0,0-0.1,0-0.1c0,0.1,0,0.1-0.1,0.1c0,0,0,0,0,0c0,0,0,0,0-0.1c0,0,0-0.1,0-0.1c0,0.1,0,0.1,0,0.2c0,0,0,0,0.1-0.1
					c0,0,0-0.1,0.1-0.1c0.1-0.1,0.2-0.1,0.3-0.1c0.1,0,0.2,0.2,0.4,0.3C27.6,8.8,27.7,8.9,27.7,8.9L27.7,8.9
					c0.1-0.1-0.2-0.5-0.4-0.6c-0.2,0-0.3,0.1-0.4,0.1c0,0-0.1,0-0.1,0c-0.1,0-0.1,0-0.1,0.1c0,0.1,0,0.1,0,0.1c0,0,0,0,0-0.1
					c0,0,0-0.1,0-0.1c0,0,0,0.1,0,0.1c0,0,0-0.1,0-0.1c0,0.1,0,0.1,0,0.1c0,0,0-0.1,0-0.1c0-0.1,0-0.1,0.1-0.1c0.1,0,0.1,0,0.2,0
					c0.1-0.1,0.3-0.1,0.4-0.1C27.5,8.4,27.8,8.8,27.7,8.9L27.7,8.9L27.7,8.9z"/>
			</g>
			<path clip-path="url(#SVGID_4_)" fill="#F5D028" d="M27.6,8.7l-0.3,0.2l0.2,0.1l-0.2,0.2L27.6,9l0,0.3l0.1-0.2l0.1,0.3l0.1-0.2
				L28,9.4l0-0.2l0.1,0.2l0-0.3l0.2,0.2l0-0.3l0.2,0.1l-0.1-0.2c0,0,0.2,0,0.2,0c0,0-0.2-0.1-0.3-0.2L27.6,8.7z"/>
			<g clip-path="url(#SVGID_4_)">
				<path d="M28.2,9.4l-0.1-0.2l0,0.2l-0.1-0.2l-0.1,0.2l-0.1-0.3l-0.1,0.2l0-0.3l-0.2,0.1l0.2-0.2l-0.2-0.1l0.3-0.2l0.8,0
					c0.1,0,0.2,0.1,0.3,0.2l0,0c-0.1-0.1-0.2-0.1-0.3-0.2l-0.8,0l-0.3,0.2l0.2,0.1l-0.2,0.2L27.6,9l0,0.3l0.1-0.2l0.1,0.3l0.1-0.2
					L28,9.4l0-0.2L28.2,9.4l0-0.3l0.2,0.2l0-0.3l0.2,0.1l-0.1-0.2c0,0,0.2,0,0.2,0l0,0c0,0,0,0-0.2,0l0.1,0.2L28.4,9l0,0.3l-0.2-0.2
					L28.2,9.4L28.2,9.4z"/>
			</g>
			<path clip-path="url(#SVGID_4_)" fill="#F5D028" d="M27.8,8.6l-0.2,0.1l0.1,0l-0.1,0.1l0.1,0l0,0.2l0.1-0.1L27.9,9L28,8.9L28,9
				l0-0.1L28.1,9l0-0.2L28.3,9l0-0.2l0.1,0l-0.1-0.1c0,0,0.1,0,0.1,0c0,0-0.1-0.1-0.2-0.1L27.8,8.6z"/>
			<g clip-path="url(#SVGID_4_)">
				<path d="M28.1,9l-0.1-0.1L28,9L28,8.9l0,0.1l-0.1-0.1L27.8,9l0-0.2l-0.1,0.1l0.1-0.1l-0.1,0l0.2-0.1l0.4,0
					c0.1,0,0.1,0.1,0.2,0.1c0,0,0,0,0,0c-0.1,0-0.1-0.1-0.2-0.1l-0.4,0l-0.2,0.1l0.1,0l-0.1,0.1l0.1-0.1l0,0.2l0.1-0.1L27.9,9l0-0.1
					L28,9l0-0.1L28.1,9l0-0.2L28.3,9l0-0.2l0.1,0l-0.1-0.1c0,0,0.1,0,0.1,0c0,0,0,0-0.1,0l0.1,0.1l-0.1,0l0,0.2l-0.1-0.1L28.1,9
					L28.1,9z"/>
			</g>
			<path clip-path="url(#SVGID_4_)" fill="#F5D028" d="M27.9,8.1c0,0-0.1-0.1-0.1,0C27.7,8.2,27.8,8.2,27.9,8.1
				c0,0.1-0.1,0.2-0.1,0.3c0,0.1,0.1,0.3,0.1,0.3c0,0,0,0.1,0.1,0.1c0.1,0,0.1-0.1,0.1-0.1c0,0,0.1,0,0.2-0.1c0-0.1,0-0.3,0-0.3
				s0.1,0.1,0.1-0.1c0-0.1-0.1,0-0.1,0s0-0.1-0.2-0.2C27.9,8,27.9,8.2,27.9,8.1L27.9,8.1z"/>
			<g clip-path="url(#SVGID_4_)">
				<path d="M28,8.9L28,8.9c-0.1,0-0.1-0.1-0.1-0.1c0,0,0,0,0-0.1c0-0.1,0-0.2,0-0.2c0,0,0-0.1,0-0.1c0,0,0,0.1,0,0.1
					c0,0.1,0,0.2,0,0.2c0,0,0,0.1,0,0.1C27.8,8.7,27.9,8.8,28,8.9L28,8.9C28,8.8,28,8.8,28,8.9l0.1-0.1c0,0,0.1,0,0.1-0.1
					c0-0.1,0-0.3,0-0.3c0.1,0,0.1,0,0.1-0.1c0,0,0,0,0,0c0,0,0,0-0.1,0.1c0,0,0-0.1-0.2-0.2c-0.1,0-0.2,0-0.2,0c0,0,0,0,0,0
					c0,0,0.1-0.1,0.2,0c0.2,0.1,0.2,0.2,0.2,0.2c0,0,0.1-0.1,0.1,0c0,0.1,0,0.1,0,0.1c0,0,0,0.2-0.1,0.3c0,0.1-0.1,0.1-0.2,0.1
					L28,8.9C28,8.8,28,8.9,28,8.9L28,8.9z"/>
			</g>
			<path clip-path="url(#SVGID_4_)" fill="#F5D028" d="M27.9,8.1c0-0.1-0.1-0.4-0.1-0.4l0.2,0.1c-0.1,0-0.1,0-0.1,0
				c0,0,0.1,0.1,0.1,0.1C28,8,28,8,28.1,8c0,0,0.1-0.1,0.1-0.1c0,0,0,0,0,0l0.1-0.1l0,0.1l0,0L28.1,8c0.1,0,0.1,0,0.2,0.1
				c0.1,0,0.1-0.1,0.1-0.1c-0.1,0-0.1,0-0.1,0c0,0,0.2,0,0.2,0s-0.2,0.2-0.3,0.3C28.2,8.2,27.9,8.2,27.9,8.1L27.9,8.1z"/>
			<g clip-path="url(#SVGID_4_)">
				<path d="M28.3,8.3L28.3,8.3c0,0-0.1,0-0.2-0.1c-0.1-0.1-0.2-0.1-0.2-0.1c0-0.1-0.1-0.4-0.1-0.4l0.2,0.1l-0.1,0c0,0,0,0.1,0,0.1
					c0,0-0.1-0.1-0.1-0.1l0.1,0l-0.2-0.1c0,0,0.1,0.3,0.1,0.4c0,0,0.1,0.1,0.2,0.1C28.2,8.2,28.2,8.3,28.3,8.3
					C28.4,8.2,28.6,8,28.6,8c0,0-0.2,0-0.2,0c0,0,0,0,0.1,0c0,0.1-0.1,0.1-0.1,0.1c-0.1-0.1-0.1-0.1-0.2-0.1l0.1-0.3l0,0l0,0l0,0.1
					L28.1,8c0.1,0,0.1,0,0.2,0.1c0,0,0.1,0,0.1-0.1c0,0-0.1,0-0.1,0c0,0,0.2,0,0.2,0C28.6,8,28.4,8.2,28.3,8.3L28.3,8.3L28.3,8.3z
					 M28.1,8L28.1,8C28,8,28,8,27.9,8c0,0,0,0,0,0C28,8,28,8,28.1,8L28.1,8c0,0,0-0.1,0-0.1C28.2,7.9,28.1,8,28.1,8L28.1,8z"/>
			</g>
			<path clip-path="url(#SVGID_4_)" d="M28,8.3L28,8.3C28,8.4,28,8.4,28,8.3L28,8.3C28,8.4,27.9,8.3,28,8.3L28,8.3
				C27.9,8.3,27.9,8.3,28,8.3L28,8.3C27.9,8.3,27.9,8.3,28,8.3L28,8.3z"/>
			<path clip-path="url(#SVGID_4_)" d="M28.1,8.4L28.1,8.4C28.2,8.4,28.2,8.4,28.1,8.4L28.1,8.4C28.2,8.4,28.1,8.4,28.1,8.4
				L28.1,8.4C28.1,8.4,28,8.4,28.1,8.4L28.1,8.4C28.1,8.4,28.1,8.4,28.1,8.4L28.1,8.4z"/>
			<path clip-path="url(#SVGID_4_)" d="M28,8.6L28,8.6C28.1,8.7,28.1,8.7,28,8.6L28,8.6c0,0-0.1,0-0.1,0l0,0c-0.1,0-0.1,0-0.1,0h0
				C27.9,8.6,28,8.6,28,8.6L28,8.6z"/>
			<path clip-path="url(#SVGID_4_)" d="M28,8.5L28,8.5C28.1,8.5,28.1,8.5,28,8.5L28,8.5C28,8.5,28,8.5,28,8.5L28,8.5
				C27.9,8.5,27.9,8.5,28,8.5L28,8.5C28,8.5,28,8.5,28,8.5L28,8.5z"/>
			<path clip-path="url(#SVGID_4_)" d="M28,8.6L28,8.6C28,8.5,28,8.5,28,8.6L28,8.6C28,8.5,28,8.6,28,8.6L28,8.6
				C28,8.6,28,8.6,28,8.6L28,8.6C28,8.6,28,8.6,28,8.6L28,8.6z"/>
			<polygon clip-path="url(#SVGID_4_)" fill="#30770E" points="26.9,13.9 26.7,13.7 26.9,13.9 26.9,14 			"/>
			<g clip-path="url(#SVGID_4_)">
				<path d="M27,14l-0.1-0.1l-0.1-0.3l0.2,0.2L27,14L27,14z M26.7,13.7l0.2,0.3l0-0.1L26.7,13.7L26.7,13.7z"/>
			</g>
			<polygon clip-path="url(#SVGID_4_)" fill="#30770E" points="26.9,14 26.9,13.8 27,14 26.9,14 			"/>
			<g clip-path="url(#SVGID_4_)">
				<polygon points="26.9,14 26.9,14 26.9,13.8 27,14 26.9,14 				"/>
			</g>
			<polygon clip-path="url(#SVGID_4_)" fill="#30770E" points="26.9,14 26.6,13.9 26.8,14 27,14 			"/>
			<g clip-path="url(#SVGID_4_)">
				<path d="M27,14L27,14l-0.3-0.1l0.2,0.1L27,14L27,14L27,14z M26.6,13.9l0.3,0.1l0.1,0L26.8,14L26.6,13.9L26.6,13.9z"/>
			</g>
			<polygon clip-path="url(#SVGID_4_)" fill="#30770E" points="26.9,14.1 26.6,14 26.9,14 27,14 			"/>
			<g clip-path="url(#SVGID_4_)">
				<path d="M26.9,14.1L26.9,14.1L26.6,14L26.9,14.1L26.9,14.1L26.9,14.1z M26.6,14l0.4,0.1l0-0.1l-0.1,0L26.6,14L26.6,14z"/>
			</g>
			<polygon clip-path="url(#SVGID_4_)" fill="#30770E" points="27,14 27.2,13.9 27.1,14.1 26.9,14 			"/>
			<g clip-path="url(#SVGID_4_)">
				<polygon points="27.1,14.1 26.9,14 27,14 27.2,13.9 27.1,14.1 				"/>
			</g>
			<polygon clip-path="url(#SVGID_4_)" fill="#30770E" points="27.1,14 27.4,14.2 27.1,14.1 26.9,14 			"/>
			<g clip-path="url(#SVGID_4_)">
				<path d="M27.4,14.2l-0.2,0L26.9,14l0.2,0L27.4,14.2L27.4,14.2L27.4,14.2z M26.9,14l0.2,0.1l0.2,0l-0.3-0.1L26.9,14L26.9,14z"/>
			</g>
			<polygon clip-path="url(#SVGID_4_)" fill="#30770E" points="27.1,14.1 27.4,14.3 27.2,14.2 26.9,14 			"/>
			<g clip-path="url(#SVGID_4_)">
				<path d="M27.4,14.3l-0.3-0.1L26.9,14L27.4,14.3L27.4,14.3L27.4,14.3z M26.9,14l0.2,0.2l0.2,0.1L26.9,14L26.9,14z"/>
			</g>
			<polygon clip-path="url(#SVGID_4_)" fill="#30770E" points="27.1,14.2 27.3,14.4 27,14.1 26.9,14 			"/>
			<g clip-path="url(#SVGID_4_)">
				<path d="M27.3,14.4L26.9,14l0.2,0.2L27.3,14.4L27.3,14.4L27.3,14.4z M26.9,14l0.1,0.1l0.3,0.3l-0.2-0.2L26.9,14L26.9,14z"/>
			</g>
			<polygon clip-path="url(#SVGID_4_)" fill="#30770E" points="27.1,14.2 27.1,14.4 27,14.1 26.9,14 			"/>
			<g clip-path="url(#SVGID_4_)">
				<path d="M27.1,14.4L27,14.1l0-0.1l0.1,0.2L27.1,14.4L27.1,14.4L27.1,14.4z M26.9,14L26.9,14l0.1,0.3l0-0.2L26.9,14L26.9,14z"/>
			</g>
			<polygon clip-path="url(#SVGID_4_)" fill="#30770E" points="27,14.1 26.9,14.2 26.9,14 26.9,14 			"/>
			<g clip-path="url(#SVGID_4_)">
				<polygon points="26.9,14.2 26.9,14 26.9,14 27,14.1 26.9,14.2 				"/>
			</g>
			<polygon clip-path="url(#SVGID_4_)" fill="#30770E" points="26.8,13.9 26.7,13.8 26.9,13.9 26.9,14 			"/>
			<g clip-path="url(#SVGID_4_)">
				<polygon points="26.9,14 26.8,13.9 26.7,13.8 26.9,13.9 26.9,14 26.9,14 				"/>
			</g>
			<polygon clip-path="url(#SVGID_4_)" fill="#30770E" points="26.9,14 26.8,13.8 27,14 27,14.1 			"/>
			<g clip-path="url(#SVGID_4_)">
				<polygon points="27,14.1 26.9,14 26.8,13.8 27,14.1 27,14.1 				"/>
			</g>
			<polygon clip-path="url(#SVGID_4_)" fill="#30770E" points="26.9,14 26.7,13.9 26.9,14 27,14 			"/>
			<g clip-path="url(#SVGID_4_)">
				<polygon points="27,14 26.9,14 26.7,13.9 27,14 27,14 				"/>
			</g>
			<polygon clip-path="url(#SVGID_4_)" fill="#30770E" points="27,14 27.2,14.1 27.1,14.1 27,14 			"/>
			<g clip-path="url(#SVGID_4_)">
				<polygon points="27.2,14.1 27,14 27.2,14.1 27.2,14.1 27.2,14.1 27.2,14.1 				"/>
			</g>
			<polygon clip-path="url(#SVGID_4_)" fill="#30770E" points="27,14.1 26.9,14.1 27,14.1 27,14 			"/>
			<g clip-path="url(#SVGID_4_)">
				<polygon fill="none" points="27,14.1 26.9,14.1 27,14.1 27,14 				"/>
			</g>
			<polygon clip-path="url(#SVGID_4_)" fill="#30770E" points="27.1,14.1 27.3,14.3 27.1,14.2 27,14 			"/>
			<g clip-path="url(#SVGID_4_)">
				<path d="M27.3,14.3L27,14l0.1,0.1L27.3,14.3L27.3,14.3L27.3,14.3z M27,14l0.2,0.2l-0.1-0.1L27,14L27,14z"/>
			</g>
			<polygon clip-path="url(#SVGID_4_)" fill="#30770E" points="27.1,14.1 27.1,14 27.1,14.1 27,14 			"/>
			<g clip-path="url(#SVGID_4_)">
				<polygon fill="none" points="27.1,14.1 27.1,14 27.1,14.1 27,14 				"/>
			</g>
			<polygon clip-path="url(#SVGID_4_)" fill="#30770E" points="26.9,14 26.8,13.8 26.9,14 26.9,14 			"/>
			<g clip-path="url(#SVGID_4_)">
				<polygon points="26.9,14 26.9,14 26.8,13.8 27,14 26.9,14 				"/>
			</g>
			<path clip-path="url(#SVGID_4_)" fill="#FFFFFF" d="M27.6,14.4c0,0,0.3-0.6,1.6-0.5c-0.7,0.3-1.2,0.9-1.3,0.9
				C27.8,14.8,27.7,14.5,27.6,14.4L27.6,14.4z"/>
			<g clip-path="url(#SVGID_4_)">
				<path d="M27.9,14.8c-0.1,0-0.3-0.4-0.3-0.4c0.3-0.4,0.8-0.6,1.6-0.5c-0.5,0.2-0.9,0.6-1.1,0.8C28,14.7,28,14.8,27.9,14.8
					L27.9,14.8L27.9,14.8z M28.9,13.9c-0.6,0-1,0.2-1.3,0.5c0,0.2,0.2,0.4,0.3,0.4v0l0,0c0,0,0.1-0.1,0.2-0.2
					c0.2-0.2,0.6-0.6,1.1-0.8C29.1,13.9,29,13.9,28.9,13.9L28.9,13.9z"/>
			</g>
			<path clip-path="url(#SVGID_4_)" fill="#FFFFFF" d="M29.3,14.1c-0.2,0.1-0.3,0.1-0.4,0.1c0.1,0,0.2,0,0.3,0.1
				c-0.1,0-0.3,0.1-0.4,0.1c0.1,0,0.3,0,0.3,0c-0.1,0-0.3,0.1-0.4,0.1c-0.1,0.1,0.3,0,0.4,0.1c-0.1,0-0.4,0.1-0.5,0.1
				c0.1,0.1,0.3,0,0.5,0.1c0,0-0.4,0.1-0.5,0c0.1,0.1,0.3,0,0.4,0.1c-0.1,0-0.4,0.1-0.4,0c0.1,0.1,0.3,0,0.4,0.1
				c-0.2,0.1-0.4,0-0.5,0c0.1,0,0.1,0.1,0.2,0.1c0.1,0.1,0.4,0.3,0.6,0.4c-0.2,0-0.3,0-0.4-0.1l0.3,0.4c-0.1-0.1-0.3-0.2-0.5-0.3
				c-0.3-0.2-0.5-0.2-0.8-0.3c-0.3-0.4-0.5-0.9-0.5-1c0-0.1,0-0.3-0.3-0.2c0.3,0,0.1-0.3,0.4-0.3c0.2,0,0.1,0.2,0.2,0.3
				c0,0.1,0.3,0.3,0.4,0.4C28.4,13.9,28.8,13.9,29.3,14.1L29.3,14.1z"/>
			<g clip-path="url(#SVGID_4_)">
				<path d="M28.9,15.9l-0.1-0.1c-0.1-0.1-0.3-0.2-0.4-0.3c-0.2-0.1-0.3-0.1-0.4-0.2c-0.1,0-0.2-0.1-0.3-0.2c-0.3-0.4-0.5-0.9-0.5-1
					c0-0.1,0-0.3-0.2-0.2c0,0,0,0,0,0c0,0,0,0,0,0c0,0,0.1-0.1,0.1-0.2c0-0.1,0-0.2,0.2-0.2c0.1,0,0.2,0.1,0.2,0.2c0,0,0,0.1,0,0.1
					c0,0.1,0.3,0.3,0.4,0.4c0.5-0.4,0.9-0.5,1.5-0.2c-0.2,0.1-0.3,0.1-0.4,0.2c0,0,0.1,0,0.1,0c0.1,0,0.1,0,0.2,0
					c-0.1,0-0.1,0.1-0.2,0.1c-0.1,0-0.1,0-0.2,0.1c0,0,0.1,0,0.1,0c0,0,0.1,0,0.1,0c0,0,0.1,0,0.1,0c0,0,0,0,0,0c0,0,0,0,0,0
					c0,0,0,0,0,0c0,0-0.1,0-0.1,0.1c-0.1,0-0.2,0.1-0.2,0.1l0,0c0.1,0,0.1,0,0.2-0.1c0,0,0.1,0,0.1,0c0,0,0,0,0,0
					c-0.1,0-0.2,0-0.2,0c0,0,0.1,0,0.2-0.1c0.1,0,0.2-0.1,0.2-0.1c-0.1,0-0.1,0-0.2,0c0,0-0.1,0-0.1,0c0.1,0,0.2-0.1,0.4-0.2
					c-0.5-0.2-0.9-0.1-1.4,0.3c-0.1,0-0.4-0.3-0.4-0.4c0,0,0-0.1,0-0.1c0-0.1,0-0.2-0.2-0.2c-0.1,0-0.2,0.1-0.2,0.1
					c0,0,0,0.1-0.1,0.1c0.2,0,0.2,0.1,0.2,0.3c0,0.1,0.2,0.6,0.5,1c0.1,0.1,0.2,0.1,0.3,0.2c0.1,0,0.3,0.1,0.4,0.2
					C28.6,15.6,28.7,15.8,28.9,15.9L28.9,15.9l-0.3-0.4l0.1,0c0.1,0,0.2,0,0.3,0c-0.2-0.1-0.5-0.3-0.6-0.4l-0.1-0.1
					c0,0-0.1-0.1-0.1-0.1c0,0,0.1,0,0.2,0c0.1,0,0.3,0,0.3,0c0,0-0.1,0-0.1,0c-0.1,0-0.2,0-0.2-0.1c0,0,0,0,0.1,0c0.1,0,0.1,0,0.2,0
					c0.1,0,0.1,0,0.2,0c0,0-0.1,0-0.1,0c-0.1,0-0.2,0-0.2,0c0,0,0.1,0,0.1,0h0c0.2,0,0.4,0,0.4,0c-0.1,0-0.1,0-0.2,0l-0.1,0
					c-0.1,0-0.1,0-0.2,0l0.1,0c0.1,0,0.2,0,0.2,0c0.1,0,0.2,0,0.2,0c0,0-0.1,0-0.2,0l-0.1,0l0,0l0.2,0c0.1,0,0.2,0,0.2,0.1
					c-0.1,0-0.2,0-0.2,0c-0.1,0-0.2,0-0.3,0c0,0,0.1,0,0.2,0l0.1,0c0.1,0,0.1,0,0.2,0c-0.1,0-0.4,0.1-0.6,0.1c0,0,0.1,0,0.2,0
					c0.1,0,0.1,0,0.2,0c-0.1,0-0.1,0-0.2,0c-0.1,0-0.2,0-0.2,0c0.1,0,0.1,0,0.2,0c0.1,0,0.1,0,0.1,0c-0.1,0.1-0.2,0.1-0.4,0
					c-0.1,0-0.1,0-0.2,0c0,0,0.1,0,0.1,0.1l0.1,0.1c0.1,0.1,0.4,0.3,0.6,0.4c-0.2,0-0.2,0-0.3,0l-0.1,0L28.9,15.9L28.9,15.9
					L28.9,15.9z"/>
			</g>
			<path clip-path="url(#SVGID_4_)" fill="#28620A" d="M31,16.3c0-0.1,0-0.1,0-0.2c0-0.1,0.1-0.1,0.1-0.2c0.1,0,0.1,0,0.2-0.1
				c0-0.1,0.1-0.1,0.1-0.2c0.1-0.1,0.1-0.2,0.2-0.3c0.1-0.1,0.1-0.2,0.2-0.3c0-0.1,0.1-0.2,0.2-0.2c0-0.1,0.1-0.2,0.2-0.2
				c0.1-0.1,0.2-0.2,0.2-0.3c0.1-0.1,0.1-0.1,0.2-0.3c0.1,0,0.2-0.1,0.3-0.2c0.1-0.1,0.2-0.1,0.3,0c0.1,0.1,0.1,0.1,0.1,0.2
				c0,0-0.1,0-0.2,0c-0.1,0-0.1-0.2-0.2-0.1c-0.1,0.1-0.1,0.1-0.2,0.2c0,0.1-0.1,0.1-0.1,0.2c-0.1,0.1-0.1,0.1-0.1,0.3
				c-0.1,0.1-0.1,0.2-0.1,0.2c-0.1,0.1-0.1,0.1-0.1,0.2c-0.1,0.1-0.1,0.2-0.2,0.2c0,0.1-0.1,0.2-0.2,0.3c0,0.1-0.1,0.1-0.1,0.2
				c-0.1,0.1-0.1,0.1-0.2,0.2c-0.1,0.1-0.1,0.1-0.2,0.3C31.1,16.4,31.1,16.4,31,16.3L31,16.3z"/>
			<g clip-path="url(#SVGID_4_)">
				<path d="M31.1,16.4c-0.1,0-0.1,0-0.2-0.1c0-0.1,0-0.1,0-0.2l0,0c0,0,0.1-0.1,0.1-0.1c0,0,0,0,0.1,0c0,0,0.1,0,0.2-0.1
					c0,0,0-0.1,0.1-0.1c0,0,0-0.1,0.1-0.1c0-0.1,0.1-0.1,0.1-0.1c0,0,0-0.1,0.1-0.1c0.1-0.1,0.1-0.2,0.2-0.3c0-0.1,0.1-0.1,0.2-0.2
					c0-0.1,0.1-0.2,0.2-0.2c0-0.1,0.1-0.1,0.1-0.2c0-0.1,0.1-0.1,0.1-0.1c0.1-0.1,0.1-0.1,0.2-0.3l0.1,0c0.1,0,0.1-0.1,0.2-0.1
					l0.1,0c0.1,0,0.1-0.1,0.2,0c0.1,0.1,0.1,0.2,0.1,0.2c0,0-0.1,0-0.2,0c0,0,0,0-0.1-0.1c0,0-0.1-0.1-0.1,0l-0.1,0.1
					c0,0-0.1,0.1-0.1,0.2c0,0.1-0.1,0.1-0.1,0.2c-0.1,0.1-0.1,0.1-0.1,0.3c-0.1,0.1-0.1,0.1-0.1,0.2c-0.1,0.1-0.1,0.1-0.1,0.2
					c0,0-0.1,0.1-0.1,0.1c0,0-0.1,0.1-0.1,0.1c-0.1,0.1-0.1,0.2-0.2,0.3c0,0.1-0.1,0.1-0.1,0.2c0,0-0.1,0.1-0.1,0.1
					c0,0-0.1,0.1-0.1,0.1l-0.1,0.1C31.3,16.2,31.3,16.2,31.1,16.4C31.2,16.4,31.2,16.4,31.1,16.4L31.1,16.4z M32.9,13.8
					c0,0-0.1,0-0.1,0l-0.1,0c-0.1,0-0.1,0.1-0.2,0.1l-0.1,0c-0.1,0.1-0.1,0.1-0.2,0.3c0,0-0.1,0.1-0.1,0.1c0,0.1-0.1,0.1-0.1,0.2
					c-0.1,0.1-0.1,0.1-0.2,0.2c-0.1,0.1-0.1,0.1-0.2,0.2c0,0.1-0.1,0.2-0.2,0.3c0,0,0,0.1-0.1,0.1c0,0,0,0.1-0.1,0.1
					c0,0,0,0.1-0.1,0.1c0,0,0,0.1-0.1,0.1c-0.1,0.1-0.1,0.1-0.2,0.1c0,0,0,0-0.1,0C31.1,16,31,16,31,16l0,0c0,0.1,0,0.1,0,0.2
					c0.1,0.1,0.2,0.1,0.2,0.1c0.1-0.1,0.1-0.1,0.1-0.2l0.1-0.1c0.1-0.1,0.1-0.1,0.1-0.1c0,0,0-0.1,0.1-0.1c0-0.1,0.1-0.2,0.1-0.2
					c0,0,0.1-0.1,0.2-0.3c0,0,0.1-0.1,0.1-0.1c0,0,0.1-0.1,0.1-0.1c0-0.1,0.1-0.2,0.1-0.2c0-0.1,0.1-0.2,0.1-0.2
					c0-0.1,0.1-0.2,0.1-0.3c0-0.1,0.1-0.2,0.1-0.2c0.1-0.1,0.1-0.1,0.1-0.2l0.1-0.1c0.1-0.1,0.1,0,0.1,0c0,0,0,0,0,0.1
					c0.1,0,0.1,0,0.1,0C33.2,14,33.1,13.9,32.9,13.8C33,13.8,33,13.8,32.9,13.8L32.9,13.8z"/>
			</g>
			<path clip-path="url(#SVGID_4_)" fill="#F5D028" d="M32.1,15.3L32.1,15.3c0,0,0,0.2-0.2,0.3l0,0c-0.1,0.1-0.3,0.2-0.3,0.2l0,0
				c0,0,0-0.2,0.2-0.3l0,0C31.9,15.3,32,15.3,32.1,15.3L32.1,15.3z"/>
			<g clip-path="url(#SVGID_4_)">
				<path d="M31.6,15.8L31.6,15.8C31.6,15.8,31.6,15.8,31.6,15.8C31.6,15.8,31.6,15.8,31.6,15.8L31.6,15.8c0.1,0,0.2-0.1,0.3-0.2
					c0.1-0.1,0.2-0.2,0.2-0.3c0,0.1-0.1,0.2-0.2,0.3C31.8,15.7,31.7,15.8,31.6,15.8L31.6,15.8z M31.6,15.7c0-0.1,0.1-0.2,0.2-0.3
					c0.1-0.1,0.2-0.2,0.3-0.2c0,0,0,0,0,0c-0.1,0-0.2,0.1-0.3,0.2C31.7,15.6,31.6,15.7,31.6,15.7L31.6,15.7z"/>
			</g>
			<path clip-path="url(#SVGID_4_)" fill="#F5D028" d="M31.3,14.8L31.3,14.8c0,0,0,0.2-0.1,0.4l0,0c-0.1,0.2-0.2,0.3-0.2,0.3l0,0
				c0,0,0-0.2,0.1-0.4l0,0C31.2,14.9,31.3,14.8,31.3,14.8L31.3,14.8z"/>
			<g clip-path="url(#SVGID_4_)">
				<path d="M31.1,15.4L31.1,15.4c-0.1,0,0-0.2,0-0.4c0.1-0.2,0.2-0.3,0.2-0.3c0.1,0,0,0.2,0,0.4C31.2,15.3,31.1,15.4,31.1,15.4
					L31.1,15.4z M31.3,14.8c0,0-0.1,0.1-0.2,0.3c-0.1,0.2-0.1,0.3-0.1,0.4l0,0c0,0,0.1-0.1,0.2-0.3C31.4,15,31.4,14.8,31.3,14.8
					C31.3,14.8,31.3,14.8,31.3,14.8L31.3,14.8z"/>
			</g>
			<path clip-path="url(#SVGID_4_)" fill="#F5D028" d="M31.5,14.9L31.5,14.9c0,0,0,0.2-0.1,0.4l0,0c-0.1,0.2-0.2,0.3-0.2,0.3l0,0
				c0,0,0-0.2,0.1-0.4l0,0C31.3,15,31.4,14.9,31.5,14.9L31.5,14.9z"/>
			<g clip-path="url(#SVGID_4_)">
				<path d="M31.2,15.5L31.2,15.5c-0.1,0,0-0.2,0-0.4c0.1-0.2,0.2-0.3,0.2-0.3c0,0,0,0.1,0,0.1c0,0.1,0,0.2-0.1,0.2
					C31.3,15.4,31.2,15.5,31.2,15.5L31.2,15.5z M31.5,14.9c0,0-0.1,0.1-0.2,0.3c-0.1,0.2-0.1,0.3-0.1,0.4l0,0c0,0,0.1-0.1,0.2-0.3
					c0-0.1,0.1-0.2,0.1-0.2C31.5,14.9,31.5,14.9,31.5,14.9C31.5,14.9,31.5,14.9,31.5,14.9L31.5,14.9z"/>
			</g>
			<path clip-path="url(#SVGID_4_)" fill="#F5D028" d="M31.7,15.1L31.7,15.1c0,0,0,0.2-0.1,0.3l0,0c-0.1,0.2-0.2,0.3-0.3,0.2l0,0
				c0,0,0-0.2,0.1-0.3l0,0C31.6,15.1,31.7,15,31.7,15.1L31.7,15.1z"/>
			<g clip-path="url(#SVGID_4_)">
				<path d="M31.3,15.6L31.3,15.6C31.3,15.6,31.3,15.6,31.3,15.6C31.3,15.6,31.3,15.6,31.3,15.6L31.3,15.6c0,0,0.2-0.1,0.3-0.2
					c0.1-0.1,0.1-0.2,0.1-0.3c0,0.1-0.1,0.2-0.1,0.3C31.5,15.5,31.4,15.6,31.3,15.6L31.3,15.6z M31.3,15.6c0-0.1,0.1-0.2,0.1-0.3
					c0.1-0.1,0.2-0.2,0.3-0.2c0,0,0,0,0,0c0,0,0,0,0,0c-0.1,0-0.2,0.1-0.3,0.2C31.4,15.4,31.3,15.5,31.3,15.6L31.3,15.6z"/>
			</g>
			<path clip-path="url(#SVGID_4_)" fill="#F5D028" d="M32.3,15.4L32.3,15.4c0,0-0.1,0.2-0.2,0.3l0,0c-0.1,0.1-0.3,0.2-0.3,0.2l0,0
				c0,0,0.1-0.2,0.2-0.3l0,0C32.1,15.5,32.3,15.4,32.3,15.4L32.3,15.4z"/>
			<g clip-path="url(#SVGID_4_)">
				<path d="M31.8,15.9L31.8,15.9c-0.1-0.1,0-0.2,0.2-0.3c0.1-0.1,0.2-0.2,0.3-0.2c0,0,0,0,0,0c-0.1,0-0.2,0.1-0.3,0.2
					C31.8,15.7,31.7,15.8,31.8,15.9L31.8,15.9c0.1,0,0.2-0.1,0.3-0.2c0.1-0.1,0.2-0.2,0.2-0.2c0,0.1-0.1,0.2-0.2,0.2
					C32,15.8,31.8,15.9,31.8,15.9L31.8,15.9z"/>
			</g>
			<path clip-path="url(#SVGID_4_)" fill="#F5D028" d="M32.2,15.4L32.2,15.4c0,0,0,0.2-0.2,0.3l0,0c-0.1,0.1-0.3,0.2-0.3,0.2l0,0
				c0,0,0.1-0.2,0.2-0.3l0,0C32,15.4,32.2,15.3,32.2,15.4L32.2,15.4z"/>
			<g clip-path="url(#SVGID_4_)">
				<path d="M31.7,15.9L31.7,15.9C31.7,15.9,31.7,15.8,31.7,15.9C31.7,15.8,31.7,15.8,31.7,15.9L31.7,15.9c0.1,0,0.2-0.1,0.3-0.2
					c0.1-0.1,0.2-0.2,0.2-0.3c-0.1,0-0.2,0.1-0.3,0.2C31.8,15.7,31.7,15.8,31.7,15.9c0-0.1,0.1-0.2,0.2-0.3c0.1-0.1,0.2-0.2,0.3-0.2
					l0,0c0,0.1-0.1,0.2-0.2,0.3C31.9,15.8,31.8,15.9,31.7,15.9L31.7,15.9z"/>
			</g>
			<path clip-path="url(#SVGID_4_)" fill="#F5D028" d="M31.9,15.2L31.9,15.2c0,0,0,0.2-0.1,0.3l0,0c-0.1,0.2-0.2,0.3-0.3,0.2l0,0
				c0,0,0-0.2,0.1-0.3l0,0C31.7,15.3,31.9,15.2,31.9,15.2L31.9,15.2z"/>
			<g clip-path="url(#SVGID_4_)">
				<path d="M31.5,15.8L31.5,15.8c-0.1,0,0-0.2,0.1-0.3c0.1-0.1,0.2-0.2,0.3-0.2c0,0,0,0,0,0c-0.1,0-0.2,0.1-0.3,0.2
					C31.5,15.6,31.5,15.8,31.5,15.8L31.5,15.8c0,0,0.2-0.1,0.3-0.2c0.1-0.1,0.1-0.2,0.1-0.2c0,0.1-0.1,0.2-0.1,0.2
					C31.7,15.7,31.6,15.8,31.5,15.8L31.5,15.8z"/>
			</g>
			<path clip-path="url(#SVGID_4_)" fill="#F5D028" d="M31.8,15.1L31.8,15.1c0,0,0,0.2-0.1,0.3l0,0c-0.1,0.2-0.2,0.3-0.3,0.2l0,0
				c0,0,0-0.2,0.1-0.3l0,0C31.7,15.2,31.8,15.1,31.8,15.1L31.8,15.1z"/>
			<g clip-path="url(#SVGID_4_)">
				<path d="M31.4,15.7L31.4,15.7C31.4,15.7,31.4,15.7,31.4,15.7C31.4,15.7,31.4,15.7,31.4,15.7L31.4,15.7c0,0,0.2-0.1,0.3-0.2
					c0.1-0.1,0.1-0.2,0.1-0.2c0,0.1-0.1,0.2-0.1,0.2C31.6,15.6,31.5,15.7,31.4,15.7L31.4,15.7z M31.4,15.7c0-0.1,0.1-0.2,0.1-0.3
					c0.1-0.1,0.2-0.2,0.3-0.2c0,0,0,0,0,0c-0.1,0-0.2,0.1-0.3,0.2C31.5,15.5,31.4,15.6,31.4,15.7L31.4,15.7z"/>
			</g>
			<path clip-path="url(#SVGID_4_)" fill="#F5D028" d="M32,13.9L32,13.9c0,0,0,0.2-0.1,0.3l0,0c-0.1,0.2-0.2,0.3-0.3,0.2l0,0
				c0,0,0-0.2,0.1-0.3l0,0C31.8,14,31.9,13.9,32,13.9L32,13.9z"/>
			<g clip-path="url(#SVGID_4_)">
				<path d="M31.6,14.5L31.6,14.5C31.6,14.5,31.6,14.5,31.6,14.5L31.6,14.5L31.6,14.5c0,0,0.2-0.1,0.3-0.2c0.1-0.1,0.2-0.3,0.1-0.3
					c0,0.1-0.1,0.2-0.1,0.3C31.8,14.4,31.6,14.5,31.6,14.5L31.6,14.5z M31.6,14.4c0-0.1,0.1-0.2,0.1-0.3c0.1-0.1,0.2-0.2,0.3-0.2
					c0,0,0,0,0,0c0,0,0,0,0,0c-0.1,0-0.2,0.1-0.3,0.2C31.6,14.3,31.6,14.4,31.6,14.4L31.6,14.4z"/>
			</g>
			<path clip-path="url(#SVGID_4_)" fill="#F5D028" d="M32.1,14L32.1,14c0,0,0,0.2-0.1,0.3l0,0c-0.1,0.2-0.2,0.3-0.3,0.2l0,0
				c0,0,0-0.2,0.1-0.3l0,0C31.9,14.1,32.1,14,32.1,14L32.1,14z"/>
			<g clip-path="url(#SVGID_4_)">
				<path d="M31.7,14.6L31.7,14.6c-0.1,0,0-0.2,0.1-0.3c0.1-0.1,0.2-0.2,0.3-0.2c0,0,0,0,0,0c-0.1,0-0.2,0.1-0.3,0.2
					C31.7,14.4,31.7,14.5,31.7,14.6L31.7,14.6c0,0,0.2-0.1,0.3-0.2c0.1-0.1,0.1-0.2,0.1-0.2c0,0.1-0.1,0.2-0.1,0.2
					C31.9,14.5,31.8,14.6,31.7,14.6L31.7,14.6z"/>
			</g>
			<path clip-path="url(#SVGID_4_)" fill="#F5D028" d="M32.2,14.1L32.2,14.1c0,0,0,0.2-0.1,0.3l0,0c-0.1,0.2-0.2,0.3-0.3,0.2l0,0
				c0,0,0-0.2,0.1-0.3l0,0C32,14.1,32.2,14,32.2,14.1L32.2,14.1z"/>
			<g clip-path="url(#SVGID_4_)">
				<path d="M31.8,14.6L31.8,14.6c-0.1,0,0-0.2,0.1-0.3c0.1-0.1,0.2-0.2,0.3-0.2c0,0,0,0,0,0c-0.1,0-0.2,0.1-0.3,0.2
					C31.8,14.5,31.8,14.6,31.8,14.6L31.8,14.6c0,0,0.2-0.1,0.3-0.2c0.1-0.1,0.1-0.2,0.1-0.2c0,0.1-0.1,0.2-0.1,0.2
					C32,14.5,31.9,14.6,31.8,14.6L31.8,14.6z"/>
			</g>
			<path clip-path="url(#SVGID_4_)" fill="#F5D028" d="M32.3,14.2L32.3,14.2c0,0,0,0.2-0.1,0.3l0,0c-0.1,0.2-0.2,0.3-0.3,0.2l0,0
				c0,0,0-0.2,0.1-0.3l0,0C32.2,14.2,32.3,14.1,32.3,14.2L32.3,14.2z"/>
			<g clip-path="url(#SVGID_4_)">
				<path d="M31.9,14.7L31.9,14.7c-0.1,0,0-0.2,0.1-0.3c0.1-0.1,0.2-0.2,0.3-0.2c0,0,0,0,0,0c-0.1,0-0.2,0.1-0.3,0.2
					C31.9,14.6,31.9,14.7,31.9,14.7L31.9,14.7c0,0,0.2-0.1,0.3-0.2c0.1-0.1,0.1-0.2,0.1-0.2c0,0.1-0.1,0.2-0.1,0.2
					C32.1,14.6,32,14.7,31.9,14.7L31.9,14.7z"/>
			</g>
			<path clip-path="url(#SVGID_4_)" fill="#F5D028" d="M32.4,14.2L32.4,14.2c0,0,0,0.2-0.1,0.3l0,0c-0.1,0.2-0.2,0.3-0.3,0.2l0,0
				c0,0,0-0.2,0.1-0.3l0,0C32.3,14.3,32.4,14.2,32.4,14.2L32.4,14.2z"/>
			<g clip-path="url(#SVGID_4_)">
				<path d="M32,14.8L32,14.8c-0.1,0,0-0.2,0.1-0.3c0.1-0.1,0.2-0.2,0.3-0.2c0,0,0,0,0,0c0,0,0,0,0,0c-0.1,0-0.2,0.1-0.3,0.2
					C32,14.6,32,14.8,32,14.8L32,14.8c0,0,0.2-0.1,0.3-0.2c0.1-0.1,0.2-0.3,0.1-0.3c0,0.1-0.1,0.2-0.1,0.3
					C32.2,14.7,32.1,14.8,32,14.8L32,14.8z"/>
			</g>
			<path clip-path="url(#SVGID_4_)" fill="#F5D028" d="M33,14.6L33,14.6c0,0,0,0.2-0.1,0.3l0,0c-0.1,0.2-0.2,0.3-0.3,0.2l0,0
				c0,0,0-0.2,0.1-0.3l0,0C32.9,14.6,33,14.5,33,14.6L33,14.6z"/>
			<g clip-path="url(#SVGID_4_)">
				<path d="M32.6,15.1L32.6,15.1c-0.1,0,0-0.2,0.1-0.3c0.1-0.1,0.2-0.2,0.3-0.2c0,0,0,0,0,0c0,0,0,0,0,0c-0.1,0-0.2,0.1-0.3,0.2
					C32.6,15,32.6,15.1,32.6,15.1L32.6,15.1c0,0,0.2-0.1,0.3-0.2c0.1-0.1,0.2-0.3,0.1-0.3c0,0.1-0.1,0.2-0.1,0.3
					C32.8,15,32.7,15.1,32.6,15.1L32.6,15.1z"/>
			</g>
			<path clip-path="url(#SVGID_4_)" fill="#F5D028" d="M32.9,14.5L32.9,14.5c0,0,0,0.2-0.1,0.3l0,0c-0.1,0.2-0.2,0.3-0.3,0.2l0,0
				c0,0,0-0.2,0.1-0.3l0,0C32.8,14.6,32.9,14.5,32.9,14.5L32.9,14.5z"/>
			<g clip-path="url(#SVGID_4_)">
				<path d="M32.5,15.1L32.5,15.1c-0.1,0,0-0.2,0.1-0.3c0.1-0.1,0.2-0.2,0.3-0.2c0,0,0,0,0,0c-0.1,0-0.2,0.1-0.3,0.2
					C32.5,14.9,32.5,15.1,32.5,15.1L32.5,15.1c0,0,0.2-0.1,0.3-0.2c0.1-0.1,0.1-0.2,0.1-0.2c0,0.1-0.1,0.2-0.1,0.2
					C32.7,15,32.6,15.1,32.5,15.1L32.5,15.1z"/>
			</g>
			<path clip-path="url(#SVGID_4_)" fill="#F5D028" d="M32.8,14.5L32.8,14.5c0,0,0,0.2-0.1,0.3l0,0c-0.1,0.2-0.2,0.3-0.3,0.2l0,0
				c0,0,0-0.2,0.1-0.3l0,0C32.7,14.6,32.8,14.5,32.8,14.5L32.8,14.5z"/>
			<g clip-path="url(#SVGID_4_)">
				<path d="M32.4,15.1L32.4,15.1c-0.1,0,0-0.2,0.1-0.3c0.1-0.1,0.2-0.2,0.3-0.2c0,0,0,0,0,0c-0.1,0-0.2,0.1-0.3,0.2
					C32.4,14.9,32.4,15,32.4,15.1L32.4,15.1c0,0,0.2-0.1,0.3-0.2c0.1-0.1,0.1-0.2,0.1-0.2c0,0.1-0.1,0.2-0.1,0.2
					C32.6,15,32.5,15.1,32.4,15.1L32.4,15.1z"/>
			</g>
			<path clip-path="url(#SVGID_4_)" fill="#F5D028" d="M32.7,14.4L32.7,14.4c0,0,0,0.2-0.1,0.3l0,0c-0.1,0.2-0.2,0.3-0.3,0.2l0,0
				c0,0,0-0.2,0.1-0.3l0,0C32.6,14.5,32.7,14.4,32.7,14.4L32.7,14.4z"/>
			<g clip-path="url(#SVGID_4_)">
				<path d="M32.3,15L32.3,15c-0.1,0,0-0.2,0.1-0.3c0.1-0.1,0.2-0.2,0.3-0.2c0,0,0,0,0,0c0,0,0,0,0,0c-0.1,0-0.2,0.1-0.3,0.2
					C32.3,14.8,32.3,15,32.3,15L32.3,15c0,0,0.2-0.1,0.3-0.2c0.1-0.1,0.1-0.2,0.1-0.3c0,0.1-0.1,0.2-0.1,0.3
					C32.5,14.9,32.4,15,32.3,15L32.3,15z"/>
			</g>
			<path clip-path="url(#SVGID_4_)" fill="#F5D028" d="M32.6,14.4L32.6,14.4c0,0,0,0.2-0.1,0.3l0,0c-0.1,0.2-0.2,0.3-0.3,0.2l0,0
				c0,0,0-0.2,0.1-0.3l0,0C32.4,14.4,32.6,14.3,32.6,14.4L32.6,14.4z"/>
			<g clip-path="url(#SVGID_4_)">
				<path d="M32.2,14.9L32.2,14.9c-0.1,0,0-0.2,0.1-0.3c0.1-0.1,0.2-0.2,0.3-0.2c0,0,0,0,0,0c0,0,0,0,0,0c-0.1,0-0.2,0.1-0.3,0.2
					C32.2,14.8,32.2,14.9,32.2,14.9L32.2,14.9c0,0,0.2-0.1,0.3-0.2c0.1-0.1,0.2-0.3,0.1-0.3c0,0.1-0.1,0.2-0.1,0.3
					C32.4,14.8,32.3,14.9,32.2,14.9L32.2,14.9z"/>
			</g>
			<path clip-path="url(#SVGID_4_)" fill="#F5D028" d="M32.5,14.3L32.5,14.3c0,0,0,0.2-0.1,0.3l0,0c-0.1,0.2-0.2,0.3-0.3,0.2l0,0
				c0,0,0-0.2,0.1-0.3l0,0C32.4,14.4,32.5,14.3,32.5,14.3L32.5,14.3z"/>
			<g clip-path="url(#SVGID_4_)">
				<path d="M32.1,14.9L32.1,14.9c-0.1,0,0-0.2,0.1-0.3c0.1-0.1,0.2-0.2,0.3-0.2c0,0,0,0,0,0c-0.1,0-0.2,0.1-0.3,0.2
					C32.1,14.7,32.1,14.8,32.1,14.9L32.1,14.9c0,0,0.2-0.1,0.3-0.2c0.1-0.1,0.1-0.2,0.1-0.2c0,0.1-0.1,0.2-0.1,0.2
					C32.3,14.8,32.2,14.9,32.1,14.9L32.1,14.9z"/>
			</g>
			<path clip-path="url(#SVGID_4_)" fill="#F5D028" d="M31.6,15L31.6,15c0,0,0,0.2-0.1,0.3l0,0c-0.1,0.2-0.2,0.3-0.2,0.3l0,0
				c0,0,0-0.2,0.1-0.3l0,0C31.4,15.1,31.5,14.9,31.6,15L31.6,15z"/>
			<g clip-path="url(#SVGID_4_)">
				<path d="M31.2,15.6L31.2,15.6C31.2,15.6,31.2,15.6,31.2,15.6C31.2,15.6,31.2,15.6,31.2,15.6L31.2,15.6c0,0,0.1-0.1,0.2-0.3
					c0.1-0.1,0.1-0.2,0.1-0.3c0,0.1,0,0.2-0.1,0.3C31.4,15.5,31.3,15.6,31.2,15.6L31.2,15.6z M31.2,15.6c0-0.1,0-0.2,0.1-0.3
					c0.1-0.2,0.2-0.3,0.2-0.3c0,0,0,0,0,0c-0.1,0-0.2,0.1-0.2,0.2C31.3,15.4,31.2,15.5,31.2,15.6L31.2,15.6z"/>
			</g>
			<path clip-path="url(#SVGID_4_)" fill="#F5D028" d="M31.6,14.4L31.6,14.4c0,0,0,0.2-0.1,0.3l0,0c-0.1,0.2-0.2,0.3-0.3,0.2l0,0
				c0,0,0-0.2,0.1-0.3l0,0C31.5,14.4,31.6,14.3,31.6,14.4L31.6,14.4z"/>
			<g clip-path="url(#SVGID_4_)">
				<path d="M31.2,14.9L31.2,14.9c-0.1,0,0-0.2,0.1-0.3c0.1-0.1,0.2-0.2,0.3-0.2c0,0,0,0,0,0c0,0,0,0,0,0c-0.1,0-0.2,0.1-0.3,0.2
					C31.2,14.8,31.2,14.9,31.2,14.9L31.2,14.9c0,0,0.2-0.1,0.3-0.2c0.1-0.1,0.1-0.3,0.1-0.3c0,0.1-0.1,0.2-0.1,0.3
					C31.4,14.8,31.3,14.9,31.2,14.9L31.2,14.9z"/>
			</g>
			<path clip-path="url(#SVGID_4_)" fill="#F5D028" d="M31.7,14.4L31.7,14.4c0,0,0,0.2-0.1,0.3l0,0c-0.1,0.2-0.2,0.3-0.3,0.2l0,0
				c0,0,0-0.2,0.1-0.3l0,0C31.6,14.5,31.7,14.4,31.7,14.4L31.7,14.4z"/>
			<g clip-path="url(#SVGID_4_)">
				<path d="M31.3,15L31.3,15C31.3,15,31.3,15,31.3,15C31.3,15,31.3,15,31.3,15L31.3,15c0,0,0.2-0.1,0.3-0.2
					c0.1-0.1,0.1-0.3,0.1-0.3c0,0.1-0.1,0.2-0.1,0.3C31.5,14.9,31.4,15,31.3,15L31.3,15z M31.3,14.9c0-0.1,0.1-0.2,0.1-0.3
					c0.1-0.1,0.2-0.2,0.3-0.2c0,0,0,0,0,0c0,0,0,0,0,0c-0.1,0-0.2,0.1-0.3,0.2C31.4,14.8,31.3,14.9,31.3,14.9L31.3,14.9z"/>
			</g>
			<path clip-path="url(#SVGID_4_)" fill="#F5D028" d="M31.8,14.5L31.8,14.5c0,0,0,0.2-0.1,0.3l0,0c-0.1,0.2-0.2,0.3-0.3,0.2l0,0
				c0,0,0-0.2,0.1-0.3l0,0C31.7,14.6,31.8,14.5,31.8,14.5L31.8,14.5z"/>
			<g clip-path="url(#SVGID_4_)">
				<path d="M31.4,15.1L31.4,15.1c-0.1,0,0-0.2,0.1-0.3c0.1-0.1,0.2-0.2,0.3-0.2c0,0,0,0,0,0c0,0,0,0,0,0c-0.1,0-0.2,0.1-0.3,0.2
					C31.4,14.9,31.4,15,31.4,15.1L31.4,15.1c0,0,0.2-0.1,0.3-0.2c0.1-0.1,0.1-0.3,0.1-0.3c0,0.1-0.1,0.2-0.1,0.3
					C31.6,15,31.5,15.1,31.4,15.1L31.4,15.1z"/>
			</g>
			<path clip-path="url(#SVGID_4_)" fill="#F5D028" d="M32,14.6L32,14.6c0,0,0,0.2-0.1,0.3l0,0c-0.1,0.2-0.2,0.3-0.3,0.2l0,0
				c0,0,0-0.2,0.1-0.3l0,0C31.8,14.7,31.9,14.6,32,14.6L32,14.6z"/>
			<g clip-path="url(#SVGID_4_)">
				<path d="M31.6,15.2L31.6,15.2C31.5,15.1,31.5,15.1,31.6,15.2C31.5,15.1,31.5,15.1,31.6,15.2L31.6,15.2c0,0,0.2-0.1,0.3-0.2
					c0.1-0.1,0.2-0.3,0.1-0.3c0,0.1-0.1,0.2-0.1,0.3C31.7,15.1,31.6,15.2,31.6,15.2L31.6,15.2z M31.5,15.1c0-0.1,0.1-0.2,0.1-0.3
					c0.1-0.1,0.2-0.2,0.3-0.2c0,0,0,0,0,0c0,0,0,0,0,0c-0.1,0-0.2,0.1-0.3,0.2C31.6,14.9,31.6,15,31.5,15.1L31.5,15.1z"/>
			</g>
			<path clip-path="url(#SVGID_4_)" fill="#F5D028" d="M32.1,14.7L32.1,14.7c0,0,0,0.2-0.1,0.3l0,0c-0.1,0.2-0.2,0.3-0.3,0.2l0,0
				c0,0,0-0.2,0.1-0.3l0,0C31.9,14.7,32,14.6,32.1,14.7L32.1,14.7z"/>
			<g clip-path="url(#SVGID_4_)">
				<path d="M31.7,15.2L31.7,15.2c-0.1,0,0-0.2,0.1-0.3c0.1-0.1,0.2-0.2,0.3-0.2c0,0,0,0,0,0c-0.1,0-0.2,0.1-0.3,0.2
					C31.7,15.1,31.6,15.2,31.7,15.2L31.7,15.2c0,0,0.2-0.1,0.3-0.2c0.1-0.1,0.1-0.2,0.1-0.2c0,0.1-0.1,0.2-0.1,0.2
					C31.8,15.1,31.7,15.2,31.7,15.2L31.7,15.2z"/>
			</g>
			<path clip-path="url(#SVGID_4_)" fill="#F5D028" d="M32.7,15L32.7,15c0,0,0,0.2-0.1,0.3l0,0c-0.1,0.2-0.2,0.3-0.3,0.2l0,0
				c0,0,0-0.2,0.1-0.3l0,0C32.5,15.1,32.6,15,32.7,15L32.7,15z"/>
			<g clip-path="url(#SVGID_4_)">
				<path d="M32.3,15.6L32.3,15.6C32.2,15.6,32.2,15.5,32.3,15.6C32.2,15.5,32.2,15.5,32.3,15.6L32.3,15.6c0,0,0.2-0.1,0.3-0.2
					c0.1-0.1,0.2-0.3,0.1-0.3c0,0.1-0.1,0.2-0.1,0.3C32.4,15.5,32.3,15.6,32.3,15.6L32.3,15.6z M32.2,15.5c0-0.1,0.1-0.2,0.1-0.3
					c0.1-0.1,0.2-0.2,0.3-0.2c0,0,0,0,0,0c0,0,0,0,0,0c-0.1,0-0.2,0.1-0.3,0.2C32.3,15.3,32.2,15.5,32.2,15.5L32.2,15.5z"/>
			</g>
			<path clip-path="url(#SVGID_4_)" fill="#F5D028" d="M32.6,15L32.6,15c0,0,0,0.2-0.1,0.3l0,0c-0.1,0.2-0.2,0.3-0.3,0.2l0,0
				c0,0,0-0.2,0.1-0.3l0,0C32.4,15,32.5,14.9,32.6,15L32.6,15z"/>
			<g clip-path="url(#SVGID_4_)">
				<path d="M32.2,15.5L32.2,15.5c-0.1,0,0-0.2,0.1-0.3c0.1-0.1,0.2-0.2,0.3-0.2c0,0,0,0,0,0c0,0,0,0,0,0c-0.1,0-0.2,0.1-0.3,0.2
					C32.2,15.4,32.1,15.5,32.2,15.5L32.2,15.5c0,0,0.2-0.1,0.3-0.2c0.1-0.1,0.1-0.3,0.1-0.3c0,0.1-0.1,0.2-0.1,0.3
					C32.3,15.4,32.2,15.5,32.2,15.5L32.2,15.5z"/>
			</g>
			<path clip-path="url(#SVGID_4_)" fill="#F5D028" d="M32.5,14.9L32.5,14.9c0,0,0,0.2-0.1,0.3l0,0c-0.1,0.2-0.2,0.3-0.3,0.2l0,0
				c0,0,0-0.2,0.1-0.3l0,0C32.3,15,32.4,14.9,32.5,14.9L32.5,14.9z"/>
			<g clip-path="url(#SVGID_4_)">
				<path d="M32.1,15.5L32.1,15.5C32.1,15.5,32.1,15.5,32.1,15.5L32.1,15.5L32.1,15.5c0,0,0.2-0.1,0.3-0.2c0.1-0.1,0.1-0.3,0.1-0.3
					c0,0.1-0.1,0.2-0.1,0.3C32.2,15.4,32.1,15.5,32.1,15.5L32.1,15.5z M32.1,15.4c0-0.1,0.1-0.2,0.1-0.3c0.1-0.1,0.2-0.2,0.3-0.2
					c0,0,0,0,0,0c0,0,0,0,0,0c-0.1,0-0.2,0.1-0.3,0.2C32.1,15.3,32.1,15.4,32.1,15.4L32.1,15.4z"/>
			</g>
			<path clip-path="url(#SVGID_4_)" fill="#F5D028" d="M32.4,14.8L32.4,14.8c0,0,0,0.2-0.1,0.3l0,0c-0.1,0.2-0.2,0.3-0.3,0.2l0,0
				c0,0,0-0.2,0.1-0.3l0,0C32.2,14.9,32.3,14.8,32.4,14.8L32.4,14.8z"/>
			<g clip-path="url(#SVGID_4_)">
				<path d="M32,15.4L32,15.4C31.9,15.4,31.9,15.4,32,15.4C31.9,15.4,31.9,15.4,32,15.4L32,15.4c0,0,0.2-0.1,0.3-0.2
					c0.1-0.1,0.2-0.3,0.1-0.3c0,0.1-0.1,0.2-0.1,0.3C32.1,15.3,32,15.4,32,15.4L32,15.4z M31.9,15.4c0-0.1,0.1-0.2,0.1-0.3
					c0.1-0.1,0.2-0.2,0.3-0.2c0,0,0,0,0,0c0,0,0,0,0,0c-0.1,0-0.2,0.1-0.3,0.2C32,15.2,31.9,15.3,31.9,15.4L31.9,15.4z"/>
			</g>
			<path clip-path="url(#SVGID_4_)" fill="#F5D028" d="M32.2,14.8L32.2,14.8c0,0,0,0.2-0.1,0.3l0,0c-0.1,0.2-0.2,0.3-0.3,0.2l0,0
				c0,0,0-0.2,0.1-0.3l0,0C32.1,14.9,32.2,14.8,32.2,14.8L32.2,14.8z"/>
			<g clip-path="url(#SVGID_4_)">
				<path d="M31.9,15.4L31.9,15.4C31.8,15.3,31.8,15.3,31.9,15.4L31.9,15.4L31.9,15.4c0,0,0.2-0.1,0.3-0.2c0.1-0.1,0.2-0.3,0.1-0.3
					c0,0.1-0.1,0.2-0.1,0.3C32,15.3,31.9,15.4,31.9,15.4L31.9,15.4z M31.8,15.3c0-0.1,0.1-0.2,0.1-0.3c0.1-0.1,0.2-0.2,0.3-0.2
					c0,0,0,0,0,0c0,0,0,0,0,0c-0.1,0-0.2,0.1-0.3,0.2C31.9,15.1,31.8,15.2,31.8,15.3L31.8,15.3z"/>
			</g>
			<path clip-path="url(#SVGID_4_)" fill="#F5D028" d="M32.2,14.7L32.2,14.7c0,0,0,0.2-0.1,0.3l0,0c-0.1,0.2-0.2,0.3-0.3,0.2l0,0
				c0,0,0-0.2,0.1-0.3l0,0C32,14.8,32.1,14.7,32.2,14.7L32.2,14.7z"/>
			<g clip-path="url(#SVGID_4_)">
				<path d="M31.8,15.3L31.8,15.3C31.7,15.3,31.7,15.3,31.8,15.3C31.7,15.3,31.7,15.3,31.8,15.3L31.8,15.3c0,0,0.2-0.1,0.3-0.2
					c0.1-0.1,0.2-0.3,0.1-0.3c0,0.1-0.1,0.2-0.1,0.3C31.9,15.2,31.8,15.3,31.8,15.3L31.8,15.3z M31.7,15.3c0-0.1,0.1-0.2,0.1-0.3
					c0.1-0.1,0.2-0.2,0.3-0.2c0,0,0,0,0,0c0,0,0,0,0,0c-0.1,0-0.2,0.1-0.3,0.2C31.8,15.1,31.7,15.2,31.7,15.3L31.7,15.3z"/>
			</g>
			<path clip-path="url(#SVGID_4_)" fill="#A87F36" d="M32.2,10.6L32.2,10.6c0.1,0,0.1,0,0.1,0v1.4c0,0-0.1,0-0.1,0h0
				c-0.1,0-0.1,0-0.1,0v-1.4C32.1,10.6,32.2,10.6,32.2,10.6L32.2,10.6z"/>
			<g clip-path="url(#SVGID_4_)">
				<path d="M32.2,12.1L32.2,12.1c-0.1,0-0.1,0-0.1,0v-1.4c0-0.1,0.2,0,0.2,0v1.4C32.4,12.1,32.3,12.1,32.2,12.1L32.2,12.1z
					 M32.2,10.6c-0.1,0-0.1,0-0.1,0v1.4c0,0,0,0,0.1,0h0c0.1,0,0.1,0,0.1,0v-1.4C32.3,10.7,32.3,10.6,32.2,10.6L32.2,10.6z"/>
			</g>
			<polygon clip-path="url(#SVGID_4_)" fill="#30770E" points="32,11.2 31.3,11.6 31.7,11.1 32.2,11 			"/>
			<g clip-path="url(#SVGID_4_)">
				<path d="M31.3,11.7L31.3,11.7l0.4-0.6l0.5-0.1L32,11.2L31.3,11.7L31.3,11.7z M32.2,11l-0.4,0.1l-0.4,0.5l0.7-0.4L32.2,11
					L32.2,11z"/>
			</g>
			<polygon clip-path="url(#SVGID_4_)" fill="#30770E" points="32,11.1 31,11.2 31.8,10.9 32.2,11 			"/>
			<g clip-path="url(#SVGID_4_)">
				<path d="M31,11.2L31,11.2l0.8-0.3l0.4,0.1L32,11.1L31,11.2L31,11.2z M31.8,10.9l-0.8,0.3l0.9-0.1l0.2-0.1L31.8,10.9L31.8,10.9z"
					/>
			</g>
			<polygon clip-path="url(#SVGID_4_)" fill="#30770E" points="32.4,11.1 32.7,11.6 32.3,11.3 32.2,11 			"/>
			<g clip-path="url(#SVGID_4_)">
				<path d="M32.7,11.7l-0.4-0.4L32.2,11l0.3,0.1L32.7,11.7L32.7,11.7L32.7,11.7z M32.2,11l0.1,0.3l0.4,0.4l-0.2-0.5L32.2,11
					L32.2,11z"/>
			</g>
			<polygon clip-path="url(#SVGID_4_)" fill="#30770E" points="32.6,10.9 33.4,11.6 32.4,11.2 32.1,11 			"/>
			<g clip-path="url(#SVGID_4_)">
				<path d="M33.4,11.7l-1-0.5L32.1,11l0.4-0.1L33.4,11.7L33.4,11.7L33.4,11.7z M32.6,10.9l-0.4,0l0.3,0.2l0.9,0.5L32.6,10.9
					L32.6,10.9z"/>
			</g>
			<polygon clip-path="url(#SVGID_4_)" fill="#30770E" points="31.9,11 30.9,10.7 31.9,10.7 32.2,11 			"/>
			<g clip-path="url(#SVGID_4_)">
				<path d="M32.2,11l-0.3,0l-1-0.3l1,0L32.2,11L32.2,11z M30.9,10.7l1,0.3l0.3,0l-0.3-0.3L30.9,10.7L30.9,10.7z"/>
			</g>
			<polygon clip-path="url(#SVGID_4_)" fill="#30770E" points="31.8,10.7 31.3,10.1 32,10.6 32.2,11 			"/>
			<g clip-path="url(#SVGID_4_)">
				<path d="M32.2,11l-0.4-0.3l-0.5-0.6l0.7,0.4L32.2,11L32.2,11z M31.3,10.2l0.5,0.6l0.4,0.3L32,10.6L31.3,10.2L31.3,10.2z"/>
			</g>
			<polygon clip-path="url(#SVGID_4_)" fill="#30770E" points="32,10.6 31.7,9.9 32.2,10.5 32.2,11 			"/>
			<g clip-path="url(#SVGID_4_)">
				<path d="M32.2,11L32,10.6L31.7,10l0.5,0.5L32.2,11L32.2,11z M31.7,10l0.3,0.7l0.2,0.4l0-0.5L31.7,10L31.7,10z"/>
			</g>
			<polygon clip-path="url(#SVGID_4_)" fill="#30770E" points="32.2,10.6 32.9,10 32.4,10.8 32.2,11 			"/>
			<g clip-path="url(#SVGID_4_)">
				<path d="M32.1,11l0.1-0.5l0.6-0.5l-0.4,0.7L32.1,11L32.1,11z M32.9,10l-0.6,0.5L32.2,11l0.3-0.2L32.9,10L32.9,10z"/>
			</g>
			<polygon clip-path="url(#SVGID_4_)" fill="#30770E" points="32.4,10.6 33.2,10.5 32.5,10.9 32.2,11 			"/>
			<g clip-path="url(#SVGID_4_)">
				<path d="M32.1,11l0.3-0.4l0.8-0.2l-0.7,0.5L32.1,11L32.1,11z M33.2,10.5l-0.8,0.2L32.2,11l0.4-0.1L33.2,10.5L33.2,10.5z"/>
			</g>
			<polygon clip-path="url(#SVGID_4_)" fill="#30770E" points="32.4,10.8 33.4,10.9 32.5,11.1 32.2,11 			"/>
			<g clip-path="url(#SVGID_4_)">
				<path d="M32.5,11.1L32.2,11l0.2-0.2l1,0.1L32.5,11.1L32.5,11.1z M32.4,10.8L32.2,11l0.3,0.1l0.9-0.1L32.4,10.8L32.4,10.8z"/>
			</g>
			<polygon clip-path="url(#SVGID_4_)" fill="#30770E" points="32.1,11.2 31.7,11.5 31.9,11.2 32.2,11 			"/>
			<g clip-path="url(#SVGID_4_)">
				<path d="M31.7,11.5L31.7,11.5l0.2-0.4l0.2-0.2l-0.1,0.3L31.7,11.5L31.7,11.5z M32.2,11l-0.2,0.2l-0.2,0.3l0.3-0.3L32.2,11
					L32.2,11z"/>
			</g>
			<polygon clip-path="url(#SVGID_4_)" fill="#30770E" points="32.1,11.1 31.6,11.4 32,11 32.2,10.9 			"/>
			<g clip-path="url(#SVGID_4_)">
				<path d="M31.6,11.4L31.6,11.4L32,11l0.2-0.1l-0.1,0.2L31.6,11.4L31.6,11.4z M32.2,10.9L32,11l-0.4,0.4l0.5-0.3L32.2,10.9
					L32.2,10.9z"/>
			</g>
			<polygon clip-path="url(#SVGID_4_)" fill="#30770E" points="32.4,11 32.7,11.5 32.3,11.1 32.2,10.9 			"/>
			<g clip-path="url(#SVGID_4_)">
				<path d="M32.7,11.5l-0.5-0.4l-0.1-0.2l0.2,0.1L32.7,11.5L32.7,11.5L32.7,11.5z M32.2,10.9l0.1,0.2l0.4,0.4L32.3,11L32.2,10.9
					L32.2,10.9z"/>
			</g>
			<polygon clip-path="url(#SVGID_4_)" fill="#30770E" points="32,10.9 31.5,10.5 32,10.8 32.2,11 			"/>
			<g clip-path="url(#SVGID_4_)">
				<path d="M32.2,11L32,10.9l-0.5-0.5l0.5,0.3L32.2,11L32.2,11z M31.5,10.5l0.5,0.4l0.1,0L32,10.8L31.5,10.5L31.5,10.5z"/>
			</g>
			<polygon clip-path="url(#SVGID_4_)" fill="#30770E" points="32.3,10.8 32.8,10.9 32.3,10.9 32.2,11 			"/>
			<g clip-path="url(#SVGID_4_)">
				<path d="M32.2,11L32.2,11l0.1-0.1l0.5,0.1l-0.5,0L32.2,11L32.2,11z M32.3,10.8l-0.1,0.1L32.3,10.8l0.5,0.1L32.3,10.8L32.3,10.8z
					"/>
			</g>
			<polygon clip-path="url(#SVGID_4_)" fill="#30770E" points="32.1,10.6 32.5,10.2 32.3,10.6 32.2,10.9 			"/>
			<g clip-path="url(#SVGID_4_)">
				<path d="M32.2,10.9L32.2,10.9l0-0.3l0.4-0.4l-0.2,0.3L32.2,10.9L32.2,10.9z M32.5,10.2l-0.3,0.4l0,0.3l0.1-0.4L32.5,10.2
					L32.5,10.2z"/>
			</g>
			<polygon clip-path="url(#SVGID_4_)" fill="#30770E" points="32,10.8 31.6,10.7 32,10.6 32.2,10.9 			"/>
			<g clip-path="url(#SVGID_4_)">
				<path d="M32.2,10.9L32,10.8l-0.4,0l0.4-0.1L32.2,10.9L32.2,10.9L32.2,10.9z M32,10.6l-0.4,0.1l0.4,0l0.2,0.1L32,10.6L32,10.6z"
					/>
			</g>
			<polygon clip-path="url(#SVGID_4_)" fill="#30770E" points="32,11.1 31.4,11.4 31.9,11.1 32.2,11 			"/>
			<g clip-path="url(#SVGID_4_)">
				<path d="M31.4,11.4L31.4,11.4l0.6-0.4l0.3-0.1L32,11.1L31.4,11.4L31.4,11.4z M32.2,11l-0.2,0.1l-0.5,0.3l0.6-0.2L32.2,11
					L32.2,11z"/>
			</g>
			<path clip-path="url(#SVGID_4_)" fill="#A87F36" d="M28.5,11L28.5,11C28.6,11,28.6,11,28.5,11l-0.3,1.1c0,0,0,0-0.1,0h0
				c0,0-0.1,0,0-0.1L28.5,11C28.5,11,28.5,11,28.5,11L28.5,11z"/>
			<g clip-path="url(#SVGID_4_)">
				<path d="M28.2,12.1L28.2,12.1C28.2,12.1,28.1,12,28.2,12.1l0.2-1.1l0.1,0c0,0,0.1,0,0.1,0.1L28.2,12.1L28.2,12.1L28.2,12.1z
					 M28.5,11L28.5,11l-0.4,1c0,0,0,0,0,0l0,0l0,0L28.5,11C28.6,11,28.6,11,28.5,11L28.5,11z"/>
			</g>
			<path clip-path="url(#SVGID_4_)" fill="#A87F36" d="M27.9,10.9L27.9,10.9C27.9,10.9,27.9,10.9,27.9,10.9l0.1,1.1c0,0,0,0-0.1,0h0
				c0,0-0.1,0-0.1,0L27.9,10.9C27.8,10.9,27.8,10.9,27.9,10.9L27.9,10.9z"/>
			<g clip-path="url(#SVGID_4_)">
				<path d="M27.9,12C27.8,12,27.8,12,27.9,12l-0.1-1.1c0,0,0.1,0,0.1,0L27.9,12C27.9,12,27.9,12,27.9,12L27.9,12z M27.9,10.9
					C27.8,10.9,27.8,10.9,27.9,10.9L27.8,12c0,0,0,0,0.1,0h0c0,0,0.1,0,0.1,0L27.9,10.9C27.9,10.9,27.9,10.9,27.9,10.9L27.9,10.9z"
					/>
			</g>
			<path clip-path="url(#SVGID_4_)" fill="#1D4805" d="M27.5,10.3c0.2,0,0.3,0,0.3,0.3c0,0,0,0,0,0c0-0.3,0.3-0.6,0.5-0.1
				c0,0.1-0.1,0-0.2-0.1c-0.1-0.1-0.2,0-0.2,0.3c0,0.1,0,0.2,0,0.2s-0.1,0-0.1,0c0,0-0.1-0.4-0.3-0.4c-0.1,0-0.1,0.1-0.2,0.1
				c-0.1,0-0.1,0,0-0.1C27.4,10.4,27.4,10.3,27.5,10.3L27.5,10.3z"/>
			<g clip-path="url(#SVGID_4_)">
				<path d="M27.9,10.9L27.9,10.9c-0.1,0-0.1,0-0.1,0c0-0.1-0.1-0.3-0.1-0.3c0.1,0.1,0.1,0.2,0.1,0.3C27.8,10.8,27.9,10.9,27.9,10.9
					c0,0,0-0.2,0-0.2c0-0.3,0.2-0.5,0.3-0.3c0,0,0.1,0.1,0.1,0.1c0,0-0.1-0.1-0.1-0.1c-0.1-0.1-0.2,0-0.2,0.3
					C27.9,10.7,27.9,10.9,27.9,10.9L27.9,10.9L27.9,10.9z M27.8,10.6C27.8,10.5,27.8,10.5,27.8,10.6c0-0.2,0-0.3,0.1-0.3
					c0.1-0.1,0.3-0.1,0.4,0.2c0,0,0,0,0,0c-0.1-0.3-0.3-0.3-0.4-0.2C27.9,10.3,27.8,10.4,27.8,10.6L27.8,10.6z M27.2,10.5
					C27.2,10.5,27.2,10.5,27.2,10.5C27.3,10.5,27.3,10.5,27.2,10.5c0.1,0,0.2,0,0.2-0.1c0,0,0,0,0.1,0c0,0,0,0,0,0
					c-0.1,0-0.1,0-0.1,0C27.4,10.5,27.4,10.5,27.2,10.5C27.3,10.5,27.3,10.5,27.2,10.5L27.2,10.5z M27.2,10.5
					C27.2,10.5,27.2,10.5,27.2,10.5c0.1,0,0.2-0.1,0.2-0.1c0,0,0.1-0.1,0.1-0.1c0.1,0,0.2,0,0.3,0.1c-0.1-0.1-0.2-0.1-0.3-0.1
					c0,0,0,0-0.1,0.1C27.4,10.4,27.3,10.4,27.2,10.5C27.2,10.5,27.2,10.5,27.2,10.5L27.2,10.5z"/>
			</g>
			<path clip-path="url(#SVGID_4_)" fill="#1D4805" d="M27.5,10.5c0.2,0,0.3,0.1,0.3,0.3c0,0,0,0,0,0c0-0.3,0.5-0.4,0.7,0.1
				c0,0.1,0,0.1-0.1,0c-0.1-0.1-0.5-0.4-0.5,0c0,0.1,0,0.2,0,0.2s-0.1,0-0.1,0c0,0-0.1-0.4-0.2-0.5c-0.1,0-0.2,0.1-0.3,0.1
				c-0.1,0-0.1,0,0-0.1C27.3,10.7,27.5,10.5,27.5,10.5L27.5,10.5z"/>
			<g clip-path="url(#SVGID_4_)">
				<path d="M27.9,11.1L27.9,11.1c-0.1,0-0.1,0-0.1,0c0-0.2-0.1-0.3-0.1-0.4c0.1,0.1,0.1,0.2,0.1,0.4C27.8,11.1,27.9,11.1,27.9,11.1
					c0,0,0-0.2,0-0.2c0-0.1,0.1-0.2,0.1-0.2c0.1,0,0.3,0.1,0.3,0.2c0.1,0.1,0.1,0.1,0.1,0.1c0,0,0,0,0-0.1c-0.2-0.4-0.5-0.5-0.6-0.3
					c0,0-0.1,0.1-0.1,0.2c0,0,0,0,0-0.1c0,0,0-0.1,0.1-0.1c0.1-0.1,0.5-0.1,0.6,0.3c0,0,0,0,0,0.1c0,0-0.1,0-0.1-0.1
					c-0.1-0.1-0.2-0.2-0.3-0.2c-0.1,0-0.1,0.1-0.1,0.2C28,10.9,27.9,11.1,27.9,11.1L27.9,11.1L27.9,11.1z M27.3,10.7
					c-0.1,0-0.1,0-0.1,0C27.2,10.7,27.2,10.7,27.3,10.7c0-0.1,0-0.1,0.1-0.1c0.1,0,0.2-0.1,0.2-0.1c0.1,0,0.2,0,0.3,0.1
					c-0.1-0.1-0.2-0.1-0.3-0.1c0,0-0.1,0.1-0.2,0.1C27.3,10.6,27.2,10.7,27.3,10.7C27.2,10.7,27.2,10.7,27.3,10.7
					C27.2,10.7,27.2,10.7,27.3,10.7c0.1,0,0.1,0,0.2-0.1c0,0,0.1,0,0.1,0c0,0,0,0,0,0c-0.1,0-0.1,0-0.1,0
					C27.4,10.7,27.3,10.7,27.3,10.7C27.3,10.7,27.3,10.7,27.3,10.7L27.3,10.7z"/>
			</g>
			<path clip-path="url(#SVGID_4_)" fill="#1D4805" d="M27.6,10.7c0.2,0,0.3,0.1,0.3,0.3c0,0,0,0,0,0c0-0.3,0.3-0.2,0.5,0.3
				c0,0.1-0.1-0.1-0.2-0.2c-0.1-0.1-0.1-0.4-0.2-0.1c0,0.1-0.1,0.2-0.1,0.2s-0.1,0-0.1,0c0,0,0-0.4-0.2-0.5c-0.1,0-0.2,0.3-0.3,0.3
				c-0.1,0-0.1,0,0-0.1C27.3,11.1,27.5,10.7,27.6,10.7L27.6,10.7z"/>
			<g clip-path="url(#SVGID_4_)">
				<path d="M28.3,11.4c0,0-0.1-0.1-0.2-0.2c0,0,0-0.1-0.1-0.1c-0.1-0.1-0.1-0.2-0.1,0c0,0.1-0.1,0.2-0.1,0.2c-0.1,0-0.1,0-0.1,0
					c0-0.2-0.1-0.4-0.2-0.4c0.1,0.1,0.1,0.2,0.2,0.4c0,0,0.1,0,0.1,0c0,0,0-0.2,0-0.2c0-0.2,0.1-0.2,0.2,0c0,0,0,0.1,0.1,0.1
					C28.2,11.3,28.3,11.4,28.3,11.4L28.3,11.4L28.3,11.4c-0.1-0.5-0.4-0.6-0.5-0.3c0,0,0,0,0-0.1c0-0.1,0.1-0.1,0.1-0.1
					C28.1,10.9,28.3,11.1,28.3,11.4L28.3,11.4L28.3,11.4z M27.3,11.1c-0.1,0-0.1,0-0.1,0C27.2,11.1,27.2,11.1,27.3,11.1
					c0-0.1,0-0.1,0.1-0.2c0.1-0.1,0.2-0.2,0.2-0.2c0,0,0.1,0,0.1,0c0,0,0,0,0,0c-0.1,0-0.2,0.1-0.3,0.2
					C27.3,11.1,27.2,11.1,27.3,11.1c-0.1,0-0.1,0-0.1,0C27.2,11.1,27.2,11.1,27.3,11.1c0.1,0,0.1-0.1,0.2-0.2c0-0.1,0.1-0.1,0.1-0.1
					c0,0,0,0,0,0c0,0,0,0,0,0c-0.1,0-0.1,0.1-0.2,0.1C27.4,11.1,27.3,11.1,27.3,11.1L27.3,11.1z"/>
			</g>
			<path clip-path="url(#SVGID_4_)" fill="#A87F36" d="M27,10.9L27,10.9C27,10.9,27,10.9,27,10.9l0.4,1c0,0,0,0,0,0.1h0
				c0,0-0.1,0-0.1,0L27,10.9C26.9,10.9,26.9,10.9,27,10.9L27,10.9z"/>
			<g clip-path="url(#SVGID_4_)">
				<path d="M27.3,12L27.3,12l-0.4-1c0,0,0,0,0.1-0.1l0.1,0L27.3,12C27.4,11.9,27.4,12,27.3,12L27.3,12L27.3,12z M27,10.9L27,10.9
					C27,10.9,26.9,10.9,27,10.9l0.3,1.1l0,0l0,0c0,0,0.1,0,0,0L27,10.9L27,10.9L27,10.9z"/>
			</g>
			<path clip-path="url(#SVGID_4_)" fill="#1D4805" d="M27.1,10.2c-0.2,0-0.2,0.1-0.2,0.4c0,0,0,0,0,0c-0.1-0.3-0.5-0.3-0.5,0.2
				c0,0.1,0.1-0.1,0.1-0.2c0-0.2,0.2-0.2,0.3,0.1c0,0.1,0.1,0.2,0.1,0.2s0.1-0.1,0.1-0.1c0,0-0.1-0.4,0.1-0.5
				c0.1-0.1,0.1-0.1,0.3-0.1c0.1,0,0.1-0.1,0-0.1C27.3,10.2,27.1,10.2,27.1,10.2L27.1,10.2z"/>
			<g clip-path="url(#SVGID_4_)">
				<path d="M26.9,10.9L26.9,10.9c0,0-0.1-0.1-0.1-0.2c-0.1-0.2-0.1-0.2-0.2-0.2c0,0-0.1,0-0.1,0.1c0,0.1-0.1,0.2-0.1,0.2
					c0,0,0,0,0,0c0,0,0.1-0.1,0.1-0.2c0.1-0.2,0.2-0.2,0.3,0.1C26.8,10.8,26.9,10.9,26.9,10.9C26.9,10.9,27,10.9,26.9,10.9
					c0.1-0.3,0.1-0.5,0.2-0.6c0.1-0.1,0.1-0.1,0.2-0.1c0.1,0,0.1,0,0.1,0c0,0,0,0-0.1,0c0,0-0.1,0-0.2,0c-0.1,0-0.2,0-0.2,0.1
					c0,0.1-0.1,0.2,0,0.3c0,0,0,0,0,0c0-0.1,0-0.2,0.1-0.2c0,0,0.1-0.1,0.2-0.1c0.1,0,0.2,0,0.3,0c0.1,0,0.1,0,0.1,0c0,0,0,0-0.1,0
					c-0.2,0-0.2,0-0.3,0.1C27,10.4,27,10.6,27,10.8C27,10.9,27,10.9,26.9,10.9L26.9,10.9L26.9,10.9z M26.4,10.6
					c0.1-0.2,0.2-0.2,0.3-0.1C26.7,10.4,26.5,10.3,26.4,10.6L26.4,10.6z"/>
			</g>
			<path clip-path="url(#SVGID_4_)" fill="#1D4805" d="M27.1,10.4c-0.2,0-0.2,0.2-0.2,0.4c0,0,0,0,0,0c-0.1-0.3-0.5-0.3-0.5,0.2
				c0,0.1,0.1-0.1,0.1-0.2c0-0.2,0.1-0.2,0.3,0.1c0,0.1,0.1,0.2,0.1,0.2s0.1-0.1,0.1-0.1c0,0-0.1-0.4,0-0.5c0.1-0.1,0.1-0.1,0.3-0.1
				c0.1,0,0.1-0.1,0-0.1C27.4,10.4,27.2,10.4,27.1,10.4L27.1,10.4z"/>
			<g clip-path="url(#SVGID_4_)">
				<path d="M27,11.1L27,11.1c0,0-0.1-0.1-0.1-0.2c-0.1-0.2-0.1-0.2-0.2-0.2c0,0-0.1,0-0.1,0.1c0,0.1-0.1,0.2-0.1,0.2c0,0,0,0,0,0
					c0,0,0.1-0.1,0.1-0.2c0-0.2,0.2-0.2,0.3,0.1C26.9,11,27,11.1,27,11.1C27,11.1,27.1,11.1,27,11.1c0.1-0.2,0-0.5,0.1-0.6
					c0.1-0.1,0.1-0.1,0.2-0.1c0.1,0,0.1-0.1,0.1-0.1c0,0,0,0-0.1,0c0,0-0.2,0-0.3,0c-0.1,0-0.1,0-0.1,0.1c0,0.1-0.1,0.2,0,0.3
					c0,0,0,0,0,0c0-0.1,0-0.2,0-0.2c0,0,0.1-0.1,0.2-0.1c0.1,0,0.2,0,0.3,0c0.1,0,0.1,0,0.1,0c0,0,0,0-0.1,0.1c-0.1,0-0.2,0-0.3,0.1
					C27,10.6,27.1,10.9,27,11.1C27.1,11.1,27.1,11.1,27,11.1L27,11.1L27,11.1z M26.5,10.9c0-0.1,0-0.2,0.1-0.3
					c0.1-0.1,0.2-0.1,0.3,0c-0.1-0.1-0.2-0.1-0.3,0C26.5,10.7,26.5,10.8,26.5,10.9L26.5,10.9z"/>
			</g>
			<path clip-path="url(#SVGID_4_)" fill="#1D4805" d="M27.2,10.7C27,10.7,27,10.8,27,11c0,0,0,0,0,0c-0.2-0.3-0.5-0.2-0.4,0.3
				c0,0.1,0.1-0.1,0.1-0.2c0-0.2,0.1-0.2,0.3,0c0,0.1,0.1,0.2,0.1,0.2s0.1-0.1,0.1-0.1c0,0-0.1-0.4,0-0.5c0.1-0.1,0.1-0.1,0.2-0.1
				c0.1-0.1,0.1-0.1,0-0.1C27.4,10.6,27.2,10.6,27.2,10.7L27.2,10.7z"/>
			<g clip-path="url(#SVGID_4_)">
				<path d="M27.1,11.4L27.1,11.4c0,0-0.1-0.1-0.1-0.2C26.9,11,26.8,11,26.8,11c0,0-0.1,0.1-0.1,0.1c0,0,0,0.2-0.1,0.2c0,0,0,0,0,0
					c0,0,0.1-0.1,0.1-0.2c0-0.2,0.2-0.2,0.3,0C27,11.2,27.1,11.4,27.1,11.4C27.1,11.3,27.2,11.3,27.1,11.4c0-0.2,0-0.5,0.1-0.6
					c0.1-0.1,0.1-0.1,0.2-0.1c0.1,0,0.1,0,0.1-0.1c0,0,0,0-0.1,0.1c-0.1,0-0.2,0.1-0.2,0.1C27.1,10.9,27.1,11,27.1,11.4
					C27.2,11.3,27.2,11.3,27.1,11.4L27.1,11.4L27.1,11.4z M26.6,11.2c0-0.1,0-0.2,0.1-0.3c0.1-0.1,0.2-0.1,0.3,0
					c-0.1-0.1-0.2-0.1-0.3,0C26.6,11,26.6,11.1,26.6,11.2L26.6,11.2z M27,11C27,11,27,11,27,11c0-0.1,0-0.2,0-0.3
					c0-0.1,0.1-0.1,0.1-0.1c0.1,0,0.2,0,0.3-0.1c0,0,0,0,0.1,0c0,0,0,0,0,0c0,0-0.1,0-0.1,0c0,0-0.2,0-0.3,0.1c-0.1,0-0.1,0-0.1,0.1
					C27,10.8,27,10.9,27,11L27,11z"/>
			</g>
			<path clip-path="url(#SVGID_4_)" fill="#1D4805" d="M28.4,10.1c0.2,0,0.2,0.1,0.2,0.4c0,0,0,0,0,0c0.1-0.3,0.5-0.5,0.6,0.1
				c0,0.1-0.1-0.1-0.1-0.2c-0.1-0.2-0.2-0.1-0.3,0.2c0,0.1-0.1,0.2-0.1,0.2s-0.1-0.1-0.1-0.1c0,0,0-0.4-0.1-0.5
				c-0.1-0.1-0.1,0-0.3,0c-0.1,0-0.1-0.1,0-0.1C28.2,10.2,28.3,10.1,28.4,10.1L28.4,10.1z"/>
			<g clip-path="url(#SVGID_4_)">
				<path d="M28.6,10.9L28.6,10.9c-0.1-0.1-0.1-0.1-0.1-0.1c0-0.1,0-0.4-0.1-0.5c0,0-0.1,0-0.1,0c-0.1,0-0.1,0-0.2,0
					c-0.1,0-0.1,0-0.1,0c0,0,0,0,0.1,0c0.1,0,0.1,0,0.2,0c0,0,0.1,0,0.1,0c0.1,0,0.2,0.1,0.2,0.2c0-0.1-0.1-0.2-0.2-0.2l0,0
					c0,0-0.1,0-0.1,0c0,0-0.1,0-0.1,0l0,0c-0.1,0-0.1,0-0.1,0c0,0,0,0,0.1,0c0.1,0,0.1,0,0.1,0l0,0l0,0c0,0,0,0,0.1,0
					c0.1,0.1,0.1,0.3,0.1,0.5C28.5,10.8,28.6,10.8,28.6,10.9c0,0,0.1-0.2,0.1-0.2c0.1-0.3,0.3-0.4,0.3-0.2c0,0.1,0.1,0.1,0.1,0.2
					c0,0-0.1-0.1-0.1-0.2c-0.1-0.1-0.2-0.1-0.3,0.2C28.7,10.7,28.6,10.9,28.6,10.9L28.6,10.9L28.6,10.9z M29.2,10.6
					C29.2,10.6,29.2,10.6,29.2,10.6c0-0.2-0.1-0.4-0.2-0.4c-0.1,0-0.3,0.1-0.3,0.3c0,0,0,0,0-0.1c0.1-0.1,0.2-0.2,0.3-0.2
					C29.1,10.2,29.2,10.4,29.2,10.6C29.2,10.6,29.2,10.6,29.2,10.6L29.2,10.6z"/>
			</g>
			<path clip-path="url(#SVGID_4_)" fill="#1D4805" d="M28.4,10.3c0.2,0,0.2,0.2,0.2,0.4c0,0,0,0,0,0c0.1-0.3,0.6-0.2,0.6,0.4
				c0,0.1,0,0.1-0.1-0.1c0-0.2-0.3-0.5-0.4-0.2c0,0.1-0.1,0.2-0.1,0.2S28.5,11,28.5,11c0,0,0.1-0.4-0.1-0.5c-0.1-0.1-0.2,0-0.3,0
				c-0.1,0-0.1-0.1,0-0.1C28.1,10.4,28.3,10.3,28.4,10.3L28.4,10.3z"/>
			<g clip-path="url(#SVGID_4_)">
				<path d="M29.2,11.2c0,0,0,0-0.1-0.1c0-0.1-0.2-0.3-0.3-0.3c-0.1,0-0.1,0-0.1,0.1c0,0.1-0.1,0.2-0.1,0.2C28.5,11,28.5,11,28.5,11
					c0-0.2,0-0.4-0.1-0.5c0,0-0.1,0-0.2,0c0,0-0.1,0-0.2,0c-0.1,0-0.1,0-0.1-0.1c0,0,0,0,0.1,0c0,0,0.1,0,0.1,0c0.1,0,0.2,0,0.2,0
					c0.1,0,0.2,0.1,0.2,0.2c0-0.1-0.1-0.2-0.2-0.2c0,0,0,0,0,0c-0.1,0-0.1,0-0.2,0c-0.1,0-0.1,0-0.1,0l0,0c-0.1,0-0.1,0-0.1,0
					c0,0,0,0,0.1,0c0.1,0,0.1,0,0.2,0c0.1,0,0.1,0,0.2,0c0.1,0.1,0.1,0.4,0.1,0.5c0,0,0.1,0.1,0.1,0.1c0,0,0.1-0.1,0.1-0.2
					c0-0.1,0.1-0.1,0.1-0.1c0.1,0,0.3,0.2,0.3,0.3C29.2,11.2,29.2,11.2,29.2,11.2C29.2,11.2,29.2,11.2,29.2,11.2
					c0-0.4-0.2-0.6-0.4-0.6c-0.1,0-0.2,0.1-0.2,0.2c0,0,0,0,0-0.1c0.1-0.1,0.1-0.1,0.2-0.1C29,10.6,29.2,10.8,29.2,11.2
					C29.2,11.2,29.2,11.2,29.2,11.2L29.2,11.2z"/>
			</g>
			<path clip-path="url(#SVGID_4_)" fill="#1D4805" d="M28.3,10.6c0.2,0,0.2,0.2,0.2,0.4c0,0,0,0,0,0c0.1-0.3,0.4,0,0.3,0.5
				c0,0.1-0.1-0.1-0.1-0.2c0-0.2,0-0.4-0.2-0.1c0,0.1-0.1,0.2-0.1,0.2s-0.1-0.1-0.1-0.1c0,0,0.1-0.4,0-0.5c-0.1-0.1-0.3,0.2-0.4,0.1
				c-0.1-0.1-0.1-0.1,0-0.1C27.9,10.8,28.3,10.6,28.3,10.6L28.3,10.6z"/>
			<g clip-path="url(#SVGID_4_)">
				<path d="M28.9,11.5c0,0-0.1-0.1-0.1-0.2c0,0,0-0.1,0-0.1c0-0.1,0-0.2-0.1,0c0,0.1-0.1,0.2-0.1,0.2c-0.1-0.1-0.1-0.1-0.1-0.1
					c0-0.1,0-0.2,0-0.3c0,0.1,0,0.2,0,0.3c0,0,0.1,0.1,0.1,0.1c0,0,0.1-0.1,0.1-0.2c0.1-0.2,0.1-0.1,0.2,0c0,0,0,0.1,0,0.1
					C28.8,11.4,28.9,11.5,28.9,11.5L28.9,11.5L28.9,11.5c0-0.3-0.1-0.5-0.1-0.6c-0.1-0.1-0.2,0-0.2,0.1c0,0,0,0,0-0.1
					c0.1-0.1,0.1-0.1,0.2,0C28.8,11,28.9,11.2,28.9,11.5L28.9,11.5L28.9,11.5z M28,10.9C28,10.9,27.9,10.9,28,10.9
					c0.1,0,0.1-0.1,0.2-0.1c0.1,0,0.1-0.1,0.2-0.1c0,0,0,0,0,0c-0.1,0-0.1,0-0.2,0.1C28.1,10.8,28,10.9,28,10.9L28,10.9z M27.9,10.9
					C27.8,10.8,27.8,10.8,27.9,10.9C27.9,10.8,27.9,10.8,27.9,10.9L27.9,10.9c0-0.1,0.1-0.1,0.1-0.1c0.1-0.1,0.2-0.1,0.3-0.1
					c0.1,0,0.2,0.1,0.2,0.2c0-0.1-0.1-0.2-0.2-0.2h0c0,0-0.2,0.1-0.3,0.1C28,10.8,27.9,10.8,27.9,10.9
					C27.9,10.8,27.9,10.8,27.9,10.9C27.8,10.8,27.8,10.8,27.9,10.9L27.9,10.9z"/>
			</g>
			<g clip-path="url(#SVGID_4_)">
				<path d="M30.1,17.2L30.1,17.2c-2.3-0.9-3.7-2.1-3.8-5V7.3h7.6v4.9C33.9,14.7,32.8,16.1,30.1,17.2L30.1,17.2L30.1,17.2z
					 M26.4,7.4v4.9c0.1,2.9,1.4,4,3.7,4.9c2.6-1.2,3.7-2.5,3.7-4.9V7.4H26.4L26.4,7.4z"/>
			</g>
		</g>
	</g>
</g>
<g>
	<path fill="#CCCCCC" d="M39.8,0.2v22.5H0.2V0.2H39.8 M40,0H0v23h40V0L40,0z"/>
</g>
</svg>
