<?xml version="1.0" encoding="utf-8"?>
<!-- Generator: Adobe Illustrator 17.1.0, SVG Export Plug-In . SVG Version: 6.00 Build 0)  -->
<!DOCTYPE svg PUBLIC "-//W3C//DTD SVG 1.1//EN" "http://www.w3.org/Graphics/SVG/1.1/DTD/svg11.dtd">
<svg version="1.1" id="Layer_1" xmlns="http://www.w3.org/2000/svg" xmlns:xlink="http://www.w3.org/1999/xlink" x="0px" y="0px"
	 viewBox="0 0 40 23" enable-background="new 0 0 40 23" xml:space="preserve">
<g>
	<g>
		<defs>
			<rect id="SVGID_158_" width="40" height="23"/>
		</defs>
		<clipPath id="SVGID_2_">
			<use xlink:href="#SVGID_158_"  overflow="visible"/>
		</clipPath>
		<rect clip-path="url(#SVGID_2_)" fill="#C0003B" width="40" height="11.5"/>
		<rect y="11.5" clip-path="url(#SVGID_2_)" fill="#3D9546" width="40" height="11.5"/>
		<polygon clip-path="url(#SVGID_2_)" points="0,0 0,23 22.6,11.5 		"/>
		<rect y="9.4" clip-path="url(#SVGID_2_)" width="40" height="4.1"/>
		<polygon clip-path="url(#SVGID_2_)" fill="#F5CD28" points="0,21.4 19.4,11.5 0,1.6 		"/>
		<rect y="10.9" clip-path="url(#SVGID_2_)" fill="#F5CD28" width="40" height="1.2"/>
		<polygon clip-path="url(#SVGID_2_)" points="0,20 16.7,11.5 0,3 		"/>
		<g clip-path="url(#SVGID_2_)">
			<defs>
				<rect id="SVGID_160_" width="40" height="23"/>
			</defs>
			<clipPath id="SVGID_4_">
				<use xlink:href="#SVGID_160_"  overflow="visible"/>
			</clipPath>
			<path clip-path="url(#SVGID_4_)" fill="#F3CD2D" d="M4.7,13.7V15c1.2,0,3.4-0.9,3.4-3.7S5.7,8,5,8c-0.7,0-3,0.5-3,2.8
				c0,2.3,2.2,2.5,2.6,2.5c0.4,0,2.1-0.4,1.9-2.1c0,0.5-0.6,1.5-1.7,1.5c-1.2,0-1.9-0.9-1.9-1.7c0-0.9,0.7-2,2-2
				C6.1,9,7,10.1,7,11.2C7,12.3,6.1,13.7,4.7,13.7L4.7,13.7z"/>
			<path clip-path="url(#SVGID_4_)" fill="#F3CD2D" d="M3.7,12L3.7,12c0.1,0,0.6-1.2,2.1-2.1C5.6,10,4.6,10.5,3.7,12L3.7,12z"/>
			<g clip-path="url(#SVGID_4_)">
				<path fill="#F3CD2D" d="M3.8,12.1L3.8,12.1c0.3-0.7,1-1.6,2-2.1l0,0c-0.3,0.2-0.6,0.4-0.8,0.6c0.2-0.2,0.5-0.4,0.8-0.6l0,0
					C4.4,10.8,3.8,12,3.8,12.1L3.8,12.1L3.8,12.1z M4.2,11.3C4,11.5,3.9,11.8,3.7,12l0,0C3.8,11.9,3.9,11.7,4.2,11.3L4.2,11.3z"/>
			</g>
			<path clip-path="url(#SVGID_4_)" fill="#F3CD2D" d="M3.9,11.8c0,0-0.2-0.3,0-0.5C4,11.1,3.9,11.7,3.9,11.8L4,11.6
				c0,0-0.1-0.4,0-0.5C4.1,11,4,11.5,4,11.5l0.1-0.1c0,0-0.1-0.4,0-0.5c0.1-0.1,0,0.4,0,0.4l0.1-0.1c0,0-0.1-0.4,0.1-0.5
				c0.1-0.1,0,0.4,0,0.4L4.5,11c0,0,0-0.4,0.1-0.4c0.1-0.1,0,0.3,0,0.3l0.1-0.1c0,0,0-0.3,0.1-0.4c0.1-0.1,0,0.3,0,0.3l0.1-0.1
				c0,0,0-0.3,0.1-0.4c0.1-0.1,0,0.3,0,0.3L5,10.5c0,0,0-0.4,0.1-0.4c0.1,0-0.1,0.3-0.1,0.3l0.1-0.1c0,0,0-0.3,0.2-0.4
				c0.1,0-0.1,0.3-0.1,0.3l0.1-0.1c0,0,0.1-0.3,0.2-0.4c0.1,0-0.1,0.3-0.1,0.3l0.1-0.1c0,0,0.1-0.3,0.2-0.3c0.1,0-0.1,0.2-0.1,0.2
				L5.7,10c0,0,0.2-0.3,0.2-0.2C6,9.8,5.7,10,5.7,10L5.6,10C5.6,10,6,9.9,6,10c0,0.1-0.5,0.1-0.5,0.1l-0.1,0.1c0,0,0.4-0.1,0.3,0
				c0,0.1-0.4,0.1-0.4,0.1l-0.1,0.1c0,0,0.4-0.1,0.3,0c0,0.1-0.4,0.1-0.4,0.1l-0.1,0.1c0,0,0.4-0.1,0.3,0c-0.1,0.1-0.5,0.1-0.5,0.1
				l-0.1,0.1c0,0,0.4-0.1,0.3,0c0,0.1-0.5,0.2-0.5,0.2l-0.1,0.1c0,0,0.4-0.1,0.3,0C4.8,11,4.5,11,4.5,11l-0.1,0.1
				c0,0,0.4-0.2,0.3-0.1c-0.1,0.1-0.5,0.2-0.5,0.2l-0.1,0.1c0,0,0.4-0.2,0.3-0.1c0,0.1-0.4,0.2-0.4,0.2L4,11.6c0,0,0.4-0.3,0.4-0.1
				c0,0.1-0.4,0.2-0.4,0.2L3.9,11.8c0.1,0,0.5-0.2,0.5-0.1C4.3,11.8,3.9,11.9,3.9,11.8L3.9,11.8z"/>
			<path clip-path="url(#SVGID_4_)" fill="#F3CD2D" d="M6,12L6,12C6,12,5.4,10.8,4,9.9C4.1,10,5.1,10.5,6,12L6,12z"/>
			<g clip-path="url(#SVGID_4_)">
				<path fill="#F3CD2D" d="M6,12.1L6,12.1c0,0-0.6-1.3-2-2.1l0,0l0,0l0,0c0,0,0,0,0,0l0,0C5,10.4,5.7,11.3,6,12.1L6,12.1L6,12.1z
					 M5.4,11.1C5.8,11.6,5.9,11.9,6,12l0,0C5.9,11.7,5.7,11.4,5.4,11.1L5.4,11.1z"/>
			</g>
			<path clip-path="url(#SVGID_4_)" fill="#F3CD2D" d="M5.9,11.8c0,0,0.2-0.3,0-0.5C5.8,11.1,5.8,11.7,5.9,11.8l-0.1-0.2
				c0,0,0.1-0.4,0-0.5c-0.1-0.1-0.1,0.4-0.1,0.4l-0.1-0.1c0,0,0.1-0.4,0-0.5c-0.1-0.1,0,0.4,0,0.4l-0.1-0.1c0,0,0.1-0.4-0.1-0.5
				c-0.1-0.1,0,0.4,0,0.4L5.3,11c0,0,0-0.4-0.1-0.4c-0.1-0.1,0,0.3,0,0.3l-0.1-0.1c0,0,0-0.3-0.1-0.4c-0.1-0.1,0,0.3,0,0.3L5,10.7
				c0,0,0-0.3-0.1-0.4c-0.1-0.1,0,0.3,0,0.3l-0.1-0.1c0,0,0-0.4-0.1-0.4c-0.1,0,0.1,0.3,0.1,0.3l-0.1-0.1c0,0,0-0.3-0.2-0.4
				c-0.1,0,0.1,0.3,0.1,0.3l-0.1-0.1c0,0-0.1-0.3-0.2-0.4c-0.1,0,0.1,0.3,0.1,0.3l-0.1-0.1c0,0-0.1-0.3-0.2-0.3
				C3.9,9.8,4.1,10,4.1,10L4,10c0,0-0.2-0.3-0.2-0.2C3.7,9.8,4,10,4,10L4.1,10c0,0-0.4-0.2-0.4-0.1c0,0.1,0.5,0.1,0.5,0.1l0.1,0.1
				c0,0-0.4-0.1-0.3,0c0,0.1,0.4,0.1,0.4,0.1l0.1,0.1c0,0-0.4-0.1-0.3,0c0,0.1,0.4,0.1,0.4,0.1l0.1,0.1c0,0-0.4-0.1-0.3,0
				c0.1,0.1,0.5,0.1,0.5,0.1l0.1,0.1c0,0-0.4-0.1-0.3,0c0,0.1,0.5,0.2,0.5,0.2l0.1,0.1c0,0-0.4-0.1-0.3,0C5,11,5.3,11,5.3,11
				l0.1,0.1c0,0-0.4-0.2-0.3-0.1c0.1,0.1,0.5,0.2,0.5,0.2l0.1,0.1c0,0-0.4-0.2-0.3-0.1c0,0.1,0.4,0.2,0.4,0.2l0.1,0.1
				c0,0-0.4-0.3-0.4-0.1c0,0.1,0.4,0.2,0.4,0.2L5.9,11.8c-0.1,0-0.5-0.2-0.5-0.1C5.4,11.8,5.9,11.9,5.9,11.8L5.9,11.8z"/>
		</g>
	</g>
</g>
<g>
	<path fill="#CCCCCC" d="M39.8,0.2v22.5H0.2V0.2H39.8 M40,0H0v23h40V0L40,0z"/>
</g>
</svg>
