<?xml version="1.0" encoding="utf-8"?>
<!-- Generator: Adobe Illustrator 17.1.0, SVG Export Plug-In . SVG Version: 6.00 Build 0)  -->
<!DOCTYPE svg PUBLIC "-//W3C//DTD SVG 1.1//EN" "http://www.w3.org/Graphics/SVG/1.1/DTD/svg11.dtd">
<svg version="1.1" id="Layer_1" xmlns="http://www.w3.org/2000/svg" xmlns:xlink="http://www.w3.org/1999/xlink" x="0px" y="0px"
	 viewBox="0 0 40 23" enable-background="new 0 0 40 23" xml:space="preserve">
<g>
	<g>
		<defs>
			<rect id="SVGID_35_" width="40" height="23"/>
		</defs>
		<clipPath id="SVGID_2_">
			<use xlink:href="#SVGID_35_"  overflow="visible"/>
		</clipPath>
		<rect y="15.3" clip-path="url(#SVGID_2_)" width="40" height="7.7"/>
		<g clip-path="url(#SVGID_2_)">
			<defs>
				<rect id="SVGID_37_" width="40" height="23"/>
			</defs>
			<clipPath id="SVGID_4_">
				<use xlink:href="#SVGID_37_"  overflow="visible"/>
			</clipPath>
			<g clip-path="url(#SVGID_4_)">
				<path d="M40,23H0v-7.7H40V23L40,23z M0,23H40v-7.6H0V23L0,23z"/>
			</g>
		</g>
		<rect y="7.7" clip-path="url(#SVGID_2_)" fill="#FFFFFF" width="40" height="7.7"/>
		<g clip-path="url(#SVGID_2_)">
			<defs>
				<rect id="SVGID_39_" width="40" height="23"/>
			</defs>
			<clipPath id="SVGID_6_">
				<use xlink:href="#SVGID_39_"  overflow="visible"/>
			</clipPath>
			<g clip-path="url(#SVGID_6_)">
				<path fill="#FFFFFF" d="M40,15.4H0V7.6H40V15.4L40,15.4z M0,15.3H40V7.7H0V15.3L0,15.3z"/>
			</g>
		</g>
		<rect y="0" clip-path="url(#SVGID_2_)" fill="#BC0030" width="40" height="7.7"/>
		<g clip-path="url(#SVGID_2_)">
			<defs>
				<rect id="SVGID_41_" width="40" height="23"/>
			</defs>
			<clipPath id="SVGID_8_">
				<use xlink:href="#SVGID_41_"  overflow="visible"/>
			</clipPath>
			<g clip-path="url(#SVGID_8_)">
				<path fill="#BC0030" d="M40,7.7H0V0H40V7.7L40,7.7z M0,7.6H40V0H0V7.6L0,7.6z"/>
			</g>
			<path clip-path="url(#SVGID_8_)" fill="#FFFFFF" d="M19.8,15.1c0.8,0,1.5-0.1,1.9-0.2c0.2,0,0.2-0.1,0.2-0.2
				c0.2-0.1,0.1-0.3,0.2-0.3c-0.1,0-0.2-0.2-0.3-0.2c0-0.2-0.2-0.2-0.4-0.2c-0.4,0.1-1,0.1-1.6,0.1c-0.6,0-1.2,0-1.6-0.1
				c-0.2-0.1-0.4,0-0.4,0.2c-0.2,0-0.2,0.2-0.3,0.2c0.1,0,0,0.2,0.2,0.3c0,0.1,0,0.2,0.2,0.2C18.3,15.1,19,15.1,19.8,15.1L19.8,15.1
				z"/>
			<g clip-path="url(#SVGID_8_)">
				<path fill="#F0C727" d="M19.8,15.2c-0.8,0-1.5-0.1-1.9-0.2c-0.2,0-0.2-0.2-0.2-0.3c-0.1-0.1-0.1-0.1-0.1-0.2c0,0,0,0,0,0
					c0,0,0,0,0,0c0,0-0.1,0-0.1-0.1c0,0,0-0.1,0.1-0.1c0,0,0,0,0,0c0,0,0,0,0,0v0v0c0,0,0,0,0.1-0.1c0,0,0.1-0.1,0.2-0.1
					c0-0.2,0.3-0.3,0.5-0.2c0.3,0.1,0.8,0.1,1.3,0.1l0.3,0c0.8,0,1.3,0,1.6-0.1c0.2-0.1,0.5,0,0.5,0.2c0.1,0,0.1,0.1,0.2,0.1
					c0,0,0,0.1,0.1,0.1c0,0,0,0,0,0c0,0,0.1,0,0.1,0.1c0,0,0,0.1-0.1,0.1c0,0,0,0,0,0c0,0,0,0,0,0v0v0c0,0,0,0,0,0c0,0,0,0,0,0
					c0,0.1,0,0.1-0.1,0.2c0,0.1,0,0.2-0.2,0.3C21.3,15.1,20.6,15.2,19.8,15.2L19.8,15.2z M17.6,14.5C17.6,14.5,17.6,14.5,17.6,14.5
					c0,0.1,0,0.2,0.1,0.2c0,0,0.1,0,0.1,0.1c0,0.1,0,0.1,0.1,0.2c0.4,0.1,1.1,0.2,1.9,0.2c0.8,0,1.5-0.1,1.9-0.2
					c0.1,0,0.1-0.1,0.1-0.2c0,0,0-0.1,0.1-0.1c0.1,0,0.1-0.1,0.1-0.1c0,0,0,0,0-0.1c0,0,0,0-0.1-0.1c0,0-0.1-0.1-0.1-0.1
					c0,0-0.1,0-0.1,0c0,0,0,0,0-0.1c0,0,0-0.1-0.2-0.1c0,0-0.1,0-0.1,0c-0.3,0.1-0.8,0.2-1.6,0.2l-0.3,0c-0.5,0-1,0-1.3-0.1
					c0,0-0.1,0-0.1,0c-0.2,0-0.2,0.1-0.2,0.1c0,0,0,0,0,0.1c0,0,0,0-0.1,0C17.7,14.3,17.7,14.4,17.6,14.5
					C17.6,14.4,17.6,14.4,17.6,14.5L17.6,14.5z"/>
			</g>
			<path clip-path="url(#SVGID_8_)" fill="#F4D134" d="M18,14.4C18,14.4,18,14.4,18,14.4C18.1,14.4,18.1,14.4,18,14.4L18,14.4z"/>
			<g clip-path="url(#SVGID_8_)">
				<path fill="#F0C727" d="M18,14.5C18,14.5,18,14.4,18,14.5c-0.1-0.1,0-0.1,0-0.1C18.1,14.3,18.1,14.4,18,14.5
					C18.1,14.4,18.1,14.5,18,14.5L18,14.5z"/>
			</g>
			<path clip-path="url(#SVGID_8_)" fill="#F4D134" d="M18,14.3C18,14.3,18,14.3,18,14.3C18.1,14.3,18.1,14.3,18,14.3L18,14.3z"/>
			<g clip-path="url(#SVGID_8_)">
				<path fill="#F0C727" d="M18,14.4C18,14.4,18,14.3,18,14.4c-0.1-0.1,0-0.1,0-0.1C18.1,14.2,18.1,14.3,18,14.4
					C18.1,14.3,18.1,14.4,18,14.4L18,14.4z"/>
			</g>
			<path clip-path="url(#SVGID_8_)" fill="#F4D134" d="M18,14.7C18,14.7,18,14.8,18,14.7C18.1,14.8,18.1,14.7,18,14.7L18,14.7z"/>
			<g clip-path="url(#SVGID_8_)">
				<path fill="#F0C727" d="M18,14.8C18,14.8,18,14.8,18,14.8c-0.1-0.1,0-0.1,0-0.1C18.1,14.7,18.1,14.7,18,14.8
					C18.1,14.8,18.1,14.8,18,14.8L18,14.8z"/>
			</g>
			<path clip-path="url(#SVGID_8_)" fill="#F4D134" d="M18.2,14.7C18.1,14.7,18.1,14.8,18.2,14.7C18.2,14.8,18.2,14.7,18.2,14.7
				L18.2,14.7z"/>
			<g clip-path="url(#SVGID_8_)">
				<path fill="#F0C727" d="M18.2,14.8C18.1,14.8,18.1,14.8,18.2,14.8c-0.1-0.1,0-0.1,0-0.1C18.2,14.7,18.2,14.8,18.2,14.8
					C18.2,14.8,18.2,14.8,18.2,14.8L18.2,14.8z"/>
			</g>
			<path clip-path="url(#SVGID_8_)" fill="#F4D134" d="M18.3,14.8C18.3,14.8,18.3,14.8,18.3,14.8C18.3,14.8,18.3,14.8,18.3,14.8
				L18.3,14.8z"/>
			<g clip-path="url(#SVGID_8_)">
				<path fill="#F0C727" d="M18.3,14.9C18.3,14.9,18.2,14.8,18.3,14.9c-0.1-0.1,0-0.1,0-0.1C18.3,14.7,18.4,14.8,18.3,14.9
					C18.4,14.8,18.3,14.9,18.3,14.9L18.3,14.9z"/>
			</g>
			<path clip-path="url(#SVGID_8_)" fill="#F4D134" d="M20.2,14.5C20.1,14.5,20.1,14.5,20.2,14.5C20.2,14.5,20.2,14.5,20.2,14.5
				L20.2,14.5z"/>
			<g clip-path="url(#SVGID_8_)">
				<path fill="#F0C727" d="M20.2,14.6C20.2,14.6,20.1,14.5,20.2,14.6c-0.1-0.1,0-0.1,0-0.1C20.2,14.4,20.2,14.5,20.2,14.6
					C20.2,14.5,20.2,14.6,20.2,14.6L20.2,14.6z"/>
			</g>
			<path clip-path="url(#SVGID_8_)" fill="#F4D134" d="M20.2,14.6C20.1,14.6,20.1,14.6,20.2,14.6C20.2,14.6,20.2,14.6,20.2,14.6
				L20.2,14.6z"/>
			<g clip-path="url(#SVGID_8_)">
				<path fill="none" d="M20.2,14.6C20.1,14.6,20.1,14.6,20.2,14.6C20.2,14.6,20.2,14.6,20.2,14.6z"/>
			</g>
			<path clip-path="url(#SVGID_8_)" fill="#F4D134" d="M20.3,14.9C20.3,14.9,20.3,15,20.3,14.9C20.3,15,20.3,14.9,20.3,14.9
				L20.3,14.9z"/>
			<g clip-path="url(#SVGID_8_)">
				<path fill="#F0C727" d="M20.3,15C20.3,15,20.2,14.9,20.3,15c-0.1-0.1,0-0.1,0-0.1C20.3,14.9,20.4,14.9,20.3,15
					C20.4,14.9,20.3,15,20.3,15L20.3,15z"/>
			</g>
			<path clip-path="url(#SVGID_8_)" fill="#F4D134" d="M20.4,14.9C20.4,14.9,20.4,15,20.4,14.9C20.4,15,20.4,14.9,20.4,14.9
				L20.4,14.9z"/>
			<g clip-path="url(#SVGID_8_)">
				<path fill="#F0C727" d="M20.4,15C20.4,15,20.3,15,20.4,15c-0.1-0.1-0.1-0.1,0-0.1C20.4,14.9,20.5,14.9,20.4,15
					C20.5,15,20.5,15,20.4,15L20.4,15z"/>
			</g>
			<path clip-path="url(#SVGID_8_)" fill="#F4D134" d="M21.7,14.7C21.6,14.7,21.6,14.7,21.7,14.7C21.7,14.7,21.7,14.7,21.7,14.7
				L21.7,14.7z"/>
			<g clip-path="url(#SVGID_8_)">
				<path fill="#F0C727" d="M21.7,14.7C21.6,14.7,21.6,14.7,21.7,14.7c-0.1-0.1,0-0.1,0-0.1C21.7,14.6,21.7,14.6,21.7,14.7
					C21.7,14.7,21.7,14.7,21.7,14.7L21.7,14.7z"/>
			</g>
			<g clip-path="url(#SVGID_8_)">
				<path fill="#F0C727" d="M18.4,14.8C18.3,14.8,18.3,14.8,18.4,14.8c-0.1,0-0.1,0-0.2-0.1c0,0-0.1,0-0.1,0c0,0-0.1,0-0.1-0.1
					c0-0.1,0.1-0.1,0.1-0.2l0-0.1c0,0,0,0,0.1,0c0,0,0,0,0,0l0,0.1c0,0.1,0,0.2-0.1,0.2c0,0,0,0,0,0c0,0,0,0,0.1,0c0,0,0,0,0-0.1
					c0-0.1,0-0.1,0-0.1c0,0,0,0,0,0l0,0c0,0,0,0,0,0c0,0,0,0,0,0c0,0,0,0.1,0,0.1C18.3,14.7,18.3,14.7,18.4,14.8
					C18.3,14.7,18.4,14.7,18.4,14.8c0-0.1,0-0.1,0.1-0.2l0,0l0,0c0,0,0,0,0.1,0c0,0,0,0.1,0,0.1C18.5,14.7,18.5,14.7,18.4,14.8
					C18.4,14.8,18.4,14.8,18.4,14.8L18.4,14.8z"/>
			</g>
			<g clip-path="url(#SVGID_8_)">
				<path fill="#F0C727" d="M18.1,14.7C18.1,14.7,18.1,14.7,18.1,14.7c-0.1,0-0.2-0.1-0.2-0.1c0,0,0-0.1,0.1-0.1c0,0,0,0,0,0
					c0,0,0,0,0,0c-0.1,0-0.1,0-0.1,0C18.1,14.6,18.1,14.6,18.1,14.7C18.2,14.6,18.2,14.6,18.1,14.7C18.2,14.7,18.1,14.7,18.1,14.7
					L18.1,14.7z"/>
			</g>
			<g clip-path="url(#SVGID_8_)">
				<path fill="#F0C727" d="M19,14.9C19,14.9,19,14.9,19,14.9c-0.1,0-0.1,0-0.1-0.1c0,0,0,0-0.1,0c-0.1,0-0.2,0-0.2,0
					c0,0,0,0.1-0.1,0.1c0,0,0,0-0.1,0c0,0,0,0,0-0.1c0,0,0,0,0.1,0c0,0,0,0,0-0.1c0,0,0-0.1,0-0.1c0.1,0,0.1,0,0.1,0.1
					c0,0,0,0,0,0.1c0,0,0.1,0,0.1,0c0,0,0-0.1,0-0.1c0-0.1,0.1-0.1,0.1-0.1c0.1,0,0.1,0.1,0.1,0.1c0,0,0,0.1-0.1,0.1c0,0,0,0,0,0
					C19,14.9,19,14.9,19,14.9L19,14.9c0-0.1,0-0.1,0-0.2v-0.3c0,0,0.1,0,0.1,0v0.3C19.1,14.8,19.1,14.9,19,14.9
					C19,14.9,19,14.9,19,14.9L19,14.9z"/>
			</g>
			<g clip-path="url(#SVGID_8_)">
				<path fill="#F0C727" d="M19.2,14.8C19.1,14.8,19.1,14.8,19.2,14.8c0-0.1,0-0.2,0-0.2c0-0.1,0-0.1,0-0.2c0,0,0.1,0,0.1,0
					c0,0,0,0.1,0,0.2C19.2,14.7,19.2,14.8,19.2,14.8C19.2,14.8,19.2,14.8,19.2,14.8L19.2,14.8z"/>
			</g>
			<g clip-path="url(#SVGID_8_)">
				<path fill="#F0C727" d="M19.3,15C19.2,15,19.2,15,19.3,15C19.2,15,19.2,15,19.3,15c0-0.1,0.1-0.2,0.1-0.2c0,0,0,0,0,0
					c0,0,0-0.1,0-0.1c0,0,0,0,0.1,0c0,0,0.1,0,0.1,0.1c0,0,0,0,0,0c0,0,0,0,0,0c0,0,0,0,0-0.1c0,0,0,0,0,0c0,0,0-0.1,0.1-0.1
					c0,0,0,0,0.1,0.1c0,0,0,0,0.1,0c0.1,0,0.2,0,0.2,0c0.1,0,0.1,0,0.1,0.1c0,0,0,0.1,0,0.1c0,0.1,0,0.1-0.1,0.1c0,0-0.1,0-0.1,0
					c0,0,0,0-0.1,0h-0.2c0,0,0,0,0,0C19.4,14.9,19.4,15,19.3,15C19.3,15,19.3,15,19.3,15L19.3,15z M19.5,14.8h0.1
					c0.1,0,0.1,0.1,0.1,0.1c0,0,0-0.1,0-0.1c0,0,0-0.1,0-0.1C19.8,14.8,19.6,14.8,19.5,14.8C19.6,14.7,19.6,14.8,19.5,14.8
					C19.5,14.8,19.5,14.8,19.5,14.8L19.5,14.8z"/>
			</g>
			<g clip-path="url(#SVGID_8_)">
				<path fill="#F0C727" d="M20,14.9C20,14.9,20,14.9,20,14.9C19.9,14.9,19.9,14.9,20,14.9c-0.1,0-0.1,0-0.1,0c0,0,0,0,0,0v0
					L20,14.9C19.9,14.8,19.9,14.8,20,14.9c-0.1-0.1,0-0.2,0-0.2c0,0,0.1,0,0.1,0c0,0,0.1,0.1,0.1,0.1C20.1,14.8,20,14.9,20,14.9
					C20,14.9,20,14.9,20,14.9L20,14.9z"/>
			</g>
			<g clip-path="url(#SVGID_8_)">
				<path fill="#F0C727" d="M20.2,14.9C20.2,14.9,20.2,14.9,20.2,14.9C20.2,14.9,20.2,14.8,20.2,14.9c0-0.1,0-0.1,0-0.1
					c0-0.1,0-0.2,0-0.2c0,0,0,0,0,0c0,0,0,0,0.1,0c0,0.1,0,0.2,0,0.3c0,0,0.1,0,0.1,0c0,0,0,0,0-0.1c0,0,0-0.1,0-0.1c0,0,0,0,0.1,0
					c0,0,0.1,0,0.1,0.1c0,0,0,0,0,0c0,0,0,0,0,0c0,0.1,0,0.2-0.1,0.2C20.4,14.9,20.3,14.9,20.2,14.9C20.3,14.8,20.3,14.8,20.2,14.9
					C20.3,14.9,20.3,14.9,20.2,14.9L20.2,14.9z"/>
			</g>
			<g clip-path="url(#SVGID_8_)">
				<path fill="#F0C727" d="M20.6,15C20.6,15,20.6,15,20.6,15C20.6,14.9,20.6,14.9,20.6,15c0-0.1,0-0.1,0-0.2
					c-0.1,0-0.1-0.1-0.1-0.1c0,0,0-0.1,0-0.1c0,0,0.1,0,0.1,0.1C20.8,14.7,20.7,14.9,20.6,15C20.6,15,20.6,15,20.6,15L20.6,15z"/>
			</g>
			<g clip-path="url(#SVGID_8_)">
				<path fill="#F0C727" d="M20.8,14.9C20.8,14.9,20.8,14.9,20.8,14.9C20.8,14.9,20.8,14.8,20.8,14.9c0-0.1,0-0.1,0-0.1
					c-0.1,0-0.1,0-0.1-0.1c0,0,0-0.1,0.1-0.1c0,0,0.1,0,0.1,0c0,0,0.1,0,0.1,0.1c0.1,0,0.3-0.1,0.4-0.1c0,0,0,0,0.1,0c0,0,0,0,0,0.1
					c-0.1,0.1-0.3,0.1-0.4,0.1C20.9,14.8,20.9,14.9,20.8,14.9C20.8,14.9,20.8,14.9,20.8,14.9L20.8,14.9z"/>
			</g>
			<g clip-path="url(#SVGID_8_)">
				<path fill="#F0C727" d="M21.2,14.8C21.2,14.8,21.2,14.8,21.2,14.8c-0.1,0-0.1-0.1-0.1-0.1c0,0,0,0,0,0c0,0-0.1,0-0.1,0
					c0-0.1,0-0.1,0.1-0.1c0,0,0,0,0,0l0-0.1c0,0,0,0,0,0c0,0,0,0,0.1,0l0,0.1c0,0,0,0,0,0c0,0,0,0,0.1,0c0,0,0.1,0.1,0.1,0.1
					C21.3,14.7,21.3,14.7,21.2,14.8C21.2,14.8,21.2,14.8,21.2,14.8L21.2,14.8z"/>
			</g>
			<g clip-path="url(#SVGID_8_)">
				<path fill="#F0C727" d="M21.4,14.7c-0.1,0-0.1,0-0.1-0.1c0,0,0-0.1,0-0.1c0-0.1,0.2-0.1,0.2,0c0,0,0,0.1,0,0.1
					C21.5,14.7,21.5,14.7,21.4,14.7L21.4,14.7z"/>
			</g>
			<g clip-path="url(#SVGID_8_)">
				<path fill="none" d="M21.5,14.6C21.5,14.6,21.6,14.6,21.5,14.6L21.5,14.6z"/>
			</g>
			<g clip-path="url(#SVGID_8_)">
				<path fill="#F0C727" d="M21.7,14.6C21.6,14.6,21.6,14.6,21.7,14.6c-0.1,0-0.2-0.1-0.2-0.3c0,0,0,0,0-0.1c0,0-0.1,0-0.1,0
					c0,0,0,0-0.1,0c0,0,0,0,0-0.1c0,0,0.1-0.1,0.2,0c0,0,0.1,0.1,0.1,0.1C21.6,14.4,21.6,14.5,21.7,14.6
					C21.7,14.5,21.7,14.5,21.7,14.6C21.7,14.5,21.7,14.5,21.7,14.6c0-0.1,0.1-0.2,0.1-0.1c0,0,0,0.1,0,0.1
					C21.7,14.6,21.7,14.6,21.7,14.6L21.7,14.6z"/>
			</g>
			<g clip-path="url(#SVGID_8_)">
				<path fill="none" d="M18.7,14.6L18.7,14.6L18.7,14.6z"/>
			</g>
			<g clip-path="url(#SVGID_8_)">
				<path fill="none" d="M18.9,14.7L18.9,14.7L18.9,14.7z"/>
			</g>
			<path clip-path="url(#SVGID_8_)" fill="#FFFFFF" d="M19.8,11.7l2.6,2.4l-0.2-4.4c0-0.7-0.6-0.5-1-0.3c-0.4,0.3-0.9,0.3-1.4,0.1
				c-0.5,0.2-1,0.2-1.4-0.1c-0.4-0.2-1-0.4-1,0.3l-0.2,4.4L19.8,11.7z"/>
			<g clip-path="url(#SVGID_8_)">
				<path fill="#F0C727" d="M17.1,14.1C17.1,14.1,17.1,14.1,17.1,14.1C17.1,14.1,17.1,14.1,17.1,14.1l0.1-4.4c0-0.4,0.3-0.5,0.5-0.5
					c0.2,0,0.5,0.1,0.6,0.2c0.4,0.2,0.9,0.3,1.4,0.1c0.6,0.2,1,0.2,1.4-0.1c0.1-0.1,0.4-0.2,0.6-0.2c0.2,0,0.4,0.1,0.5,0.5l0.2,4.4
					c0,0,0,0,0,0c0,0,0,0,0,0l-2.6-2.4L17.1,14.1C17.1,14.1,17.1,14.1,17.1,14.1L17.1,14.1z M17.7,9.3c-0.2,0-0.4,0.1-0.4,0.4
					L17.2,14l2.6-2.3c0,0,0,0,0.1,0l2.6,2.3l-0.2-4.3c0-0.5-0.4-0.6-1-0.2c-0.4,0.3-0.9,0.3-1.5,0.1c-0.5,0.2-1,0.2-1.4-0.1
					C18.1,9.4,17.9,9.3,17.7,9.3L17.7,9.3z"/>
			</g>
			<path clip-path="url(#SVGID_8_)" fill="#FFFFFF" d="M20.2,9.7c0.1,0.1,0.3,0.1,0.4,0.1c-0.3-0.2-0.4-0.8-0.4-1
				c0.1-0.5-0.1-0.8-0.4-0.8c-0.1,0-0.1,0-0.2,0c-0.1,0-0.2,0.1-0.2,0.1c-0.1-0.1-0.2,0-0.3-0.1c-0.1,0-0.2,0-0.2,0.2l0.1,0
				c0,0,0.1,0,0.1,0.1c0.1,0.1,0.2,0.1,0.2,0.3c0.1,0.4,0,0.9-0.4,1.3c0.1,0,0.2,0,0.4-0.1c-0.1,0.1-0.1,0.1-0.1,0.2
				c0.2,0,0.3-0.1,0.4-0.2c0,0.1,0.1,0.1,0.2,0.2c0-0.1,0.1-0.1,0.2-0.2c0.1,0.1,0.2,0.2,0.4,0.2C20.3,9.8,20.3,9.8,20.2,9.7
				L20.2,9.7z"/>
			<g clip-path="url(#SVGID_8_)">
				<path fill="#F0C727" d="M19.1,9.9L19.1,9.9c0.1-0.1,0.1-0.1,0.1-0.1c-0.1,0-0.2,0-0.3,0h-0.1l0.1-0.1c0.4-0.3,0.5-0.7,0.4-1.2
					c0-0.2-0.1-0.2-0.2-0.3l0,0c-0.1,0-0.1-0.1-0.1-0.1l-0.1,0V8.2c0-0.2,0.2-0.3,0.3-0.2c0,0,0.1,0,0.1,0c0,0,0.1,0,0.1,0
					c0,0,0.1-0.1,0.2-0.1c0.1,0,0.2,0,0.2,0c0,0,0,0,0.1,0c0.3,0.1,0.5,0.4,0.4,0.9c0,0.2,0.1,0.8,0.4,1l0.1,0.1h-0.1
					c-0.1,0-0.2,0-0.3,0c0,0,0,0,0.1,0.1l0.1,0.1l-0.1,0c-0.1,0-0.3-0.1-0.4-0.2c0,0,0,0,0,0.1c0,0-0.1,0.1-0.1,0.1l0,0.1l0-0.1
					c0,0,0-0.1-0.1-0.1c0,0,0,0,0-0.1c-0.1,0.1-0.3,0.2-0.4,0.2L19.1,9.9L19.1,9.9z M19.9,9.6L19.9,9.6c0.1,0.1,0.2,0.2,0.3,0.3
					c0,0,0-0.1-0.1-0.1l0.1-0.1c0.1,0.1,0.2,0.1,0.3,0.1c-0.3-0.3-0.3-0.8-0.3-1C20.3,8.3,20.1,8,19.9,8c0,0,0,0-0.1,0
					c0,0-0.1,0-0.1,0c-0.1,0-0.1,0.1-0.2,0.1l0,0l0,0c0,0-0.1,0-0.1,0c0,0-0.1,0-0.1,0c0,0-0.2,0-0.2,0.1l0,0c0.1,0,0.1,0,0.1,0.1
					l0.1,0c0.1,0.1,0.2,0.1,0.2,0.3c0,0.4,0,0.8-0.4,1.2c0.1,0,0.2,0,0.3-0.1l0.1,0.1c0,0,0,0.1-0.1,0.1c0.1,0,0.2-0.1,0.3-0.2
					l0-0.1l0,0.1c0,0,0,0.1,0.1,0.1c0,0,0,0,0,0.1c0,0,0,0,0-0.1C19.9,9.7,19.9,9.6,19.9,9.6L19.9,9.6L19.9,9.6z"/>
			</g>
			<g clip-path="url(#SVGID_8_)">
				<path fill="#F0C727" d="M20.2,9.8C20.2,9.8,20.2,9.8,20.2,9.8C20.1,9.6,20,9.4,20,9.1c0,0,0.1,0,0.1,0
					C20.1,9.4,20.2,9.5,20.2,9.8C20.3,9.7,20.3,9.7,20.2,9.8C20.2,9.8,20.2,9.8,20.2,9.8L20.2,9.8z"/>
			</g>
			<g clip-path="url(#SVGID_8_)">
				<path fill="#F0C727" d="M19.9,9.7C19.9,9.7,19.9,9.7,19.9,9.7c-0.1-0.1-0.1-0.3-0.1-0.6c0,0,0.1,0,0.1,0
					C19.9,9.4,19.9,9.5,19.9,9.7C20,9.6,20,9.7,19.9,9.7C19.9,9.7,19.9,9.7,19.9,9.7L19.9,9.7z"/>
			</g>
			<g clip-path="url(#SVGID_8_)">
				<path fill="#F0C727" d="M19.3,9.8C19.3,9.8,19.3,9.8,19.3,9.8C19.3,9.7,19.3,9.7,19.3,9.8c0-0.2,0.1-0.4,0.1-0.6
					c0,0,0.1,0,0.1,0C19.5,9.4,19.5,9.6,19.3,9.8C19.4,9.8,19.3,9.8,19.3,9.8L19.3,9.8z"/>
			</g>
			<g clip-path="url(#SVGID_8_)">
				<path fill="#F0C727" d="M19.6,9.7C19.6,9.7,19.6,9.7,19.6,9.7C19.6,9.7,19.6,9.6,19.6,9.7c0-0.1,0.1-0.3,0.1-0.6
					c0,0,0.1,0,0.1,0C19.8,9.4,19.7,9.6,19.6,9.7C19.7,9.7,19.6,9.7,19.6,9.7L19.6,9.7z"/>
			</g>
			<path clip-path="url(#SVGID_8_)" fill="#F0C727" d="M19,8.1c0.1,0,0.1,0,0.2,0.1c0.1,0,0.2,0.1,0.2,0.3c0-0.1,0-0.2,0.1-0.2
				C19.4,8.1,19.1,8.1,19,8.1L19,8.1z"/>
			<g clip-path="url(#SVGID_8_)">
				<path fill="#F0C727" d="M19.4,8.5C19.4,8.5,19.4,8.5,19.4,8.5C19.4,8.5,19.4,8.5,19.4,8.5L19.4,8.5C19.4,8.5,19.4,8.5,19.4,8.5
					L19.4,8.5c-0.1-0.2-0.2-0.3-0.2-0.3l0,0l0,0c-0.1,0-0.1,0-0.1,0c0-0.1,0.1-0.1,0.1-0.1c0.1,0,0.3,0.1,0.4,0.2c0,0,0,0,0,0
					c0,0,0,0,0,0c0,0,0,0,0,0C19.4,8.4,19.4,8.4,19.4,8.5C19.4,8.5,19.4,8.5,19.4,8.5C19.4,8.5,19.4,8.5,19.4,8.5
					C19.4,8.5,19.4,8.5,19.4,8.5C19.4,8.5,19.4,8.5,19.4,8.5L19.4,8.5z M19,8.1C19.1,8.1,19.1,8.1,19,8.1l0.1,0.1
					c0.1,0,0.1,0.1,0.2,0.2c0,0,0,0,0,0c0,0,0,0,0.1,0C19.4,8.2,19.2,8.1,19,8.1L19,8.1z"/>
			</g>
			<polygon clip-path="url(#SVGID_8_)" fill="#F0C727" points="19.9,12.2 20.3,13.8 20.1,13.9 20,13.8 19.8,12.4 19.9,13.8 19.8,14 
				19.7,13.8 19.7,12.4 19.5,13.8 19.4,13.9 19.3,13.8 19.7,12.2 			"/>
			<g clip-path="url(#SVGID_8_)">
				<path fill="#F0C727" d="M19.8,14l-0.1-0.2l0-0.7l-0.1,0.7L19.4,14l-0.2-0.1l0.4-1.7l0.3,0l0.4,1.7L20.2,14L20,13.9l-0.1-0.7
					l0,0.7L19.8,14L19.8,14z M19.8,12.4l-0.1,1.5l0.1,0.1l0.1-0.1L19.8,12.4L19.8,12.4z M19.9,12.2l-0.2,0l-0.3,1.6l0.1,0.1l0.1-0.1
					l0.2-1.5l0.1,0l0.1,0l0.2,1.5l0.1,0.1l0.1-0.1L19.9,12.2L19.9,12.2z"/>
			</g>
			<path clip-path="url(#SVGID_8_)" fill="#F0C727" d="M17.6,9.6l-0.2,4.2l-0.3,0.3l0.2-4.4C17.4,9.7,17.6,9.6,17.6,9.6L17.6,9.6z"
				/>
			<path clip-path="url(#SVGID_8_)" fill="#F0C727" d="M18,9.9l-0.2,3.6l-0.3,0.3l0.2-4.1C17.8,9.7,17.9,9.8,18,9.9L18,9.9z"/>
			<path clip-path="url(#SVGID_8_)" fill="#F0C727" d="M18.3,10.1l-0.1,3l-0.2,0.2l0.2-3.4C18.2,10,18.3,10.1,18.3,10.1L18.3,10.1z"
				/>
			<path clip-path="url(#SVGID_8_)" fill="#F0C727" d="M18.7,10.3l-0.1,2.5L18.3,13l0.1-2.8C18.5,10.2,18.6,10.3,18.7,10.3
				L18.7,10.3z"/>
			<path clip-path="url(#SVGID_8_)" fill="#F0C727" d="M19,10.3l-0.1,2.1l-0.2,0.2l0.1-2.3C18.8,10.3,19,10.3,19,10.3L19,10.3z"/>
			<path clip-path="url(#SVGID_8_)" fill="#F0C727" d="M21.9,9.6l0.2,4.2l0.3,0.3l-0.2-4.4C22.2,9.7,22,9.6,21.9,9.6L21.9,9.6z"/>
			<path clip-path="url(#SVGID_8_)" fill="#F0C727" d="M21.6,9.9l0.2,3.6l0.3,0.3l-0.2-4.1C21.8,9.7,21.6,9.8,21.6,9.9L21.6,9.9z"/>
			<path clip-path="url(#SVGID_8_)" fill="#F0C727" d="M21.2,10.1l0.1,3l0.2,0.2L21.5,10C21.4,10,21.3,10.1,21.2,10.1L21.2,10.1z"/>
			<path clip-path="url(#SVGID_8_)" fill="#F0C727" d="M20.9,10.3l0.1,2.5l0.2,0.2l-0.1-2.8C21.1,10.2,20.9,10.3,20.9,10.3
				L20.9,10.3z"/>
			<path clip-path="url(#SVGID_8_)" fill="#F0C727" d="M20.5,10.3l0.1,2.1l0.2,0.2l-0.1-2.3C20.7,10.3,20.6,10.3,20.5,10.3
				L20.5,10.3z"/>
			<polygon clip-path="url(#SVGID_8_)" fill="#FFFFFF" points="19,11.4 18.2,14 19.2,14.1 19.7,12.2 			"/>
			<g clip-path="url(#SVGID_8_)">
				<path fill="#F0C727" d="M19.2,14.2C19.2,14.2,19.2,14.2,19.2,14.2l-1-0.2c0,0,0,0,0,0c0,0,0,0,0,0l0.7-2.6c0,0,0,0,0,0
					c0,0,0,0,0,0l0.7,0.8L19.2,14.2C19.3,14.2,19.2,14.2,19.2,14.2L19.2,14.2z M18.3,14l0.9,0.1l0.4-1.9L19,11.5L18.3,14L18.3,14z"
					/>
			</g>
			<polygon clip-path="url(#SVGID_8_)" fill="#FFFFFF" points="20.6,11.4 21.3,14 20.3,14.1 19.9,12.2 			"/>
			<g clip-path="url(#SVGID_8_)">
				<path fill="#F0C727" d="M20.3,14.2C20.3,14.2,20.3,14.2,20.3,14.2l-0.5-2l0.7-0.8c0,0,0,0,0,0c0,0,0,0,0,0l0.7,2.6c0,0,0,0,0,0
					c0,0,0,0,0,0L20.3,14.2C20.3,14.2,20.3,14.2,20.3,14.2L20.3,14.2z M20.6,11.5l-0.7,0.7l0.4,1.9l0.9-0.1L20.6,11.5L20.6,11.5z"/>
			</g>
			<g clip-path="url(#SVGID_8_)">
				<path fill="#F0C727" d="M18.8,12.6C18.8,12.6,18.8,12.6,18.8,12.6C18.8,12.6,18.8,12.5,18.8,12.6l-0.1-0.2c0,0,0,0,0-0.1
					c0,0,0,0,0.1,0l0.1,0.2l0.2-0.3c0,0,0,0,0.1,0c0,0,0,0,0,0.1L18.8,12.6C18.8,12.6,18.8,12.6,18.8,12.6L18.8,12.6z"/>
			</g>
			<g clip-path="url(#SVGID_8_)">
				<path fill="#F0C727" d="M19.1,12.7C19.1,12.7,19.1,12.7,19.1,12.7C19.1,12.7,19.1,12.7,19.1,12.7L19,11.9c0,0,0,0,0,0
					c0,0,0,0,0,0l0.1,0.7l0.2-0.3c0,0,0,0,0.1,0c0,0,0,0,0,0.1L19.1,12.7C19.2,12.7,19.2,12.7,19.1,12.7L19.1,12.7z"/>
			</g>
			<g clip-path="url(#SVGID_8_)">
				<path fill="#F0C727" d="M19.5,12.9C19.5,12.9,19.5,12.9,19.5,12.9l-0.2-0.5c0,0,0,0,0-0.1c0,0,0,0,0.1,0L19.5,12.9
					C19.5,12.9,19.5,12.9,19.5,12.9C19.5,12.9,19.5,12.9,19.5,12.9L19.5,12.9z"/>
			</g>
			<g clip-path="url(#SVGID_8_)">
				<path fill="#F0C727" d="M19.2,13.3C19.2,13.3,19.2,13.3,19.2,13.3C19.2,13.3,19.2,13.3,19.2,13.3l-0.2-0.4L19,13.1c0,0,0,0,0,0
					c0,0,0,0,0,0l-0.1-0.2L18.6,13c0,0,0,0-0.1,0c0,0,0,0,0-0.1l0.3-0.2c0,0,0,0,0,0c0,0,0,0,0,0l0.1,0.2l0.1-0.2c0,0,0,0,0,0
					c0,0,0,0,0,0l0.1,0.4l0.2-0.2c0,0,0,0,0.1,0c0,0,0,0,0,0.1L19.2,13.3C19.2,13.3,19.2,13.3,19.2,13.3L19.2,13.3z"/>
			</g>
			<g clip-path="url(#SVGID_8_)">
				<path fill="#F0C727" d="M19.3,13.9C19.3,13.9,19.3,13.8,19.3,13.9l-0.1-0.4L19,13.7c0,0,0,0,0,0c0,0,0,0,0,0l-0.1-0.3l-0.2,0.2
					c0,0,0,0,0,0c0,0,0,0,0,0l-0.2-0.4c0,0,0,0,0-0.1c0,0,0,0,0.1,0l0.2,0.4l0.2-0.2c0,0,0,0,0,0c0,0,0,0,0,0l0.1,0.3l0.2-0.2
					c0,0,0,0,0,0c0,0,0,0,0,0L19.3,13.9C19.4,13.8,19.4,13.8,19.3,13.9C19.3,13.9,19.3,13.9,19.3,13.9L19.3,13.9z"/>
			</g>
			<g clip-path="url(#SVGID_8_)">
				<path fill="#F0C727" d="M19.1,14.2C19.1,14.2,19.1,14.2,19.1,14.2C19.1,14.2,19,14.2,19.1,14.2l-0.1-0.3l-0.1,0.2c0,0,0,0,0,0
					c0,0,0,0,0,0l-0.1-0.3L18.5,14c0,0,0,0-0.1,0c0,0,0,0,0-0.1l0.2-0.2c0,0,0,0,0,0c0,0,0,0,0,0l0.1,0.3l0.1-0.2c0,0,0,0,0,0
					c0,0,0,0,0,0l0.1,0.3l0.1-0.1c0,0,0,0,0.1,0c0,0,0,0,0,0.1L19.1,14.2C19.1,14.2,19.1,14.2,19.1,14.2L19.1,14.2z"/>
			</g>
			<g clip-path="url(#SVGID_8_)">
				<path fill="#F0C727" d="M20.8,12.6C20.7,12.6,20.7,12.6,20.8,12.6l-0.3-0.3c0,0,0,0,0-0.1c0,0,0,0,0.1,0l0.2,0.3l0.1-0.2
					c0,0,0,0,0.1,0c0,0,0,0,0,0.1L20.8,12.6C20.8,12.5,20.8,12.6,20.8,12.6C20.8,12.6,20.8,12.6,20.8,12.6L20.8,12.6z"/>
			</g>
			<g clip-path="url(#SVGID_8_)">
				<path fill="#F0C727" d="M20.4,12.7C20.4,12.7,20.4,12.7,20.4,12.7l-0.3-0.4c0,0,0,0,0-0.1c0,0,0,0,0.1,0l0.2,0.3l0.1-0.7
					c0,0,0,0,0,0c0,0,0,0,0,0L20.4,12.7C20.5,12.7,20.4,12.7,20.4,12.7C20.4,12.7,20.4,12.7,20.4,12.7L20.4,12.7z"/>
			</g>
			<g clip-path="url(#SVGID_8_)">
				<path fill="#F0C727" d="M20.1,12.9C20,12.9,20,12.9,20.1,12.9C20,12.9,20,12.9,20.1,12.9l0.1-0.5c0,0,0,0,0.1,0c0,0,0,0,0,0.1
					L20.1,12.9C20.1,12.9,20.1,12.9,20.1,12.9L20.1,12.9z"/>
			</g>
			<g clip-path="url(#SVGID_8_)">
				<path fill="#F0C727" d="M20.3,13.3C20.3,13.3,20.3,13.3,20.3,13.3l-0.3-0.3c0,0,0,0,0-0.1c0,0,0,0,0.1,0l0.2,0.2l0.1-0.4
					c0,0,0,0,0,0c0,0,0,0,0,0l0.1,0.2l0.1-0.2c0,0,0,0,0,0c0,0,0,0,0,0l0.3,0.2c0,0,0,0,0,0.1c0,0,0,0-0.1,0l-0.2-0.2l-0.1,0.2
					c0,0,0,0,0,0c0,0,0,0,0,0l-0.1-0.2L20.3,13.3C20.4,13.3,20.4,13.3,20.3,13.3C20.3,13.3,20.3,13.3,20.3,13.3L20.3,13.3z"/>
			</g>
			<g clip-path="url(#SVGID_8_)">
				<path fill="#F0C727" d="M20.2,13.9C20.2,13.9,20.2,13.9,20.2,13.9C20.2,13.8,20.2,13.8,20.2,13.9l0.1-0.5c0,0,0,0,0,0
					c0,0,0,0,0,0l0.2,0.2l0.1-0.3c0,0,0,0,0,0c0,0,0,0,0,0l0.2,0.2l0.2-0.4c0,0,0,0,0.1,0c0,0,0,0,0,0.1l-0.2,0.4c0,0,0,0,0,0
					c0,0,0,0,0,0l-0.2-0.2l-0.1,0.3c0,0,0,0,0,0c0,0,0,0,0,0l-0.2-0.2L20.2,13.9C20.3,13.8,20.3,13.9,20.2,13.9L20.2,13.9z"/>
			</g>
			<g clip-path="url(#SVGID_8_)">
				<path fill="#F0C727" d="M20.5,14.2C20.5,14.2,20.5,14.2,20.5,14.2L20.3,14c0,0,0,0,0-0.1c0,0,0,0,0.1,0l0.1,0.1l0.1-0.3
					c0,0,0,0,0,0c0,0,0,0,0,0l0.1,0.2l0.1-0.3c0,0,0,0,0,0c0,0,0,0,0,0l0.2,0.2c0,0,0,0,0,0.1c0,0,0,0-0.1,0l-0.1-0.2l-0.1,0.3
					c0,0,0,0,0,0c0,0,0,0,0,0l-0.1-0.2L20.5,14.2C20.5,14.2,20.5,14.2,20.5,14.2C20.5,14.2,20.5,14.2,20.5,14.2L20.5,14.2z"/>
			</g>
			<path clip-path="url(#SVGID_8_)" fill="#FFFFFF" d="M19.8,10c0.3,0.2,0.7,0.4,1.2,0.3c0,1.1-0.3,1.8-1.2,2.3
				c-0.8-0.5-1.1-1.3-1.2-2.3C19.1,10.3,19.5,10.2,19.8,10L19.8,10z"/>
			<g clip-path="url(#SVGID_8_)">
				<path fill="#F0C727" d="M19.8,12.6C19.8,12.6,19.8,12.6,19.8,12.6c-0.8-0.5-1.2-1.2-1.2-2.3c0.1,0,0.1,0,0.2,0l0,0
					c0.4,0,0.7-0.1,1-0.3c0.3,0.2,0.7,0.4,1.2,0.3C20.9,11.4,20.6,12.1,19.8,12.6C19.8,12.6,19.8,12.6,19.8,12.6L19.8,12.6z
					 M18.6,10.3c0.1,1.1,0.4,1.7,1.2,2.3c0.8-0.5,1.1-1.2,1.1-2.3c0,0-0.1,0-0.1,0c-0.4,0-0.8-0.1-1.1-0.3c-0.2,0.2-0.6,0.3-1,0.3
					l0,0C18.7,10.3,18.7,10.3,18.6,10.3L18.6,10.3z"/>
			</g>
			<path clip-path="url(#SVGID_8_)" fill="#F0C727" d="M19.8,12.5c0.6-0.4,1-1.1,1-2.1c-0.4,0-0.8-0.1-1-0.3
				c-0.3,0.2-0.6,0.3-1.1,0.3C18.8,11.3,19.1,12.1,19.8,12.5L19.8,12.5z"/>
			<g clip-path="url(#SVGID_8_)">
				<path fill="#F0C727" d="M19.8,12.5C19.8,12.5,19.8,12.5,19.8,12.5c-0.7-0.4-1-1.2-1.1-2.1c0,0,0,0,0,0c0,0,0,0,0,0
					c0.4,0,0.8-0.1,1-0.3c0,0,0,0,0,0c0.2,0.2,0.6,0.3,1,0.3c0,0,0,0,0,0c0,0,0,0,0,0C20.8,11.3,20.5,12.1,19.8,12.5
					C19.8,12.5,19.8,12.5,19.8,12.5L19.8,12.5z M18.8,10.4c0.1,0.9,0.4,1.6,1,2c0.6-0.4,1-1.1,1-2c-0.3,0-0.7,0-1-0.3
					C19.5,10.3,19.2,10.4,18.8,10.4L18.8,10.4z"/>
			</g>
			<path clip-path="url(#SVGID_8_)" fill="#FFFFFF" d="M18.7,14c0.2,0,0.5,0.1,0.7,0c0.1,0,0.2,0.2,0,0.2c-0.2,0-0.6,0-0.7,0
				c-0.2,0-0.5-0.1-0.7-0.1c-0.2-0.1-0.1-0.3,0.1-0.2C18.3,13.9,18.5,14,18.7,14L18.7,14z"/>
			<g clip-path="url(#SVGID_8_)">
				<path fill="#F0C727" d="M19.2,14.3c-0.2,0-0.4,0-0.5,0c-0.1,0-0.5-0.1-0.7-0.1c-0.1-0.1-0.1-0.2-0.1-0.2c0-0.1,0.1-0.1,0.2-0.1
					c0.2,0,0.4,0.1,0.7,0.2c0.2,0,0.5,0.1,0.7,0h0c0.1,0,0.2,0.1,0.2,0.1c0,0.1,0,0.1-0.2,0.2C19.4,14.3,19.3,14.3,19.2,14.3
					L19.2,14.3z M18.1,13.9c-0.1,0-0.1,0-0.1,0.1c0,0,0,0.1,0.1,0.1c0.2,0.1,0.5,0.1,0.7,0.1c0.2,0,0.5,0.1,0.7,0
					c0.1,0,0.1,0,0.1-0.1c0,0,0-0.1-0.1-0.1c-0.2,0-0.5,0-0.7,0C18.4,14,18.2,13.9,18.1,13.9C18.1,13.9,18.1,13.9,18.1,13.9
					L18.1,13.9z"/>
			</g>
			<path clip-path="url(#SVGID_8_)" fill="#FFFFFF" d="M20.8,14c-0.2,0-0.5,0.1-0.7,0c-0.1,0-0.2,0.2,0,0.2c0.2,0,0.6,0,0.7,0
				c0.2,0,0.5-0.1,0.7-0.1c0.2-0.1,0.1-0.3-0.1-0.2C21.3,13.9,21.1,14,20.8,14L20.8,14z"/>
			<g clip-path="url(#SVGID_8_)">
				<path fill="#F0C727" d="M20.3,14.3c-0.1,0-0.2,0-0.2,0c-0.1,0-0.2-0.1-0.2-0.2c0-0.1,0.1-0.2,0.2-0.2c0.2,0,0.5,0,0.7,0
					c0.3,0,0.5-0.1,0.7-0.1c0.1,0,0.2,0.1,0.2,0.1c0,0,0,0.1-0.1,0.2c-0.2,0.1-0.6,0.1-0.7,0.1C20.7,14.3,20.5,14.3,20.3,14.3
					L20.3,14.3z M20.1,14.1C20,14.1,20,14.1,20.1,14.1c-0.1,0.1,0,0.1,0,0.2c0.2,0,0.6,0,0.7,0c0.1,0,0.5-0.1,0.7-0.1
					c0,0,0.1,0,0.1-0.1c0,0-0.1-0.1-0.1-0.1c-0.1,0-0.4,0.1-0.7,0.2C20.6,14.1,20.3,14.1,20.1,14.1L20.1,14.1z"/>
			</g>
			<path clip-path="url(#SVGID_8_)" fill="#FFFFFF" d="M18,13.9c-0.2,0-0.3,0.2-0.2,0.3c0-0.1,0.2-0.1,0.2-0.1
				C18,14,17.9,14,18,13.9L18,13.9z"/>
			<g clip-path="url(#SVGID_8_)">
				<path fill="#F0C727" d="M17.8,14.2C17.7,14.2,17.7,14.2,17.8,14.2c-0.1-0.1-0.1-0.2,0-0.3c0-0.1,0.1-0.1,0.2-0.1c0,0,0,0,0.1,0
					c0,0,0,0,0,0c0,0,0,0,0,0.1c0,0,0,0.1,0,0.1c0,0-0.1,0.1-0.1,0.1C17.8,14.2,17.8,14.2,17.8,14.2C17.8,14.2,17.8,14.2,17.8,14.2
					L17.8,14.2z M17.9,13.9C17.9,13.9,17.8,14,17.9,13.9c-0.1,0.1-0.1,0.1-0.1,0.2c0,0,0,0,0.1,0c0,0,0.1,0,0.1,0
					C17.9,14,17.9,14,17.9,13.9C17.9,14,17.9,13.9,17.9,13.9L17.9,13.9z"/>
			</g>
			<path clip-path="url(#SVGID_8_)" fill="#FFFFFF" d="M18.7,14.4c0-0.1,0.1-0.1,0.1-0.2c0-0.1,0-0.2-0.1-0.2
				c-0.1,0-0.1,0.1-0.1,0.1C18.6,14.3,18.7,14.3,18.7,14.4L18.7,14.4z"/>
			<g clip-path="url(#SVGID_8_)">
				<path fill="#F0C727" d="M18.7,14.5C18.7,14.5,18.7,14.4,18.7,14.5c0-0.1-0.1-0.1-0.1-0.1c0,0-0.1-0.1,0-0.2
					c0-0.1,0.1-0.2,0.2-0.2c0.1,0,0.1,0.1,0.1,0.2c0,0.1,0,0.1-0.1,0.1C18.8,14.4,18.8,14.4,18.7,14.5
					C18.8,14.4,18.7,14.5,18.7,14.5L18.7,14.5z M18.7,14.1C18.7,14.1,18.7,14.1,18.7,14.1c-0.1,0.1-0.1,0.2,0,0.2c0,0,0,0,0,0
					c0,0,0,0,0,0c0,0,0,0,0-0.1C18.8,14.2,18.8,14.1,18.7,14.1L18.7,14.1z"/>
			</g>
			<path clip-path="url(#SVGID_8_)" fill="#FFFFFF" d="M19.6,14.1c0.2,0,0.2,0.2,0.1,0.4c0-0.1-0.2-0.1-0.2-0.2
				C19.5,14.2,19.6,14.2,19.6,14.1L19.6,14.1z"/>
			<g clip-path="url(#SVGID_8_)">
				<path fill="#F0C727" d="M19.7,14.5C19.7,14.5,19.6,14.5,19.7,14.5C19.6,14.5,19.6,14.5,19.7,14.5c0-0.1-0.1-0.1-0.1-0.1
					c0,0-0.1-0.1-0.1-0.1c0-0.1,0-0.1,0.1-0.1c0,0,0,0,0-0.1c0,0,0,0,0,0c0.1,0,0.1,0,0.2,0.1C19.8,14.2,19.8,14.4,19.7,14.5
					C19.7,14.5,19.7,14.5,19.7,14.5L19.7,14.5z M19.6,14.1C19.6,14.2,19.6,14.2,19.6,14.1c-0.1,0.1-0.1,0.1-0.1,0.1c0,0,0,0,0,0
					c0,0,0,0,0.1,0.1C19.7,14.3,19.7,14.2,19.6,14.1C19.7,14.2,19.6,14.1,19.6,14.1L19.6,14.1z"/>
			</g>
			<path clip-path="url(#SVGID_8_)" fill="#FFFFFF" d="M21.6,13.9c0.2,0,0.3,0.2,0.2,0.3c0-0.1-0.2-0.1-0.2-0.1
				C21.6,14,21.6,14,21.6,13.9L21.6,13.9z"/>
			<g clip-path="url(#SVGID_8_)">
				<path fill="#F0C727" d="M21.8,14.2C21.8,14.2,21.8,14.2,21.8,14.2c0,0-0.1-0.1-0.1-0.1c0,0-0.1,0-0.1-0.1c0-0.1,0-0.1,0-0.1
					c0,0,0,0,0-0.1c0,0,0,0,0,0c0,0,0,0,0,0c0.1,0,0.2,0,0.2,0.1C21.9,14,21.9,14.1,21.8,14.2C21.8,14.2,21.8,14.2,21.8,14.2
					L21.8,14.2z M21.6,13.9C21.6,13.9,21.6,14,21.6,13.9c0,0.1,0,0.1,0,0.1c0,0,0,0,0.1,0c0,0,0,0,0.1,0
					C21.8,14.1,21.8,14,21.6,13.9C21.7,14,21.7,13.9,21.6,13.9L21.6,13.9z"/>
			</g>
			<path clip-path="url(#SVGID_8_)" fill="#FFFFFF" d="M20.8,14.4c0-0.1-0.1-0.1-0.1-0.2c0-0.1,0-0.2,0.1-0.2c0.1,0,0.1,0.1,0.1,0.1
				C21,14.3,20.8,14.3,20.8,14.4L20.8,14.4z"/>
			<g clip-path="url(#SVGID_8_)">
				<path fill="#F0C727" d="M20.8,14.5C20.8,14.5,20.8,14.4,20.8,14.5c0-0.1-0.1-0.1-0.1-0.1c0,0-0.1-0.1-0.1-0.1
					c0-0.1,0-0.2,0.1-0.2c0.1,0,0.2,0.1,0.2,0.2c0,0.1,0,0.1-0.1,0.2C20.9,14.4,20.9,14.4,20.8,14.5C20.9,14.4,20.9,14.5,20.8,14.5
					L20.8,14.5z M20.8,14.1c0,0-0.1,0.1-0.1,0.1c0,0,0,0.1,0,0.1c0,0,0,0,0,0c0,0,0,0,0,0C20.9,14.2,20.9,14.2,20.8,14.1
					C20.9,14.1,20.9,14.1,20.8,14.1L20.8,14.1z"/>
			</g>
			<path clip-path="url(#SVGID_8_)" fill="#FFFFFF" d="M20,14.1c-0.2,0-0.2,0.2-0.1,0.4c0-0.1,0.2-0.1,0.2-0.2
				C20.1,14.2,19.9,14.2,20,14.1L20,14.1z"/>
			<g clip-path="url(#SVGID_8_)">
				<path fill="#F0C727" d="M19.9,14.5C19.9,14.5,19.9,14.5,19.9,14.5c-0.1-0.1-0.1-0.2-0.1-0.3c0-0.1,0.1-0.1,0.2-0.1c0,0,0,0,0,0
					c0,0,0,0,0,0c0,0.1,0.1,0.1,0.1,0.2c0,0,0,0.1-0.1,0.1C20,14.4,19.9,14.4,19.9,14.5C19.9,14.5,19.9,14.5,19.9,14.5
					C19.9,14.5,19.9,14.5,19.9,14.5L19.9,14.5z M19.9,14.1C19.9,14.1,19.9,14.2,19.9,14.1c-0.1,0.1,0,0.2,0,0.2c0,0,0,0,0.1-0.1
					c0,0,0,0,0,0C20,14.2,20,14.2,19.9,14.1C20,14.2,19.9,14.2,19.9,14.1L19.9,14.1z"/>
			</g>
			<path clip-path="url(#SVGID_8_)" fill="#FFFFFF" d="M18,13.9c0.1,0,0.2,0,0.2,0.1L18,13.9z"/>
			<g clip-path="url(#SVGID_8_)">
				<path fill="#F0C727" d="M18.2,14C18.2,14,18.2,14,18.2,14L18,14c0,0,0,0,0,0c0,0,0,0,0,0C18.1,13.9,18.2,13.9,18.2,14
					C18.3,14,18.3,14,18.2,14C18.2,14,18.2,14,18.2,14L18.2,14z"/>
			</g>
			<path clip-path="url(#SVGID_8_)" fill="#FFFFFF" d="M18.3,14c0,0,0.2,0,0.2,0.1L18.3,14z"/>
			<g clip-path="url(#SVGID_8_)">
				<path fill="#F0C727" d="M18.6,14.1C18.6,14.1,18.6,14.1,18.6,14.1l-0.2-0.1c0,0,0,0,0,0C18.3,14,18.5,14,18.6,14.1
					C18.6,14.1,18.6,14.1,18.6,14.1C18.6,14.1,18.6,14.1,18.6,14.1L18.6,14.1z"/>
			</g>
			<path clip-path="url(#SVGID_8_)" fill="#FFFFFF" d="M19.4,14.1c-0.1,0-0.2,0-0.2,0L19.4,14.1z"/>
			<g clip-path="url(#SVGID_8_)">
				<path fill="#F0C727" d="M19.2,14.2C19.2,14.2,19.2,14.2,19.2,14.2C19.2,14.2,19.2,14.2,19.2,14.2c0-0.1,0.1-0.1,0.2-0.1
					c0,0,0,0,0,0c0,0,0,0,0,0L19.2,14.2C19.2,14.2,19.2,14.2,19.2,14.2L19.2,14.2z"/>
			</g>
			<path clip-path="url(#SVGID_8_)" fill="#FFFFFF" d="M19.1,14.1c0,0-0.2,0-0.2,0H19.1z"/>
			<g clip-path="url(#SVGID_8_)">
				<path fill="#F0C727" d="M19.1,14.2h-0.2c0,0,0,0,0,0c0,0,0,0,0,0C18.9,14.1,19.1,14.1,19.1,14.2C19.1,14.1,19.1,14.1,19.1,14.2
					C19.1,14.2,19.1,14.2,19.1,14.2L19.1,14.2z"/>
			</g>
			<path clip-path="url(#SVGID_8_)" fill="#FFFFFF" d="M21.5,13.9c-0.1,0-0.1,0-0.2,0.1L21.5,13.9z"/>
			<g clip-path="url(#SVGID_8_)">
				<path fill="#F0C727" d="M21.3,14C21.3,14,21.3,14,21.3,14C21.3,14,21.3,14,21.3,14c0-0.1,0.1-0.1,0.2-0.1c0,0,0,0,0,0
					c0,0,0,0,0,0L21.3,14C21.3,14,21.3,14,21.3,14L21.3,14z"/>
			</g>
			<path clip-path="url(#SVGID_8_)" fill="#FFFFFF" d="M21.2,14c0,0-0.2,0-0.2,0.1L21.2,14z"/>
			<g clip-path="url(#SVGID_8_)">
				<path fill="#F0C727" d="M21,14.1C21,14.1,21,14.1,21,14.1C21,14.1,21,14.1,21,14.1c0.1-0.1,0.2-0.1,0.2-0.1c0,0,0,0,0,0L21,14.1
					C21,14.1,21,14.1,21,14.1L21,14.1z"/>
			</g>
			<path clip-path="url(#SVGID_8_)" fill="#FFFFFF" d="M20.1,14.1c0.1,0,0.2,0,0.2,0L20.1,14.1z"/>
			<g clip-path="url(#SVGID_8_)">
				<path fill="#F0C727" d="M20.3,14.2C20.3,14.2,20.3,14.2,20.3,14.2l-0.2,0c0,0,0,0,0,0c0,0,0,0,0,0
					C20.2,14.1,20.3,14.1,20.3,14.2C20.4,14.2,20.4,14.2,20.3,14.2C20.3,14.2,20.3,14.2,20.3,14.2L20.3,14.2z"/>
			</g>
			<path clip-path="url(#SVGID_8_)" fill="#FFFFFF" d="M20.4,14.1c0,0,0.2,0,0.2,0H20.4z"/>
			<g clip-path="url(#SVGID_8_)">
				<path fill="#F0C727" d="M20.7,14.2h-0.2c0,0,0,0,0,0c0,0,0,0,0,0C20.5,14.1,20.6,14.1,20.7,14.2C20.7,14.1,20.7,14.1,20.7,14.2
					C20.7,14.2,20.7,14.2,20.7,14.2L20.7,14.2z"/>
			</g>
			<path clip-path="url(#SVGID_8_)" fill="#F0C727" d="M20.2,8.2c-0.1-0.2-0.2-0.3-0.3-0.3c-0.1,0-0.2,0-0.2,0
				c-0.1,0-0.2,0.1-0.2,0.1c0.1,0.1,0.1,0.1,0.2,0.2c0.1,0,0.1,0,0.2-0.1C19.9,8,20.1,8,20.2,8.2L20.2,8.2z"/>
			<g clip-path="url(#SVGID_8_)">
				<path fill="#F0C727" d="M19.7,8.2C19.6,8.2,19.6,8.2,19.7,8.2c-0.1,0-0.1,0-0.1-0.1c0,0-0.1-0.1-0.1-0.1c0-0.1,0.1-0.2,0.2-0.2
					l0.1,0c0.1,0,0.1,0,0.2,0c0.1,0,0.2,0.1,0.3,0.3c-0.1-0.1-0.3-0.1-0.3,0C19.8,8.2,19.7,8.2,19.7,8.2L19.7,8.2z M19.6,7.9
					c-0.1,0-0.1,0.1-0.2,0.1c0,0,0.1,0,0.1,0.1c0,0,0,0,0.1,0c0.1,0,0.1,0,0.2-0.1C19.9,8,20,8,20.1,8.1C20,8,20,8,19.9,7.9
					c-0.1,0-0.1,0-0.1,0L19.6,7.9C19.6,7.9,19.6,7.9,19.6,7.9L19.6,7.9z"/>
			</g>
			<path clip-path="url(#SVGID_8_)" fill="#FFFFFF" d="M19.6,8C19.6,8,19.6,8.1,19.6,8C19.7,8.1,19.7,8,19.6,8L19.6,8z"/>
			<g clip-path="url(#SVGID_8_)">
				<path fill="#FFFFFF" d="M19.6,8.1C19.6,8.1,19.5,8.1,19.6,8.1C19.5,7.9,19.7,7.9,19.6,8.1C19.7,8.1,19.7,8.1,19.6,8.1L19.6,8.1z
					"/>
			</g>
			<path clip-path="url(#SVGID_8_)" fill="#FFFFFF" d="M20.2,10.3v1.9c-0.1,0.1-0.2,0.2-0.4,0.3c-0.1-0.1-0.3-0.2-0.4-0.3v-1.9
				c0.1,0,0.3-0.1,0.4-0.2C19.9,10.2,20,10.2,20.2,10.3L20.2,10.3z"/>
		</g>
	</g>
</g>
<g>
	<path fill="#CCCCCC" d="M39.8,0.2v22.5H0.2V0.2H39.8 M40,0H0v23h40V0L40,0z"/>
</g>
</svg>
