<?xml version="1.0" encoding="utf-8"?>
<!-- Generator: Adobe Illustrator 17.1.0, SVG Export Plug-In . SVG Version: 6.00 Build 0)  -->
<!DOCTYPE svg PUBLIC "-//W3C//DTD SVG 1.1//EN" "http://www.w3.org/Graphics/SVG/1.1/DTD/svg11.dtd">
<svg version="1.1" id="Layer_1" xmlns="http://www.w3.org/2000/svg" xmlns:xlink="http://www.w3.org/1999/xlink" x="0px" y="0px"
	 viewBox="0 0 40 23" enable-background="new 0 0 40 23" xml:space="preserve">
<g>
	<g>
		<defs>
			<rect id="SVGID_12_" width="40" height="23"/>
		</defs>
		<clipPath id="SVGID_2_">
			<use xlink:href="#SVGID_12_"  overflow="visible"/>
		</clipPath>
		<rect clip-path="url(#SVGID_2_)" fill="#438FC3" width="40" height="23"/>
		<rect y="7.7" clip-path="url(#SVGID_2_)" fill="#D6003F" width="40" height="7.7"/>
		<rect y="15.3" clip-path="url(#SVGID_2_)" fill="#48AE68" width="40" height="7.7"/>
		<g clip-path="url(#SVGID_2_)">
			<defs>
				<rect id="SVGID_16_" width="40" height="23"/>
			</defs>
			<clipPath id="SVGID_4_">
				<use xlink:href="#SVGID_16_"  overflow="visible"/>
			</clipPath>
			<path clip-path="url(#SVGID_4_)" fill="#FFFFFF" d="M20.8,14.2c-1.5,0-2.7-1.2-2.7-2.7c0-1.5,1.2-2.7,2.7-2.7
				c0.5,0,1.1,0.2,1.5,0.4c-0.6-0.6-1.4-1-2.3-1c-1.8,0-3.3,1.4-3.3,3.2c0,1.8,1.5,3.2,3.3,3.2c0.9,0,1.7-0.4,2.3-1
				C21.8,14,21.3,14.2,20.8,14.2"/>
			<polygon clip-path="url(#SVGID_4_)" fill="#FFFFFF" points="24.5,12.7 23.6,12.3 23.2,13.2 22.9,12.3 22,12.7 22.4,11.8 
				21.5,11.5 22.4,11.2 22,10.3 22.9,10.7 23.2,9.8 23.6,10.7 24.5,10.3 24.1,11.2 25,11.5 24.1,11.8 			"/>
		</g>
	</g>
</g>
<g>
	<path fill="#CCCCCC" d="M39.8,0.2v22.5H0.2V0.2H39.8 M40,0H0v23h40V0L40,0z"/>
</g>
</svg>
