<?xml version="1.0" encoding="utf-8"?>
<!-- Generator: Adobe Illustrator 17.1.0, SVG Export Plug-In . SVG Version: 6.00 Build 0)  -->
<!DOCTYPE svg PUBLIC "-//W3C//DTD SVG 1.1//EN" "http://www.w3.org/Graphics/SVG/1.1/DTD/svg11.dtd">
<svg version="1.1" id="Layer_1" xmlns="http://www.w3.org/2000/svg" xmlns:xlink="http://www.w3.org/1999/xlink" x="0px" y="0px"
	 viewBox="0 0 40 23" enable-background="new 0 0 40 23" xml:space="preserve">
<g>
	<g>
		<defs>
			<rect id="SVGID_134_" x="0" width="40" height="23"/>
		</defs>
		<clipPath id="SVGID_2_">
			<use xlink:href="#SVGID_134_"  overflow="visible"/>
		</clipPath>
		<rect x="0" y="0" clip-path="url(#SVGID_2_)" fill="#DA1841" width="40" height="11.5"/>
		<rect x="0" y="11.5" clip-path="url(#SVGID_2_)" fill="#FFFFFF" width="40" height="11.5"/>
		<g clip-path="url(#SVGID_2_)">
			<defs>
				<rect id="SVGID_136_" x="0" width="40" height="23"/>
			</defs>
			<clipPath id="SVGID_4_">
				<use xlink:href="#SVGID_136_"  overflow="visible"/>
			</clipPath>
			<path clip-path="url(#SVGID_4_)" fill="#FFFFFF" d="M12,5.8c0,2.4-2,4.3-4.4,4.3c-2.4,0-4.4-1.9-4.4-4.3c0-2.4,2-4.3,4.4-4.3
				C10,1.4,12,3.4,12,5.8"/>
			<path clip-path="url(#SVGID_4_)" fill="#DA1841" d="M13.4,5.8c0,2.3-1.9,4.1-4.1,4.1S5.1,8,5.1,5.8S7,1.7,9.2,1.7
				S13.4,3.5,13.4,5.8"/>
			<polygon clip-path="url(#SVGID_4_)" fill="#FFFFFF" points="8.2,5.9 7.6,5.4 7,5.9 7.2,5.1 6.6,4.7 7.3,4.7 7.6,4 7.8,4.7 
				8.5,4.7 7.9,5.1 			"/>
			<polygon clip-path="url(#SVGID_4_)" fill="#FFFFFF" points="12.8,5.9 12.2,5.4 11.6,5.9 11.9,5.1 11.3,4.7 12,4.7 12.2,4 
				12.5,4.7 13.2,4.7 12.6,5.1 			"/>
			<polygon clip-path="url(#SVGID_4_)" fill="#FFFFFF" points="10.5,4.1 9.9,3.7 9.3,4.1 9.5,3.4 8.9,3 9.7,3 9.9,2.2 10.1,3 
				10.9,3 10.3,3.4 			"/>
			<polygon clip-path="url(#SVGID_4_)" fill="#FFFFFF" points="9,8.6 8.4,8.1 7.8,8.6 8.1,7.9 7.5,7.4 8.2,7.4 8.4,6.7 8.7,7.4 
				9.4,7.4 8.8,7.9 			"/>
			<polygon clip-path="url(#SVGID_4_)" fill="#FFFFFF" points="12,8.6 11.4,8.1 10.8,8.6 11,7.9 10.4,7.4 11.1,7.4 11.4,6.7 
				11.6,7.4 12.3,7.4 11.7,7.9 			"/>
		</g>
	</g>
</g>
<g>
	<path fill="#CCCCCC" d="M39.8,0.2v22.5H0.2V0.2H39.8 M40,0H0v23h40V0L40,0z"/>
</g>
</svg>
