<?xml version="1.0" encoding="utf-8"?>
<!-- Generator: Adobe Illustrator 17.1.0, SVG Export Plug-In . SVG Version: 6.00 Build 0)  -->
<!DOCTYPE svg PUBLIC "-//W3C//DTD SVG 1.1//EN" "http://www.w3.org/Graphics/SVG/1.1/DTD/svg11.dtd">
<svg version="1.1" id="Layer_1" xmlns="http://www.w3.org/2000/svg" xmlns:xlink="http://www.w3.org/1999/xlink" x="0px" y="0px"
	 viewBox="0 0 40 23" enable-background="new 0 0 40 23" xml:space="preserve">
<g>
	<rect x="0.1" y="0.1" fill="#FFFFFF" width="39.8" height="22.8"/>
	<path fill="#CCCCCC" d="M39.8,0.2v22.5H0.3V0.2H39.8 M40,0H0v23h40V0L40,0z"/>
</g>
<g>
	<path fill="#333333" d="M13.5,11.2l1.6-3C15.3,8.1,15.4,8,15.6,8c0.1,0,0.2,0,0.3,0.1C15.9,8.2,16,8.3,16,8.4c0,0.1,0,0.1-0.1,0.2
		l-1.8,3.2l1.9,3.4c0,0.1,0.1,0.2,0.1,0.2c0,0.1,0,0.2-0.1,0.3C15.8,16,15.7,16,15.6,16c-0.2,0-0.3-0.1-0.4-0.2l-1.7-3.1l-1.7,3.1
		c-0.1,0.1-0.2,0.2-0.4,0.2c-0.1,0-0.2,0-0.3-0.1S11,15.7,11,15.6c0-0.1,0-0.1,0.1-0.2l1.9-3.4l-1.8-3.3c0-0.1-0.1-0.2-0.1-0.2
		c0-0.1,0-0.2,0.1-0.3C11.3,8,11.4,8,11.5,8c0.2,0,0.3,0.1,0.4,0.2L13.5,11.2z"/>
	<path fill="#333333" d="M22.5,13.5c0,0.8-0.2,1.4-0.7,1.8c-0.5,0.5-1.1,0.7-1.9,0.7s-1.4-0.2-1.9-0.7c-0.5-0.5-0.7-1.1-0.7-1.8
		v-3.1c0-0.8,0.2-1.4,0.7-1.8c0.5-0.5,1.1-0.7,1.9-0.7c0.8,0,1.4,0.2,1.9,0.7c0.5,0.5,0.7,1.1,0.7,1.8V13.5z M18.3,13.6
		c0,0.5,0.2,0.9,0.4,1.2c0.3,0.3,0.7,0.5,1.2,0.5s0.9-0.2,1.2-0.5c0.3-0.3,0.4-0.7,0.4-1.2v-3.1c0-0.5-0.1-0.9-0.4-1.2
		c-0.3-0.3-0.7-0.5-1.2-0.5S19,8.9,18.7,9.2c-0.3,0.3-0.4,0.7-0.4,1.2V13.6z"/>
	<path fill="#333333" d="M25.4,12.5v3c0,0.1,0,0.2-0.1,0.3C25.2,16,25,16,24.9,16s-0.3,0-0.3-0.1c-0.1-0.1-0.1-0.2-0.1-0.3V8.5
		c0-0.1,0-0.2,0.1-0.3c0.1-0.1,0.2-0.1,0.3-0.1h3.7c0.1,0,0.2,0,0.3,0.1C29,8.3,29,8.4,29,8.5s0,0.2-0.1,0.3
		c-0.1,0.1-0.2,0.1-0.3,0.1h-3.2v2.8h3c0.1,0,0.2,0,0.3,0.1c0.1,0.1,0.1,0.2,0.1,0.3s0,0.2-0.1,0.3c-0.1,0.1-0.2,0.1-0.3,0.1H25.4z"
		/>
</g>
</svg>
