<svg xmlns="http://www.w3.org/2000/svg" viewBox="0 0 46.51 51.12"><defs><style>.cls-1{fill:#fff;}</style></defs><title>Asset 46</title><g id="Layer_2" data-name="Layer 2"><g id="Layer_1-2" data-name="Layer 1"><path class="cls-1" d="M26.87,22.31a1.12,1.12,0,0,1-.79-.29,1.54,1.54,0,0,1-.44-.72,2.52,2.52,0,0,0-.74-1.48,2.35,2.35,0,0,0-1.72-.6,2.55,2.55,0,0,0-1.83.6,2,2,0,0,0-.63,1.53,2.16,2.16,0,0,0,.36,1.19,2.29,2.29,0,0,0,1.12.87l2.39,1A15.12,15.12,0,0,1,26,25a5.28,5.28,0,0,1,1.27.92,4.38,4.38,0,0,1,.92,1.32,4.47,4.47,0,0,1,.35,1.87,4.72,4.72,0,0,1-1.19,3.33A5,5,0,0,1,24.14,34v1.68a.9.9,0,0,1-1,1,1,1,0,0,1-.72-.26.89.89,0,0,1-.29-.69V34a5.24,5.24,0,0,1-2.86-1.26A4,4,0,0,1,18,30.19a1.25,1.25,0,0,1,.24-1.08,1.15,1.15,0,0,1,.94-.45,1.22,1.22,0,0,1,.82.29,1.33,1.33,0,0,1,.44.77,2.4,2.4,0,0,0,.82,1.59,2.9,2.9,0,0,0,1.95.59,2.83,2.83,0,0,0,2.07-.7A2.39,2.39,0,0,0,26,29.41a2.16,2.16,0,0,0-.56-1.59A4.55,4.55,0,0,0,24,26.88l-2.34-1a8.21,8.21,0,0,1-1.38-.7,4.68,4.68,0,0,1-1.08-.94,4.32,4.32,0,0,1-.72-1.22,4.48,4.48,0,0,1,.8-4.42,4.76,4.76,0,0,1,2.9-1.51V15.43a.89.89,0,0,1,.29-.69,1,1,0,0,1,.72-.26.9.9,0,0,1,1,1v1.71a4.48,4.48,0,0,1,1.43.4,4.81,4.81,0,0,1,1.26.84,4.38,4.38,0,0,1,.9,1.19,3.68,3.68,0,0,1,.4,1.48,1,1,0,0,1-.34.89A1.3,1.3,0,0,1,26.87,22.31Z"/><path class="cls-1" d="M29.14,3.82a.25.25,0,0,1,0,.43L23.65,8a.28.28,0,0,1-.43-.21v-2A19.8,19.8,0,0,0,11.61,41.59l-2,2.82A23.3,23.3,0,0,1,23.23,2.28v-2A.28.28,0,0,1,23.65,0ZM46.51,25.56A23.39,23.39,0,0,0,36.92,6.7l-2,2.82A19.8,19.8,0,0,1,23.28,45.38h0v-2a.28.28,0,0,0-.43-.21l-5.54,3.73a.25.25,0,0,0,0,.43l5.49,3.78a.28.28,0,0,0,.43-.21v-2h0A23.3,23.3,0,0,0,46.51,25.56Z"/></g></g></svg>