<svg id="Layer_1" data-name="Layer 1" xmlns="http://www.w3.org/2000/svg" viewBox="0 0 98.77 144.19"><defs><style>.cls-1{fill:#231f20;}.cls-2{fill:#fff;}</style></defs><title>BPAY</title><path class="cls-1" d="M93,1.13H5.81A4.68,4.68,0,0,0,1.13,5.81V138.37a4.69,4.69,0,0,0,4.68,4.69H93a4.69,4.69,0,0,0,4.68-4.69V5.81A4.68,4.68,0,0,0,93,1.13Z" transform="translate(0 0)"/><path class="cls-2" d="M51.67,105a1.43,1.43,0,0,0-1.6-1H47.23a1.43,1.43,0,0,0-1.6,1c-.27.6-8.23,22.16-8.23,22.16s-.47.93.73.93l2,0a1.36,1.36,0,0,0,1.48-1c.26-.75,1.45-4.05,1.45-4.05H54.23s1.19,3.3,1.45,4.05a1.36,1.36,0,0,0,1.48,1l2,0c1.2,0,.73-.93.73-.93S51.94,105.59,51.67,105Zm-7,14.14,4-11.21,4.2,11.21ZM94.09,0H4.68A4.68,4.68,0,0,0,0,4.68V139.5a4.69,4.69,0,0,0,4.68,4.69H94.09a4.69,4.69,0,0,0,4.68-4.69V4.68A4.68,4.68,0,0,0,94.09,0ZM35.86,35.67h16a7.73,7.73,0,0,1,7.57,7.75A7.57,7.57,0,0,1,51.81,51l-2.76.14a2.18,2.18,0,0,0-2.3,2.29v9.3A2.22,2.22,0,0,0,49.18,65H56a8.2,8.2,0,0,1,.73,16.38l-18.56,0A2.21,2.21,0,0,1,35.86,79ZM6.7,8.9h0a2.21,2.21,0,0,1,2-2.2H21.4V21.37H6.7ZM92.08,135.12a2.19,2.19,0,0,1-2.37,2.38h-81a2.2,2.2,0,0,1-2.07-2.19s0-62.08,0-99.23H31.32L21.4,39.68V94a2.2,2.2,0,0,0,2.13,2.44H57A21.24,21.24,0,0,0,67.68,57.32,19.52,19.52,0,0,0,74.17,43.4c0-14.06-10-22-24.23-22H36.08V6.69H89.72a2.15,2.15,0,0,1,2.37,2.37ZM31,104H22.27c-.76,0-.87.63-.87,1s0,22.2,0,22.2a.83.83,0,0,0,.93.88h2.24a.77.77,0,0,0,.77-.72v-8H31A7.71,7.71,0,1,0,31,104ZM31,115.56H25.35v-7.62H31a3.81,3.81,0,0,1,0,7.63ZM75.91,104l-2.29,0a1.36,1.36,0,0,0-1.48,1l-1.09,2-4.38,7.74-4.38-7.74-1.09-2a1.36,1.36,0,0,0-1.48-1l-2.29,0c-1.2,0-.73.93-.73.93s4.44,7.88,8,14.24c0,0-.06,7.56-.06,8.09a.77.77,0,0,0,.85.86H67.6c.37,0,1,0,1-.84l0-8.12c3.57-6.36,8-14.24,8-14.24S77.11,104,75.91,104Z" transform="translate(0 0)"/></svg>