<?xml version="1.0" encoding="utf-8"?>
<!-- Generator: Adobe Illustrator 18.1.1, SVG Export Plug-In . SVG Version: 6.00 Build 0)  -->
<svg version="1.1" id="Layer_1" xmlns="http://www.w3.org/2000/svg" xmlns:xlink="http://www.w3.org/1999/xlink" x="0px" y="0px"
	 viewBox="0 0 21 21" enable-background="new 0 0 21 21" xml:space="preserve">
<circle fill="#737675" cx="10.5" cy="10.5" r="10"/>
<path fill="#FFFFFF" d="M11.6,10.5l3-3c0.3-0.3,0.3-0.8,0-1.1s-0.8-0.3-1.1,0l-3,3L7.5,6.4c-0.3-0.3-0.8-0.3-1.1,0s-0.3,0.8,0,1.1
	l3.1,3.1l-3,3c-0.3,0.3-0.3,0.8,0,1.1c0.1,0.1,0.3,0.2,0.5,0.2s0.4-0.1,0.5-0.2l3-3l2.9,2.9c0.1,0.1,0.3,0.2,0.5,0.2
	s0.4-0.1,0.5-0.2c0.3-0.3,0.3-0.8,0-1.1L11.6,10.5z"/>
</svg>
