<svg xmlns="http://www.w3.org/2000/svg" width="96" height="96" viewBox="0 0 96 96" xmlns:xlink="http://www.w3.org/1999/xlink">
  <defs>
    <path id="b" d="M2,0 L78,0 C79.1045695,-2.02906125e-16 80,0.8954305 80,2 L80,55 C80,56.1045695 79.1045695,57 78,57 L2,57 C0.8954305,57 1.3527075e-16,56.1045695 0,55 L0,42 L0,2 C-1.3527075e-16,0.8954305 0.8954305,2.02906125e-16 2,0 Z"/>
    <filter id="a" width="117.5%" height="126.3%" x="-8.8%" y="-8.8%" filterUnits="objectBoundingBox">
      <feOffset dy="1" in="SourceAlpha" result="shadowOffsetOuter1"/>
      <feComposite in="shadowOffsetOuter1" in2="SourceAlpha" operator="out" result="shadowOffsetOuter1"/>
      <feColorMatrix values="0 0 0 0 0.670588235 0 0 0 0 0.368627451 0 0 0 0 0.0274509804 0 0 0 1 0" in="shadowOffsetOuter1" result="shadowMatrixOuter1"/>
      <feOffset dy="2" in="SourceAlpha" result="shadowOffsetOuter2"/>
      <feGaussianBlur stdDeviation="2" in="shadowOffsetOuter2" result="shadowBlurOuter2"/>
      <feComposite in="shadowBlurOuter2" in2="SourceAlpha" operator="out" result="shadowBlurOuter2"/>
      <feColorMatrix values="0 0 0 0 0 0 0 0 0 0 0 0 0 0 0 0 0 0 0.5 0" in="shadowBlurOuter2" result="shadowMatrixOuter2"/>
      <feMerge>
        <feMergeNode in="shadowMatrixOuter1"/>
        <feMergeNode in="shadowMatrixOuter2"/>
      </feMerge>
    </filter>
    <path id="c" d="M2,0 L78,0 C79.1045695,-2.02906125e-16 80,0.8954305 80,2 L80,55 C80,56.1045695 79.1045695,57 78,57 L2,57 C0.8954305,57 1.3527075e-16,56.1045695 0,55 L0,42 L0,2 C-1.3527075e-16,0.8954305 0.8954305,2.02906125e-16 2,0 Z"/>
    <radialGradient id="e" cy="36.146%" r="64.099%" fx="50%" fy="36.146%" gradientTransform="scale(1 .83871) rotate(89.156 .465 .396)">
      <stop stop-color="#F79E37" offset="0%"/>
      <stop stop-color="#DF7B09" offset="100%"/>
    </radialGradient>
    <rect id="f" width="22" height="27" x="2" y="2" rx="1"/>
    <linearGradient id="h" x1="50%" x2="50%" y1="0%" y2="100%">
      <stop stop-color="#363537" offset="0%"/>
      <stop stop-color="#363537" offset="100%"/>
    </linearGradient>
  </defs>
  <g fill="none" fill-rule="evenodd">
    <circle cx="48" cy="48" r="45" fill="#D2D4D3"/>
    <g transform="translate(8 19)">
      <use fill="black" filter="url(#a)" xlink:href="#b"/>
      <use fill="#FFFFFF" xlink:href="#b"/>
      <path stroke="#DF7B09" stroke-width="2" d="M2,1 C1.44771525,1 1,1.44771525 1,2 L1,55 C1,55.5522847 1.44771525,56 2,56 L78,56 C78.5522847,56 79,55.5522847 79,55 L79,2 C79,1.44771525 78.5522847,1 78,1 L2,1 Z"/>
      <mask id="d" fill="white">
        <use xlink:href="#c"/>
      </mask>
      <g fill-rule="nonzero" transform="translate(51 25)" opacity=".2" mask="url(#d)">
        <path stroke="#949896" stroke-width="3" d="M20,8.02173913 C13.3816173,8.02173913 8.02173913,13.4055454 8.02173913,20 C8.02173913,26.5628772 13.4371228,31.9782609 20,31.9782609 C26.5628772,31.9782609 31.9782609,26.5628772 31.9782609,20 C31.9782609,13.4055454 26.6183827,8.02173913 20,8.02173913 Z"/>
        <path fill="#949896" d="M38.7826087,19.826087 C38.2608696,18.7826087 38.0869565,17.5652174 38.4347826,16.5217391 C38.9565217,14.6956522 38.3478261,12.7826087 36.7826087,11.7391304 C35.826087,11.0434783 35.2173913,10 35.0434783,8.86956522 C34.7826087,7.04347826 33.3043478,5.56521739 31.4782609,5.2173913 C30.3478261,5.04347826 29.3043478,4.34782609 28.6956522,3.39130435 C27.6521739,1.82608696 25.7391304,1.13043478 23.9130435,1.65217391 C22.7826087,2 21.5652174,1.82608696 20.6086957,1.2173913 C18.9565217,0.260869565 16.9565217,0.52173913 15.5652174,1.73913043 C14.6956522,2.52173913 13.5652174,2.86956522 12.3478261,2.7826087 C10.5217391,2.69565217 8.7826087,3.73913043 8,5.39130435 C7.56521739,6.43478261 6.69565217,7.30434783 5.56521739,7.73913043 C3.82608696,8.43478261 2.69565217,10.173913 2.7826087,12 C2.86956522,13.1304348 2.43478261,14.2608696 1.65217391,15.1304348 C0.434782609,16.5217391 0.173913043,18.5217391 1.04347826,20.173913 C1.56521739,21.2173913 1.73913043,22.4347826 1.39130435,23.4782609 C0.869565217,25.3043478 1.47826087,27.2173913 3.04347826,28.2608696 C4,28.9565217 4.60869565,30 4.7826087,31.1304348 C5.04347826,32.9565217 6.52173913,34.4347826 8.34782609,34.7826087 C9.47826087,34.9565217 10.5217391,35.6521739 11.1304348,36.6086957 C12.173913,38.173913 14.0869565,38.8695652 15.9130435,38.3478261 C17.0434783,38 18.2608696,38.173913 19.2173913,38.7826087 C20.8695652,39.7391304 22.8695652,39.4782609 24.2608696,38.2608696 C25.1304348,37.4782609 26.2608696,37.1304348 27.4782609,37.2173913 C29.3043478,37.3043478 31.0434783,36.2608696 31.826087,34.6086957 C32.2608696,33.5652174 33.1304348,32.6956522 34.2608696,32.2608696 C36,31.5652174 37.1304348,29.826087 37.0434783,28 C36.9565217,26.8695652 37.3913043,25.7391304 38.173913,24.8695652 C39.3913043,23.4782609 39.6521739,21.4782609 38.7826087,19.826087 Z M20,35.4782609 C11.4782609,35.4782609 4.52173913,28.6086957 4.52173913,20 C4.52173913,11.4782609 11.3913043,4.52173913 20,4.52173913 C28.5217391,4.52173913 35.4782609,11.3913043 35.4782609,20 C35.4782609,28.5217391 28.5217391,35.4782609 20,35.4782609 Z"/>
      </g>
      <rect width="80" height="14" fill="#DF7B09" rx="2"/>
      <path stroke="#949896" stroke-width="2" d="M38 29L54 29M58 29L74 29M38 35L54 35M38 41L69 41M58 35L74 35"/>
      <path stroke="#949896" stroke-width="4" d="M38 22L74 22M38 48L62 48"/>
      <path stroke="#FFFFFF" stroke-width="2" d="M26,11 L55,11"/>
      <path stroke="#FFFFFF" stroke-width="4" d="M7,6 L74,6"/>
      <g transform="translate(7 19)">
        <rect width="26" height="31" fill="url(#e)" rx="2"/>
        <mask id="g" fill="white">
          <use xlink:href="#f"/>
        </mask>
        <g transform="translate(1 4)" mask="url(#g)">
          <path fill="#FFFFFF" d="M9.04545455,14.4 L8.45454545,18 L3.72727273,20.4 C6.87878788,22 9.63636364,22.8 12,22.8 C14.3636364,22.8 17.1212121,22 20.2727273,20.4 L15.5454545,18 L14.9545455,14.4 L9.04545455,14.4 Z"/>
          <path fill="#363537" fill-opacity=".5" d="M9.04545455,14.4 L8.45454545,18 L3.72727273,20.4 C6.09090909,20.4 7.66666667,20.4 8.45454545,20.4 C10.2272727,20.4 10.2272727,18.6 11.4090909,17.4 C12.1969697,16.6 13.3787879,15.6 14.9545455,14.4 L9.04545455,14.4 Z"/>
          <path fill="#FFFFFF" d="M14.6251031,15.0669021 C13.8969633,15.6782955 13.0330254,15.6 12,15.6 C11.0052454,15.6 10.0869378,15.6388637 9.37489688,15.0669021 C8.54567169,14.4008099 7.92116808,12.584675 7.49029111,11.1918748 C7.46321763,11.1943352 7.43487361,11.195585 7.40519991,11.195585 C6.6802977,11.195585 6.3272725,10.4497223 6.3272725,9.52965414 C6.3272725,8.60958595 6.02402192,7.86372331 6.74892413,7.86372331 C6.77220651,7.86372331 6.79534731,7.86449272 6.8183316,7.86601259 C6.77186178,7.41343807 6.74892413,6.9971332 6.74892413,6.64000317 C6.74892413,3.63557238 9.09952153,1.2 11.9991304,1.2 C14.8987392,1.2 17.2493366,3.63557238 17.2493366,6.64000317 C17.2493366,6.99512189 17.2244186,7.41187611 17.1747396,7.86649382 C17.2000003,7.86465523 17.2254523,7.86372331 17.2510759,7.86372331 C17.9759781,7.86372331 17.6727275,8.60958595 17.6727275,9.52965414 C17.6727275,10.4497223 17.3197023,11.195585 16.5948001,11.195585 C16.554509,11.195585 16.5166693,11.1932808 16.481133,11.1887705 C16.045278,12.5777667 15.4260967,14.394336 14.6251031,15.0669021 Z"/>
          <path fill="#464547" d="M5.68181818,7.8720005 C6.07575758,7.82400017 6.27272727,8 6.27272727,8.4 C6.27272727,8.8 6.27272727,9.5 6.27272727,10.5 C6.75757576,10.8333333 7,10.8333333 7,10.5 C7,10 7,8.54487752 7,8.4 C7,7.8 6.86363636,7.2 7.45454545,6.6 C7.79569219,6.25360485 9.77277128,6.64642115 13.3636364,6.6 C13.7340953,6.59521087 14.2795499,6.39521087 15,6 C15.0024245,7.2 15.0036367,8 15.0036367,8.4 C15.0036367,8.57397661 15.0036367,10 15.0036367,10.5 C15.0036367,10.8333333 15.2448487,10.8333333 15.7272727,10.5 C15.7272727,9.5 15.7272727,8.8 15.7272727,8.4 C15.7272727,8 15.9242424,7.82400017 16.3181818,7.8720005 C16.3181818,7.42400017 16.3181818,6.8 16.3181818,6 C16.3181818,4.8 16.3181818,4.8 16.9090909,4.2 C17.3030303,3.8 17.3030303,2.4 16.9090909,0 C16.1212121,0.8 15.3333333,1.2 14.5454545,1.2 C13.3636364,1.2 10.4090909,0.6 8.04545455,1.8 C6.46969697,2.6 5.68181818,4 5.68181818,6 L5.68181818,7.8720005 Z" transform="matrix(-1 0 0 1 22.886 0)"/>
          <path fill="url(#h)" d="M1,27.5 C1,20.9180476 0.181818182,22.2 6.09090909,19.2 C6.87878788,18.8 7.66666667,18.4 8.45454545,18 C9.48484848,19.6 10.6666667,20.4 12,20.4 C13.3333333,20.4 14.5151515,19.6 15.5454545,18 C16.3333333,18.4 17.1212121,18.8 17.9090909,19.2 C23.8181818,22.2 23,20.9 23,27.5 L23,29 L1,29 L1,27.5 Z"/>
        </g>
      </g>
    </g>
  </g>
</svg>
