<?xml version="1.0" encoding="utf-8"?>
<!-- Generator: Adobe Illustrator 17.1.0, SVG Export Plug-In . SVG Version: 6.00 Build 0)  -->
<!DOCTYPE svg PUBLIC "-//W3C//DTD SVG 1.1//EN" "http://www.w3.org/Graphics/SVG/1.1/DTD/svg11.dtd">
<svg version="1.1" id="Layer_1" xmlns="http://www.w3.org/2000/svg" xmlns:xlink="http://www.w3.org/1999/xlink" x="0px" y="0px"
	 viewBox="0 67.2 100 29" enable-background="new 0 67.2 100 29" xml:space="preserve">
<path fill="#F79E37" d="M8.8,80.8H6.1v9.8H2v-9.8H0v-3.4h2v-2C2,72.6,3.2,71,6.4,71h2.7v3.4H7.4c-1.3,0-1.3,0.5-1.3,1.3v1.7h3.1
	L8.8,80.8z M19.9,82.6v8h-3.4l-0.1-0.9c-1.5,0.9-2.9,1-3.8,1c-2.5,0-3.8-1.7-3.8-3.9c0-2.7,1.5-3.7,4.3-3.7h2.8v-0.6
	c0-1.4-0.2-1.8-2.3-1.8h-3.5l0.3-3.4h3.8C18.9,77.4,19.9,78.9,19.9,82.6z M15.9,85.8h-1.8c-0.9,0-1.2,0.2-1.2,0.9s0.4,1.1,1.1,1.1
	c0.8,0,1.3-0.3,1.9-0.5V85.8z M21.3,82.8v2.4c0,3.3,1.7,5.6,6.1,5.6c1,0,2.2-0.1,4-0.5V87c-2.1,0.4-2.7,0.4-3.7,0.4
	c-1.8,0-2.4-0.4-2.4-1.9v-2.9c0-1.5,0.5-1.9,2.4-1.9c1,0,1.6,0.1,3.7,0.4v-3.4c-1.8-0.4-3-0.5-4-0.5C23,77.2,21.3,79.5,21.3,82.8z
	 M36.6,85.2v0.3c0,1.5,0.5,1.9,2.4,1.9c1.6,0,2.6-0.1,4.7-0.4v3.3c-2,0.4-3.1,0.5-5.1,0.5c-4.3,0-6.1-2.3-6.1-5.6v-2.7
	c0-2.9,1.3-5.3,5.7-5.3s5.7,2.3,5.7,5.3v2.7C43.9,85.2,36.6,85.2,36.6,85.2z M36.6,82.5H40V82c0-0.9-0.3-1.7-1.7-1.7
	s-1.7,0.8-1.7,1.7V82.5z M57.2,81.9v3.3c0,3.2-0.9,5.5-6.4,5.5c-2,0-3.2-0.2-5.4-0.5V72l4-0.7v6.4c0.9-0.3,2-0.5,3-0.5
	C56.5,77.2,57.2,79,57.2,81.9z M53.2,82.3c0-0.9-0.3-1.7-1.7-1.7c-0.8,0-1.4,0.3-2,0.5v6.2c0.6,0.1,0.9,0.1,1.5,0.1
	c2,0,2.3-0.9,2.3-2.2L53.2,82.3L53.2,82.3z M70.2,82.6v2.7c0,2.7-1.1,5.4-5.9,5.4s-5.9-2.7-5.9-5.4v-2.7c0-2.7,1.2-5.4,5.9-5.4
	C69.1,77.2,70.2,79.9,70.2,82.6z M66.1,82.3c0-0.9-0.5-1.7-1.9-1.7s-1.9,0.8-1.9,1.7v3.4c0,0.9,0.5,1.7,1.9,1.7s1.9-0.8,1.9-1.7
	V82.3z M83.2,82.6v2.7c0,2.7-1.1,5.4-5.9,5.4s-5.9-2.7-5.9-5.4v-2.7c0-2.7,1.2-5.4,5.9-5.4S83.2,79.9,83.2,82.6z M79.1,82.3
	c0-0.9-0.5-1.7-1.9-1.7s-1.9,0.8-1.9,1.7v3.4c0,0.9,0.5,1.7,1.9,1.7s1.9-0.8,1.9-1.7V82.3z M92.1,77.4l-3.7,5.9v-12l-4,0.7v18.6h4
	v-6.2l3.7,6.2h4.4l-4.1-6.7l4.1-6.4h-4.4V77.4z M99.3,90.2h-0.2c0,0-0.1-0.2-0.1-0.4c0-0.2-0.1-0.2-0.3-0.2h-0.2v0.6h-0.2v-1.4
	c0.1,0,0.2,0,0.4,0c0.2,0,0.4,0,0.4,0.1c0.1,0.1,0.1,0.2,0.1,0.3c0,0.2-0.1,0.3-0.3,0.3l0,0c0.1,0,0.2,0.1,0.2,0.3
	C99.3,90.1,99.3,90.2,99.3,90.2z M99,89.2c0-0.1-0.1-0.2-0.3-0.2c-0.1,0-0.1,0-0.2,0v0.5h0.2C98.9,89.5,99,89.4,99,89.2z M100,89.5
	c0,0.7-0.5,1.3-1.2,1.3s-1.2-0.5-1.2-1.3c0-0.7,0.6-1.2,1.2-1.2l0,0C99.5,88.3,100,88.8,100,89.5z M99.8,89.5c0-0.6-0.4-1.1-1-1.1
	l0,0c-0.5,0-1,0.5-1,1.1c0,0.6,0.5,1.1,1,1.1S99.8,90.1,99.8,89.5z M9.1,77.4h-3v-1.7c0-0.9,0.1-1.3,1.3-1.3h1.7V71H6.4
	C3.2,71,2,72.6,2,75.4v2H0v3.4h2v9.8h4v-9.8h2.7L9.1,77.4z M19.9,82.6v8h-3.4l-0.1-0.9c-1.5,0.9-2.9,1-3.8,1c-2.5,0-3.8-1.7-3.8-3.9
	c0-2.7,1.5-3.7,4.3-3.7h2.8v-0.6c0-1.4-0.2-1.8-2.3-1.8h-3.5l0.3-3.4h3.8C18.9,77.4,19.9,78.9,19.9,82.6z M15.9,85.8h-1.8
	c-0.9,0-1.2,0.2-1.2,0.9s0.4,1.1,1.1,1.1c0.8,0,1.3-0.3,1.9-0.5V85.8z M21.3,82.8v2.4c0,3.3,1.7,5.6,6.1,5.6c1,0,2.2-0.1,4-0.5V87
	c-2.1,0.4-2.7,0.4-3.7,0.4c-1.8,0-2.4-0.4-2.4-1.9v-2.9c0-1.5,0.5-1.9,2.4-1.9c1,0,1.6,0.1,3.7,0.4v-3.4c-1.8-0.4-3-0.5-4-0.5
	C23,77.2,21.3,79.5,21.3,82.8z M36.6,85.2v0.3c0,1.5,0.5,1.9,2.4,1.9c1.6,0,2.6-0.1,4.7-0.4v3.3c-2,0.4-3.1,0.5-5.1,0.5
	c-4.3,0-6.1-2.3-6.1-5.6v-2.7c0-2.9,1.3-5.3,5.7-5.3s5.7,2.3,5.7,5.3v2.7C43.9,85.2,36.6,85.2,36.6,85.2z M36.6,82.5H40V82
	c0-0.9-0.3-1.7-1.7-1.7s-1.7,0.8-1.7,1.7V82.5z M57.2,81.9v3.3c0,3.2-0.9,5.5-6.4,5.5c-2,0-3.2-0.2-5.4-0.5V72l4-0.7v6.4
	c0.9-0.3,2-0.5,3-0.5C56.5,77.2,57.2,79,57.2,81.9z M53.2,82.3c0-0.9-0.3-1.7-1.7-1.7c-0.8,0-1.4,0.3-2,0.5v6.2
	c0.6,0.1,0.9,0.1,1.5,0.1c2,0,2.3-0.9,2.3-2.2L53.2,82.3L53.2,82.3z M70.2,82.6v2.7c0,2.7-1.1,5.4-5.9,5.4s-5.9-2.7-5.9-5.4v-2.7
	c0-2.7,1.2-5.4,5.9-5.4C69.1,77.2,70.2,79.9,70.2,82.6z M66.1,82.3c0-0.9-0.5-1.7-1.9-1.7s-1.9,0.8-1.9,1.7v3.4
	c0,0.9,0.5,1.7,1.9,1.7s1.9-0.8,1.9-1.7V82.3z M83.2,82.6v2.7c0,2.7-1.1,5.4-5.9,5.4s-5.9-2.7-5.9-5.4v-2.7c0-2.7,1.2-5.4,5.9-5.4
	S83.2,79.9,83.2,82.6z M79.1,82.3c0-0.9-0.5-1.7-1.9-1.7s-1.9,0.8-1.9,1.7v3.4c0,0.9,0.5,1.7,1.9,1.7s1.9-0.8,1.9-1.7V82.3z
	 M92.1,77.4l-3.7,5.9v-12l-4,0.7v18.6h4v-6.2l3.7,6.2h4.4l-4.1-6.7l4.1-6.4h-4.4V77.4z M99.3,90.2h-0.2c0,0-0.1-0.2-0.1-0.4
	c0-0.2-0.1-0.2-0.3-0.2h-0.2v0.6h-0.2v-1.4c0.1,0,0.2,0,0.4,0c0.2,0,0.4,0,0.4,0.1c0.1,0.1,0.1,0.2,0.1,0.3c0,0.2-0.1,0.3-0.3,0.3
	l0,0c0.1,0,0.2,0.1,0.2,0.3C99.3,90.1,99.3,90.2,99.3,90.2z M99,89.2c0-0.1-0.1-0.2-0.3-0.2c-0.1,0-0.1,0-0.2,0v0.5h0.2
	C98.9,89.5,99,89.4,99,89.2z M100,89.5c0,0.7-0.5,1.3-1.2,1.3s-1.2-0.5-1.2-1.3c0-0.7,0.6-1.2,1.2-1.2l0,0
	C99.5,88.3,100,88.8,100,89.5z M99.8,89.5c0-0.6-0.4-1.1-1-1.1l0,0c-0.5,0-1,0.5-1,1.1c0,0.6,0.5,1.1,1,1.1S99.8,90.1,99.8,89.5z
	 M9.1,77.4h-3v-1.7c0-0.9,0.1-1.3,1.3-1.3h1.7V71H6.4C3.2,71,2,72.6,2,75.4v2H0v3.4h2v9.8h4v-9.8h2.7L9.1,77.4z M19.9,82.6v8h-3.4
	l-0.1-0.9c-1.5,0.9-2.9,1-3.8,1c-2.5,0-3.8-1.7-3.8-3.9c0-2.7,1.5-3.7,4.3-3.7h2.8v-0.6c0-1.4-0.2-1.8-2.3-1.8h-3.5l0.3-3.4h3.8
	C18.9,77.4,19.9,78.9,19.9,82.6z M15.9,85.8h-1.8c-0.9,0-1.2,0.2-1.2,0.9s0.4,1.1,1.1,1.1c0.8,0,1.3-0.3,1.9-0.5V85.8z M21.3,82.8
	v2.4c0,3.3,1.7,5.6,6.1,5.6c1,0,2.2-0.1,4-0.5V87c-2.1,0.4-2.7,0.4-3.7,0.4c-1.8,0-2.4-0.4-2.4-1.9v-2.9c0-1.5,0.5-1.9,2.4-1.9
	c1,0,1.6,0.1,3.7,0.4v-3.4c-1.8-0.4-3-0.5-4-0.5C23,77.2,21.3,79.5,21.3,82.8z M36.6,85.2v0.3c0,1.5,0.5,1.9,2.4,1.9
	c1.6,0,2.6-0.1,4.7-0.4v3.3c-2,0.4-3.1,0.5-5.1,0.5c-4.3,0-6.1-2.3-6.1-5.6v-2.7c0-2.9,1.3-5.3,5.7-5.3s5.7,2.3,5.7,5.3v2.7
	C43.9,85.2,36.6,85.2,36.6,85.2z M36.6,82.5H40V82c0-0.9-0.3-1.7-1.7-1.7s-1.7,0.8-1.7,1.7V82.5z M57.2,81.9v3.3
	c0,3.2-0.9,5.5-6.4,5.5c-2,0-3.2-0.2-5.4-0.5V72l4-0.7v6.4c0.9-0.3,2-0.5,3-0.5C56.5,77.2,57.2,79,57.2,81.9z M53.2,82.3
	c0-0.9-0.3-1.7-1.7-1.7c-0.8,0-1.4,0.3-2,0.5v6.2c0.6,0.1,0.9,0.1,1.5,0.1c2,0,2.3-0.9,2.3-2.2L53.2,82.3L53.2,82.3z M70.2,82.6v2.7
	c0,2.7-1.1,5.4-5.9,5.4s-5.9-2.7-5.9-5.4v-2.7c0-2.7,1.2-5.4,5.9-5.4C69.1,77.2,70.2,79.9,70.2,82.6z M66.1,82.3
	c0-0.9-0.5-1.7-1.9-1.7s-1.9,0.8-1.9,1.7v3.4c0,0.9,0.5,1.7,1.9,1.7s1.9-0.8,1.9-1.7V82.3z M83.2,82.6v2.7c0,2.7-1.1,5.4-5.9,5.4
	s-5.9-2.7-5.9-5.4v-2.7c0-2.7,1.2-5.4,5.9-5.4S83.2,79.9,83.2,82.6z M79.1,82.3c0-0.9-0.5-1.7-1.9-1.7s-1.9,0.8-1.9,1.7v3.4
	c0,0.9,0.5,1.7,1.9,1.7s1.9-0.8,1.9-1.7V82.3z M92.1,77.4l-3.7,5.9v-12l-4,0.7v18.6h4v-6.2l3.7,6.2h4.4l-4.1-6.7l4.1-6.4h-4.4V77.4z
	 M99.3,90.2h-0.2c0,0-0.1-0.2-0.1-0.4c0-0.2-0.1-0.2-0.3-0.2h-0.2v0.6h-0.2v-1.4c0.1,0,0.2,0,0.4,0c0.2,0,0.4,0,0.4,0.1
	c0.1,0.1,0.1,0.2,0.1,0.3c0,0.2-0.1,0.3-0.3,0.3l0,0c0.1,0,0.2,0.1,0.2,0.3C99.3,90.1,99.3,90.2,99.3,90.2z M99,89.2
	c0-0.1-0.1-0.2-0.3-0.2c-0.1,0-0.1,0-0.2,0v0.5h0.2C98.9,89.5,99,89.4,99,89.2z M100,89.5c0,0.7-0.5,1.3-1.2,1.3s-1.2-0.5-1.2-1.3
	c0-0.7,0.6-1.2,1.2-1.2l0,0C99.5,88.3,100,88.8,100,89.5z M99.8,89.5c0-0.6-0.4-1.1-1-1.1l0,0c-0.5,0-1,0.5-1,1.1
	c0,0.6,0.5,1.1,1,1.1S99.8,90.1,99.8,89.5z M9.1,77.4h-3v-1.7c0-0.9,0.1-1.3,1.3-1.3h1.7V71H6.4C3.2,71,2,72.6,2,75.4v2H0v3.4h2v9.8
	h4v-9.8h2.7L9.1,77.4z M19.9,82.6v8h-3.4l-0.1-0.9c-1.5,0.9-2.9,1-3.8,1c-2.5,0-3.8-1.7-3.8-3.9c0-2.7,1.5-3.7,4.3-3.7h2.8v-0.6
	c0-1.4-0.2-1.8-2.3-1.8h-3.5l0.3-3.4h3.8C18.9,77.4,19.9,78.9,19.9,82.6z M15.9,85.8h-1.8c-0.9,0-1.2,0.2-1.2,0.9s0.4,1.1,1.1,1.1
	c0.8,0,1.3-0.3,1.9-0.5V85.8z M21.3,82.8v2.4c0,3.3,1.7,5.6,6.1,5.6c1,0,2.2-0.1,4-0.5V87c-2.1,0.4-2.7,0.4-3.7,0.4
	c-1.8,0-2.4-0.4-2.4-1.9v-2.9c0-1.5,0.5-1.9,2.4-1.9c1,0,1.6,0.1,3.7,0.4v-3.4c-1.8-0.4-3-0.5-4-0.5C23,77.2,21.3,79.5,21.3,82.8z
	 M36.6,85.2v0.3c0,1.5,0.5,1.9,2.4,1.9c1.6,0,2.6-0.1,4.7-0.4v3.3c-2,0.4-3.1,0.5-5.1,0.5c-4.3,0-6.1-2.3-6.1-5.6v-2.7
	c0-2.9,1.3-5.3,5.7-5.3s5.7,2.3,5.7,5.3v2.7C43.9,85.2,36.6,85.2,36.6,85.2z M36.6,82.5H40V82c0-0.9-0.3-1.7-1.7-1.7
	s-1.7,0.8-1.7,1.7V82.5z M57.2,81.9v3.3c0,3.2-0.9,5.5-6.4,5.5c-2,0-3.2-0.2-5.4-0.5V72l4-0.7v6.4c0.9-0.3,2-0.5,3-0.5
	C56.5,77.2,57.2,79,57.2,81.9z M53.2,82.3c0-0.9-0.3-1.7-1.7-1.7c-0.8,0-1.4,0.3-2,0.5v6.2c0.6,0.1,0.9,0.1,1.5,0.1
	c2,0,2.3-0.9,2.3-2.2L53.2,82.3L53.2,82.3z M70.2,82.6v2.7c0,2.7-1.1,5.4-5.9,5.4s-5.9-2.7-5.9-5.4v-2.7c0-2.7,1.2-5.4,5.9-5.4
	C69.1,77.2,70.2,79.9,70.2,82.6z M66.1,82.3c0-0.9-0.5-1.7-1.9-1.7s-1.9,0.8-1.9,1.7v3.4c0,0.9,0.5,1.7,1.9,1.7s1.9-0.8,1.9-1.7
	V82.3z M83.2,82.6v2.7c0,2.7-1.1,5.4-5.9,5.4s-5.9-2.7-5.9-5.4v-2.7c0-2.7,1.2-5.4,5.9-5.4S83.2,79.9,83.2,82.6z M79.1,82.3
	c0-0.9-0.5-1.7-1.9-1.7s-1.9,0.8-1.9,1.7v3.4c0,0.9,0.5,1.7,1.9,1.7s1.9-0.8,1.9-1.7V82.3z M92.1,77.4l-3.7,5.9v-12l-4,0.7v18.6h4
	v-6.2l3.7,6.2h4.4l-4.1-6.7l4.1-6.4h-4.4V77.4z M99.3,90.2h-0.2c0,0-0.1-0.2-0.1-0.4c0-0.2-0.1-0.2-0.3-0.2h-0.2v0.6h-0.2v-1.4
	c0.1,0,0.2,0,0.4,0c0.2,0,0.4,0,0.4,0.1c0.1,0.1,0.1,0.2,0.1,0.3c0,0.2-0.1,0.3-0.3,0.3l0,0c0.1,0,0.2,0.1,0.2,0.3
	C99.3,90.1,99.3,90.2,99.3,90.2z M99,89.2c0-0.1-0.1-0.2-0.3-0.2c-0.1,0-0.1,0-0.2,0v0.5h0.2C98.9,89.5,99,89.4,99,89.2z M100,89.5
	c0,0.7-0.5,1.3-1.2,1.3s-1.2-0.5-1.2-1.3c0-0.7,0.6-1.2,1.2-1.2l0,0C99.5,88.3,100,88.8,100,89.5z M99.8,89.5c0-0.6-0.4-1.1-1-1.1
	l0,0c-0.5,0-1,0.5-1,1.1c0,0.6,0.5,1.1,1,1.1S99.8,90.1,99.8,89.5z M6.1,77.4v-1.7c0-0.9,0.1-1.3,1.3-1.3h1.7V71H6.4
	C3.2,71,2,72.6,2,75.4v2H0v3.4h2v9.8h4v-9.8h2.7l0.4-3.4H6.1z M19.9,82.6v8h-3.4l-0.1-0.9c-1.5,0.9-2.9,1-3.8,1
	c-2.5,0-3.8-1.7-3.8-3.9c0-2.7,1.5-3.7,4.3-3.7h2.8v-0.6c0-1.4-0.2-1.8-2.3-1.8h-3.5l0.3-3.4h3.8C18.9,77.4,19.9,78.9,19.9,82.6z
	 M15.9,85.8h-1.8c-0.9,0-1.2,0.2-1.2,0.9s0.4,1.1,1.1,1.1c0.8,0,1.3-0.3,1.9-0.5V85.8z M27.7,80.6c1,0,1.6,0.1,3.7,0.4v-3.3
	c-1.8-0.4-3-0.5-4-0.5c-4.3,0-6.1,2.3-6.1,5.6v2.4c0,3.3,1.7,5.6,6.1,5.6c1,0,2.2-0.1,4-0.5V87c-2.1,0.4-2.7,0.4-3.7,0.4
	c-1.8,0-2.4-0.4-2.4-1.9v-2.9C25.3,81,25.9,80.6,27.7,80.6z M36.6,85.2v0.3c0,1.5,0.5,1.9,2.4,1.9c1.6,0,2.6-0.1,4.7-0.4v3.3
	c-2,0.4-3.1,0.5-5.1,0.5c-4.3,0-6.1-2.3-6.1-5.6v-2.7c0-2.9,1.3-5.3,5.7-5.3s5.7,2.3,5.7,5.3v2.7C43.9,85.2,36.6,85.2,36.6,85.2z
	 M36.6,82.5H40V82c0-0.9-0.3-1.7-1.7-1.7s-1.7,0.8-1.7,1.7V82.5z M57.2,81.9v3.3c0,3.2-0.9,5.5-6.4,5.5c-2,0-3.2-0.2-5.4-0.5V72
	l4-0.7v6.4c0.9-0.3,2-0.5,3-0.5C56.5,77.2,57.2,79,57.2,81.9z M53.2,82.3c0-0.9-0.3-1.7-1.7-1.7c-0.8,0-1.4,0.3-2,0.5v6.2
	c0.6,0.1,0.9,0.1,1.5,0.1c2,0,2.3-0.9,2.3-2.2L53.2,82.3L53.2,82.3z M70.2,82.6v2.7c0,2.7-1.1,5.4-5.9,5.4s-5.9-2.7-5.9-5.4v-2.7
	c0-2.7,1.2-5.4,5.9-5.4C69.1,77.2,70.2,79.9,70.2,82.6z M66.1,82.3c0-0.9-0.5-1.7-1.9-1.7s-1.9,0.8-1.9,1.7v3.4
	c0,0.9,0.5,1.7,1.9,1.7s1.9-0.8,1.9-1.7V82.3z M83.2,82.6v2.7c0,2.7-1.1,5.4-5.9,5.4s-5.9-2.7-5.9-5.4v-2.7c0-2.7,1.2-5.4,5.9-5.4
	S83.2,79.9,83.2,82.6z M79.1,82.3c0-0.9-0.5-1.7-1.9-1.7s-1.9,0.8-1.9,1.7v3.4c0,0.9,0.5,1.7,1.9,1.7s1.9-0.8,1.9-1.7V82.3z
	 M96.5,77.4h-4.4l-3.7,5.9v-12l-4,0.7v18.6h4v-6.2l3.7,6.2h4.4l-4.1-6.7L96.5,77.4z M99.3,90.2h-0.2c0,0-0.1-0.2-0.1-0.4
	c0-0.2-0.1-0.2-0.3-0.2h-0.2v0.6h-0.2v-1.4c0.1,0,0.2,0,0.4,0c0.2,0,0.4,0,0.4,0.1c0.1,0.1,0.1,0.2,0.1,0.3c0,0.2-0.1,0.3-0.3,0.3
	l0,0c0.1,0,0.2,0.1,0.2,0.3C99.3,90.1,99.3,90.2,99.3,90.2z M99,89.2c0-0.1-0.1-0.2-0.3-0.2c-0.1,0-0.1,0-0.2,0v0.5h0.2
	C98.9,89.5,99,89.4,99,89.2z M100,89.5c0,0.7-0.5,1.3-1.2,1.3s-1.2-0.5-1.2-1.3c0-0.7,0.6-1.2,1.2-1.2l0,0
	C99.5,88.3,100,88.8,100,89.5z M99.8,89.5c0-0.6-0.4-1.1-1-1.1l0,0c-0.5,0-1,0.5-1,1.1c0,0.6,0.5,1.1,1,1.1S99.8,90.1,99.8,89.5z
	 M99.3,90.2h-0.2c0,0-0.1-0.2-0.1-0.4c0-0.2-0.1-0.2-0.3-0.2h-0.2v0.6h-0.2v-1.4c0.1,0,0.2,0,0.4,0c0.2,0,0.4,0,0.4,0.1
	c0.1,0.1,0.1,0.2,0.1,0.3c0,0.2-0.1,0.3-0.3,0.3l0,0c0.1,0,0.2,0.1,0.2,0.3C99.3,90.1,99.3,90.2,99.3,90.2z M99,89.2
	c0-0.1-0.1-0.2-0.3-0.2c-0.1,0-0.1,0-0.2,0v0.5h0.2C98.9,89.5,99,89.4,99,89.2z M99.3,90.2h-0.2c0,0-0.1-0.2-0.1-0.4
	c0-0.2-0.1-0.2-0.3-0.2h-0.2v0.6h-0.2v-1.4c0.1,0,0.2,0,0.4,0c0.2,0,0.4,0,0.4,0.1c0.1,0.1,0.1,0.2,0.1,0.3c0,0.2-0.1,0.3-0.3,0.3
	l0,0c0.1,0,0.2,0.1,0.2,0.3C99.3,90.1,99.3,90.2,99.3,90.2z M99,89.2c0-0.1-0.1-0.2-0.3-0.2c-0.1,0-0.1,0-0.2,0v0.5h0.2
	C98.9,89.5,99,89.4,99,89.2z"/>
</svg>
