<?xml version="1.0" encoding="UTF-8"?>
<svg width="28px" height="28px" viewBox="0 0 28 28" version="1.1" xmlns="http://www.w3.org/2000/svg" xmlns:xlink="http://www.w3.org/1999/xlink">
    <!-- Generator: Sketch 46.2 (44496) - http://www.bohemiancoding.com/sketch -->
    <title>ic_error_outline_white_48px</title>
    <desc>Created with Sketch.</desc>
    <defs></defs>
    <g id="Page-1" stroke="none" stroke-width="1" fill="none" fill-rule="evenodd">
        <g id="ic_error_outline_white_48px" transform="translate(-2.000000, -2.000000)">
            <polygon id="Shape" points="0 0 32 0 32 32 0 32"></polygon>
            <path d="M14.6666667,20 L17.3333333,20 L17.3333333,22.6666667 L14.6666667,22.6666667 L14.6666667,20 Z M14.6666667,9.33333333 L17.3333333,9.33333333 L17.3333333,17.3333333 L14.6666667,17.3333333 L14.6666667,9.33333333 Z M15.9866667,2.66666667 C8.62666667,2.66666667 2.66666667,8.64 2.66666667,16 C2.66666667,23.36 8.62666667,29.3333333 15.9866667,29.3333333 C23.36,29.3333333 29.3333333,23.36 29.3333333,16 C29.3333333,8.64 23.36,2.66666667 15.9866667,2.66666667 Z M16,26.6666667 C10.1066667,26.6666667 5.33333333,21.8933333 5.33333333,16 C5.33333333,10.1066667 10.1066667,5.33333333 16,5.33333333 C21.8933333,5.33333333 26.6666667,10.1066667 26.6666667,16 C26.6666667,21.8933333 21.8933333,26.6666667 16,26.6666667 Z" id="Shape" fill="#FFFFFF" fill-rule="nonzero"></path>
        </g>
    </g>
</svg>