<?xml version="1.0" encoding="UTF-8" standalone="no"?>
<svg width="20px" height="20px" viewBox="0 0 20 20" version="1.1" xmlns="http://www.w3.org/2000/svg" xmlns:xlink="http://www.w3.org/1999/xlink">
    <!-- Generator: Sketch 39.1 (31720) - http://www.bohemiancoding.com/sketch -->
    <title>Error</title>
    <desc>Created with Sketch.</desc>
    <defs></defs>
    <g id="Symbols" stroke="none" stroke-width="1" fill="none" fill-rule="evenodd">
        <g id="Error">
            <g>
                <path d="M20,10 C20,15.523 15.523,20 10,20 C4.477,20 0,15.523 0,10 C0,4.477 4.477,0 10,0 C15.523,0 20,4.477 20,10" id="Fill-1" fill="#FB5E2B"></path>
                <path d="M10.6443,11.3169 C10.6303,11.4999 10.5603,11.6389 10.4483,11.7519 C10.3363,11.8639 10.1823,11.9199 9.9993,11.9199 C9.8173,11.9199 9.6643,11.8639 9.5513,11.7519 C9.4393,11.6389 9.3693,11.4999 9.3553,11.3169 L8.9913,7.7039 L8.9913,6.2889 C8.9913,5.9949 9.0893,5.7559 9.2713,5.5739 C9.4543,5.3919 9.6913,5.2939 9.9863,5.2939 C10.2803,5.2939 10.5183,5.3919 10.7003,5.5739 C10.8823,5.7559 10.9803,5.9949 10.9803,6.2889 L10.9803,7.7039 L10.6443,11.3169 Z M9.2153,12.8159 C9.4253,12.6059 9.6913,12.4939 9.9993,12.4939 C10.3083,12.4939 10.5743,12.6059 10.7843,12.8159 C10.9943,13.0259 11.1063,13.2929 11.1063,13.5999 C11.1063,13.9089 10.9943,14.1739 10.7843,14.3849 C10.5743,14.5949 10.3083,14.7069 9.9993,14.7069 C9.6913,14.7069 9.4253,14.5949 9.2153,14.3849 C9.0053,14.1739 8.8933,13.9089 8.8933,13.5999 C8.8933,13.2929 9.0053,13.0259 9.2153,12.8159 L9.2153,12.8159 Z" id="Fill-3" fill="#FFFFFF"></path>
            </g>
        </g>
    </g>
</svg>