<?xml version="1.0" encoding="UTF-8" standalone="no"?>
<svg width="20px" height="20px" viewBox="0 0 20 20" version="1.1" xmlns="http://www.w3.org/2000/svg" xmlns:xlink="http://www.w3.org/1999/xlink">
    <!-- Generator: Sketch 39.1 (31720) - http://www.bohemiancoding.com/sketch -->
    <title>Success</title>
    <desc>Created with Sketch.</desc>
    <defs></defs>
    <g id="Symbols" stroke="none" stroke-width="1" fill="none" fill-rule="evenodd">
        <g id="Success">
            <g id="Fill-1">
                <path d="M20,10 C20,15.523 15.523,20 10,20 C4.477,20 0,15.523 0,10 C0,4.477 4.477,0 10,0 C15.523,0 20,4.477 20,10" fill="#05B78C"></path>
                <path d="M8.55840576,14.5733686 C8.33540576,14.5733686 8.12340576,14.4733686 7.98140576,14.3023686 L5.17240576,10.9133686 C4.90840576,10.5943686 4.95240576,10.1213686 5.27140576,9.85736858 C5.58840576,9.59336858 6.06140576,9.63636858 6.32740576,9.95636858 L8.52240576,12.6043686 L13.1454058,6.30736858 C13.3884058,5.97436858 13.8594058,5.89836858 14.1934058,6.14636858 C14.5274058,6.39136858 14.5994058,6.86136858 14.3544058,7.19436858 L9.16240576,14.2663686 C9.02640576,14.4533686 8.81140576,14.5663686 8.58040576,14.5733686 L8.55840576,14.5733686 Z" fill="#FFFFFF"></path>
            </g>
        </g>
    </g>
</svg>