<?xml version="1.0" encoding="UTF-8" standalone="no"?>
<svg width="16px" height="16px" viewBox="0 0 16 16" version="1.1" xmlns="http://www.w3.org/2000/svg" xmlns:xlink="http://www.w3.org/1999/xlink">
    <!-- Generator: Sketch 39.1 (31720) - http://www.bohemiancoding.com/sketch -->
    <title>Calendar Icon</title>
    <desc>Created with Sketch.</desc>
    <defs></defs>
    <g id="Registration---Personal" stroke="none" stroke-width="1" fill="none" fill-rule="evenodd">
        <g id="01_Personal-Onboarding_Registration_Step-2_iPad" transform="translate(-558.000000, -956.000000)" fill="#047DB1">
            <g id="Form" transform="translate(140.000000, 205.000000)">
                <g id="Your-details" transform="translate(40.000000, 318.000000)">
                    <g id="Form-fields" transform="translate(0.000000, 144.000000)">
                        <g id="DOB" transform="translate(0.000000, 252.000000)">
                            <g id="Input-field" transform="translate(0.000000, 22.000000)">
                                <g id="Calendar" transform="translate(364.000000, 0.000000)">
                                    <g id="Calendar-Icon" transform="translate(14.000000, 15.000000)">
                                        <path d="M14.0041579,15.3322716 L14.0041579,14.6646592 L14.0048256,14.6646592 L14.0041579,15.3322716 Z M11.7667939,14.6646592 L11.7667939,13.1071193 L14.0034903,13.1071193 L14.0034903,14.6646592 L11.7667939,14.6646592 Z M1.33510922,14.6646592 L3.57247324,14.6646592 L3.57247324,13.1071193 L1.33510922,13.1071193 L1.33510922,14.6646592 Z M11.7667939,8.4845707 L11.7667939,6.4630402 L14.0041579,6.4630402 L14.0041579,8.4845707 L11.7667939,8.4845707 Z M11.7667939,9.8197956 L14.0034903,9.8197956 L14.0034903,11.7718944 L11.7667939,11.7718944 L11.7667939,9.8197956 Z M8.33763797,11.7718944 L10.4321205,11.7718944 L10.4321205,9.8197956 L8.33763797,9.8197956 L8.33763797,11.7718944 Z M8.33763797,14.6646592 L10.4321205,14.6646592 L10.4321205,13.1071193 L8.33763797,13.1071193 L8.33763797,14.6646592 Z M4.90781434,14.6646592 L7.00229687,14.6646592 L7.00229687,13.1071193 L4.90781434,13.1071193 L4.90781434,14.6646592 Z M4.90781434,11.7718944 L7.00229687,11.7718944 L7.00229687,9.8197956 L4.90781434,9.8197956 L4.90781434,11.7718944 Z M1.33510922,11.7718944 L3.57247324,11.7718944 L3.57247324,9.8197956 L1.33510922,9.8197956 L1.33510922,11.7718944 Z M1.33510922,8.4845707 L3.57247324,8.4845707 L3.57247324,6.4630402 L1.33510922,6.4630402 L1.33510922,8.4845707 Z M4.90781434,8.4845707 L7.00229687,8.4845707 L7.00229687,6.4630402 L4.90781434,6.4630402 L4.90781434,8.4845707 Z M8.3369703,8.4845707 L10.4314528,8.4845707 L10.4314528,6.4630402 L8.3369703,6.4630402 L8.3369703,8.4845707 Z M3.57247324,2.74777691 L3.57247324,3.44743475 C3.57247324,3.81662444 3.87092198,4.11504721 4.24014379,4.11504721 C4.60936561,4.11504721 4.90781434,3.81662444 4.90781434,3.44743475 L4.90781434,2.74777691 L10.4314528,2.74777691 L10.4314528,3.44743475 C10.4314528,3.81662444 10.7305692,4.11504721 11.0991234,4.11504721 C11.4683452,4.11504721 11.7667939,3.81662444 11.7667939,3.44743475 L11.7667939,2.74777691 L14.0041579,2.74777691 L14.0041579,5.12781529 L1.33510922,5.12781529 L1.33510922,2.74777691 L3.57247324,2.74777691 Z M14.0041579,1.412552 L11.7667939,1.412552 L11.7667939,0.667496509 C11.7667939,0.298306824 11.4683452,-0.000115942029 11.0991234,-0.000115942029 C10.7305692,-0.000115942029 10.4314528,0.298306824 10.4314528,0.667496509 L10.4314528,1.412552 L4.90781434,1.412552 L4.90781434,0.667496509 C4.90781434,0.298306824 4.60936561,-0.000115942029 4.24014379,-0.000115942029 C3.87092198,-0.000115942029 3.57247324,0.298306824 3.57247324,0.667496509 L3.57247324,1.412552 L1.33510922,1.412552 C0.599336272,1.412552 -0.000231884058,2.01206799 -0.000231884058,2.74777691 L-0.000231884058,14.6646592 C-0.000231884058,15.4010357 0.599336272,15.9998841 1.33510922,15.9998841 L14.0041579,15.9998841 C14.7405986,15.9998841 15.3394991,15.4010357 15.3394991,14.6646592 L15.3394991,2.74777691 C15.3394991,2.01206799 14.7405986,1.412552 14.0041579,1.412552 L14.0041579,1.412552 Z" id="Fill-1"></path>
                                    </g>
                                </g>
                            </g>
                        </g>
                    </g>
                </g>
            </g>
        </g>
    </g>
</svg>