<?xml version="1.0" encoding="UTF-8" standalone="no"?>
<svg width="20px" height="20px" viewBox="0 0 20 20" version="1.1" xmlns="http://www.w3.org/2000/svg" xmlns:xlink="http://www.w3.org/1999/xlink">
    <!-- Generator: Sketch 39.1 (31720) - http://www.bohemiancoding.com/sketch -->
    <title>Info</title>
    <desc>Created with Sketch.</desc>
    <defs></defs>
    <g id="Symbols" stroke="none" stroke-width="1" fill="none" fill-rule="evenodd">
        <g id="Info" fill="#f59e38">
            <g>
                <path d="M10,0 C4.477,0 0,4.477 0,10 C0,15.523 4.477,20 10,20 C15.523,20 20,15.523 20,10 C20,4.477 15.523,0 10,0 M10,1 C14.963,1 19,5.037 19,10 C19,14.963 14.963,19 10,19 C5.037,19 1,14.963 1,10 C1,5.037 5.037,1 10,1" id="Fill-1"></path>
                <path d="M10.7144,8.165 C10.8964,8.348 10.9944,8.586 10.9944,8.88 L10.9944,13.95 C10.9944,14.245 10.8964,14.482 10.7144,14.665 C10.5324,14.847 10.2944,14.931 10.0004,14.931 C9.7064,14.931 9.4674,14.847 9.2854,14.665 C9.1034,14.482 9.0054,14.245 9.0054,13.95 L9.0054,8.88 C9.0054,8.586 9.1034,8.348 9.2854,8.165 C9.4674,7.983 9.7064,7.899 10.0004,7.899 C10.2944,7.899 10.5324,7.983 10.7144,8.165 M9.2434,5.392 C9.4534,5.182 9.7064,5.069 10.0004,5.069 C10.2944,5.069 10.5464,5.182 10.7564,5.392 C10.9664,5.602 11.0784,5.854 11.0784,6.148 C11.0784,6.442 10.9664,6.694 10.7564,6.904 C10.5464,7.115 10.2944,7.227 10.0004,7.227 C9.7064,7.227 9.4534,7.115 9.2434,6.904 C9.0334,6.694 8.9214,6.442 8.9214,6.148 C8.9214,5.854 9.0334,5.602 9.2434,5.392" id="Fill-3"></path>
            </g>
        </g>
    </g>
</svg>
