<svg xmlns="http://www.w3.org/2000/svg" viewBox="0 0 17.2 24.17"><defs><style>.cls-1{fill:#9d9d9c;}</style></defs><title>Asset 40</title><g id="Layer_2" data-name="Layer 2"><g id="Layer_1-2" data-name="Layer 1"><path class="cls-1" d="M15.12,9.34V6.21c0-.19,0-.39,0-.58a6.42,6.42,0,0,0-.58-2,6.49,6.49,0,0,0-1-1.53A6.54,6.54,0,0,0,9.57.07L9,0H8.52a7.07,7.07,0,0,0-.73,0A6.54,6.54,0,0,0,4.22,1.67,6.47,6.47,0,0,0,2.49,4.18a6.31,6.31,0,0,0-.34,1.29c0,.21-.05.43-.07.64a.92.92,0,0,0,0,.09c0,.05,0,.05,0,.1v3A2.08,2.08,0,0,0,0,11.42V22.09a2.08,2.08,0,0,0,2.08,2.08h13a2.08,2.08,0,0,0,2.08-2.08V11.42A2.08,2.08,0,0,0,15.12,9.34ZM9.34,16.71v2.71a.74.74,0,0,1-.22.52.73.73,0,0,1-.52.22.74.74,0,0,1-.74-.74V16.71A1.8,1.8,0,0,1,7,15.12,1.71,1.71,0,0,1,8.6,13.34a1.71,1.71,0,0,1,1.63,1.78A1.8,1.8,0,0,1,9.34,16.71Zm3.11-7.37H4.75v-3a3.25,3.25,0,0,1,0-.39,3.76,3.76,0,0,1,.2-.8A3.86,3.86,0,0,1,8.11,2.7l.44,0h.1l.44,0a3.87,3.87,0,0,1,.87.21,3.92,3.92,0,0,1,1.25.75,3.8,3.8,0,0,1,1,1.47,3.7,3.7,0,0,1,.2.8c0,.11,0,.22,0,.33s0,.08,0,.12Z"/></g></g></svg>