<?xml version="1.0" encoding="utf-8"?>
<!-- Generator: Adobe Illustrator 18.1.1, SVG Export Plug-In . SVG Version: 6.00 Build 0)  -->
<svg version="1.1" id="Layer_1" xmlns="http://www.w3.org/2000/svg" xmlns:xlink="http://www.w3.org/1999/xlink" x="0px" y="0px"
	 width="30px" height="30px" viewBox="-464 266 30 30" enable-background="new -464 266 30 30" xml:space="preserve">
<g>
	<path id="path-1_1_" fill="#A5AAA8" d="M-449,267.5c7.4,0,13.5,6.1,13.5,13.5s-6.1,13.5-13.5,13.5s-13.5-6.1-13.5-13.5
		S-456.4,267.5-449,267.5 M-449,266c-8.3,0-15,6.7-15,15s6.7,15,15,15s15-6.7,15-15S-440.7,266-449,266L-449,266z"/>
	<path fill="#6B6E6D" d="M-447.7,281.2l3.2-3.2c0.3-0.3,0.3-0.8,0-1.1s-0.8-0.3-1.1,0l-3.2,3.2l-3.2-3.2c-0.3-0.3-0.8-0.3-1.1,0
		s-0.3,0.8,0,1.1l3.2,3.2l-3.2,3.2c-0.3,0.3-0.3,0.8,0,1.1c0.1,0.1,0.3,0.2,0.5,0.2s0.4-0.1,0.5-0.2l3.2-3.2l3.2,3.2
		c0.1,0.1,0.3,0.2,0.5,0.2s0.4-0.1,0.5-0.2c0.3-0.3,0.3-0.8,0-1.1L-447.7,281.2z"/>
	<g>
	</g>
</g>
</svg>
