<?xml version="1.0" encoding="utf-8"?>
<!-- Generator: Adobe Illustrator 18.1.1, SVG Export Plug-In . SVG Version: 6.00 Build 0)  -->
<svg version="1.1" id="Layer_1" xmlns="http://www.w3.org/2000/svg" xmlns:xlink="http://www.w3.org/1999/xlink" x="0px" y="0px"
	 width="12px" height="12px" viewBox="0 0 12 12" enable-background="new 0 0 12 12" xml:space="preserve">
<path fill="#737675" d="M11,10c0.3,0.3,0.3,0.8,0,1.1c-0.1,0.1-0.3,0.2-0.5,0.2S10.1,11.2,10,11l-4-4l-4,4c-0.1,0.1-0.3,0.2-0.5,0.2
	S1.1,11.2,1,11c-0.3-0.3-0.3-0.8,0-1.1l4-4L1,2C0.7,1.7,0.7,1.3,1,1S1.7,0.7,2,1l4,4l4-4c0.3-0.3,0.8-0.3,1.1,0s0.3,0.8,0,1.1l-4,4
	L11,10z"/>
</svg>
