<svg xmlns="http://www.w3.org/2000/svg" width="96" height="96" viewBox="0 0 96 96" xmlns:xlink="http://www.w3.org/1999/xlink">
  <defs>
    <rect id="a" width="70" height="30" x="23.69" y="55.548" rx="2"/>
    <rect id="c" width="70" height="30" rx="2"/>
    <filter id="b" width="101.4%" height="106.7%" x="-.7%" y="-1.7%" filterUnits="objectBoundingBox">
      <feOffset dy="1" in="SourceAlpha" result="shadowOffsetOuter1"/>
      <feComposite in="shadowOffsetOuter1" in2="SourceAlpha" operator="out" result="shadowOffsetOuter1"/>
      <feColorMatrix values="0 0 0 0 0 0 0 0 0 0 0 0 0 0 0 0 0 0 0.5 0" in="shadowOffsetOuter1"/>
    </filter>
    <path id="d" d="M2,0 L9,0 L9,30 L2,30 C0.8954305,30 1.3527075e-16,29.1045695 0,28 L0,2 C-1.3527075e-16,0.8954305 0.8954305,2.02906125e-16 2,0 Z"/>
    <path id="f" d="M7,14 L78,14 L78,61 C78,62.1045695 77.1045695,63 76,63 L9,63 C7.8954305,63 7,62.1045695 7,61 L7,14 Z"/>
    <filter id="e" width="119.7%" height="130.6%" x="-9.9%" y="-10.2%" filterUnits="objectBoundingBox">
      <feOffset dy="1" in="SourceAlpha" result="shadowOffsetOuter1"/>
      <feComposite in="shadowOffsetOuter1" in2="SourceAlpha" operator="out" result="shadowOffsetOuter1"/>
      <feColorMatrix values="0 0 0 0 0.670588235 0 0 0 0 0.368627451 0 0 0 0 0.0274509804 0 0 0 1 0" in="shadowOffsetOuter1" result="shadowMatrixOuter1"/>
      <feOffset dy="2" in="SourceAlpha" result="shadowOffsetOuter2"/>
      <feGaussianBlur stdDeviation="2" in="shadowOffsetOuter2" result="shadowBlurOuter2"/>
      <feComposite in="shadowBlurOuter2" in2="SourceAlpha" operator="out" result="shadowBlurOuter2"/>
      <feColorMatrix values="0 0 0 0 0 0 0 0 0 0 0 0 0 0 0 0 0 0 0.5 0" in="shadowBlurOuter2" result="shadowMatrixOuter2"/>
      <feMerge>
        <feMergeNode in="shadowMatrixOuter1"/>
        <feMergeNode in="shadowMatrixOuter2"/>
      </feMerge>
    </filter>
    <path id="g" d="M2,0 L69,0 C70.1045695,-2.02906125e-16 71,0.8954305 71,2 L71,49 C71,50.1045695 70.1045695,51 69,51 L2,51 C0.8954305,51 1.3527075e-16,50.1045695 0,49 L0,37.5789474 L0,2 C-1.3527075e-16,0.8954305 0.8954305,2.02906125e-16 2,0 Z"/>
    <path id="i" d="M7,0 L78,0 L85.2763932,14.5527864 C85.5233825,15.0467649 85.3231581,15.6474379 84.8291796,15.8944272 C84.6903242,15.9638549 84.5372111,16 84.381966,16 L0.618033989,16 C0.0657492389,16 -0.381966011,15.5522847 -0.381966011,15 C-0.381966011,14.8447549 -0.345820919,14.6916418 -0.276393202,14.5527864 L7,0 Z"/>
    <path id="j" d="M7,2 L78,2 L84.2763932,14.5527864 C84.5233825,15.0467649 84.3231581,15.6474379 83.8291796,15.8944272 C83.6903242,15.9638549 83.5372111,16 83.381966,16 L1.61803399,16 C1.06574924,16 0.618033989,15.5522847 0.618033989,15 C0.618033989,14.8447549 0.654179081,14.6916418 0.723606798,14.5527864 L7,2 Z"/>
    <radialGradient id="k" cy="36.146%" r="64.099%" fx="50%" fy="36.146%" gradientTransform="scale(1 .83871) rotate(89.156 .465 .396)">
      <stop stop-color="#F79E37" offset="0%"/>
      <stop stop-color="#DF7B09" offset="100%"/>
    </radialGradient>
    <rect id="l" width="22" height="27" x="2" y="2" rx="1"/>
  </defs>
  <g fill="none" fill-rule="evenodd">
    <circle cx="48" cy="48" r="45" fill="#D2D4D3"/>
    <g transform="rotate(-15 58.69 70.548)">
      <use fill="#FFFFFF" xlink:href="#a"/>
      <rect width="69" height="29" x="24.19" y="56.048" stroke="#FFFFFF" rx="2"/>
    </g>
    <g opacity=".75" transform="rotate(-15 257.808 -47.197)">
      <use fill="black" filter="url(#b)" xlink:href="#c"/>
      <use fill="#FFFFFF" xlink:href="#c"/>
      <rect width="69" height="29" x=".5" y=".5" stroke="#949896" rx="2"/>
      <path stroke="#949896" stroke-width="2" d="M12 10L27 10M12 14L31 14M57 6L66 6M57 10L68 10M57 14L66 14M57 18L68 18M57 25L68 25"/>
      <path stroke="#949896" stroke-width="4" d="M12,5 L37,5"/>
      <use fill="#949896" xlink:href="#d"/>
      <path stroke="#949896" stroke-width="2" d="M8,29 L8,1 L2,1 C1.44771525,1 1,1.44771525 1,2 L1,28 C1,28.5522847 1.44771525,29 2,29 L8,29 Z"/>
      <path fill="#949896" d="M49.175,21.7058824 C48.9916667,21.7058824 47.9833333,21.7058824 46.15,21.7058824 L43.125,18 L42.3,18 L43.675,21.7058824 L40.65,21.7058824 L40.1,20.9117647 L39,20.9117647 L39.55,22.5 L39,24.0882353 L40.1,24.0882353 L40.65,23.2941176 L43.675,23.2941176 L42.3,27 L43.125,27 L46.15,23.2941176 C47.9833333,23.2941176 48.9916667,23.2941176 49.175,23.2941176 C49.45,23.2941176 50,23.0294118 50,22.5 C50,21.9705882 49.45,21.7058824 49.175,21.7058824 Z"/>
      <g stroke="#949896" transform="translate(12 21)">
        <path d="M.5 0L.5 6M1.5 0L1.5 6M2.5 0L2.5 6M4.5 0L4.5 6"/>
        <path stroke-width="2" d="M6.5,0 L6.5,6"/>
        <path d="M2.5 0L2.5 6M10.5 0L10.5 6M12.5 0L12.5 6M14.5 0L14.5 6"/>
        <path stroke-width="2" d="M16.5,0 L16.5,6"/>
        <path d="M13.5 0L13.5 6M7.5 0L7.5 6M17.5 0L17.5 6"/>
        <path stroke-width="2" d="M19.5,0 L19.5,6"/>
        <path d="M24.5 0L24.5 6M21.5 0L21.5 6"/>
        <path stroke-width="2" d="M9.5,0 L9.5,6"/>
      </g>
    </g>
    <g transform="translate(2 8)">
      <use fill="black" filter="url(#e)" xlink:href="#f"/>
      <use fill="#FFFFFF" xlink:href="#f"/>
      <path stroke="#FFFFFF" stroke-width="2" d="M8,15 L8,61 C8,61.5522847 8.44771525,62 9,62 L76,62 C76.5522847,62 77,61.5522847 77,61 L77,15 L8,15 Z"/>
      <g transform="translate(7 16)">
        <mask id="h" fill="white">
          <use xlink:href="#g"/>
        </mask>
        <g fill-rule="nonzero" transform="translate(47 19)" opacity=".2" mask="url(#h)">
          <path stroke="#949896" stroke-width="3" d="M20,8.02173913 C13.3816173,8.02173913 8.02173913,13.4055454 8.02173913,20 C8.02173913,26.5628772 13.4371228,31.9782609 20,31.9782609 C26.5628772,31.9782609 31.9782609,26.5628772 31.9782609,20 C31.9782609,13.4055454 26.6183827,8.02173913 20,8.02173913 Z"/>
          <path fill="#949896" d="M38.7826087,19.826087 C38.2608696,18.7826087 38.0869565,17.5652174 38.4347826,16.5217391 C38.9565217,14.6956522 38.3478261,12.7826087 36.7826087,11.7391304 C35.826087,11.0434783 35.2173913,10 35.0434783,8.86956522 C34.7826087,7.04347826 33.3043478,5.56521739 31.4782609,5.2173913 C30.3478261,5.04347826 29.3043478,4.34782609 28.6956522,3.39130435 C27.6521739,1.82608696 25.7391304,1.13043478 23.9130435,1.65217391 C22.7826087,2 21.5652174,1.82608696 20.6086957,1.2173913 C18.9565217,0.260869565 16.9565217,0.52173913 15.5652174,1.73913043 C14.6956522,2.52173913 13.5652174,2.86956522 12.3478261,2.7826087 C10.5217391,2.69565217 8.7826087,3.73913043 8,5.39130435 C7.56521739,6.43478261 6.69565217,7.30434783 5.56521739,7.73913043 C3.82608696,8.43478261 2.69565217,10.173913 2.7826087,12 C2.86956522,13.1304348 2.43478261,14.2608696 1.65217391,15.1304348 C0.434782609,16.5217391 0.173913043,18.5217391 1.04347826,20.173913 C1.56521739,21.2173913 1.73913043,22.4347826 1.39130435,23.4782609 C0.869565217,25.3043478 1.47826087,27.2173913 3.04347826,28.2608696 C4,28.9565217 4.60869565,30 4.7826087,31.1304348 C5.04347826,32.9565217 6.52173913,34.4347826 8.34782609,34.7826087 C9.47826087,34.9565217 10.5217391,35.6521739 11.1304348,36.6086957 C12.173913,38.173913 14.0869565,38.8695652 15.9130435,38.3478261 C17.0434783,38 18.2608696,38.173913 19.2173913,38.7826087 C20.8695652,39.7391304 22.8695652,39.4782609 24.2608696,38.2608696 C25.1304348,37.4782609 26.2608696,37.1304348 27.4782609,37.2173913 C29.3043478,37.3043478 31.0434783,36.2608696 31.826087,34.6086957 C32.2608696,33.5652174 33.1304348,32.6956522 34.2608696,32.2608696 C36,31.5652174 37.1304348,29.826087 37.0434783,28 C36.9565217,26.8695652 37.3913043,25.7391304 38.173913,24.8695652 C39.3913043,23.4782609 39.6521739,21.4782609 38.7826087,19.826087 Z M20,35.4782609 C11.4782609,35.4782609 4.52173913,28.6086957 4.52173913,20 C4.52173913,11.4782609 11.3913043,4.52173913 20,4.52173913 C28.5217391,4.52173913 35.4782609,11.3913043 35.4782609,20 C35.4782609,28.5217391 28.5217391,35.4782609 20,35.4782609 Z"/>
        </g>
      </g>
      <path stroke="#DF7B09" stroke-width="2" d="M8,15 L8,61 C8,61.5522847 8.44771525,62 9,62 L76,62 C76.5522847,62 77,61.5522847 77,61 L77,15 L8,15 Z"/>
      <g transform="matrix(1 0 0 -1 0 16)">
        <use fill="#DF7B09" xlink:href="#i"/>
        <path stroke="#DF7B09" stroke-width="2" d="M7.61803399,1 L0.618033989,15 L84.381966,15 L77.381966,1 L7.61803399,1 Z"/>
      </g>
      <g transform="matrix(1 0 0 -1 0 18)">
        <use fill="#AB5E07" xlink:href="#j"/>
        <path stroke="#AB5E07" stroke-width="2" d="M7.61803399,3 L1.61803399,15 L83.381966,15 L77.381966,3 L7.61803399,3 Z"/>
      </g>
      <path stroke="#949896" stroke-width="2" d="M45 30L55 30M60 30L70 30M45 36L55 36M45 42L70 42M60 36L70 36"/>
      <path stroke="#949896" stroke-width="4" d="M45,23 L70,23"/>
      <g stroke="#949896" transform="translate(14 55)">
        <path d="M1 0L1 3M3-.27373675e-13L3 3M5 0L5 3M7 0L7 3"/>
        <path stroke-width="2" d="M10,0 L10,3"/>
        <path d="M5 0L5 3M18 0L18 3M20 0L20 3M24 0L24 3"/>
        <path stroke-width="2" d="M27,0 L27,3"/>
        <path d="M22 0L22 3M13 0L13 3M31 0L31 3"/>
        <path stroke-width="2" d="M34,0 L34,3"/>
        <path d="M42,0 L42,3"/>
        <path stroke-width="2" d="M51,0 L51,3"/>
        <path d="M37,0 L37,3"/>
        <path stroke-width="2" d="M16,0 L16,3"/>
      </g>
      <g transform="translate(14 21)">
        <rect width="26" height="31" fill="url(#k)" rx="2"/>
        <mask id="m" fill="white">
          <use xlink:href="#l"/>
        </mask>
        <g transform="translate(1 5)" mask="url(#m)">
          <path fill="#464547" d="M6.5,7 C6.5,11.5 4,14 5.5,15 C7,16 7.5,16.5 12,16.5 C16.5,16.5 17,16.5 18.5,15 C20,13.5 17.5,12 17.5,6.8720005 C17.5,6.5 17.5,6 17.5,5 C17.5,4 16.5,0 12,0 C7.27272727,4.4408921e-16 6.5,4 6.5,5 C6.5,6 6.5,6.62800873 6.5,7 Z"/>
          <path fill="#FFFFFF" d="M9.5,13.4 L8.45454545,17 L3.72727273,19.4 C6.87878788,21 9.63636364,21.8 12,21.8 C14.3636364,21.8 17.1212121,21 20.2727273,19.4 L15.5454545,17 L14.5,13.4 L9.5,13.4 Z"/>
          <path fill="#363537" fill-opacity=".5" d="M9.5,13.4 L8.45454545,17 L3.72727273,19.4 C6.09090909,19.4 7.66666667,19.4 8.45454545,19.4 C10.2272727,19.4 10.2272727,17.6 11.4090909,16.4 C12.1969697,15.6 13.2272727,14.6 14.5,13.4 L9.5,13.4 Z"/>
          <path fill="#FFFFFF" d="M14.5,13.5 C14,14 13,15 12,15 C11,15 10,14 9.5,13.5 C8.5,12.5 7.92116808,11.584675 7.49029111,10.1918748 C7.46321763,10.1943352 7.43487361,10.195585 7.40519991,10.195585 C6.6802977,10.195585 7,9.92006819 7,9 C7,8.07993181 6.6816684,7.49771073 6.93059253,7.49771073 C6.95387491,7.49771073 6.97701571,7.49848013 7,7.5 C6.95353018,7.04742548 6.74892413,5.9971332 6.74892413,5.64000317 C6.74892413,2.63557238 9.09952153,0.2 11.9991304,0.2 C14.8987392,0.2 17.2493366,2.63557238 17.2493366,5.64000317 C17.2493366,5.99512189 17.049679,7.04538228 17,7.5 C17.0252607,7.49816141 17.050713,7.49706113 17.0763363,7.49722949 C17.4979879,7.5 17.0763363,8.07993181 17.0763363,9 C17.0763363,9.92006819 17.3197023,10.195585 16.5948001,10.195585 C16.554509,10.195585 16.5166693,10.1932808 16.481133,10.1887705 C16.045278,11.5777667 15.5,12.5 14.5,13.5 Z"/>
          <path fill="#464547" d="M6.68181818,6.8720005 L7,12 L8,13.5 C8,10.5 8.16666667,8.83333333 8.5,8.5 C9,8 9,7 11,7 C13,7 13.8077642,5.5 14,5.5 C14.1715411,5.5 16,7 16,8.5 C16,9.83333333 16,11.5 16,13.5 L17.3181818,12 L17.3181818,6.8720005 C17.3181818,6.29066683 17.3181818,5.66666667 17.3181818,5 C17.3181818,4 16.5,0 12,0 C7.27272727,4.68087221e-16 6.68181818,4 6.68181818,5 C6.68181818,5.66666667 6.68181818,6.29066683 6.68181818,6.8720005 Z"/>
          <path fill="#363537" d="M1,26.5 C1,19.9180476 0.181818182,21.2 6.09090909,18.2 C6.87878788,17.8 7.66666667,17.4 8.45454545,17 C9.48484848,18.6 10.6666667,19.4 12,19.4 C13.3333333,19.4 14.5151515,18.6 15.5454545,17 C16.3333333,17.4 17.1212121,17.8 17.9090909,18.2 C23.8181818,21.2 23,19.9 23,26.5 L23,28 L1,28 L1,26.5 Z"/>
        </g>
      </g>
    </g>
    <polygon fill="#464547" fill-opacity=".2" points="9 24 80 24 9 48"/>
  </g>
</svg>
