<svg id="Layer_1" data-name="Layer 1" xmlns="http://www.w3.org/2000/svg" xmlns:xlink="http://www.w3.org/1999/xlink" viewBox="0 0 60 89.93"><defs><style>.cls-1{fill:#00aced;}.cls-2{fill:url(#linear-gradient);}.cls-3{fill:#4e4948;}</style><linearGradient id="linear-gradient" x1="18.79" y1="32.86" x2="30.05" y2="32.86" gradientUnits="userSpaceOnUse"><stop offset="0" stop-color="#117aa9"/><stop offset="0.02" stop-color="#0f80b1"/><stop offset="0.07" stop-color="#0a90c7"/><stop offset="0.14" stop-color="#059dd8"/><stop offset="0.22" stop-color="#02a5e4"/><stop offset="0.34" stop-color="#00abeb"/><stop offset="0.63" stop-color="#00aced"/><stop offset="1" stop-color="#00aced"/></linearGradient></defs><title>pingit</title><path class="cls-1" d="M30-.12a22,22,0,0,0-22,22V43.4L8,44a5.4,5.4,0,0,0,10.75,0l0-.48V40.76A22,22,0,1,0,30-.12ZM30,33A11.19,11.19,0,1,1,41.21,21.85,11.21,11.21,0,0,1,30,33Z" transform="translate(0 0.13)"/><ellipse class="cls-1" cx="13.4" cy="56.61" rx="5.4" ry="5.39"/><path class="cls-2" d="M18.79,21.88h0V40.77a22.13,22.13,0,0,0,11.26,3.06V33.07A11.24,11.24,0,0,1,18.79,21.88Z" transform="translate(0 0.13)"/><path class="cls-3" d="M6.2,84.43a4.67,4.67,0,0,1-3.41-1.24v6L.72,89.8V74.15A5.67,5.67,0,0,0,0,71.26l1.86-.54a5,5,0,0,1,.67,1.63,5.8,5.8,0,0,1,3.87-1.63c3.51,0,5.76,2.63,5.76,6.64C12.17,81.72,9.48,84.43,6.2,84.43Zm0-12a4.73,4.73,0,0,0-3.38,1.78v5.53c0,1.39.8,2.92,3.31,2.92,2.76,0,3.77-2.58,3.77-5.37C9.87,74.07,8.16,72.47,6.17,72.47Z" transform="translate(0 0.13)"/><path class="cls-3" d="M15.7,69a1.31,1.31,0,0,1-1.29-1.29A1.29,1.29,0,0,1,15.7,66.4,1.27,1.27,0,0,1,17,67.67,1.29,1.29,0,0,1,15.7,69Zm-1,15.16V71.31l2.07-.59V84.12Z" transform="translate(0 0.13)"/><path class="cls-3" d="M29,84.12V75.85c0-2.45-.7-3.38-2.61-3.38-1.68,0-4.31,1.7-4.31,3.56v8.09H20V71.31l2.07-.59v2.17a6.8,6.8,0,0,1,4.7-2.17c2.71,0,4.29,1.16,4.29,4.73v8.68Z" transform="translate(0 0.13)"/><path class="cls-3" d="M39.1,89.8a11.76,11.76,0,0,1-4.75-.93L34.2,87a11.39,11.39,0,0,0,4.7,1.06c2.43,0,3.85-1.55,3.85-4.47v-.75a5.68,5.68,0,0,1-3.62,1.39c-3.49,0-5.76-2.63-5.76-6.59,0-4.83,3.07-7,6.38-7a8.28,8.28,0,0,1,3.41.77L44.81,71V82.88C44.81,87.53,42.67,89.8,39.1,89.8Zm3.64-16.61a5.9,5.9,0,0,0-2.82-.77c-2.69,0-4.26,1.76-4.26,5.14,0,3.1,1.4,5,3.85,5,1.5,0,3.23-1.32,3.23-2.53Z" transform="translate(0 0.13)"/><path class="cls-3" d="M49.13,69a1.31,1.31,0,0,1-1.29-1.29,1.29,1.29,0,0,1,1.29-1.27,1.27,1.27,0,0,1,1.27,1.27A1.29,1.29,0,0,1,49.13,69Zm-1,15.16V71.31l2.07-.59V84.12Z" transform="translate(0 0.13)"/><path class="cls-3" d="M59.48,72.57H56.31v7.65c0,1.89.26,2.48,1.32,2.48a5,5,0,0,0,1.76-.36l.49,1.58a8.83,8.83,0,0,1-2.84.52c-1.89,0-2.79-1.11-2.79-3.57V72.57H51.63L52.2,71h2V67.74l2.07-.59V71H60Z" transform="translate(0 0.13)"/></svg>