<svg xmlns="http://www.w3.org/2000/svg" width="72" height="72" viewBox="0 0 72 72">
  <g fill="none">
	  <rect width="72" height="72"/>
	  <path stroke="#FFFFFF" stroke-width="3" d="M7.5,61.5 C8.24126196,52.5279517 12.4538753,45.1385883 18,42 C21,40.5 18,38.25 15,37.5 C12,36.75 12,34.5 12,34.5 C12,34.5 15,31.5 15,26.9289474 C15,21.9976259 19.0294373,18 24,18 C28.9705627,18 33,21.9976259 33,26.9289474 C33,31.5 36,34.5 36,34.5 C36,34.5 36,36.75 33,37.5 C30,38.25 27,40.5 30,42 C35.5433407,45.1370129 39.7557483,52.5339825 40.5,61.5" stroke-linecap="round"/>
	  <path stroke="#FFFFFF" stroke-width="3" d="M64.5,61.5 C64.5,51.2387855 60.1414876,42.4755081 54,39 C51,37.5 52.3685381,34.5 52.3685381,34.5 C55.0991958,32.4132858 57,27.75 57,25.1860859 L57,24 C57,20.8239626 59.7864167,17.3063097 58.5,15 C57.3916131,13.0128652 52.1839463,11.25 49.5,11.25 C45.125,11.25 45.628379,13.9785322 44.5469457,14.3568844 C43.6432301,14.6730599 41.7722143,13.8186338 41,14.3568844 C38.2665246,16.2621778 39,20.4033699 39,24 L39,25.1860859 C39,28.5 40.8981544,32.4112609 43.6314619,34.5 C43.6314619,34.5 45,37.5 42,39 C40.9585977,39.5893364 39.9684622,40.3307143 39.0421507,41.2056559" stroke-linecap="round" stroke-linejoin="round"/>
  </g>
</svg>
