<?xml version="1.0" encoding="UTF-8"?>
<svg width="48px" height="48px" viewBox="0 0 48 48" version="1.1" xmlns="http://www.w3.org/2000/svg" xmlns:xlink="http://www.w3.org/1999/xlink">
    <!-- Generator: Sketch 44 (41411) - http://www.bohemiancoding.com/sketch -->
    <title>Transfer/Transfer</title>
    <desc>Created with Sketch.</desc>
    <defs></defs>
    <g id="General" stroke="none" stroke-width="1" fill="none" fill-rule="evenodd">
        <g id="Transfer/Transfer">
            <g id="Transfer">
                <rect id="Bound" x="0" y="0" width="48" height="48"></rect>
                <path d="M26.0033836,29.9171436 C25.7228611,29.8675765 25.4593614,29.7959707 25.2128088,29.7028678 C24.5331332,29.4462096 24.0047466,29.0354703 23.6272392,28.51591 C23.6069323,28.4877529 23.6069323,28.4877529 23.5872244,28.4596052 C23.1721667,27.8624197 23.0188748,27.2691197 23.0008009,26.8177918 C22.9787018,26.2659493 23.4081436,25.8006778 23.959986,25.7785787 C24.5118285,25.7564795 24.9771,26.1859214 24.9991991,26.7377638 C25.003373,26.8419914 25.0653909,27.0820248 25.2452367,27.3402892 C25.3968687,27.548979 25.6108837,27.7153428 25.9193495,27.8318252 C26.2048773,27.9396459 26.5616472,28 27,28 C27.9097902,28 28.7,27.490007 28.7,26.7777778 C28.7,26.2910614 28.4355632,25.9764677 27.5462541,25.4513791 C27.4104933,25.3712197 27.2619637,25.2870629 27.0622711,25.1764912 C27.0043818,25.1444373 26.6286765,24.9376681 26.5143571,24.8741573 C26.4043461,24.8130401 26.0303296,24.6072003 25.9689117,24.5731926 C25.7544616,24.4544494 25.5913625,24.3620376 25.4368791,24.2708235 C24.001547,23.4233382 23.3,22.5887255 23.3,21.2222222 C23.3,19.5443596 24.5238675,18.4520527 26,18.1127889 L26,17 C26,16.4477153 26.4477153,16 27,16 C27.5522847,16 28,16.4477153 28,17 L28,18.0834555 C28.279258,18.1329998 28.5416301,18.2044037 28.7871912,18.2971322 C29.4668668,18.5537904 29.9952534,18.9645297 30.3727608,19.48409 C30.3930677,19.5122471 30.3930677,19.5122471 30.4127756,19.5403948 C30.8278333,20.1375803 30.9811252,20.7308803 30.9991991,21.1822082 C31.0212982,21.7340507 30.5918564,22.1993222 30.040014,22.2214213 C29.4881715,22.2435205 29.0229,21.8140786 29.0008009,21.2622362 C28.996627,21.1580086 28.9346091,20.9179752 28.7547633,20.6597108 C28.6031313,20.451021 28.3891163,20.2846572 28.0806505,20.1681748 C27.7951227,20.0603541 27.4383528,20 27,20 C26.0902098,20 25.3,20.509993 25.3,21.2222222 C25.3,21.7089386 25.5644368,22.0235323 26.4537459,22.5486209 C26.5895067,22.6287803 26.7380363,22.7129371 26.9377289,22.8235088 C26.9956182,22.8555627 27.3713235,23.0623319 27.4856429,23.1258427 C27.5956539,23.1869599 27.9696704,23.3927997 28.0310883,23.4268074 C28.2455384,23.5455506 28.4086375,23.6379624 28.5631209,23.7291765 C29.998453,24.5766618 30.7,25.4112745 30.7,26.7777778 C30.7,28.4579637 29.4727409,29.5509711 27.9938666,29.8886161 C27.9979193,29.9251856 28,29.9623498 28,30 L28,31 C28,31.5522847 27.5522847,32 27,32 C26.4477153,32 26,31.5522847 26,31 L26,30 C26,29.9720996 26.0011426,29.944466 26.0033836,29.9171436 Z M12,12.991155 L12,17 L10,17 L10,12.991155 C10,11.3361417 11.3400258,10 13.0017433,10 L40.9982567,10 C42.6553755,10 44,11.3366785 44,12.991155 L44,35.008845 C44,36.6638583 42.6599742,38 40.9982567,38 L13.0017433,38 C11.3446245,38 10,36.6633215 10,35.008845 L10,31 L12,31 L12,35.008845 C12,35.5560897 12.4465492,36 13.0017433,36 L40.9982567,36 C41.5567022,36 42,35.5579871 42,35.008845 L42,12.991155 C42,12.4439103 41.5534508,12 40.9982567,12 L13.0017433,12 C12.4432978,12 12,12.4420129 12,12.991155 Z M17,25 L7,25 C6.44771525,25 6,24.5522847 6,24 C6,23.4477153 6.44771525,23 7,23 L17,23 C17.5522847,23 18,23.4477153 18,24 C18,24.5522847 17.5522847,25 17,25 Z M17,29 L5,29 C4.44771525,29 4,28.5522847 4,28 C4,27.4477153 4.44771525,27 5,27 L17,27 C17.5522847,27 18,27.4477153 18,28 C18,28.5522847 17.5522847,29 17,29 Z M17,21 L9,21 C8.44771525,21 8,20.5522847 8,20 C8,19.4477153 8.44771525,19 9,19 L17,19 C17.5522847,19 18,19.4477153 18,20 C18,20.5522847 17.5522847,21 17,21 Z" id="Combined-Shape" fill="#FFFFFF" fill-rule="nonzero"></path>
            </g>
        </g>
    </g>
</svg>
