<?xml version="1.0" encoding="utf-8"?>
<!-- Generator: Adobe Illustrator 17.1.0, SVG Export Plug-In . SVG Version: 6.00 Build 0)  -->
<!DOCTYPE svg PUBLIC "-//W3C//DTD SVG 1.1//EN" "http://www.w3.org/Graphics/SVG/1.1/DTD/svg11.dtd">
<svg version="1.1" id="Layer_1" xmlns="http://www.w3.org/2000/svg" xmlns:xlink="http://www.w3.org/1999/xlink" x="0px" y="0px"
	 viewBox="0 33 100 30" enable-background="new 0 33 100 30" xml:space="preserve">
<path fill="#F79E37" d="M22.6,42.9c0,0.1,0,0.2,0,0.3c0,0.1,0,0.1-0.1,0.2l-0.1,0.1h-0.1h-3.2v9.8v0.1L19,53.5c-0.1,0-0.1,0-0.2,0.1
	c-0.1,0-0.2,0-0.4,0c-0.1,0-0.3,0-0.4,0s-0.2,0-0.2-0.1c-0.1,0-0.1,0-0.1-0.1v-0.1v-9.7h-3.2h-0.1l-0.1-0.1c0,0,0-0.1-0.1-0.2
	c0-0.1,0-0.2,0-0.3c0-0.1,0-0.2,0-0.3c0-0.1,0-0.2,0.1-0.2c0-0.1,0.1-0.1,0.1-0.1h0.1h7.9h0.1l0.1,0.1c0,0.1,0,0.1,0.1,0.2
	C22.6,42.8,22.6,42.8,22.6,42.9z M32.2,53.2c0-0.1-0.1-0.2-0.2-0.4l-1-2.5c-0.1-0.3-0.2-0.5-0.3-0.8c-0.1-0.2-0.2-0.4-0.4-0.6
	c-0.1-0.2-0.3-0.3-0.4-0.4c-0.2-0.1-0.3-0.2-0.5-0.3c0.3-0.1,0.6-0.3,0.9-0.4c0.3-0.3,0.5-0.5,0.7-0.7s0.3-0.5,0.4-0.8
	s0.2-0.6,0.2-1s-0.1-0.7-0.2-1.1c-0.1-0.3-0.3-0.6-0.5-0.9s-0.5-0.5-0.8-0.6c-0.3-0.2-0.7-0.3-1.2-0.4c-0.2,0-0.3,0-0.5,0
	s-0.4,0-0.7,0h-2.4c-0.1,0-0.3,0-0.4,0.1c-0.1,0.1-0.2,0.2-0.2,0.5v10.5v0.1l0.1,0.1c0.1,0,0.1,0,0.2,0.1c0.1,0,0.2,0,0.4,0
	c0.1,0,0.3,0,0.4,0s0.2,0,0.2-0.1c0.1,0,0.1,0,0.1-0.1v-0.1v-4.8h1c0.3,0,0.6,0.1,0.9,0.2c0.2,0.1,0.5,0.2,0.6,0.4
	c0.2,0.2,0.3,0.4,0.5,0.7c0.1,0.3,0.3,0.5,0.4,0.8l1,2.7c0,0.1,0.1,0.1,0.1,0.2l0.1,0.1c0.1,0,0.1,0,0.2,0.1c0.1,0,0.2,0,0.4,0
	c0.2,0,0.3,0,0.4,0s0.2,0,0.2-0.1c0.1,0,0.1-0.1,0.1-0.1v-0.1C32.3,53.3,32.3,53.3,32.2,53.2z M28.7,47.2c-0.3,0.1-0.6,0.1-1,0.1
	h-1.5v-3.8h1.3c0.3,0,0.5,0,0.7,0s0.3,0,0.5,0.1c0.5,0.1,0.8,0.4,1,0.7c0.2,0.3,0.3,0.7,0.3,1.1c0,0.3,0,0.5-0.1,0.8
	c-0.1,0.2-0.2,0.4-0.4,0.6C29.3,47,29,47.1,28.7,47.2z M42.3,49.4c0,0.7-0.1,1.3-0.3,1.8s-0.5,1-0.8,1.3c-0.4,0.4-0.8,0.6-1.3,0.8
	s-1.1,0.3-1.8,0.3c-0.6,0-1.2-0.1-1.7-0.3s-0.9-0.4-1.3-0.8c-0.4-0.3-0.6-0.8-0.8-1.3c-0.2-0.4-0.3-1-0.3-1.7v-6.9v-0.1l0.1-0.1
	c0.1,0,0.1,0,0.2-0.1c0.1,0,0.2,0,0.4,0c0.1,0,0.3,0,0.4,0c0.1,0,0.2,0,0.2,0.1c0.1,0,0.1,0,0.1,0.1v0.1v6.7c0,0.5,0.1,1,0.2,1.3
	c0.1,0.4,0.3,0.7,0.5,1s0.5,0.4,0.9,0.6c0.3,0.1,0.7,0.2,1.1,0.2c0.4,0,0.8-0.1,1.1-0.2c0.3-0.1,0.6-0.3,0.9-0.6
	c0.2-0.3,0.4-0.6,0.5-0.9c0.1-0.4,0.2-0.8,0.2-1.3v-6.8v-0.1l0.1-0.1c0.1,0,0.1,0,0.2-0.1c0.1,0,0.2,0,0.4,0c0.1,0,0.3,0,0.3,0
	c0.1,0,0.2,0,0.2,0.1c0.1,0,0.1,0,0.1,0.1v0.1v6.8H42.3z M50.8,50.4c0,0.5-0.1,1-0.3,1.4s-0.5,0.7-0.8,1s-0.7,0.5-1.2,0.6
	c-0.5,0.1-0.9,0.2-1.5,0.2c-0.4,0-0.7,0-1-0.1c-0.3-0.1-0.6-0.1-0.8-0.2s-0.5-0.2-0.6-0.3c-0.2-0.1-0.3-0.2-0.3-0.2
	c-0.1-0.1-0.1-0.2-0.1-0.3c0-0.1,0-0.2,0-0.4c0-0.1,0-0.2,0-0.3s0-0.1,0.1-0.2c0-0.1,0.1-0.1,0.1-0.1h0.1c0.1,0,0.2,0,0.3,0.1
	c0.1,0.1,0.3,0.2,0.6,0.3c0.2,0.1,0.5,0.2,0.8,0.3c0.3,0.1,0.7,0.2,1.1,0.2c0.3,0,0.6,0,0.9-0.1c0.3-0.1,0.5-0.2,0.7-0.4
	c0-0.2,0.1-0.4,0.2-0.6s0.2-0.5,0.2-0.8s-0.1-0.6-0.2-0.8c-0.1-0.2-0.3-0.4-0.6-0.6c-0.2-0.2-0.5-0.3-0.8-0.5
	c-0.3-0.1-0.6-0.3-0.9-0.4c-0.3-0.1-0.6-0.3-0.9-0.5c-0.3-0.2-0.6-0.4-0.8-0.6s-0.4-0.5-0.6-0.8c-0.1-0.3-0.2-0.7-0.2-1.2
	s0.1-0.9,0.3-1.2c0.2-0.4,0.4-0.7,0.7-0.9s0.7-0.4,1.1-0.6c0.3,0,0.8-0.1,1.2-0.1c0.2,0,0.5,0,0.7,0.1c0.2,0,0.5,0.1,0.7,0.2
	c0.2,0.1,0.4,0.2,0.6,0.2c0.2,0.1,0.3,0.2,0.3,0.2c0.1,0.1,0.1,0.1,0.1,0.1v0.1c0,0,0,0.1,0,0.2c0,0.1,0,0.2,0,0.3
	c0,0.1,0,0.2,0,0.3c0,0.1,0,0.1,0,0.2c0,0.1,0,0.1-0.1,0.1h-0.1c-0.1,0-0.2,0-0.3-0.1c-0.1-0.1-0.3-0.2-0.5-0.3
	c-0.2-0.1-0.4-0.2-0.7-0.3c-0.3-0.1-0.6-0.1-0.9-0.1c-0.3,0-0.6,0-0.8,0.1c-0.2,0.1-0.4,0.2-0.6,0.3c0.1,0.2,0,0.4-0.1,0.6
	s-0.1,0.4-0.1,0.6c0,0.3,0.1,0.6,0.2,0.8c0.1,0.2,0.3,0.4,0.6,0.6c0.2,0.2,0.5,0.3,0.8,0.5c0.3,0,0.6,0.2,0.9,0.3s0.6,0.3,0.9,0.5
	c0.3,0.2,0.6,0.4,0.8,0.6c0.2,0.2,0.4,0.5,0.6,0.8C50.7,49.6,50.8,49.9,50.8,50.4z M60.1,42.9c0,0.1,0,0.2,0,0.3
	c0,0.1,0,0.1-0.1,0.2l-0.1,0.1h-0.1h-3.2v9.8v0.1l-0.1,0.1c-0.1,0-0.1,0-0.2,0.1c-0.1,0-0.2,0-0.4,0c-0.1,0-0.3,0-0.4,0
	c-0.1,0-0.2,0-0.2-0.1c-0.1,0-0.1,0-0.1-0.1v-0.1v-9.7H52h-0.1l-0.1-0.1c0,0,0-0.1-0.1-0.2c0-0.1,0-0.2,0-0.3c0-0.1,0-0.2,0-0.3
	c0-0.1,0-0.2,0.1-0.2c0-0.1,0.1-0.1,0.1-0.1H52h7.8h0.1l0.1,0.1c0,0.1,0,0.1,0.1,0.2C60.1,42.8,60.1,42.8,60.1,42.9z M68.7,44.4
	c-0.1-0.4-0.3-0.7-0.5-0.9s-0.5-0.5-0.8-0.7s-0.6-0.3-0.9-0.4c-0.3-0.1-0.6-0.1-0.8-0.1c-0.2,0-0.5,0-0.7,0h-2.4
	c-0.2,0-0.3,0.1-0.4,0.1c-0.1,0.1-0.2,0.3-0.2,0.5v10.4v0.1l0.1,0.1c0.1,0,0.1,0,0.2,0.1c0.1,0,0.2,0,0.4,0c0.1,0,0.3,0,0.4,0
	c0.1,0,0.2,0,0.2-0.1c0.1,0,0.1,0,0.1-0.1v-0.1v-4h1.3c0.7,0,1.3-0.1,1.8-0.3c0.5-0.1,0.9-0.4,1.3-0.7c0.3-0.3,0.6-0.7,0.8-1.2
	c0.2-0.5,0.3-1,0.3-1.5C68.8,45.2,68.8,44.8,68.7,44.4z M67.1,46.8c-0.1,0.3-0.3,0.5-0.5,0.7c-0.2,0.2-0.5,0.4-0.8,0.5
	c-0.3,0.1-0.7,0.2-1.1,0.2h-1.4v-4.6h1.4c0.3,0,0.5,0,0.8,0.1c0.3,0,0.5,0.1,0.8,0.3c0.3,0.1,0.5,0.4,0.7,0.7s0.3,0.7,0.3,1.1
	C67.3,46.1,67.2,46.4,67.1,46.8z M72.4,53.4v0.1l-0.1,0.1c-0.1,0-0.1,0-0.2,0.1c-0.1,0-0.2,0-0.4,0c-0.1,0-0.3,0-0.4,0
	s-0.2,0-0.2-0.1c-0.1,0-0.1,0-0.1-0.1v-0.1V42.6v-0.1l0.1-0.1c0.1,0,0.1,0,0.2-0.1c0.1,0,0.2,0,0.3,0c0.1,0,0.3,0,0.4,0
	s0.2,0,0.2,0.1c0.1,0,0.1,0,0.1,0.1v0.1L72.4,53.4L72.4,53.4z M81,53c0,0.1,0,0.2,0,0.3s0,0.1-0.1,0.2c0,0.1-0.1,0.1-0.1,0.1h-0.1
	h-5c-0.1,0-0.3,0-0.4-0.1c-0.1-0.1-0.2-0.2-0.2-0.5V42.6v-0.1l0.1-0.1c0.1,0,0.1,0,0.2-0.1c0.1,0,0.2,0,0.4,0c0.1,0,0.3,0,0.4,0
	s0.2,0,0.2,0.1c0.1,0,0.1,0,0.1,0.1v0.1v9.7h4c0.1,0,0.1,0,0.1,0l0.1,0.1c0,0,0,0.1,0.1,0.2C81,52.8,81,52.9,81,53z M90.9,45.5
	c-0.2-0.7-0.5-1.3-0.9-1.7s-0.9-0.8-1.5-1.1c-0.5-0.3-1.3-0.4-2.1-0.4c-0.8,0-1.6,0.1-2.2,0.4c-0.6,0.3-1.2,0.7-1.6,1.1
	c-0.4,0.5-0.7,1.1-0.9,1.8c-0.2,0.7-0.3,1.5-0.3,2.4c0,0.9,0.1,1.7,0.3,2.4c0.2,0.7,0.5,1.3,0.9,1.8s0.9,0.8,1.5,1.1
	c0.6,0.2,1.3,0.4,2.1,0.4c0.8,0,1.6-0.1,2.2-0.4s1.2-0.7,1.6-1.2s0.7-1.1,0.9-1.8c0.2-0.7,0.3-1.5,0.3-2.4
	C91.2,46.9,91.1,46.2,90.9,45.5z M89.5,49.6c-0.1,0.5-0.3,1-0.6,1.4c-0.3,0.4-0.6,0.7-1.1,1c-0.4,0.2-1,0.4-1.6,0.4
	s-1.2-0.1-1.6-0.3s-0.8-0.5-1-0.9c-0.3-0.4-0.4-0.9-0.5-1.4C83,49.2,83,48.6,83,47.9c0-0.6,0-1.1,0.1-1.7c0.1-0.5,0.3-1,0.6-1.4
	c0.3-0.4,0.6-0.7,1-1c0.4-0.2,1-0.4,1.6-0.4s1.2,0.1,1.6,0.3c0.4,0.2,0.8,0.5,1,0.9c0.3,0.4,0.4,0.9,0.6,1.4
	c0.1,0.5,0.2,1.1,0.2,1.7C89.7,48.5,89.6,49.1,89.5,49.6z M100,42.9c0,0.1,0,0.2,0,0.3c0,0.1,0,0.1-0.1,0.2l-0.1,0.1h-0.1h-3.2v9.8
	v0.1l-0.1,0.1c-0.1,0-0.1,0-0.2,0.1c-0.1,0-0.2,0-0.4,0c-0.1,0-0.3,0-0.4,0s-0.2,0-0.2-0.1c-0.1,0-0.1,0-0.1-0.1v-0.1v-9.7h-3.2
	h-0.1l-0.1-0.1c0,0,0-0.1-0.1-0.2c0-0.1,0-0.2,0-0.3c0-0.1,0-0.2,0-0.3c0-0.1,0-0.2,0.1-0.2c0-0.1,0.1-0.1,0.1-0.1h0.1h7.9h0.1
	l0.1,0.1c0,0.1,0,0.1,0.1,0.2C100,42.8,100,42.8,100,42.9z M0,42.5v4.8c0,0,3.6,1.7,5.5,4.8c0,0,0.8-6.8,5.4-9.6
	C10.9,42.5,0,42.5,0,42.5z M0,51.2v2.1h4.9C4.9,53.4,3,51.4,0,51.2z M6.2,53.4h4.7v-6.2C8.2,47.9,6.2,53.4,6.2,53.4z M10.8,42.5
	L10.8,42.5"/>
<path display="none" fill="#3B5998" d="M8.8,46.8H6.1v9.8H2v-9.8H0v-3.4h2v-2C2,38.6,3.2,37,6.4,37h2.7v3.4H7.4
	c-1.3,0-1.3,0.5-1.3,1.3v1.7h3.1L8.8,46.8z M19.9,48.6v8h-3.4l-0.1-0.9c-1.5,0.9-2.9,1-3.8,1c-2.5,0-3.8-1.7-3.8-3.9
	c0-2.7,1.5-3.7,4.3-3.7h2.8v-0.6c0-1.4-0.2-1.8-2.3-1.8h-3.5l0.3-3.4h3.8C18.9,43.4,19.9,44.9,19.9,48.6z M15.9,51.8h-1.8
	c-0.9,0-1.2,0.2-1.2,0.9s0.4,1.1,1.1,1.1c0.8,0,1.3-0.3,1.9-0.5V51.8z M21.3,48.8v2.4c0,3.3,1.7,5.6,6.1,5.6c1,0,2.2-0.1,4-0.5V53
	c-2.1,0.4-2.7,0.4-3.7,0.4c-1.8,0-2.4-0.4-2.4-1.9v-2.9c0-1.5,0.5-1.9,2.4-1.9c1,0,1.6,0.1,3.7,0.4v-3.4c-1.8-0.4-3-0.5-4-0.5
	C23,43.2,21.3,45.5,21.3,48.8z M36.6,51.2v0.3c0,1.5,0.5,1.9,2.4,1.9c1.6,0,2.6-0.1,4.7-0.4v3.3c-2,0.4-3.1,0.5-5.1,0.5
	c-4.3,0-6.1-2.3-6.1-5.6v-2.7c0-2.9,1.3-5.3,5.7-5.3s5.7,2.3,5.7,5.3v2.7C43.9,51.2,36.6,51.2,36.6,51.2z M36.6,48.5H40V48
	c0-0.9-0.3-1.7-1.7-1.7s-1.7,0.8-1.7,1.7V48.5z M57.2,47.9v3.3c0,3.2-0.9,5.5-6.4,5.5c-2,0-3.2-0.2-5.4-0.5V38l4-0.7v6.4
	c0.9-0.3,2-0.5,3-0.5C56.5,43.2,57.2,45,57.2,47.9z M53.2,48.3c0-0.9-0.3-1.7-1.7-1.7c-0.8,0-1.4,0.3-2,0.5v6.2
	c0.6,0.1,0.9,0.1,1.5,0.1c2,0,2.3-0.9,2.3-2.2L53.2,48.3L53.2,48.3z M70.2,48.6v2.7c0,2.7-1.1,5.4-5.9,5.4s-5.9-2.7-5.9-5.4v-2.7
	c0-2.7,1.2-5.4,5.9-5.4C69.1,43.2,70.2,45.9,70.2,48.6z M66.1,48.3c0-0.9-0.5-1.7-1.9-1.7s-1.9,0.8-1.9,1.7v3.4
	c0,0.9,0.5,1.7,1.9,1.7s1.9-0.8,1.9-1.7V48.3z M83.2,48.6v2.7c0,2.7-1.1,5.4-5.9,5.4s-5.9-2.7-5.9-5.4v-2.7c0-2.7,1.2-5.4,5.9-5.4
	S83.2,45.9,83.2,48.6z M79.1,48.3c0-0.9-0.5-1.7-1.9-1.7s-1.9,0.8-1.9,1.7v3.4c0,0.9,0.5,1.7,1.9,1.7s1.9-0.8,1.9-1.7V48.3z
	 M92.1,43.4l-3.7,5.9v-12l-4,0.7v18.6h4v-6.2l3.7,6.2h4.4l-4.1-6.7l4.1-6.4L92.1,43.4L92.1,43.4z M99.3,56.2h-0.2
	c0,0-0.1-0.2-0.1-0.4c0-0.2-0.1-0.2-0.3-0.2h-0.2v0.6h-0.2v-1.4c0.1,0,0.2,0,0.4,0c0.2,0,0.4,0,0.4,0.1c0.1,0.1,0.1,0.2,0.1,0.3
	c0,0.2-0.1,0.3-0.3,0.3l0,0c0.1,0,0.2,0.1,0.2,0.3C99.3,56.1,99.3,56.2,99.3,56.2z M99,55.2c0-0.1-0.1-0.2-0.3-0.2
	c-0.1,0-0.1,0-0.2,0v0.5h0.2C98.9,55.5,99,55.4,99,55.2z M100,55.5c0,0.7-0.5,1.3-1.2,1.3s-1.2-0.5-1.2-1.3c0-0.7,0.6-1.2,1.2-1.2
	l0,0C99.5,54.3,100,54.8,100,55.5z M99.8,55.5c0-0.6-0.4-1.1-1-1.1l0,0c-0.5,0-1,0.5-1,1.1s0.5,1.1,1,1.1S99.8,56.1,99.8,55.5z
	 M9.1,43.4h-3v-1.7c0-0.9,0.1-1.3,1.3-1.3h1.7V37H6.4C3.2,37,2,38.6,2,41.4v2H0v3.4h2v9.8h4v-9.8h2.7L9.1,43.4z M19.9,48.6v8h-3.4
	l-0.1-0.9c-1.5,0.9-2.9,1-3.8,1c-2.5,0-3.8-1.7-3.8-3.9c0-2.7,1.5-3.7,4.3-3.7h2.8v-0.6c0-1.4-0.2-1.8-2.3-1.8h-3.5l0.3-3.4h3.8
	C18.9,43.4,19.9,44.9,19.9,48.6z M15.9,51.8h-1.8c-0.9,0-1.2,0.2-1.2,0.9s0.4,1.1,1.1,1.1c0.8,0,1.3-0.3,1.9-0.5V51.8z M21.3,48.8
	v2.4c0,3.3,1.7,5.6,6.1,5.6c1,0,2.2-0.1,4-0.5V53c-2.1,0.4-2.7,0.4-3.7,0.4c-1.8,0-2.4-0.4-2.4-1.9v-2.9c0-1.5,0.5-1.9,2.4-1.9
	c1,0,1.6,0.1,3.7,0.4v-3.4c-1.8-0.4-3-0.5-4-0.5C23,43.2,21.3,45.5,21.3,48.8z M36.6,51.2v0.3c0,1.5,0.5,1.9,2.4,1.9
	c1.6,0,2.6-0.1,4.7-0.4v3.3c-2,0.4-3.1,0.5-5.1,0.5c-4.3,0-6.1-2.3-6.1-5.6v-2.7c0-2.9,1.3-5.3,5.7-5.3s5.7,2.3,5.7,5.3v2.7
	C43.9,51.2,36.6,51.2,36.6,51.2z M36.6,48.5H40V48c0-0.9-0.3-1.7-1.7-1.7s-1.7,0.8-1.7,1.7V48.5z M57.2,47.9v3.3
	c0,3.2-0.9,5.5-6.4,5.5c-2,0-3.2-0.2-5.4-0.5V38l4-0.7v6.4c0.9-0.3,2-0.5,3-0.5C56.5,43.2,57.2,45,57.2,47.9z M53.2,48.3
	c0-0.9-0.3-1.7-1.7-1.7c-0.8,0-1.4,0.3-2,0.5v6.2c0.6,0.1,0.9,0.1,1.5,0.1c2,0,2.3-0.9,2.3-2.2L53.2,48.3L53.2,48.3z M70.2,48.6v2.7
	c0,2.7-1.1,5.4-5.9,5.4s-5.9-2.7-5.9-5.4v-2.7c0-2.7,1.2-5.4,5.9-5.4C69.1,43.2,70.2,45.9,70.2,48.6z M66.1,48.3
	c0-0.9-0.5-1.7-1.9-1.7s-1.9,0.8-1.9,1.7v3.4c0,0.9,0.5,1.7,1.9,1.7s1.9-0.8,1.9-1.7V48.3z M83.2,48.6v2.7c0,2.7-1.1,5.4-5.9,5.4
	s-5.9-2.7-5.9-5.4v-2.7c0-2.7,1.2-5.4,5.9-5.4S83.2,45.9,83.2,48.6z M79.1,48.3c0-0.9-0.5-1.7-1.9-1.7s-1.9,0.8-1.9,1.7v3.4
	c0,0.9,0.5,1.7,1.9,1.7s1.9-0.8,1.9-1.7V48.3z M92.1,43.4l-3.7,5.9v-12l-4,0.7v18.6h4v-6.2l3.7,6.2h4.4l-4.1-6.7l4.1-6.4L92.1,43.4
	L92.1,43.4z M99.3,56.2h-0.2c0,0-0.1-0.2-0.1-0.4c0-0.2-0.1-0.2-0.3-0.2h-0.2v0.6h-0.2v-1.4c0.1,0,0.2,0,0.4,0c0.2,0,0.4,0,0.4,0.1
	c0.1,0.1,0.1,0.2,0.1,0.3c0,0.2-0.1,0.3-0.3,0.3l0,0c0.1,0,0.2,0.1,0.2,0.3C99.3,56.1,99.3,56.2,99.3,56.2z M99,55.2
	c0-0.1-0.1-0.2-0.3-0.2c-0.1,0-0.1,0-0.2,0v0.5h0.2C98.9,55.5,99,55.4,99,55.2z M100,55.5c0,0.7-0.5,1.3-1.2,1.3s-1.2-0.5-1.2-1.3
	c0-0.7,0.6-1.2,1.2-1.2l0,0C99.5,54.3,100,54.8,100,55.5z M99.8,55.5c0-0.6-0.4-1.1-1-1.1l0,0c-0.5,0-1,0.5-1,1.1s0.5,1.1,1,1.1
	S99.8,56.1,99.8,55.5z M9.1,43.4h-3v-1.7c0-0.9,0.1-1.3,1.3-1.3h1.7V37H6.4C3.2,37,2,38.6,2,41.4v2H0v3.4h2v9.8h4v-9.8h2.7L9.1,43.4
	z M19.9,48.6v8h-3.4l-0.1-0.9c-1.5,0.9-2.9,1-3.8,1c-2.5,0-3.8-1.7-3.8-3.9c0-2.7,1.5-3.7,4.3-3.7h2.8v-0.6c0-1.4-0.2-1.8-2.3-1.8
	h-3.5l0.3-3.4h3.8C18.9,43.4,19.9,44.9,19.9,48.6z M15.9,51.8h-1.8c-0.9,0-1.2,0.2-1.2,0.9s0.4,1.1,1.1,1.1c0.8,0,1.3-0.3,1.9-0.5
	V51.8z M21.3,48.8v2.4c0,3.3,1.7,5.6,6.1,5.6c1,0,2.2-0.1,4-0.5V53c-2.1,0.4-2.7,0.4-3.7,0.4c-1.8,0-2.4-0.4-2.4-1.9v-2.9
	c0-1.5,0.5-1.9,2.4-1.9c1,0,1.6,0.1,3.7,0.4v-3.4c-1.8-0.4-3-0.5-4-0.5C23,43.2,21.3,45.5,21.3,48.8z M36.6,51.2v0.3
	c0,1.5,0.5,1.9,2.4,1.9c1.6,0,2.6-0.1,4.7-0.4v3.3c-2,0.4-3.1,0.5-5.1,0.5c-4.3,0-6.1-2.3-6.1-5.6v-2.7c0-2.9,1.3-5.3,5.7-5.3
	s5.7,2.3,5.7,5.3v2.7C43.9,51.2,36.6,51.2,36.6,51.2z M36.6,48.5H40V48c0-0.9-0.3-1.7-1.7-1.7s-1.7,0.8-1.7,1.7V48.5z M57.2,47.9
	v3.3c0,3.2-0.9,5.5-6.4,5.5c-2,0-3.2-0.2-5.4-0.5V38l4-0.7v6.4c0.9-0.3,2-0.5,3-0.5C56.5,43.2,57.2,45,57.2,47.9z M53.2,48.3
	c0-0.9-0.3-1.7-1.7-1.7c-0.8,0-1.4,0.3-2,0.5v6.2c0.6,0.1,0.9,0.1,1.5,0.1c2,0,2.3-0.9,2.3-2.2L53.2,48.3L53.2,48.3z M70.2,48.6v2.7
	c0,2.7-1.1,5.4-5.9,5.4s-5.9-2.7-5.9-5.4v-2.7c0-2.7,1.2-5.4,5.9-5.4C69.1,43.2,70.2,45.9,70.2,48.6z M66.1,48.3
	c0-0.9-0.5-1.7-1.9-1.7s-1.9,0.8-1.9,1.7v3.4c0,0.9,0.5,1.7,1.9,1.7s1.9-0.8,1.9-1.7V48.3z M83.2,48.6v2.7c0,2.7-1.1,5.4-5.9,5.4
	s-5.9-2.7-5.9-5.4v-2.7c0-2.7,1.2-5.4,5.9-5.4S83.2,45.9,83.2,48.6z M79.1,48.3c0-0.9-0.5-1.7-1.9-1.7s-1.9,0.8-1.9,1.7v3.4
	c0,0.9,0.5,1.7,1.9,1.7s1.9-0.8,1.9-1.7V48.3z M92.1,43.4l-3.7,5.9v-12l-4,0.7v18.6h4v-6.2l3.7,6.2h4.4l-4.1-6.7l4.1-6.4L92.1,43.4
	L92.1,43.4z M99.3,56.2h-0.2c0,0-0.1-0.2-0.1-0.4c0-0.2-0.1-0.2-0.3-0.2h-0.2v0.6h-0.2v-1.4c0.1,0,0.2,0,0.4,0c0.2,0,0.4,0,0.4,0.1
	c0.1,0.1,0.1,0.2,0.1,0.3c0,0.2-0.1,0.3-0.3,0.3l0,0c0.1,0,0.2,0.1,0.2,0.3C99.3,56.1,99.3,56.2,99.3,56.2z M99,55.2
	c0-0.1-0.1-0.2-0.3-0.2c-0.1,0-0.1,0-0.2,0v0.5h0.2C98.9,55.5,99,55.4,99,55.2z M100,55.5c0,0.7-0.5,1.3-1.2,1.3s-1.2-0.5-1.2-1.3
	c0-0.7,0.6-1.2,1.2-1.2l0,0C99.5,54.3,100,54.8,100,55.5z M99.8,55.5c0-0.6-0.4-1.1-1-1.1l0,0c-0.5,0-1,0.5-1,1.1s0.5,1.1,1,1.1
	S99.8,56.1,99.8,55.5z M9.1,43.4h-3v-1.7c0-0.9,0.1-1.3,1.3-1.3h1.7V37H6.4C3.2,37,2,38.6,2,41.4v2H0v3.4h2v9.8h4v-9.8h2.7L9.1,43.4
	z M19.9,48.6v8h-3.4l-0.1-0.9c-1.5,0.9-2.9,1-3.8,1c-2.5,0-3.8-1.7-3.8-3.9c0-2.7,1.5-3.7,4.3-3.7h2.8v-0.6c0-1.4-0.2-1.8-2.3-1.8
	h-3.5l0.3-3.4h3.8C18.9,43.4,19.9,44.9,19.9,48.6z M15.9,51.8h-1.8c-0.9,0-1.2,0.2-1.2,0.9s0.4,1.1,1.1,1.1c0.8,0,1.3-0.3,1.9-0.5
	V51.8z M21.3,48.8v2.4c0,3.3,1.7,5.6,6.1,5.6c1,0,2.2-0.1,4-0.5V53c-2.1,0.4-2.7,0.4-3.7,0.4c-1.8,0-2.4-0.4-2.4-1.9v-2.9
	c0-1.5,0.5-1.9,2.4-1.9c1,0,1.6,0.1,3.7,0.4v-3.4c-1.8-0.4-3-0.5-4-0.5C23,43.2,21.3,45.5,21.3,48.8z M36.6,51.2v0.3
	c0,1.5,0.5,1.9,2.4,1.9c1.6,0,2.6-0.1,4.7-0.4v3.3c-2,0.4-3.1,0.5-5.1,0.5c-4.3,0-6.1-2.3-6.1-5.6v-2.7c0-2.9,1.3-5.3,5.7-5.3
	s5.7,2.3,5.7,5.3v2.7C43.9,51.2,36.6,51.2,36.6,51.2z M36.6,48.5H40V48c0-0.9-0.3-1.7-1.7-1.7s-1.7,0.8-1.7,1.7V48.5z M57.2,47.9
	v3.3c0,3.2-0.9,5.5-6.4,5.5c-2,0-3.2-0.2-5.4-0.5V38l4-0.7v6.4c0.9-0.3,2-0.5,3-0.5C56.5,43.2,57.2,45,57.2,47.9z M53.2,48.3
	c0-0.9-0.3-1.7-1.7-1.7c-0.8,0-1.4,0.3-2,0.5v6.2c0.6,0.1,0.9,0.1,1.5,0.1c2,0,2.3-0.9,2.3-2.2L53.2,48.3L53.2,48.3z M70.2,48.6v2.7
	c0,2.7-1.1,5.4-5.9,5.4s-5.9-2.7-5.9-5.4v-2.7c0-2.7,1.2-5.4,5.9-5.4C69.1,43.2,70.2,45.9,70.2,48.6z M66.1,48.3
	c0-0.9-0.5-1.7-1.9-1.7s-1.9,0.8-1.9,1.7v3.4c0,0.9,0.5,1.7,1.9,1.7s1.9-0.8,1.9-1.7V48.3z M83.2,48.6v2.7c0,2.7-1.1,5.4-5.9,5.4
	s-5.9-2.7-5.9-5.4v-2.7c0-2.7,1.2-5.4,5.9-5.4S83.2,45.9,83.2,48.6z M79.1,48.3c0-0.9-0.5-1.7-1.9-1.7s-1.9,0.8-1.9,1.7v3.4
	c0,0.9,0.5,1.7,1.9,1.7s1.9-0.8,1.9-1.7V48.3z M92.1,43.4l-3.7,5.9v-12l-4,0.7v18.6h4v-6.2l3.7,6.2h4.4l-4.1-6.7l4.1-6.4L92.1,43.4
	L92.1,43.4z M99.3,56.2h-0.2c0,0-0.1-0.2-0.1-0.4c0-0.2-0.1-0.2-0.3-0.2h-0.2v0.6h-0.2v-1.4c0.1,0,0.2,0,0.4,0c0.2,0,0.4,0,0.4,0.1
	c0.1,0.1,0.1,0.2,0.1,0.3c0,0.2-0.1,0.3-0.3,0.3l0,0c0.1,0,0.2,0.1,0.2,0.3C99.3,56.1,99.3,56.2,99.3,56.2z M99,55.2
	c0-0.1-0.1-0.2-0.3-0.2c-0.1,0-0.1,0-0.2,0v0.5h0.2C98.9,55.5,99,55.4,99,55.2z M100,55.5c0,0.7-0.5,1.3-1.2,1.3s-1.2-0.5-1.2-1.3
	c0-0.7,0.6-1.2,1.2-1.2l0,0C99.5,54.3,100,54.8,100,55.5z M99.8,55.5c0-0.6-0.4-1.1-1-1.1l0,0c-0.5,0-1,0.5-1,1.1s0.5,1.1,1,1.1
	S99.8,56.1,99.8,55.5z M6.1,43.4v-1.7c0-0.9,0.1-1.3,1.3-1.3h1.7V37H6.4C3.2,37,2,38.6,2,41.4v2H0v3.4h2v9.8h4v-9.8h2.7l0.4-3.4H6.1
	z M19.9,48.6v8h-3.4l-0.1-0.9c-1.5,0.9-2.9,1-3.8,1c-2.5,0-3.8-1.7-3.8-3.9c0-2.7,1.5-3.7,4.3-3.7h2.8v-0.6c0-1.4-0.2-1.8-2.3-1.8
	h-3.5l0.3-3.4h3.8C18.9,43.4,19.9,44.9,19.9,48.6z M15.9,51.8h-1.8c-0.9,0-1.2,0.2-1.2,0.9s0.4,1.1,1.1,1.1c0.8,0,1.3-0.3,1.9-0.5
	V51.8z M27.7,46.6c1,0,1.6,0.1,3.7,0.4v-3.3c-1.8-0.4-3-0.5-4-0.5c-4.3,0-6.1,2.3-6.1,5.6v2.4c0,3.3,1.7,5.6,6.1,5.6
	c1,0,2.2-0.1,4-0.5V53c-2.1,0.4-2.7,0.4-3.7,0.4c-1.8,0-2.4-0.4-2.4-1.9v-2.9C25.3,47,25.9,46.6,27.7,46.6z M36.6,51.2v0.3
	c0,1.5,0.5,1.9,2.4,1.9c1.6,0,2.6-0.1,4.7-0.4v3.3c-2,0.4-3.1,0.5-5.1,0.5c-4.3,0-6.1-2.3-6.1-5.6v-2.7c0-2.9,1.3-5.3,5.7-5.3
	s5.7,2.3,5.7,5.3v2.7C43.9,51.2,36.6,51.2,36.6,51.2z M36.6,48.5H40V48c0-0.9-0.3-1.7-1.7-1.7s-1.7,0.8-1.7,1.7V48.5z M57.2,47.9
	v3.3c0,3.2-0.9,5.5-6.4,5.5c-2,0-3.2-0.2-5.4-0.5V38l4-0.7v6.4c0.9-0.3,2-0.5,3-0.5C56.5,43.2,57.2,45,57.2,47.9z M53.2,48.3
	c0-0.9-0.3-1.7-1.7-1.7c-0.8,0-1.4,0.3-2,0.5v6.2c0.6,0.1,0.9,0.1,1.5,0.1c2,0,2.3-0.9,2.3-2.2L53.2,48.3L53.2,48.3z M70.2,48.6v2.7
	c0,2.7-1.1,5.4-5.9,5.4s-5.9-2.7-5.9-5.4v-2.7c0-2.7,1.2-5.4,5.9-5.4C69.1,43.2,70.2,45.9,70.2,48.6z M66.1,48.3
	c0-0.9-0.5-1.7-1.9-1.7s-1.9,0.8-1.9,1.7v3.4c0,0.9,0.5,1.7,1.9,1.7s1.9-0.8,1.9-1.7V48.3z M83.2,48.6v2.7c0,2.7-1.1,5.4-5.9,5.4
	s-5.9-2.7-5.9-5.4v-2.7c0-2.7,1.2-5.4,5.9-5.4S83.2,45.9,83.2,48.6z M79.1,48.3c0-0.9-0.5-1.7-1.9-1.7s-1.9,0.8-1.9,1.7v3.4
	c0,0.9,0.5,1.7,1.9,1.7s1.9-0.8,1.9-1.7V48.3z M96.5,43.4h-4.4l-3.7,5.9v-12l-4,0.7v18.6h4v-6.2l3.7,6.2h4.4l-4.1-6.7L96.5,43.4z
	 M99.3,56.2h-0.2c0,0-0.1-0.2-0.1-0.4c0-0.2-0.1-0.2-0.3-0.2h-0.2v0.6h-0.2v-1.4c0.1,0,0.2,0,0.4,0c0.2,0,0.4,0,0.4,0.1
	c0.1,0.1,0.1,0.2,0.1,0.3c0,0.2-0.1,0.3-0.3,0.3l0,0c0.1,0,0.2,0.1,0.2,0.3C99.3,56.1,99.3,56.2,99.3,56.2z M99,55.2
	c0-0.1-0.1-0.2-0.3-0.2c-0.1,0-0.1,0-0.2,0v0.5h0.2C98.9,55.5,99,55.4,99,55.2z M100,55.5c0,0.7-0.5,1.3-1.2,1.3s-1.2-0.5-1.2-1.3
	c0-0.7,0.6-1.2,1.2-1.2l0,0C99.5,54.3,100,54.8,100,55.5z M99.8,55.5c0-0.6-0.4-1.1-1-1.1l0,0c-0.5,0-1,0.5-1,1.1s0.5,1.1,1,1.1
	S99.8,56.1,99.8,55.5z M99.3,56.2h-0.2c0,0-0.1-0.2-0.1-0.4c0-0.2-0.1-0.2-0.3-0.2h-0.2v0.6h-0.2v-1.4c0.1,0,0.2,0,0.4,0
	c0.2,0,0.4,0,0.4,0.1c0.1,0.1,0.1,0.2,0.1,0.3c0,0.2-0.1,0.3-0.3,0.3l0,0c0.1,0,0.2,0.1,0.2,0.3C99.3,56.1,99.3,56.2,99.3,56.2z
	 M99,55.2c0-0.1-0.1-0.2-0.3-0.2c-0.1,0-0.1,0-0.2,0v0.5h0.2C98.9,55.5,99,55.4,99,55.2z M99.3,56.2h-0.2c0,0-0.1-0.2-0.1-0.4
	c0-0.2-0.1-0.2-0.3-0.2h-0.2v0.6h-0.2v-1.4c0.1,0,0.2,0,0.4,0c0.2,0,0.4,0,0.4,0.1c0.1,0.1,0.1,0.2,0.1,0.3c0,0.2-0.1,0.3-0.3,0.3
	l0,0c0.1,0,0.2,0.1,0.2,0.3C99.3,56.1,99.3,56.2,99.3,56.2z M99,55.2c0-0.1-0.1-0.2-0.3-0.2c-0.1,0-0.1,0-0.2,0v0.5h0.2
	C98.9,55.5,99,55.4,99,55.2z"/>
</svg>
