<?xml version="1.0" encoding="UTF-8" standalone="no"?>
<svg width="100px" height="124px" viewBox="0 0 100 124" version="1.1" xmlns="http://www.w3.org/2000/svg" xmlns:xlink="http://www.w3.org/1999/xlink">
    <!-- Generator: Sketch 39.1 (31720) - http://www.bohemiancoding.com/sketch -->
    <title>Image</title>
    <desc>Created with Sketch.</desc>
    <defs>
        <polygon id="path-1" points="99.5584652 123.354772 99.5584652 0.00167865707 0.00067146283 0.00167865707 0.00067146283 123.354772"></polygon>
    </defs>
    <g id="Promo-Module" stroke="none" stroke-width="1" fill="none" fill-rule="evenodd">
        <g id="OFX_LS_07-Promotional-Module---iPad-Portrait" transform="translate(-599.000000, -291.000000)">
            <g id="Contact-Us" transform="translate(15.000000, 249.000000)">
                <g id="Image" transform="translate(562.000000, 31.000000)">
                    <g id="Page-1" transform="translate(22.000000, 11.000000)">
                        <mask id="mask-2" fill="white">
                            <use xlink:href="#path-1"></use>
                        </mask>
                        <g id="Clip-2"></g>
                        <path d="M91.8030695,73.211271 C89.4865228,73.211271 87.6030695,71.3345324 87.6030695,69.0280576 L87.6030695,49.6395683 C87.6030695,28.8410072 70.6352038,11.9235012 49.7795683,11.9235012 C28.9272902,11.9235012 11.9594245,28.8410072 11.9594245,49.6395683 L11.9594245,69.0280576 C11.9594245,71.3345324 10.0759712,73.211271 7.75942446,73.211271 C5.4428777,73.211271 3.55606715,71.3345324 3.55606715,69.0280576 L3.55606715,49.6395683 C3.55606715,24.2280576 24.2941966,3.55707434 49.7795683,3.55707434 C75.2682974,3.55707434 96.0030695,24.2280576 96.0030695,49.6395683 L96.0030695,69.0280576 C96.0030695,71.3345324 94.1196163,73.211271 91.8030695,73.211271 M59.5963549,119.797362 C57.4510312,119.797362 55.7018705,118.017986 55.7018705,115.825659 C55.7018705,113.636691 57.4510312,111.857314 59.5963549,111.857314 C61.745036,111.857314 63.4908393,113.636691 63.4908393,115.825659 C63.4908393,118.017986 61.745036,119.797362 59.5963549,119.797362 M49.7795683,0.00167865707 C22.3301679,0.00167865707 0.00067146283,22.2673861 0.00067146283,49.6395683 L0.00067146283,69.0280576 C0.00067146283,73.2952038 3.48220624,76.7666667 7.75942446,76.7666667 C12.0366427,76.7666667 15.5148201,73.2952038 15.5148201,69.0280576 L15.5148201,49.6395683 C15.5148201,30.8016787 30.8879616,15.4788969 49.7795683,15.4788969 C68.6745324,15.4788969 84.0443165,30.8016787 84.0443165,49.6395683 L84.0443165,69.0280576 C84.0443165,72.388729 86.2064269,75.2458034 89.211223,76.3134293 C86.8946763,94.8189448 79.1594245,106.932134 66.1968345,112.33741 C64.951271,109.940288 62.4601439,108.301918 59.5963549,108.301918 C55.4903597,108.301918 52.1464748,111.676019 52.1464748,115.825659 C52.1464748,119.978657 55.4903597,123.356115 59.5963549,123.356115 C63.7057074,123.356115 67.046235,119.982014 67.0495923,115.832374 C81.6001918,110.010791 90.2352038,96.8501199 92.7431175,76.7028777 C96.5771703,76.2395683 99.5584652,72.976259 99.5584652,69.0280576 L99.5584652,49.6395683 C99.5584652,22.2673861 77.2289688,0.00167865707 49.7795683,0.00167865707" id="Fill-1" fill="#37BDF7" mask="url(#mask-2)"></path>
                    </g>
                </g>
            </g>
        </g>
    </g>
</svg>