<?xml version="1.0" encoding="utf-8"?>
<!-- Generator: Adobe Illustrator 22.1.0, SVG Export Plug-In . SVG Version: 6.00 Build 0)  -->
<svg version="1.1" id="Layer_1" xmlns="http://www.w3.org/2000/svg" xmlns:xlink="http://www.w3.org/1999/xlink" x="0px" y="0px"
	 viewBox="0 0 40 40" style="enable-background:new 0 0 40 40;" xml:space="preserve">
<style type="text/css">
	.st0{fill:#E47305;}
	.st1{fill:none;stroke:#FFFFFF;stroke-width:1.5;}
</style>
<title>Icon 3 Copy</title>
<desc>Created with Sketch.</desc>
<circle id="path-1_1_" class="st0" cx="20" cy="20" r="20"/>
<path id="Fill-363" class="st1" d="M27.3,20c0,0.9-0.7,1.6-1.5,1.6h-1.1c-2,0-3.9,1.1-4.9,3l-0.6,1c-0.4,0.8-1.3,1-2.1,0.6
	c-0.7-0.4-1-1.4-0.6-2.2l0.6-1c1-1.8,1-4.1,0-6l-0.5-1c-0.4-0.8-0.2-1.8,0.5-2.2c0.7-0.5,1.7-0.2,2.1,0.6l0.6,1c1,1.8,2.9,3,4.9,3
	h1.1C26.7,18.4,27.3,19.1,27.3,20 M14.5,10.5c-5.3,3-7.1,9.8-4,15c3,5.3,9.8,7.1,15,4c5.3-3,7.1-9.8,4-15
	C26.5,9.2,19.8,7.4,14.5,10.5"/>
</svg>
