<?xml version="1.0" encoding="UTF-8"?>
<svg width="115px" height="88px" viewBox="0 0 115 88" version="1.1" xmlns="http://www.w3.org/2000/svg" xmlns:xlink="http://www.w3.org/1999/xlink">
    <!-- Generator: Sketch 51.2 (57519) - http://www.bohemiancoding.com/sketch -->
    <title>Group 13</title>
    <desc>Created with Sketch.</desc>
    <defs>
        <polygon id="path-1" points="0.221702299 0.384232668 36.877092 0.384232668 36.877092 41.7472364 0.221702299 41.7472364"></polygon>
        <polygon id="path-3" points="0 0.0788597015 57.6120824 0.0788597015 57.6120824 27.8387629 0 27.8387629"></polygon>
    </defs>
    <g id="Page-1" stroke="none" stroke-width="1" fill="none" fill-rule="evenodd">
        <g id="send-funds" transform="translate(-663.000000, -148.000000)">
            <g id="Group-13" transform="translate(663.000000, 148.000000)">
                <g id="Group-3" transform="translate(78.000000, 7.000000)">
                    <mask id="mask-2" fill="white">
                        <use xlink:href="#path-1"></use>
                    </mask>
                    <g id="Clip-2"></g>
                    <path d="M36.2078172,3.67275152 C34.6857138,1.04287273 30.694392,0.0467515152 24.9602425,0.48329697 C20.759254,0.8036 15.622208,1.89432727 9.82766782,3.67996364 C9.9191046,3.75675152 10.0109667,3.83353939 10.1019782,3.91117576 C15.9951851,2.47638788 20.7983805,2.07208485 23.9986678,2.83784242 C25.8006103,3.26929697 27.0973115,4.06941818 27.7909552,5.26790303 C29.5507943,8.30844848 27.1636563,13.4103879 21.7399667,19.4834182 C20.950208,20.3683879 20.090277,21.2745697 19.174208,22.197297 C15.8484609,25.5483879 11.7231736,29.1247515 6.9488977,32.7698424 C5.87292069,33.5911758 4.7624954,34.4167515 3.6223,35.2431758 C3.33863333,35.4485091 3.05071379,35.6546909 2.76321954,35.8604485 C1.16881724,37.0025091 1.9271046,36.5095394 0.221702299,37.6507515 L3.65419655,41.7472364 C5.26263333,40.6030545 10.1976678,36.9995394 11.7019092,35.8604485 C15.1152655,33.2759636 18.2517598,30.7152364 21.0654609,28.2228121 C22.0653115,27.3365697 23.0234839,26.4596606 23.9399782,25.5929333 C33.842369,16.2286303 38.7667713,8.09420606 36.2078172,3.67275152" id="Fill-1" fill="#939598" mask="url(#mask-2)"></path>
                </g>
                <path d="M72.0705157,82.6083722 C74.394056,80.4477332 76.5198573,77.6660113 78.3784322,74.309024 C79.6034703,72.0953554 80.6745207,69.6844166 81.5924413,67.1266918 L93.1753991,67.1266918 C88.0929496,74.3416903 80.7071197,79.8491348 72.0705157,82.6083722 M103.280247,36 C102.291552,36.896837 101.257819,37.7991891 100.196205,38.7045108 C100.353624,39.9224952 100.457856,41.1570248 100.503752,42.4064027 L95.686384,42.4064027 C94.2417313,43.5484487 92.7486089,44.6913431 91.2078748,45.8333891 L100.487881,45.8333891 C100.183337,52.2987607 98.3517854,58.3678951 95.3423782,63.6997055 L82.7033827,63.6997055 C83.9301365,59.4700627 84.6220085,56.387981 85.0084788,51.6411934 C85.0303545,51.3739241 85.0509434,51.1062306 85.0702454,50.8372643 L81.6001622,50.8372643 C81.5160909,51.9589469 81.4062836,53.0657812 81.2733138,54.157343 C80.7967671,58.0726261 80.1404967,60.2960521 79.0887484,63.6997055 L71.7869898,63.6997055 L69.9567246,66.8348168 L69.7864374,67.1266918 L77.9027434,67.1266918 C74.1452738,76.8680215 68.0899999,83.5005425 61.1541228,84.4542273 L61.1541228,67.1266918 L57.6891867,67.1266918 L57.6891867,84.4542273 C52.2614446,83.7079944 47.3733026,79.4838668 43.7033357,73.0138285 C42.6219908,73.4745499 41.5496536,73.9199987 40.4876108,74.348478 C42.3406096,77.6872231 44.4582611,80.4562179 46.7723648,82.6083722 C42.4401225,81.2240869 38.4231472,79.1478711 34.8531221,76.5120867 C33.5470154,76.9859594 32.2623554,77.4326809 31,77.8509786 C38.720828,84.1865337 48.629224,88 59.4216547,88 C84.0021976,88 104,68.2212233 104,43.9098986 C104,41.2104787 103.752076,38.567058 103.280247,36" id="Fill-4" fill="#939598"></path>
                <path d="M23.3549849,24.8744672 L36.013434,24.8744672 C34.4690045,30.4208617 33.5978424,36.5239019 33.4778288,42.8514787 L18.4693275,42.8514787 C18.7042476,36.3595548 20.4444439,30.2530996 23.3549849,24.8744672 Z M46.680169,5.42473493 C44.3748026,7.59923916 42.2656285,10.3982624 40.4215907,13.7765557 C39.139744,16.1252252 38.0281293,18.6941625 37.0858954,21.4261662 L25.447987,21.4261662 C30.4974927,13.9579779 37.9451412,8.25492005 46.680169,5.42473493 Z M57.5111779,3.56782614 L57.5111779,21.4261662 L40.7335408,21.4261662 C44.4480023,11.3928825 50.5303905,4.54110247 57.5111779,3.56782614 Z M57.5111779,42.8514787 L36.9122588,42.8514787 C37.041635,36.3595548 37.9940829,30.2530996 39.5878797,24.8744672 L57.5111779,24.8744672 L57.5111779,42.8514787 Z M60.9490124,3.56782614 C67.9293742,4.54110247 74.0117624,11.3928825 77.7266495,21.4261662 L60.9490124,21.4261662 L60.9490124,3.56782614 Z M93.012629,21.4261662 L81.374295,21.4261662 C80.432061,18.6941625 79.3204463,16.1252252 78.0385996,13.7765557 C76.1945618,10.3982624 74.0853877,7.59881228 71.7800213,5.42473493 C80.5150491,8.25492005 87.9626977,13.9579779 93.012629,21.4261662 Z M23.5903306,64.277218 C21.0189768,59.6562898 19.3170827,54.4842652 18.6999918,48.9826927 C18.703822,48.9792777 18.7072267,48.9758627 18.7110569,48.9724477 C18.7072267,48.9754358 18.7033964,48.9788508 18.6999918,48.981839 C18.6008317,48.0956452 18.5267808,47.2021946 18.4850739,46.2997797 L33.4837869,46.2997797 C33.6310376,52.3631205 34.4766649,58.2057666 35.9355528,63.5476877 C36.988012,63.1370333 38.0574943,62.7054621 39.1405952,62.2534009 C37.8489601,57.3959836 37.0663187,52.00113 36.9211959,46.2997797 L57.5111779,46.2997797 L57.5111779,46.3249653 L57.5337336,46.3249653 L60.9490124,42.8514787 L60.9490124,24.8744672 L78.8723106,24.8744672 C80.072446,28.923809 80.9074338,33.3867932 81.3027975,38.1161478 C82.4016449,37.2922779 83.4707016,36.4692618 84.5095422,35.6470994 C84.0869414,31.8978512 83.3949484,28.2805075 82.4467564,24.8744672 L95.1052054,24.8744672 C95.2605421,25.1613276 95.4107718,25.451603 95.5588736,25.7423053 C96.4802541,24.7767127 97.288856,23.8742977 98,23.0316453 C95.4256671,18.342417 92.0303905,14.1680007 88.0095115,10.7043322 C87.9184374,10.6257871 87.8260865,10.5485226 87.7345868,10.4712581 C80.0311648,3.94219602 70.0815319,0 59.2300952,0 C34.8413869,0 15,19.9017935 15,44.3643258 C15,46.8534373 15.2119388,49.2926044 15.6073025,51.6707283 C15.6183676,51.7394552 15.6290071,51.8081822 15.6404978,51.8764823 C16.6389083,57.7165672 18.7740427,63.1720371 21.8165135,68 C25.4552218,67.1953395 29.5769633,65.9330684 34.0195921,64.277218 L23.5903306,64.277218 Z" id="Fill-6" fill="#939598"></path>
                <g id="Group-10" transform="translate(0.000000, 51.000000)">
                    <mask id="mask-4" fill="white">
                        <use xlink:href="#path-3"></use>
                    </mask>
                    <g id="Clip-9"></g>
                    <path d="M55.0174353,6.34250149 C28.5621853,20.8243522 10.3002882,24.5015463 6.27952353,17.6766507 C4.19024412,14.1306806 7.93124412,7.73665075 15.6537735,0.279874627 C15.6422588,0.213008955 15.6315971,0.145725373 15.6205088,0.0788597015 C3.94246471,10.2938448 -2.11384412,19.3278149 0.671008824,24.0539642 C5.34128824,31.9796358 27.2708324,27.4173075 57.6120824,10.7460239 L55.0174353,6.34250149 Z" id="Fill-8" fill="#939598" mask="url(#mask-4)"></path>
                </g>
                <path d="M67.8823411,57.4595089 L67.8823411,58.3577679 C67.8823411,58.6660938 67.6677381,58.8671205 67.3729771,58.8671205 C67.0646443,58.8671205 66.8364696,58.6660938 66.8364696,58.3577679 L66.8364696,57.4332143 C65.5899908,57.2584821 64.7587223,56.4946652 64.6111297,55.4216741 C64.5169758,54.9793304 64.8257327,54.6044196 65.241367,54.6044196 C65.5764191,54.6044196 65.8444608,54.8321652 65.9114712,55.1676339 C66.005201,55.8780134 66.5014174,56.3335045 67.3865488,56.3335045 C68.3382665,56.3335045 68.8743499,55.7707143 68.8743499,55.0064732 C68.8743499,54.2825223 68.4319962,53.9203348 67.8021831,53.6522991 L66.5552803,53.1425223 C65.4962611,52.7141741 64.7180071,52.016942 64.7180071,50.7967857 C64.7180071,49.6037723 65.536128,48.6652232 66.8364696,48.450625 L66.8364696,47.5387946 C66.8364696,47.2304688 67.0646443,47.029442 67.3729771,47.029442 C67.6677381,47.029442 67.8823411,47.2304688 67.8823411,47.5387946 L67.8823411,48.450625 C68.9282127,48.5579241 69.9469408,49.4023214 70.0139512,50.5418973 C70.0406706,50.9172321 69.7191902,51.2124107 69.3434228,51.2124107 C69.0083707,51.2124107 68.7674725,50.9842411 68.6864662,50.6759152 C68.5931606,50.0461161 68.1503828,49.5634821 67.3729771,49.5634821 C66.5285609,49.5634821 66.0590638,50.0461161 66.0590638,50.703058 C66.0590638,51.1454018 66.3139579,51.5877455 66.8496172,51.8019196 L68.1236635,52.3252679 C69.1156722,52.7273214 70.2285542,53.2905357 70.2285542,54.8588839 C70.2285542,56.2936384 69.3035559,57.2852009 67.8823411,57.4595089 M67.5002121,43 C62.2534655,43 58,47.2537946 58,52.5 C58,57.7466295 62.2534655,62 67.5002121,62 C72.7465345,62 77,57.7466295 77,52.5 C77,47.2537946 72.7465345,43 67.5002121,43" id="Fill-11" fill="#F59E38"></path>
            </g>
        </g>
    </g>
</svg>