<?xml version="1.0" encoding="utf-8"?>
<!-- Generator: Adobe Illustrator 22.1.0, SVG Export Plug-In . SVG Version: 6.00 Build 0)  -->
<svg version="1.1" id="Layer_1" xmlns="http://www.w3.org/2000/svg" xmlns:xlink="http://www.w3.org/1999/xlink" x="0px" y="0px"
	 viewBox="0 0 40 40" style="enable-background:new 0 0 40 40;" xml:space="preserve">
<style type="text/css">
	.st0{fill:#E47305;}
	.st1{fill:#FFFFFF;}
</style>
<title>Icon 3 Copy 2</title>
<desc>Created with Sketch.</desc>
<circle id="path-1_1_" class="st0" cx="20" cy="20" r="20"/>
<path id="path-3_2_" class="st1" d="M20,11v2c-3.9,0-7,3.1-7,6.9c0,2.7,1.5,5,3.9,6.2L16,27.9c-3-1.5-5-4.6-5-8C11,15,15,11,20,11z
	 M21.3,26.9c3.3-0.6,5.7-3.4,5.7-6.8c0-2.6-1.5-5-3.8-6.2l0.9-1.8c3,1.5,5,4.6,5,8c0,4.4-3.2,8.1-7.4,8.8L23,30l-1.2,1.6l-4.1-3.2
	l3.2-4.1l1.6,1.2L21.3,26.9z M18.9,12.1l-2.7-1.8l1.1-1.7l4.4,2.9l-2.9,4.4l-1.7-1.1L18.9,12.1z"/>
</svg>
