<?xml version="1.0" encoding="utf-8"?>
<!-- Generator: Adobe Illustrator 22.1.0, SVG Export Plug-In . SVG Version: 6.00 Build 0)  -->
<svg version="1.1" id="Layer_1" xmlns="http://www.w3.org/2000/svg" xmlns:xlink="http://www.w3.org/1999/xlink" x="0px" y="0px"
	 viewBox="0 0 40 40" style="enable-background:new 0 0 40 40;" xml:space="preserve">
<style type="text/css">
	.st0{fill:#E47305;}
	.st1{fill:#FFFFFF;}
</style>
<title>Icon 4</title>
<desc>Created with Sketch.</desc>
<circle id="path-1_1_" class="st0" cx="20" cy="20" r="20"/>
<g>
	<path id="path-3_2_" class="st1" d="M20.1,18c-2.2,0-4-1.8-4-4s1.8-4,4-4s4,1.8,4,4S22.3,18,20.1,18z M20.1,16c1.1,0,2-0.9,2-2
		s-0.9-2-2-2c-1.1,0-2,0.9-2,2S19,16,20.1,16z M23.3,27.8c-0.3,0.5-0.7,0.9-1.2,1.2c-1.9,1.2-4.3,0.6-5.5-1.2L14,23.6
		c-0.3-0.5-0.5-1-0.5-1.6c0-1.7,1.3-3,3-3h7c0.6,0,1.1,0.2,1.6,0.5c1.4,0.9,1.8,2.8,0.9,4.2L23.3,27.8z M21.7,26.7l2.7-4.2
		c0.3-0.5,0.2-1.1-0.3-1.4c-0.2-0.1-0.4-0.2-0.5-0.2h-7c-0.6,0-1,0.4-1,1c0,0.2,0.1,0.4,0.2,0.5l2.6,4.1c0.6,0.9,1.8,1.2,2.8,0.6
		C21.3,27.1,21.5,26.9,21.7,26.7z"/>
</g>
</svg>
