<?xml version="1.0" encoding="UTF-8"?>
<svg width="56px" height="56px" viewBox="0 0 56 56" version="1.1" xmlns="http://www.w3.org/2000/svg" xmlns:xlink="http://www.w3.org/1999/xlink">
    <!-- Generator: Sketch 51.2 (57519) - http://www.bohemiancoding.com/sketch -->
    <title>Icon 4</title>
    <desc>Created with Sketch.</desc>
    <defs>
        <circle id="path-1" cx="20" cy="20" r="20"></circle>
        <filter x="-28.8%" y="-28.8%" width="162.5%" height="162.5%" filterUnits="objectBoundingBox" id="filter-2">
            <feOffset dx="1" dy="1" in="SourceAlpha" result="shadowOffsetOuter1"></feOffset>
            <feGaussianBlur stdDeviation="4" in="shadowOffsetOuter1" result="shadowBlurOuter1"></feGaussianBlur>
            <feColorMatrix values="0 0 0 0 0   0 0 0 0 0   0 0 0 0 0  0 0 0 0.16 0" type="matrix" in="shadowBlurOuter1"></feColorMatrix>
        </filter>
        <path d="M12.0579663,10 C9.84882734,10 8.05796634,8.209139 8.05796634,6 C8.05796634,3.790861 9.84882734,2 12.0579663,2 C14.2671053,2 16.0579663,3.790861 16.0579663,6 C16.0579663,8.209139 14.2671053,10 12.0579663,10 Z M12.0579663,8 C13.1625358,8 14.0579663,7.1045695 14.0579663,6 C14.0579663,4.8954305 13.1625358,4 12.0579663,4 C10.9533968,4 10.0579663,4.8954305 10.0579663,6 C10.0579663,7.1045695 10.9533968,8 12.0579663,8 Z M15.3427078,19.7915367 C15.0314573,20.2703201 14.6212974,20.6769084 14.1398103,20.9839599 C12.2771856,22.1717833 9.80430883,21.6247487 8.61648544,19.762124 L5.97056474,15.6130584 C5.66325949,15.1311733 5.5,14.5715328 5.5,14 C5.5,12.3431458 6.84314575,11 8.5,11 L15.5295077,11 C16.1099674,11 16.677962,11.1683951 17.1646255,11.4847685 C18.5537495,12.3878191 18.9477899,14.2459938 18.0447392,15.6351178 L15.3427078,19.7915367 Z M13.6658868,18.7014581 L16.3679182,14.5450393 C16.6689351,14.0819979 16.5375883,13.4626064 16.074547,13.1615895 C15.9123258,13.0561317 15.7229943,13 15.5295077,13 L8.5,13 C7.94771525,13 7.5,13.4477153 7.5,14 C7.5,14.1905109 7.55441983,14.3770578 7.65685491,14.5376861 L10.3027756,18.6867518 C10.8966873,19.6180641 12.1331257,19.8915814 13.064438,19.2976697 C13.3051816,19.144144 13.5102615,18.9408498 13.6658868,18.7014581 Z" id="path-3"></path>
    </defs>
    <g id="Page-1" stroke="none" stroke-width="1" fill="none" fill-rule="evenodd">
        <g id="received" transform="translate(-1059.000000, -427.000000)">
            <g id="Icon-4" transform="translate(1066.000000, 434.000000)">
                <g id="Oval-5">
                    <use fill="black" fill-opacity="1" filter="url(#filter-2)" xlink:href="#path-1"></use>
                    <use fill="#E47305" fill-rule="evenodd" xlink:href="#path-1"></use>
                </g>
                <g id="Icon/OFX/Recipient" transform="translate(8.000000, 8.000000)">
                    <mask id="mask-4" fill="white">
                        <use xlink:href="#path-3"></use>
                    </mask>
                    <use id="Combined-Shape" fill="#3C3C3B" fill-rule="nonzero" xlink:href="#path-3"></use>
                    <g id="Colour/White/Base" mask="url(#mask-4)" fill="#FFFFFF" fill-rule="evenodd" stroke="#FFFFFF" stroke-width="1">
                        <rect id="Base" x="0.5" y="0.5" width="23" height="23"></rect>
                    </g>
                </g>
            </g>
        </g>
    </g>
</svg>