<?xml version="1.0" encoding="utf-8"?>
<!-- Generator: Adobe Illustrator 22.1.0, SVG Export Plug-In . SVG Version: 6.00 Build 0)  -->
<svg version="1.1" id="Layer_1" xmlns="http://www.w3.org/2000/svg" xmlns:xlink="http://www.w3.org/1999/xlink" x="0px" y="0px"
	 viewBox="0 0 40 40" style="enable-background:new 0 0 40 40;" xml:space="preserve">
<style type="text/css">
	.st0{fill:#E47305;}
	.st1{fill:#FFFFFF;}
</style>
<circle id="path-1_1_" class="st0" cx="20" cy="20" r="20"/>
<path id="path-3_2_" class="st1" d="M12,21v-2h-2v-2h2v-3c0-1.1,0.9-2,2-2h15c1.1,0,2,0.9,2,2v12c0,1.1-0.9,2-2,2H14
	c-1.1,0-2-0.9-2-2v-3H9v-2H12z M14,21h3v2h-3v3h15V14H14v3h3v2h-3V21z M22,24c-2.2,0-4-1.8-4-4s1.8-4,4-4s4,1.8,4,4S24.2,24,22,24z
	 M22,22c1.1,0,2-0.9,2-2c0-1.1-0.9-2-2-2c-1.1,0-2,0.9-2,2C20,21.1,20.9,22,22,22z"/>
</svg>
