<?xml version="1.0" encoding="UTF-8"?>
<svg width="56px" height="56px" viewBox="0 0 56 56" version="1.1" xmlns="http://www.w3.org/2000/svg" xmlns:xlink="http://www.w3.org/1999/xlink">
    <!-- Generator: Sketch 51.2 (57519) - http://www.bohemiancoding.com/sketch -->
    <title>Icon 3 Copy 3</title>
    <desc>Created with Sketch.</desc>
    <defs>
        <circle id="path-1" cx="20" cy="20" r="20"></circle>
        <filter x="-28.8%" y="-28.8%" width="162.5%" height="162.5%" filterUnits="objectBoundingBox" id="filter-2">
            <feOffset dx="1" dy="1" in="SourceAlpha" result="shadowOffsetOuter1"></feOffset>
            <feGaussianBlur stdDeviation="4" in="shadowOffsetOuter1" result="shadowBlurOuter1"></feGaussianBlur>
            <feColorMatrix values="0 0 0 0 0   0 0 0 0 0   0 0 0 0 0  0 0 0 0.16 0" type="matrix" in="shadowBlurOuter1"></feColorMatrix>
        </filter>
        <path d="M3,13 L3,11 L1,11 L1,9 L3,9 L3,6 C3,4.8954305 3.8954305,4 5,4 L20,4 C21.1045695,4 22,4.8954305 22,6 L22,18 C22,19.1045695 21.1045695,20 20,20 L5,20 C3.8954305,20 3,19.1045695 3,18 L3,15 L0,15 L0,13 L3,13 Z M5,13 L8,13 L8,15 L5,15 L5,18 L20,18 L20,6 L5,6 L5,9 L8,9 L8,11 L5,11 L5,13 Z M13,16 C10.790861,16 9,14.209139 9,12 C9,9.790861 10.790861,8 13,8 C15.209139,8 17,9.790861 17,12 C17,14.209139 15.209139,16 13,16 Z M13,14 C14.1045695,14 15,13.1045695 15,12 C15,10.8954305 14.1045695,10 13,10 C11.8954305,10 11,10.8954305 11,12 C11,13.1045695 11.8954305,14 13,14 Z" id="path-3"></path>
    </defs>
    <g id="Page-1" stroke="none" stroke-width="1" fill="none" fill-rule="evenodd">
        <g id="issue" transform="translate(-915.000000, -427.000000)">
            <g id="Icon-3-Copy-3" transform="translate(922.000000, 434.000000)">
                <g id="Oval-5">
                    <use fill="black" fill-opacity="1" filter="url(#filter-2)" xlink:href="#path-1"></use>
                    <use fill="#E47305" fill-rule="evenodd" xlink:href="#path-1"></use>
                </g>
                <g id="Icon/OFX/SendFunds" transform="translate(9.000000, 8.000000)">
                    <mask id="mask-4" fill="white">
                        <use xlink:href="#path-3"></use>
                    </mask>
                    <use id="Combined-Shape" fill="#3C3C3B" fill-rule="nonzero" xlink:href="#path-3"></use>
                    <g id="Colour/White/Base" mask="url(#mask-4)" fill="#FFFFFF" fill-rule="evenodd" stroke="#FFFFFF" stroke-width="1">
                        <rect id="Base" x="0.5" y="0.5" width="23" height="23"></rect>
                    </g>
                </g>
            </g>
        </g>
    </g>
</svg>