<svg width="580" height="400" xmlns="http://www.w3.org/2000/svg" xmlns:xlink="http://www.w3.org/1999/xlink">
 <!-- Created with Method Draw - http://github.com/duopixel/Method-Draw/ -->

 <g>
  <title>background</title>
  <rect fill="#fff" id="canvas_background" height="402" width="582" y="-1" x="-1"/>
  <g display="none" overflow="visible" y="0" x="0" height="100%" width="100%" id="canvasGrid">
   <rect fill="url(#gridpattern)" stroke-width="0" y="0" x="0" height="100%" width="100%"/>
  </g>
 </g>
 <g>
  <title>Layer 1</title>
  <!-- Generator: Sketch 51.2 (57519) - http://www.bohemiancoding.com/sketch -->
  <desc transform="matrix(11.111110581292053,0,0,11.111110581292053,0,0) ">Created with Sketch.</desc>
  <defs>
   <path id="svg_19" d="m14.42462,14.92462l0,-11l2,0l0,11l0,2l-8,0l0,-2l6,0z"/>
  </defs>
  <g stroke="null" transform="rotate(45 283.50000000000006,199.49999999999994) " id="svg_24">
   <g transform="matrix(10.16916881686064,0,0,9.912367715189703,16.330173528773415,18.94960058610585) " fill-rule="evenodd" fill="none" id="svg_12">
    <g stroke="null" id="svg_13">
     <g stroke="null" id="svg_14">
      <circle stroke="null" r="20" cy="18.214659" cx="26.272533" fill="#3C3C3B" id="svg_20"/>
      <g stroke="null" id="svg_15">
       <mask stroke="null" transform="translate(0.2985036373138428,-0.16863508522510529) translate(-0.12597109377384186,0.3832932114601135) translate(6.100000858306885,0) translate(0,-1.9999992847442627) translate(8,8) translate(346,434) translate(-346,-434) " id="svg_17">
        <use stroke="null" id="svg_22" xlink:href="#svg_19"/>
       </mask>
       <path stroke="#979797" id="svg_23" d="m23.197153,21.639279l0,1l7,0l0,-12l-1,0l0,11l-6,0z"/>
       <g stroke="#FFFFFF" fill-rule="evenodd" fill="#FFFFFF" mask="url(#svg_17)" id="svg_16">
        <rect stroke="null" height="23" width="23" y="6.714659" x="14.772533" id="svg_18"/>
       </g>
      </g>
     </g>
    </g>
   </g>
  </g>
 </g>
</svg>