<?xml version="1.0" encoding="utf-8"?>
<!-- Generator: Adobe Illustrator 18.1.1, SVG Export Plug-In . SVG Version: 6.00 Build 0)  -->
<svg version="1.1" id="Layer_1" xmlns="http://www.w3.org/2000/svg" xmlns:xlink="http://www.w3.org/1999/xlink" x="0px" y="0px"
	 viewBox="0 0 612 351.9" enable-background="new 0 0 612 351.9" xml:space="preserve">
<g>
	<g>
		<rect y="0" fill="#DD322F" width="612" height="351.9"/>
		<g>
			<polygon fill="#FFFFFF" points="342.7,136.1 364.1,159.1 394.7,151.4 376.4,179 394.7,205 364.1,194.3 342.7,220.3 342.7,188.2 
				312.1,179 342.7,168.3 			"/>
			<path fill="#FFFFFF" d="M260.1,249.4c-39.8,0-70.4-33.7-70.4-73.4s30.6-75,70.4-75c24.5,0,45.9,12.2,58.1,30.6
				c-15.3-24.5-42.8-45.9-79.6-45.9c-49,0-88.7,39.8-88.7,91.8c0,49,39.8,91.8,88.7,91.8c36.7,0,67.3-19.9,82.6-55.1
				C309.1,235.6,287.6,249.4,260.1,249.4z"/>
		</g>
	</g>
	<path fill="#CCCCCC" d="M608.9,4.6v341.2H3V4.6H608.9 M612,0H0v351.9h612V0L612,0z"/>
</g>
</svg>
