<?xml version="1.0" encoding="utf-8"?>
<!-- Generator: Adobe Illustrator 18.1.1, SVG Export Plug-In . SVG Version: 6.00 Build 0)  -->
<svg version="1.1" id="Layer_1" xmlns="http://www.w3.org/2000/svg" xmlns:xlink="http://www.w3.org/1999/xlink" x="0px" y="0px"
	 viewBox="0 0 612 351.9" enable-background="new 0 0 612 351.9" xml:space="preserve">
<g>
	<rect y="0" fill="none" width="612" height="351.9"/>
	<rect y="0" fill="#6CB2DD" width="612" height="351.9"/>
	<rect y="0" fill="none" width="612" height="351.9"/>
	<rect y="0" fill="none" width="612" height="351.9"/>
	<path fill="#FFFFFF" d="M402.4,111.7v75c1.5,45.9,24.5,62.7,58.1,76.5c38.2-16.8,56.6-36.7,56.6-76.5v-75H402.4z"/>
	<rect y="0" fill="none" width="612" height="351.9"/>
	<rect y="0" fill="none" width="612" height="351.9"/>
	<rect y="0" fill="none" width="612" height="351.9"/>
	<rect y="0" fill="none" width="612" height="351.9"/>
	<rect y="0" fill="#192967" width="306" height="151.5"/>
	<rect y="0" fill="none" width="612" height="351.9"/>
	<polygon fill="#FFFFFF" points="0,0 0,16.8 272.3,151.5 306,151.5 306,134.7 33.7,0 	"/>
	<rect y="0" fill="none" width="612" height="351.9"/>
	<polygon fill="#FFFFFF" points="306,0 306,16.8 33.7,151.5 0,151.5 0,134.7 272.3,0 	"/>
	<rect y="0" fill="none" width="612" height="351.9"/>
	<rect x="128.5" y="0" fill="#FFFFFF" width="50.5" height="151.5"/>
	<rect y="0" fill="none" width="612" height="351.9"/>
	<rect y="50.5" fill="#FFFFFF" width="306" height="50.5"/>
	<rect y="0" fill="none" width="612" height="351.9"/>
	<rect y="61.2" fill="#BC0030" width="306" height="30.6"/>
	<rect y="0" fill="none" width="612" height="351.9"/>
	<rect x="137.7" y="0" fill="#BC0030" width="30.6" height="151.5"/>
	<rect y="0" fill="none" width="612" height="351.9"/>
	<polygon fill="#C0003B" points="0,151.5 102.5,101 125.5,101 22.9,151.5 	"/>
	<rect y="0" fill="none" width="612" height="351.9"/>
	<polygon fill="#C0003B" points="0,0 102.5,50.5 79.6,50.5 0,10.7 	"/>
	<rect y="0" fill="none" width="612" height="351.9"/>
	<polygon fill="#C0003B" points="182.1,50.5 283.1,0 306,0 205,50.5 	"/>
	<rect y="0" fill="none" width="612" height="351.9"/>
	<polygon fill="#C0003B" points="306,151.5 205,101 228,101 306,139.2 	"/>
	<rect y="0" fill="none" width="612" height="351.9"/>
	<rect y="0" fill="none" width="612" height="351.9"/>
	<rect y="0" fill="none" width="612" height="351.9"/>
	<rect y="0" fill="none" width="612" height="351.9"/>
	<rect y="0" fill="none" width="612" height="351.9"/>
	<rect y="0" fill="none" width="612" height="351.9"/>
	<rect y="0" fill="none" width="612" height="351.9"/>
	<rect y="0" fill="none" width="612" height="351.9"/>
	<rect y="0" fill="none" width="612" height="351.9"/>
	<rect y="0" fill="none" width="612" height="351.9"/>
	<rect y="0" fill="none" width="612" height="351.9"/>
	<rect y="0" fill="none" width="612" height="351.9"/>
	<rect y="0" fill="none" width="612" height="351.9"/>
	<rect y="0" fill="none" width="612" height="351.9"/>
	<rect y="0" fill="none" width="612" height="351.9"/>
	<rect y="0" fill="none" width="612" height="351.9"/>
	<rect y="0" fill="none" width="612" height="351.9"/>
	<rect y="0" fill="none" width="612" height="351.9"/>
	<rect y="0" fill="none" width="612" height="351.9"/>
	<rect y="0" fill="none" width="612" height="351.9"/>
	<rect y="0" fill="none" width="612" height="351.9"/>
	<rect y="0" fill="none" width="612" height="351.9"/>
	<rect y="0" fill="none" width="612" height="351.9"/>
	<rect y="0" fill="none" width="612" height="351.9"/>
	<rect y="0" fill="none" width="612" height="351.9"/>
	<rect y="0" fill="none" width="612" height="351.9"/>
	<rect y="0" fill="none" width="612" height="351.9"/>
	<rect y="0" fill="none" width="612" height="351.9"/>
	<rect y="0" fill="none" width="612" height="351.9"/>
	<rect y="0" fill="none" width="612" height="351.9"/>
	<rect y="0" fill="none" width="612" height="351.9"/>
	<rect y="0" fill="none" width="612" height="351.9"/>
	<rect y="0" fill="none" width="612" height="351.9"/>
	<rect y="0" fill="none" width="612" height="351.9"/>
	<rect y="0" fill="none" width="612" height="351.9"/>
	<rect y="0" fill="none" width="612" height="351.9"/>
	<rect y="0" fill="none" width="612" height="351.9"/>
	<rect y="0" fill="none" width="612" height="351.9"/>
	<rect y="0" fill="none" width="612" height="351.9"/>
	<rect y="0" fill="none" width="612" height="351.9"/>
	<rect y="0" fill="none" width="612" height="351.9"/>
	<rect y="0" fill="none" width="612" height="351.9"/>
	<rect y="0" fill="none" width="612" height="351.9"/>
	<rect y="0" fill="none" width="612" height="351.9"/>
	<rect y="0" fill="none" width="612" height="351.9"/>
	<rect y="0" fill="none" width="612" height="351.9"/>
	<rect y="0" fill="none" width="612" height="351.9"/>
	<rect y="0" fill="none" width="612" height="351.9"/>
	<rect y="0" fill="none" width="612" height="351.9"/>
	<rect y="0" fill="none" width="612" height="351.9"/>
	<rect y="0" fill="none" width="612" height="351.9"/>
	<rect y="0" fill="none" width="612" height="351.9"/>
	<rect y="0" fill="none" width="612" height="351.9"/>
	<rect y="0" fill="none" width="612" height="351.9"/>
	<rect y="0" fill="none" width="612" height="351.9"/>
	<rect y="0" fill="none" width="612" height="351.9"/>
	<rect y="0" fill="none" width="612" height="351.9"/>
	<rect y="0" fill="none" width="612" height="351.9"/>
	<rect y="0" fill="none" width="612" height="351.9"/>
	<rect y="0" fill="none" width="612" height="351.9"/>
	<rect y="0" fill="none" width="612" height="351.9"/>
	<rect y="0" fill="none" width="612" height="351.9"/>
	<rect y="0" fill="none" width="612" height="351.9"/>
	<rect y="0" fill="none" width="612" height="351.9"/>
	<rect y="0" fill="none" width="612" height="351.9"/>
	<rect y="0" fill="none" width="612" height="351.9"/>
	<rect y="0" fill="none" width="612" height="351.9"/>
	<rect y="0" fill="none" width="612" height="351.9"/>
	<rect y="0" fill="none" width="612" height="351.9"/>
	<rect y="0" fill="none" width="612" height="351.9"/>
	<rect y="0" fill="none" width="612" height="351.9"/>
	<rect y="0" fill="none" width="612" height="351.9"/>
	<rect y="0" fill="none" width="612" height="351.9"/>
	<rect y="0" fill="none" width="612" height="351.9"/>
	<rect y="0" fill="none" width="612" height="351.9"/>
	<rect y="0" fill="none" width="612" height="351.9"/>
	<rect y="0" fill="none" width="612" height="351.9"/>
	<rect y="0" fill="none" width="612" height="351.9"/>
	<rect y="0" fill="none" width="612" height="351.9"/>
	<rect y="0" fill="none" width="612" height="351.9"/>
	<rect y="0" fill="none" width="612" height="351.9"/>
	<rect y="0" fill="none" width="612" height="351.9"/>
	<rect y="0" fill="none" width="612" height="351.9"/>
	<rect y="0" fill="none" width="612" height="351.9"/>
	<rect y="0" fill="none" width="612" height="351.9"/>
	<rect y="0" fill="none" width="612" height="351.9"/>
	<rect y="0" fill="none" width="612" height="351.9"/>
	<rect y="0" fill="none" width="612" height="351.9"/>
	<rect y="0" fill="none" width="612" height="351.9"/>
	<rect y="0" fill="none" width="612" height="351.9"/>
	<rect y="0" fill="none" width="612" height="351.9"/>
	<rect y="0" fill="none" width="612" height="351.9"/>
	<rect y="0" fill="none" width="612" height="351.9"/>
	<rect y="0" fill="none" width="612" height="351.9"/>
	<rect y="0" fill="none" width="612" height="351.9"/>
	<rect y="0" fill="none" width="612" height="351.9"/>
	<rect y="0" fill="none" width="612" height="351.9"/>
	<rect y="0" fill="none" width="612" height="351.9"/>
	<rect y="0" fill="none" width="612" height="351.9"/>
	<rect y="0" fill="none" width="612" height="351.9"/>
	<rect y="0" fill="none" width="612" height="351.9"/>
	<rect y="0" fill="none" width="612" height="351.9"/>
	<rect y="0" fill="none" width="612" height="351.9"/>
	<rect y="0" fill="none" width="612" height="351.9"/>
	<rect y="0" fill="none" width="612" height="351.9"/>
	<rect y="0" fill="none" width="612" height="351.9"/>
	<rect y="0" fill="none" width="612" height="351.9"/>
	<rect y="0" fill="none" width="612" height="351.9"/>
	<rect y="0" fill="none" width="612" height="351.9"/>
	<rect y="0" fill="none" width="612" height="351.9"/>
	<rect y="0" fill="none" width="612" height="351.9"/>
	<rect y="0" fill="none" width="612" height="351.9"/>
	<rect y="0" fill="none" width="612" height="351.9"/>
	<rect y="0" fill="none" width="612" height="351.9"/>
	<rect y="0" fill="none" width="612" height="351.9"/>
	<rect y="0" fill="none" width="612" height="351.9"/>
	<rect y="0" fill="none" width="612" height="351.9"/>
	<rect y="0" fill="none" width="612" height="351.9"/>
	<rect y="0" fill="none" width="612" height="351.9"/>
	<rect y="0" fill="none" width="612" height="351.9"/>
	<rect y="0" fill="none" width="612" height="351.9"/>
	<rect y="0" fill="none" width="612" height="351.9"/>
	<rect y="0" fill="none" width="612" height="351.9"/>
	<rect y="0" fill="none" width="612" height="351.9"/>
	<rect y="0" fill="none" width="612" height="351.9"/>
	<rect y="0" fill="none" width="612" height="351.9"/>
	<rect y="0" fill="none" width="612" height="351.9"/>
	<rect y="0" fill="none" width="612" height="351.9"/>
	<rect y="0" fill="none" width="612" height="351.9"/>
	<rect y="0" fill="none" width="612" height="351.9"/>
	<rect y="0" fill="none" width="612" height="351.9"/>
	<rect y="0" fill="none" width="612" height="351.9"/>
	<rect y="0" fill="none" width="612" height="351.9"/>
	<rect y="0" fill="none" width="612" height="351.9"/>
	<rect y="0" fill="none" width="612" height="351.9"/>
	<rect y="0" fill="none" width="612" height="351.9"/>
	<rect y="0" fill="none" width="612" height="351.9"/>
	<rect y="0" fill="none" width="612" height="351.9"/>
	<rect y="0" fill="none" width="612" height="351.9"/>
	<rect y="0" fill="none" width="612" height="351.9"/>
	<rect y="0" fill="none" width="612" height="351.9"/>
	<rect y="0" fill="none" width="612" height="351.9"/>
	<rect y="0" fill="none" width="612" height="351.9"/>
	<rect y="0" fill="none" width="612" height="351.9"/>
	<rect y="0" fill="none" width="612" height="351.9"/>
	<rect y="0" fill="none" width="612" height="351.9"/>
	<rect y="0" fill="none" width="612" height="351.9"/>
	<rect y="0" fill="none" width="612" height="351.9"/>
	<rect y="0" fill="none" width="612" height="351.9"/>
	<rect y="0" fill="none" width="612" height="351.9"/>
	<rect y="0" fill="none" width="612" height="351.9"/>
	<rect y="0" fill="none" width="612" height="351.9"/>
	<rect y="0" fill="none" width="612" height="351.9"/>
	<rect y="0" fill="none" width="612" height="351.9"/>
	<rect y="0" fill="none" width="612" height="351.9"/>
	<rect y="0" fill="none" width="612" height="351.9"/>
	<rect y="0" fill="none" width="612" height="351.9"/>
	<rect y="0" fill="none" width="612" height="351.9"/>
	<rect y="0" fill="none" width="612" height="351.9"/>
	<rect y="0" fill="none" width="612" height="351.9"/>
	<rect y="0" fill="none" width="612" height="351.9"/>
	<rect y="0" fill="none" width="612" height="351.9"/>
	<rect y="0" fill="none" width="612" height="351.9"/>
	<rect y="0" fill="none" width="612" height="351.9"/>
	<rect y="0" fill="none" width="612" height="351.9"/>
	<rect y="0" fill="none" width="612" height="351.9"/>
	<rect y="0" fill="none" width="612" height="351.9"/>
	<rect y="0" fill="none" width="612" height="351.9"/>
	<rect y="0" fill="none" width="612" height="351.9"/>
	<rect y="0" fill="none" width="612" height="351.9"/>
	<rect y="0" fill="none" width="612" height="351.9"/>
	<rect y="0" fill="none" width="612" height="351.9"/>
	<rect y="0" fill="none" width="612" height="351.9"/>
	<rect y="0" fill="none" width="612" height="351.9"/>
	<rect y="0" fill="none" width="612" height="351.9"/>
	<rect y="0" fill="none" width="612" height="351.9"/>
	<rect y="0" fill="none" width="612" height="351.9"/>
	<rect y="0" fill="none" width="612" height="351.9"/>
	<rect y="0" fill="none" width="612" height="351.9"/>
	<rect y="0" fill="none" width="612" height="351.9"/>
	<rect y="0" fill="none" width="612" height="351.9"/>
	<rect y="0" fill="none" width="612" height="351.9"/>
	<rect y="0" fill="none" width="612" height="351.9"/>
	<rect y="0" fill="none" width="612" height="351.9"/>
	<rect y="0" fill="none" width="612" height="351.9"/>
	<rect y="0" fill="none" width="612" height="351.9"/>
	<rect y="0" fill="none" width="612" height="351.9"/>
	<rect y="0" fill="none" width="612" height="351.9"/>
	<rect y="0" fill="none" width="612" height="351.9"/>
	<rect y="0" fill="none" width="612" height="351.9"/>
	<rect y="0" fill="none" width="612" height="351.9"/>
	<rect y="0" fill="none" width="612" height="351.9"/>
	<rect y="0" fill="none" width="612" height="351.9"/>
	<path fill="#BC0030" d="M517.1,111.7H402.4v39.8v35.2v1.5c0,1.5,0,3.1,0,4.6c1.5,19.9,7.7,33.7,16.8,44.4
		c-6.1-7.6-10.7-18.4-13.8-30.6h42.8v52c-12.2-6.1-21.4-12.2-29.1-21.4c7.6,9.2,16.8,15.3,29.1,21.4l0,0c6.1,3.1,12.2,6.1,12.2,6.1
		s3.1-1.5,7.7-4.6c35.2-16.8,50.5-36.7,50.5-73.4v-75H517.1z M403.9,185.1v-33.7h44.4v33.7H403.9L403.9,185.1z M469.7,258.7v-52
		h45.9C511,229.5,495.7,244.8,469.7,258.7z M469.7,185.1v-33.7h47.4v33.7H469.7L469.7,185.1z"/>
	<g>
		<path fill="#CCCCCC" d="M608.9,3.1v344.3H3V3.1H608.9 M612,0H0v351.9h612V0L612,0z"/>
	</g>
</g>
</svg>
