<?xml version="1.0" encoding="utf-8"?>
<!-- Generator: Adobe Illustrator 18.1.1, SVG Export Plug-In . SVG Version: 6.00 Build 0)  -->
<svg version="1.1" id="Layer_1" xmlns="http://www.w3.org/2000/svg" xmlns:xlink="http://www.w3.org/1999/xlink" x="0px" y="0px"
	 viewBox="0 0 612 351.9" enable-background="new 0 0 612 351.9" xml:space="preserve">
<g>
	<g>
		<rect y="0" fill="#E30613" width="612" height="351.9"/>
		<rect y="91.8" fill="#FFCC00" width="612" height="174.4"/>
	</g>
	<g>
		<path fill="#1D1D1B" d="M154.5,240.2L154.5,240.2L154.5,240.2h-6.1c-3.1,0-6.1,0-6.1,0h-3.1h-3.1c-3.1,0-6.1,0-6.1,0l-6.1-4.6v3.1
			v3.1h3.1h3.1h3.1h3.1c3.1,0,3.1,0,6.1,0c0,0,0,0,3.1,0h3.1L154.5,240.2C154.5,243.2,154.5,243.2,154.5,240.2L154.5,240.2z"/>
		<path fill="#1D1D1B" d="M280,240.2L280,240.2L280,240.2h-6.1c-3.1,0-6.1,0-6.1,0h-3.1h-3.1c-3.1,0-6.1,0-6.1,0l-6.1-3.1v3.1v3.1
			h3.1h3.1h3.1h3.1c3.1,0,3.1,0,6.1,0c0,0,0,0,3.1,0h3.1L280,240.2C280,243.2,280,243.2,280,240.2L280,240.2z"/>
		<path fill="#1D1D1B" d="M228,122.4c3.1,3.1,1.5,3.1,0,4.6c3.1,0,4.6,0,7.6,0C232.6,125.4,229.5,122.4,228,122.4z"/>
		<path fill="#1D1D1B" d="M261.6,151.4v3.1C261.6,151.4,264.7,151.4,261.6,151.4z"/>
		<path fill="#1D1D1B" d="M215.7,122.4c-1.5-1.5-4.6-1.5-7.6-1.5c0,0-1.5,1.5-1.5,3.1C209.6,122.4,212.7,122.4,215.7,122.4z"/>
		<path fill="#1D1D1B" d="M280,194.3c-6.1-3.1-9.2-3.1-12.2-6.1c0-3.1,0-6.1,0-12.2c0-3.1,0-6.1,0-6.1c3.1,0,3.1-3.1,3.1-6.1h-3.1
			c0-3.1,3.1-6.1,3.1-9.2h-3.1c-3.1,3.1-3.1,0-6.1,0s-3.1,0-3.1,0h-3.1h-3.1c-3.1,3.1,3.1,3.1,9.2,12.2h-3.1c0,3.1,0,6.1,3.1,6.1
			c0,3.1,0,9.2,0,15.3c-3.1,0-9.2,0-12.2,0c0-6.1-3.1-21.4-3.1-24.5h-12.2c3.1-3.1,3.1-6.1,3.1-9.2h3.1c0-3.1,3.1-3.1,6.1-6.1
			c-3.1,0,3.1-3.1,3.1-3.1h-3.1c3.1-3.1,3.1-6.1,3.1-9.2c-1.5-6.1-7.6-7.6-13.8-9.2c1.5,1.5,3.1,3.1,4.6,4.6
			c-3.1-3.1-6.1-3.1-12.2-3.1v-1.5l0,0c-3.1-3.1-7.6-4.6-12.2-4.6c1.5,0,3.1,1.5,3.1,1.5c0,3.1,0,3.1,0,6.1
			c-3.1-3.1-6.1-3.1-12.2-3.1c-3.1-3.1-3.1-6.1-3.1-6.1c1.5,0,3.1,0,4.6,0c1.5-1.5,1.5-1.5,1.5-3.1c0-3.1-3.1-6.1-6.1-6.1v-3.1h3.1
			v-3.1h-3.1v-3.1h-3.1v4.6h-3.1v4.6h1.5c0,1.5-1.5,1.5-1.5,3.1c0,3.1,0,6.1,3.1,6.1c-1.5,0-1.5,0-3.1,0l-3.1,6.1
			c-6.1,0-9.2,0-12.2,3.1c-3.2-2.9-3.2-2.9-3.2-5.9c3.1-3.1,6.1-3.1,9.2-3.1c-3.1,0-6.1,0-9.2,0c-3.1,0-6.1,0-9.2,0
			c-6.1,0-12.2,3.1-15.3,12.2c0,0,0,9.2,6.1,12.2c-3.1,0-3.1,3.1-3.1,3.1h3.1c0,0,6.1,0,9.2,3.1l3.1,12.2c-4.6,0-10.7,0-15.3,0
			c0,9.2,0,15.3,0,24.5c-3.1,0-9.2,0-12.2,0v-12.2c0-3.1,0-6.1,3.1-6.1c0-3.1,0-3.1,0-6.1h-3.1v-3.1c0-6.1,0-6.1,0-6.1
			c0-3.1-3.1-3.1-6.1-3.1c0,0,0-3.1-3.1-3.1v1.5c-3.1,0-9.2,0-9.2,3.1s3.1,3.1-3.1,6.1h-3.1v7.6h3.1v6.1v10.7l-6.1,7.7
			c0,0,0,3.1,0,6.1c0,6.1,3.1,3.1,6.1,3.1v9.2l-6.1,4.6c0,3.1,0,6.1,3.1,9.2c0,3.1,3.1,3.1,3.1,3.1s0-3.1,0-6.1s0-3.1,0-3.1h3.1v9.2
			c0,3.1,0,6.1,0,9.2H124v6.1h21.4v-6.1h-3.1v-21.4c3.1,0,3.1-3.1,6.1-3.1c3.1-3.1,0-6.1,0-9.2s-3.1-3.1-6.1-3.1v-3.1
			c6.1-3.1,9.2,0,12.2,0c0,12.2-6.1,45.9,12.2,52c15.3,6.1,33.7,6.1,52,3.1c9.2,0,18.4-3.1,18.4-12.2c3.1-15.3,3.1-30.6,3.1-45.9
			c6.1,0,9.2,0,12.2,0c3.1,6.1-3.1,3.1-6.1,6.1c0,3.1-3.1,6.1-3.1,9.2c3.1,0,6.1,0,9.2,3.1c0,6.1,0,15.3,0,21.4h-3.1v6.1h21.4v-3.1
			h-3.1c3.1,0,3.1-7.7,3.1-10.7h3.1l-3.1,3.1l3.1,3.1c0-3.1,0-6.1,3.1-6.1v-9.2l-6.1-3.1c0-3.1-3.1-3.1-3.1-6.1
			c3.1-3.1,6.1-3.1,9.2-6.1C276.9,200.4,280,197.3,280,194.3z M172.9,133.1c-3.1-3.1-6.1,0-9.2,0h-3.1c0,3.1-3.1,0,0,0
			c3.1-4.6,9.2-10.7,15.3-6.1C175.9,126.9,172.9,130,172.9,133.1z"/>
		<polygon fill="#1D1D1B" points="142.3,235.6 145.3,235.6 145.3,240.2 123.9,240.2 123.9,235.6 130.1,235.6 		"/>
		<polygon fill="#1D1D1B" points="142.3,235.6 145.3,235.6 145.3,240.2 123.9,240.2 123.9,235.6 130.1,235.6 		"/>
		<path fill="#F29FC5" d="M203.5,133.1c-3.1,0-3.1-3.1-6.1,0h-3.1c-3.1-3.1,0-9.2,3.1-12.2C200.4,120.8,206.6,122.4,203.5,133.1z"/>
		<path fill="#FFCC00" d="M224.9,133.1l-3.1,3.1C218.8,133.1,221.9,133.1,224.9,133.1l-3.1-6.1C224.9,122.4,224.9,128.5,224.9,133.1
			z"/>
		<path fill="#FFCC00" d="M175.9,128.5c0,3.1,3.1,6.1,3.1,6.1s0,0-3.1,0C175.9,133.1,175.9,133.1,175.9,128.5z"/>
		<path fill="#E30613" d="M194.3,133.1c0,3.1,3.1,3.1,3.1,6.1c0,0-3.1,0-6.1,0s-3.1,3.1-3.1,6.1l3.1,3.1h3.1h-3.1l-3.1-4.6
			c0,0,0,3.1-3.1,3.1h3.1c0-3.1,0-3.1-3.1-6.1H182v-4.6c0,0,0,0,0-3.1C185.1,133.1,191.2,133.1,194.3,133.1z"/>
		<path fill="#E30613" d="M218.8,133.1L218.8,133.1c0,3.1,0,6.1,0,6.1h-3.1c0,0-3.1,3.1,0,3.1l3.1,6.1c0,0-3.1,0-3.1-3.1
			c0,0,0,0,0-3.1c-3.1,0-3.1,6.1-6.1,3.1c3.1,0,3.1,0,6.1-3.1c0-3.1,0-6.1-3.1-6.1h-3.1c0-3.1,3.1,0,3.1-3.1v-6.1
			C209.6,133.1,215.7,133.1,218.8,133.1z"/>
		<path fill="#FFCC00" d="M243.3,142.2L243.3,142.2c0-3.1,0-6.1,0-9.2C243.3,133.1,243.3,136.1,243.3,142.2z"/>
		<path fill="#E30613" d="M175.9,133.1C179,133.1,175.9,136.1,175.9,133.1c0,3.1-3.1,3.1-3.1,6.1v3.1c-3.1,1.5-3.1,0-6.1,0h-3.1
			c0-3.1,3.1-6.1,6.1-6.1C169.8,133.1,172.9,133.1,175.9,133.1z"/>
		<path fill="#E30613" d="M240.2,136.1c3.1,3.1-3.1,3.1-6.1,6.1H231c0,0-3.1,3.1,0,3.1l3.1,3.1c0,0,0,0-3.1,0c0,0,0-3.1-3.1-3.1
			s-3.1,3.1-6.1,3.1c3.1,0,3.1,0,6.1-3.1c0-3.1-6.1-3.1-3.1-9.2c3.1-4.6,3.1-4.6,9.2-4.6C234.1,133.1,237.1,133.1,240.2,136.1z"/>
		<path fill="#FFCC00" d="M203.5,142.2L203.5,142.2c3.1,0,3.1,0,3.1,3.1C203.5,143.8,200.4,142.2,203.5,142.2
			c-3.1,6.1,0,6.1,3.1,6.1c-3.1,0-3.1,0-6.1,0c-3.1,0-3.1,3.1-6.1,0C197.4,143.8,197.4,143.8,203.5,142.2c-6.1,1.5-6.1,1.5-9.2,1.5
			v-1.5h3.1C197.4,142.2,197.4,142.2,203.5,142.2c-3.1,0-3.1-3.1,0-6.1C203.5,136.1,200.4,142.2,203.5,142.2z"/>
		<path fill="#FFCC00" d="M182.1,142.2h3.1H182.1c0,6.1,0,6.1,3.1,6.1h-3.1V142.2c-3.1,1.5-6.1,1.5-6.1,1.5s0,0,0-3.1L182.1,142.2
			l-3.1-6.1h3.1C182.1,142.2,179,142.2,182.1,142.2z"/>
		<path fill="#FFCC00" d="M221.9,143.8C221.9,143.8,224.9,143.8,221.9,143.8s-3.1,3.1-3.1,3.1c-3.1,0-9.2,3.1-9.2,0
			c3.1,0,6.1,3.1,6.1,0c0,0,3.1-3.1,0-3.1c0,0-3.1,0-3.1-3.1c0,0,3.1,3.1,6.1,0c0-3.1,0-3.1,3.1-3.1
			C221.9,136.1,218.8,143.8,221.9,143.8z"/>
		<path fill="#FFCC00" d="M163.7,143.8L163.7,143.8c3.1,0,3.1,0,6.1,0c0,0,3.1,0,0,0S166.8,143.8,163.7,143.8l3.1,6.1h-3.1
			c0,0-3.1-3.1-6.1-6.1C157.6,142.2,160.6,143.8,163.7,143.8z"/>
		<path fill="#FFCC00" d="M243.3,143.8c-3.1,0-3.1,3.1-6.1,3.1c0,0-3.1,3.1-6.1,3.1c0,0,0,0,3.1,0c0-3.1-3.1-3.1-3.1-3.1
			s3.1,3.1,3.1,0C237.1,143.8,240.2,142.2,243.3,143.8z"/>
		<path fill="#FFCC00" d="M179,148.4L179,148.4c-3.1,0-3.1,0-3.1,0S175.9,148.4,179,148.4z"/>
		<path fill="#FFCC00" d="M169.8,148.4C169.8,148.4,172.9,148.4,169.8,148.4z"/>
		<path fill="#FFCC00" d="M179,148.4c-3.1,3.1-6.1,0-9.2,0C172.9,148.4,175.9,151.4,179,148.4z"/>
		<path fill="#FFCC00" d="M228,148.4c0,0-3.1-3.1-6.1,0C224.9,148.4,228,148.4,228,148.4z"/>
		<path fill="#FFCC00" d="M200.4,148.4c3.1,0,6.1-3.1,9.2,0c6.1,0,9.2,0,15.3,0s0,6.1,3.1,6.1c-3.1-3.1-9.2-3.1-12.2-3.1h-3.1
			c0,0,0,0,0,3.1L200.4,148.4C200.4,151.4,200.4,151.4,200.4,148.4h-3.1C197.4,151.4,197.4,151.4,200.4,148.4
			c-12.2,3.1-18.4,4.6-27.5,10.7v-7.7c3.1,0,6.1,0,9.2,0c6.1,3.1,9.2-3.1,12.2,0C194.3,148.4,197.4,148.4,200.4,148.4z"/>
		<polygon fill="#E30613" points="136.2,153 133.1,151.4 136.2,151.4 		"/>
		<path fill="#E30613" d="M142.3,151.4h-3.1H142.3z"/>
		<path fill="#E30613" d="M130.1,153L130.1,153z"/>
		<path fill="#E30613" d="M145.3,153L145.3,153z"/>
		<path fill="#E30613" d="M221.9,159.1c-9.2,3.1-21.4,0-30.6,0c-3.1,0-9.2,0-12.2,0C191.2,153,209.6,153,221.9,159.1z"/>
		<path fill="#E30613" d="M261.6,153L261.6,153h-3.1C258.6,153,258.6,153,261.6,153C261.6,151.4,261.6,153,261.6,153z"/>
		<path fill="#E30613" d="M264.7,159.1L264.7,159.1C264.7,159.1,261.6,157.5,264.7,159.1C264.7,153,264.7,153,264.7,159.1z"/>
		<path fill="#E30613" d="M255.5,159.1L255.5,159.1C252.4,159.1,252.4,153,255.5,159.1C255.5,153,255.5,153,255.5,159.1z"/>
		<path fill="#E30613" d="M270.8,153C270.8,157.5,270.8,157.5,270.8,153C267.8,159.1,267.8,153,270.8,153
			C267.8,153,270.8,153,270.8,153z"/>
		<path fill="#E30613" d="M142.3,159.1L142.3,159.1h-9.2C136.2,159.1,139.2,159.1,142.3,159.1z"/>
		<path fill="#FFCC00" d="M145.3,163.7L145.3,163.7l-18.4,3.1v-3.1C133.1,163.7,139.2,163.7,145.3,163.7z"/>
		<path fill="#FFCC00" d="M267.8,163.7c-3.1,0-6.1-3.1-12.2,0C258.6,159.1,264.7,159.1,267.8,163.7z"/>
		<path fill="#D0D0D0" d="M224.9,163.7c0,3.1,0,6.1-3.1,3.1v3.1c-3.1,0-3.1-3.1-3.1,0s3.1,3.1,6.1,3.1c0,3.1-3.1,0-3.1,3.1
			c-3.1,0-3.1,0-6.1-3.1c0,0,0-3.1-3.1-3.1h-3.1v3.1h-3.1c0,0,0,0,0,3.1s-6.1,3.1-3.1,3.1c3.1-3.1,6.1,0,9.2,3.1c0,3.1-3.1,0-6.1,0
			c0,0-3.1,0-3.1,3.1c0,0,0,0,3.1,0v3.1c0,0,0,0,3.1,0c0,0,0,3.1,3.1,3.1c0-3.1,3.1-3.1,6.1-3.1h3.1c-3.1,0-6.1,0-3.1,3.1
			c3.1,3.1-3.1,0-3.1,3.1c0,0-3.1,0-3.1,3.1c-3.1-3.1-3.1-6.1-6.1-6.1h-3.1c0-9.2-3.1-15.3,0-24.5L224.9,163.7z"/>
		<path fill="#D0D0D0" d="M240.2,166.7L240.2,166.7C237.1,166.7,237.1,163.7,240.2,166.7c-3.1-3.1-3.1-3.1-3.1-3.1
			c-3.1,6.1-3.1,12.2-3.1,18.4h-3l-3.1-3.1c3.1,0,0-6.1,3.1-6.1c0-3.1-3.1-6.1,0-6.1c0-3.1-3.1,0-3.1-3.1c0,0,0,0,0-3.1
			c-3.1,0,0,0-3.1,0v-3.1h15.3C240.2,157.5,240.2,166.7,240.2,166.7z"/>
		<polygon fill="#FFCC00" points="267.8,163.7 258.6,163.7 261.6,163.7 		"/>
		<path fill="#FFCC00" d="M270.8,163.7L270.8,163.7l-15.3,3.1v-3.1C261.6,163.7,264.7,163.7,270.8,163.7z"/>
		<path fill="#FFCC00" d="M142.3,166.7C142.3,172.8,142.3,172.8,142.3,166.7c-3.1,6.1-6.1,6.1-12.2,6.1v-6.1
			C136.2,166.7,139.2,166.7,142.3,166.7z"/>
		<path fill="#E30613" d="M231,174.4l-3.1,3.1h-3.1c0,0,0-3.1-3.1-3.1c0,0,0,0-3.1,0c0-3.1,3.1,0,6.1-3.1v-4.6h-3.1
			c3.1,0,3.1,0,6.1-3.1C228,166.7,231,172.8,231,174.4z"/>
		<path fill="#E30613" d="M212.7,174.4c0,3.1,6.1,0,3.1,3.1c-3.1,0-6.1-3.1-9.2-3.1C206.6,172.8,206.6,172.8,212.7,174.4
			C209.6,172.8,212.7,172.8,212.7,174.4z"/>
		<path fill="#D0D0D0" d="M240.2,203.4c-9.2,0-15.3,0-24.5,0c-3.1,0,0-3.1-3.1-3.1c0,0-3.1-3.1,0-3.1c0,0,0,3.1,3.1,3.1
			c0-6.1,9.2-3.1,6.1-6.1c0,0,0,0,0,3.1c0,0,3.1,0,3.1,3.1c-3.1,0-3.1,3.1-6.1,3.1c0,0,0,0,0,3.1s3.1,0,3.1,0v3.1h3.1
			c0,0,0,3.1,3.1,3.1s0-6.1,3.1-6.1c3.1-3.1-3.1-3.1-3.1-6.1c3.1-3.1,3.1-9.2,3.1-12.2c3.1-3.1,0-6.1,3.1-9.2
			C240.2,179,240.2,189.7,240.2,203.4z"/>
		<path fill="#D0D0D0" d="M142.3,182c-3.1,0-6.1,0-12.2,3.1c0-6.1,0-9.2,0-12.2h12.2V182z"/>
		<path fill="#FFCC00" d="M267.8,172.8c-3.1,0-9.2,0-12.2,0v-6.1C261.6,172.8,264.7,166.7,267.8,172.8z"/>
		<path fill="#E30613" d="M182.1,179v-6.1v-9.2v3.1H179v-3.1h-3.1v3.1v-3.1h-3.1v6.1v9.2h-3.1v-6.1v3.1v-3.1h-3.1v3.1v-3.1h-3.1v6.1
			v3.1h3.1v6.1h-3.1v6.1H188c0,3.1-3.1,9.2-3.1,9.2c-9.2,0-18.4,0-27.5,0c0-15.3,0-27.5,0-42.8c12.2,0,27.5,0,39.8,0v24.5
			c-3.1,0-6.1,0-6.1,0H188v-3.1h3.1V179H188v-6.1h-3.1v3.1h3.1v-3.1v3.1h-3.1v-3.1L182.1,179l3.1-4.6v3.1h-3.1V179z"/>
		<path fill="#D0D0D0" d="M267.8,174.4c0,3.1,0,9.2,0,12.2c-3.1,0-6.1,0-9.2,0c0-3.1,0-9.2,0-12.2H267.8z"/>
		<path fill="#E30613" d="M224.9,179L224.9,179c3.1,0,6.1,3.1,9.2,6.1c0,3.1,0,3.1,0,6.1c0,0,0,0,3.1,0c0,3.1-3.1,3.1-3.1,3.1
			s0,0-3.1,0c0,0,3.1,0,3.1-3.1s0-3.1-3.1-3.1c0,0,3.1-3.1,0-3.1c-3.1-3.1-6.1-6.1-9.2-6.1v-4.6C221.9,179,221.9,179,224.9,179z"/>
		<path fill="#E30613" d="M212.7,182C209.6,182,209.6,182,212.7,182C209.6,179,212.7,182,212.7,182l6.1-6.1
			C218.8,182,212.7,179,212.7,182z"/>
		<path fill="#E30613" d="M157.6,183.5v6.1c-6.1,0-18.4,0-24.5,3.1l-6.1,6.1c0-3.1,0-3.1,0-6.1c0-6.1,6.1-9.2,15.3-9.2
			C142.3,183.5,151.5,183.5,157.6,183.5z"/>
		<path fill="#E30613" d="M224.9,183.5c-3.1,0-6.1,3.1-6.1,6.1c-3.1,0-3.1,3.1-6.1,0c0,0,0,0,0-3.1c3.1,0,3.1,3.1,6.1,0v-3.1
			C221.9,183.5,224.9,183.5,224.9,183.5z"/>
		<path fill="#E30613" d="M276.9,194.3L276.9,194.3c-9.2-3.1-21.4-6.1-33.7,0v-6.1C255.5,183.5,267.8,183.5,276.9,194.3z"/>
		<path fill="#D0D0D0" d="M142.3,203.4c-3.1,3.1-6.1,3.1-9.2,6.1v-12.2c3.1,0,6.1-3.1,9.2-3.1C142.3,194.3,142.3,203.4,142.3,203.4z
			"/>
		<path fill="#E30613" d="M130.1,197.3L130.1,197.3L130.1,197.3z"/>
		<path fill="#D0D0D0" d="M267.8,194.3c0,3.1,0,6.1,0,12.2c-3.1,0-6.1,0-9.2-3.1c0-3.1-3.1-6.1,0-9.2
			C261.6,194.3,264.7,194.3,267.8,194.3z"/>
		<path fill="#E30613" d="M148.4,197.3C145.3,203.4,145.3,203.4,148.4,197.3h-3.1C145.3,197.3,145.3,197.3,148.4,197.3z"/>
		<path fill="#E30613" d="M273.9,197.3l-6.1,3.1v-6.1C270.8,197.3,273.9,197.3,273.9,197.3z"/>
		<path fill="#E30613" d="M255.5,197.3L255.5,197.3c0,0-3.1,3.1-3.1,0H255.5z"/>
		<path fill="#E30613" d="M142.3,209.6c-3.1,0-15.3,6.1-18.4,9.2v-3.1c9.2-6.1,18.4-6.1,24.5-9.2
			C151.5,209.6,145.3,209.6,142.3,209.6z"/>
		<path fill="#E30613" d="M276.9,212.6v6.1l-12.2-6.1c-6.1-3.1-12.2-3.1-15.3-9.2v-3.1C252.4,203.4,273.9,209.6,276.9,212.6z"/>
		<path fill="#E30613" d="M166.8,205c0,12.2,0,27.5,0,39.8c-3.1,0-3.1,0-3.1-3.1C163.7,227.9,163.7,214.1,166.8,205
			C163.7,205,166.8,205,166.8,205z"/>
		<path fill="#FFCC00" d="M172.9,205c0,15.3,0,27.5,0,42.8c-3.1,0-3.1,0-3.1-3.1C166.8,234,169.8,214.1,172.9,205z"/>
		<path fill="#E30613" d="M175.9,205c0,12.2,0,39.8,0,42.8h-3.1C172.9,234,172.9,220.3,175.9,205z"/>
		<path fill="#FFCC00" d="M160.6,205c0,12.2,0,24.5,0,36.7c-6.1-6.1-3.1-18.4-3.1-27.5V205H160.6L160.6,205z"/>
		<path fill="#FFCC00" d="M182.1,205c0,15.3,0,27.5,0,42.8c0,0,0,0-3.1,0C175.9,234,179,220.3,182.1,205z"/>
		<path fill="#E30613" d="M185.1,209.6c0,12.2,0,21.4,0,33.7H182c0-12.2,0-27.5,0-39.8C185.1,205,185.1,209.6,185.1,209.6z"/>
		<path fill="#E30613" d="M240.2,205c0,12.2,0,24.5-3.1,33.7c-6.1,9.2-18.4,9.2-24.5,6.1h3.1c0,0,0,3.1,3.1,3.1s6.1-3.1,6.1,0
			c3.1,0,3.1,0,6.1-3.1v-6.1c3.1,0,0-3.1,3.1-6.1c0,0,0-3.1,3.1-3.1c0,0-3.1,0-3.1-3.1v-3.1c3.1-3.1-3.1-9.2,0-12.2
			c0,0,0-3.1-3.1-3.1h-3v-3.1c-3.1,0-6.1,0-6.1,0c-3.1,0-3.1-3.1-6.1,0c0,0-3.1,0-6.1,0c0-3.1,6.1,0,6.1-3.1L240.2,205z"/>
		<path fill="#FFED00" d="M215.7,209.6L215.7,209.6z"/>
		<path fill="#FFED00" d="M231,209.6L231,209.6z"/>
		<path fill="#FFED00" d="M224.9,209.6L224.9,209.6C224.9,209.6,221.9,209.6,224.9,209.6C221.9,209.6,221.9,209.6,224.9,209.6
			C221.9,209.6,224.9,209.6,224.9,209.6z"/>
		<path fill="#FFED00" d="M237.1,209.6L237.1,209.6z"/>
		<path fill="#D0D0D0" d="M139.2,234H130c0-6.1,0-12.2,0-15.3l12.2-3.1C142.3,220.3,142.3,224.9,139.2,234z"/>
		<path fill="#E30613" d="M228,209.6c3.1,0,3.1,0,6.1,0C234.1,209.6,231,212.6,228,209.6C231,212.6,231,212.6,228,209.6l-3.1,3.1
			c0,3.1,3.1,3.1,0,3.1v-3.1C228,212.6,224.9,209.6,228,209.6C221.9,209.6,224.9,209.6,228,209.6z"/>
		<path fill="#E30613" d="M218.8,212.6c0-3.1-3.1,0-6.1-3.1C215.7,209.6,218.8,209.6,218.8,212.6L218.8,212.6z"/>
		<path fill="#E30613" d="M212.7,212.6C212.7,212.6,212.7,214.1,212.7,212.6c3.1,0,0,6.1,3.1,3.1L212.7,212.6c0,3.1,0,6.1-3.1,6.1
			v-3.1C212.7,214.1,212.7,212.6,212.7,212.6z"/>
		<path fill="#FFCC00" d="M191.2,214.1c0,9.2,0,18.4,0,24.5l-3.1,3.1C188.2,235.6,188.2,224.9,191.2,214.1z"/>
		<path fill="#E30613" d="M237.1,212.6C237.1,212.6,234.1,212.6,237.1,212.6c-3.1,3.1-3.1,3.1-3.1,6.1s3.1,0,3.1,0H234
			c0,0,0,0,0-3.1h-3C234.1,212.6,237.1,212.6,237.1,212.6C234.1,212.6,234.1,209.6,237.1,212.6z"/>
		<path fill="#D0D0D0" d="M267.8,214.1c0,6.1,0,9.2,0,15.3c-3.1,0-6.1,0-9.2,0c0-6.1,0-12.2,0-18.4
			C261.6,212.6,264.7,212.6,267.8,214.1z"/>
		<path fill="#FFED00" d="M221.9,214.1L221.9,214.1C221.9,212.6,221.9,212.6,221.9,214.1z"/>
		<path fill="#FFED00" d="M215.7,214.1L215.7,214.1C212.7,214.1,215.7,214.1,215.7,214.1z"/>
		<path fill="#E30613" d="M127,224.9C127,224.9,123.9,220.3,127,224.9L127,224.9z"/>
		<path fill="#FFED00" d="M209.6,214.1L209.6,214.1z"/>
		<path fill="#FFED00" d="M231,214.1C228,214.1,228,214.1,231,214.1C228,214.1,228,214.1,231,214.1z"/>
		<path fill="#FFED00" d="M237.1,220.3L237.1,220.3C237.1,214.1,237.1,214.1,237.1,220.3z"/>
		<path fill="#E30613" d="M221.9,220.3l-3.1-3.1L221.9,220.3z"/>
		<path fill="#E30613" d="M194.3,220.3c0,6.1,0,12.2,0,21.4l-3.1,3.1C191.2,234,191.2,224.9,194.3,220.3z"/>
		<path fill="#E30613" d="M206.6,214.1c3.1,3.1-6.1,3.1-3.1,6.1c-3.1,0-3.1,3.1-3.1,3.1s0,3.1,3.1,3.1h3.1l-3.1,3.1
			c0,3.1,3.1,3.1,6.1,0v3.1c-6.1-3.1-12.2-3.1-12.2-12.2v-12.2C203.5,220.3,203.5,214.1,206.6,214.1z"/>
		<path fill="#FFCC00" d="M197.4,220.3c0,6.1,0,12.2-3.1,15.3C197.4,227.9,197.4,224.9,197.4,220.3z"/>
		<path fill="#FFED00" d="M228,224.9C224.9,224.9,228,220.3,228,224.9C228,220.3,228,224.9,228,224.9z"/>
		<path fill="#FFED00" d="M218.8,224.9L218.8,224.9L218.8,224.9z"/>
		<path fill="#FFED00" d="M215.7,224.9L215.7,224.9z"/>
		<polygon fill="#E30613" points="276.9,224.9 273.9,227.9 273.9,224.9 273.9,220.3 		"/>
		<path fill="#FFED00" d="M209.6,224.9C206.6,224.9,206.6,224.9,209.6,224.9C206.6,224.9,209.6,224.9,209.6,224.9z"/>
		<path fill="#E30613" d="M212.7,224.9L212.7,224.9c0,3.1,3.1,3.1,3.1,3.1s0,0,3.1,0v3.1h-3.1c-3.1,0-3.1,3.1-3.1,6.1l-3.1,3.1
			c0,0-3.1,0-3.1-3.1c3.1,0,0-3.1,0-6.1C209.6,224.9,212.7,224.9,212.7,224.9z"/>
		<path fill="#FFED00" d="M231,224.9L231,224.9z"/>
		<path fill="#E30613" d="M234.1,224.9C237.1,224.9,234.1,224.9,234.1,224.9S237.1,224.9,234.1,224.9
			C234.1,224.9,234.1,227.9,234.1,224.9c0,3.1,0,3.1,0,6.1c0-3.1-3.1-6.1-6.1-3.1c-3.1,0-3.1-3.1,0-3.1
			C228,227.9,231,224.9,234.1,224.9z"/>
		<path fill="#E30613" d="M221.9,227.9C221.9,234,218.8,227.9,221.9,227.9L221.9,227.9L221.9,227.9z"/>
		<path fill="#FFED00" d="M206.6,227.9L206.6,227.9z"/>
		<path fill="#E30613" d="M224.9,227.9L224.9,227.9C224.9,227.9,221.9,227.9,224.9,227.9z"/>
		<path fill="#FFED00" d="M209.6,227.9L209.6,227.9z"/>
		<path fill="#FFED00" d="M215.7,234C215.7,234,215.7,227.9,215.7,234C218.8,227.9,215.7,227.9,215.7,234z"/>
		<path fill="#FFED00" d="M231,234L231,234C231,234,228,227.9,231,234C231,227.9,231,227.9,231,234z"/>
		<path fill="#FFED00" d="M237.1,234C234.1,227.9,237.1,227.9,237.1,234z"/>
		<path fill="#FFCC00" d="M139.2,235.6H130v-3.1C133.1,235.6,139.2,234,139.2,235.6z"/>
		<path fill="#E30613" d="M218.8,240.2L218.8,240.2C221.9,240.2,221.9,240.2,218.8,240.2c3.1,0-3.1,0-3.1,0h-3.1c0,0,0,0,0-3.1
			l3.1-3.1c3.1,0,3.1-3.1,3.1-3.1C218.8,235.6,218.8,235.6,218.8,240.2z"/>
		<polygon fill="#FFED00" points="221.9,235.6 221.9,235.6 221.9,234 		"/>
		<path fill="#E30613" d="M228,235.6c3.1-3.1,3.1,0,3.1,0C228,234,228,240.2,228,235.6c-3.1,3.1-3.1,0-6.1,0
			C221.9,240.2,224.9,240.2,228,235.6C224.9,234,228,235.6,228,235.6z"/>
		<path fill="#E30613" d="M234.1,235.6L234.1,235.6C234.1,234,234.1,234,234.1,235.6z"/>
		<path fill="#FFCC00" d="M267.8,235.6h-9.2v-3.1C261.6,234,264.7,235.6,267.8,235.6z"/>
		<path fill="#FFED00" d="M209.6,235.6C209.6,240.2,209.6,240.2,209.6,235.6C206.6,240.2,209.6,235.6,209.6,235.6z"/>
		<path fill="#FFCC00" d="M145.3,240.2c-6.1,0-12.2,0-18.4,0v-3.1C133.1,235.6,139.2,235.6,145.3,240.2L145.3,240.2z"/>
		<path fill="#FFCC00" d="M270.8,240.2L270.8,240.2l-18.4,3.1v-3.1C258.6,240.2,264.7,240.2,270.8,240.2z"/>
		<path fill="#FFED00" d="M215.7,240.2L215.7,240.2z"/>
		<path fill="#FFED00" d="M231,240.2L231,240.2C228,240.2,231,240.2,231,240.2z"/>
		<path fill="#FFED00" d="M221.9,240.2C224.9,240.2,221.9,243.2,221.9,240.2z"/>
		<path fill="#A51008" d="M237.1,148.4L237.1,148.4C237.1,143.8,240.2,148.4,237.1,148.4z"/>
		<path fill="#A51008" d="M160.6,148.4L160.6,148.4C160.6,143.8,163.7,148.4,160.6,148.4z"/>
		<path fill="#FFFFFF" d="M172.9,120.8C172.9,120.8,175.9,120.8,172.9,120.8C175.9,117.8,172.9,117.8,172.9,120.8
			C172.9,117.8,172.9,117.8,172.9,120.8z"/>
		<polygon fill="#1D1D1B" points="172.9,120.8 172.9,122.4 172.9,122.4 175.9,122.4 179,120.8 175.9,117.8 172.9,117.8 172.9,117.8 
			172.9,120.8 175.9,122.4 179,120.8 175.9,117.8 172.9,114.7 169.8,117.8 169.8,120.8 175.9,120.8 175.9,117.8 175.9,117.8 
			172.9,114.7 169.8,117.8 169.8,117.8 169.8,120.8 169.8,120.8 169.8,122.4 172.9,122.4 172.9,120.8 175.9,120.8 175.9,117.8 
			175.9,117.8 172.9,114.7 169.8,117.8 169.8,117.8 169.8,120.8 169.8,120.8 175.9,120.8 175.9,120.8 175.9,120.8 175.9,120.8 
			175.9,120.8 175.9,120.8 175.9,120.8 172.9,120.8 172.9,120.8 175.9,120.8 172.9,120.8 172.9,120.8 172.9,117.8 172.9,120.8 
			172.9,120.8 172.9,117.8 172.9,120.8 172.9,120.8 169.8,120.8 172.9,120.8 172.9,120.8 169.8,120.8 172.9,120.8 169.8,117.8 
			169.8,120.8 172.9,120.8 169.8,117.8 169.8,117.8 172.9,122.4 172.9,122.4 175.9,122.4 179,120.8 175.9,117.8 172.9,117.8 
			172.9,117.8 172.9,120.8 175.9,120.8 		"/>
		<path fill="#FFFFFF" d="M163.7,120.8C166.8,120.8,166.8,120.8,163.7,120.8C166.8,117.8,166.8,117.8,163.7,120.8
			C163.7,117.8,163.7,117.8,163.7,120.8z"/>
		<path fill="#FFFFFF" d="M160.6,122.4C160.6,122.4,163.7,122.4,160.6,122.4C163.7,120.8,160.6,120.8,160.6,122.4
			C160.6,120.8,157.6,120.8,160.6,122.4C157.6,122.4,160.6,122.4,160.6,122.4z"/>
		<path fill="#FFFFFF" d="M157.6,128.5C157.6,128.5,157.6,122.4,157.6,128.5C157.6,122.4,157.6,122.4,157.6,128.5
			C157.6,122.4,154.5,122.4,157.6,128.5C154.5,122.4,157.6,128.5,157.6,128.5z"/>
		<path fill="#FFFFFF" d="M154.5,142.2L154.5,142.2C154.5,136.1,154.5,136.1,154.5,142.2C151.5,136.1,151.5,136.1,154.5,142.2
			C151.5,142.2,151.5,142.2,154.5,142.2z"/>
		<path fill="#FFFFFF" d="M151.5,133.1C154.5,133.1,154.5,133.1,151.5,133.1C154.5,133.1,154.5,133.1,151.5,133.1z"/>
		<polygon fill="#1D1D1B" points="151.5,133.1 151.5,136.1 154.5,136.1 157.6,136.1 157.6,133.1 157.6,128.5 154.5,128.5 
			151.5,128.5 151.5,136.1 154.5,136.1 157.6,136.1 157.6,133.1 157.6,128.5 154.5,128.5 151.5,128.5 151.5,136.1 151.5,133.1 
			151.5,136.1 154.5,136.1 157.6,136.1 157.6,133.1 157.6,128.5 154.5,128.5 151.5,128.5 151.5,136.1 154.5,136.1 157.6,136.1 
			157.6,133.1 157.6,128.5 154.5,128.5 151.5,128.5 151.5,136.1 		"/>
		<path fill="#FFFFFF" d="M151.5,133.1C154.5,133.1,154.5,133.1,151.5,133.1C154.5,133.1,154.5,128.5,151.5,133.1
			C151.5,128.5,151.5,133.1,151.5,133.1z"/>
		<path fill="#FFFFFF" d="M179,120.8L179,120.8C179,117.8,179,117.8,179,120.8C175.9,117.8,175.9,117.8,179,120.8
			C175.9,120.8,175.9,120.8,179,120.8z"/>
		<path fill="#FFFFFF" d="M182.1,117.8C182.1,117.8,185.1,117.8,182.1,117.8C185.1,117.8,182.1,117.8,182.1,117.8
			S179,117.8,182.1,117.8C179,117.8,182.1,117.8,182.1,117.8z"/>
		<path fill="#FFFFFF" d="M191.2,117.8L191.2,117.8C191.2,114.7,191.2,114.7,191.2,117.8C188.2,114.7,188.2,114.7,191.2,117.8
			C188.2,117.8,188.2,117.8,191.2,117.8z"/>
		<path fill="#FFFFFF" d="M200.4,122.4C200.4,122.4,203.5,122.4,200.4,122.4C203.5,120.8,200.4,120.8,200.4,122.4
			C200.4,120.8,197.4,120.8,200.4,122.4C197.4,122.4,200.4,122.4,200.4,122.4z"/>
		<path fill="#1D1D1B" d="M160.6,142.2c-1.5-4.6-1.5-7.6-1.5-10.7C157.6,134.6,159.1,137.7,160.6,142.2z"/>
		<path fill="#1D1D1B" d="M160.6,142.2C157.6,136.1,157.6,142.2,160.6,142.2L160.6,142.2z"/>
		<path fill="#1D1D1B" d="M165.2,116.2L165.2,116.2l-4.6,1.5l-3.1,3.1h-3.1v1.5l0,0v3.1v1.5v1.5h-3.1h-3.1v4.6v3.1v1.5v3.1v1.5v1.5
			h3.1h3.1h3.1h3.1h-3.1l0,0c0-3.1,0-3.1,0-3.1V136v-1.5V133v-3.1h1.5v1.5c0,0,0-1.5,1.5-1.5h1.5v-1.5l1.5-1.5h1.5l3.1-4.6h1.5v-1.5
			v-3.1L165.2,116.2L165.2,116.2z"/>
		<polygon fill="#1D1D1B" points="194.3,117.8 194.3,114.7 191.2,111.6 189.7,113.2 188.2,111.6 185.1,114.7 182.1,114.7 179,114.7 
			175.9,117.8 172.9,117.8 172.9,120.8 172.9,122.4 175.9,122.4 182.1,128.5 182.1,122.4 182.1,120.8 185.1,120.8 188.2,120.8 
			194.3,126.9 194.3,122.4 194.3,120.8 		"/>
		<polygon fill="#1D1D1B" points="206.6,120.8 203.5,120.8 200.4,117.8 197.4,120.8 194.3,120.8 194.3,122.4 194.3,122.4 
			197.4,126.9 200.4,126.9 203.5,126.9 206.6,122.4 206.6,122.4 		"/>
		<path fill="#FFFFFF" d="M209.6,117.8C209.6,117.8,212.7,117.8,209.6,117.8C212.7,114.7,209.6,114.7,209.6,117.8
			C209.6,114.7,209.6,114.7,209.6,117.8z"/>
		<path fill="#FFFFFF" d="M218.8,117.8L218.8,117.8C218.8,117.8,218.8,114.7,218.8,117.8C215.7,114.7,215.7,117.8,218.8,117.8
			C215.7,117.8,215.7,117.8,218.8,117.8z"/>
		<path fill="#FFFFFF" d="M224.9,120.8C228,120.8,228,120.8,224.9,120.8C228,117.8,228,117.8,224.9,120.8
			C224.9,117.8,224.9,117.8,224.9,120.8z"/>
		<path fill="#FFFFFF" d="M234.1,122.4C237.1,122.4,237.1,120.8,234.1,122.4C237.1,120.8,237.1,120.8,234.1,122.4
			C234.1,120.8,234.1,120.8,234.1,122.4C234.1,120.8,234.1,122.4,234.1,122.4z"/>
		<path fill="#FFFFFF" d="M243.3,128.5L243.3,128.5C243.3,122.4,243.3,122.4,243.3,128.5C240.2,122.4,240.2,122.4,243.3,128.5
			C240.2,128.5,240.2,128.5,243.3,128.5z"/>
		<path fill="#FFFFFF" d="M246.3,133.1C246.3,133.1,249.4,133.1,246.3,133.1C249.4,133.1,246.3,133.1,246.3,133.1
			S243.3,133.1,246.3,133.1C243.3,133.1,246.3,133.1,246.3,133.1z"/>
		<path fill="#1D1D1B" d="M249.4,128.5h-3.1c0-3.1,0-3.1,0-3.1v-3.1h-3.1l-3.1-3.1h-1.5l-1.5-1.5l-1.5,1.5l-1.5-1.5l-3.1,3.1v-3.1
			l-3.1-3.1l-1.5,1.5l-1.5-1.5l-3.1,3.1v-3.1h-3.1h-3.1h-3.1l-3.1-3.1l-3.1,3.1v3.1v3.1h3.1h3.1h3.1l6.1,6.1v1.5l6.1-6.1h3.1v4.6
			v6.1l6.1-6.1l0,0l0,0l0,0v3.1v3.1h3.1l3.1,3.1h3.1h3.1l3.1-3.1L249.4,128.5z"/>
		<path fill="#FFFFFF" d="M246.3,136.1C246.3,136.1,249.4,136.1,246.3,136.1C249.4,133.1,246.3,133.1,246.3,136.1
			C246.3,133.1,246.3,133.1,246.3,136.1z"/>
		<polygon fill="#1D1D1B" points="246.3,136.1 246.3,137.7 246.3,137.7 249.4,137.7 252.4,136.1 249.4,133.1 246.3,133.1 
			246.3,133.1 246.3,136.1 249.4,137.7 252.4,133.1 249.4,133.1 246.3,128.5 243.3,133.1 243.3,136.1 249.4,136.1 249.4,133.1 
			249.4,133.1 246.3,128.5 243.3,133.1 243.3,133.1 243.3,136.1 243.3,136.1 243.3,137.7 246.3,137.7 246.3,136.1 249.4,136.1 
			249.4,133.1 249.4,133.1 246.3,128.5 243.3,133.1 243.3,133.1 243.3,136.1 243.3,136.1 249.4,136.1 249.4,136.1 249.4,136.1 
			249.4,136.1 249.4,136.1 249.4,136.1 249.4,136.1 246.3,136.1 246.3,136.1 249.4,136.1 246.3,136.1 246.3,136.1 246.3,133.1 
			246.3,136.1 246.3,136.1 246.3,133.1 246.3,136.1 246.3,133.1 243.3,133.1 246.3,136.1 246.3,133.1 243.3,133.1 246.3,133.1 
			243.3,133.1 243.3,133.1 246.3,133.1 243.3,133.1 243.3,133.1 246.3,137.7 246.3,137.7 249.4,137.7 252.4,136.1 249.4,133.1 
			246.3,133.1 246.3,133.1 246.3,136.1 249.4,136.1 		"/>
		<path fill="#E30613" d="M200.4,189.7c-6.1,0-12.2,6.1-12.2,15.3c0,9.2,6.1,15.3,12.2,15.3s12.2-6.1,12.2-15.3
			C212.7,194.3,209.6,189.7,200.4,189.7z"/>
		<path fill="#FFCC00" d="M197.4,205C197.4,205,197.4,203.4,197.4,205C197.4,203.4,200.4,203.4,197.4,205c3.1,0,3.1-3.1,3.1-3.1
			C197.4,197.3,197.4,203.4,197.4,205C197.4,203.4,197.4,203.4,197.4,205l-3.1-6.1c0,0,0,3.1-3.1,3.1
			C194.3,197.3,194.3,203.4,197.4,205c0-3.1-3.1-3.1-3.1-3.1v3.1C191.2,203.4,194.3,203.4,197.4,205
			C194.3,203.4,194.3,205,197.4,205z"/>
		<polygon fill="#FFCC00" points="197.4,205 197.4,205 194.3,205 		"/>
		<polygon fill="#1D1D1B" points="197.4,205 197.4,203.4 194.3,203.4 194.3,209.6 197.4,209.6 197.4,203.4 197.4,205 197.4,203.4 
			194.3,203.4 194.3,209.6 197.4,209.6 197.4,203.4 		"/>
		<polygon fill="#FFCC00" points="194.3,205 194.3,205 197.4,205 		"/>
		<polygon fill="#1D1D1B" points="194.3,205 194.3,209.6 197.4,209.6 197.4,203.4 194.3,203.4 194.3,209.6 194.3,205 194.3,209.6 
			197.4,209.6 197.4,203.4 194.3,203.4 194.3,209.6 		"/>
		<polygon fill="#FFED00" points="203.5,209.6 203.5,209.6 200.4,209.6 		"/>
		<polygon fill="#1D1D1B" points="203.5,209.6 203.5,205 200.4,205 200.4,212.6 203.5,212.6 203.5,205 203.5,209.6 203.5,205 
			200.4,205 200.4,212.6 203.5,212.6 203.5,205 		"/>
		<polygon fill="#FFCC00" points="200.4,209.6 200.4,209.6 200.4,212.6 200.4,209.6 203.5,209.6 		"/>
		<path fill="#FFCC00" d="M206.6,205C206.6,205,206.6,203.4,206.6,205C206.6,203.4,209.6,203.4,206.6,205c3.1,0,3.1-3.1,3.1-3.1
			C206.6,197.3,206.6,203.4,206.6,205C206.6,203.4,206.6,203.4,206.6,205l-3.1-6.1c0,0,0,3.1-3.1,3.1
			C203.5,197.3,203.5,203.4,206.6,205c0-3.1-3.1-3.1-3.1-3.1v3.1C200.4,203.4,203.5,203.4,206.6,205
			C203.5,203.4,203.5,205,206.6,205z"/>
		<polygon fill="#1D1D1B" points="209.6,198.9 206.6,195.8 203.5,192.7 203.5,194.3 200.4,189.7 200.4,198.9 197.4,195.8 
			194.3,192.7 192.8,194.3 191.2,192.7 191.2,195.8 188.2,198.9 185.1,205 191.2,205 191.2,208 197.4,214.1 197.4,212.6 
			200.4,212.6 200.4,214.1 200.4,212.6 203.5,212.6 203.5,211.1 206.6,214.1 206.6,208 208.1,208 209.6,214.1 209.6,206.5 
			212.7,205 212.7,201.9 212.7,198.9 		"/>
		<polygon fill="#FFCC00" points="206.6,205 206.6,205 203.5,205 		"/>
		<polygon fill="#1D1D1B" points="206.6,205 206.6,203.4 203.5,203.4 203.5,209.6 206.6,209.6 206.6,203.4 206.6,205 206.6,203.4 
			203.5,203.4 203.5,209.6 206.6,209.6 206.6,203.4 		"/>
		<polygon fill="#FFCC00" points="203.5,205 203.5,205 206.6,205 		"/>
		<polygon fill="#1D1D1B" points="203.5,205 203.5,209.6 206.6,209.6 206.6,203.4 203.5,203.4 203.5,209.6 203.5,205 203.5,209.6 
			206.6,209.6 206.6,203.4 203.5,203.4 203.5,209.6 		"/>
		<path fill="#E30613" d="M237.1,166.7v6.1C234.1,174.4,237.1,166.7,237.1,166.7z"/>
		<path fill="#D0D0D0" d="M200.4,240.2c0,0,6.1,12.2,24.5,9.2c0,0-15.3,6.1-24.5,6.1c-15.3,0-21.4-3.1-21.4-3.1
			S194.3,244.8,200.4,240.2z"/>
		<polyline fill="#FFCC00" points="175.9,194.3 175.9,194.3 163.7,194.3 166.8,194.3 166.8,182 163.7,182 163.7,179 166.8,179 
			163.7,179 163.7,174.4 172.9,174.4 172.9,179 169.8,179 172.9,179 175.9,179 175.9,172.8 175.9,166.7 182.1,166.7 182.1,172.8 
			179,172.8 179,179 182.1,179 185.1,179 185.1,174.4 191.2,174.4 191.2,179 188.2,179 188.2,189.7 191.2,189.7 188.2,194.3 
			179,194.3 		"/>
		<path fill="#009640" d="M221.9,224.9C221.9,224.9,218.8,224.9,221.9,224.9C218.8,227.9,221.9,227.9,221.9,224.9
			C221.9,224.9,224.9,224.9,221.9,224.9C224.9,224.9,221.9,224.9,221.9,224.9z"/>
		<path fill="#1D1D1B" d="M185.1,183.5L185.1,183.5C185.1,182,185.1,182,185.1,183.5c-3.1,0-3.1,0-3.1,0s0,0,0,3.1L185.1,183.5z
			 M185.1,183.5L185.1,183.5C182.1,183.5,182.1,183.5,185.1,183.5z"/>
		<path fill="#1D1D1B" d="M172.9,183.5L172.9,183.5C172.9,182,169.8,182,172.9,183.5c-3.1,0-3.1,0-3.1,0s0,0,0,3.1L172.9,183.5z
			 M172.9,183.5L172.9,183.5C169.8,183.5,169.8,183.5,172.9,183.5C169.8,183.5,169.8,183.5,172.9,183.5
			C169.8,183.5,169.8,183.5,172.9,183.5z"/>
	</g>
	<g>
		<path fill="#CCCCCC" d="M608.9,3v345.8H3.1V3H608.9 M612,0H0v351.9h612V0L612,0z"/>
	</g>
</g>
</svg>
