<?xml version="1.0" encoding="utf-8"?>
<!-- Generator: Adobe Illustrator 17.1.0, SVG Export Plug-In . SVG Version: 6.00 Build 0)  -->
<!DOCTYPE svg PUBLIC "-//W3C//DTD SVG 1.1//EN" "http://www.w3.org/Graphics/SVG/1.1/DTD/svg11.dtd">
<svg version="1.1" id="Layer_1" xmlns="http://www.w3.org/2000/svg" xmlns:xlink="http://www.w3.org/1999/xlink" x="0px" y="0px"
	 viewBox="0 0 40 23" enable-background="new 0 0 40 23" xml:space="preserve">
<g>
	<polygon fill-rule="evenodd" clip-rule="evenodd" fill="#0033A0" points="0,0 40,0 40,7.7 0,7.7 0,0 	"/>
	<polygon fill-rule="evenodd" clip-rule="evenodd" fill="#F7323F" points="0,7.7 40,7.7 40,15.3 0,15.3 0,7.7 	"/>
	<polygon fill-rule="evenodd" clip-rule="evenodd" fill="#009944" points="0,15.3 40,15.3 40,23 0,23 0,15.3 	"/>
</g>
<path fill-rule="evenodd" clip-rule="evenodd" fill="#F9DE0B" d="M14.5,0c4.3,0,7.7,3.5,7.7,7.7s-3.5,7.7-7.7,7.7
	c-4.3,0-7.7-3.5-7.7-7.7S10.2,0,14.5,0L14.5,0z"/>
<path fill-rule="evenodd" clip-rule="evenodd" fill="#1D1D1B" d="M12.8,12c0.1-1.2,0.6-2,1.7-2c0.8,0.1,1.3,0.8,1.5,1.8
	c0.1-0.7-0.1-2.2-1.1-2.2h-1.1C12.9,9.6,12.7,11.3,12.8,12L12.8,12L12.8,12z M13.9,7.8h1c0.4,0,0.7,0.3,0.7,0.7l0,0
	c0,0.4-0.3,0.7-0.7,0.7h-1c-0.4,0-0.7-0.3-0.7-0.7l0,0C13.2,8.1,13.5,7.8,13.9,7.8L13.9,7.8z M17,14.8c-0.8,0.3-1.7,0.4-2.5,0.4
	c-0.9,0-1.8-0.2-2.6-0.4c0.4-1.1,1.4-1.8,2.6-1.8C15.7,13,16.7,13.8,17,14.8L17,14.8z M14.9,12.8l-0.9,0c0,0,0-0.1-0.1-0.3
	c-0.1-0.1-0.2-0.3-0.3-0.4c-0.3-0.3-0.4-1.2-0.1-1.5c0.5-0.6,2-0.4,1.9,0.6c0,0.2-0.1,0.7-0.5,1.2C14.9,12.5,14.9,12.6,14.9,12.8
	L14.9,12.8z M12.8,4.9C13,5,13.1,5.5,13.5,6.3C13.7,7,14.7,6.9,15,6.8c0.2,0,0.3-0.2,0.4-0.3c0.1-0.2,0.2-0.4,0.2-0.8
	C15.7,5,16,4.9,16.1,4.9c0.1,0,0,0.1,0,0.1c0,0-0.1,0.1-0.1,0.1c-0.1,0.2-0.3,0.7-0.3,1.3c0,0.8-0.5,0.8-0.6,0.8c-0.1,0-1,0-1.4,0
	c-0.2,0-0.2,0-0.3-0.1c-0.2-0.1-0.3-0.4-0.4-0.9c0-0.6-0.2-1.1-0.3-1.2C12.7,5,12.7,4.8,12.8,4.9L12.8,4.9z M13,7.5h0.3V7.4h2.3v0.1
	h0.3v0.1h-0.3v0.1h-2.3V7.6L13,7.5L13,7.5L13,7.5z M13.3,9.3h2.3v0.2h-2.3V9.3L13.3,9.3z M14.4,0h0.2v1.7c0.3-0.1,0.5-0.2,0.7-0.4
	c0,0.4-0.3,0.8-0.7,1.2v1.8c0.7,0.4,1.1,1.4,0.5,2.1c-0.3,0.4-1,0.4-1.3-0.2c-0.3-0.5-0.3-1.4,0.6-1.9V2.7c-0.3,0.2-0.6,0.4-1,0.5
	l0-0.7c0,0,0-0.4,0.6-0.6c0.1-0.1,0.3-0.1,0.4-0.1V0L14.4,0z"/>
<g>
	<path fill="#CCCCCC" d="M39.8,0.2v22.5H0.2V0.2H39.8 M40,0H0v23h40V0L40,0z"/>
</g>
</svg>
