<?xml version="1.0" encoding="utf-8"?>
<!-- Generator: Adobe Illustrator 17.1.0, SVG Export Plug-In . SVG Version: 6.00 Build 0)  -->
<!DOCTYPE svg PUBLIC "-//W3C//DTD SVG 1.1//EN" "http://www.w3.org/Graphics/SVG/1.1/DTD/svg11.dtd">
<svg version="1.1" id="Layer_1" xmlns="http://www.w3.org/2000/svg" xmlns:xlink="http://www.w3.org/1999/xlink" x="0px" y="0px"
	 viewBox="0 0 40 23" enable-background="new 0 0 40 23" xml:space="preserve">
<g>
	<g>
		<defs>
			<rect id="SVGID_1_" x="0" y="0" width="40" height="23"/>
		</defs>
		<clipPath id="SVGID_2_">
			<use xlink:href="#SVGID_1_"  overflow="visible"/>
		</clipPath>
		<rect x="0" y="0" clip-path="url(#SVGID_2_)" fill="#3C9242" width="40" height="23"/>
		<polygon clip-path="url(#SVGID_2_)" fill="#EDC226" points="6.2,11.5 20,20.2 33.8,11.5 20,2.8 		"/>
		<g clip-path="url(#SVGID_2_)">
			<defs>
				<rect id="SVGID_3_" x="0" y="0" width="40" height="23"/>
			</defs>
			<clipPath id="SVGID_4_">
				<use xlink:href="#SVGID_3_"  overflow="visible"/>
			</clipPath>
			<path clip-path="url(#SVGID_4_)" fill="#2D146E" d="M25.8,11.5c0,3.2-2.6,5.8-5.8,5.8c-3.2,0-5.8-2.6-5.8-5.8
				c0-3.2,2.6-5.7,5.8-5.7C23.2,5.8,25.8,8.3,25.8,11.5"/>
			<path clip-path="url(#SVGID_4_)" fill="#FFFFFF" d="M16.7,9c-0.7,0-1.3,0-2,0.1c-0.1,0.3-0.2,0.6-0.3,0.9
				c0.8-0.1,1.5-0.2,2.3-0.2c3.4,0,6.5,1.3,8.9,3.4c0.1-0.3,0.2-0.6,0.2-0.9C23.3,10.3,20.1,9,16.7,9"/>
			<path clip-path="url(#SVGID_4_)" fill-rule="evenodd" clip-rule="evenodd" fill="#3C9242" d="M15,9.8c0.1,0,0.2-0.2,0.2-0.3
				c0-0.1-0.1-0.3-0.3-0.2c-0.1,0-0.2,0.2-0.2,0.3C14.8,9.7,14.9,9.8,15,9.8 M15,9.7c0.1,0,0.1-0.1,0.1-0.2c0-0.1-0.1-0.2-0.2-0.2
				c-0.1,0-0.1,0.1-0.1,0.2C14.9,9.7,14.9,9.7,15,9.7"/>
			<path clip-path="url(#SVGID_4_)" fill-rule="evenodd" clip-rule="evenodd" fill="#3C9242" d="M15.5,9.8l0.1,0l0-0.2l0.2,0
				c0.1,0,0.2-0.1,0.2-0.2c0-0.1-0.1-0.2-0.2-0.2l-0.3,0L15.5,9.8z M15.6,9.5l0.2,0c0,0,0.1,0,0.1-0.1c0,0,0-0.1-0.1-0.1l-0.2,0
				L15.6,9.5z"/>
			<path clip-path="url(#SVGID_4_)" fill="#3C9242" d="M15.9,9.7c0-0.1,0-0.3-0.1-0.2l-0.2,0C15.8,9.5,15.8,9.7,15.9,9.7"/>
			<path clip-path="url(#SVGID_4_)" fill-rule="evenodd" clip-rule="evenodd" fill="#3C9242" d="M16.2,9.7l0.3,0
				c0.1,0,0.2-0.1,0.2-0.2l0-0.1c0-0.1-0.1-0.2-0.2-0.2l-0.3,0L16.2,9.7z M16.3,9.6l0.2,0c0.1,0,0.1-0.1,0.1-0.2l0,0
				c0-0.1-0.1-0.1-0.2-0.1l-0.2,0L16.3,9.6z"/>
			<polygon clip-path="url(#SVGID_4_)" fill="#3C9242" points="16.9,9.7 17.4,9.7 17.4,9.6 17,9.6 17,9.5 17.3,9.5 17.3,9.4 17,9.4 
				17,9.3 17.4,9.3 17.4,9.2 16.9,9.2 			"/>
			<polygon clip-path="url(#SVGID_4_)" fill="#3C9242" points="17.6,9.7 17.7,9.8 17.7,9.4 17.8,9.8 17.9,9.8 18,9.4 18,9.8 
				18.1,9.8 18.1,9.2 18,9.2 17.9,9.6 17.8,9.2 17.6,9.2 			"/>
			<polygon clip-path="url(#SVGID_4_)" fill="#3C9242" points="18.7,9.9 19.2,9.9 19.2,9.9 18.9,9.8 18.9,9.7 19.1,9.7 19.1,9.6 
				18.9,9.6 18.9,9.5 19.2,9.6 19.2,9.5 18.8,9.4 			"/>
			<path clip-path="url(#SVGID_4_)" fill-rule="evenodd" clip-rule="evenodd" fill="#3C9242" d="M19.8,10.1l0.1,0l0.1-0.2l0.2,0.1
				c0.1,0,0.2,0,0.2-0.1c0-0.1,0-0.2-0.1-0.2l-0.3-0.1L19.8,10.1z M20,9.8l0.2,0.1c0,0,0.1,0,0.1-0.1c0,0,0-0.1-0.1-0.1L20,9.7
				L20,9.8z"/>
			<path clip-path="url(#SVGID_4_)" fill-rule="evenodd" clip-rule="evenodd" fill="#3C9242" d="M20.5,10.3L20.5,10.3l0.2-0.2
				l0.2,0.1c0.1,0,0.2,0,0.2-0.1c0-0.1,0-0.2-0.1-0.2l-0.3-0.1L20.5,10.3z M20.7,10l0.2,0.1c0,0,0.1,0,0.1,0c0,0,0-0.1,0-0.1
				l-0.2-0.1L20.7,10z"/>
			<path clip-path="url(#SVGID_4_)" fill="#3C9242" d="M20.9,10.4c0-0.1,0.1-0.2,0-0.3l-0.1,0C20.9,10.1,20.9,10.3,20.9,10.4"/>
			<path clip-path="url(#SVGID_4_)" fill-rule="evenodd" clip-rule="evenodd" fill="#3C9242" d="M21.4,10.6c0.1,0,0.3,0,0.3-0.2
				c0.1-0.1,0-0.3-0.1-0.3c-0.1,0-0.3,0-0.3,0.2C21.2,10.4,21.3,10.5,21.4,10.6 M21.4,10.5c0.1,0,0.2,0,0.2-0.1c0-0.1,0-0.2-0.1-0.2
				c-0.1,0-0.2,0-0.2,0.1C21.3,10.3,21.3,10.4,21.4,10.5"/>
			<path clip-path="url(#SVGID_4_)" fill-rule="evenodd" clip-rule="evenodd" fill="#3C9242" d="M22,10.8c0.1,0.1,0.3,0,0.3-0.2
				c0.1-0.1,0-0.3-0.1-0.3c-0.1-0.1-0.3,0-0.3,0.2C21.9,10.6,21.9,10.8,22,10.8 M22.1,10.7c0.1,0,0.2,0,0.2-0.1c0-0.1,0-0.2-0.1-0.2
				c-0.1,0-0.2,0-0.2,0.1C22,10.6,22,10.7,22.1,10.7"/>
			
				<rect x="22.2" y="10.6" transform="matrix(-0.9197 -0.3926 0.3926 -0.9197 38.5608 29.2103)" clip-path="url(#SVGID_4_)" fill="#3C9242" width="0.2" height="0.1"/>
			
				<rect x="22.2" y="10.6" transform="matrix(-0.9222 -0.3867 0.3867 -0.9222 38.6733 29.3364)" clip-path="url(#SVGID_4_)" fill="#3C9242" width="0.1" height="0.3"/>
			<path clip-path="url(#SVGID_4_)" fill-rule="evenodd" clip-rule="evenodd" fill="#3C9242" d="M22.5,11L22.5,11l0.2-0.1l0.2,0.1
				c0.1,0,0.2,0,0.2-0.1c0-0.1,0-0.2-0.1-0.2l-0.3-0.1L22.5,11z M22.7,10.8l0.2,0.1c0,0,0.1,0,0.1,0c0,0,0-0.1,0-0.1l-0.2-0.1
				L22.7,10.8z"/>
			<path clip-path="url(#SVGID_4_)" fill="#3C9242" d="M22.9,11.2c0-0.1,0.1-0.2,0-0.3l-0.1-0.1C22.9,10.9,22.8,11.1,22.9,11.2"/>
			<polygon clip-path="url(#SVGID_4_)" fill="#3C9242" points="23.1,11.3 23.5,11.6 23.6,11.5 23.2,11.3 23.3,11.2 23.6,11.3 
				23.6,11.2 23.3,11.1 23.4,11 23.7,11.2 23.8,11.1 23.4,10.8 			"/>
			<path clip-path="url(#SVGID_4_)" fill="#3C9242" d="M23.9,11.6c0,0,0,0.1,0.1,0.1c0.1,0,0.1,0,0.1,0c0.1-0.1-0.3-0.2-0.2-0.4
				c0.1-0.1,0.3,0,0.3,0c0.1,0,0.2,0.1,0.1,0.2l-0.1-0.1c0,0,0-0.1-0.1-0.1c-0.1,0-0.1,0-0.1,0c-0.1,0.1,0.3,0.2,0.2,0.4
				c-0.1,0.1-0.2,0.1-0.3,0c-0.1,0-0.2-0.2-0.1-0.3L23.9,11.6z"/>
			<path clip-path="url(#SVGID_4_)" fill="#3C9242" d="M24.5,12c0,0,0,0.1,0.1,0.1c0.1,0,0.1,0,0.1,0c0.1-0.1-0.3-0.2-0.2-0.4
				c0.1-0.1,0.3,0,0.3,0c0.1,0,0.1,0.1,0.1,0.3l-0.1-0.1c0,0,0-0.1-0.1-0.1c0,0-0.1-0.1-0.1,0c-0.1,0.1,0.3,0.2,0.2,0.4
				c-0.1,0.1-0.2,0.1-0.3,0c-0.1-0.1-0.2-0.2-0.1-0.3L24.5,12z"/>
			<path clip-path="url(#SVGID_4_)" fill-rule="evenodd" clip-rule="evenodd" fill="#3C9242" d="M25.1,12.6c0.1,0.1,0.3,0.1,0.4-0.1
				c0.1-0.1,0.1-0.3,0-0.4c-0.1-0.1-0.3-0.1-0.4,0.1C24.9,12.4,24.9,12.5,25.1,12.6 M25.1,12.5c0.1,0,0.2,0,0.2,0
				c0.1-0.1,0.1-0.2,0-0.2c-0.1,0-0.2,0-0.2,0C25.1,12.4,25.1,12.5,25.1,12.5"/>
			<polygon clip-path="url(#SVGID_4_)" fill="#FFFFFF" points="15.2,10.2 15.2,10.5 15.3,10.5 			"/>
			<polygon clip-path="url(#SVGID_4_)" fill="#FFFFFF" points="15.2,10.2 15.3,10.5 15.2,10.5 			"/>
			<polygon clip-path="url(#SVGID_4_)" fill="#FFFFFF" points="15.5,10.4 15.2,10.4 15.2,10.5 			"/>
			<polygon clip-path="url(#SVGID_4_)" fill="#FFFFFF" points="15.5,10.4 15.3,10.5 15.2,10.4 			"/>
			<polygon clip-path="url(#SVGID_4_)" fill="#FFFFFF" points="15,10.4 15.2,10.5 15.3,10.4 			"/>
			<polygon clip-path="url(#SVGID_4_)" fill="#FFFFFF" points="15,10.4 15.3,10.4 15.3,10.5 			"/>
			<polygon clip-path="url(#SVGID_4_)" fill="#FFFFFF" points="15.4,10.7 15.3,10.4 15.2,10.5 			"/>
			<polygon clip-path="url(#SVGID_4_)" fill="#FFFFFF" points="15.4,10.7 15.2,10.5 15.3,10.4 			"/>
			<polygon clip-path="url(#SVGID_4_)" fill="#FFFFFF" points="15.1,10.7 15.3,10.5 15.2,10.4 			"/>
			<polygon clip-path="url(#SVGID_4_)" fill="#FFFFFF" points="15.1,10.7 15.2,10.4 15.3,10.5 			"/>
			<polygon clip-path="url(#SVGID_4_)" fill="#FFFFFF" points="15.8,12.6 15.7,12.9 15.8,12.9 			"/>
			<polygon clip-path="url(#SVGID_4_)" fill="#FFFFFF" points="15.8,12.6 15.8,12.9 15.7,12.9 			"/>
			<polygon clip-path="url(#SVGID_4_)" fill="#FFFFFF" points="16,12.8 15.7,12.8 15.7,12.9 			"/>
			<polygon clip-path="url(#SVGID_4_)" fill="#FFFFFF" points="16,12.8 15.8,13 15.7,12.9 			"/>
			<polygon clip-path="url(#SVGID_4_)" fill="#FFFFFF" points="15.5,12.8 15.7,13 15.8,12.9 			"/>
			<polygon clip-path="url(#SVGID_4_)" fill="#FFFFFF" points="15.5,12.8 15.8,12.8 15.8,12.9 			"/>
			<polygon clip-path="url(#SVGID_4_)" fill="#FFFFFF" points="15.9,13.1 15.8,12.8 15.7,12.9 			"/>
			<polygon clip-path="url(#SVGID_4_)" fill="#FFFFFF" points="15.9,13.1 15.7,12.9 15.8,12.8 			"/>
			<polygon clip-path="url(#SVGID_4_)" fill="#FFFFFF" points="15.6,13.1 15.8,12.9 15.7,12.8 			"/>
			<polygon clip-path="url(#SVGID_4_)" fill="#FFFFFF" points="15.6,13.1 15.7,12.8 15.8,12.9 			"/>
			<polygon clip-path="url(#SVGID_4_)" fill="#FFFFFF" points="15,13.2 15,13.4 15.1,13.4 			"/>
			<polygon clip-path="url(#SVGID_4_)" fill="#FFFFFF" points="15,13.2 15.1,13.4 15,13.4 			"/>
			<polygon clip-path="url(#SVGID_4_)" fill="#FFFFFF" points="15.2,13.3 15,13.3 15,13.4 			"/>
			<polygon clip-path="url(#SVGID_4_)" fill="#FFFFFF" points="15.2,13.3 15.1,13.4 15,13.4 			"/>
			<polygon clip-path="url(#SVGID_4_)" fill="#FFFFFF" points="14.9,13.3 15,13.4 15.1,13.4 			"/>
			<polygon clip-path="url(#SVGID_4_)" fill="#FFFFFF" points="14.9,13.3 15,13.3 15,13.4 			"/>
			<polygon clip-path="url(#SVGID_4_)" fill="#FFFFFF" points="15.1,13.5 15.1,13.4 15,13.4 			"/>
			<polygon clip-path="url(#SVGID_4_)" fill="#FFFFFF" points="15.1,13.5 15,13.4 15.1,13.4 			"/>
			<polygon clip-path="url(#SVGID_4_)" fill="#FFFFFF" points="14.9,13.5 15.1,13.4 15,13.4 			"/>
			<polygon clip-path="url(#SVGID_4_)" fill="#FFFFFF" points="14.9,13.5 15,13.4 15.1,13.4 			"/>
			<polygon clip-path="url(#SVGID_4_)" fill="#FFFFFF" points="16.3,12.4 16.3,12.5 16.3,12.5 			"/>
			<polygon clip-path="url(#SVGID_4_)" fill="#FFFFFF" points="16.3,12.4 16.4,12.5 16.3,12.5 			"/>
			<polygon clip-path="url(#SVGID_4_)" fill="#FFFFFF" points="16.4,12.5 16.3,12.5 16.3,12.6 			"/>
			<polygon clip-path="url(#SVGID_4_)" fill="#FFFFFF" points="16.4,12.5 16.3,12.6 16.3,12.5 			"/>
			<polygon clip-path="url(#SVGID_4_)" fill="#FFFFFF" points="16.2,12.5 16.3,12.6 16.3,12.5 			"/>
			<polygon clip-path="url(#SVGID_4_)" fill="#FFFFFF" points="16.2,12.5 16.3,12.5 16.3,12.6 			"/>
			<polygon clip-path="url(#SVGID_4_)" fill="#FFFFFF" points="16.4,12.6 16.4,12.5 16.3,12.5 			"/>
			<polygon clip-path="url(#SVGID_4_)" fill="#FFFFFF" points="16.4,12.6 16.3,12.6 16.3,12.5 			"/>
			<polygon clip-path="url(#SVGID_4_)" fill="#FFFFFF" points="16.3,12.6 16.4,12.6 16.3,12.5 			"/>
			<polygon clip-path="url(#SVGID_4_)" fill="#FFFFFF" points="16.3,12.6 16.3,12.5 16.3,12.5 			"/>
			<polygon clip-path="url(#SVGID_4_)" fill="#FFFFFF" points="17,13.2 16.9,13.4 17,13.5 			"/>
			<polygon clip-path="url(#SVGID_4_)" fill="#FFFFFF" points="17,13.2 17,13.4 16.9,13.5 			"/>
			<polygon clip-path="url(#SVGID_4_)" fill="#FFFFFF" points="17.2,13.4 17,13.4 17,13.5 			"/>
			<polygon clip-path="url(#SVGID_4_)" fill="#FFFFFF" points="17.2,13.4 17,13.5 16.9,13.4 			"/>
			<polygon clip-path="url(#SVGID_4_)" fill="#FFFFFF" points="16.8,13.4 16.9,13.5 17,13.4 			"/>
			<polygon clip-path="url(#SVGID_4_)" fill="#FFFFFF" points="16.8,13.4 17,13.4 17,13.5 			"/>
			<polygon clip-path="url(#SVGID_4_)" fill="#FFFFFF" points="17.1,13.6 17,13.4 16.9,13.5 			"/>
			<polygon clip-path="url(#SVGID_4_)" fill="#FFFFFF" points="17.1,13.6 16.9,13.5 17,13.4 			"/>
			<polygon clip-path="url(#SVGID_4_)" fill="#FFFFFF" points="16.8,13.6 17,13.5 17,13.4 			"/>
			<polygon clip-path="url(#SVGID_4_)" fill="#FFFFFF" points="16.8,13.6 16.9,13.4 17,13.5 			"/>
			<polygon clip-path="url(#SVGID_4_)" fill="#FFFFFF" points="16.8,13.8 16.7,14 16.8,14 			"/>
			<polygon clip-path="url(#SVGID_4_)" fill="#FFFFFF" points="16.8,13.8 16.9,14 16.8,14 			"/>
			<polygon clip-path="url(#SVGID_4_)" fill="#FFFFFF" points="17,14 16.8,14 16.8,14.1 			"/>
			<polygon clip-path="url(#SVGID_4_)" fill="#FFFFFF" points="17,14 16.8,14.1 16.8,14 			"/>
			<polygon clip-path="url(#SVGID_4_)" fill="#FFFFFF" points="16.6,14 16.8,14.1 16.8,14 			"/>
			<polygon clip-path="url(#SVGID_4_)" fill="#FFFFFF" points="16.6,14 16.8,14 16.8,14.1 			"/>
			<polygon clip-path="url(#SVGID_4_)" fill="#FFFFFF" points="16.9,14.2 16.9,14 16.8,14 			"/>
			<polygon clip-path="url(#SVGID_4_)" fill="#FFFFFF" points="16.9,14.2 16.7,14.1 16.8,14 			"/>
			<polygon clip-path="url(#SVGID_4_)" fill="#FFFFFF" points="16.7,14.2 16.8,14.1 16.8,14 			"/>
			<polygon clip-path="url(#SVGID_4_)" fill="#FFFFFF" points="16.7,14.2 16.7,14 16.8,14 			"/>
			<polygon clip-path="url(#SVGID_4_)" fill="#FFFFFF" points="21.8,9.5 21.7,9.7 21.9,9.7 			"/>
			<polygon clip-path="url(#SVGID_4_)" fill="#FFFFFF" points="21.8,9.5 21.9,9.7 21.8,9.7 			"/>
			<polygon clip-path="url(#SVGID_4_)" fill="#FFFFFF" points="22,9.6 21.8,9.6 21.8,9.8 			"/>
			<polygon clip-path="url(#SVGID_4_)" fill="#FFFFFF" points="22,9.6 21.8,9.8 21.8,9.7 			"/>
			<polygon clip-path="url(#SVGID_4_)" fill="#FFFFFF" points="21.6,9.6 21.8,9.8 21.8,9.7 			"/>
			<polygon clip-path="url(#SVGID_4_)" fill="#FFFFFF" points="21.6,9.6 21.8,9.6 21.8,9.8 			"/>
			<polygon clip-path="url(#SVGID_4_)" fill="#FFFFFF" points="22,9.9 21.9,9.7 21.8,9.7 			"/>
			<polygon clip-path="url(#SVGID_4_)" fill="#FFFFFF" points="22,9.9 21.8,9.8 21.8,9.7 			"/>
			<polygon clip-path="url(#SVGID_4_)" fill="#FFFFFF" points="21.7,9.9 21.9,9.8 21.8,9.7 			"/>
			<polygon clip-path="url(#SVGID_4_)" fill="#FFFFFF" points="21.7,9.9 21.7,9.7 21.9,9.7 			"/>
			<polygon clip-path="url(#SVGID_4_)" fill="#FFFFFF" points="24.1,13.3 24,13.5 24.1,13.5 			"/>
			<polygon clip-path="url(#SVGID_4_)" fill="#FFFFFF" points="24.1,13.3 24.2,13.5 24,13.5 			"/>
			<polygon clip-path="url(#SVGID_4_)" fill="#FFFFFF" points="24.3,13.4 24.1,13.4 24.1,13.6 			"/>
			<polygon clip-path="url(#SVGID_4_)" fill="#FFFFFF" points="24.3,13.4 24.1,13.6 24,13.5 			"/>
			<polygon clip-path="url(#SVGID_4_)" fill="#FFFFFF" points="23.8,13.4 24.1,13.6 24.1,13.5 			"/>
			<polygon clip-path="url(#SVGID_4_)" fill="#FFFFFF" points="23.8,13.4 24.1,13.4 24.1,13.6 			"/>
			<polygon clip-path="url(#SVGID_4_)" fill="#FFFFFF" points="24.2,13.7 24.2,13.5 24,13.5 			"/>
			<polygon clip-path="url(#SVGID_4_)" fill="#FFFFFF" points="24.2,13.7 24,13.6 24.1,13.5 			"/>
			<polygon clip-path="url(#SVGID_4_)" fill="#FFFFFF" points="23.9,13.7 24.1,13.6 24.1,13.5 			"/>
			<polygon clip-path="url(#SVGID_4_)" fill="#FFFFFF" points="23.9,13.7 24,13.5 24.1,13.5 			"/>
			<polygon clip-path="url(#SVGID_4_)" fill="#FFFFFF" points="24.9,13.4 24.8,13.6 24.9,13.6 			"/>
			<polygon clip-path="url(#SVGID_4_)" fill="#FFFFFF" points="24.9,13.4 24.9,13.6 24.9,13.6 			"/>
			<polygon clip-path="url(#SVGID_4_)" fill="#FFFFFF" points="25.1,13.5 24.9,13.5 24.9,13.6 			"/>
			<polygon clip-path="url(#SVGID_4_)" fill="#FFFFFF" points="25.1,13.5 24.9,13.6 24.9,13.6 			"/>
			<polygon clip-path="url(#SVGID_4_)" fill="#FFFFFF" points="24.7,13.5 24.9,13.6 24.9,13.6 			"/>
			<polygon clip-path="url(#SVGID_4_)" fill="#FFFFFF" points="24.7,13.5 24.9,13.5 24.9,13.6 			"/>
			<polygon clip-path="url(#SVGID_4_)" fill="#FFFFFF" points="25,13.7 24.9,13.5 24.9,13.6 			"/>
			<polygon clip-path="url(#SVGID_4_)" fill="#FFFFFF" points="25,13.7 24.9,13.6 24.9,13.5 			"/>
			<polygon clip-path="url(#SVGID_4_)" fill="#FFFFFF" points="24.8,13.7 24.9,13.6 24.9,13.5 			"/>
			<polygon clip-path="url(#SVGID_4_)" fill="#FFFFFF" points="24.8,13.7 24.9,13.5 24.9,13.6 			"/>
			<polygon clip-path="url(#SVGID_4_)" fill="#FFFFFF" points="24.3,13.8 24.3,14 24.4,14 			"/>
			<polygon clip-path="url(#SVGID_4_)" fill="#FFFFFF" points="24.3,13.8 24.4,14 24.3,14 			"/>
			<polygon clip-path="url(#SVGID_4_)" fill="#FFFFFF" points="24.5,14 24.3,14 24.3,14.1 			"/>
			<polygon clip-path="url(#SVGID_4_)" fill="#FFFFFF" points="24.5,14 24.4,14.1 24.3,14 			"/>
			<polygon clip-path="url(#SVGID_4_)" fill="#FFFFFF" points="24.1,14 24.3,14.1 24.4,14 			"/>
			<polygon clip-path="url(#SVGID_4_)" fill="#FFFFFF" points="24.1,14 24.3,14 24.3,14.1 			"/>
			<polygon clip-path="url(#SVGID_4_)" fill="#FFFFFF" points="24.4,14.2 24.4,14 24.3,14 			"/>
			<polygon clip-path="url(#SVGID_4_)" fill="#FFFFFF" points="24.4,14.2 24.3,14.1 24.3,14 			"/>
			<polygon clip-path="url(#SVGID_4_)" fill="#FFFFFF" points="24.2,14.2 24.4,14.1 24.3,14 			"/>
			<polygon clip-path="url(#SVGID_4_)" fill="#FFFFFF" points="24.2,14.2 24.3,14 24.4,14 			"/>
			<polygon clip-path="url(#SVGID_4_)" fill="#FFFFFF" points="22.9,15 22.9,15.2 23,15.3 			"/>
			<polygon clip-path="url(#SVGID_4_)" fill="#FFFFFF" points="22.9,15 23,15.2 22.9,15.3 			"/>
			<polygon clip-path="url(#SVGID_4_)" fill="#FFFFFF" points="23.1,15.2 22.9,15.2 22.9,15.3 			"/>
			<polygon clip-path="url(#SVGID_4_)" fill="#FFFFFF" points="23.1,15.2 23,15.3 22.9,15.2 			"/>
			<polygon clip-path="url(#SVGID_4_)" fill="#FFFFFF" points="22.7,15.2 22.9,15.3 23,15.2 			"/>
			<polygon clip-path="url(#SVGID_4_)" fill="#FFFFFF" points="22.7,15.2 22.9,15.2 22.9,15.3 			"/>
			<polygon clip-path="url(#SVGID_4_)" fill="#FFFFFF" points="23,15.4 23,15.2 22.9,15.2 			"/>
			<polygon clip-path="url(#SVGID_4_)" fill="#FFFFFF" points="23,15.4 22.9,15.3 22.9,15.2 			"/>
			<polygon clip-path="url(#SVGID_4_)" fill="#FFFFFF" points="22.8,15.4 23,15.3 22.9,15.2 			"/>
			<polygon clip-path="url(#SVGID_4_)" fill="#FFFFFF" points="22.8,15.4 22.9,15.2 23,15.2 			"/>
			<polygon clip-path="url(#SVGID_4_)" fill="#FFFFFF" points="22.9,15.6 22.9,15.8 22.9,15.8 			"/>
			<polygon clip-path="url(#SVGID_4_)" fill="#FFFFFF" points="22.9,15.6 23,15.8 22.9,15.8 			"/>
			<polygon clip-path="url(#SVGID_4_)" fill="#FFFFFF" points="23.1,15.8 22.9,15.8 22.9,15.8 			"/>
			<polygon clip-path="url(#SVGID_4_)" fill="#FFFFFF" points="23.1,15.8 22.9,15.9 22.9,15.8 			"/>
			<polygon clip-path="url(#SVGID_4_)" fill="#FFFFFF" points="22.8,15.8 22.9,15.9 22.9,15.8 			"/>
			<polygon clip-path="url(#SVGID_4_)" fill="#FFFFFF" points="22.8,15.8 22.9,15.8 22.9,15.8 			"/>
			<polygon clip-path="url(#SVGID_4_)" fill="#FFFFFF" points="23,15.9 23,15.8 22.9,15.8 			"/>
			<polygon clip-path="url(#SVGID_4_)" fill="#FFFFFF" points="23,15.9 22.9,15.8 22.9,15.8 			"/>
			<polygon clip-path="url(#SVGID_4_)" fill="#FFFFFF" points="22.8,15.9 23,15.8 22.9,15.8 			"/>
			<polygon clip-path="url(#SVGID_4_)" fill="#FFFFFF" points="22.8,15.9 22.9,15.8 22.9,15.8 			"/>
			<polygon clip-path="url(#SVGID_4_)" fill="#FFFFFF" points="23.5,14.6 23.4,14.8 23.5,14.8 			"/>
			<polygon clip-path="url(#SVGID_4_)" fill="#FFFFFF" points="23.5,14.6 23.6,14.8 23.5,14.8 			"/>
			<polygon clip-path="url(#SVGID_4_)" fill="#FFFFFF" points="23.7,14.7 23.5,14.7 23.5,14.8 			"/>
			<polygon clip-path="url(#SVGID_4_)" fill="#FFFFFF" points="23.7,14.7 23.5,14.8 23.5,14.8 			"/>
			<polygon clip-path="url(#SVGID_4_)" fill="#FFFFFF" points="23.3,14.7 23.5,14.8 23.5,14.8 			"/>
			<polygon clip-path="url(#SVGID_4_)" fill="#FFFFFF" points="23.3,14.7 23.5,14.7 23.5,14.8 			"/>
			<polygon clip-path="url(#SVGID_4_)" fill="#FFFFFF" points="23.6,14.9 23.5,14.8 23.5,14.8 			"/>
			<polygon clip-path="url(#SVGID_4_)" fill="#FFFFFF" points="23.6,14.9 23.5,14.8 23.5,14.7 			"/>
			<polygon clip-path="url(#SVGID_4_)" fill="#FFFFFF" points="23.4,14.9 23.5,14.8 23.5,14.7 			"/>
			<polygon clip-path="url(#SVGID_4_)" fill="#FFFFFF" points="23.4,14.9 23.5,14.8 23.5,14.8 			"/>
			<polygon clip-path="url(#SVGID_4_)" fill="#FFFFFF" points="24,14.3 23.9,14.5 24,14.5 			"/>
			<polygon clip-path="url(#SVGID_4_)" fill="#FFFFFF" points="24,14.3 24,14.5 23.9,14.5 			"/>
			<polygon clip-path="url(#SVGID_4_)" fill="#FFFFFF" points="24.2,14.4 24,14.4 24,14.5 			"/>
			<polygon clip-path="url(#SVGID_4_)" fill="#FFFFFF" points="24.2,14.4 24,14.5 23.9,14.5 			"/>
			<polygon clip-path="url(#SVGID_4_)" fill="#FFFFFF" points="23.8,14.4 23.9,14.5 24,14.5 			"/>
			<polygon clip-path="url(#SVGID_4_)" fill="#FFFFFF" points="23.8,14.4 24,14.4 24,14.5 			"/>
			<polygon clip-path="url(#SVGID_4_)" fill="#FFFFFF" points="24.1,14.7 24,14.5 23.9,14.5 			"/>
			<polygon clip-path="url(#SVGID_4_)" fill="#FFFFFF" points="24.1,14.7 23.9,14.5 24,14.5 			"/>
			<polygon clip-path="url(#SVGID_4_)" fill="#FFFFFF" points="23.8,14.7 24,14.5 24,14.5 			"/>
			<polygon clip-path="url(#SVGID_4_)" fill="#FFFFFF" points="23.8,14.7 23.9,14.5 24,14.5 			"/>
			<polygon clip-path="url(#SVGID_4_)" fill="#FFFFFF" points="22.9,14.5 22.8,14.7 22.9,14.7 			"/>
			<polygon clip-path="url(#SVGID_4_)" fill="#FFFFFF" points="22.9,14.5 22.9,14.7 22.9,14.7 			"/>
			<polygon clip-path="url(#SVGID_4_)" fill="#FFFFFF" points="23.1,14.6 22.9,14.6 22.9,14.7 			"/>
			<polygon clip-path="url(#SVGID_4_)" fill="#FFFFFF" points="23.1,14.6 22.9,14.7 22.9,14.6 			"/>
			<polygon clip-path="url(#SVGID_4_)" fill="#FFFFFF" points="22.7,14.6 22.9,14.7 22.9,14.6 			"/>
			<polygon clip-path="url(#SVGID_4_)" fill="#FFFFFF" points="22.7,14.6 22.9,14.6 22.9,14.7 			"/>
			<polygon clip-path="url(#SVGID_4_)" fill="#FFFFFF" points="23,14.8 22.9,14.6 22.9,14.7 			"/>
			<polygon clip-path="url(#SVGID_4_)" fill="#FFFFFF" points="23,14.8 22.9,14.7 22.9,14.6 			"/>
			<polygon clip-path="url(#SVGID_4_)" fill="#FFFFFF" points="22.8,14.8 22.9,14.7 22.9,14.6 			"/>
			<polygon clip-path="url(#SVGID_4_)" fill="#FFFFFF" points="22.8,14.8 22.9,14.6 22.9,14.7 			"/>
			<polygon clip-path="url(#SVGID_4_)" fill="#FFFFFF" points="17.8,11.5 17.7,11.7 17.8,11.8 			"/>
			<polygon clip-path="url(#SVGID_4_)" fill="#FFFFFF" points="17.8,11.5 17.8,11.7 17.7,11.8 			"/>
			<polygon clip-path="url(#SVGID_4_)" fill="#FFFFFF" points="18,11.7 17.8,11.7 17.8,11.8 			"/>
			<polygon clip-path="url(#SVGID_4_)" fill="#FFFFFF" points="18,11.7 17.8,11.8 17.7,11.7 			"/>
			<polygon clip-path="url(#SVGID_4_)" fill="#FFFFFF" points="17.6,11.7 17.7,11.8 17.8,11.7 			"/>
			<polygon clip-path="url(#SVGID_4_)" fill="#FFFFFF" points="17.6,11.7 17.8,11.7 17.8,11.8 			"/>
			<polygon clip-path="url(#SVGID_4_)" fill="#FFFFFF" points="17.9,11.9 17.8,11.7 17.7,11.7 			"/>
			<polygon clip-path="url(#SVGID_4_)" fill="#FFFFFF" points="17.9,11.9 17.7,11.8 17.8,11.7 			"/>
			<polygon clip-path="url(#SVGID_4_)" fill="#FFFFFF" points="17.7,11.9 17.8,11.8 17.8,11.7 			"/>
			<polygon clip-path="url(#SVGID_4_)" fill="#FFFFFF" points="17.7,11.9 17.7,11.7 17.8,11.7 			"/>
			<polygon clip-path="url(#SVGID_4_)" fill="#FFFFFF" points="21.6,11 21.5,11.2 21.6,11.2 			"/>
			<polygon clip-path="url(#SVGID_4_)" fill="#FFFFFF" points="21.6,11 21.6,11.2 21.6,11.2 			"/>
			<polygon clip-path="url(#SVGID_4_)" fill="#FFFFFF" points="21.7,11.2 21.6,11.2 21.6,11.2 			"/>
			<polygon clip-path="url(#SVGID_4_)" fill="#FFFFFF" points="21.7,11.2 21.6,11.3 21.6,11.2 			"/>
			<polygon clip-path="url(#SVGID_4_)" fill="#FFFFFF" points="21.4,11.2 21.6,11.3 21.6,11.2 			"/>
			<polygon clip-path="url(#SVGID_4_)" fill="#FFFFFF" points="21.4,11.2 21.6,11.2 21.6,11.2 			"/>
			<polygon clip-path="url(#SVGID_4_)" fill="#FFFFFF" points="21.7,11.3 21.6,11.2 21.6,11.2 			"/>
			<polygon clip-path="url(#SVGID_4_)" fill="#FFFFFF" points="21.7,11.3 21.6,11.2 21.6,11.2 			"/>
			<polygon clip-path="url(#SVGID_4_)" fill="#FFFFFF" points="21.5,11.3 21.6,11.2 21.6,11.2 			"/>
			<polygon clip-path="url(#SVGID_4_)" fill="#FFFFFF" points="21.5,11.3 21.5,11.2 21.6,11.2 			"/>
			<polygon clip-path="url(#SVGID_4_)" fill="#FFFFFF" points="20,13.8 19.9,14.1 20,14.1 			"/>
			<polygon clip-path="url(#SVGID_4_)" fill="#FFFFFF" points="20,13.8 20.1,14.1 20,14.1 			"/>
			<polygon clip-path="url(#SVGID_4_)" fill="#FFFFFF" points="20.2,14 20,14 20,14.1 			"/>
			<polygon clip-path="url(#SVGID_4_)" fill="#FFFFFF" points="20.2,14 20,14.1 20,14 			"/>
			<polygon clip-path="url(#SVGID_4_)" fill="#FFFFFF" points="19.8,14 20,14.1 20,14 			"/>
			<polygon clip-path="url(#SVGID_4_)" fill="#FFFFFF" points="19.8,14 20,14 20,14.1 			"/>
			<polygon clip-path="url(#SVGID_4_)" fill="#FFFFFF" points="20.1,14.3 20.1,14 20,14.1 			"/>
			<polygon clip-path="url(#SVGID_4_)" fill="#FFFFFF" points="20.1,14.3 19.9,14.1 20,14 			"/>
			<polygon clip-path="url(#SVGID_4_)" fill="#FFFFFF" points="19.9,14.3 20.1,14.1 20,14 			"/>
			<polygon clip-path="url(#SVGID_4_)" fill="#FFFFFF" points="19.9,14.3 19.9,14 20.1,14.1 			"/>
			<polygon clip-path="url(#SVGID_4_)" fill="#FFFFFF" points="20.7,12.7 20.6,12.9 20.7,13 			"/>
			<polygon clip-path="url(#SVGID_4_)" fill="#FFFFFF" points="20.7,12.7 20.7,12.9 20.6,13 			"/>
			<polygon clip-path="url(#SVGID_4_)" fill="#FFFFFF" points="20.9,12.9 20.7,12.9 20.7,13 			"/>
			<polygon clip-path="url(#SVGID_4_)" fill="#FFFFFF" points="20.9,12.9 20.7,13 20.6,12.9 			"/>
			<polygon clip-path="url(#SVGID_4_)" fill="#FFFFFF" points="20.5,12.9 20.6,13 20.7,12.9 			"/>
			<polygon clip-path="url(#SVGID_4_)" fill="#FFFFFF" points="20.5,12.9 20.7,12.9 20.7,13 			"/>
			<polygon clip-path="url(#SVGID_4_)" fill="#FFFFFF" points="20.8,13.1 20.7,12.9 20.6,12.9 			"/>
			<polygon clip-path="url(#SVGID_4_)" fill="#FFFFFF" points="20.8,13.1 20.6,13 20.7,12.9 			"/>
			<polygon clip-path="url(#SVGID_4_)" fill="#FFFFFF" points="20.6,13.1 20.7,13 20.7,12.9 			"/>
			<polygon clip-path="url(#SVGID_4_)" fill="#FFFFFF" points="20.6,13.1 20.6,12.9 20.7,12.9 			"/>
			<polygon clip-path="url(#SVGID_4_)" fill="#FFFFFF" points="20,12.2 19.9,12.4 20,12.4 			"/>
			<polygon clip-path="url(#SVGID_4_)" fill="#FFFFFF" points="20,12.2 20.1,12.4 20,12.4 			"/>
			<polygon clip-path="url(#SVGID_4_)" fill="#FFFFFF" points="20.2,12.4 20,12.4 20,12.5 			"/>
			<polygon clip-path="url(#SVGID_4_)" fill="#FFFFFF" points="20.2,12.4 20,12.5 20,12.4 			"/>
			<polygon clip-path="url(#SVGID_4_)" fill="#FFFFFF" points="19.8,12.4 20,12.5 20,12.4 			"/>
			<polygon clip-path="url(#SVGID_4_)" fill="#FFFFFF" points="19.8,12.4 20,12.4 20,12.5 			"/>
			<polygon clip-path="url(#SVGID_4_)" fill="#FFFFFF" points="20.1,12.6 20.1,12.4 20,12.4 			"/>
			<polygon clip-path="url(#SVGID_4_)" fill="#FFFFFF" points="20.1,12.6 20,12.5 20,12.4 			"/>
			<polygon clip-path="url(#SVGID_4_)" fill="#FFFFFF" points="19.9,12.6 20,12.5 20,12.4 			"/>
			<polygon clip-path="url(#SVGID_4_)" fill="#FFFFFF" points="19.9,12.6 19.9,12.4 20,12.4 			"/>
			<polygon clip-path="url(#SVGID_4_)" fill="#FFFFFF" points="19.4,12.8 19.4,12.9 19.4,13 			"/>
			<polygon clip-path="url(#SVGID_4_)" fill="#FFFFFF" points="19.4,12.8 19.5,12.9 19.4,13 			"/>
			<polygon clip-path="url(#SVGID_4_)" fill="#FFFFFF" points="19.6,12.9 19.4,12.9 19.4,13 			"/>
			<polygon clip-path="url(#SVGID_4_)" fill="#FFFFFF" points="19.6,12.9 19.4,13 19.4,12.9 			"/>
			<polygon clip-path="url(#SVGID_4_)" fill="#FFFFFF" points="19.3,12.9 19.4,13 19.4,12.9 			"/>
			<polygon clip-path="url(#SVGID_4_)" fill="#FFFFFF" points="19.3,12.9 19.4,12.9 19.4,13 			"/>
			<polygon clip-path="url(#SVGID_4_)" fill="#FFFFFF" points="19.5,13.1 19.5,12.9 19.4,12.9 			"/>
			<polygon clip-path="url(#SVGID_4_)" fill="#FFFFFF" points="19.5,13.1 19.4,13 19.4,12.9 			"/>
			<polygon clip-path="url(#SVGID_4_)" fill="#FFFFFF" points="19.3,13.1 19.5,13 19.4,12.9 			"/>
			<polygon clip-path="url(#SVGID_4_)" fill="#FFFFFF" points="19.3,13.1 19.4,12.9 19.4,12.9 			"/>
			<polygon clip-path="url(#SVGID_4_)" fill="#FFFFFF" points="19.7,13.2 19.7,13.3 19.7,13.3 			"/>
			<polygon clip-path="url(#SVGID_4_)" fill="#FFFFFF" points="19.7,13.2 19.7,13.3 19.7,13.3 			"/>
			<polygon clip-path="url(#SVGID_4_)" fill="#FFFFFF" points="19.8,13.3 19.7,13.3 19.7,13.4 			"/>
			<polygon clip-path="url(#SVGID_4_)" fill="#FFFFFF" points="19.8,13.3 19.7,13.4 19.7,13.3 			"/>
			<polygon clip-path="url(#SVGID_4_)" fill="#FFFFFF" points="19.6,13.3 19.7,13.4 19.7,13.3 			"/>
			<polygon clip-path="url(#SVGID_4_)" fill="#FFFFFF" points="19.6,13.3 19.7,13.3 19.7,13.4 			"/>
			<polygon clip-path="url(#SVGID_4_)" fill="#FFFFFF" points="19.8,13.4 19.7,13.3 19.7,13.3 			"/>
			<polygon clip-path="url(#SVGID_4_)" fill="#FFFFFF" points="19.8,13.4 19.7,13.4 19.7,13.3 			"/>
			<polygon clip-path="url(#SVGID_4_)" fill="#FFFFFF" points="19.6,13.4 19.7,13.4 19.7,13.3 			"/>
			<polygon clip-path="url(#SVGID_4_)" fill="#FFFFFF" points="19.6,13.4 19.7,13.3 19.7,13.3 			"/>
			<polygon clip-path="url(#SVGID_4_)" fill="#FFFFFF" points="21.7,15.2 21.7,15.4 21.8,15.4 			"/>
			<polygon clip-path="url(#SVGID_4_)" fill="#FFFFFF" points="21.7,15.2 21.8,15.4 21.7,15.4 			"/>
			<polygon clip-path="url(#SVGID_4_)" fill="#FFFFFF" points="21.9,15.3 21.7,15.3 21.7,15.4 			"/>
			<polygon clip-path="url(#SVGID_4_)" fill="#FFFFFF" points="21.9,15.3 21.8,15.4 21.7,15.3 			"/>
			<polygon clip-path="url(#SVGID_4_)" fill="#FFFFFF" points="21.5,15.3 21.7,15.4 21.8,15.3 			"/>
			<polygon clip-path="url(#SVGID_4_)" fill="#FFFFFF" points="21.5,15.3 21.8,15.3 21.8,15.4 			"/>
			<polygon clip-path="url(#SVGID_4_)" fill="#FFFFFF" points="21.9,15.5 21.8,15.3 21.7,15.4 			"/>
			<polygon clip-path="url(#SVGID_4_)" fill="#FFFFFF" points="21.9,15.5 21.7,15.4 21.8,15.3 			"/>
			<polygon clip-path="url(#SVGID_4_)" fill="#FFFFFF" points="21.6,15.5 21.8,15.4 21.7,15.3 			"/>
			<polygon clip-path="url(#SVGID_4_)" fill="#FFFFFF" points="21.6,15.5 21.7,15.3 21.8,15.4 			"/>
			<polygon clip-path="url(#SVGID_4_)" fill="#FFFFFF" points="22.2,14.7 22.2,14.9 22.3,14.9 			"/>
			<polygon clip-path="url(#SVGID_4_)" fill="#FFFFFF" points="22.2,14.7 22.3,14.9 22.2,14.9 			"/>
			<polygon clip-path="url(#SVGID_4_)" fill="#FFFFFF" points="22.4,14.8 22.2,14.8 22.2,14.9 			"/>
			<polygon clip-path="url(#SVGID_4_)" fill="#FFFFFF" points="22.4,14.8 22.3,14.9 22.2,14.8 			"/>
			<polygon clip-path="url(#SVGID_4_)" fill="#FFFFFF" points="22.1,14.8 22.2,14.9 22.3,14.8 			"/>
			<polygon clip-path="url(#SVGID_4_)" fill="#FFFFFF" points="22.1,14.8 22.3,14.8 22.3,14.9 			"/>
			<polygon clip-path="url(#SVGID_4_)" fill="#FFFFFF" points="22.3,15 22.3,14.8 22.2,14.9 			"/>
			<polygon clip-path="url(#SVGID_4_)" fill="#FFFFFF" points="22.3,15 22.2,14.9 22.3,14.8 			"/>
			<polygon clip-path="url(#SVGID_4_)" fill="#FFFFFF" points="22.1,15 22.3,14.9 22.2,14.8 			"/>
			<polygon clip-path="url(#SVGID_4_)" fill="#FFFFFF" points="22.1,15 22.2,14.8 22.3,14.9 			"/>
			<polygon clip-path="url(#SVGID_4_)" fill="#FFFFFF" points="21.3,14.6 21.2,14.7 21.3,14.7 			"/>
			<polygon clip-path="url(#SVGID_4_)" fill="#FFFFFF" points="21.3,14.6 21.3,14.7 21.3,14.7 			"/>
			<polygon clip-path="url(#SVGID_4_)" fill="#FFFFFF" points="21.4,14.7 21.3,14.7 21.3,14.8 			"/>
			<polygon clip-path="url(#SVGID_4_)" fill="#FFFFFF" points="21.4,14.7 21.3,14.8 21.3,14.7 			"/>
			<polygon clip-path="url(#SVGID_4_)" fill="#FFFFFF" points="21.1,14.7 21.3,14.8 21.3,14.7 			"/>
			<polygon clip-path="url(#SVGID_4_)" fill="#FFFFFF" points="21.1,14.7 21.3,14.7 21.3,14.8 			"/>
			<polygon clip-path="url(#SVGID_4_)" fill="#FFFFFF" points="21.4,14.9 21.3,14.7 21.3,14.7 			"/>
			<polygon clip-path="url(#SVGID_4_)" fill="#FFFFFF" points="21.4,14.9 21.2,14.8 21.3,14.7 			"/>
			<polygon clip-path="url(#SVGID_4_)" fill="#FFFFFF" points="21.2,14.9 21.3,14.8 21.3,14.7 			"/>
			<polygon clip-path="url(#SVGID_4_)" fill="#FFFFFF" points="21.2,14.9 21.2,14.7 21.3,14.7 			"/>
			<polygon clip-path="url(#SVGID_4_)" fill="#FFFFFF" points="17.7,14.3 17.6,14.5 17.7,14.6 			"/>
			<polygon clip-path="url(#SVGID_4_)" fill="#FFFFFF" points="17.7,14.3 17.7,14.5 17.6,14.6 			"/>
			<polygon clip-path="url(#SVGID_4_)" fill="#FFFFFF" points="17.9,14.5 17.6,14.5 17.6,14.6 			"/>
			<polygon clip-path="url(#SVGID_4_)" fill="#FFFFFF" points="17.9,14.5 17.7,14.6 17.6,14.5 			"/>
			<polygon clip-path="url(#SVGID_4_)" fill="#FFFFFF" points="17.4,14.5 17.6,14.6 17.7,14.5 			"/>
			<polygon clip-path="url(#SVGID_4_)" fill="#FFFFFF" points="17.4,14.5 17.7,14.5 17.7,14.6 			"/>
			<polygon clip-path="url(#SVGID_4_)" fill="#FFFFFF" points="17.8,14.7 17.7,14.5 17.6,14.6 			"/>
			<polygon clip-path="url(#SVGID_4_)" fill="#FFFFFF" points="17.8,14.7 17.6,14.6 17.7,14.5 			"/>
			<polygon clip-path="url(#SVGID_4_)" fill="#FFFFFF" points="17.5,14.7 17.7,14.6 17.6,14.5 			"/>
			<polygon clip-path="url(#SVGID_4_)" fill="#FFFFFF" points="17.5,14.7 17.6,14.5 17.7,14.6 			"/>
			<polygon clip-path="url(#SVGID_4_)" fill="#FFFFFF" points="20,15.9 20,16 20,16 			"/>
			<polygon clip-path="url(#SVGID_4_)" fill="#FFFFFF" points="20,15.9 20,16 20,16 			"/>
			<polygon clip-path="url(#SVGID_4_)" fill="#FFFFFF" points="20.1,16 20,16 20,16 			"/>
			<polygon clip-path="url(#SVGID_4_)" fill="#FFFFFF" points="20.1,16 20,16 20,16 			"/>
			<polygon clip-path="url(#SVGID_4_)" fill="#FFFFFF" points="19.9,16 20,16 20,16 			"/>
			<polygon clip-path="url(#SVGID_4_)" fill="#FFFFFF" points="19.9,16 20,16 20,16 			"/>
			<polygon clip-path="url(#SVGID_4_)" fill="#FFFFFF" points="20,16.1 20,16 20,16 			"/>
			<polygon clip-path="url(#SVGID_4_)" fill="#FFFFFF" points="20,16.1 20,16 20,16 			"/>
			<polygon clip-path="url(#SVGID_4_)" fill="#FFFFFF" points="20,16.1 20,16 20,16 			"/>
			<polygon clip-path="url(#SVGID_4_)" fill="#FFFFFF" points="20,16.1 20,16 20,16 			"/>
		</g>
	</g>
</g>
<g>
	<path fill="#CCCCCC" d="M39.8,0.3v22.5H0.2V0.3H39.8 M40,0H0v23h40V0L40,0z"/>
</g>
<g>
	<path fill="#CCCCCC" d="M39.8,0.3v22.5H0.2V0.3H39.8 M40,0H0v23h40V0L40,0z"/>
</g>
</svg>
