<?xml version="1.0" encoding="utf-8"?>
<!-- Generator: Adobe Illustrator 17.1.0, SVG Export Plug-In . SVG Version: 6.00 Build 0)  -->
<!DOCTYPE svg PUBLIC "-//W3C//DTD SVG 1.1//EN" "http://www.w3.org/Graphics/SVG/1.1/DTD/svg11.dtd">
<svg version="1.1" id="Layer_1" xmlns="http://www.w3.org/2000/svg" xmlns:xlink="http://www.w3.org/1999/xlink" x="0px" y="0px"
	 viewBox="0 0 40 23" enable-background="new 0 0 40 23" xml:space="preserve">
<g>
	<g>
		<defs>
			<rect id="SVGID_168_" width="40" height="23"/>
		</defs>
		<clipPath id="SVGID_2_">
			<use xlink:href="#SVGID_168_"  overflow="visible"/>
		</clipPath>
		<polygon clip-path="url(#SVGID_2_)" fill="#325D37" points="40,0 40,0 40,0 		"/>
		<polygon clip-path="url(#SVGID_2_)" fill="#325D37" points="2,23 40,23 40,1.2 		"/>
		<polygon clip-path="url(#SVGID_2_)" fill="#2D4DB6" points="0,0 0,21.8 38,0 		"/>
		<polygon clip-path="url(#SVGID_2_)" fill="#2D4DB6" points="40,0 40,0 40,0 		"/>
		<polygon clip-path="url(#SVGID_2_)" fill="#F3D02F" points="0,23 0,23 2,23 40,1.2 40,0 40,0 		"/>
		<polygon clip-path="url(#SVGID_2_)" fill="#F3D02F" points="38,0 0,21.8 0,23 40,0 40,0 		"/>
		<polygon clip-path="url(#SVGID_2_)" fill="#FFFFFF" points="7,5.1 6.4,7 7.3,7.3 		"/>
		<polygon clip-path="url(#SVGID_2_)" fill="#FFFFFF" points="7,5.1 7.6,7 6.7,7.3 		"/>
		<polygon clip-path="url(#SVGID_2_)" fill="#FFFFFF" points="8.9,6.5 6.9,6.5 6.9,7.5 		"/>
		<polygon clip-path="url(#SVGID_2_)" fill="#FFFFFF" points="8.9,6.5 7.3,7.6 6.7,6.8 		"/>
		<polygon clip-path="url(#SVGID_2_)" fill="#FFFFFF" points="5.1,6.5 6.7,7.6 7.3,6.8 		"/>
		<polygon clip-path="url(#SVGID_2_)" fill="#FFFFFF" points="5.1,6.5 7.1,6.5 7.1,7.5 		"/>
		<polygon clip-path="url(#SVGID_2_)" fill="#FFFFFF" points="8.2,8.7 7.6,6.8 6.6,7.1 		"/>
		<polygon clip-path="url(#SVGID_2_)" fill="#FFFFFF" points="8.2,8.7 6.6,7.5 7.1,6.7 		"/>
		<polygon clip-path="url(#SVGID_2_)" fill="#FFFFFF" points="5.8,8.7 7.4,7.5 6.9,6.7 		"/>
		<polygon clip-path="url(#SVGID_2_)" fill="#FFFFFF" points="5.8,8.7 6.4,6.8 7.4,7.1 		"/>
		<polygon clip-path="url(#SVGID_2_)" fill="#FFFFFF" points="10.7,8.7 10.1,10.6 11,10.9 		"/>
		<polygon clip-path="url(#SVGID_2_)" fill="#FFFFFF" points="10.7,8.7 11.3,10.6 10.3,10.9 		"/>
		<polygon clip-path="url(#SVGID_2_)" fill="#FFFFFF" points="12.6,10.1 10.6,10.1 10.6,11.1 		"/>
		<polygon clip-path="url(#SVGID_2_)" fill="#FFFFFF" points="12.6,10.1 11,11.3 10.4,10.5 		"/>
		<polygon clip-path="url(#SVGID_2_)" fill="#FFFFFF" points="8.8,10.1 10.4,11.3 11,10.5 		"/>
		<polygon clip-path="url(#SVGID_2_)" fill="#FFFFFF" points="8.8,10.1 10.8,10.1 10.8,11.1 		"/>
		<polygon clip-path="url(#SVGID_2_)" fill="#FFFFFF" points="11.9,12.3 11.2,10.4 10.3,10.7 		"/>
		<polygon clip-path="url(#SVGID_2_)" fill="#FFFFFF" points="11.9,12.3 10.2,11.2 10.8,10.4 		"/>
		<polygon clip-path="url(#SVGID_2_)" fill="#FFFFFF" points="9.5,12.3 11.1,11.2 10.5,10.4 		"/>
		<polygon clip-path="url(#SVGID_2_)" fill="#FFFFFF" points="9.5,12.3 10.1,10.4 11.1,10.7 		"/>
		<polygon clip-path="url(#SVGID_2_)" fill="#FFFFFF" points="3.3,8.7 2.7,10.6 3.7,10.9 		"/>
		<polygon clip-path="url(#SVGID_2_)" fill="#FFFFFF" points="3.3,8.7 3.9,10.6 3,10.9 		"/>
		<polygon clip-path="url(#SVGID_2_)" fill="#FFFFFF" points="5.2,10.1 3.2,10.1 3.2,11.1 		"/>
		<polygon clip-path="url(#SVGID_2_)" fill="#FFFFFF" points="5.2,10.1 3.6,11.3 3,10.5 		"/>
		<polygon clip-path="url(#SVGID_2_)" fill="#FFFFFF" points="1.4,10.1 3,11.3 3.6,10.5 		"/>
		<polygon clip-path="url(#SVGID_2_)" fill="#FFFFFF" points="1.4,10.1 3.4,10.1 3.4,11.1 		"/>
		<polygon clip-path="url(#SVGID_2_)" fill="#FFFFFF" points="4.5,12.3 3.9,10.4 2.9,10.7 		"/>
		<polygon clip-path="url(#SVGID_2_)" fill="#FFFFFF" points="4.5,12.3 2.9,11.2 3.5,10.4 		"/>
		<polygon clip-path="url(#SVGID_2_)" fill="#FFFFFF" points="2.1,12.3 3.8,11.2 3.2,10.4 		"/>
		<polygon clip-path="url(#SVGID_2_)" fill="#FFFFFF" points="2.1,12.3 2.8,10.4 3.7,10.7 		"/>
		<polygon clip-path="url(#SVGID_2_)" fill="#FFFFFF" points="3.3,1.5 2.7,3.4 3.7,3.7 		"/>
		<polygon clip-path="url(#SVGID_2_)" fill="#FFFFFF" points="3.3,1.5 3.9,3.4 3,3.7 		"/>
		<polygon clip-path="url(#SVGID_2_)" fill="#FFFFFF" points="5.2,2.9 3.2,2.9 3.2,3.8 		"/>
		<polygon clip-path="url(#SVGID_2_)" fill="#FFFFFF" points="5.2,2.9 3.6,4 3,3.2 		"/>
		<polygon clip-path="url(#SVGID_2_)" fill="#FFFFFF" points="1.4,2.9 3,4 3.6,3.2 		"/>
		<polygon clip-path="url(#SVGID_2_)" fill="#FFFFFF" points="1.4,2.9 3.4,2.9 3.4,3.8 		"/>
		<polygon clip-path="url(#SVGID_2_)" fill="#FFFFFF" points="4.5,5.1 3.9,3.2 2.9,3.5 		"/>
		<polygon clip-path="url(#SVGID_2_)" fill="#FFFFFF" points="4.5,5.1 2.9,3.9 3.5,3.1 		"/>
		<polygon clip-path="url(#SVGID_2_)" fill="#FFFFFF" points="2.1,5.1 3.8,3.9 3.2,3.1 		"/>
		<polygon clip-path="url(#SVGID_2_)" fill="#FFFFFF" points="2.1,5.1 2.8,3.2 3.7,3.5 		"/>
		<polygon clip-path="url(#SVGID_2_)" fill="#FFFFFF" points="10.7,1.5 10.1,3.4 11,3.7 		"/>
		<polygon clip-path="url(#SVGID_2_)" fill="#FFFFFF" points="10.7,1.5 11.3,3.4 10.3,3.7 		"/>
		<polygon clip-path="url(#SVGID_2_)" fill="#FFFFFF" points="12.6,2.9 10.6,2.9 10.6,3.8 		"/>
		<polygon clip-path="url(#SVGID_2_)" fill="#FFFFFF" points="12.6,2.9 11,4 10.4,3.2 		"/>
		<polygon clip-path="url(#SVGID_2_)" fill="#FFFFFF" points="8.8,2.9 10.4,4 11,3.2 		"/>
		<polygon clip-path="url(#SVGID_2_)" fill="#FFFFFF" points="8.8,2.9 10.8,2.9 10.8,3.8 		"/>
		<polygon clip-path="url(#SVGID_2_)" fill="#FFFFFF" points="11.9,5.1 11.2,3.2 10.3,3.5 		"/>
		<polygon clip-path="url(#SVGID_2_)" fill="#FFFFFF" points="11.9,5.1 10.2,3.9 10.8,3.1 		"/>
		<polygon clip-path="url(#SVGID_2_)" fill="#FFFFFF" points="9.5,5.1 11.1,3.9 10.5,3.1 		"/>
		<polygon clip-path="url(#SVGID_2_)" fill="#FFFFFF" points="9.5,5.1 10.1,3.2 11.1,3.5 		"/>
	</g>
</g>
<g>
	<path fill="#CCCCCC" d="M39.8,0.2v22.5H0.2V0.2H39.8 M40,0H0v23h40V0L40,0z"/>
</g>
</svg>
