<?xml version="1.0" encoding="utf-8"?>
<!-- Generator: Adobe Illustrator 18.1.1, SVG Export Plug-In . SVG Version: 6.00 Build 0)  -->
<svg version="1.1" id="Layer_1" xmlns="http://www.w3.org/2000/svg" xmlns:xlink="http://www.w3.org/1999/xlink" x="0px" y="0px"
	 viewBox="0 0 612 351.9" enable-background="new 0 0 612 351.9" xml:space="preserve">
<g>
	<rect y="0" fill="none" width="612" height="351.9"/>
	<rect y="234.1" width="612" height="117.8"/>
	<rect y="0" fill="none" width="612" height="351.9"/>
	<rect y="0" fill="none" width="612" height="351.9"/>
	<g>
		<path d="M612,351.9H0V234.1h612V351.9L612,351.9z M0,351.9h612V235.6H0V351.9L0,351.9z"/>
	</g>
	<rect y="0" fill="none" width="612" height="351.9"/>
	<rect y="117.8" fill="#FFFFFF" width="612" height="117.8"/>
	<rect y="0" fill="none" width="612" height="351.9"/>
	<rect y="0" fill="none" width="612" height="351.9"/>
	<g>
		<path fill="#FFFFFF" d="M612,235.6H0V116.3h612V235.6L612,235.6z M0,234.1h612V117.8H0V234.1L0,234.1z"/>
	</g>
	<rect y="0" fill="none" width="612" height="351.9"/>
	<rect y="0" fill="#BC0030" width="612" height="117.8"/>
	<rect y="0" fill="none" width="612" height="351.9"/>
	<rect y="0" fill="none" width="612" height="351.9"/>
	<path fill="#BC0030" d="M612,117.8H0V0h612V117.8L612,117.8z M0,116.3h612V0H0V116.3L0,116.3z"/>
	<rect y="0" fill="none" width="612" height="351.9"/>
	<path fill="#FFFFFF" d="M302.9,231c12.2,0,22.9-1.5,29.1-3.1c3.1,0,3.1-1.5,3.1-3.1c3.1-1.5,1.5-4.6,3.1-4.6
		c-1.5,0-3.1-3.1-4.6-3.1c0-3.1-3.1-3.1-6.1-3.1c-6.1,1.5-15.3,1.5-24.5,1.5s-18.4,0-24.5-1.5c-3.1-1.5-6.1,0-6.1,3.1
		c-3.1,0-3.1,3.1-4.6,3.1c1.5,0,0,3.1,3.1,4.6c0,1.5,0,3.1,3.1,3.1C280,231,290.7,231,302.9,231L302.9,231z"/>
	<rect y="0" fill="none" width="612" height="351.9"/>
	<rect y="0" fill="none" width="612" height="351.9"/>
	<path fill="#F4D134" d="M275.4,220.3L275.4,220.3C276.9,220.3,276.9,220.3,275.4,220.3L275.4,220.3z"/>
	<rect y="0" fill="none" width="612" height="351.9"/>
	<path fill="#F0C727" d="M275.4,221.9C275.4,221.9,275.4,220.3,275.4,221.9c-1.5-1.5,0-1.5,0-1.5
		C276.9,218.8,276.9,220.3,275.4,221.9C276.9,220.3,276.9,221.9,275.4,221.9L275.4,221.9z"/>
	<rect y="0" fill="none" width="612" height="351.9"/>
	<path fill="#F4D134" d="M275.4,218.8L275.4,218.8C276.9,218.8,276.9,218.8,275.4,218.8L275.4,218.8z"/>
	<rect y="0" fill="none" width="612" height="351.9"/>
	<path fill="#F0C727" d="M275.4,220.3C275.4,220.3,275.4,218.8,275.4,220.3c-1.5-1.5,0-1.5,0-1.5
		C276.9,217.3,276.9,218.8,275.4,220.3C276.9,218.8,276.9,220.3,275.4,220.3L275.4,220.3z"/>
	<rect y="0" fill="none" width="612" height="351.9"/>
	<path fill="#F4D134" d="M275.4,224.9C275.4,224.9,275.4,226.4,275.4,224.9C276.9,226.4,276.9,224.9,275.4,224.9L275.4,224.9z"/>
	<rect y="0" fill="none" width="612" height="351.9"/>
	<path fill="#F0C727" d="M275.4,226.4L275.4,226.4c-1.5-1.5,0-1.5,0-1.5C276.9,224.9,276.9,224.9,275.4,226.4
		C276.9,226.4,276.9,226.4,275.4,226.4L275.4,226.4z"/>
	<rect y="0" fill="none" width="612" height="351.9"/>
	<path fill="#F4D134" d="M278.5,224.9C276.9,224.9,276.9,226.4,278.5,224.9C278.5,226.4,278.5,224.9,278.5,224.9L278.5,224.9z"/>
	<rect y="0" fill="none" width="612" height="351.9"/>
	<path fill="#F0C727" d="M278.5,226.4C276.9,226.4,276.9,226.4,278.5,226.4c-1.5-1.5,0-1.5,0-1.5V226.4L278.5,226.4L278.5,226.4z"/>
	<rect y="0" fill="none" width="612" height="351.9"/>
	<path fill="#F4D134" d="M280,226.4L280,226.4L280,226.4L280,226.4z"/>
	<rect y="0" fill="none" width="612" height="351.9"/>
	<path fill="#F0C727" d="M280,228C280,228,278.5,226.4,280,228c-1.5-1.5,0-1.5,0-1.5C280,224.9,281.5,226.4,280,228
		C281.5,226.4,280,228,280,228L280,228z"/>
	<rect y="0" fill="none" width="612" height="351.9"/>
	<path fill="#F4D134" d="M309.1,221.9C307.5,221.9,307.5,221.9,309.1,221.9L309.1,221.9L309.1,221.9z"/>
	<rect y="0" fill="none" width="612" height="351.9"/>
	<path fill="#F0C727" d="M309.1,223.4C309.1,223.4,307.5,221.9,309.1,223.4c-1.5-1.5,0-1.5,0-1.5
		C309.1,220.3,309.1,221.9,309.1,223.4C309.1,221.9,309.1,223.4,309.1,223.4L309.1,223.4z"/>
	<rect y="0" fill="none" width="612" height="351.9"/>
	<path fill="#F4D134" d="M309.1,223.4C307.5,223.4,307.5,223.4,309.1,223.4L309.1,223.4L309.1,223.4z"/>
	<rect y="0" fill="none" width="612" height="351.9"/>
	<path fill="none" d="M309.1,223.4C307.5,223.4,307.5,223.4,309.1,223.4L309.1,223.4z"/>
	<rect y="0" fill="none" width="612" height="351.9"/>
	<path fill="#F4D134" d="M310.6,228C310.6,228,310.6,229.5,310.6,228C310.6,229.5,310.6,228,310.6,228L310.6,228z"/>
	<rect y="0" fill="none" width="612" height="351.9"/>
	<path fill="#F0C727" d="M310.6,229.5C310.6,229.5,309.1,228,310.6,229.5c-1.5-1.5,0-1.5,0-1.5S312.1,228,310.6,229.5
		C312.1,228,310.6,229.5,310.6,229.5L310.6,229.5z"/>
	<rect y="0" fill="none" width="612" height="351.9"/>
	<path fill="#F4D134" d="M312.1,228C312.1,228,312.1,229.5,312.1,228C312.1,229.5,312.1,228,312.1,228L312.1,228z"/>
	<rect y="0" fill="none" width="612" height="351.9"/>
	<path fill="#F0C727" d="M312.1,229.5C312.1,229.5,310.6,229.5,312.1,229.5c-1.5-1.5-1.5-1.5,0-1.5C312.1,228,313.7,228,312.1,229.5
		C313.7,229.5,313.7,229.5,312.1,229.5L312.1,229.5z"/>
	<rect y="0" fill="none" width="612" height="351.9"/>
	<path fill="#F4D134" d="M332,224.9C330.5,224.9,330.5,224.9,332,224.9L332,224.9L332,224.9z"/>
	<rect y="0" fill="none" width="612" height="351.9"/>
	<path fill="#F0C727" d="M332,224.9C330.5,224.9,330.5,224.9,332,224.9c-1.5-1.5,0-1.5,0-1.5S332,223.4,332,224.9L332,224.9
		L332,224.9z"/>
	<rect y="0" fill="none" width="612" height="351.9"/>
	<rect y="0" fill="none" width="612" height="351.9"/>
	<rect y="0" fill="none" width="612" height="351.9"/>
	<rect y="0" fill="none" width="612" height="351.9"/>
	<path fill="#F0C727" d="M293.8,226.4C292.2,226.4,292.2,226.4,293.8,226.4c0-1.5,0-3.1,0-3.1c0-1.5,0-1.5,0-3.1h1.5
		c0,0,0,1.5,0,3.1C293.8,224.9,293.8,226.4,293.8,226.4L293.8,226.4L293.8,226.4z"/>
	<rect y="0" fill="none" width="612" height="351.9"/>
	<rect y="0" fill="none" width="612" height="351.9"/>
	<rect y="0" fill="none" width="612" height="351.9"/>
	<path fill="#F0C727" d="M309.1,228L309.1,228C309.1,228,309.1,226.4,309.1,228c0-1.5,0-1.5,0-1.5c0-1.5,0-3.1,0-3.1l0,0
		c0,0,0,0,1.5,0c0,1.5,0,3.1,0,4.6h1.5c0,0,0,0,0-1.5v-1.6c0,0,0,0,1.5,0c0,0,1.5,0,1.5,1.5l0,0l0,0c0,1.5,0,3.1-1.5,3.1
		C312.1,228,310.6,228,309.1,228C310.6,226.4,310.6,226.4,309.1,228C310.6,228,310.6,228,309.1,228L309.1,228z"/>
	<rect y="0" fill="none" width="612" height="351.9"/>
	<rect y="0" fill="none" width="612" height="351.9"/>
	<rect y="0" fill="none" width="612" height="351.9"/>
	<rect y="0" fill="none" width="612" height="351.9"/>
	<path fill="#F0C727" d="M327.4,224.9c-1.5,0-1.5,0-1.5-1.5v-1.5c0-1.5,3.1-1.5,3.1,0v1.5C328.9,224.9,328.9,224.9,327.4,224.9
		L327.4,224.9z"/>
	<rect y="0" fill="none" width="612" height="351.9"/>
	<path fill="none" d="M328.9,223.4C328.9,223.4,330.5,223.4,328.9,223.4L328.9,223.4z"/>
	<rect y="0" fill="none" width="612" height="351.9"/>
	<path fill="#F0C727" d="M332,223.4C330.5,223.4,330.5,223.4,332,223.4c-1.5,0-3.1-1.5-3.1-4.6c0,0,0,0,0-1.5h-1.5c0,0,0,0-1.5,0
		c0,0,0,0,0-1.5c0,0,1.5-1.5,3.1,0l1.5,1.5C330.5,220.3,330.5,221.9,332,223.4C332,221.9,332,221.9,332,223.4
		C332,221.9,332,221.9,332,223.4c0-1.5,1.5-3.1,1.5-1.5v1.5C332,223.4,332,223.4,332,223.4L332,223.4z"/>
	<rect y="0" fill="none" width="612" height="351.9"/>
	<path fill="none" d="M286.1,223.4L286.1,223.4L286.1,223.4z"/>
	<rect y="0" fill="none" width="612" height="351.9"/>
	<path fill="none" d="M289.2,224.9L289.2,224.9L289.2,224.9z"/>
	<rect y="0" fill="none" width="612" height="351.9"/>
	<path fill="#FFFFFF" d="M302.9,179l39.8,36.7l-3.1-67.3c0-10.7-9.2-7.6-15.3-4.6c-6.1,4.6-13.8,4.6-21.4,1.5
		c-7.6,3.1-15.3,3.1-21.4-1.5c-6.1-3.1-15.3-6.1-15.3,4.6l-3.1,67.3L302.9,179z"/>
	<rect y="0" fill="none" width="612" height="351.9"/>
	<rect y="0" fill="none" width="612" height="351.9"/>
	<path fill="#FFFFFF" d="M309.1,148.4c1.5,1.5,4.6,1.5,6.1,1.5c-4.6-3.1-6.1-12.2-6.1-15.3c1.5-7.7-1.5-12.2-6.1-12.2
		c-1.5,0-1.5,0-3.1,0c-1.5,0-3.1,1.5-3.1,1.5c-1.5-1.5-3.1,0-4.6-1.5c-1.5,0-3.1,0-3.1,3.1h1.5c0,0,1.5,0,1.5,1.5
		c1.5,1.5,3.1,1.5,3.1,4.6c1.5,6.1,0,13.8-6.1,19.9c1.5,0,3.1,0,6.1-1.5c-1.5,1.5-1.5,1.5-1.5,3.1c3.1,0,4.6-1.5,6.1-3.1
		c0,1.5,1.5,1.5,3.1,3.1c0-1.5,1.5-1.5,3.1-3.1c1.5,1.5,3.1,3.1,6.1,3.1C310.6,149.9,310.6,149.9,309.1,148.4L309.1,148.4z"/>
	<rect y="0" fill="none" width="612" height="351.9"/>
	<rect y="0" fill="none" width="612" height="351.9"/>
	<rect y="0" fill="none" width="612" height="351.9"/>
	<rect y="0" fill="none" width="612" height="351.9"/>
	<rect y="0" fill="none" width="612" height="351.9"/>
	<rect y="0" fill="none" width="612" height="351.9"/>
	<path fill="#F0C727" d="M290.7,123.9c1.5,0,1.5,0,3.1,1.5c1.5,0,3.1,1.5,3.1,4.6c0-1.5,0-3.1,1.5-3.1
		C296.8,123.9,292.2,123.9,290.7,123.9L290.7,123.9z"/>
	<rect y="0" fill="none" width="612" height="351.9"/>
	<path fill="#F0C727" d="M296.8,130L296.8,130L296.8,130L296.8,130L296.8,130L296.8,130c-1.5-3.1-3.1-4.6-3.1-4.6l0,0l0,0
		c-1.5,0-1.5,0-1.5,0c0-1.5,1.5-1.5,1.5-1.5c1.5,0,4.6,1.5,6.1,3.1l0,0l0,0l0,0C296.8,128.5,296.8,128.5,296.8,130L296.8,130
		L296.8,130L296.8,130L296.8,130L296.8,130z M290.7,123.9C292.2,123.9,292.2,123.9,290.7,123.9l1.5,1.5c1.5,0,1.5,1.5,3.1,3.1l0,0
		c0,0,0,0,1.5,0C296.8,125.5,293.8,123.9,290.7,123.9L290.7,123.9z"/>
	<rect y="0" fill="none" width="612" height="351.9"/>
	<polygon fill="#F0C727" points="304.5,186.7 310.6,211.1 307.5,212.7 306,211.1 302.9,189.7 304.5,211.1 302.9,214.2 301.4,211.1 
		301.4,189.7 298.4,211.1 296.8,212.7 295.3,211.1 301.4,186.7 	"/>
	<rect y="0" fill="none" width="612" height="351.9"/>
	<rect y="0" fill="none" width="612" height="351.9"/>
	<path fill="#F0C727" d="M269.3,146.9l-3.1,64.3l-4.6,4.6l3.1-67.3C266.2,148.4,269.3,146.9,269.3,146.9L269.3,146.9z"/>
	<rect y="0" fill="none" width="612" height="351.9"/>
	<path fill="#F0C727" d="M275.4,151.5l-3.1,55.1l-4.6,4.6l3.1-62.7C272.3,148.4,273.9,149.9,275.4,151.5L275.4,151.5z"/>
	<rect y="0" fill="none" width="612" height="351.9"/>
	<path fill="#F0C727" d="M280,154.5l-1.5,45.9l-3.1,3.1l3.1-52C278.5,153,280,154.5,280,154.5L280,154.5z"/>
	<rect y="0" fill="none" width="612" height="351.9"/>
	<rect y="0" fill="none" width="612" height="351.9"/>
	<path fill="#F0C727" d="M290.7,157.6l-1.5,32.1l-3.1,3.1l1.5-35.2C287.6,157.6,290.7,157.6,290.7,157.6L290.7,157.6z"/>
	<rect y="0" fill="none" width="612" height="351.9"/>
	<rect y="0" fill="none" width="612" height="351.9"/>
	<g>
		<path fill="#F0C727" d="M344.2,214.2l-3.1-65.8c0-4.6-3.1-6.1-6.1-6.1c1.5,1.5,3.1,3.1,4.6,6.1c0,0-3.1-1.5-4.6-1.5l3.1,61.2l0,0
			l-3.1-59.7c-1.5,0-4.6,1.5-4.6,3.1l3.1,53.6l-29.1-26c-1.5,0-1.5,0-1.5,0L344.2,214.2l-1.5-1.5L344.2,214.2z"/>
		<path fill="#F0C727" d="M264.7,148.4c0-4.6,3.1-6.1,6.1-6.1c3.1,0,6.1,1.5,10.7,3.1c3.1,1.5,4.6,3.1,7.6,3.1l0,0l-1.5,1.5h1.5
			c1.5,0,1.5,0,3.1,0c0,0,0-1.5,1.5-1.5c3.1,0,6.1,0,9.2-1.5h1.5c0,0,0,1.5-1.5,3.1c-1.5,0-1.5-1.5-1.5-1.5
			c-1.5,1.5-3.1,3.1-4.6,3.1c1.5,0,1.5-1.5,1.5-1.5l-1.5-1.5c-1.5,1.5-3.1,1.5-4.6,1.5h1.5c0,0,0,0-1.5,1.5l6.1,3.1
			c1.5,0,4.6-1.5,6.1-3.1c0,1.5,0,1.5,0,1.5c1.5,0,1.5,1.5,1.5,1.5l1.5-1.5c0-1.5,0-1.5,0-1.5c1.5,1.5,4.6,3.1,6.1,3.1h1.5l-1.5-1.5
			c-1.5-1.5-1.5-1.5-1.5-1.5c1.5,0,3.1,0,4.6,0h1.5l-1.5-1.5c0,0,0,0-1.5-1.5c3.1,0,7.7-1.5,10.7-3.1c3.1-3.1,6.1-3.1,9.2-3.1
			c-1.5,0-1.5-1.5-3.1-1.5c-3.1,0-7.6,1.5-9.2,3.1c-3.1,1.5-6.1,3.1-9.2,3.1c-3.1-4.6-3.1-10.7-3.1-12.2c1.5-7.6-1.5-12.2-6.1-13.8
			c-1.5,0-1.5,0-1.5,0s-1.5,0-3.1,0c-1.5,0-3.1,1.5-3.1,1.5h-1.5h-1.5c-1.5-1.5-3.1,0-3.1,1.5l0,0c0,0,0,1.5,1.5,1.5
			c0-1.5,3.1-1.5,3.1-1.5h1.5h1.5c1.5,0,1.5-1.5,3.1-1.5h1.5c1.5,0,1.5,0,1.5,0c3.1,0,6.1,4.6,4.6,12.2c0,3.1,0,7.6,3.1,12.2
			c-3.1,0-6.1,0-10.7-1.5c-1.5,1.5-4.6,0-6.1,1.5c3.1-4.6,3.1-9.2,3.1-15.3c0-3.1-1.5-3.1-3.1-4.6h-1.5c0,0,1.5,1.5,1.5,3.1
			c1.5,7.7,0,12.2-4.6,16.8c-4.6,0-7.6-1.5-10.7-3.1c-1.5-1.5-6.1-3.1-9.2-3.1s-7.6,1.5-7.6,7.6l-1.5,67.3l41.3-36.7L263,214.4
			L264.7,148.4z M307.5,149.9C309.1,149.9,309.1,151.5,307.5,149.9C309.1,151.5,307.5,149.9,307.5,149.9z M313.7,148.4
			C313.7,148.4,313.7,149.9,313.7,148.4c-1.5,1.5-3.1,1.5-4.6,0l-1.5,1.5c-1.5-1.5-1.5-1.5-3.1-3.1
			C307.5,148.4,310.6,148.4,313.7,148.4z"/>
		<path fill="#F0C727" d="M293.8,127L293.8,127L293.8,127L293.8,127z"/>
		<path fill="#F0C727" d="M292.2,125.5C292.2,125.5,293.8,127,292.2,125.5C293.8,125.5,293.8,125.5,292.2,125.5z"/>
		<path fill="#F0C727" d="M289.2,125.5C289.2,125.5,289.2,123.9,289.2,125.5L289.2,125.5L289.2,125.5z"/>
	</g>
	<rect y="0" fill="none" width="612" height="351.9"/>
	<path fill="#F0C727" d="M324.4,154.5l1.5,45.9l3.1,3.1V153C327.4,153,325.9,154.5,324.4,154.5L324.4,154.5z"/>
	<rect y="0" fill="none" width="612" height="351.9"/>
	<path fill="#F0C727" d="M319.8,157.6l1.5,38.2l3.1,3.1l-1.5-42.8L319.8,157.6L319.8,157.6z"/>
	<rect y="0" fill="none" width="612" height="351.9"/>
	<path fill="#F0C727" d="M313.7,157.6l1.5,32.1l3.1,3.1l-1.5-35.2C316.7,157.6,315.2,157.6,313.7,157.6L313.7,157.6z"/>
	<rect y="0" fill="none" width="612" height="351.9"/>
	<polygon fill="#FFFFFF" points="290.7,174.4 278.5,214.2 293.8,215.7 301.4,186.7 	"/>
	<rect y="0" fill="none" width="612" height="351.9"/>
	<rect y="0" fill="none" width="612" height="351.9"/>
	<polygon fill="#FFFFFF" points="315.2,174.4 325.9,214.2 310.6,215.7 304.5,186.7 	"/>
	<rect y="0" fill="none" width="612" height="351.9"/>
	<rect y="0" fill="none" width="612" height="351.9"/>
	<rect y="0" fill="none" width="612" height="351.9"/>
	<rect y="0" fill="none" width="612" height="351.9"/>
	<rect y="0" fill="none" width="612" height="351.9"/>
	<rect y="0" fill="none" width="612" height="351.9"/>
	<rect y="0" fill="none" width="612" height="351.9"/>
	<rect y="0" fill="none" width="612" height="351.9"/>
	<rect y="0" fill="none" width="612" height="351.9"/>
	<rect y="0" fill="none" width="612" height="351.9"/>
	<rect y="0" fill="none" width="612" height="351.9"/>
	<rect y="0" fill="none" width="612" height="351.9"/>
	<rect y="0" fill="none" width="612" height="351.9"/>
	<path fill="#F0C727" d="M313.7,217.3L313.7,217.3l-3.1-3.1c0,0,0,0,0-1.5c0,0,0,0,1.5,0l1.5,1.5l1.5-4.6l0,0l0,0l1.5,3.1l1.5-4.6
		l0,0l0,0l3.1,3.1c0,0,0,0,0,1.5c0,0,0,0-1.5,0l-1.5-3.1l-1.5,4.6l0,0l0,0l-1.5-3.1L313.7,217.3L313.7,217.3L313.7,217.3
		L313.7,217.3z"/>
	<rect y="0" fill="none" width="612" height="351.9"/>
	<path fill="#FFFFFF" d="M302.9,153c4.6,3.1,10.7,6.1,18.4,4.6c0,16.8-4.6,27.5-18.4,35.2c-12.2-7.6-16.8-19.9-18.4-35.2
		C292.2,157.6,298.4,156.1,302.9,153L302.9,153z"/>
	<rect y="0" fill="none" width="612" height="351.9"/>
	<path fill="#F0C727" d="M302.9,192.8L302.9,192.8c-12.2-7.6-18.4-18.4-18.4-35.2c1.5,0,1.5,0,3.1,0l0,0c6.1,0,10.7-1.5,15.3-4.6
		c4.6,3.1,10.7,6.1,18.4,4.6C319.8,174.4,315.2,185.1,302.9,192.8L302.9,192.8L302.9,192.8z M284.6,157.6c1.5,16.8,6.1,26,18.4,35.2
		c12.2-7.6,16.8-18.4,16.8-35.2h-1.5c-6.1,0-12.2-1.5-16.8-4.6c-3.1,3.1-9.2,4.6-15.3,4.6l0,0C286.1,157.6,286.1,157.6,284.6,157.6
		L284.6,157.6z"/>
	<rect y="0" fill="none" width="612" height="351.9"/>
	<rect y="0" fill="none" width="612" height="351.9"/>
	<path fill="#F0C727" d="M302.9,191.3L302.9,191.3c-10.7-6.1-15.3-18.4-16.8-32.1l0,0l0,0c6.1,0,12.2-1.5,15.3-4.6l0,0
		c3.1,3.1,9.2,4.6,15.3,4.6l0,0l0,0C318.2,172.9,313.7,185.1,302.9,191.3L302.9,191.3L302.9,191.3z M287.6,159.1
		c1.5,13.8,6.1,24.5,15.3,30.6c9.2-6.1,15.3-16.8,15.3-30.6c-4.6,0-10.7,0-15.3-4.6C298.4,157.6,293.8,159.1,287.6,159.1
		L287.6,159.1z"/>
	<rect y="0" fill="none" width="612" height="351.9"/>
	<path fill="#FFFFFF" d="M286.1,214.2c3.1,0,7.6,1.5,10.7,0c1.5,0,3.1,3.1,0,3.1c-3.1,0-9.2,0-10.7,0c-3.1,0-7.7-1.5-10.7-1.5
		c-3.1-1.5-1.5-4.6,1.5-3.1C280,212.7,283.1,214.2,286.1,214.2L286.1,214.2z"/>
	<rect y="0" fill="none" width="612" height="351.9"/>
	<rect y="0" fill="none" width="612" height="351.9"/>
	<path fill="#FFFFFF" d="M318.2,214.2c-3.1,0-7.6,1.5-10.7,0c-1.5,0-3.1,3.1,0,3.1s9.2,0,10.7,0c3.1,0,7.6-1.5,10.7-1.5
		c3.1-1.5,1.5-4.6-1.5-3.1C325.9,212.7,322.8,214.2,318.2,214.2L318.2,214.2z"/>
	<rect y="0" fill="none" width="612" height="351.9"/>
	<rect y="0" fill="none" width="612" height="351.9"/>
	<path fill="#FFFFFF" d="M275.4,212.7c-3.1,0-4.6,3.1-3.1,4.6c0-1.5,3.1-1.5,3.1-1.5C275.4,214.2,273.9,214.2,275.4,212.7
		L275.4,212.7z"/>
	<rect y="0" fill="none" width="612" height="351.9"/>
	<path fill="#F0C727" d="M272.3,217.3C270.8,217.3,270.8,217.3,272.3,217.3c-1.5-1.5-1.5-3.1,0-4.6c0-1.5,1.5-1.5,3.1-1.5
		c0,0,0,0,1.5,0l0,0c0,0,0,0,0,1.5v1.5l-1.5,1.5C272.3,217.3,272.3,217.3,272.3,217.3L272.3,217.3L272.3,217.3z M273.9,212.7
		C273.9,212.7,272.3,214.2,273.9,212.7c-1.5,1.5-1.5,1.5-1.5,3.1c0,0,0,0,1.5,0h1.5C273.9,214.2,273.9,214.2,273.9,212.7
		C273.9,214.2,273.9,212.7,273.9,212.7L273.9,212.7z"/>
	<rect y="0" fill="none" width="612" height="351.9"/>
	<path fill="#FFFFFF" d="M286.1,220.3c0-1.5,1.5-1.5,1.5-3.1c0-1.5,0-3.1-1.5-3.1s-1.5,1.5-1.5,1.5
		C284.6,218.8,286.1,218.8,286.1,220.3L286.1,220.3z"/>
	<rect y="0" fill="none" width="612" height="351.9"/>
	<rect y="0" fill="none" width="612" height="351.9"/>
	<path fill="#FFFFFF" d="M299.9,215.7c3.1,0,3.1,3.1,1.5,6.1c0-1.5-3.1-1.5-3.1-3.1C298.4,217.3,299.9,217.3,299.9,215.7
		L299.9,215.7z"/>
	<rect y="0" fill="none" width="612" height="351.9"/>
	<path fill="#F0C727" d="M301.4,221.9C301.4,221.9,299.9,221.9,301.4,221.9C299.9,221.9,299.9,221.9,301.4,221.9
		c0-1.5-1.5-1.5-1.5-1.5l-1.5-1.5c0-1.5,0-1.5,1.5-1.5c0,0,0,0,0-1.5l0,0c1.5,0,1.5,0,3.1,1.5C302.9,217.3,302.9,220.3,301.4,221.9
		L301.4,221.9L301.4,221.9z M299.9,215.7C299.9,217.3,299.9,217.3,299.9,215.7c-1.5,1.5-1.5,1.5-1.5,1.5l0,0c0,0,0,0,1.5,1.5
		C301.4,218.8,301.4,217.3,299.9,215.7C301.4,217.3,299.9,215.7,299.9,215.7L299.9,215.7z"/>
	<rect y="0" fill="none" width="612" height="351.9"/>
	<path fill="#FFFFFF" d="M330.5,212.7c3.1,0,4.6,3.1,3.1,4.6c0-1.5-3.1-1.5-3.1-1.5C330.5,214.2,330.5,214.2,330.5,212.7
		L330.5,212.7z"/>
	<rect y="0" fill="none" width="612" height="351.9"/>
	<path fill="#F0C727" d="M333.5,217.3L333.5,217.3l-1.5-1.5c0,0-1.5,0-1.5-1.5s0-1.5,0-1.5s0,0,0-1.5l0,0l0,0c1.5,0,3.1,0,3.1,1.5
		C335.1,214.2,335.1,215.7,333.5,217.3L333.5,217.3L333.5,217.3z M330.5,212.7C330.5,212.7,330.5,214.2,330.5,212.7
		c0,1.5,0,1.5,0,1.5s0,0,1.5,0c0,0,0,0,1.5,0C333.5,215.7,333.5,214.2,330.5,212.7C332,214.2,332,212.7,330.5,212.7L330.5,212.7z"/>
	<rect y="0" fill="none" width="612" height="351.9"/>
	<path fill="#FFFFFF" d="M318.2,220.3c0-1.5-1.5-1.5-1.5-3.1c0-1.5,0-3.1,1.5-3.1s1.5,1.5,1.5,1.5
		C321.3,218.8,318.2,218.8,318.2,220.3L318.2,220.3z"/>
	<rect y="0" fill="none" width="612" height="351.9"/>
	<path fill="#F0C727" d="M318.2,221.9C318.2,221.9,318.2,220.3,318.2,221.9c0-1.5-1.5-1.5-1.5-1.5l-1.5-1.5c0-1.5,0-3.1,1.5-3.1
		s3.1,1.5,3.1,3.1C319.8,220.3,319.8,220.3,318.2,221.9C319.8,220.3,319.8,220.3,318.2,221.9C319.8,220.3,319.8,221.9,318.2,221.9
		L318.2,221.9z M318.2,215.7l-1.5,1.5v1.5l0,0l0,0C319.8,217.3,319.8,217.3,318.2,215.7C319.8,215.7,319.8,215.7,318.2,215.7
		L318.2,215.7z"/>
	<rect y="0" fill="none" width="612" height="351.9"/>
	<path fill="#FFFFFF" d="M306,215.7c-3.1,0-3.1,3.1-1.5,6.1c0-1.5,3.1-1.5,3.1-3.1C307.5,217.3,304.5,217.3,306,215.7L306,215.7z"/>
	<rect y="0" fill="none" width="612" height="351.9"/>
	<path fill="#F0C727" d="M304.5,221.9L304.5,221.9c-1.5-1.5-1.5-3.1-1.5-4.6s1.5-1.5,3.1-1.5l0,0l0,0c0,1.5,1.5,1.5,1.5,3.1
		c0,0,0,1.5-1.5,1.5C306,220.3,304.5,220.3,304.5,221.9L304.5,221.9L304.5,221.9L304.5,221.9z M304.5,215.7
		C304.5,215.7,304.5,217.3,304.5,215.7c-1.5,1.5,0,3.1,0,3.1s0,0,1.5-1.5l0,0C306,217.3,306,217.3,304.5,215.7
		C306,217.3,304.5,217.3,304.5,215.7L304.5,215.7z"/>
	<rect y="0" fill="none" width="612" height="351.9"/>
	<path fill="#FFFFFF" d="M275.4,212.7c1.5,0,3.1,0,3.1,1.5L275.4,212.7z"/>
	<rect y="0" fill="none" width="612" height="351.9"/>
	<path fill="#F0C727" d="M278.5,214.2L278.5,214.2h-3.1l0,0l0,0C276.9,212.7,278.5,212.7,278.5,214.2
		C280,214.2,280,214.2,278.5,214.2L278.5,214.2L278.5,214.2z"/>
	<rect y="0" fill="none" width="612" height="351.9"/>
	<path fill="#FFFFFF" d="M280,214.2c0,0,3.1,0,3.1,1.5L280,214.2z"/>
	<rect y="0" fill="none" width="612" height="351.9"/>
	<path fill="#F0C727" d="M284.6,215.7L284.6,215.7l-3.1-1.5l0,0C280,214.2,283.1,214.2,284.6,215.7L284.6,215.7L284.6,215.7
		L284.6,215.7z"/>
	<rect y="0" fill="none" width="612" height="351.9"/>
	<path fill="#FFFFFF" d="M296.8,215.7c-1.5,0-3.1,0-3.1,0H296.8z"/>
	<rect y="0" fill="none" width="612" height="351.9"/>
	<path fill="#F0C727" d="M293.8,217.3L293.8,217.3L293.8,217.3c0-1.5,1.5-1.5,3.1-1.5l0,0l0,0L293.8,217.3L293.8,217.3L293.8,217.3z
		"/>
	<rect y="0" fill="none" width="612" height="351.9"/>
	<path fill="#FFFFFF" d="M292.2,215.7h-3.1H292.2z"/>
	<rect y="0" fill="none" width="612" height="351.9"/>
	<path fill="#F0C727" d="M292.2,217.3h-3.1l0,0l0,0C289.2,215.7,292.2,215.7,292.2,217.3C292.2,215.7,292.2,215.7,292.2,217.3
		L292.2,217.3L292.2,217.3z"/>
	<rect y="0" fill="none" width="612" height="351.9"/>
	<path fill="#FFFFFF" d="M328.9,212.7c-1.5,0-1.5,0-3.1,1.5L328.9,212.7z"/>
	<rect y="0" fill="none" width="612" height="351.9"/>
	<path fill="#F0C727" d="M325.9,214.2L325.9,214.2L325.9,214.2c0-1.5,1.5-1.5,3.1-1.5l0,0l0,0L325.9,214.2L325.9,214.2L325.9,214.2z
		"/>
	<rect y="0" fill="none" width="612" height="351.9"/>
	<path fill="#FFFFFF" d="M324.4,214.2c0,0-3.1,0-3.1,1.5L324.4,214.2z"/>
	<rect y="0" fill="none" width="612" height="351.9"/>
	<path fill="#F0C727" d="M321.3,215.7L321.3,215.7L321.3,215.7c1.5-1.5,3.1-1.5,3.1-1.5l0,0L321.3,215.7L321.3,215.7L321.3,215.7z"
		/>
	<rect y="0" fill="none" width="612" height="351.9"/>
	<path fill="#FFFFFF" d="M307.5,215.7c1.5,0,3.1,0,3.1,0H307.5z"/>
	<rect y="0" fill="none" width="612" height="351.9"/>
	<g>
		<path fill="#F0C727" d="M281.5,226.4c1.5-1.5,1.5-1.5,3.1-1.5v-1.5c-1.5,0-1.5,0-1.5,0C281.5,224.9,281.5,224.9,281.5,226.4z"/>
		<path fill="#F0C727" d="M278.5,223.4C276.9,223.4,276.9,223.4,278.5,223.4c0,0,0-1.5,0-3.1v-1.5c-1.5,0-1.5,0-1.5,0v1.5
			c0,1.5-1.5,1.5-1.5,3.1S276.9,224.9,278.5,223.4L278.5,223.4c1.5,3.1,1.5,3.1,3.1,3.1C280,224.9,280,224.9,278.5,223.4
			L278.5,223.4z"/>
		<path fill="#F0C727" d="M342.7,218.8c-1.5,0-1.5-1.5-1.5-1.5c-1.5,0-1.5-1.5-3.1-1.5c0-3.1-3.1-3.1-6.1-3.1c0,0-1.5-1.5-3.1-1.5
			c-1.6,0-3.1,0-4.6,1.5l-4.6-21.4l1.5-1.5c0-1.5,0-1.5,0-1.5c-1.5,0-1.5,0-1.5,0l-1.5,1.5l-3.1-13.8l0,0c1.5-4.6,3.1-10.7,3.1-16.8
			c-6.1,0-12.2-1.5-15.3-4.6c-4.6,3.1-9.2,4.6-16.8,4.6c0,6.1,1.5,12.2,4.6,16.8l-1.5-1.5l-4.6,16.8l1.5-33.7
			c-1.5,0-3.1-1.5-4.6-1.5l-1.5,42.8l3.1-1.5l-4.6,15.3c-1.5,0-1.5,0-3.1,0c-1.5,0-3.1,0-3.1,1.5c0,0,0,0,0,1.5l0,0
			c-1.5,0-3.1,1.5-3.1,1.5c-1.5,1.5-1.5,1.5-1.5,1.5c-1.5,0-1.5,1.5-1.5,1.5c1.5,1.5,3.1,1.5,3.1,1.5c1.5-1.5,1.5-3.1,3.1-1.5
			c1.5,0,1.5,0,1.5,0c0-1.5,0-1.5,0-1.5s0-1.5,3.1-1.5c3.1,0,6.1,1.5,7.7,1.5c0,1.5,0,1.5,0,1.5s1.5,0,1.5,1.5
			c1.5-1.5,1.5-1.5,1.5-3.1c1.5,0,3.1,0,6.1,0c1.5,0,3.1,0,4.6,1.5c1.5-1.5,1.5-1.5,3.1-1.5h1.5c1.5,0,3.1,0,4.6,0l0,0l0,0
			c3.1,0,7.6,0,10.7,0c-3.1,0-4.6,1.5-7.6,1.5c3.1,0,6.1,0,7.6,0s7.6-1.5,10.7-1.5c0,0,1.5,0,1.5-1.5c1.5,0,1.5,1.5,1.5,1.5
			c0,1.5,0,1.5,0,1.5h1.5l1.5,1.5c1.5,0,1.5,0,1.5,0c0,1.5,0,1.5,0,1.5s0,1.5-1.5,1.5s-1.5,1.5-1.5,1.5c0,1.5,0,3.1-1.5,3.1
			c-6.1,1.5-16.8,3.1-29.1,3.1c12.2,0,23-1.5,35.2-3.1c3.1-1.5,3.1-3.1,3.1-4.6c1.5-1.5,1.5-1.5,1.5-3.1
			C344.2,221.9,344.2,220.3,342.7,218.8C344.2,218.8,342.7,218.8,342.7,218.8z M293.8,214.2c-1.5,0-1.5,0-3.1,0v-1.5v1.5
			c-1.5,0-3.1,0-3.1,0l1.5-3.1l-1.5,1.5v1.5h-1.5h1.5l-1.5-3.1l-3.1,3.1c0,0,0,0-1.5,0l9.2-38.2c1.5,4.6,4.6,9.2,9.2,12.2
			L293.8,214.2L293.8,214.2L293.8,214.2z M293.8,214.2L293.8,214.2h1.5C295.3,214.2,295.3,214.2,293.8,214.2z M304.5,214.2H303h-1.5
			c-1.5,0-3.1,0-4.6,0l1.5-1.5l-1.5-1.5l4.6-21.4l1.5,1.5l-3.1,19.9l1.5-10.7v10.7l0,0l1.5-19.9l0,0l0,0L304.5,214.2V202V214.2
			l1.5-1.5C306,212.7,306,214.2,304.5,214.2z M309.1,211.1L309.1,211.1L309.1,211.1L309.1,211.1z M310.6,212.7L310.6,212.7l-3.1-9.2
			v-4.6l-3.1-10.7l0,0l1.5,4.6v-6.1c3.1-3.1,6.1-6.1,7.7-10.7l3.1,13.8l-3.1-4.6c-1.5,0-1.5,0-1.5,0c0,1.5,0,1.5,0,1.5l4.6,4.6l0,0
			l4.6,19.9c-1.5,0-3.1,0-6.1,0C316.7,212.7,313.7,212.7,310.6,212.7z M321.3,217.3c3.1,0,4.6-1.5,6.1-1.5h1.5l0,0
			C327.4,217.3,322.8,217.3,321.3,217.3z"/>
		<path fill="#F0C727" d="M270.8,224.9c-1.5-1.5-1.5-1.5-1.5-3.1C269.3,223.4,269.3,224.9,270.8,224.9z"/>
		<path fill="#F0C727" d="M273.9,229.5c-1.5-1.5-1.5-1.5-1.5-3.1s-1.5-1.5-1.5-1.5C270.8,226.4,270.8,229.5,273.9,229.5z"/>
		<polygon fill="#F0C727" points="307.5,194.3 307.5,198.9 310.6,212.7 312.1,211.1 		"/>
		<polygon fill="#F0C727" points="301.4,212.7 302.9,214.2 301.4,211.1 		"/>
	</g>
	<rect y="0" fill="none" width="612" height="351.9"/>
	<path fill="#FFFFFF" d="M312.1,215.7h3.1H312.1z"/>
	<rect y="0" fill="none" width="612" height="351.9"/>
	<path fill="#F0C727" d="M316.7,217.3h-3.1l0,0l0,0C313.7,215.7,315.2,215.7,316.7,217.3C316.7,215.7,316.7,215.7,316.7,217.3
		L316.7,217.3L316.7,217.3z"/>
	<rect y="0" fill="none" width="612" height="351.9"/>
	<path fill="#F0C727" d="M309.1,125.5c-1.5-3.1-3.1-4.6-4.6-4.6s-3.1,0-3.1,0c-1.5,0-3.1,1.5-3.1,1.5c1.5,1.5,1.5,1.5,3.1,3.1
		c1.5,0,1.5,0,3.1-1.5C304.5,122.4,307.5,122.4,309.1,125.5L309.1,125.5z"/>
	<rect y="0" fill="none" width="612" height="351.9"/>
	<path fill="#F0C727" d="M301.4,125.5C299.9,125.5,299.9,125.5,301.4,125.5c-1.5,0-1.5,0-1.5-1.5l-1.5-1.5c0-1.5,1.5-3.1,3.1-3.1
		h1.5c1.5,0,1.5,0,3.1,0c1.5,0,3.1,1.5,4.6,4.6c-1.5-1.5-4.6-1.5-4.6,0C302.9,125.5,301.4,125.5,301.4,125.5L301.4,125.5z
		 M299.9,120.9c-1.5,0-1.5,1.5-3.1,1.5c0,0,1.5,0,1.5,1.5c0,0,0,0,1.5,0s1.5,0,3.1-1.5c1.5,0,3.1,0,4.6,1.5
		c-1.5-1.5-1.5-1.5-3.1-3.1c-1.5,0-1.5,0-1.5,0h-3V120.9L299.9,120.9z"/>
	<rect y="0" fill="none" width="612" height="351.9"/>
	<path fill="#FFFFFF" d="M299.9,122.4C299.9,122.4,299.9,123.9,299.9,122.4C301.4,123.9,301.4,122.4,299.9,122.4L299.9,122.4z"/>
	<rect y="0" fill="none" width="612" height="351.9"/>
	<path fill="#FFFFFF" d="M299.9,123.9C299.9,123.9,298.4,123.9,299.9,123.9C298.4,120.9,301.4,120.9,299.9,123.9
		C301.4,123.9,301.4,123.9,299.9,123.9L299.9,123.9z"/>
	<rect y="0" fill="none" width="612" height="351.9"/>
	<path fill="#FFFFFF" d="M309.1,157.6v29.1c-1.5,1.5-3.1,3.1-6.1,4.6c-1.5-1.5-4.6-3.1-6.1-4.6v-29.1c1.5,0,4.6-1.5,6.1-3.1
		C304.5,156.1,306,156.1,309.1,157.6L309.1,157.6z"/>
	<g>
		<path fill="#CCCCCC" d="M608.9,3.1v344.3H3V3.1H608.9 M612,0H0v351.9h612V0L612,0z"/>
	</g>
</g>
</svg>
