<?xml version="1.0" encoding="utf-8"?>
<!-- Generator: Adobe Illustrator 17.1.0, SVG Export Plug-In . SVG Version: 6.00 Build 0)  -->
<!DOCTYPE svg PUBLIC "-//W3C//DTD SVG 1.1//EN" "http://www.w3.org/Graphics/SVG/1.1/DTD/svg11.dtd">
<svg version="1.1" id="Layer_1" xmlns="http://www.w3.org/2000/svg" xmlns:xlink="http://www.w3.org/1999/xlink" x="0px" y="0px"
	 viewBox="0 0 40 23" enable-background="new 0 0 40 23" xml:space="preserve">
<g>
	<g>
		<defs>
			<rect id="SVGID_178_" width="40" height="23"/>
		</defs>
		<clipPath id="SVGID_2_">
			<use xlink:href="#SVGID_178_"  overflow="visible"/>
		</clipPath>
		<rect clip-path="url(#SVGID_2_)" fill="#2D6B4F" width="40" height="23"/>
		<rect y="4.6" clip-path="url(#SVGID_2_)" fill="#F5CD28" width="40" height="4.6"/>
		<rect y="13.8" clip-path="url(#SVGID_2_)" fill="#F5CD28" width="40" height="4.6"/>
		<rect x="0" y="0" clip-path="url(#SVGID_2_)" fill="#C0003B" width="14" height="13.8"/>
		<polygon clip-path="url(#SVGID_2_)" fill="#FFFFFF" points="7,2.5 5.6,6.7 7.7,7.4 		"/>
		<polygon clip-path="url(#SVGID_2_)" fill="#FFFFFF" points="7,2.5 8.4,6.7 6.3,7.4 		"/>
		<polygon clip-path="url(#SVGID_2_)" fill="#FFFFFF" points="11.2,5.5 6.8,5.5 6.8,7.7 		"/>
		<polygon clip-path="url(#SVGID_2_)" fill="#FFFFFF" points="11.2,5.5 7.6,8.1 6.3,6.3 		"/>
		<polygon clip-path="url(#SVGID_2_)" fill="#FFFFFF" points="2.8,5.5 6.4,8.1 7.7,6.3 		"/>
		<polygon clip-path="url(#SVGID_2_)" fill="#FFFFFF" points="2.8,5.5 7.2,5.5 7.2,7.7 		"/>
		<polygon clip-path="url(#SVGID_2_)" fill="#FFFFFF" points="9.6,10.4 8.2,6.3 6.1,7 		"/>
		<polygon clip-path="url(#SVGID_2_)" fill="#FFFFFF" points="9.6,10.4 6,7.9 7.3,6.1 		"/>
		<polygon clip-path="url(#SVGID_2_)" fill="#FFFFFF" points="4.4,10.4 8,7.9 6.7,6.1 		"/>
		<polygon clip-path="url(#SVGID_2_)" fill="#FFFFFF" points="4.4,10.4 5.8,6.3 7.9,7 		"/>
	</g>
</g>
<g>
	<path fill="#CCCCCC" d="M39.8,0.2v22.5H0.2V0.2H39.8 M40,0H0v23h40V0L40,0z"/>
</g>
</svg>
