<?xml version="1.0" encoding="utf-8"?>
<!-- Generator: Adobe Illustrator 17.1.0, SVG Export Plug-In . SVG Version: 6.00 Build 0)  -->
<!DOCTYPE svg PUBLIC "-//W3C//DTD SVG 1.1//EN" "http://www.w3.org/Graphics/SVG/1.1/DTD/svg11.dtd">
<svg version="1.1" id="Layer_1" xmlns="http://www.w3.org/2000/svg" xmlns:xlink="http://www.w3.org/1999/xlink" x="0px" y="0px"
	 viewBox="0 0 40 23" enable-background="new 0 0 40 23" xml:space="preserve">
<g>
	<g>
		<defs>
			<rect id="SVGID_186_" width="40" height="23"/>
		</defs>
		<clipPath id="SVGID_2_">
			<use xlink:href="#SVGID_186_"  overflow="visible"/>
		</clipPath>
		<polygon clip-path="url(#SVGID_2_)" fill="#42A04B" points="0,0 0,17.5 30.5,0 		"/>
		<polygon clip-path="url(#SVGID_2_)" fill="#4694D2" points="9.5,23 40,23 40,5.5 		"/>
		<polygon clip-path="url(#SVGID_2_)" fill="#EAC126" points="40,0 40,0 40,0 		"/>
		<polygon clip-path="url(#SVGID_2_)" fill="#EAC126" points="0,23 0,23 0,23 		"/>
		<polygon clip-path="url(#SVGID_2_)" fill="#EAC126" points="30.5,0 0,17.5 0,19.2 33.5,0 		"/>
		<polygon clip-path="url(#SVGID_2_)" fill="#EAC126" points="0,23 0,23 0,23 0,23 		"/>
		<polygon clip-path="url(#SVGID_2_)" fill="#EAC126" points="40,0 40,0 40,0 		"/>
		<polygon clip-path="url(#SVGID_2_)" fill="#EAC126" points="6.5,23 9.5,23 40,5.5 40,3.8 		"/>
		<polygon clip-path="url(#SVGID_2_)" points="33.5,0 0,19.2 0,23 0,23 0,23 6.5,23 40,3.8 40,0 40,0 40,0 		"/>
	</g>
</g>
<g>
	<path fill="#CCCCCC" d="M39.8,0.2v22.5H0.2V0.2H39.8 M40,0H0v23h40V0L40,0z"/>
</g>
</svg>
