<?xml version="1.0" encoding="utf-8"?>
<!-- Generator: Adobe Illustrator 17.1.0, SVG Export Plug-In . SVG Version: 6.00 Build 0)  -->
<!DOCTYPE svg PUBLIC "-//W3C//DTD SVG 1.1//EN" "http://www.w3.org/Graphics/SVG/1.1/DTD/svg11.dtd">
<svg version="1.1" id="Layer_1" xmlns="http://www.w3.org/2000/svg" xmlns:xlink="http://www.w3.org/1999/xlink" x="0px" y="0px"
	 viewBox="0 0 40 23" enable-background="new 0 0 40 23" xml:space="preserve">
<g>
	<g>
		<defs>
			<rect id="SVGID_122_" width="40" height="23"/>
		</defs>
		<clipPath id="SVGID_2_">
			<use xlink:href="#SVGID_122_"  overflow="visible"/>
		</clipPath>
		<polygon clip-path="url(#SVGID_2_)" fill="#1F357E" points="0,0 0,23 40,0 		"/>
		<polygon clip-path="url(#SVGID_2_)" fill="#3D9546" points="40,0 0,23 40,23 		"/>
		<g clip-path="url(#SVGID_2_)">
			<defs>
				<rect id="SVGID_124_" width="40" height="23"/>
			</defs>
			<clipPath id="SVGID_4_">
				<use xlink:href="#SVGID_124_"  overflow="visible"/>
			</clipPath>
			<g clip-path="url(#SVGID_4_)">
				<polygon fill="#FFFFFF" points="2.1,26.5 -2.1,19.5 37.9,-3.5 42.1,3.5 2.1,26.5 				"/>
			</g>
			<g clip-path="url(#SVGID_4_)">
				<polygon fill="#C0003B" points="1.6,25.7 -1.6,20.3 38.4,-2.7 41.6,2.7 1.6,25.7 				"/>
			</g>
		</g>
		<polygon clip-path="url(#SVGID_2_)" fill="#F5CD28" points="11.8,8.2 10.1,8 10.4,9.6 9,8.5 8.4,10.2 7.8,8.5 6.5,9.6 6.8,8 
			5.1,8.2 6.2,6.9 4.6,6.3 6.2,5.7 5.1,4.4 6.8,4.7 6.5,3 7.8,4.1 8.4,2.5 9,4.1 10.4,3 10.1,4.7 11.8,4.4 10.7,5.7 12.3,6.3 
			10.7,6.9 		"/>
		<g clip-path="url(#SVGID_2_)">
			<defs>
				<rect id="SVGID_126_" width="40" height="23"/>
			</defs>
			<clipPath id="SVGID_6_">
				<use xlink:href="#SVGID_126_"  overflow="visible"/>
			</clipPath>
			<path clip-path="url(#SVGID_6_)" fill="#1F357E" d="M10.8,6.3c0,1.3-1,2.3-2.3,2.3c-1.3,0-2.3-1-2.3-2.3c0-1.3,1-2.3,2.3-2.3
				C9.7,4,10.8,5.1,10.8,6.3"/>
			<path clip-path="url(#SVGID_6_)" fill="#F5CD28" d="M10.4,6.3c0,1.1-0.9,1.9-1.9,1.9c-1.1,0-1.9-0.9-1.9-1.9
				c0-1.1,0.9-1.9,1.9-1.9C9.5,4.4,10.4,5.3,10.4,6.3"/>
		</g>
	</g>
</g>
<g>
	<path fill="#CCCCCC" d="M39.8,0.2v22.5H0.2V0.2H39.8 M40,0H0v23h40V0L40,0z"/>
</g>
</svg>
