<?xml version="1.0" encoding="utf-8"?>
<!-- Generator: Adobe Illustrator 17.1.0, SVG Export Plug-In . SVG Version: 6.00 Build 0)  -->
<!DOCTYPE svg PUBLIC "-//W3C//DTD SVG 1.1//EN" "http://www.w3.org/Graphics/SVG/1.1/DTD/svg11.dtd">
<svg version="1.1" id="Layer_1" xmlns="http://www.w3.org/2000/svg" xmlns:xlink="http://www.w3.org/1999/xlink" x="0px" y="0px"
	 viewBox="0 0 40 23" enable-background="new 0 0 40 23" xml:space="preserve">
<g>
	<g>
		<defs>
			<rect id="SVGID_3_" width="40" height="23"/>
		</defs>
		<clipPath id="SVGID_2_">
			<use xlink:href="#SVGID_3_"  overflow="visible"/>
		</clipPath>
		<rect x="0" clip-path="url(#SVGID_2_)" fill="#EA0020" width="9.4" height="23"/>
		<rect x="30.6" clip-path="url(#SVGID_2_)" fill="#EA0020" width="9.4" height="23"/>
		<rect x="9.4" clip-path="url(#SVGID_2_)" fill="#FFFFFF" width="21.2" height="23"/>
		<g clip-path="url(#SVGID_2_)">
			<defs>
				<rect id="SVGID_5_" width="40" height="23"/>
			</defs>
			<clipPath id="SVGID_4_">
				<use xlink:href="#SVGID_5_"  overflow="visible"/>
			</clipPath>
			<path clip-path="url(#SVGID_4_)" fill="#EA0020" d="M20,3l-1.4,2.7c-0.2,0.3-0.4,0.3-0.7,0.1l-1-0.5l0.7,4.1
				C17.8,10,17.3,10,17,9.7l-1.8-2l-0.3,1C15,8.9,14.8,9,14.6,9l-2.2-0.5l0.6,2.2c0.1,0.5,0.2,0.7-0.1,0.8l-0.8,0.4l3.8,3.2
				c0.2,0.1,0.2,0.3,0.2,0.5l-0.3,1.1c1.3-0.2,2.5-0.3,3.8-0.4c0.1,0,0.3,0.1,0.3,0.2l-0.2,4.1h0.6l-0.1-4.1c0-0.1,0.2-0.2,0.3-0.2
				c1.3,0.2,2.5,0.3,3.8,0.4L24,15.6c-0.1-0.2,0-0.4,0.2-0.5l3.8-3.2l-0.8-0.4c-0.3-0.1-0.3-0.3-0.1-0.8l0.6-2.2L25.4,9
				C25.2,9,25,8.9,25,8.7l-0.3-1l-1.8,2c-0.2,0.3-0.8,0.3-0.6-0.4l0.7-4.1l-1,0.5c-0.3,0.2-0.6,0.2-0.7-0.1L20,3z"/>
		</g>
	</g>
</g>
<g>
	<path fill="#CCCCCC" d="M39.8,0.2v22.5H0.2V0.2H39.8 M40,0H0v23h40V0L40,0z"/>
</g>
</svg>
