<?xml version="1.0" encoding="utf-8"?>
<!-- Generator: Adobe Illustrator 17.1.0, SVG Export Plug-In . SVG Version: 6.00 Build 0)  -->
<!DOCTYPE svg PUBLIC "-//W3C//DTD SVG 1.1//EN" "http://www.w3.org/Graphics/SVG/1.1/DTD/svg11.dtd">
<svg version="1.1" id="Layer_1" xmlns="http://www.w3.org/2000/svg" xmlns:xlink="http://www.w3.org/1999/xlink" x="0px" y="0px"
	 viewBox="0 0 40 23" enable-background="new 0 0 40 23" xml:space="preserve">
<g>
	<g>
		<defs>
			<rect id="SVGID_65_" width="40" height="23"/>
		</defs>
		<clipPath id="SVGID_2_">
			<use xlink:href="#SVGID_65_"  overflow="visible"/>
		</clipPath>
		<rect clip-path="url(#SVGID_2_)" fill="#CB1D23" width="40" height="23"/>
		<g clip-path="url(#SVGID_2_)">
			<defs>
				<rect id="SVGID_67_" width="40" height="23"/>
			</defs>
			<clipPath id="SVGID_4_">
				<use xlink:href="#SVGID_67_"  overflow="visible"/>
			</clipPath>
			<path clip-path="url(#SVGID_4_)" fill="#FFFFFF" d="M20,11.5c-1.8-0.7-2.7-2.8-2-4.5c0.6-1.4,2-2.3,3.6-2.2
				c-0.6,0.3-0.9,1-0.5,1.7c0.5,0.8,0.2,2.1-0.8,2.5C19.6,9.3,19,10.6,20,11.5"/>
			<polygon clip-path="url(#SVGID_4_)" fill="#CB1D23" points="19.7,7.9 20.1,6.9 19.2,7.4 20.3,7.5 19.4,6.8 			"/>
			<path clip-path="url(#SVGID_4_)" fill="#CB1D23" d="M20,11.4c-1.3-0.8-1.4-2.6-0.7-3.5l-0.1-0.1C18.6,8.8,18.5,10.7,20,11.4
				L20,11.4z"/>
			<path clip-path="url(#SVGID_4_)" fill="#FFFFFF" d="M20,11.5c0.1-1.9,1.8-3.4,3.8-3.2c1.6,0.1,2.9,1.2,3.2,2.7
				c-0.4-0.5-1.2-0.6-1.7,0.1c-0.6,0.7-1.9,0.9-2.7,0.1C21.9,10.5,20.6,10.2,20,11.5"/>
			<polygon clip-path="url(#SVGID_4_)" fill="#CB1D23" points="23.4,10.1 24.5,10.2 23.7,9.5 23.9,10.5 24.4,9.5 			"/>
			<path clip-path="url(#SVGID_4_)" fill="#CB1D23" d="M20.1,11.5c0.4-1.5,2-2.1,3.2-1.8l0-0.1c-1.1-0.3-2.9,0.2-3.3,1.8L20.1,11.5z
				"/>
			<path clip-path="url(#SVGID_4_)" fill="#FFFFFF" d="M20,11.5c-1.3,1.5-3.5,1.7-5,0.4c-1.2-1-1.6-2.6-1-4c0.1,0.6,0.6,1.2,1.5,1
				c0.9-0.2,2.1,0.4,2.2,1.5C17.8,11.2,18.8,12.2,20,11.5"/>
			<polygon clip-path="url(#SVGID_4_)" fill="#CB1D23" points="16.4,10.7 15.6,10 15.8,11 16.2,10 15.3,10.6 			"/>
			<path clip-path="url(#SVGID_4_)" fill="#CB1D23" d="M20,11.5c-1.2,1-2.9,0.5-3.6-0.4l-0.1,0.1C16.9,12,18.7,12.6,20,11.5L20,11.5
				z"/>
			<path clip-path="url(#SVGID_4_)" fill="#FFFFFF" d="M20,11.5c1.9-0.5,3.8,0.7,4.3,2.5c0.4,1.5-0.3,3-1.6,3.8
				c0.3-0.6,0.2-1.3-0.6-1.6c-0.9-0.3-1.4-1.5-0.9-2.5C21.6,13,21.4,11.7,20,11.5"/>
			<polygon clip-path="url(#SVGID_4_)" fill="#CB1D23" points="22.4,14.3 22.7,15.3 23.1,14.3 22.2,14.9 23.3,15 			"/>
			<path clip-path="url(#SVGID_4_)" fill="#CB1D23" d="M20,11.6c1.5-0.1,2.7,1.3,2.7,2.5l0.1,0C22.8,12.9,21.7,11.3,20,11.6L20,11.6
				z"/>
			<path clip-path="url(#SVGID_4_)" fill="#FFFFFF" d="M20,11.5c1,1.6,0.5,3.8-1.1,4.8c-1.3,0.8-3,0.7-4.2-0.3
				c0.6,0.1,1.3-0.2,1.4-1.1c0-0.9,1.1-1.8,2.1-1.6C19,13.5,20.3,12.9,20,11.5"/>
			<polygon clip-path="url(#SVGID_4_)" fill="#CB1D23" points="18.1,14.6 17.1,15.2 18.2,15.3 17.4,14.6 17.6,15.6 			"/>
			<path clip-path="url(#SVGID_4_)" fill="#CB1D23" d="M20,11.5c0.6,1.4-0.4,2.9-1.5,3.3l0,0.1C19.5,14.6,20.7,13,20,11.5L20,11.5z"
				/>
			<path clip-path="url(#SVGID_4_)" fill="#CB1D23" d="M20,11.3c0.1,0,0.2,0.1,0.2,0.2c0,0.1-0.1,0.2-0.2,0.2
				c-0.1,0-0.2-0.1-0.2-0.2C19.8,11.4,19.9,11.3,20,11.3"/>
		</g>
	</g>
</g>
<g>
	<path fill="#CCCCCC" d="M39.8,0.2v22.5H0.2V0.2H39.8 M40,0H0v23h40V0L40,0z"/>
</g>
</svg>
