<?xml version="1.0" encoding="utf-8"?>
<!-- Generator: Adobe Illustrator 17.1.0, SVG Export Plug-In . SVG Version: 6.00 Build 0)  -->
<!DOCTYPE svg PUBLIC "-//W3C//DTD SVG 1.1//EN" "http://www.w3.org/Graphics/SVG/1.1/DTD/svg11.dtd">
<svg version="1.1" id="Layer_1" xmlns="http://www.w3.org/2000/svg" xmlns:xlink="http://www.w3.org/1999/xlink" x="0px" y="0px"
	 viewBox="0 0 40 23" enable-background="new 0 0 40 23" xml:space="preserve">
<g>
	<g>
		<defs>
			<rect id="SVGID_93_" width="40" height="23"/>
		</defs>
		<clipPath id="SVGID_2_">
			<use xlink:href="#SVGID_93_"  overflow="visible"/>
		</clipPath>
		<rect clip-path="url(#SVGID_2_)" fill="#33795E" width="40" height="23"/>
		<g clip-path="url(#SVGID_2_)">
			<defs>
				<rect id="SVGID_95_" width="40" height="23"/>
			</defs>
			<clipPath id="SVGID_4_">
				<use xlink:href="#SVGID_95_"  overflow="visible"/>
			</clipPath>
			<path clip-path="url(#SVGID_4_)" fill="#FFFFFF" d="M20,13.1c-0.6,0.4-1.2,1.3-2.7,1.3c-2,0-2.8-0.6-3.4-1c0-0.1,0.5-0.3,0.5-0.3
				c0.8,0.6,1.7,1.1,3.4,1c-2.1-0.2-3.5-1.3-3.9-2.3c1.1-0.8,3-0.8,4.5,0.3c-0.5-0.6-2.1-1.2-3.3-1c-0.2-0.2-0.3-0.4-0.5-0.6
				c1.4-0.3,3.3,0.6,4,1.3c-0.7-1.2-1.3-2.5-0.4-4.1c0.2,0.2,0.4,0.3,0.5,0.5c-0.7,1.2-0.4,2.5,0.1,3.5c-0.9-1.9-0.2-3.7,1-4.6
				c1.2,0.9,2,2.7,1,4.6c0.5-1,0.8-2.3,0.1-3.5c0.2-0.2,0.4-0.3,0.5-0.5c0.9,1.6,0.3,2.9-0.4,4.1c0.7-0.7,2.6-1.6,4-1.3
				c-0.2,0.2-0.3,0.4-0.5,0.6c-1.2-0.2-2.8,0.5-3.3,1c1.5-1.1,3.4-1.1,4.5-0.3c-0.4,1-1.8,2.2-3.9,2.3c1.7,0.1,2.6-0.4,3.4-1
				c0,0,0.5,0.2,0.5,0.3c-0.6,0.4-1.4,1-3.4,1C21.2,14.3,20.6,13.5,20,13.1"/>
			<path clip-path="url(#SVGID_4_)" fill="#FFFFFF" d="M20,13.5c-0.8,0.7-1.4,1.1-2.5,1.1l-3.4,0c0.1,0.2,0.2,0.3,0.3,0.5l3.2,0
				c1.5,0,2.4-1,2.4-1s0.8,1,2.4,1l3.2,0c0.1-0.1,0.2-0.3,0.3-0.5l-3.4,0C21.4,14.6,20.8,14.1,20,13.5"/>
			<polygon clip-path="url(#SVGID_4_)" fill="#F2D02F" points="20,3.8 20.3,4.7 21.3,4.7 20.5,5.3 20.8,6.2 20,5.6 19.2,6.2 
				19.5,5.3 18.7,4.7 19.7,4.7 			"/>
			<polygon clip-path="url(#SVGID_4_)" fill="#F2D02F" points="14,7.9 14.6,8 14.9,7.5 15,8.1 15.6,8.2 15,8.5 15.1,9.1 14.7,8.6 
				14.1,8.9 14.4,8.4 			"/>
			<polygon clip-path="url(#SVGID_4_)" fill="#F2D02F" points="16.1,5.2 16.6,5.6 17.1,5.3 16.8,5.9 17.3,6.3 16.7,6.2 16.4,6.8 
				16.3,6.2 15.7,6.1 16.2,5.8 			"/>
			<polygon clip-path="url(#SVGID_4_)" fill="#F2D02F" points="26,7.9 25.4,8 25.1,7.5 25,8.1 24.4,8.2 25,8.5 24.9,9.1 25.3,8.6 
				25.9,8.9 25.6,8.4 			"/>
			<polygon clip-path="url(#SVGID_4_)" fill="#F2D02F" points="23.9,5.2 23.4,5.6 22.9,5.3 23.2,5.9 22.7,6.3 23.3,6.2 23.6,6.8 
				23.7,6.2 24.3,6.1 23.8,5.8 			"/>
			<path clip-path="url(#SVGID_4_)" fill="#FFFFFF" d="M14.7,15.5c0,0.1,0.1,0.1,0.1,0.2h10.3c0-0.1,0.1-0.1,0.1-0.2H14.7z
				 M15.3,16.1c0.1,0.1,0.2,0.2,0.3,0.3h8.7c0.1-0.1,0.2-0.2,0.3-0.3H15.3z M16,16.7c0.2,0.2,0.5,0.3,0.8,0.5h6.4
				c0.3-0.1,0.5-0.3,0.8-0.5H16z M17.1,17.4c0.8,0.4,1.8,0.6,2.8,0.6h0.2c1,0,2-0.2,2.8-0.6H17.1z"/>
		</g>
	</g>
</g>
<g>
	<path fill="#CCCCCC" d="M39.8,0.2v22.5H0.2V0.2H39.8 M40,0H0v23h40V0L40,0z"/>
</g>
</svg>
