<?xml version="1.0" encoding="utf-8"?>
<!-- Generator: Adobe Illustrator 17.1.0, SVG Export Plug-In . SVG Version: 6.00 Build 0)  -->
<!DOCTYPE svg PUBLIC "-//W3C//DTD SVG 1.1//EN" "http://www.w3.org/Graphics/SVG/1.1/DTD/svg11.dtd">
<svg version="1.1" id="Layer_1" xmlns="http://www.w3.org/2000/svg" xmlns:xlink="http://www.w3.org/1999/xlink" x="0px" y="0px"
	 viewBox="0 0 40 23" enable-background="new 0 0 40 23" xml:space="preserve">
<g>
	<g>
		<defs>
			<rect id="SVGID_1_" width="40" height="23"/>
		</defs>
		<clipPath id="SVGID_2_">
			<use xlink:href="#SVGID_1_"  overflow="visible"/>
		</clipPath>
		<rect clip-path="url(#SVGID_2_)" fill="#213095" width="40" height="23"/>
		<polygon clip-path="url(#SVGID_2_)" fill="#F5CB27" points="20,2.6 19.7,3.4 18.8,3.4 19.5,4 19.2,4.9 20,4.3 20.8,4.9 20.5,4 
			21.2,3.4 20.3,3.4 		"/>
		<polygon clip-path="url(#SVGID_2_)" fill="#F5CB27" points="20.3,18.8 20,17.9 19.7,18.8 18.8,18.8 19.5,19.3 19.2,20.2 20,19.7 
			20.8,20.2 20.5,19.3 21.2,18.8 		"/>
		<polygon clip-path="url(#SVGID_2_)" fill="#F5CB27" points="12.2,12 13,12.5 12.7,11.7 13.5,11.1 12.5,11.1 12.2,10.2 11.9,11.1 
			11,11.1 11.8,11.7 11.5,12.5 		"/>
		<polygon clip-path="url(#SVGID_2_)" fill="#F5CB27" points="16.1,3.6 15.8,4.5 14.9,4.5 15.6,5 15.3,5.9 16.1,5.3 16.9,5.9 
			16.6,5 17.3,4.5 16.4,4.5 		"/>
		<polygon clip-path="url(#SVGID_2_)" fill="#F5CB27" points="13.3,6.4 13,7.3 12,7.3 12.8,7.8 12.5,8.7 13.3,8.2 14,8.7 13.7,7.8 
			14.5,7.3 13.6,7.3 		"/>
		<polygon clip-path="url(#SVGID_2_)" fill="#F5CB27" points="13.6,14.9 13.3,14.1 13,14.9 12,14.9 12.8,15.5 12.5,16.4 13.3,15.8 
			14,16.4 13.7,15.5 14.5,14.9 		"/>
		<polygon clip-path="url(#SVGID_2_)" fill="#F5CB27" points="16.4,17.7 16.1,16.9 15.8,17.7 14.9,17.7 15.6,18.3 15.3,19.2 
			16.1,18.6 16.9,19.2 16.6,18.3 17.3,17.7 		"/>
		<polygon clip-path="url(#SVGID_2_)" fill="#F5CB27" points="29,11.1 28.1,11.1 27.8,10.2 27.5,11.1 26.5,11.1 27.3,11.7 27,12.5 
			27.8,12 28.5,12.5 28.2,11.7 		"/>
		<polygon clip-path="url(#SVGID_2_)" fill="#F5CB27" points="23.9,3.6 23.6,4.5 22.7,4.5 23.4,5 23.1,5.9 23.9,5.3 24.7,5.9 
			24.4,5 25.1,4.5 24.2,4.5 		"/>
		<polygon clip-path="url(#SVGID_2_)" fill="#F5CB27" points="26.3,7.8 26,8.7 26.7,8.2 27.5,8.7 27.2,7.8 28,7.3 27,7.3 26.7,6.4 
			26.4,7.3 25.5,7.3 		"/>
		<polygon clip-path="url(#SVGID_2_)" fill="#F5CB27" points="27,14.9 26.7,14.1 26.4,14.9 25.5,14.9 26.3,15.5 26,16.4 26.7,15.8 
			27.5,16.4 27.2,15.5 28,14.9 		"/>
		<polygon clip-path="url(#SVGID_2_)" fill="#F5CB27" points="24.2,17.7 23.9,16.9 23.6,17.7 22.7,17.7 23.4,18.3 23.1,19.2 
			23.9,18.6 24.7,19.2 24.4,18.3 25.1,17.7 		"/>
	</g>
</g>
<g>
	<path fill="#CCCCCC" d="M39.8,0.2v22.5H0.2V0.2H39.8 M40,0H0v23h40V0L40,0z"/>
</g>
</svg>
