<?xml version="1.0" encoding="utf-8"?>
<!-- Generator: Adobe Illustrator 17.1.0, SVG Export Plug-In . SVG Version: 6.00 Build 0)  -->
<!DOCTYPE svg PUBLIC "-//W3C//DTD SVG 1.1//EN" "http://www.w3.org/Graphics/SVG/1.1/DTD/svg11.dtd">
<svg version="1.1" id="Layer_1" xmlns="http://www.w3.org/2000/svg" xmlns:xlink="http://www.w3.org/1999/xlink" x="0px" y="0px"
	 viewBox="0 0 40 23" enable-background="new 0 0 40 23" xml:space="preserve">
<g>
	<g>
		<defs>
			<rect id="SVGID_89_" width="40" height="23"/>
		</defs>
		<clipPath id="SVGID_2_">
			<use xlink:href="#SVGID_89_"  overflow="visible"/>
		</clipPath>
		<rect clip-path="url(#SVGID_2_)" fill="#F5CD28" width="40" height="23"/>
		<rect x="8.5" y="2.4" clip-path="url(#SVGID_2_)" fill="#ED6F22" width="6.8" height="18.2"/>
		<rect x="1.8" y="2.4" clip-path="url(#SVGID_2_)" fill="#2F742E" width="6.7" height="18.2"/>
		<rect x="17" y="2.4" clip-path="url(#SVGID_2_)" fill="#8E1841" width="21.2" height="18.2"/>
		<g clip-path="url(#SVGID_2_)">
			<defs>
				<rect id="SVGID_91_" width="40" height="23"/>
			</defs>
			<clipPath id="SVGID_4_">
				<use xlink:href="#SVGID_91_"  overflow="visible"/>
			</clipPath>
			<path clip-path="url(#SVGID_4_)" fill="#F5CD28" d="M25.1,10.9l0.3,0c0,0-0.4,0.3-0.3,0.8c0.4-0.6,0.6-0.5,0.6-0.5
				c-0.1,0.1-0.4,0.3-0.2,0.7c0.2-0.4,0.5-0.7,0.5-0.7s-0.1,0.5,0.1,0.9c0.1-0.4,0.4-0.8,0.4-0.8s0,0.5,0.2,0.6
				c0.2-0.1,0.3-0.5,0.3-0.5s0.3,0.5,0.5,0.6c0.2-0.4,0.2-0.6,0.2-0.6s0.6,0.4,1.1,0.2c-0.4-0.2-0.6-0.5-0.6-0.5s0.8,0.4,1.2,0.2
				c-0.3-0.3-1.1-0.6-1.1-0.6s0.6,0.2,0.8,0.2c-0.1-0.1-0.3-0.3-0.3-0.3L25.1,10.9z"/>
			<g clip-path="url(#SVGID_4_)">
				<path fill="#8E1841" d="M26.2,12c-0.2-0.4-0.2-0.8-0.2-0.9c0,0.1-0.3,0.4-0.4,0.7c-0.2-0.4,0-0.6,0.1-0.7l0,0c0,0-0.2,0-0.5,0.5
					c-0.1-0.5,0.3-0.8,0.3-0.8l-0.3,0c0,0,0,0,0,0c0,0,0,0,0,0l0.3,0c0,0-0.4,0.4-0.3,0.8c0.2-0.4,0.4-0.5,0.5-0.5c0,0,0.1,0,0.1,0
					l0,0.1c-0.1,0.1-0.3,0.3-0.1,0.7c0.1-0.4,0.5-0.7,0.5-0.7C26.1,11.1,26,11.6,26.2,12c0.1-0.4,0.3-0.8,0.3-0.8c0,0,0,0.5,0.2,0.6
					c0.1-0.1,0.2-0.5,0.2-0.5c0,0,0.3,0.5,0.5,0.6c0.1-0.3,0.1-0.6,0.1-0.6c0,0,0.4,0.2,0.8,0.2c0.1,0,0.2,0,0.3-0.1
					c-0.4-0.1-0.6-0.5-0.6-0.5c0,0,0.6,0.2,1,0.2c0.1,0,0.2,0,0.2,0c-0.3-0.2-1.1-0.6-1.1-0.6c0,0,0.5,0.1,0.7,0.1c0,0,0,0,0.1,0
					c-0.1-0.1-0.3-0.2-0.3-0.2c0,0,0.3,0.1,0.4,0.2c-0.1,0.1-0.4,0-0.6-0.1c0.3,0.1,0.7,0.4,1,0.5c-0.3,0.2-1.1-0.1-1.2-0.2
					c0.1,0.1,0.2,0.3,0.6,0.5c-0.5,0.3-1.1-0.1-1.1-0.1c0,0,0,0.3-0.1,0.6c-0.2-0.1-0.5-0.5-0.5-0.6c0,0.1-0.1,0.4-0.2,0.5
					c-0.2-0.1-0.2-0.5-0.2-0.6C26.5,11.4,26.3,11.7,26.2,12L26.2,12z"/>
			</g>
			<path clip-path="url(#SVGID_4_)" fill="#F5CD28" d="M30,6.5c1.1-0.1,2.8,0.8,3.6,1.4c0-0.2,0-0.4,0.2-0.5
				c0.2-0.1,0.5,0.1,0.4,0.4c-0.3,0.7-1.5-0.1-1.9-0.3l0.2,0.4c-0.6-0.1-0.7-0.2-1.1-0.7c-0.1,0.4-0.1,0.5-0.6,0.5
				c0.2-0.3,0.2-0.4,0-0.7l-0.1,0.6l-0.5-0.7v0.7c-0.1-0.1-0.5-0.4-0.7-0.4C29.3,7.1,29.1,7.7,29,8c0.3-0.3,0.4-0.5,0.9-0.3
				C29.6,8,29.7,8.2,30,8.5c0,0,0.1-0.4,0.1-0.5c0.2,0.1,0.5,0.5,0.9,0.6c0.3,0,0.6-0.1,0.9-0.2c1-0.1,3.1,0.1,2.7,1.5
				c-0.1,0.3-0.2,0.5-0.4,0.7c1.4,0.5,0.2,2.2-0.1,3.1c-0.2,0.8-0.1,1.4,0.9,1.3c-0.2,0.4-0.5,0.5-0.9,0.5c0,0,0,0.2,0.3,0.3
				c-0.4,0.4,0.1,0.9-0.1,1.2c-0.4,0.2-1-0.1-1-0.1l0,0.3c0,0-0.7-0.1-0.8-0.1c0,0,0.2-0.4,0.2-0.4c-0.2,0.3-0.4,0.5-0.8,0.4
				c0,0,0-0.2,0.3-0.4c-0.3,0.3-0.3,0.4-0.6,0.4c0-0.5,0.3-1.1,0.9-0.9c0.1,0,0.4,0.2,0.6,0.1c0.1-0.2,0-0.7,0-0.9
				c0.1-0.9-0.1-0.8-0.6-1.3c-0.4-0.3-0.7-0.7-1.2-0.8c-0.5-0.1-1.3,0.4-1.7,0.6c-1,0.6-1.9,1-2.9,1.2c0,0,0,0,0-0.1
				c0-0.1,1.1-0.9,1.2-2.3c-0.3,1.4-1.3,2.2-1.4,2.4c0,0.3-0.2,0.7-0.3,0.7c0.1-0.1,0.5-0.3,1.1-0.3c-0.1,0.6-0.7,0.5-0.8,0.8
				c0,0.3,0.4,0.7,0,0.9h-1.6c0,0,0.2-0.3,0.3-0.4c-0.2,0.1-0.3,0.5-0.8,0.4c0-0.1,0.2-0.3,0.2-0.4c-0.3,0.2-0.4,0.4-0.7,0.4
				c0.1-0.3,0.1-0.7,0.5-0.7c0.3-0.1,0.6,0.1,0.8-0.2c0.4-0.5-0.1-1.5-0.2-2.1c0-0.5,0-0.6-0.1-1.2l0.1,1.7
				c-0.4-0.3-0.8-0.5-1.1-0.9c-0.7-0.9-0.5-1.8,0.4-2.4c0.4-0.3,0.6-0.4,1.1-0.6c-0.1-0.3,0.1-0.5-0.2-0.6c-0.1,0.2-0.2,0.4-0.4,0.4
				l0.1-0.5c0,0-0.4,0-0.3,0.6c-0.4-0.2-0.2-0.6-0.2-0.6h-0.2c0,0,0,0.6-0.3,0.7c0.1-0.3,0.1-0.7,0.1-0.7s-0.5,0.6-0.8,0.4
				c0.2-0.2,0.3-0.2,0.3-0.5c0-0.2-0.2-0.6-0.2-0.6c0.1,0.1,0.9,0.3,1.3,0c0,0.2,0,0.3,0,0.3c0.5-0.1,0.6-0.1,1.1,0.1
				c-0.1-0.7-0.5-0.8-0.9-1.3V9c-0.4-0.1-0.5-0.2-0.7-0.6l-0.3,0.2c-0.5-0.3-0.9-1-0.2-1C24,7.7,23.6,8,23.6,8s1.1-0.3,1.6-0.4
				c0,0-0.1-0.3-0.5-0.3C25,7,25.3,7,25.6,7.5c0.2,0,0.5-0.3,0.3-0.7c0.4,0,0.5,0.2,0.7,0.5c0.1,0,0.3-0.1,0.2-0.6
				c0.3,0.3,0.5,0.4,0.5,0.6c0.3,0.1,0.5,0,0.9-0.2c-0.1,0.4-0.1,0.5-0.5,0.7c0.3,0.3,0.3,0.7,0.2,0.9c-0.1,0-0.1,0-0.2-0.1
				c0,0.1,0.1,0.6,0,0.8h-0.2l0.3,0.9l-0.2,0.3c0.7-0.3,1.4-0.2,2.1-0.4c0.8-0.1,1.6-0.4,2.5-0.4c0.6,0,0.6,0.3,1.4,0.3V9.6
				c0-0.4-0.3-0.8-0.8-0.9c-0.3,0-0.8,0.2-1.1,0.3c-0.4,0.1-1,0.1-1.4,0.1C29.2,9,29.4,8.8,29,8.6c-0.3,0.1-0.4,0.3-0.5,0.7
				c-0.2-0.4-0.2-0.8,0.1-1C28.2,7.2,29,6.7,30,6.5L30,6.5z"/>
			<path clip-path="url(#SVGID_4_)" fill="#F5CD28" d="M30.3,15.3c-0.2-0.3-0.9-0.8-0.7-1.3c0.3-0.5,2-1.3,2.3-0.2
				c0.1,0.3-0.2,1.1-0.3,1.4c0.1,0,0.3-0.3,0.8-0.2c-0.1,0.4-0.7,0.7-0.7,0.7c0.1,0.3-0.4,1.4-0.4,1.4H30l0.2-0.4l-0.3,0.4h-0.5
				l0.4-0.5c0,0-0.5,0.5-0.9,0.5c0.1-0.8,0.6-0.9,1.3-0.6C30.3,16.1,30.5,15.6,30.3,15.3L30.3,15.3z"/>
			<g clip-path="url(#SVGID_4_)">
				<path fill="#8E1841" d="M29,17.1C29,17.1,28.9,17.1,29,17.1c0-0.8,0.5-1,1.2-0.7c0,0,0-0.1,0-0.2c0.1-0.3,0.2-0.7,0-1
					c0-0.1-0.1-0.2-0.2-0.3c-0.3-0.3-0.6-0.6-0.5-1c0.2-0.3,1-0.7,1.5-0.7c0.4,0,0.7,0.2,0.8,0.5c0.1,0.3-0.1,0.9-0.3,1.2l0,0.1
					c0,0,0.1-0.1,0.1-0.1c0.1-0.1,0.3-0.2,0.7-0.1c-0.1,0.4-0.6,0.7-0.7,0.7c0.1,0.2-0.4,1.4-0.4,1.4l-1.3,0l0.2-0.4l-0.3,0.4
					l-0.5,0l0.3-0.3C29.5,16.9,29.2,17.1,29,17.1L29,17.1z M29.7,16.7l-0.3,0.4l0.5,0l0.3-0.4L30,17.1l1.3,0c0,0,0.4-1.2,0.4-1.4
					c0,0,0.6-0.3,0.7-0.7c-0.1,0-0.1,0-0.2,0c-0.2,0-0.4,0.1-0.5,0.1c0,0-0.1,0.1-0.1,0.1l0-0.2c0.1-0.3,0.3-1,0.3-1.2
					c-0.1-0.4-0.5-0.5-0.7-0.5c-0.6,0-1.3,0.4-1.5,0.7c-0.1,0.3,0.2,0.7,0.5,1c0.1,0.1,0.2,0.2,0.2,0.3c0.2,0.3,0.1,0.7,0,1.1
					c0,0.1,0,0.1-0.1,0.2c-0.3-0.1-0.4-0.1-0.6-0.1c-0.4,0-0.6,0.2-0.6,0.7c0.4,0,0.8-0.5,0.8-0.5l0,0
					C29.8,16.6,29.8,16.7,29.7,16.7L29.7,16.7z"/>
			</g>
			<path clip-path="url(#SVGID_4_)" fill="#F5CD28" d="M25,8c-0.1,0.1,0,0.6,0.2,0.5C25.5,8.4,25.1,7.9,25,8L25,8z"/>
			<g clip-path="url(#SVGID_4_)">
				<path fill="#8E1841" d="M25.2,8.5c-0.1,0-0.1-0.1-0.2-0.2c0-0.1,0-0.3,0-0.4c0.1,0,0.3,0.2,0.3,0.3C25.3,8.4,25.3,8.5,25.2,8.5
					L25.2,8.5L25.2,8.5z M25.1,8C25,8,25,8.2,25,8.3c0,0.1,0.1,0.2,0.1,0.2v0l0,0c0.1,0,0.1-0.1,0.1-0.2C25.2,8.1,25.1,8,25.1,8
					L25.1,8z"/>
			</g>
			<path clip-path="url(#SVGID_4_)" fill="#F5CD28" d="M25.2,7.8c0.2,0.2,0.6,0.6,1.1,0.6C25.9,8.1,26,7.9,26,7.9
				c0.2,0.2,0.8,0.4,1,0.3C26.8,8,26.7,8,26.7,7.9c0.3,0,0.6,0.1,0.9,0L25.2,7.8z"/>
			<g clip-path="url(#SVGID_4_)">
				<path fill="#8E1841" d="M26.2,8.4c-0.3,0-0.6-0.2-0.8-0.4c-0.1-0.1-0.1-0.1-0.2-0.1c0,0,0,0,0,0c0,0,0,0,0,0
					c0.1,0,0.1,0.1,0.2,0.2C25.6,8.1,25.9,8.4,26.2,8.4C25.9,8.1,26,7.9,26,7.9c0.2,0.2,0.8,0.4,1,0.3l-0.1,0
					c-0.2-0.1-0.2-0.2-0.3-0.3l0.1,0c0.3,0,0.6,0.1,0.8,0C27.3,8,27,7.9,26.7,7.9l-0.1,0C26.7,8,26.8,8,26.9,8.2L27,8.2
					c-0.2,0.1-0.8-0.1-1-0.3c0,0,0,0.2,0.3,0.5C26.2,8.4,26.2,8.4,26.2,8.4L26.2,8.4z"/>
			</g>
			<path clip-path="url(#SVGID_4_)" fill="#F5CD28" d="M25.6,10.7l0-0.4c0,0,0.3,0.6,0.5,0.6C26,10.5,26,10.2,26,10.2L25.6,10.7z"/>
			<g clip-path="url(#SVGID_4_)">
				<path fill="#8E1841" d="M26.1,11c-0.2,0-0.5-0.6-0.5-0.6l0,0.4c0,0,0,0,0,0c0,0,0,0,0,0l0-0.4C25.7,10.5,26,10.9,26.1,11
					C26,10.5,26,10.2,26,10.2C26.1,10.2,26,10.5,26.1,11C26.1,11,26.1,11,26.1,11L26.1,11z"/>
			</g>
			<path clip-path="url(#SVGID_4_)" fill="#F5CD28" d="M26.3,10.3c0,0,0.5,1,0.8,0.8c-0.4-0.3-0.3-0.8-0.3-0.8s0.2,0.6,0.7,0.8
				c0-0.3-0.2-0.9-0.2-0.9s0.4,0.8,0.7,0.8c0.1-0.2,0.1-0.4,0.1-0.4L26.3,10.3z"/>
			<g clip-path="url(#SVGID_4_)">
				<path fill="#8E1841" d="M27,11.1C27,11.1,27,11.1,27,11.1c-0.3-0.1-0.7-0.8-0.7-0.8c0,0,0,0,0,0c0,0,0,0,0,0
					C26.3,10.3,26.7,11,27,11.1C27,11.1,27,11.1,27,11.1c-0.3-0.4-0.3-0.8-0.3-0.8c0,0,0.2,0.6,0.7,0.8c0-0.3-0.2-0.8-0.2-0.9
					c0,0,0,0,0,0c0,0,0,0,0,0.1c0.2,0.2,0.5,0.7,0.6,0.7c0.1-0.2,0.1-0.3,0.1-0.3c0,0,0,0,0,0c0,0,0.1,0.2-0.1,0.4
					c-0.2,0-0.5-0.4-0.6-0.6c0.1,0.2,0.2,0.5,0.2,0.7c-0.5-0.1-0.7-0.6-0.7-0.7C26.7,10.5,26.8,10.8,27,11.1
					C27,11.1,27,11.1,27,11.1L27,11.1z"/>
			</g>
			<path clip-path="url(#SVGID_4_)" fill="#F5CD28" d="M25.8,9.6l0.4,0.5l0.1-0.7c0,0,0.4,0.3,0.5,0.3c0.1,0-0.1-0.7-0.1-0.7
				s0.5,0.8,0.6,0.8c0,0,0.1-0.8,0.1-0.8s0.4,1.1,0.5,1.1c0.1,0,0.1-0.1,0.1-0.1L25.8,9.6z"/>
			<g clip-path="url(#SVGID_4_)">
				<path fill="#8E1841" d="M26.2,10.1l-0.4-0.5c0,0,0,0,0,0c0,0,0,0,0,0L26.2,10.1l0-0.7c0.2,0.1,0.4,0.3,0.5,0.3
					c0,0,0-0.4-0.1-0.7c0.2,0.3,0.5,0.7,0.6,0.7c0,0,0-0.4,0-0.7c0.2,0.5,0.5,1,0.5,1c0,0,0.1,0,0.1,0c0,0,0-0.1,0-0.1
					c0,0,0.1,0.1,0,0.1c0,0-0.1,0-0.1,0c0,0,0,0,0,0c-0.1,0-0.5-0.8-0.5-1.1c0,0.8,0,0.8,0,0.8c0,0-0.1,0-0.6-0.8
					c0.1,0.1,0.2,0.6,0.2,0.7c-0.1,0-0.4-0.2-0.5-0.3L26.2,10.1L26.2,10.1z"/>
			</g>
			<path clip-path="url(#SVGID_4_)" fill="#F5CD28" d="M25.5,8.7c0,0,0.6,0.5,0.7,0.5c0.1,0-0.3-0.6-0.3-0.6s0.3,0.3,0.5,0.4
				c0.1,0,0-0.4,0-0.4s0.4,0.3,0.5,0.3c0.1,0,0-0.3,0-0.3s0.3,0.3,0.3,0.3c0,0-0.1-0.8-0.1-0.8s0.6,0.6,0.6,0.6L25.5,8.7z"/>
			<g clip-path="url(#SVGID_4_)">
				<path fill="#8E1841" d="M26.2,9.2c-0.1,0-0.4-0.3-0.7-0.5c0,0,0,0,0,0c0,0,0,0,0,0C25.8,9,26.1,9.2,26.2,9.2
					C26.2,9.2,26.2,9.2,26.2,9.2c0-0.1-0.1-0.4-0.3-0.6c0.1,0.1,0.4,0.3,0.5,0.3c0.1-0.1,0-0.3,0-0.4c0.2,0.1,0.4,0.3,0.5,0.3
					c0,0,0-0.2,0-0.3c0.2,0.1,0.3,0.2,0.3,0.2c0,0-0.1-0.5-0.1-0.7c0.3,0.2,0.6,0.6,0.7,0.6c0,0-0.1,0.1-0.7-0.6
					c0.1,0.7,0.1,0.8,0.1,0.8c0,0,0,0-0.3-0.3c0,0.1,0.1,0.3,0,0.3c-0.1,0-0.4-0.2-0.5-0.3c0,0.1,0.1,0.3,0,0.4c0,0-0.1,0-0.1,0
					c-0.1,0-0.5-0.3-0.5-0.4C26.2,9,26.3,9.2,26.2,9.2C26.2,9.2,26.2,9.2,26.2,9.2L26.2,9.2z"/>
			</g>
			<path clip-path="url(#SVGID_4_)" fill="#F5CD28" d="M23.1,8.9c0,0,0.1,0.8,1.4,0.5c0.1-0.1,0.1,0.2,0.1,0.3c0.1,0,0.6-0.2,1,0.1
				c0-0.3-0.1-0.5-0.5-0.7c-0.2,0-0.3,0.1-0.3,0.1S23.3,9.1,23.1,8.9L23.1,8.9z"/>
			<g clip-path="url(#SVGID_4_)">
				<path fill="#8E1841" d="M25.6,9.8C25.6,9.8,25.5,9.8,25.6,9.8c-0.2-0.1-0.3-0.2-0.5-0.2c-0.2,0-0.4,0-0.5,0.1c0,0,0,0,0,0
					c0,0,0,0,0,0l0-0.1c0-0.1,0-0.2,0-0.2c-0.2,0.1-0.4,0.1-0.6,0.1c-0.4,0-0.7-0.2-0.8-0.6c0,0,0,0,0,0c0.2,0.5,0.6,0.7,1.4,0.5
					l0.1,0c0,0,0,0.1,0,0.3l0,0c0.1-0.1,0.3-0.1,0.5-0.1C25.2,9.6,25.4,9.7,25.6,9.8c-0.1-0.4-0.2-0.6-0.5-0.7c0,0,0,0-0.1,0
					c-0.1,0-0.2,0.1-0.2,0.1c-0.4,0-1.5,0-1.7-0.2c0,0,0,0,0,0c0,0,0,0,0,0c0.1,0.1,1,0.2,1.6,0.2c0,0,0.1-0.1,0.2-0.1
					c0,0,0.1,0,0.1,0C25.4,9.2,25.5,9.5,25.6,9.8C25.6,9.8,25.6,9.8,25.6,9.8C25.6,9.8,25.6,9.8,25.6,9.8L25.6,9.8z"/>
			</g>
			<path clip-path="url(#SVGID_4_)" fill="#F5CD28" d="M22.4,13.9c0,0.1-0.1,0.1-0.3,0.4c0.1,0.1,0.5,0.3,0.6,0.2
				c0.1-0.1,0.1-0.3,0.1-0.3c0.2,0.3,0.5,0.7,0.9,0.8c0.3,0.1,0.6-0.1,0.6-0.4s-0.4-0.8-0.6-1c-0.5-0.6-0.4-1.7-1.4-1.5
				c0,0,0,0.1-0.1,0.2c0.1,0.1,0.1,0.3-0.1,0.3c0.1,0.1,0.2,0.2,0,0.3c0.1,0.1,0.2,0.2,0,0.3C22.4,13.5,22.4,13.8,22.4,13.9
				L22.4,13.9z"/>
			<g clip-path="url(#SVGID_4_)">
				<path fill="#8E1841" d="M23.9,15.1c-0.1,0-0.1,0-0.2,0c-0.3-0.1-0.6-0.3-0.9-0.8c0,0.1,0,0.2-0.1,0.3c0,0-0.1,0-0.1,0l0,0
					c-0.2,0-0.4-0.1-0.5-0.2c0.1-0.1,0.1-0.2,0.2-0.3c0.1-0.1,0.1-0.1,0.1-0.1c0-0.1-0.1-0.4-0.3-0.6c0.1-0.1,0.1-0.1,0.1-0.1
					c0,0,0-0.1-0.1-0.1c0,0,0,0-0.1-0.1c0.1-0.1,0.1-0.1,0.1-0.1c0,0,0-0.1-0.1-0.2c0.1,0,0.1-0.1,0.1-0.1c0,0,0-0.1-0.1-0.2
					c0.1,0,0.1-0.1,0.1-0.2c0.1,0,0.1,0,0.2,0c0.5,0,0.7,0.4,0.9,0.9c0.1,0.2,0.2,0.5,0.4,0.7c0.2,0.2,0.6,0.7,0.6,1
					C24.4,14.9,24.2,15.1,23.9,15.1L23.9,15.1z M22.8,14.2c0.4,0.5,0.7,0.8,1,0.8c0.3,0.1,0.6-0.1,0.6-0.4c0-0.3-0.4-0.7-0.6-0.9
					c-0.2-0.2-0.3-0.5-0.4-0.7c-0.2-0.5-0.4-0.9-1-0.8c0,0.1-0.1,0.1-0.1,0.2c0.1,0.1,0.1,0.1,0.1,0.2c0,0-0.1,0.1-0.1,0.1
					c0.1,0.1,0.1,0.1,0.1,0.2c0,0.1-0.1,0.1-0.1,0.1c0,0,0,0,0.1,0c0,0.1,0.1,0.1,0.1,0.1c0,0-0.1,0.1-0.2,0.1
					c0.2,0.2,0.3,0.5,0.3,0.6c0,0.1,0,0.1-0.1,0.2c0,0-0.1,0.1-0.2,0.2c0.1,0.1,0.4,0.2,0.5,0.2C22.8,14.4,22.8,14.2,22.8,14.2
					L22.8,14.2z"/>
			</g>
			<path clip-path="url(#SVGID_4_)" fill="#F5CD28" d="M22.2,5.7c-0.3,0.4-0.3,5.1-0.2,6c-0.3,0.2-0.8,0.1-1,0.1
				C21,11.4,21.3,6,22.2,5.7L22.2,5.7z"/>
			<g clip-path="url(#SVGID_4_)">
				<path fill="#8E1841" d="M21.4,11.8c-0.2,0-0.4,0-0.5-0.1c0-0.1,0-0.3,0-0.6c0.1-1.5,0.4-5.2,1.2-5.4c-0.3,0.4-0.3,5-0.2,6
					C21.8,11.8,21.6,11.8,21.4,11.8L21.4,11.8z M22.2,5.7c-0.7,0.3-1,4-1.1,5.4c0,0.3,0,0.6-0.1,0.6c0.1,0,0.3,0,0.5,0
					c0.1,0,0.4,0,0.5-0.1C21.8,10.8,21.9,6.1,22.2,5.7L22.2,5.7z"/>
			</g>
			<path clip-path="url(#SVGID_4_)" fill="#F5CD28" d="M21.4,15.2c0,0-1.3,0.2-0.8-0.6c0.5-0.2,0.5,0.3,0.3,0.4
				c0.2,0,0.4-0.1,0.4-0.3c-0.3-0.4,0.1-0.6,0.1-0.6c-0.9,0.2-1-0.4-0.7-0.5c0.4,0,0.3,0.2,0.5,0.3c0.3-0.3,0.5-0.3,0.7,0
				c0.2-0.3,0.4-0.3,0.5-0.2c0.3,0.5-0.4,0.5-0.6,0.5c0.2,0.2,0.1,0.5,0.1,0.6c0,0.2,0.1,0.2,0.3,0.3c-0.4-1.2,1.6,0.3-0.5,0.2
				c0,0.1,0,0.1,0,0.2c0.2,0,0.3,0.1,0.3,0.2c-0.1,0.1-0.2,0.1-0.4,0c0,0,0.1,0.3-0.1,0.4c-0.2-0.1-0.2-0.3-0.2-0.3
				c-0.1,0.1-0.2,0-0.3-0.1C21.1,15.4,21.4,15.5,21.4,15.2L21.4,15.2z"/>
			<path clip-path="url(#SVGID_4_)" fill="#F5CD28" d="M20.2,11.5c0.1-0.3,0.9-0.3,0.5,0.1c0.3,0.4,1.1,0.4,1.4,0.1
				c-0.3-0.5,0.4-0.4,0.4,0C22.4,12.3,20.1,12.2,20.2,11.5L20.2,11.5z"/>
			<path clip-path="url(#SVGID_4_)" fill="#F5CD28" d="M35.3,17.6c0.2,0.5,0.7,1.5,0.9,1.8c0.2,0.2,0.8,0.2,1-0.1
				c0,0,0.4,0.4,0.5,0.5c0.1,0,0.1-0.1,0.1-0.1c-0.1-0.2-0.3-0.2-0.4-0.5c0.1-0.2,0.2-0.6,0.1-0.9C37.1,17.6,35.7,17.9,35.3,17.6
				L35.3,17.6z"/>
			<g clip-path="url(#SVGID_4_)">
				<path fill="#8E1841" d="M37.7,19.9L37.7,19.9c-0.2-0.1-0.5-0.5-0.5-0.5c-0.1,0.2-0.7,0.2-1,0.1c-0.2-0.2-0.4-0.7-0.6-1.2
					c-0.1-0.2-0.2-0.5-0.3-0.6c0.2,0.1,0.4,0.1,0.8,0.1c0.5,0,1.2,0.1,1.5,0.6c0.1,0.3,0,0.7-0.1,0.9c0.1,0.2,0.2,0.3,0.3,0.4
					c0,0,0.1,0.1,0.1,0.1C37.8,19.8,37.8,19.8,37.7,19.9L37.7,19.9L37.7,19.9z M37.2,19.4c0,0,0.4,0.3,0.5,0.5
					c0.1,0,0.1-0.1,0.1-0.1c0,0-0.1-0.1-0.1-0.1c-0.1-0.1-0.2-0.2-0.3-0.4c0.1-0.2,0.2-0.6,0.1-0.9c-0.3-0.4-0.9-0.5-1.5-0.5
					c-0.3,0-0.6-0.1-0.7-0.2c0.1,0.1,0.2,0.4,0.3,0.6c0.2,0.5,0.5,1,0.6,1.1C36.4,19.6,37,19.6,37.2,19.4L37.2,19.4z"/>
			</g>
			<path clip-path="url(#SVGID_4_)" fill="#F5CD28" d="M19.9,5.3c-0.2-0.5-0.7-1.5-0.9-1.8c-0.2-0.2-0.8-0.2-1,0
				c0,0-0.4-0.4-0.5-0.5c-0.1,0-0.1,0.1-0.1,0.1c0.1,0.2,0.3,0.2,0.4,0.5c-0.1,0.2-0.2,0.6-0.1,0.9C18.2,5.3,19.6,5.1,19.9,5.3
				L19.9,5.3z"/>
			<g clip-path="url(#SVGID_4_)">
				<path fill="#8E1841" d="M19.9,5.3c-0.1-0.1-0.4-0.1-0.7-0.1c-0.5,0-1.2-0.1-1.5-0.6c-0.1-0.3,0-0.7,0.1-0.9
					c-0.1-0.2-0.2-0.3-0.3-0.4c0,0-0.1-0.1-0.1-0.1c0,0,0.1-0.1,0.1-0.1c0.2,0.1,0.5,0.5,0.5,0.5c0.1-0.2,0.7-0.2,1-0.1
					c0.2,0.2,0.4,0.7,0.6,1.2C19.8,4.9,19.9,5.2,19.9,5.3L19.9,5.3L19.9,5.3z M17.5,3.1c-0.1,0-0.1,0.1-0.1,0.1c0,0,0.1,0.1,0.1,0.1
					c0.1,0.1,0.2,0.2,0.3,0.4c-0.1,0.2-0.2,0.6-0.1,0.9C18,5,18.7,5.1,19.2,5.1c0.3,0,0.5,0,0.7,0.1c-0.1-0.2-0.2-0.4-0.3-0.6
					c-0.2-0.5-0.5-1-0.6-1.1c-0.2-0.2-0.8-0.1-0.9,0C18,3.6,17.7,3.2,17.5,3.1L17.5,3.1z"/>
			</g>
			<path clip-path="url(#SVGID_4_)" fill="#F5CD28" d="M19.8,17.6c-0.5,0.2-1.5,0.7-1.8,0.9c-0.2,0.2-0.2,0.8,0.1,0.9
				c0,0-0.4,0.4-0.5,0.5c0,0.1,0.1,0.1,0.1,0.1c0.2-0.1,0.2-0.3,0.5-0.4c0.2,0.1,0.6,0.2,0.9,0.1C19.8,19.3,19.5,17.9,19.8,17.6
				L19.8,17.6z"/>
			<g clip-path="url(#SVGID_4_)">
				<path fill="#8E1841" d="M17.7,20.1L17.7,20.1c0,0-0.1-0.1-0.1-0.2c0.1-0.2,0.5-0.5,0.5-0.5c-0.1,0-0.2-0.2-0.2-0.4
					c0-0.2,0-0.4,0.1-0.6c0.2-0.2,0.7-0.4,1.2-0.6c0.2-0.1,0.5-0.2,0.6-0.3c-0.1,0.2-0.1,0.4-0.1,0.7c0,0.5-0.1,1.2-0.6,1.5
					c-0.1,0-0.2,0-0.3,0l0,0c-0.2,0-0.5-0.1-0.6-0.2c-0.2,0.1-0.3,0.2-0.4,0.3C17.8,20,17.7,20,17.7,20.1L17.7,20.1L17.7,20.1z
					 M19.8,17.6c-0.1,0.1-0.4,0.2-0.6,0.3c-0.5,0.2-1,0.4-1.2,0.6c-0.1,0.1-0.1,0.3-0.1,0.5c0,0.2,0.1,0.3,0.2,0.4
					c0,0-0.4,0.4-0.5,0.5c0,0,0.1,0.1,0.1,0.1c0,0,0.1-0.1,0.1-0.1c0.1-0.1,0.2-0.2,0.4-0.3c0.2,0.2,0.6,0.2,0.9,0.1
					c0.4-0.3,0.5-0.9,0.5-1.4C19.7,18,19.7,17.7,19.8,17.6L19.8,17.6z"/>
			</g>
			<path clip-path="url(#SVGID_4_)" fill="#F5CD28" d="M35.3,5.3c0.2-0.5,0.7-1.5,0.9-1.8c0.2-0.2,0.8-0.2,1,0c0,0,0.4-0.4,0.5-0.5
				c0.1,0,0.1,0.1,0.1,0.1c-0.1,0.2-0.3,0.2-0.4,0.5c0.1,0.2,0.2,0.6,0.1,0.9C37.1,5.3,35.7,5.1,35.3,5.3L35.3,5.3z"/>
			<g clip-path="url(#SVGID_4_)">
				<path fill="#8E1841" d="M35.4,5.3L35.4,5.3c0.1-0.2,0.2-0.4,0.3-0.7c0.2-0.5,0.5-1,0.6-1.1c0.2-0.2,0.8-0.2,1,0.1
					c0,0,0.3-0.4,0.5-0.5c0.1,0,0.2,0.1,0.2,0.1c0,0.1-0.1,0.1-0.1,0.2c-0.1,0.1-0.2,0.2-0.3,0.4c0.1,0.2,0.2,0.6,0.1,0.9
					c-0.3,0.5-1,0.5-1.5,0.6C35.8,5.2,35.5,5.2,35.4,5.3L35.4,5.3z M36.7,3.4c-0.2,0-0.3,0-0.4,0.1c-0.2,0.2-0.4,0.7-0.6,1.1
					c-0.1,0.2-0.2,0.4-0.3,0.6c0.2-0.1,0.4-0.1,0.7-0.1c0.5,0,1.2-0.1,1.5-0.5c0.1-0.3,0-0.7-0.1-0.8c0.1-0.2,0.2-0.3,0.3-0.4
					c0,0,0.1-0.1,0.1-0.1c0,0-0.1-0.1-0.1-0.1c-0.1,0.1-0.5,0.5-0.5,0.5C37.1,3.5,36.9,3.4,36.7,3.4L36.7,3.4z"/>
			</g>
			<path clip-path="url(#SVGID_4_)" fill="#F5CD28" d="M20.6,12.3c0,0.1,0.3,0.2,0.7,0.2c0.4,0,0.7-0.1,0.8-0.2c0-0.2-0.3,0-0.7,0
				C21,12.3,20.7,12.2,20.6,12.3L20.6,12.3z"/>
			<g clip-path="url(#SVGID_4_)">
				<path fill="#F5CD28" d="M21.3,12.5L21.3,12.5c-0.1,0-0.6,0-0.7-0.1c0,0,0-0.1,0-0.1c0.1-0.1,0.2-0.1,0.4,0c0.1,0,0.2,0,0.4,0
					c0,0,0,0,0,0c0.1,0,0.3,0,0.4,0c0.2,0,0.3,0,0.3,0c0,0,0,0,0,0.1C22.1,12.5,21.6,12.5,21.3,12.5L21.3,12.5z M20.7,12.2
					c-0.1,0-0.1,0-0.1,0c0,0,0,0,0,0c0.1,0.1,0.3,0.1,0.7,0.1l0,0v0c0.4,0,0.7-0.1,0.7-0.1c0,0,0,0,0,0c0,0-0.1,0-0.3,0
					c-0.1,0-0.2,0-0.4,0c-0.2,0-0.3,0-0.4,0C20.9,12.3,20.8,12.2,20.7,12.2L20.7,12.2z"/>
			</g>
			<path clip-path="url(#SVGID_4_)" fill="#F5CD28" d="M20.6,12.7c0,0.1,0.4,0.2,0.7,0.2c0.3,0,0.6-0.1,0.7-0.2
				c-0.1-0.2-0.4,0-0.7,0C21,12.7,20.7,12.6,20.6,12.7L20.6,12.7z"/>
			<g clip-path="url(#SVGID_4_)">
				<path fill="#F5CD28" d="M21.4,12.9L21.4,12.9c-0.4,0-0.7,0-0.8-0.2c0-0.1,0.1-0.1,0.2-0.1c0.1,0,0.1,0,0.2,0c0.1,0,0.2,0,0.3,0
					c0.1,0,0.2,0,0.3,0c0.1,0,0.2,0,0.2,0c0.1,0,0.2,0,0.2,0.1C21.9,12.8,21.6,12.9,21.4,12.9L21.4,12.9z M20.8,12.7
					c-0.1,0-0.1,0-0.1,0c0,0.1,0.2,0.1,0.7,0.1l0.1,0c0.3,0,0.6-0.1,0.6-0.1c0,0-0.2,0-0.4,0c-0.1,0-0.2,0-0.3,0c-0.1,0-0.2,0-0.3,0
					C20.9,12.7,20.8,12.7,20.8,12.7L20.8,12.7z"/>
			</g>
			<path clip-path="url(#SVGID_4_)" fill="#F5CD28" d="M20.7,13.1c0,0.1,0.3,0.2,0.6,0.2c0.3,0,0.7-0.1,0.7-0.2c0-0.1-0.4,0-0.7,0
				C21,13.1,20.7,13,20.7,13.1L20.7,13.1z"/>
			<g clip-path="url(#SVGID_4_)">
				<path fill="#F5CD28" d="M21.3,13.3C21.3,13.3,21.3,13.3,21.3,13.3c-0.2,0-0.5-0.1-0.6-0.1c0,0,0,0,0-0.1c0-0.1,0.1-0.1,0.1-0.1
					c0,0,0.1,0,0.2,0c0.1,0,0.2,0,0.3,0c0.1,0,0.3,0,0.4,0c0.1,0,0.2,0,0.3,0c0,0,0.1,0,0.1,0C22,13.2,21.6,13.3,21.3,13.3
					L21.3,13.3z M20.8,13C20.8,13,20.7,13,20.8,13c0,0.1,0.2,0.2,0.5,0.2l0,0v0c0.3,0,0.7-0.1,0.7-0.2c0,0-0.2,0-0.3,0
					c-0.1,0-0.2,0-0.3,0c-0.1,0-0.2,0-0.3,0C20.9,13,20.9,13,20.8,13L20.8,13z"/>
			</g>
			<path clip-path="url(#SVGID_4_)" fill="#F5CD28" d="M20.7,13.4c0,0.1,0.4,0.1,0.7,0.1c0.3,0,0.6-0.1,0.7-0.2
				c0-0.1-0.4,0.1-0.7,0.1C21.1,13.4,20.7,13.3,20.7,13.4L20.7,13.4z"/>
			<g clip-path="url(#SVGID_4_)">
				<path fill="#F5CD28" d="M21.2,13.6c-0.1,0-0.5,0-0.5-0.1c0-0.1,0.1-0.1,0.2-0.1l0.3,0c0,0,0.1,0,0.1,0c0.1,0,0.3,0,0.4-0.1
					c0.1,0,0.2,0,0.2,0c0,0,0.1,0,0.1,0c0,0.1-0.4,0.2-0.7,0.3C21.3,13.6,21.3,13.6,21.2,13.6L21.2,13.6z M20.9,13.4
					c-0.1,0-0.2,0-0.2,0c0,0.1,0.2,0.1,0.5,0.1c0.1,0,0.1,0,0.2,0c0.3,0,0.6-0.1,0.6-0.2c-0.1,0-0.2,0-0.3,0c-0.1,0-0.3,0-0.4,0.1
					c0,0-0.1,0-0.1,0L20.9,13.4L20.9,13.4z"/>
			</g>
		</g>
	</g>
</g>
<g>
	<path fill="#CCCCCC" d="M39.8,0.2v22.5H0.2V0.2H39.8 M40,0H0v23h40V0L40,0z"/>
</g>
</svg>
