<?xml version="1.0" encoding="utf-8"?>
<!-- Generator: Adobe Illustrator 18.1.1, SVG Export Plug-In . SVG Version: 6.00 Build 0)  -->
<svg version="1.1"
	 id="svg3337" xmlns:sodipodi="http://sodipodi.sourceforge.net/DTD/sodipodi-0.dtd" sodipodi:version="0.32" sodipodi:docbase="/home/scarlet/sodipodi-flags/nations/" sodipodi:docname="/home/scarlet/sodipodi-flags/nations/mexico.svg"
	 xmlns="http://www.w3.org/2000/svg" xmlns:xlink="http://www.w3.org/1999/xlink" x="0px" y="0px" viewBox="0 0 612 350.4"
	 enable-background="new 0 0 612 350.4" xml:space="preserve">
<g>
	<g>
		<g>
			<rect id="rect880" y="0" fill="#FFFFFF" width="608.9" height="350.4"/>
			<rect id="rect1200" y="0" fill="#0B7226" width="203.5" height="350.4"/>
			<rect id="rect1201" x="408.5" y="0" fill="#BC0000" width="203.5" height="350.4"/>
		</g>
		<g id="g877" transform="matrix(0.375905,0.000000,0.000000,0.375905,182.6418,298.5789)">
			<g id="path610">
				<path d="M133.4-302.8L133.4-302.8L133.4-302.8L133.4-302.8L133.4-302.8L133.4-302.8v-3.1h3.1
					C133.4-302.8,133.4-302.8,133.4-302.8L133.4-302.8L133.4-302.8L133.4-302.8L133.4-302.8z"/>
			</g>
			<g>
				<path fill="#33B1E9" d="M413.4-226.3L413.4-226.3c-15.3,0-30.6,3.1-49,3.1c-21.4,9.2-39.8,15.3-61.2,24.5c0,3.1-3.1,3.1-3.1,6.1
					c0,0,3.1,6.1,6.1,6.1c6.1,0,52,0,52,0h3.1c3.1-3.1,0-3.1,3.1-6.1c3.1-3.1,6.1-3.1,9.2-6.1c9.2-3.1,18.4-6.1,30.6-6.1
					c0-6.1-6.1-6.1-9.2-6.1v-3.1C398.1-217.1,404.2-220.2,413.4-226.3z"/>
				<path fill="#33B1E9" d="M294-217.1c0,0,0-9.2-6.1-9.2s-21.4-6.1-18.4-15.3c-3.1,3.1-3.1,3.1-6.1,3.1c0,9.2-6.1,9.2-36.7-6.1
					c-3.1,0-3.1,0-6.1,3.1c0,0-3.1,0,0,3.1c0,3.1,30.6,15.3,15.3,18.4c-3.1,0-3.1,3.1,0,6.1c3.1,0,55.1,0,27.5,21.4
					c6.1,0,21.4,3.1,30.6,3.1l0,0C291-204.9,294-207.9,294-217.1z"/>
			</g>
			<g id="path643">
				<path sodipodi:nodetypes="ccccccccc" fill="#983D25" d="M300.1-235.5c-6.1,0-9.2,3.1-9.2,9.2c-3.1,6.1,0,18.4,0,27.5
					c0,6.1,3.1,9.2,9.2,9.2c21.4,3.1,42.8,3.1,61.2,0c6.1,0,9.2-3.1,9.2-9.2c3.1-9.2,3.1-18.4,0-27.5c0-6.1-3.1-9.2-9.2-9.2
					C343-235.5,321.6-235.5,300.1-235.5z"/>
			</g>
			<g id="path1138">
				<path sodipodi:nodetypes="ccccccccccccc" fill="#268728" d="M234.4-484.9c-6.1,3.1-9.2,9.2-15.3,12.2
					c-6.1,3.1-12.2,6.1-6.1,18.4c-3.1,18.4,12.2,21.4,24.5,15.3c3.1-3.1,3.1-6.1,6.1-12.2c-6.1,0-9.2,0-12.2,0
					c-3.1,0-3.1-3.1-3.1-6.1c6.1-3.1,9.2-6.1,15.3-9.2l0,0c-3.1,3.1-6.1,3.1-12.2,6.1c-3.1,0-6.1-3.1-3.1-6.1l9.2-12.2
					C234.4-478.7,234.4-484.9,234.4-484.9z"/>
			</g>
			<g id="path827" sodipodi:nodetypes="cccccccccccc">
				<g>
					<path fill="#FFBA00" d="M249.7-457.3c-3.1,0-6.1,3.1-6.1,6.1c-12.2,9.2-3.1,27.5,9.2,24.5c-9.2-15.3,0-21.4,9.2-18.4
						c3.1,3.1,6.1,6.1,6.1,6.1c3.1-3.1,9.2-9.2,9.2-9.2s6.1,0,6.1-3.1c0-3.1,6.1-12.2,6.1-12.2c-6.1,0-12.2-3.1-21.4-3.1
						c-6.1,0-9.2,0-15.3,0c-3.1,0-6.1,3.1-6.1,3.1C249.7-460.4,249.7-460.4,249.7-457.3z"/>
				</g>
				<g opacity="0.7724">
					<path d="M249.7-423.7L249.7-423.7c-6.1,0-12.2-3.1-12.2-9.2c-3.1-6.1,0-12.2,6.1-18.4c0-3.1,3.1-6.1,6.1-6.1l0,0v-3.1l0,0
						l9.2-3.1h15.3l24.5,6.1v3.2c-3.1,3.1-6.1,12.2-6.1,12.2c0,3.1-3.1,6.1-9.2,6.1l0,0c-3.1,0-6.1,3.1-9.2,6.1l0,0l0,0l0,0
						c0,0-3.1,0-3.1-3.1c0,0-3.1-3.1-3.1-6.1c-3.1,0-3.1,0-6.1,0c-3.1,0-3.1,0-6.1,3.1c0,3.1,0,6.1,3.1,12.2l3.1,3.1h-3.1
						C249.7-423.7,249.7-423.7,249.7-423.7z M252.7-460.4L252.7-460.4c0,3.1,0,3.1,0,3.1l0,0l0,0c-3.1,0-3.1,3.1-3.1,6.1l0,0l0,0
						c-6.1,3.1-6.1,9.2-6.1,12.2c0,3.1,6.1,6.1,9.2,6.1c-3.1-6.1-3.1-12.2,0-12.2c3.1-3.1,6.1-6.1,9.2-6.1c3.1,0,6.1,0,6.1,3.1l0,0
						c3.1,0,3.1,3.1,3.1,6.1c3.1-3.1,9.2-6.1,9.2-6.1l0,0l0,0l0,0c0,0,3.1,0,3.1-3.1c0-3.1,3.1-6.1,6.1-12.2l-15.3-3.1H262
						L252.7-460.4z"/>
				</g>
			</g>
			<g id="path761">
				<path sodipodi:nodetypes="cccccc" fill="#008D2B" d="M315.4-171.2c-6.1,6.1-15.3,12.2-21.4,15.3c0,0,3.1,3.1,6.1,0
					c6.1-6.1,9.2-9.2,18.4-12.2c0,0,3.1,0,3.1-3.1C318.5-171.2,318.5-171.2,315.4-171.2z"/>
				<path fill="#005E00" d="M297.1-152.8L297.1-152.8c0,0-6.1,0-6.1-3.1v-3.1l0,0c3.1-3.1,6.1-6.1,12.2-9.2
					c3.1-3.1,9.2-6.1,12.2-9.2l0,0l0,0c3.1,0,3.1,0,3.1,0s0,0,3.1,0h9.2l-12.2,6.1c-3.1,3.1-6.1,3.1-9.2,6.1
					c-3.1,3.1-6.1,3.1-9.2,6.1l0,0C300.1-152.8,297.1-152.8,297.1-152.8z M309.3-165.1c-3.1,0-3.1,3.1-6.1,3.1
					c-3.1,3.1-6.1,3.1-9.2,6.1l0,0c3.1-3.1,6.1-3.1,9.2-6.1C306.3-165.1,309.3-165.1,309.3-165.1z"/>
			</g>
			<g id="path756">
				<path sodipodi:nodetypes="csccc" fill="#008D00" d="M382.8-244.6c0-18.4,15.3-3.1,21.4-9.2c15.3-18.4,15.3-18.4,27.5-15.3
					c33.7,12.2,0,45.9-36.7,30.6C391.9-244.6,385.8-244.6,382.8-244.6z"/>
			</g>
			<g id="path648">
				<path sodipodi:nodetypes="ccccc" fill="#DC0000" d="M453.1-272.2c3.1,3.1,3.1,9.2-3.1,12.2c-6.1,3.1-12.2,3.1-12.2,0
					c-3.1-3.1,0-9.2,6.1-12.2C450.1-275.2,453.1-275.2,453.1-272.2z"/>
			</g>
			<g id="path759">
				<path sodipodi:nodetypes="cccccc" fill="#00602B" d="M339.9-171.2c6.1,6.1,15.3,12.2,21.4,15.3c0,0-3.1,3.1-6.1,0
					c-6.1-6.1-9.2-9.2-18.4-12.2c0,0-3.1,0-3.1-3.1C336.9-168.1,336.9-171.2,339.9-171.2z"/>
				<path fill="#004500" d="M358.3-149.8h-3.1l0,0c-3.1-3.1-6.1-3.1-9.2-6.1c-3.1-3.1-6.1-3.1-9.2-6.1l-12.2-6.1h9.2c0,0,0,0,3.1,0
					h3.1l0,0l0,0c3.1,3.1,6.1,6.1,12.2,9.2c3.1,3.1,9.2,6.1,12.2,9.2l0,0v3.1C364.4-149.8,361.3-149.8,358.3-149.8z M358.3-155.9
					L358.3-155.9c-3.1-3.1-3.1-3.1-6.1-6.1c-3.1,0-3.1-3.1-6.1-3.1l3.1,3.1C352.2-159,355.2-159,358.3-155.9z"/>
			</g>
			<g id="path665">
				<path sodipodi:nodetypes="cccc" fill="#008D00" d="M228.2-290.5c-6.1-15.3-21.4-39.8-36.7-27.5c-18.4,15.3,9.2,39.8,30.6,39.8
					C222.1-281.4,225.2-284.4,228.2-290.5z"/>
			</g>
			<g id="path659">
				<path sodipodi:nodetypes="ccccc" fill="#DC0000" d="M182.3-333.4c3.1-3.1,9.2-3.1,12.2,3.1c3.1,6.1,3.1,12.2,0,15.3
					s-9.2,0-12.2-6.1C176.2-327.3,179.3-330.3,182.3-333.4z"/>
			</g>
			<g id="path666">
				<path sodipodi:nodetypes="cccc" fill="#008D00" d="M275.7-272.2c-6.1-12.2-27.5-30.6-49-18.4c-24.5,18.4,9.2,42.8,42.8,30.6
					C275.7-263,272.6-269.1,275.7-272.2z"/>
			</g>
			<g id="path668">
				<path sodipodi:nodetypes="cccc" fill="#008D00" d="M343-263c-6.1-12.2-45.9-27.5-64.3-15.3c-21.4,24.5,9.2,39.8,52,27.5
					C333.8-253.8,339.9-259.9,343-263z"/>
			</g>
			<g id="path700">
				<path sodipodi:nodetypes="ccccc" fill="#008C00" d="M532.7-336.4c0-6.1,6.1-9.2,9.2-9.2c-3.1,9.2,0,15.3,0,18.4
					c0,6.1-12.2,15.3-18.4,21.4C529.6-315,532.7-324.2,532.7-336.4z"/>
				<path fill="#286326" d="M520.5-296.7l3.1-9.2c0-6.1,3.1-9.2,3.1-15.3s3.1-9.2,3.1-15.3s9.2-9.2,12.2-12.2h3.1v3.1
					c0,6.1,0,9.2,0,12.2c0,3.1,0,3.1,0,6.1c0,6.1-9.2,12.2-15.3,18.4c-3.1,3.1-3.1,3.1-3.1,3.1L520.5-296.7z"/>
			</g>
			<g>
				<g>
					<g>
						<path fill="#286326" d="M133.4-299.7c-3.1-12.2-9.2-21.4-18.4-21.4c-3.1,0-3.1-3.1-3.1-6.1c0-3.1,0-3.1,3.1-3.1l0,0l0,0l0,0
							l0,0l0,0l0,0l0,0l0,0c0,0,0,0,0-3.1l0,0l0,0l0,0l-3.1-3.1v-3.1l0,0v-3.1l3.1-3.1h3.1c0,0,0,0,3.1,3.1l0,0l0,0l0,0
							c0,0,0,0,0-3.1l0,0v-6.1l0,0c0-3.1,0-3.1,0-3.1h3.1c0,0,3.1,0,3.1,3.1l0,0l0,0l0,0l0,0l3.1-3.1l0,0h3.1c0,0,3.1,0,3.1,6.1l0,0
							l0,0c0,0-3.1,3.1-3.1,6.1c0,0,0,0,0,3.1s0,0,0,0h3.1l0,0c3.1,0,3.1,3.1,3.1,3.1s0,3.1-3.1,3.1l0,0c0,0,0,0-3.1,3.1
							c0,0,0,0,0,3.1c0,0,0,0,3.1,0s3.1,0,3.1,3.1v3.1l-3.1,3.1l0,0l0,0l0,0c0,0-3.1,0-3.1,3.1l0,0c0,3.1,0,6.1,0,6.1l0,0
							c0,3.1,0,6.1,0,12.2l0,0C136.4-302.8,136.4-299.7,133.4-299.7C136.4-299.7,136.4-299.7,133.4-299.7L133.4-299.7L133.4-299.7z"
							/>
					</g>
				</g>
				<g>
					<g>
						<path fill="#286326" d="M167-235.5c0,0-9.2-9.2-21.4-9.2c0,0,0,0-3.1,0l0,0c-3.1,0-3.1-3.1-6.1-6.1c0,0,0,0,0-3.1
							c0,0,0,0,0-3.1c0,0,0,0-3.1,0l0,0l0,0l0,0c-3.1,0-6.1-3.1-6.1-6.1c0-3.1,0-3.1,3.1-6.1c0,0,0,0,0-3.1l0,0
							c-6.1-3.1-6.1-3.1-6.1-3.1l0,0l0,0c0-3.1,0-3.1,0-3.1l3.1-3.1l0,0l0,0c0,0,0,0,0-3.1l0,0v-3.1c0,0,0,0,3.1,0l0,0l0,0
							c0,0,0,0,3.1,0l3.1,3.1c0,0,0,0,3.1,0l0,0c0-3.1,3.1-3.1,6.1-3.1l0,0c3.1,0,3.1,3.1,3.1,3.1s0,0,0,3.1l0,0l0,0l3.1-3.1
							c3.1,0,3.1,0,3.1,3.1s0,6.1,0,12.2l0,0c0,0,0,0,0,3.1l0,0l0,0l0,0c3.1,0,3.1,3.1,3.1,3.1c0,3.1,0,6.1-3.1,6.1l0,0l0,0
							c0,3.1,3.1,15.3,6.1,18.4l0,0l0,0C170.1-235.5,170.1-235.5,167-235.5C170.1-235.5,170.1-235.5,167-235.5L167-235.5L167-235.5z
							"/>
					</g>
				</g>
				<g>
					<g>
						<path fill="#286326" d="M275.7-152.8h-3.1c0,0,0,0,0-3.1c0,0,0,0,0-3.1l0,0l0,0l0,0l0,0c-3.1,3.1-3.1,3.1-6.1,3.1h-3.1v-3.1
							l0,0l0,0c0,0,3.1,0,3.1-3.1v-3.1l0,0l0,0c-3.1,0-3.1,3.1-3.1,3.1s-3.1,3.1-6.1,3.1l0,0h-3.1c-3.1,0-3.1,0-6.1-3.1
							c0,0,0-3.1,3.1-3.1l0,0l0,0l0,0l0,0c0,0,0,0-3.1,0c0,0-3.1,0-6.1,0c-3.1,0-3.1,0-6.1,0c-3.1,0-3.1,0-3.1,0l0,0
							c-3.1,0-3.1-3.1-3.1-3.1s0-3.1,3.1-3.1h3.1c3.1,0,3.1,0,6.1-3.1c0,0,0,0,0-3.1l0,0c-3.1-6.1-9.2-9.2-21.4-9.2l0,0
							c0,0,0,0-3.1,0h-3.1h-3.1l0,0h-3.1c0,0,0,0,0-3.1l0,0l0,0l0,0c-3.1,0-3.1,0-6.1,0l0,0l0,0c-3.1,0-3.1,0-6.1,0l0,0
							c-3.1,0-6.1-3.1-6.1-3.1c0-3.1,0-3.1,3.1-3.1l0,0l0,0c0,0,0,0,0-3.1c0,0,0-3.1-3.1-3.1c-6.1,0-6.1-3.1-9.2-3.1l0,0l0,0
							c0-3.1,0-3.1,0-3.1s0,0,3.1,0c0,0,0,0,3.1,0s0-3.1,0-3.1l-3.1-3.1c0-3.1,0-3.1,0-6.1c0,0,0,0,3.1,0c0,0,0,0,0-3.1v-2.4
							l3.1-3.1l0,0c0,0,3.1,0,3.1,3.1l0,0l0,0l0,0c0,0,0,0,3.1-3.1l0,0c3.1,0,3.1,3.1,3.1,9.2v3.1c0,0,0,3.1,3.1,3.1l0,0h3.1
							c0-3.1,3.1-3.1,3.1-3.1l0,0l0,0l0,0c3.1,0,6.1,6.1,6.1,15.3c0,3.1,0,3.1,0,6.1l0,0l0,0l0,0l0,0l0,0l0,0l0,0c0,0,0-3.1,3.1-3.1
							l0,0l0,0h3.1c0,0,0,3.1,0,6.1s0,3.1,0,6.1l0,0c3.1,6.1,6.1,9.2,9.2,9.2c3.1,0,3.1,3.1,3.1,3.1s0,0,3.1,0l0,0l0,0
							c3.1,0,3.1,0,6.1,3.1l0,0l0,0l0,0c0,0,0,0,0-3.1l3.1-3.1c3.1,0,6.1,3.1,6.1,3.1l3.1,3.1l0,0l0,0c0,0,0,0,0-3.1v-3l3.1-3.1l0,0
							l0,0c3.1,0,6.1,0,6.1,3.1v3.1l0,0c0,0,0,0,3.1,0l0,0c0,0,0,0,3.1,0l0,0c0,0,0,0,3.1,0s6.1,3.1,6.1,6.1l0,0c0,0,3.1,0,6.1,0
							c3.1,0,3.1,0,6.1,0c3.1,0,6.1,0,9.2,0l0,0l0,0l0,0c3.1,0,3.1,0,3.1,3.1s-3.1,3.1-15.3,3.1l0,0c-6.1,0-18.4,3.1-21.4,15.3
							C281.8-152.8,278.7-152.8,275.7-152.8z"/>
					</g>
				</g>
				<g>
					<g>
						<path fill="#286326" d="M437.8-189.6L437.8-189.6L437.8-189.6L437.8-189.6c-3.1,0-3.1,0-3.1,0l0,0l0,0l0,0l0,0l0,0l0,0l0,0
							v-3.1c3.1-9.2,6.1-18.4,12.2-21.4c0,0,3.1-3.1,6.1-6.1c6.1-3.1,9.2-9.2,12.2-12.2l3.1-3.1v3.1c0,0,0,3.1,0,6.1c0,0,0,0,0,3.1
							l0,0l0,0c6.1-3.1,9.2-3.1,12.2-3.1l0,0l0,0l0,0c0,3.1,0,6.1-3.1,9.2c0,0,0,0,0,3.1l0,0l0,0c0,0,0,3.1,0,6.1s0,3.1-3.1,3.1l0,0
							c-3.1,9.2-6.1,12.2-9.2,15.3l0,0l0,0c-3.1,3.1-12.2,3.1-21.4,3.1C447-189.6,440.9-189.6,437.8-189.6z M489.9-232.4
							C489.9-232.4,486.8-232.4,489.9-232.4C486.8-235.5,486.8-235.5,489.9-232.4C486.8-235.5,486.8-235.5,489.9-232.4
							c0-3.1,0-6.1,0-9.2l0,0v-3.1c0-15.3-3.1-36.7,18.4-45.9l0,0l0,0l0,0l0,0l0,0c3.1-3.1,6.1-3.1,6.1-6.1l0,0l0,0
							c3.1,3.1,3.1,9.2,3.1,12.2c0,0,0,0,0,3.1l0,0l0,0c3.1-3.1,6.1-3.1,9.2-3.1l0,0h3.1l-3.1,3.1c-3.1,3.1-9.2,12.2-12.2,18.4
							c-3.1,3.1-3.1,6.1-6.1,9.2c-3.1,6.1-15.3,12.2-24.5,18.4C492.9-235.5,489.9-232.4,489.9-232.4L489.9-232.4z"/>
					</g>
				</g>
				<g>
					<g>
						<path fill="#286326" d="M388.9-152.8c-6.1,0-18.4-3.1-27.5-9.2c0,0,0,0-3.1,0l0,0c-6.1-3.1-9.2-3.1-15.3-6.1v-3.1h3.1
							c3.1,0,6.1,0,12.2,0l0,0c3.1,0,3.1,0,6.1,0l0,0l3.1-3.1l0,0c3.1-3.1,6.1-6.1,9.2-9.2l0,0c9.2-3.1,15.3-6.1,24.5-6.1
							c3.1,0,3.1,0,6.1,0h3.1l-3.1,3.1c0,0,0,0-3.1,3.1c0,0,0,0,0,3.1c0,0,0,0,3.1,0l0,0c3.1,0,6.1,0,9.2,0h3.1l0,0
							c0,3.1-3.1,6.1-9.2,12.2c0,0,0,0,0,3.1s0,0,0,0c3.1,0,6.1,3.1,6.1,3.1l3.1,3.1h-3.2c-6.1,0-15.3,3.1-21.4,6.1
							C398.1-155.9,395-155.9,388.9-152.8C391.9-152.8,391.9-152.8,388.9-152.8z"/>
					</g>
				</g>
				<g>
					<g>
						<path fill="#286326" d="M520.5-299.7L520.5-299.7L520.5-299.7c-3.1,0-3.1-3.1-3.1-3.1l0,0c0-3.1-3.1-6.1-3.1-9.2
							c-3.1-3.1-3.1-6.1-6.1-9.2l0,0c0-6.1-3.1-12.2,3.1-21.4v-3.1v3.1l3.1,3.1l0,0l0,0l0,0l0,0c3.1-6.1,3.1-12.2,6.1-12.2l0,0l0,0
							c3.1,3.1,6.1,9.2,6.1,12.2l0,0C535.8-324.2,535.8-318.1,520.5-299.7L520.5-299.7z"/>
					</g>
				</g>
			</g>
			<g id="path712">
				<path sodipodi:nodetypes="ccccc" fill="#DC0000" d="M258.8-299.7c3.1,0,6.1,6.1,6.1,12.2c-3.1,6.1-6.1,12.2-9.2,9.2
					c-6.1,0-6.1-6.1-6.1-15.3C249.6-302.8,255.8-299.7,258.8-299.7z"/>
			</g>
			<g id="path701">
				<path d="M231.3-186.5L231.3-186.5L231.3-186.5z"/>
			</g>
			<g id="path750">
				<path sodipodi:nodetypes="cccc" fill="#FFFFFF" d="M398.1-272.2c6.1,3.1,6.1,12.2,0,15.3c0-6.1-3.1-9.2-9.2-9.2
					C391.9-269.1,395-275.2,398.1-272.2z"/>
				<path d="M398.1-253.8v-3.1c0-3.1-3.1-6.1-9.2-6.1h-6.1l6.1-3.1c0,0,3.1,0,3.1-3.1c3.1-3.1,6.1-3.1,9.2-3.1l0,0l0,0l0,0
					c3.1,3.1,6.1,6.1,6.1,9.2s-3.1,9.2-6.1,9.2L398.1-253.8z M395-269.1c3.1,0,6.1,3.1,6.1,6.1v-3.1c0-3.1,0-3.1-3.1-6.1l0,0
					L395-269.1z"/>
			</g>
			<g id="path751">
				<path sodipodi:nodetypes="cccc" fill="#008D00" d="M330.7-238.5c3.1-39.8,33.7-45.9,52-36.7c30.6,21.4,0,39.8-42.8,39.8
					C333.8-235.5,333.8-235.5,330.7-238.5z"/>
			</g>
			<g id="path740">
				<path sodipodi:nodetypes="cccc" fill="#FFFFFF" d="M336.9-281.4c-9.2,0-12.2,9.2-9.2,12.2c3.1-6.1,9.2-6.1,15.3-3.1
					C343-275.2,343-281.4,336.9-281.4z"/>
				<path d="M330.7-263L330.7-263c-3.1-6.1-6.1-9.2-3.1-15.3c3.1-3.1,6.1-6.1,12.2-6.1l0,0c3.1,0,6.1,6.1,6.1,9.2v3.1l3.1,6.1
					l-6.1-3.1c-3.1,0-3.1,0-6.1,0C333.8-269.1,333.8-269.1,330.7-263L330.7-263z M336.9-278.3c-3.1,0-6.1,3.1-6.1,3.1v3.1
					c3.1,0,3.1-3.1,6.1-3.1h3.1C339.9-278.3,339.9-278.3,336.9-278.3L336.9-278.3z"/>
			</g>
			<g id="path739">
				<path sodipodi:nodetypes="cccc" fill="#FFFFFF" d="M343-269.1c-6.1,3.1-6.1,12.2,0,15.3c0-6.1,3.1-9.2,9.2-9.2
					C349.1-266.1,346-272.2,343-269.1z"/>
				<path d="M346-250.8h-3c-3.1-3.1-6.1-6.1-6.1-9.2s3.1-9.2,6.1-9.2l0,0l0,0l0,0c3.1,0,6.1,3.1,6.1,3.1l3.1,3.1l6.1,3.1h-6.1
					c-6.1,0-9.2,3.1-9.2,6.1L346-250.8z M343-266.1c-3.1,3.1-3.1,3.1-3.1,6.1v3.1c0-3.1,3.1-6.1,6.1-6.1l0,0
					C346-266.1,346-266.1,343-266.1z"/>
			</g>
			<g id="path738">
				<path sodipodi:nodetypes="ccccccccccccccccc" fill="#F6AA00" d="M401.1-272.2c0-3.1-3.1-6.1-6.1-6.1s-6.1,3.1-12.2,0
					c0,0-9.2-6.1-12.2-12.2c-3.1,0-6.1-3.1-6.1-3.1c-3.1,3.1-6.1,9.2-9.2,12.2c-3.1,0-3.1,3.1-6.1,3.1c-3.1-3.1-9.2-3.1-12.2,0
					c3.1,3.1,0,9.2,0,12.2c0,0,3.1,0,6.1,0c6.1,0,3.1,6.1,6.1,9.2c6.1,3.1,9.2,0,9.2-6.1c0-3.1,6.1-3.1,9.2-3.1
					c3.1,0,9.2-3.1,12.2,0c3.1,0,3.1,3.1,6.1,6.1c0,0,3.1,0,9.2,0C395-269.1,395-272.2,401.1-272.2z"/>
				<path d="M352.2-259.9h-3.1l0,0c0,0,0-3.1-3.1-3.1c0-3.1,0-3.1-3.1-3.1l0,0l0,0h-3.1v-3.1c0-6.1,0-9.2,0-12.2v-3.1
					c0,0,3.1-3.1,6.1-3.1c3.1,0,6.1,0,9.2,3.1c3.1,0,3.1,0,3.1,0l0,0c3.1-3.1,3.1-3.1,6.1-6.1c0,0,0-3.1,3.1-3.1h3.1l6.1,3.1l0,0
					c3.1,3.1,9.2,9.2,12.2,9.2c0,0,0,0,3.1,0h3.1c0,0,3.1,0,6.1,0c3.1,0,9.2,3.1,6.1,9.2c0,0,0,3.1-3.1,3.1c-3.1,0-3.1,3.1-3.1,3.1
					l0,0c0,0,0,3.1-3.1,3.1s-6.1,0-6.1,0l0,0c-3.1,0-3.1,0-3.1,0h-3.1c0-3.1-3.1-3.1-6.1-6.1h-3.1c-3.1,0-3.1,0-6.1,0l0,0h-3.1
					c-3.1,0-3.1,0-6.1,3.1C361.3-263,358.3-259.9,352.2-259.9z M352.2-263L352.2-263c3.1,0,6.1,0,6.1-3.1l0,0
					c3.1-3.1,6.1-3.1,9.2-3.1h3.1l0,0c3.1,0,3.1,0,6.1,0c3.1,0,3.1,0,6.1,0c3.1,0,6.1,3.1,6.1,6.1l0,0l0,0h3.1c0-3.1,0-6.1,6.1-6.1
					l-3.1-3.1l0,0h-3.1h-3.1c-3.1,0-3.1,0-6.1-3.1c0,0-9.2-6.1-12.2-12.2c0,0,0-19.9-3.1-19.9c0,0-6.1,1.5-6.1,4.6
					c-3.1,3.1,0,21.4-6.1,24.5l0,0l0,0c0,0-3.1,0-6.1,0l0,0c-3.1,0-6.1-3.1-6.1-3.1c0,3.1,0,6.1,0,9.2h3.1
					C349.1-272.2,349.1-269.1,352.2-263C349.1-266.1,352.2-263,352.2-263z"/>
			</g>
			
				<g id="path828" sodipodi:nodetypes="cccccscccccccccccccccccccccccccccccccccccccccccccccccccccccccccccccccccccccccccccccccccccccccccccc">
				<g>
					<path fill="#9C4314" d="M474.6-296.7c3.1,3.1,9.2-24.5,6.1-30.6c0,0,0-18.4,3.1-30.6c3.1-3.1,3.1-33.7,0-42.8
						c3.1,0,6.1,0,6.1-3.1c-12.3,3.1-15.3-27.5-27.6-42.8c-12.2-18.4-27.5-27.5-39.8-39.8c0-3.1,3.1-6.1,6.1-9.2
						c-18.3,9.2-45.8-24.4-88.7-21.4c-9.2,0-15.3,0-15.3,6.1c-9.2,0-15.3,3.1-15.3,12.2c0,3.1,3.1,6.1,6.1,6.1
						c6.1,3.1,12.2,0,18.4,9.2c0,3.1,0,6.1,0,9.2c0,0-6.1-9.2-9.2-9.2c0,0,0-3.1,3.1-3.1c-3.1-3.1-9.2,0-9.2,0s-12.2-6.1-21.4-3.1
						l-3.1-9.2c-3.1,6.1-6.1,6.1-6.1,9.2c0-3.1-3.1-6.1-3.1-12.2c-3.1,6.1-3.1,9.2-3.1,15.3c0,0-3.1,0-6.1-3.1c0-3.1,0-3.1,0-9.2
						c-3.1,3.1-6.1,6.1-6.1,15.3c0-3.1-3.1-6.1-3.1-9.2c0,9.2-9.2,15.3-15.3,21.4c-3.1,3.1,0,3.1,0,6.1c0,0,3.1,0,3.1,3.1
						c3.1,0,6.1,0,6.1,0c0,3.1,0,3.1,3.1,3.1c9.2,3.1,18.4-9.2,27.5,9.2c-3.1,3.1-9.2,12.2-6.1,12.2c3.1,0-3.1,3.1,3.1,0
						c-6.1,6.1-12.2,15.3-12.2,15.3c0,3.1,3.1,0,3.1,3.1c0-3.1,3.1,0,3.1,0c-15.3,15.3,0,33.7-3.1,42.8c3.1,3.1,3.1,0,6.1,0
						c3.1,12.2,9.2,18.4,15.3,27.5c-3.1,0-6.1,0-9.2,0c0,3.1,3.1,9.2,6.1,12.2c-3.1,0-3.1,0-6.1,3.1c-6.1,3.1-9.2,6.1-12.2,9.2
						c-3.1,6.1,9.2,6.1,18.4,6.1c0,3.1,0,3.1,0,6.1c9.2,0,21.4-3.1,21.4-3.1l3.1-3.1c0,3.1,3.1,3.1,6.1,3.1c3.1,0,6.1-6.1,3.1-12.2
						c3.1,3.1,6.1,12.2,9.2,15.3h3.1c3.1,6.1,6.1,9.2,9.2,15.3c3.1,3.1,0,0,3.1,0c3.1,0,3.1,0,6.1-6.1c0,0,0,0,3.1,3.1
						s3.1-3.1,6.1-3.1c0-3.1,3.1,0,3.1,0l3.1,3.1c3.1,0,3.1-3.1,3.1-9.2c3.1,3.1,3.1,3.1,3.1,3.1s0-3.1,3.1-6.1
						c0-3.1,12.2,12.2,12.2,12.2s9.2,3.1,9.2,0c3.1,3.1,12.2,3.1,15.3,0c9.2,3.1,18.4,0,18.4-3.1c6.1,3.1,18.4,0,18.4,0
						s6.1-3.1,0-6.1c-24.5-18.4-61.2-45.9-76.5-52c0-6.1-3.1-24.5-9.2-27.5c0-3.1,0-6.1,3.1-6.1c9.2,9.2,12.2,9.2,18.4,9.2
						c6.1,3.1,6.1,12.2,12.2,18.4c3.1,0,6.1,3.1,6.1,0c-3.1-9.2-6.1-18.4-18.4-27.5c6.1,3.1,15.3,9.2,18.4,15.3
						c3.1,6.1,6.1,12.2,9.2,18.4c3.1,3.1,6.1,6.1,6.1,3.1c0-9.2-6.1-24.5-6.1-24.5c9.2,9.2,9.2,21.4,12.2,27.5
						c3.1,3.1,3.1,9.2,6.1,9.2c0-3.1-3.1-24.5-3.1-24.5c0-3.1,0-6.1-3.1-9.2c9.2,3.1,9.2,21.4,15.3,42.8c0,3.1,0,6.1,0,9.2
						c3.1,3.1,3.1,9.2,3.1,3.1c0,0,0-33.7-3.1-39.8c0-3.1,0-9.2,0-9.2c3.1,12.2,6.1,27.5,9.2,42.8c0,3.1,0,6.1,0,9.2l3.1,3.1
						c0-9.2,3.1-15.3,3.1-24.5l-3.1-30.6v-9.1c0-3.1,3.1-3.1,3.1,0c0,6.1,0,12.2,0,21.4c0,9.2,3.1,15.3,3.1,24.5
						C474.6-315,474.6-296.7,474.6-296.7z"/>
				</g>
			</g>
			<g id="path795">
				<path d="M373.6-232.4L373.6-232.4l-6.1-3.1c0,0,0,0,0-3.1s3.1-3.1,6.1-3.1l0,0c0,0,3.1,0,3.1,3.1s0,3.1-3.1,3.1l0,0
					C376.6-235.5,376.6-235.5,373.6-232.4C376.6-232.4,376.6-232.4,373.6-232.4z"/>
			</g>
			<g id="path825">
				<path d="M294-308.9L294-308.9C294-308.9,294-312,294-308.9c0-3.1,0-6.1,3.1-6.1l0,0c0,0,3.1,0,3.1-3.1l0,0c0,0,0,0,3.1,0l0,0
					c0,0,0,0,3.1,0l0,0l0,0c0,0,0,0,3.1,0h3.1l0,0l0,0l0,0v3.1l0,0l0,0l0,0h-3.1l0,0l0,0l0,0l0,0l0,0l0,0l0,0c0,0,0,0-3.1,0l0,0
					l-3.1,3.1C297.1-312,297.1-312,294-308.9C294-312,294-308.9,294-308.9L294-308.9z"/>
			</g>
			<g id="path835" opacity="0.7724">
				<rect x="350.8" y="-306.6" transform="matrix(0.5237 0.8519 -0.8519 0.5237 -91.3159 -446.7186)" width="6.1" height="3.1"/>
			</g>
			<g id="path849" opacity="0.7724">
				<rect x="365" y="-310.1" transform="matrix(0.3347 0.9423 -0.9423 0.3347 -44.9047 -553.5187)" width="9.2" height="3.1"/>
			</g>
			<g id="path852" opacity="0.7724">
				<rect x="359.9" y="-307.9" transform="matrix(0.5164 0.8563 -0.8563 0.5164 -86.0195 -460.2837)" width="9.2" height="3.1"/>
			</g>
			<g id="path873" opacity="0.7724">
				<path d="M263.4-442l-3.1-3.1c3.1-3.1,9.2-6.1,12.2-6.1c3.1,0,6.1,3.1,6.1,6.1l-3.1,3.1l-3.1-3.1
					C269.5-445.1,263.4-445.1,263.4-442z"/>
			</g>
			<g id="path876" opacity="0.7724">
				<path d="M243.5-448.1L243.5-448.1v-6.2c3.1,0,6.1,0,6.1-3.1l3.1,3.1C249.7-448.1,246.6-448.1,243.5-448.1z"/>
			</g>
			<g id="path906" sodipodi:nodetypes="cccccc">
				<g>
					<path fill="#FFFFFF" d="M252.7-457.3c0-3.1,3.1-9.2,9.2-12.2c3.1,0,3.1,0,3.1,0c0,3.1,0,6.1,0,6.1c0,3.1-3.1,3.1-6.1,6.1
						C255.8-457.3,255.8-457.3,252.7-457.3z"/>
				</g>
				<g opacity="0.7724">
					<path d="M258.8-454.3L258.8-454.3c-3.1,0-3.1,0-3.1,0h-3.1h-3.1v-3c0-6.1,6.1-9.2,9.2-12.2h3.1c3.1,0,3.1,0,3.1,0l0,0l0,0l0,0
						c3.1,3.1,0,9.2,0,9.2l0,0C266.5-457.3,263.4-454.3,258.8-454.3L258.8-454.3z M255.8-457.3L255.8-457.3
						C258.8-457.3,258.8-457.3,255.8-457.3c6.1,0,6.1-3.1,9.2-3.1v-3.1l0,0l0,0C260.4-463.4,258.8-460.4,255.8-457.3z"/>
				</g>
			</g>
			<g id="path913" opacity="0.7724">
				
					<rect x="374" y="-313.7" transform="matrix(5.837085e-02 0.9983 -0.9983 5.837085e-02 44.8939 -671.8746)" width="9.2" height="3.1"/>
			</g>
			<g id="path1153">
				<path sodipodi:nodetypes="ccccccccccccccc" fill="#238700" d="M185.4-393.1c6.1,6.1,12.2,3.1,15.3,12.2c0,6.1-9.2,18.4,0,30.6
					c3.1,3.1,12.2,9.2,12.2,9.2c3.1,3.1,6.1,12.2,9.2,18.4c6.1,9.2,12.2,9.2,18.4,9.2l21.4-9.2c0,0-9.2-15.3-9.2-12.2
					s-12.2,9.2-12.2,9.2s-9.2,0-9.2-9.2c0-12.2-6.1-18.4-15.3-21.4c-3.1-3.1-9.2-9.2-3.1-15.3c3.1-6.1,3.1-18.4-3.1-24.5
					c-6.1-3.1-9.2-6.1-15.3-6.1C185.4-402.2,185.4-402.2,185.4-393.1z"/>
			</g>
			<g id="path1183">
				<path sodipodi:nodetypes="cccc" fill="#FFFFFF" d="M243.5-318.1c3.1,3.1,6.1,3.1,9.2,0c-3.1,0-3.1-3.1-6.1-6.1
					C246.6-324.2,243.5-321.1,243.5-318.1z"/>
				<path d="M249.7-315L249.7-315c-3.1,0-3.1,0-6.1-3.1l0,0c0-3.1,0-3.1,3.1-6.1l0,0v-3.1v3.1c0,3.1,3.1,3.1,3.1,3.1h3.1v3.1
					L249.7-315z M246.6-318.1L246.6-318.1c3.1,0,3.1,0,6.1,0C249.7-318.1,246.6-321.1,246.6-318.1
					C246.6-321.1,246.6-321.1,246.6-318.1z"/>
			</g>
			<g id="path1184">
				<path sodipodi:nodetypes="cccc" fill="#FFFFFF" d="M246.6-321.1c3.1,3.1,6.1,3.1,9.2,0c-3.1,0-3.1-3.1-6.1-6.1
					C249.7-324.2,246.6-324.2,246.6-321.1z"/>
				<path d="M252.7-318.1L252.7-318.1c-3.1,0-3.1,0-6.1-3.1l0,0c0-3.1,0-3.1,3.1-6.1l0,0v-3v3.1c0,3.1,3.1,3.1,3.1,3.1h3.1v3.1
					C255.8-318.1,255.8-318.1,252.7-318.1z M249.7-321.1L249.7-321.1L249.7-321.1c3.1,0,3.1,0,6.1,0
					C252.7-321.1,252.7-321.1,249.7-321.1C249.7-324.2,249.7-321.1,249.7-321.1z"/>
			</g>
			<g id="path1185">
				<path sodipodi:nodetypes="cccc" fill="#FFFFFF" d="M252.7-324.2c3.1,3.1,6.1,3.1,9.2,0c-3.1,0-3.1-3.1-6.1-6.1
					C255.8-327.3,252.7-324.2,252.7-324.2z"/>
				<path d="M255.8-321.1L255.8-321.1c-3.1,0-3.1,0-6.1-3.1l0,0c0-3.1,0-3.1,3.1-6.1l0,0v-3.1v3.1c0,3.1,3.1,3.1,3.1,3.1h3.1v3.1
					C260.4-321.1,258.8-321.1,255.8-321.1z M252.7-324.2C255.8-321.1,255.8-321.1,252.7-324.2c3.1,0,3.1,0,6.1,0
					C258.8-324.2,255.8-324.2,252.7-324.2C255.8-324.2,252.7-324.2,252.7-324.2z"/>
			</g>
			<g id="path927" opacity="0.7724">
				<path d="M303.2-324.2c-3.1,0-9.2-3.1-9.2-3.1l3.1-3.1v-3.1l6.1,3.1V-324.2z"/>
			</g>
			<g id="path1104">
				<path d="M309.3-321.1L309.3-321.1L309.3-321.1z"/>
			</g>
			<g id="path1107">
				<path sodipodi:nodetypes="cccccccccc" fill="#F7B200" d="M284.8-330.3c3.1-3.1,0-9.2-3.1-12.2c-12.2-6.1-30.6-6.1-33.7,3.1
					c-3.1,0-6.1,3.1-6.1,6.1c-9.2,3.1,0,15.3,3.1,15.3s3.1,0,6.1,0c3.1,0,3.1-3.1,6.1-3.1c3.1,0,3.1,0,3.1-3.1
					c6.1,6.1,15.3,12.2,18.4,3.1C275.7-324.2,281.8-327.3,284.8-330.3z"/>
				<path d="M269.5-315L269.5-315c-3.1,0-9.2-3.1-12.2-6.1h-3.1c0,0-3.1,3.1-6.1,3.1c0,0-3.1,3.1-6.1,0c-3.1,0-9.2-6.1-9.2-12.2
					c0-3.1,3.1-6.1,6.1-6.1c0-3.1,3.1-6.1,6.1-6.1c3.1-3.1,9.2-6.1,18.4-6.1c6.1,0,15.3,3.1,18.4,6.1c6.1,3.1,6.1,9.2,6.1,15.3l0,0
					l-12.2,6.1C275.7-318.1,272.6-315,269.5-315z M255.8-330.3l3.1,3.1c3.1,3.1,9.2,6.1,12.2,6.1l0,0c0,0,3.1,0,3.1-3.1l0,0
					l12.2-6.1c0-3.1,0-6.1-3.1-9.2c-3.1-3.1-12.2-3.1-18.4-3.1c-6.1,0-12.2,3.1-12.2,6.1v3.1h-3.1c-3.1,0-3.1,3.1-3.1,3.1l0,0l0,0
					c-3.1,0-3.1,3.1-3.1,3.1c0,3.1,3.1,6.1,6.1,9.2l0,0h3.1l0,0v-3.1h3.1l0,0c0,0,3.1,0,3.1-3.1v-3.1h3.1c0,0,0,0,3.1,0L255.8-330.3
					z"/>
			</g>
			<g id="path1110">
				<path d="M252.7-321.1c-6.1-6.1-6.1-12.2-6.1-18.4h6.1c0,3.1,0,9.2,6.1,15.3L252.7-321.1z"/>
			</g>
			<g id="path1108">
				<path sodipodi:nodetypes="cccscscccsccc" fill="#288800" d="M266.5-435.9c9.2,12.2-3.1,27.5-15.3,36.7
					c-15.3,12.2-21.4,33.7,3.1,36.7c9.2,0,18.4,0,24.5,6.1s6.1,21.4-9.2,30.6c0,0-3.1-6.1-6.1-6.1c-3.1,0-3.1,0-3.1,0
					c0-6.1,6.1-12.2,0-12.2c-9.2,3.1-42.8,3.1-42.8-30.6c0-6.1,3.1-15.3,9.2-21.4c6.1-9.2,21.4-18.4,24.5-21.4
					c3.1-3.1-3.1-12.2-6.1-12.2C243.5-442,258.8-451.2,266.5-435.9z"/>
			</g>
			<g id="path1112">
				<path sodipodi:nodetypes="cccc" fill="#FFFFFF" d="M255.8-345.6c-6.1,9.2,0,15.3,6.1,12.2c0-6.1-3.1-9.2,3.1-15.3
					C260.4-345.6,258.8-348.7,255.8-345.6z"/>
				<path d="M258.8-330.3c-3.1,0-6.1-3.1-6.1-3.1c-3.1-3.1,0-9.2,0-12.2l0,0c3.1-3.1,6.1-3.1,6.1-3.1s0,0,3.1,0h3.1h6.1l-3.1,3.1
					c-3.1,3.1-3.1,6.1-3.1,9.2c0,0,0,0,0,3.1v3.1h-3.1C260.4-330.3,258.8-330.3,258.8-330.3z M255.8-342.6c0,3.1-3.1,6.1,0,6.1
					l3.1,3.1l0,0c0-3.1,0-6.1,0-9.2C258.8-342.6,258.8-342.6,255.8-342.6z"/>
			</g>
			<g id="path1176">
				<path d="M269.5-330.3c0-3.1-3.1-6.1-9.2-9.2l3.1-3.1c9.2,3.1,9.2,9.2,12.2,12.2h-6.1V-330.3z"/>
			</g>
			<g id="rect1177">
				
					<rect x="135" y="-298.4" transform="matrix(-0.9736 0.2283 -0.2283 -0.9736 203.5074 -601.9779)" fill="#296526" width="3.1" height="18.4"/>
			</g>
			<g id="path1179">
				<path sodipodi:nodetypes="ccccc" fill="#296526" d="M167-235.5l9.2,9.2l3.1-3.1l-9.2-9.2L167-235.5z"/>
			</g>
			<g id="path1180">
				<path sodipodi:nodetypes="ccccc" fill="#296526" d="M434.8-192.6l-12.2,6.1l3.1,3.1l12.2-6.1L434.8-192.6z"/>
			</g>
			<g id="path1181">
				<path sodipodi:nodetypes="ccccc" fill="#296526" d="M489.9-238.5l-9.2,9.2l3.1,3.1l9.2-9.2L489.9-238.5z"/>
			</g>
			<g id="path1182">
				<path sodipodi:nodetypes="ccccc" fill="#296526" d="M520.5-302.8l-3.1,9.2l3.1,3.1V-302.8L520.5-302.8z"/>
			</g>
		</g>
	</g>
	<g>
		<path fill="#CDCCCC" d="M607.4,3.1v344.2H4.6V3.1H607.4 M610.5,0H1.6v350.4h608.9V0L610.5,0z"/>
	</g>
	<sodipodi:namedview  showgrid="true" snaptogrid="false" id="base"></sodipodi:namedview>
</g>
</svg>
