<?xml version="1.0" encoding="utf-8"?>
<!-- Generator: Adobe Illustrator 18.1.1, SVG Export Plug-In . SVG Version: 6.00 Build 0)  -->
<svg version="1.1" id="Layer_1" xmlns="http://www.w3.org/2000/svg" xmlns:xlink="http://www.w3.org/1999/xlink" x="0px" y="0px"
	 viewBox="0 0 612 351.9" enable-background="new 0 0 612 351.9" xml:space="preserve">
<g>
	<rect y="0" fill="none" width="612" height="351.9"/>
	<rect y="0" fill="none" width="612" height="351.9"/>
	<rect y="0" fill="none" width="612" height="351.9"/>
	<rect y="0" fill="none" width="612" height="351.9"/>
	<g>
		<rect y="0" fill="#F0E030" width="612" height="351.9"/>
		<polygon fill="#FFFFFF" points="0,107 612,254 612,171.4 0,24.5 		"/>
		<polygon points="0,180.5 612,327.4 612,254 0,107 		"/>
	</g>
	<rect y="0" fill="none" width="612" height="351.9"/>
	<rect y="0" fill="none" width="612" height="351.9"/>
	<rect y="0" fill="none" width="612" height="351.9"/>
	<rect y="0" fill="none" width="612" height="351.9"/>
	<rect y="0" fill="none" width="612" height="351.9"/>
	<rect y="0" fill="none" width="612" height="351.9"/>
	<rect y="0" fill="none" width="612" height="351.9"/>
	<rect y="0" fill="none" width="612" height="351.9"/>
	<rect y="0" fill="none" width="612" height="351.9"/>
	<rect y="0" fill="none" width="612" height="351.9"/>
	<rect y="0" fill="none" width="612" height="351.9"/>
	<rect y="0" fill="none" width="612" height="351.9"/>
	<rect y="0" fill="none" width="612" height="351.9"/>
	<rect y="0" fill="none" width="612" height="351.9"/>
	<rect y="0" fill="none" width="612" height="351.9"/>
	<rect y="0" fill="none" width="612" height="351.9"/>
	<rect y="0" fill="none" width="612" height="351.9"/>
	<rect y="0" fill="none" width="612" height="351.9"/>
	<rect y="0" fill="none" width="612" height="351.9"/>
	<rect y="0" fill="none" width="612" height="351.9"/>
	<rect y="0" fill="none" width="612" height="351.9"/>
	<rect y="0" fill="none" width="612" height="351.9"/>
	<rect y="0" fill="none" width="612" height="351.9"/>
	<rect y="0" fill="none" width="612" height="351.9"/>
	<rect y="0" fill="none" width="612" height="351.9"/>
	<rect y="0" fill="none" width="612" height="351.9"/>
	<rect y="0" fill="none" width="612" height="351.9"/>
	<rect y="0" fill="none" width="612" height="351.9"/>
	<rect y="0" fill="none" width="612" height="351.9"/>
	<rect y="0" fill="none" width="612" height="351.9"/>
	<rect y="0" fill="none" width="612" height="351.9"/>
	<rect y="0" fill="none" width="612" height="351.9"/>
	<rect y="0" fill="none" width="612" height="351.9"/>
	<rect y="0" fill="none" width="612" height="351.9"/>
	<rect y="0" fill="none" width="612" height="351.9"/>
	<rect y="0" fill="none" width="612" height="351.9"/>
	<rect y="0" fill="none" width="612" height="351.9"/>
	<rect y="0" fill="none" width="612" height="351.9"/>
	<rect y="0" fill="none" width="612" height="351.9"/>
	<rect y="0" fill="none" width="612" height="351.9"/>
	<rect y="0" fill="none" width="612" height="351.9"/>
	<rect y="0" fill="none" width="612" height="351.9"/>
	<rect y="0" fill="none" width="612" height="351.9"/>
	<rect y="0" fill="none" width="612" height="351.9"/>
	<rect y="0" fill="none" width="612" height="351.9"/>
	<rect y="0" fill="none" width="612" height="351.9"/>
	<rect y="0" fill="none" width="612" height="351.9"/>
	<rect y="0" fill="none" width="612" height="351.9"/>
	<rect y="0" fill="none" width="612" height="351.9"/>
	<rect y="0" fill="none" width="612" height="351.9"/>
	<rect y="0" fill="none" width="612" height="351.9"/>
	<rect y="0" fill="none" width="612" height="351.9"/>
	<rect y="0" fill="none" width="612" height="351.9"/>
	<rect y="0" fill="none" width="612" height="351.9"/>
	<rect y="0" fill="none" width="612" height="351.9"/>
	<rect y="0" fill="none" width="612" height="351.9"/>
	<rect y="0" fill="none" width="612" height="351.9"/>
	<rect y="0" fill="none" width="612" height="351.9"/>
	<rect y="0" fill="none" width="612" height="351.9"/>
	<rect y="0" fill="none" width="612" height="351.9"/>
	<rect y="0" fill="none" width="612" height="351.9"/>
	<rect y="0" fill="none" width="612" height="351.9"/>
	<rect y="0" fill="none" width="612" height="351.9"/>
	<rect y="0" fill="none" width="612" height="351.9"/>
	<rect y="0" fill="none" width="612" height="351.9"/>
	<rect y="0" fill="none" width="612" height="351.9"/>
	<rect y="0" fill="none" width="612" height="351.9"/>
	<rect y="0" fill="none" width="612" height="351.9"/>
	<rect y="0" fill="none" width="612" height="351.9"/>
	<rect y="0" fill="none" width="612" height="351.9"/>
	<rect y="0" fill="none" width="612" height="351.9"/>
	<rect y="0" fill="none" width="612" height="351.9"/>
	<rect y="0" fill="none" width="612" height="351.9"/>
	<rect y="0" fill="none" width="612" height="351.9"/>
	<rect y="0" fill="none" width="612" height="351.9"/>
	<rect y="0" fill="none" width="612" height="351.9"/>
	<rect y="0" fill="none" width="612" height="351.9"/>
	<rect y="0" fill="none" width="612" height="351.9"/>
	<rect y="0" fill="none" width="612" height="351.9"/>
	<rect y="0" fill="none" width="612" height="351.9"/>
	<rect y="0" fill="none" width="612" height="351.9"/>
	<rect y="0" fill="none" width="612" height="351.9"/>
	<rect y="0" fill="none" width="612" height="351.9"/>
	<rect y="0" fill="none" width="612" height="351.9"/>
	<rect y="0" fill="none" width="612" height="351.9"/>
	<rect y="0" fill="none" width="612" height="351.9"/>
	<rect y="0" fill="none" width="612" height="351.9"/>
	<rect y="0" fill="none" width="612" height="351.9"/>
	<rect y="0" fill="none" width="612" height="351.9"/>
	<rect y="0" fill="none" width="612" height="351.9"/>
	<rect y="0" fill="none" width="612" height="351.9"/>
	<rect y="0" fill="none" width="612" height="351.9"/>
	<rect y="0" fill="none" width="612" height="351.9"/>
	<rect y="0" fill="none" width="612" height="351.9"/>
	<rect y="0" fill="none" width="612" height="351.9"/>
	<rect y="0" fill="none" width="612" height="351.9"/>
	<rect y="0" fill="none" width="612" height="351.9"/>
	<rect y="0" fill="none" width="612" height="351.9"/>
	<rect y="0" fill="none" width="612" height="351.9"/>
	<rect y="0" fill="none" width="612" height="351.9"/>
	<rect y="0" fill="none" width="612" height="351.9"/>
	<rect y="0" fill="none" width="612" height="351.9"/>
	<rect y="0" fill="none" width="612" height="351.9"/>
	<rect y="0" fill="none" width="612" height="351.9"/>
	<rect y="0" fill="none" width="612" height="351.9"/>
	<rect y="0" fill="none" width="612" height="351.9"/>
	<rect y="0" fill="none" width="612" height="351.9"/>
	<rect y="0" fill="none" width="612" height="351.9"/>
	<rect y="0" fill="none" width="612" height="351.9"/>
	<rect y="0" fill="none" width="612" height="351.9"/>
	<rect y="0" fill="none" width="612" height="351.9"/>
	<rect y="0" fill="none" width="612" height="351.9"/>
	<rect y="0" fill="none" width="612" height="351.9"/>
	<rect y="0" fill="none" width="612" height="351.9"/>
	<rect y="0" fill="none" width="612" height="351.9"/>
	<rect y="0" fill="none" width="612" height="351.9"/>
	<rect y="0" fill="none" width="612" height="351.9"/>
	<rect y="0" fill="none" width="612" height="351.9"/>
	<rect y="0" fill="none" width="612" height="351.9"/>
	<rect y="0" fill="none" width="612" height="351.9"/>
	<rect y="0" fill="none" width="612" height="351.9"/>
	<rect y="0" fill="none" width="612" height="351.9"/>
	<rect y="0" fill="none" width="612" height="351.9"/>
	<rect y="0" fill="none" width="612" height="351.9"/>
	<rect y="0" fill="none" width="612" height="351.9"/>
	<rect y="0" fill="none" width="612" height="351.9"/>
	<rect y="0" fill="none" width="612" height="351.9"/>
	<rect y="0" fill="none" width="612" height="351.9"/>
	<rect y="0" fill="none" width="612" height="351.9"/>
	<rect y="0" fill="none" width="612" height="351.9"/>
	<rect y="0" fill="none" width="612" height="351.9"/>
	<rect y="0" fill="none" width="612" height="351.9"/>
	<rect y="0" fill="none" width="612" height="351.9"/>
	<rect y="0" fill="none" width="612" height="351.9"/>
	<rect y="0" fill="none" width="612" height="351.9"/>
	<rect y="0" fill="none" width="612" height="351.9"/>
	<rect y="0" fill="none" width="612" height="351.9"/>
	<rect y="0" fill="none" width="612" height="351.9"/>
	<rect y="0" fill="none" width="612" height="351.9"/>
	<rect y="0" fill="none" width="612" height="351.9"/>
	<rect y="0" fill="none" width="612" height="351.9"/>
	<rect y="0" fill="none" width="612" height="351.9"/>
	<rect y="0" fill="none" width="612" height="351.9"/>
	<rect y="0" fill="none" width="612" height="351.9"/>
	<rect y="0" fill="none" width="612" height="351.9"/>
	<rect y="0" fill="none" width="612" height="351.9"/>
	<rect y="0" fill="none" width="612" height="351.9"/>
	<rect y="0" fill="none" width="612" height="351.9"/>
	<rect y="0" fill="none" width="612" height="351.9"/>
	<rect y="0" fill="none" width="612" height="351.9"/>
	<rect y="0" fill="none" width="612" height="351.9"/>
	<rect y="0" fill="none" width="612" height="351.9"/>
	<rect y="0" fill="none" width="612" height="351.9"/>
	<rect y="0" fill="none" width="612" height="351.9"/>
	<rect y="0" fill="none" width="612" height="351.9"/>
	<rect y="0" fill="none" width="612" height="351.9"/>
	<rect y="0" fill="none" width="612" height="351.9"/>
	<rect y="0" fill="none" width="612" height="351.9"/>
	<rect y="0" fill="none" width="612" height="351.9"/>
	<rect y="0" fill="none" width="612" height="351.9"/>
	<g>
		<path fill="#CCCCCC" d="M608.9,3v344.3H3V3H608.9 M612,0H0v351.9h612V0L612,0z"/>
	</g>
	<g>
		<path fill="#BD0030" d="M336.6,280c1.5,1.5,6.1,1.5,13.8,0c15.3-3.1,15.3-16.8,38.2-10.7c-1.5-1.5-4.6-9.2-13.8-9.2
			c1.5-3.1,1.5-7.6,0-10.7c-1.5,4.6-4.6,6.1-6.1,7.6c0,0-4.6-3.1-4.6-7.6c0-9.2-4.6-10.7-4.6-9.2c-3.1,0-18.4,24.5-53.6,26
			c-33.7,0-52-24.5-53.5-26c0,0-4.6,1.5-4.6,9.2c0,4.6-4.6,7.6-4.6,7.6c-1.5-1.5-4.6-3.1-6.1-6.1c-1.5,3.1-1.5,7.6,0,10.7
			c-9.2,0-12.2,6.1-13.8,9.2c21.4-7.6,21.4,6.1,36.7,9.2c9.2,1.5,12.2,1.5,13.8,0L336.6,280L336.6,280z"/>
		<rect x="221.8" y="240.1" fill="none" width="168.3" height="42.8"/>
		<path fill="#BD0030" d="M206.6,224.9c0-9.2,0-30.6,0-33.7c-1.5-4.6-10.7-9.2-13.8-15.3c-3.1-7.7-4.6-23-4.6-24.5
			c1.5-3.1,6.1,3.1,4.6,10.7c6.1,7.7,7.6,7.7,9.2,9.2c3.1,3.1,4.6,4.6,6.1,7.7c1.5,4.6,1.5-3.1,0-6.1c-1.5-1.5-4.6-7.7-3.1-7.7
			c1.5-1.5,6.1,1.5,6.1,3.1c0,1.5,4.6,6.1,6.1,7.7c3.1,1.5,9.2,6.1,7.6,9.2c0,6.1,0,41.3,0,41.3L206.6,224.9z"/>
		<path fill="#BD0030" d="M405.5,224.9c0-9.2,0-30.6,0-33.7c1.5-4.6,10.7-9.2,13.8-15.3c3.1-7.7,4.6-23,4.6-24.5
			c-1.5-3.1-6.1,3.1-4.6,10.7c-6.1,7.7-4.6,10.7-6.1,12.2c-3.1,3.1-7.6,1.5-9.2,4.6c-1.5,4.6-1.5-3.1,0-6.1c1.5-1.5,4.6-7.7,3.1-7.7
			c-1.5-1.5-6.1,1.5-6.1,3.1c0,1.5-4.6,6.1-6.1,7.7c-3.1,1.5-9.2,6.1-7.6,9.2c0,6.1,0,41.3,0,41.3L405.5,224.9z"/>
		<path fill="#BD0030" d="M353.4,145.4c1.5,0,3.1-1.5,3.1-1.5s0,0,0-1.5h13.8c3.1,0,7.7-4.6,0-4.6H358c-7.7,0-16.8-3.1-23-4.6
			c-9.2-4.6-18.4-6.1-27.5-6.1v-6.2c1.5-1.5,1.5-6.1,3.1-6.1c0,0,1.5,7.6,3.1,7.6c3.1,0,3.1-7.6,4.6-7.6s1.5,7.6,4.6,7.6
			c1.5,0,3.1-7.6-1.5-15.3c-3.1-7.6-9.2-6.1-13.8-6.1v-7.7c1.5,0,3.1,0,4.6,1.5c3.1,1.5,9.2,4.6,12.2,4.6l-3.1-6.1
			c0,0,9.2-6.1,6.1-4.6c-4.6,0-4.6,0-7.6-1.5c-1.5-1.5-4.6-6.1-12.2-6.1V78c1.5,0,3.1-1.5,3.1-4.6s-3.1-4.6-4.6-4.6
			s-4.6,1.5-4.6,4.6c0,1.5,1.5,3.1,3.1,4.6v23c-6.1,0-12.2,0-13.8,6.1c-3.1,7.6-3.1,15.3-1.5,15.3c3.1,0,3.1-7.6,4.6-7.6
			s1.5,7.6,4.6,7.6c1.5,0,3.1-7.6,3.1-7.6s1.5,3.1,3.1,4.6v6.1c-10.7,0-19.9,3.1-29.1,7.6c-7.7,3.1-15.3,4.6-21.4,4.6h-12.5
			c-7.7,0-3.1,3.1,0,4.6c1.5,1.5,4.6,1.5,10.7,1.5c1.5,0,3.1,1.5,4.6,1.5l-4.6,4.6c-21.4,21.4-19.9,64.3,3.1,90.3
			c10.7,12.2,27.5,19.9,49,19.9s36.7-7.6,49-19.9c26-26,27.5-70.4,4.6-91.8C356.5,146.9,355,146.9,353.4,145.4z M306,235.6
			c-30.6,0-56.6-26-56.6-56.6c0-12.2,4.6-24.5,10.7-33.7c3.1-4.6,7.6,7.6,10.7,3.1c9.2-6.1,21.4,4.6,35.2,4.6s26-10.7,35.2-3.1
			c4.6,3.1,7.7-7.6,10.7-3.1c6.1,9.2,10.7,21.4,10.7,33.7C362.6,211,336.6,235.6,306,235.6z"/>
	</g>
	<path fill="#FFFFFF" d="M306,197.4"/>
	<polygon fill="#BD0030" points="315.2,226.4 298.4,226.4 302.9,157.6 312.1,157.6 	"/>
</g>
</svg>
