<?xml version="1.0" encoding="utf-8"?>
<!-- Generator: Adobe Illustrator 17.1.0, SVG Export Plug-In . SVG Version: 6.00 Build 0)  -->
<!DOCTYPE svg PUBLIC "-//W3C//DTD SVG 1.1//EN" "http://www.w3.org/Graphics/SVG/1.1/DTD/svg11.dtd">
<svg version="1.1" id="Layer_1" xmlns="http://www.w3.org/2000/svg" xmlns:xlink="http://www.w3.org/1999/xlink" x="0px" y="0px"
	 viewBox="0 0 40 23" enable-background="new 0 0 40 23" xml:space="preserve">
<g>
	<g>
		<defs>
			<rect id="SVGID_136_" width="40" height="23"/>
		</defs>
		<clipPath id="SVGID_2_">
			<use xlink:href="#SVGID_136_"  overflow="visible"/>
		</clipPath>
		<rect clip-path="url(#SVGID_2_)" fill="#FFFFFF" width="40" height="23"/>
		<rect x="10" clip-path="url(#SVGID_2_)" fill="#2A680B" width="30" height="23"/>
		<g clip-path="url(#SVGID_2_)">
			<defs>
				<rect id="SVGID_138_" width="40" height="23"/>
			</defs>
			<clipPath id="SVGID_4_">
				<use xlink:href="#SVGID_138_"  overflow="visible"/>
			</clipPath>
			<path clip-path="url(#SVGID_4_)" fill="#FFFFFF" d="M24.4,4.6c3.9,0,7,3.1,7,6.9c0,3.8-3.1,6.9-7,6.9c-3.9,0-7-3.1-7-6.9
				C17.4,7.7,20.5,4.6,24.4,4.6"/>
			<path clip-path="url(#SVGID_4_)" fill="#2A680B" d="M21.9,5.2c2.6-2.3,6.7-2.1,9,0.5c2.3,2.6,2.1,6.6-0.5,8.9
				c-2.6,2.3-6.7,2.1-9-0.5C19,11.5,19.3,7.5,21.9,5.2"/>
			<polygon clip-path="url(#SVGID_4_)" fill="#FFFFFF" points="29.6,6.9 27.5,7.8 27.9,8.9 			"/>
			<polygon clip-path="url(#SVGID_4_)" fill="#FFFFFF" points="29.6,6.9 28.4,8.9 27.4,8.3 			"/>
			<polygon clip-path="url(#SVGID_4_)" fill="#FFFFFF" points="29.9,9.6 28.3,7.9 27.4,8.7 			"/>
			<polygon clip-path="url(#SVGID_4_)" fill="#FFFFFF" points="29.9,9.6 27.6,9.1 27.8,8 			"/>
			<polygon clip-path="url(#SVGID_4_)" fill="#FFFFFF" points="26.9,6.3 27.1,8.6 28.3,8.5 			"/>
			<polygon clip-path="url(#SVGID_4_)" fill="#FFFFFF" points="26.9,6.3 28.5,8.1 27.6,8.8 			"/>
			<polygon clip-path="url(#SVGID_4_)" fill="#FFFFFF" points="27.4,10.7 28.5,8.7 27.5,8.1 			"/>
			<polygon clip-path="url(#SVGID_4_)" fill="#FFFFFF" points="27.4,10.7 27.1,8.4 28.3,8.3 			"/>
			<polygon clip-path="url(#SVGID_4_)" fill="#FFFFFF" points="25.5,8.7 27.8,9.2 28.1,8 			"/>
			<polygon clip-path="url(#SVGID_4_)" fill="#FFFFFF" points="25.5,8.7 27.7,7.7 28.1,8.8 			"/>
		</g>
	</g>
</g>
<g>
	<path fill="#CCCCCC" d="M39.8,0.2v22.5H0.2V0.2H39.8 M40,0H0v23h40V0L40,0z"/>
</g>
</svg>
