<?xml version="1.0" encoding="utf-8"?>
<!-- Generator: Adobe Illustrator 17.1.0, SVG Export Plug-In . SVG Version: 6.00 Build 0)  -->
<!DOCTYPE svg PUBLIC "-//W3C//DTD SVG 1.1//EN" "http://www.w3.org/Graphics/SVG/1.1/DTD/svg11.dtd">
<svg version="1.1" id="Layer_1" xmlns="http://www.w3.org/2000/svg" xmlns:xlink="http://www.w3.org/1999/xlink" x="0px" y="0px"
	 viewBox="0 0 40 23" enable-background="new 0 0 40 23" xml:space="preserve">
<g>
	<g>
		<defs>
			<rect id="SVGID_152_" width="40" height="23"/>
		</defs>
		<clipPath id="SVGID_2_">
			<use xlink:href="#SVGID_152_"  overflow="visible"/>
		</clipPath>
		<rect clip-path="url(#SVGID_2_)" fill="#BC0030" width="40" height="23"/>
		<rect y="5.7" clip-path="url(#SVGID_2_)" fill="#FFFFFF" width="40" height="11.5"/>
		<g clip-path="url(#SVGID_2_)">
			<defs>
				<rect id="SVGID_154_" width="40" height="23"/>
			</defs>
			<clipPath id="SVGID_4_">
				<use xlink:href="#SVGID_154_"  overflow="visible"/>
			</clipPath>
			<path clip-path="url(#SVGID_4_)" fill="#273B98" d="M18.8,15.8c-0.4,0-0.7,0.3-0.9,0.4c0.3,0.1,0.6,0.2,1,0.3
				c0.5,0.1,1.1,0.1,1.6,0.1c0.1,0,0.2,0,0.3,0l1.2-0.4c0,0-0.6-0.4-1-0.3c-0.4,0-0.7,0.4-1.1,0.4C19.5,16.2,19.4,15.8,18.8,15.8
				C18.9,15.8,18.8,15.8,18.8,15.8L18.8,15.8z"/>
			<g clip-path="url(#SVGID_4_)">
				<path fill="#273B98" d="M20.5,16.7c-0.5,0-1.1,0-1.6-0.1c-0.3-0.1-0.7-0.2-1-0.3l-0.1,0l0.1,0c0.2-0.1,0.5-0.4,0.9-0.4h0
					c0.3,0,0.5,0.1,0.6,0.2c0.1,0.1,0.2,0.2,0.4,0.2c0,0,0,0,0,0c0.2,0,0.3-0.1,0.5-0.2c0.2-0.1,0.4-0.2,0.6-0.2c0,0,0,0,0,0
					c0.5,0,1,0.3,1,0.4l0.1,0.1l-1.2,0.4C20.7,16.6,20.6,16.7,20.5,16.7L20.5,16.7L20.5,16.7z M18,16.2c0.3,0.1,0.6,0.2,0.9,0.3
					c0.5,0.1,1.1,0.1,1.6,0.1v0l0,0c0.1,0,0.2,0,0.3,0l1-0.3c-0.2-0.1-0.5-0.3-0.9-0.3c-0.2,0-0.4,0.1-0.6,0.2
					c-0.2,0.1-0.3,0.2-0.5,0.2c-0.2,0-0.3-0.1-0.5-0.2c-0.2-0.1-0.3-0.2-0.6-0.2C18.5,15.9,18.2,16.1,18,16.2L18,16.2z"/>
			</g>
			<path clip-path="url(#SVGID_4_)" fill="#273B98" d="M16.7,15.5l6.5,0c0,0-0.6-0.6-1.2-0.6c-0.7,0-0.5,0.3-1,0.3
				c-0.5,0-0.6-0.3-1.1-0.3c-0.5,0-0.7,0.3-1.1,0.3c-0.4,0-0.8-0.3-1.1-0.3c-0.3,0-1.2,0.4-1.2,0.4L16.7,15.5z"/>
			<g clip-path="url(#SVGID_4_)">
				<path fill="#273B98" d="M23.4,15.6l-6.7,0l-0.3-0.2l0.1,0c0,0,1-0.4,1.2-0.4c0,0,0,0,0,0c0.2,0,0.3,0.1,0.5,0.2
					c0.2,0.1,0.4,0.2,0.6,0.2c0.2,0,0.3-0.1,0.5-0.1c0.2-0.1,0.4-0.2,0.6-0.2c0,0,0,0,0,0c0.2,0,0.4,0.1,0.5,0.1
					c0.2,0.1,0.3,0.2,0.6,0.1c0.2,0,0.3-0.1,0.4-0.1c0.1-0.1,0.2-0.2,0.6-0.2C22.7,14.9,23.3,15.5,23.4,15.6L23.4,15.6L23.4,15.6z
					 M16.6,15.4l0.1,0.1l6.4,0C23,15.4,22.5,15,22,15c0,0,0,0,0,0c-0.4,0-0.5,0.1-0.6,0.2c-0.1,0.1-0.2,0.1-0.4,0.2
					c-0.3,0-0.5-0.1-0.6-0.2C20.3,15.1,20.2,15,20,15c-0.3,0-0.5,0.1-0.6,0.2c-0.2,0.1-0.3,0.1-0.5,0.1c0,0,0,0,0,0
					c-0.2,0-0.4-0.1-0.6-0.2c-0.2-0.1-0.3-0.1-0.4-0.1C17.6,15,16.9,15.3,16.6,15.4L16.6,15.4z"/>
			</g>
			<path clip-path="url(#SVGID_4_)" fill="#273B98" d="M15.9,14.8l8.1,0c0.1-0.2-0.4-0.6-0.9-0.6c-0.4,0-0.7,0.4-1,0.4
				c-0.3,0-0.7-0.4-1.1-0.4c-0.4,0-0.8,0.4-1.1,0.4c-0.4,0-0.6-0.4-1.1-0.4c-0.5,0-0.7,0.4-1,0.4c-0.4,0-0.7-0.4-1-0.4
				c-0.3,0-0.9,0.5-1,0.5C15.6,14.6,15.9,14.8,15.9,14.8L15.9,14.8z"/>
			<g clip-path="url(#SVGID_4_)">
				<path fill="#273B98" d="M24,14.9L24,14.9l-8.1,0l0,0c-0.1,0-0.2-0.1-0.2-0.2v0l0.1,0c0.1,0,0.2-0.1,0.3-0.1
					c0.2-0.1,0.5-0.3,0.7-0.3c0.2,0,0.4,0.1,0.5,0.2c0.2,0.1,0.3,0.2,0.5,0.2c0,0,0,0,0,0c0.2,0,0.3-0.1,0.4-0.2
					c0.2-0.1,0.3-0.2,0.6-0.2c0.3,0,0.5,0.1,0.6,0.2c0.2,0.1,0.3,0.2,0.5,0.2c0.2,0,0.4-0.1,0.6-0.2c0.2-0.1,0.4-0.2,0.6-0.2
					c0,0,0,0,0,0c0.2,0,0.4,0.1,0.6,0.2c0.2,0.1,0.3,0.2,0.5,0.2c0.2,0,0.3-0.1,0.4-0.2c0.2-0.1,0.4-0.2,0.6-0.2
					c0.4,0,0.8,0.3,0.9,0.5C24.1,14.7,24,14.8,24,14.9L24,14.9L24,14.9z M15.8,14.7c0,0,0.1,0.1,0.1,0.1l8.1,0c0,0,0,0,0-0.1
					c-0.1-0.2-0.5-0.4-0.8-0.5c-0.2,0-0.4,0.1-0.5,0.2c-0.2,0.1-0.3,0.2-0.5,0.2c0,0,0,0,0,0c-0.2,0-0.3-0.1-0.5-0.2
					c-0.2-0.1-0.4-0.2-0.5-0.2c-0.2,0-0.4,0.1-0.5,0.2c-0.2,0.1-0.4,0.2-0.6,0.2c-0.2,0-0.3-0.1-0.5-0.2c-0.2-0.1-0.4-0.2-0.6-0.2
					c-0.2,0-0.4,0.1-0.6,0.2c-0.1,0.1-0.3,0.2-0.4,0.2c-0.2,0-0.4-0.1-0.6-0.2c-0.2-0.1-0.3-0.2-0.5-0.2c-0.2,0-0.5,0.2-0.7,0.3
					C15.9,14.6,15.8,14.7,15.8,14.7L15.8,14.7z"/>
			</g>
			<path clip-path="url(#SVGID_4_)" fill="#BC0030" d="M19,10.4l1.9,0.5V8.3c-0.9,0-1.6-1.6-0.1-1.7c-1.5-0.2-1.6,0.2-1.8,0.6
				L19,10.4z"/>
			<g clip-path="url(#SVGID_4_)">
				<path fill="#5B001A" d="M20.9,10.9C20.9,10.9,20.8,10.9,20.9,10.9L19,10.5c0,0,0,0,0-0.1l0-3.2c0.1-0.3,0.3-0.7,1.1-0.7
					c0.2,0,0.5,0,0.7,0.1c0,0,0,0,0,0.1s0,0.1-0.1,0.1C20.3,6.7,20,7,20,7.4c0,0.4,0.4,0.9,0.8,0.9c0,0,0,0,0.1,0c0,0,0,0,0,0
					L20.9,10.9C20.9,10.9,20.9,10.9,20.9,10.9C20.9,10.9,20.9,10.9,20.9,10.9L20.9,10.9z M19.1,10.4l1.7,0.5V8.4
					c-0.5,0-0.9-0.6-0.9-1c0-0.4,0.2-0.6,0.6-0.7c-0.1,0-0.2,0-0.4,0c-0.8,0-0.9,0.3-1,0.6L19.1,10.4L19.1,10.4z"/>
			</g>
			<path clip-path="url(#SVGID_4_)" fill="#5B001A" d="M17.8,12.3l4.2,0L17.8,12.3z"/>
			<g clip-path="url(#SVGID_4_)">
				<path fill="#5B001A" d="M22,12.4C22,12.4,22,12.4,22,12.4l-4.2,0c0,0-0.1,0-0.1-0.1c0,0,0-0.1,0.1-0.1c0,0,0,0,0,0l4.2,0
					C22.1,12.2,22.1,12.3,22,12.4C22.1,12.3,22.1,12.4,22,12.4L22,12.4z"/>
			</g>
			<path clip-path="url(#SVGID_4_)" fill="#5B001A" d="M18,11.3l0.5,0.6L18,11.3z"/>
			<g clip-path="url(#SVGID_4_)">
				<path fill="#5B001A" d="M18.5,12C18.5,12,18.5,12,18.5,12L18,11.3c0,0,0-0.1,0-0.1c0,0,0.1,0,0.1,0L18.5,12
					C18.6,11.9,18.6,12,18.5,12C18.5,12,18.5,12,18.5,12L18.5,12z"/>
			</g>
			<path clip-path="url(#SVGID_4_)" fill="#5B001A" d="M18,12l0.5-0.6L18,12z"/>
			<g clip-path="url(#SVGID_4_)">
				<path fill="#5B001A" d="M18,12C18,12,18,12,18,12C18,12,18,11.9,18,12l0.5-0.7c0,0,0.1,0,0.1,0c0,0,0,0.1,0,0.1L18,12
					C18.1,12,18,12,18,12L18,12z"/>
			</g>
			<path clip-path="url(#SVGID_4_)" fill="#5B001A" d="M18.3,11.3l0,0.4L18.3,11.3z"/>
			<g clip-path="url(#SVGID_4_)">
				<path fill="#5B001A" d="M18.3,11.7C18.3,11.7,18.3,11.7,18.3,11.7C18.3,11.7,18.2,11.7,18.3,11.7l0-0.5c0,0,0-0.1,0.1-0.1
					c0,0,0.1,0,0.1,0.1L18.3,11.7C18.3,11.7,18.3,11.7,18.3,11.7L18.3,11.7z"/>
			</g>
			<path clip-path="url(#SVGID_4_)" fill="#5B001A" d="M18.8,11.3l0.5,0.6L18.8,11.3z"/>
			<g clip-path="url(#SVGID_4_)">
				<path fill="#5B001A" d="M19.3,12C19.3,12,19.3,12,19.3,12l-0.5-0.7c0,0,0-0.1,0-0.1c0,0,0.1,0,0.1,0L19.3,12
					C19.4,11.9,19.4,12,19.3,12C19.3,12,19.3,12,19.3,12L19.3,12z"/>
			</g>
			<path clip-path="url(#SVGID_4_)" fill="#5B001A" d="M18.8,12l0.5-0.6L18.8,12z"/>
			<g clip-path="url(#SVGID_4_)">
				<path fill="#5B001A" d="M18.8,12C18.8,12,18.8,12,18.8,12C18.8,12,18.8,11.9,18.8,12l0.5-0.7c0,0,0.1,0,0.1,0c0,0,0,0.1,0,0.1
					L18.8,12C18.8,12,18.8,12,18.8,12L18.8,12z"/>
			</g>
			<path clip-path="url(#SVGID_4_)" fill="#5B001A" d="M19.1,11.3l0,0.4L19.1,11.3z"/>
			<g clip-path="url(#SVGID_4_)">
				<path fill="#5B001A" d="M19.1,11.7C19.1,11.7,19.1,11.7,19.1,11.7C19.1,11.7,19,11.7,19.1,11.7l0-0.5c0,0,0-0.1,0.1-0.1
					c0,0,0.1,0,0.1,0.1L19.1,11.7C19.1,11.7,19.1,11.7,19.1,11.7L19.1,11.7z"/>
			</g>
			<path clip-path="url(#SVGID_4_)" fill="#5B001A" d="M19.6,11.3l0.5,0.6L19.6,11.3z"/>
			<g clip-path="url(#SVGID_4_)">
				<path fill="#5B001A" d="M20.1,12C20.1,12,20.1,12,20.1,12l-0.5-0.7c0,0,0-0.1,0-0.1c0,0,0.1,0,0.1,0L20.1,12
					C20.2,11.9,20.2,12,20.1,12C20.1,12,20.1,12,20.1,12L20.1,12z"/>
			</g>
			<path clip-path="url(#SVGID_4_)" fill="#5B001A" d="M19.6,12l0.5-0.6L19.6,12z"/>
			<g clip-path="url(#SVGID_4_)">
				<path fill="#5B001A" d="M19.6,12C19.6,12,19.6,12,19.6,12C19.6,12,19.6,11.9,19.6,12l0.5-0.7c0,0,0.1,0,0.1,0c0,0,0,0.1,0,0.1
					L19.6,12C19.7,12,19.6,12,19.6,12L19.6,12z"/>
			</g>
			<path clip-path="url(#SVGID_4_)" fill="#5B001A" d="M19.9,11.3l0,0.4L19.9,11.3z"/>
			<g clip-path="url(#SVGID_4_)">
				<path fill="#5B001A" d="M19.9,11.7C19.9,11.7,19.9,11.7,19.9,11.7C19.9,11.7,19.8,11.7,19.9,11.7l0-0.5c0,0,0-0.1,0.1-0.1
					c0,0,0.1,0,0.1,0.1L19.9,11.7C19.9,11.7,19.9,11.7,19.9,11.7L19.9,11.7z"/>
			</g>
			<path clip-path="url(#SVGID_4_)" fill="#5B001A" d="M20.5,11.3L21,12L20.5,11.3z"/>
			<g clip-path="url(#SVGID_4_)">
				<path fill="#5B001A" d="M21,12C20.9,12,20.9,12,21,12l-0.5-0.7c0,0,0-0.1,0-0.1c0,0,0.1,0,0.1,0L21,12C21,11.9,21,12,21,12
					C21,12,21,12,21,12L21,12z"/>
			</g>
			<path clip-path="url(#SVGID_4_)" fill="#5B001A" d="M20.5,12l0.5-0.6L20.5,12z"/>
			<g clip-path="url(#SVGID_4_)">
				<path fill="#5B001A" d="M20.5,12C20.4,12,20.4,12,20.5,12C20.4,12,20.4,11.9,20.5,12l0.5-0.7c0,0,0.1,0,0.1,0c0,0,0,0.1,0,0.1
					L20.5,12C20.5,12,20.5,12,20.5,12L20.5,12z"/>
			</g>
			<path clip-path="url(#SVGID_4_)" fill="#5B001A" d="M20.7,11.3l0,0.4L20.7,11.3z"/>
			<g clip-path="url(#SVGID_4_)">
				<path fill="#5B001A" d="M20.7,11.7C20.7,11.7,20.7,11.7,20.7,11.7C20.7,11.7,20.7,11.7,20.7,11.7l0-0.5c0,0,0-0.1,0.1-0.1
					c0,0,0.1,0,0.1,0.1L20.7,11.7C20.8,11.7,20.8,11.7,20.7,11.7L20.7,11.7z"/>
			</g>
			<path clip-path="url(#SVGID_4_)" fill="#5B001A" d="M21.3,11.3l0.5,0.6L21.3,11.3z"/>
			<g clip-path="url(#SVGID_4_)">
				<path fill="#5B001A" d="M21.8,12C21.7,12,21.7,12,21.8,12l-0.5-0.7c0,0,0-0.1,0-0.1c0,0,0.1,0,0.1,0L21.8,12
					C21.8,11.9,21.8,12,21.8,12C21.8,12,21.8,12,21.8,12L21.8,12z"/>
			</g>
			<path clip-path="url(#SVGID_4_)" fill="#5B001A" d="M21.3,12l0.5-0.6L21.3,12z"/>
			<g clip-path="url(#SVGID_4_)">
				<path fill="#5B001A" d="M21.3,12C21.3,12,21.2,12,21.3,12C21.2,12,21.2,11.9,21.3,12l0.5-0.7c0,0,0.1,0,0.1,0c0,0,0,0.1,0,0.1
					L21.3,12C21.3,12,21.3,12,21.3,12L21.3,12z"/>
			</g>
			<path clip-path="url(#SVGID_4_)" fill="#5B001A" d="M21.6,11.3l0,0.4L21.6,11.3z"/>
			<g clip-path="url(#SVGID_4_)">
				<path fill="#5B001A" d="M21.5,11.7C21.5,11.7,21.5,11.7,21.5,11.7C21.5,11.7,21.5,11.7,21.5,11.7l0-0.5c0,0,0-0.1,0.1-0.1
					c0,0,0.1,0,0.1,0.1L21.5,11.7C21.6,11.7,21.6,11.7,21.5,11.7L21.5,11.7z"/>
			</g>
			<polygon clip-path="url(#SVGID_4_)" fill="#F0992A" points="15,12.3 16.8,12.3 16.8,11.2 14.8,11.2 			"/>
			<polygon clip-path="url(#SVGID_4_)" fill="#F0992A" points="14.9,10.8 16.8,11 16.8,10.2 14.9,9.5 			"/>
			<path clip-path="url(#SVGID_4_)" fill="#F0992A" d="M15.3,9.3l1.5,0.7L17,9.8c0,0-0.1-0.1-0.1-0.2c0-0.1,0.1-0.1,0.1-0.2
				c0-0.1-0.2-0.1-0.2-0.2c0-0.1,0.1-0.2,0.1-0.2l-1.3-1.1L15.3,9.3z"/>
			<polygon clip-path="url(#SVGID_4_)" fill="#F0992A" points="24.9,12.3 23,12.3 23,11.3 25.1,11.1 			"/>
			<path clip-path="url(#SVGID_4_)" fill="#F0992A" d="M24.9,10.8c0-0.2,0-0.3-0.1-0.5c-0.1-0.2-0.1-0.4-0.2-0.7c0,0,0,0,0,0
				L23,10.2l0,0.8L24.9,10.8z"/>
			<path clip-path="url(#SVGID_4_)" fill="#F0992A" d="M23.8,8.2l-1,0.7c0,0,0,0,0,0s0,0,0,0c0,0,0,0,0,0v0v0c0,0,0,0,0,0
				c0,0,0.1,0.1,0.1,0.2c0,0.1-0.1,0.2-0.1,0.2c0,0,0,0,0,0c0,0,0,0,0,0c0,0,0,0,0,0c0,0,0,0,0,0c0,0,0,0,0,0c0,0,0,0,0,0
				c0,0,0,0,0,0c0,0,0.1,0.1,0.1,0.1c0,0.1-0.1,0.1-0.1,0.2C23,9.8,23,9.9,23,10l1.4-0.7C24.3,8.9,24.1,8.6,23.8,8.2L23.8,8.2z"/>
			<polygon clip-path="url(#SVGID_4_)" fill="#F0992A" points="21.1,11 21.9,11 22,10.7 			"/>
			<polygon clip-path="url(#SVGID_4_)" fill="#F0992A" points="18.7,11 17.8,11 17.8,10.6 			"/>
			<path clip-path="url(#SVGID_4_)" fill="#F0992A" d="M18.7,10.9l-0.8-0.4V9.9c0,0-0.1,0-0.1-0.1c0-0.2,0.6,0.4,0.9,0.6L18.7,10.9z
				"/>
			<path clip-path="url(#SVGID_4_)" fill="#F0992A" d="M21.1,10.8l0-0.4c0,0,0.8-0.7,0.9-0.8c0,0.1-0.1,0.2-0.1,0.2v0.5L21.1,10.8z"
				/>
			<path clip-path="url(#SVGID_4_)" fill="#F0992A" d="M16.2,7.8c0,0,0.9,0.9,0.9,0.9c0-0.1,0.2-0.1,0.4-0.1c0.2,0,0.4,0,0.4,0.1
				c0,0.1-0.1,0.1-0.1,0.2c0,0.1,0.2,0.1,0.2,0.2c0,0.1-0.1,0.1-0.1,0.2c0,0.1,0.1,0.1,0.1,0.1l0.8,0.8l0-0.8L17,6.9L16.2,7.8z"/>
			<path clip-path="url(#SVGID_4_)" fill="#F0992A" d="M17.5,6.9c0,0,1.1,2.2,1.1,2.2s0-2.1,0.2-2.2l-0.3-0.6L17.5,6.9z"/>
			<path clip-path="url(#SVGID_4_)" fill="#F0992A" d="M21.1,6.6L20.7,8c0,0,0.2,0,0.4,0c0,0,0.1,0,0.1,0c0,0,0,0,0,0c0,0,0,0,0,0
				c0,0,0,0,0,0c0,0,0,0.1,0,0.1l0,0.9l1.2-2.1c-0.2-0.1-0.5-0.2-0.8-0.3C21.4,6.7,21.3,6.7,21.1,6.6L21.1,6.6z"/>
			<path clip-path="url(#SVGID_4_)" fill="#F0992A" d="M22.6,7.2l-1.5,2.2l0,0.9l1-0.9c0,0,0,0,0,0c0,0,0,0,0,0c0,0,0,0,0,0
				c0,0,0,0,0,0c0,0,0,0,0,0c0,0,0,0,0,0c0,0,0,0,0,0c0,0,0,0,0,0c0,0-0.1,0-0.1-0.1c0,0,0,0,0,0c0,0,0.1,0,0.1-0.1c0,0,0,0,0-0.1
				c0,0,0-0.1,0-0.1c0,0,0,0,0,0c0,0,0,0,0,0c0,0,0,0,0,0c0,0,0,0,0,0c0,0,0,0,0,0c0,0,0,0,0,0c0,0,0,0,0,0c0,0,0,0,0,0
				c0,0,0,0,0-0.1c0,0,0,0,0,0c0,0,0,0,0,0c0,0,0,0,0,0c0,0,0,0,0,0c0,0,0,0,0,0c0,0,0.1-0.1,0.2-0.1c0.2,0,0.5,0,0.5,0.1
				c0,0,0.5-0.5,0.7-0.7C23.3,7.7,23,7.4,22.6,7.2L22.6,7.2z"/>
			<path clip-path="url(#SVGID_4_)" fill="#BC0030" d="M19.4,12.7c-0.4,0.7-1.5,0.5-1.7,0c-0.1,0,0-2.8,0-2.8s-0.1-0.1-0.1-0.1
				c0-0.1,0.2-0.1,0.2-0.2s-0.2-0.1-0.2-0.2c0-0.1,0.2-0.1,0.2-0.2c0-0.1-0.2-0.1-0.2-0.2c0-0.1,0.1-0.2,0.2-0.2c0,0-0.1,0-0.1,0
				c-0.1,0-0.2,0-0.3,0c-0.2,0,0,0,0,0.2c0,0.1-0.1,0.1-0.1,0.2c0,0.1,0.2,0.1,0.2,0.2c0,0.1-0.2,0.1-0.2,0.2c0,0.1,0.1,0.1,0.1,0.2
				c0,0.1-0.2,0.1-0.2,0.2c0,0.1,0,2.9,0,2.9C17.4,14.2,19,14.6,19.4,12.7L19.4,12.7z"/>
			<g clip-path="url(#SVGID_4_)">
				<path fill="#5B001A" d="M18.2,14.1L18.2,14.1c-0.6,0-1.1-0.5-1.2-1.2c0,0,0-2.8,0-2.9c0-0.1,0.1-0.1,0.1-0.1c0,0,0.1,0,0.1,0
					c0,0,0,0,0,0c0,0-0.1-0.1-0.1-0.2c0-0.1,0.1-0.1,0.1-0.1c0,0,0,0,0,0c0,0,0,0-0.1-0.1c0,0-0.1-0.1-0.1-0.1c0-0.1,0-0.1,0.1-0.1
					c0,0,0-0.1,0-0.1c0,0,0-0.1-0.1-0.1c0,0,0-0.1,0-0.1c0,0,0.1,0,0.1,0l0.3,0c0,0,0,0,0,0c0,0,0.2,0,0.2,0c0,0,0,0,0,0.1
					c0,0,0,0-0.1,0c0,0-0.1,0.1-0.1,0.1c0,0,0,0,0.1,0c0.1,0,0.1,0.1,0.1,0.1c0,0.1-0.1,0.1-0.1,0.1c0,0-0.1,0-0.1,0c0,0,0,0,0.1,0
					c0,0,0.1,0,0.1,0.1c0,0.1-0.1,0.1-0.1,0.2c0,0,0,0,0,0c0,0,0.1,0.1,0.1,0.1c0,0,0,0,0,0.1c0,1,0,2.7,0,2.8
					c0.1,0.2,0.5,0.4,0.9,0.4c0.3,0,0.6-0.1,0.8-0.4c0,0,0,0,0.1,0c0,0,0,0,0,0.1C19.3,13.6,18.8,14.1,18.2,14.1L18.2,14.1z
					 M17.2,8.9c0,0,0,0.1,0,0.1c0,0.1,0,0.1-0.1,0.1c0,0,0,0,0,0.1c0,0,0,0,0.1,0c0,0,0.1,0.1,0.1,0.2c0,0.1-0.1,0.1-0.1,0.1
					c0,0,0,0,0,0c0,0,0,0.1,0.1,0.1c0,0,0.1,0.1,0.1,0.1c0,0.1-0.1,0.1-0.1,0.1c0,0,0,0-0.1,0c0,0.1,0,2.7,0,2.9
					c0.1,0.7,0.6,1.1,1.1,1.1l0,0c0.5,0,0.8-0.4,1-1c-0.2,0.2-0.4,0.2-0.7,0.2c-0.4,0-0.8-0.2-0.9-0.4c0,0-0.1,0,0-2.8
					c0,0-0.1-0.1-0.1-0.2c0-0.1,0.1-0.1,0.1-0.1c0,0,0.1,0,0.1-0.1c0,0,0,0-0.1,0c0,0-0.1,0-0.1-0.1c0-0.1,0.1-0.1,0.1-0.2
					c0,0,0.1,0,0.1,0c0,0,0,0-0.1-0.1c-0.1,0-0.1-0.1-0.1-0.1c0-0.1,0-0.1,0.1-0.1L17.2,8.9L17.2,8.9z"/>
			</g>
			<path clip-path="url(#SVGID_4_)" fill="#BC0030" d="M20.5,12.7c0.4,0.7,1.5,0.5,1.7,0c0.1,0,0-2.8,0-2.8s0.1-0.1,0.1-0.1
				c0-0.1-0.2-0.1-0.2-0.2s0.2-0.1,0.2-0.2c0-0.1-0.2-0.1-0.2-0.2c0-0.1,0.1-0.1,0.2-0.2c0-0.1-0.1-0.1-0.1-0.2c0,0,0.1,0,0.1,0
				c0.1,0,0.2,0,0.3,0c0.2,0,0,0,0,0.2c0,0.1,0.1,0.1,0.1,0.2c0,0.1-0.2,0.1-0.2,0.2c0,0.1,0.2,0.1,0.2,0.2c0,0.1-0.1,0.1-0.1,0.2
				c0,0.1,0.2,0.1,0.2,0.2c0,0.1,0,2.9,0,2.9C22.5,14.2,20.9,14.6,20.5,12.7L20.5,12.7z"/>
			<g clip-path="url(#SVGID_4_)">
				<path fill="#5B001A" d="M21.6,14.1c-0.6,0-1-0.5-1.2-1.3c0,0,0-0.1,0-0.1c0,0,0.1,0,0.1,0c0.2,0.2,0.4,0.4,0.8,0.4
					c0.4,0,0.7-0.2,0.9-0.4c0-0.1,0-1.8,0-2.8c0,0,0,0,0-0.1c0,0,0.1-0.1,0.1-0.1c0,0,0,0,0,0c0,0-0.1-0.1-0.1-0.2
					c0-0.1,0.1-0.1,0.1-0.1c0,0,0,0,0,0c0,0,0,0-0.1-0.1c0,0-0.1-0.1-0.1-0.1c0-0.1,0.1-0.1,0.1-0.1c0,0,0,0,0-0.1
					c0,0,0-0.1-0.1-0.1c0,0,0-0.1,0-0.1c0,0,0-0.1,0,0c0.1,0,0.1,0,0.1,0l0.3,0c0.1,0,0.1,0,0.1,0c0,0,0,0.1,0,0.1
					c0,0-0.1,0-0.1,0.1c0,0,0,0.1,0,0.1c0,0,0.1,0.1,0.1,0.1c0,0.1,0,0.1-0.1,0.1c0,0-0.1,0.1-0.1,0.1c0,0,0,0,0,0
					c0,0,0.1,0.1,0.1,0.1c0,0.1-0.1,0.1-0.1,0.2c0,0,0,0,0,0c0,0,0,0,0.1,0c0.1,0,0.1,0.1,0.1,0.1c0,0.1,0,2.8,0,2.9
					C22.7,13.6,22.2,14.1,21.6,14.1L21.6,14.1z M20.6,13c0.2,0.6,0.6,1,1,1c0.5,0,1-0.5,1.1-1.1c0-0.1,0-2.7,0-2.9c0,0,0,0-0.1,0
					c-0.1,0-0.1-0.1-0.1-0.1c0-0.1,0-0.1,0.1-0.1c0,0,0.1-0.1,0.1-0.1c0,0,0,0,0,0c0,0-0.1-0.1-0.1-0.1c0-0.1,0.1-0.1,0.1-0.2
					c0,0,0.1,0,0.1-0.1c0,0,0,0,0-0.1c0,0-0.1-0.1-0.1-0.1c0,0,0-0.1,0-0.1l-0.3,0c0,0,0,0.1,0,0.1c0,0.1-0.1,0.1-0.1,0.1
					c0,0-0.1,0-0.1,0.1c0,0,0,0,0,0c0,0,0.1,0.1,0.1,0.1c0,0.1-0.1,0.1-0.1,0.1c0,0,0,0,0,0c0,0,0,0,0.1,0.1c0,0,0.1,0.1,0.1,0.1
					c0,0.1-0.1,0.1-0.1,0.2c0,2.8,0,2.8-0.1,2.8c-0.1,0.2-0.5,0.4-0.9,0.4C21,13.2,20.8,13.1,20.6,13L20.6,13z"/>
			</g>
			<path clip-path="url(#SVGID_4_)" fill="#273B98" d="M19,14l1.8,0c0,0-0.4-0.6-0.9-0.6C19.4,13.5,19,14,19,14L19,14z"/>
			<g clip-path="url(#SVGID_4_)">
				<path fill="#273B98" d="M19,14.1L19,14.1L19,14.1c0-0.1,0.3-0.6,0.9-0.7l0.1,0c0.5,0,0.9,0.5,0.9,0.6l0,0l0,0L19,14.1L19,14.1z
					 M20,13.5L20,13.5c-0.5,0-0.8,0.3-0.9,0.5l1.6,0C20.6,13.8,20.3,13.5,20,13.5L20,13.5z"/>
			</g>
			<path clip-path="url(#SVGID_4_)" fill="#273B98" d="M24.8,14h-2.5c0,0,0.3-0.2,0.4-0.4c0.2,0.1,0.1,0.2,0.4,0.2
				c0.3,0,0.6-0.4,0.9-0.3C24.4,13.5,24.8,14,24.8,14L24.8,14z"/>
			<g clip-path="url(#SVGID_4_)">
				<path fill="#273B98" d="M24.8,14h-2.6l0.1-0.1c0,0,0.3-0.2,0.4-0.3l0,0l0,0c0.1,0,0.1,0.1,0.1,0.1c0.1,0,0.1,0.1,0.3,0.1
					c0,0,0,0,0,0c0.2,0,0.3-0.1,0.4-0.2c0.1-0.1,0.3-0.2,0.5-0.2c0.3,0,0.6,0.4,0.7,0.5l0.1,0.1L24.8,14L24.8,14z M22.5,13.9h2.2
					c-0.2-0.3-0.4-0.4-0.6-0.4c0,0,0,0,0,0c-0.1,0-0.3,0.1-0.4,0.2c-0.2,0.1-0.3,0.2-0.5,0.2c-0.3,0-0.3-0.1-0.4-0.1c0,0,0,0-0.1,0
					C22.7,13.8,22.5,13.9,22.5,13.9L22.5,13.9z"/>
			</g>
			<path clip-path="url(#SVGID_4_)" fill="#273B98" d="M15,14h2.5c0,0-0.3-0.2-0.4-0.4c-0.2,0.1-0.1,0.2-0.4,0.2
				c-0.3,0-0.6-0.4-0.9-0.3C15.4,13.5,15,14,15,14L15,14z"/>
			<g clip-path="url(#SVGID_4_)">
				<path fill="#273B98" d="M17.5,14h-2.6l0.1-0.1c0.1-0.1,0.4-0.5,0.7-0.5c0,0,0,0,0,0c0.2,0,0.3,0.1,0.5,0.2
					c0.1,0.1,0.3,0.2,0.4,0.2c0.2,0,0.3,0,0.3-0.1c0,0,0.1-0.1,0.1-0.1l0,0l0,0C17.2,13.8,17.5,13.9,17.5,14h0.2H17.5L17.5,14z
					 M15.1,13.9h2.2c-0.1-0.1-0.2-0.2-0.3-0.2c0,0,0,0-0.1,0c-0.1,0.1-0.1,0.1-0.4,0.1c0,0,0,0,0,0c-0.2,0-0.3-0.1-0.5-0.2
					c-0.1-0.1-0.3-0.2-0.4-0.2C15.6,13.5,15.4,13.7,15.1,13.9L15.1,13.9z"/>
			</g>
			<path clip-path="url(#SVGID_4_)" fill="#273B98" d="M15.2,13.2l1.8,0c0,0-0.1-0.2-0.1-0.5c-0.5-0.2-0.8,0.3-1.1,0.3
				c-0.3,0-0.7-0.3-0.7-0.3L15.2,13.2z"/>
			<g clip-path="url(#SVGID_4_)">
				<path fill="#273B98" d="M17.1,13.3l-1.9,0L15,12.7l0.1,0c0,0,0.3,0.3,0.6,0.3c0.1,0,0.3-0.1,0.4-0.2c0.2-0.1,0.5-0.3,0.8-0.2
					l0,0l0,0C16.9,13,17,13.2,17.1,13.3L17.1,13.3L17.1,13.3z M15.3,13.2l1.7,0c0-0.1-0.1-0.3-0.1-0.4c-0.2-0.1-0.5,0.1-0.7,0.2
					c-0.1,0.1-0.3,0.2-0.4,0.2h0c-0.2,0-0.4-0.1-0.6-0.2L15.3,13.2L15.3,13.2z"/>
			</g>
			<path clip-path="url(#SVGID_4_)" fill="#273B98" d="M24.6,13.2l-1.8,0c0,0,0.1-0.2,0.1-0.5c0.5-0.2,0.8,0.3,1.1,0.3
				c0.3,0,0.7-0.3,0.7-0.3L24.6,13.2z"/>
			<g clip-path="url(#SVGID_4_)">
				<path fill="#273B98" d="M22.8,13.3L22.8,13.3c0-0.1,0.1-0.3,0.2-0.6l0,0l0,0c0.3-0.1,0.6,0.1,0.8,0.2c0.1,0.1,0.3,0.2,0.4,0.2h0
					c0.3,0,0.6-0.3,0.6-0.3l0.1,0l-0.2,0.5L22.8,13.3L22.8,13.3z M23,12.7c0,0.2-0.1,0.4-0.1,0.4l1.7,0l0.1-0.3
					c-0.1,0.1-0.3,0.2-0.5,0.2c-0.2,0-0.3-0.1-0.4-0.2C23.5,12.8,23.3,12.7,23,12.7L23,12.7z"/>
			</g>
			<path clip-path="url(#SVGID_4_)" fill="#273B98" d="M19.5,13.2l0.9,0c0,0,0-0.3-0.5-0.3C19.4,12.9,19.5,13.3,19.5,13.2L19.5,13.2
				z"/>
			<g clip-path="url(#SVGID_4_)">
				<path fill="#273B98" d="M19.4,13.3L19.4,13.3c0.1-0.3,0.3-0.4,0.5-0.4c0.2,0,0.3,0,0.4,0.1c0.1,0.1,0.1,0.2,0.1,0.2l0,0
					L19.4,13.3L19.4,13.3z M19.9,13c-0.3,0-0.4,0.1-0.4,0.2l0.1,0c0,0,0,0,0,0c0,0,0.1,0,0.1,0c0,0,0,0,0,0l0.6,0c0,0,0,0,0-0.1
					C20.2,13,20.1,13,19.9,13L19.9,13z"/>
			</g>
			<path clip-path="url(#SVGID_4_)" fill="#5B001A" d="M18.9,12.9c0.2-0.1,0.3-0.2,0.4-0.4l-0.6,0c0,0-0.3,0.2-0.4,0.3H18.9z"/>
			<g clip-path="url(#SVGID_4_)">
				<path fill="#5B001A" d="M19,12.9h-0.8l0.1-0.1c0.1-0.2,0.4-0.4,0.4-0.4l0.8,0l-0.1,0.1C19.3,12.8,19.1,12.8,19,12.9L19,12.9
					L19,12.9z M18.5,12.8h0.4c0.1-0.1,0.2-0.1,0.3-0.2l-0.5,0C18.7,12.6,18.6,12.7,18.5,12.8L18.5,12.8z"/>
			</g>
			<path clip-path="url(#SVGID_4_)" fill="#5B001A" d="M20.9,12.9c-0.2-0.1-0.3-0.2-0.4-0.4l0.6,0c0,0,0.3,0.2,0.4,0.3H20.9z"/>
			<g clip-path="url(#SVGID_4_)">
				<path fill="#5B001A" d="M21.7,12.9h-0.8c-0.2-0.1-0.4-0.2-0.5-0.4l-0.1-0.1l0.7,0c0.1,0,0.3,0.2,0.5,0.4L21.7,12.9L21.7,12.9z
					 M20.7,12.6c0.1,0.1,0.2,0.1,0.3,0.2l0.4,0c-0.1-0.1-0.3-0.2-0.3-0.2L20.7,12.6L20.7,12.6z"/>
			</g>
			<path clip-path="url(#SVGID_4_)" fill="#FFFFFF" d="M0,17.2h40V5.7H0V17.2z M19.5,6.5c0.7,0,1.4,0,2.1,0.3c4.1,1.3,4.6,7,1,9.1
				c-0.6,0.5-1.3,0.6-2,0.7c-0.5,0-1.1,0-1.6-0.1c-4-0.8-5.3-6.1-2.3-8.8C17.4,7,18.4,6.7,19.5,6.5L19.5,6.5z"/>
		</g>
	</g>
</g>
<g>
	<path fill="#CCCCCC" d="M39.8,0.2v22.5H0.2V0.2H39.8 M40,0H0v23h40V0L40,0z"/>
</g>
</svg>
