<?xml version="1.0" encoding="utf-8"?>
<!-- Generator: Adobe Illustrator 18.1.1, SVG Export Plug-In . SVG Version: 6.00 Build 0)  -->
<svg version="1.1" id="Layer_1" xmlns="http://www.w3.org/2000/svg" xmlns:xlink="http://www.w3.org/1999/xlink" x="0px" y="0px"
	 viewBox="0 0 612 351.9" enable-background="new 0 0 612 351.9" xml:space="preserve">
<g>
	<g>
		<rect y="0" fill="#FFFFFF" width="612" height="351.9"/>
	</g>
	<polygon fill="#CC0036" points="572.2,0 306,151.4 39.8,0 0,0 0,24.4 266.2,175.9 0,327.4 0,351.9 39.8,351.9 306,200.4 
		572.2,351.9 612,351.9 612,327.4 345.8,175.9 612,24.4 612,0 	"/>
	<g>
		<path fill="#D50037" d="M335.1,52c6.1,30.6,3.1,67.3-30.6,88.7c-33.7-18.4-36.7-55.1-30.6-85.7C280,48.9,316.7,42.8,335.1,52
			L335.1,52z"/>
		<path fill="#F2DD30" d="M304.5,48.9c12.2,0,24.5,3.1,33.7,6.1c3.1-9.2,6.1-21.4,12.2-27.5c-6.1,0-9.2,3.1-9.2,6.1
			c-3.1-6.1-6.1-6.1-9.2-3.1c6.1,6.1,3.1,12.2-3.1,12.2c-3.1,0-3.1-3.1-3.1-6.1h3.1c3.1,0,3.1-3.1,0-6.1c-3.1,0-3.1,0-3.1,0
			c-3.1,3.1-3.1,3.1,0,6.1h3.1c-3.1,3.1-3.1,6.1-6.1,3.1s-3.1-3.1-3.1-6.1c0-6.1,6.1-6.1,6.1-6.1c0-6.1-6.1-6.1-9.2-6.1
			c3.1-6.1,3.1-9.2-3.1-12.2c-12.2,3.1-12.2,9.2-9.2,12.2c-3.1-3.1-9.2,0-9.2,6.1c3.1-3.1,6.1,0,6.1,6.1c0,3.1-3.1,6.1-3.1,6.1
			c-3.1,0-6.1,0-6.1-3.1h3.1c3.1,0,3.1-3.1,0-6.1c-3.1,0-3.1,0-3.1,0c-3.1,3.1-3.1,3.1,0,6.1h3.1c0,3.1-3.1,6.1-3.1,6.1
			c-15.3,0-18.4-9.2-12.2-12.2c-3.1,0-6.1-3.1-9.2,3.1c0-3.1-3.1-6.1-9.2-6.1c6.1,6.1,9.2,18.4,12.2,27.5
			C280,52,292.2,48.9,304.5,48.9L304.5,48.9z"/>
	</g>
	<path fill="#CCCCCC" d="M608.9,3v345.8H3.1V3H608.9 M612,0H0v351.9h612V0L612,0z"/>
</g>
</svg>
