<?xml version="1.0" encoding="utf-8"?>
<!-- Generator: Adobe Illustrator 17.1.0, SVG Export Plug-In . SVG Version: 6.00 Build 0)  -->
<!DOCTYPE svg PUBLIC "-//W3C//DTD SVG 1.1//EN" "http://www.w3.org/Graphics/SVG/1.1/DTD/svg11.dtd">
<svg version="1.1" id="Layer_1" xmlns="http://www.w3.org/2000/svg" xmlns:xlink="http://www.w3.org/1999/xlink" x="0px" y="0px"
	 viewBox="0 0 40 23" enable-background="new 0 0 40 23" xml:space="preserve">
<g>
	<g>
		<defs>
			<rect id="SVGID_174_" width="40" height="23"/>
		</defs>
		<clipPath id="SVGID_2_">
			<use xlink:href="#SVGID_174_"  overflow="visible"/>
		</clipPath>
		<rect clip-path="url(#SVGID_2_)" fill="#4A5BB5" width="40" height="23"/>
		<rect y="4.1" clip-path="url(#SVGID_2_)" fill="#F6D928" width="40" height="14.8"/>
		<rect y="5.8" clip-path="url(#SVGID_2_)" fill="#A1001D" width="40" height="11.5"/>
		<g clip-path="url(#SVGID_2_)">
			<defs>
				<rect id="SVGID_176_" width="40" height="23"/>
			</defs>
			<clipPath id="SVGID_4_">
				<use xlink:href="#SVGID_176_"  overflow="visible"/>
			</clipPath>
			<path clip-path="url(#SVGID_4_)" fill-rule="evenodd" clip-rule="evenodd" fill="#F6D928" d="M6.2,11.3h27.8
				c0.1,0,0.2,0.1,0.2,0.2s-0.1,0.2-0.2,0.2H6.2c-0.1,0-0.2-0.1-0.2-0.2S6.1,11.3,6.2,11.3L6.2,11.3z"/>
			<g clip-path="url(#SVGID_4_)">
				<path d="M34.1,11.8H6.2c-0.2,0-0.3-0.1-0.3-0.3c0-0.2,0.1-0.3,0.3-0.3h27.8c0.2,0,0.3,0.1,0.3,0.3
					C34.4,11.7,34.2,11.8,34.1,11.8L34.1,11.8z M6.2,11.3c-0.1,0-0.2,0.1-0.2,0.2c0,0.1,0.1,0.2,0.2,0.2h27.8c0.1,0,0.2-0.1,0.2-0.2
					c0-0.1-0.1-0.2-0.2-0.2H6.2L6.2,11.3z"/>
			</g>
			<polygon clip-path="url(#SVGID_4_)" fill-rule="evenodd" clip-rule="evenodd" fill="#FFFFFF" points="31.3,8.9 29.8,9.4 
				31.3,9.9 32.7,9.4 			"/>
			<g clip-path="url(#SVGID_4_)">
				<path d="M31.3,9.9l-1.5-0.5l1.5-0.5l1.5,0.5L31.3,9.9L31.3,9.9z M29.9,9.4l1.3,0.5l1.3-0.5l-1.3-0.5L29.9,9.4L29.9,9.4z"/>
			</g>
			<path clip-path="url(#SVGID_4_)" fill-rule="evenodd" clip-rule="evenodd" fill="#F6D928" d="M9.8,9.2h20.5
				c0.1,0,0.2,0.1,0.2,0.2c0,0.1-0.1,0.2-0.2,0.2H9.8c-0.1,0-0.2-0.1-0.2-0.2C9.7,9.3,9.7,9.2,9.8,9.2L9.8,9.2z"/>
			<g clip-path="url(#SVGID_4_)">
				<path d="M30.3,9.6H9.8c-0.1,0-0.2-0.1-0.2-0.2c0-0.1,0.1-0.2,0.2-0.2h20.5c0.1,0,0.2,0.1,0.2,0.2C30.5,9.5,30.4,9.6,30.3,9.6
					L30.3,9.6z M9.8,9.2c-0.1,0-0.2,0.1-0.2,0.1c0,0.1,0.1,0.1,0.2,0.1h20.5c0.1,0,0.2-0.1,0.2-0.1c0-0.1-0.1-0.1-0.2-0.1H9.8
					L9.8,9.2z"/>
			</g>
			<g clip-path="url(#SVGID_4_)">
				<path d="M29.7,9.6L29.7,9.6c0.1-0.1,0.1-0.1,0.1-0.2c0-0.1-0.1-0.1-0.1-0.1V9.2c0.1,0,0.2,0.1,0.2,0.2
					C29.9,9.5,29.8,9.6,29.7,9.6L29.7,9.6z M30,9.6L30,9.6c0.1-0.1,0.1-0.1,0.1-0.2c0-0.1-0.1-0.1-0.1-0.1V9.2
					c0.1,0,0.2,0.1,0.2,0.2C30.2,9.5,30.1,9.6,30,9.6L30,9.6z M29.8,9.6L29.8,9.6C29.9,9.5,30,9.4,30,9.4c0-0.1-0.1-0.1-0.1-0.1V9.2
					c0.1,0,0.2,0.1,0.2,0.2C30,9.5,29.9,9.6,29.8,9.6L29.8,9.6z"/>
			</g>
			<polygon clip-path="url(#SVGID_4_)" fill-rule="evenodd" clip-rule="evenodd" fill="#FFFFFF" points="29.9,9.9 28.5,10.4 
				29.9,10.8 31.3,10.4 			"/>
			<g clip-path="url(#SVGID_4_)">
				<path d="M29.9,10.9l-1.5-0.5l1.5-0.5l1.5,0.5L29.9,10.9L29.9,10.9z M28.6,10.3l1.3,0.5l1.3-0.5l-1.3-0.5L28.6,10.3L28.6,10.3z"
					/>
			</g>
			<path clip-path="url(#SVGID_4_)" fill-rule="evenodd" clip-rule="evenodd" fill="#F6D928" d="M8.5,10.2H29c0.1,0,0.2,0.1,0.2,0.2
				c0,0.1-0.1,0.2-0.2,0.2H8.5c-0.1,0-0.2-0.1-0.2-0.2C8.3,10.3,8.4,10.2,8.5,10.2L8.5,10.2z"/>
			<g clip-path="url(#SVGID_4_)">
				<path d="M29,10.5H8.5c-0.1,0-0.2-0.1-0.2-0.2c0-0.1,0.1-0.2,0.2-0.2H29c0.1,0,0.2,0.1,0.2,0.2C29.2,10.5,29.1,10.5,29,10.5
					L29,10.5z M8.5,10.2c-0.1,0-0.2,0.1-0.2,0.1c0,0.1,0.1,0.1,0.2,0.1H29c0.1,0,0.2-0.1,0.2-0.1c0-0.1-0.1-0.1-0.2-0.1H8.5
					L8.5,10.2z"/>
			</g>
			<g clip-path="url(#SVGID_4_)">
				<path d="M28.7,10.5L28.7,10.5c0.1-0.1,0.1-0.1,0.1-0.2c0-0.1-0.1-0.1-0.1-0.1v-0.1c0.1,0,0.2,0.1,0.2,0.2
					C28.9,10.4,28.8,10.5,28.7,10.5L28.7,10.5z M28.5,10.5L28.5,10.5c0.1-0.1,0.1-0.1,0.1-0.2c0-0.1-0.1-0.1-0.1-0.1v-0.1
					c0.1,0,0.2,0.1,0.2,0.2C28.7,10.4,28.6,10.5,28.5,10.5L28.5,10.5z M28.3,10.5L28.3,10.5c0.1-0.1,0.1-0.1,0.1-0.2
					c0-0.1-0.1-0.1-0.1-0.1v-0.1c0.1,0,0.2,0.1,0.2,0.2C28.5,10.4,28.4,10.5,28.3,10.5L28.3,10.5z"/>
			</g>
			<path clip-path="url(#SVGID_4_)" fill-rule="evenodd" clip-rule="evenodd" fill="#485BA3" d="M32.3,11.3
				c-0.3,0.4,0.2-0.1,1.3,0.6c0.2,0.1,0.4,0.5,0.4,0.7c-0.1,0-0.1-0.1-0.1-0.2c-0.1,0.1,0.1,0.4,0.1,0.6c-0.2-0.1-0.2-0.1-0.2-0.3
				c0,0.1,0,0.5,0,0.7c-0.1,0-0.1-0.1-0.2-0.2c0,0.2,0,0.3,0,0.5c-0.1-0.1-0.2-0.1-0.2-0.2c0,0.1-0.2,0.3-0.2,0.4
				c-0.1,0-0.1-0.1-0.1-0.1c-0.1,0.1-0.4,0.5-0.4,0.6c-0.2-0.2-0.8-0.7-0.9-0.9c-0.1,0.1-0.2,0.2-0.4,0.3c-0.1-0.4-0.4-0.9-0.2-1.2
				c-0.1,0.1-0.2,0.1-0.3,0.2C31.1,12.3,31.6,11.6,32.3,11.3L32.3,11.3z"/>
			<g clip-path="url(#SVGID_4_)">
				<path d="M32.7,14.6L32.7,14.6c-0.4-0.3-0.8-0.7-0.9-1c0,0.1-0.1,0.2-0.3,0.3l0,0l0,0c0-0.1-0.1-0.3-0.1-0.4
					c-0.1-0.3-0.2-0.6-0.1-0.8c-0.1,0.1-0.2,0.1-0.3,0.2c0.1-0.7,0.6-1.3,1.3-1.6c0,0.1,0,0.2,0,0.2c0,0,0,0,0.1,0l0.1,0
					c0.1,0,0.6,0,1.2,0.4c0.2,0.1,0.4,0.5,0.4,0.8c-0.1,0-0.1,0-0.1-0.1c0,0,0-0.1-0.1-0.1c0,0,0,0.2,0.1,0.4c0,0.1,0,0.2,0.1,0.2
					c-0.1,0-0.2-0.1-0.2-0.1c0,0,0,0.1,0,0.1c0,0.2,0,0.4,0,0.5c-0.1,0-0.1,0-0.2-0.1c0,0,0,0-0.1-0.1c0.1,0.1,0,0.2,0,0.3
					c0,0.1,0,0.2,0,0.2c-0.1,0-0.1-0.1-0.2-0.1l0,0c0,0,0,0.1,0,0.2c0,0.1-0.1,0.2-0.1,0.2c-0.1,0-0.1-0.1-0.1-0.1
					C33,14.1,32.8,14.5,32.7,14.6L32.7,14.6L32.7,14.6z M31.8,13.6c0.1,0.2,0.6,0.7,0.9,0.9l0,0c0.1-0.2,0.4-0.6,0.4-0.6
					c0,0,0.1,0.1,0.1,0.1c0,0,0-0.1,0-0.2c0-0.1,0.1-0.2,0.1-0.2l0.1,0c0,0,0.1,0.1,0.2,0.1c0-0.1,0-0.2,0-0.2c0-0.1,0-0.2,0-0.3
					c0.1,0,0.1,0,0.1,0c0,0,0.1,0.1,0.1,0.1c-0.1-0.1-0.1-0.3-0.1-0.5c0-0.1,0-0.1,0-0.2l0.1,0.1c0,0.1,0,0.1,0.2,0.2
					c0,0-0.1-0.1-0.1-0.2c-0.1-0.2-0.1-0.4,0-0.4c0.1,0,0.1,0.1,0.1,0.1c0,0,0,0.1,0.1,0.1c0-0.2-0.2-0.6-0.4-0.7
					c-0.6-0.4-1-0.4-1.1-0.4l-0.1,0c0,0-0.1,0-0.1,0c0,0,0-0.1,0.1-0.2c-0.7,0.3-1.2,1-1.3,1.6c0.1-0.1,0.2-0.2,0.3-0.2
					c-0.1,0.3,0,0.5,0.1,0.8c0,0.1,0.1,0.3,0.1,0.4C31.7,13.8,31.8,13.7,31.8,13.6L31.8,13.6z"/>
			</g>
			<path clip-path="url(#SVGID_4_)" fill-rule="evenodd" clip-rule="evenodd" fill="#980015" d="M31.4,13.4c0.1-0.2,0.2-0.3,0.3-0.4
				c0.1-0.2,0.1-0.4,0.2-0.4c0.1,0,0.1,0.1,0,0.4C31.7,13.2,31.7,13.3,31.4,13.4L31.4,13.4z"/>
			<path clip-path="url(#SVGID_4_)" fill-rule="evenodd" clip-rule="evenodd" fill="#980015" d="M32.1,13.9c0-0.2,0-0.2,0-0.3
				c0-0.2-0.1-0.3,0-0.3c0.1,0,0.1,0.1,0.1,0.2S32.2,13.8,32.1,13.9L32.1,13.9z"/>
			<path clip-path="url(#SVGID_4_)" fill-rule="evenodd" clip-rule="evenodd" fill="#980015" d="M32.6,14.2c0-0.2,0-0.3,0-0.5
				c0-0.2-0.1-0.4,0-0.4c0.1,0,0.1,0.1,0.2,0.3C32.8,13.9,32.7,14,32.6,14.2L32.6,14.2z"/>
			<path clip-path="url(#SVGID_4_)" fill-rule="evenodd" clip-rule="evenodd" fill="#980015" d="M33.2,12.7
				c-0.1-0.1-0.2-0.1-0.3-0.2c-0.1-0.1-0.2-0.2-0.3-0.2c0,0.1,0,0.1,0.1,0.2C32.9,12.7,33,12.7,33.2,12.7L33.2,12.7z"/>
			<path clip-path="url(#SVGID_4_)" fill-rule="evenodd" clip-rule="evenodd" fill="#980015" d="M33.1,13.4
				c-0.1-0.1-0.1-0.2-0.2-0.3c-0.1-0.2-0.1-0.3-0.2-0.3c-0.1,0-0.1,0.1,0,0.3C32.8,13.3,32.9,13.3,33.1,13.4L33.1,13.4z"/>
			<path clip-path="url(#SVGID_4_)" fill-rule="evenodd" clip-rule="evenodd" fill="#485BA3" d="M7.2,11.7c0-0.1,0-0.1-0.1-0.2
				c0.1,0,0.1,0.2,0.3,0.1c0.1,0,0.1,0,0-0.2c0.1,0,0.6,0.2,0.7,0.2c0.2,0,0.6-0.2,0.8,0.1c0.2,0.2,0.2,0.5,0.2,0.8
				c-0.1,0,0-0.1-0.2-0.2c0.1,0.3,0,0.8,0,1.1c0-0.1,0,0-0.1-0.1c-0.1,0.3-0.2,0.3-0.2,0.7c0-0.1,0-0.1,0-0.2
				c-0.1,0.2-0.8,0.4-0.5,0.6c-0.2-0.1-0.3-0.1-0.4-0.2c0,0-0.1,0.1-0.1,0.2c-0.4-0.2-0.3-0.6-0.6-0.9c-0.1,0.1,0,0.1-0.1,0.3
				c-0.1-0.3-0.1-0.4-0.2-0.6c-0.1,0.1-0.1,0.1-0.2,0.2c0-0.3-0.1-0.4-0.1-0.6c-0.1,0.1,0,0.1-0.2,0.2C6.4,12.1,6.9,11.5,7.2,11.7
				L7.2,11.7z"/>
			<g clip-path="url(#SVGID_4_)">
				<path d="M8.1,14.4c-0.1-0.1-0.2-0.1-0.2-0.1c-0.1,0-0.2-0.1-0.2-0.1c0,0,0,0.1-0.1,0.2c-0.3-0.1-0.3-0.3-0.4-0.5
					c0-0.1-0.1-0.3-0.2-0.4c0,0.1,0,0.1,0,0.1c0,0,0,0.1,0,0.2l0,0.1l0-0.1c0-0.1,0-0.2-0.1-0.2c0-0.1,0-0.2-0.1-0.3c0,0,0,0,0,0
					c0,0,0,0.1-0.1,0.1l0,0.1l0-0.1c0-0.1,0-0.2-0.1-0.3c0-0.1,0-0.2,0-0.3c0,0,0,0,0,0c0,0,0,0-0.1,0.1L6.2,13l0-0.1
					c0.1-0.7,0.6-1.4,1-1.2c0,0,0,0,0,0c0-0.1,0-0.1-0.1-0.1L7,11.4l0.1,0c0,0,0.1,0,0.1,0.1c0,0,0.1,0.1,0.1,0c0,0,0,0,0-0.1l0,0
					l0,0c0.1,0,0.3,0.1,0.4,0.1c0.1,0,0.2,0.1,0.2,0.1c0,0,0.1,0,0.2,0c0.2,0,0.5-0.1,0.6,0.1c0.2,0.2,0.2,0.4,0.2,0.6
					c0,0.1,0,0.1,0,0.2v0l0,0c-0.1,0-0.1,0-0.1-0.1c0,0.2,0,0.4,0,0.6c0,0.1,0,0.2,0,0.3v0.1l-0.1-0.1c0,0,0,0,0-0.1c0,0,0,0,0,0
					c0,0.1-0.1,0.1-0.1,0.2c-0.1,0.1-0.1,0.2-0.1,0.4v0.2L8.6,14c0-0.1,0-0.1,0-0.1c0,0,0,0,0,0C8.5,13.9,8.4,14,8.3,14
					C8.2,14.1,8,14.2,8,14.3C8,14.3,8.1,14.3,8.1,14.4L8.1,14.4L8.1,14.4z M7.6,14.1c0.1,0.1,0.2,0.1,0.2,0.1c0,0,0.1,0,0.1,0.1
					c0,0,0,0,0,0c0-0.1,0.1-0.2,0.3-0.3c0.1-0.1,0.2-0.2,0.3-0.2l0-0.1l0,0c0,0,0,0,0,0c0-0.1,0.1-0.2,0.1-0.3
					c0-0.1,0.1-0.1,0.1-0.2l0-0.1l0,0.1c0,0,0,0,0,0c0-0.1,0-0.2,0-0.3c0-0.3,0-0.6,0-0.8l0-0.1L9,12.2C9,12.3,9,12.3,9,12.4
					c0,0,0,0,0,0c0-0.1,0-0.1,0-0.1c0-0.2,0-0.4-0.2-0.6c-0.1-0.1-0.4-0.1-0.6-0.1c-0.1,0-0.1,0-0.2,0c0,0-0.1,0-0.3-0.1
					c-0.1,0-0.3-0.1-0.4-0.1c0,0.1,0,0.1,0,0.2c-0.1,0.1-0.1,0-0.2,0c0,0,0,0,0,0.1c0,0,0,0,0,0.1l0,0.1l-0.1,0
					c-0.3-0.2-0.8,0.3-0.9,1.1c0,0,0,0,0,0c0,0,0,0,0.1-0.1l0.1,0l0,0.1c0,0.1,0,0.2,0,0.3c0,0.1,0,0.1,0.1,0.2c0,0,0-0.1,0.1-0.1
					c0,0,0,0,0.1-0.1l0-0.1l0,0.1c0,0.1,0.1,0.2,0.1,0.4c0,0,0,0.1,0,0.1c0,0,0,0,0,0c0,0,0-0.1,0-0.1c0.2,0.1,0.2,0.3,0.3,0.4
					c0.1,0.2,0.1,0.3,0.3,0.4C7.5,14.2,7.6,14.2,7.6,14.1L7.6,14.1z"/>
			</g>
			<path clip-path="url(#SVGID_4_)" fill-rule="evenodd" clip-rule="evenodd" fill="#980015" d="M6.7,13c0.1-0.3,0.2-0.3,0.3-0.5
				C7.1,12.2,7.1,12,7.2,12c0.1,0,0.1,0.2,0,0.4C7,12.8,7,12.8,6.7,13L6.7,13z"/>
			<path clip-path="url(#SVGID_4_)" fill-rule="evenodd" clip-rule="evenodd" fill="#980015" d="M7.1,13.7c0-0.2,0.1-0.3,0.1-0.5
				c0-0.3,0-0.5,0.1-0.4c0.1,0,0.1,0.1,0.1,0.4C7.4,13.4,7.3,13.4,7.1,13.7L7.1,13.7z"/>
			<path clip-path="url(#SVGID_4_)" fill-rule="evenodd" clip-rule="evenodd" fill="#980015" d="M7.6,14.1c0-0.2,0.1-0.3,0.1-0.5
				c0-0.3,0-0.4,0.1-0.4c0.1,0,0.1,0.1,0.1,0.3C7.8,13.8,7.7,13.9,7.6,14.1L7.6,14.1z"/>
			<path clip-path="url(#SVGID_4_)" fill-rule="evenodd" clip-rule="evenodd" fill="#980015" d="M8.6,12.6c-0.2-0.2-0.3-0.2-0.4-0.4
				c-0.2-0.2-0.3-0.4-0.4-0.4c-0.1,0.1,0,0.2,0.2,0.4C8.2,12.5,8.3,12.6,8.6,12.6L8.6,12.6z"/>
			<path clip-path="url(#SVGID_4_)" fill-rule="evenodd" clip-rule="evenodd" fill="#980015" d="M8.5,13.4c-0.1-0.2-0.2-0.2-0.3-0.4
				C8,12.8,8,12.6,7.9,12.7c-0.1,0-0.1,0.1,0.1,0.4C8.2,13.2,8.2,13.3,8.5,13.4L8.5,13.4z"/>
			<path clip-path="url(#SVGID_4_)" fill-rule="evenodd" clip-rule="evenodd" fill="#FFFFFF" d="M28.3,11.5
				c-1.7,1.6-3.9,4.9-8.3,4.9c-3.9,0-6.7-3.3-8.3-4.9c1.7-1.6,4.4-4.9,8.3-4.9C24.4,6.6,26.7,9.9,28.3,11.5L28.3,11.5z"/>
			<g clip-path="url(#SVGID_4_)">
				<path d="M20,16.5c-3.5,0-6.1-2.6-7.8-4.4c-0.2-0.2-0.4-0.4-0.6-0.6c0.2-0.2,0.4-0.4,0.6-0.6c1.7-1.7,4.3-4.4,7.8-4.4
					c3.8,0,5.9,2.4,7.5,4.1c0.3,0.3,0.6,0.6,0.8,0.9c-0.3,0.3-0.5,0.6-0.8,0.9C25.9,14.1,23.8,16.5,20,16.5L20,16.5z M20,6.6
					c-3.5,0-6.1,2.6-7.8,4.4c-0.2,0.2-0.4,0.4-0.6,0.6c0.2,0.1,0.4,0.3,0.6,0.5c1.7,1.7,4.3,4.4,7.8,4.4c3.7,0,5.9-2.3,7.5-4.1
					c0.3-0.3,0.6-0.6,0.8-0.9c-0.3-0.2-0.5-0.5-0.8-0.8C25.9,8.9,23.7,6.6,20,6.6L20,6.6z"/>
			</g>
			<path clip-path="url(#SVGID_4_)" fill-rule="evenodd" clip-rule="evenodd" d="M19.4,8.3C19.9,8.8,19.5,9,20,9
				c0.5,0,0.2,0.5,0.6,0.5c0.3,0,0,1.2,0.3,1.5c0.3,0.4,0.5,0.1,0.5,0.4c0,0.3-0.8,0.3-0.8,1.2c0,0.5-0.7,0.6-0.7,0.9
				c0,0.3,1.3,0.5,1.2,0.8c0,0.3-1.4,0.2-1.5,0.6c0,0.3,1.9,0.5,2,1.4c-0.3,0.1-1.1,0.2-1.7,0.2c-3.9,0-6.7-3.3-8.3-4.9
				c1.7-1.6,4.4-4.9,8.3-4.9C20,6.6,18.8,7.6,19.4,8.3L19.4,8.3z"/>
			
				<rect x="14.8" y="9.7" clip-path="url(#SVGID_4_)" fill-rule="evenodd" clip-rule="evenodd" fill="#FFFFFF" width="0.4" height="1.3"/>
			
				<rect x="14.8" y="11.9" clip-path="url(#SVGID_4_)" fill-rule="evenodd" clip-rule="evenodd" fill="#FFFFFF" width="0.4" height="1.3"/>
			
				<rect x="15.6" y="9.7" clip-path="url(#SVGID_4_)" fill-rule="evenodd" clip-rule="evenodd" fill="#FFFFFF" width="0.4" height="1.3"/>
			
				<rect x="15.6" y="11.9" clip-path="url(#SVGID_4_)" fill-rule="evenodd" clip-rule="evenodd" fill="#FFFFFF" width="0.4" height="1.3"/>
			
				<rect x="16.4" y="9.7" clip-path="url(#SVGID_4_)" fill-rule="evenodd" clip-rule="evenodd" fill="#FFFFFF" width="0.4" height="1.3"/>
			
				<rect x="16.4" y="11.9" clip-path="url(#SVGID_4_)" fill-rule="evenodd" clip-rule="evenodd" fill="#FFFFFF" width="0.4" height="1.3"/>
			
				<rect x="17.2" y="9.7" clip-path="url(#SVGID_4_)" fill-rule="evenodd" clip-rule="evenodd" fill="#FFFFFF" width="0.4" height="1.3"/>
			
				<rect x="17.2" y="11.9" clip-path="url(#SVGID_4_)" fill-rule="evenodd" clip-rule="evenodd" fill="#FFFFFF" width="0.4" height="1.3"/>
			
				<rect x="18" y="9.7" clip-path="url(#SVGID_4_)" fill-rule="evenodd" clip-rule="evenodd" fill="#FFFFFF" width="0.4" height="1.3"/>
			
				<rect x="18" y="11.9" clip-path="url(#SVGID_4_)" fill-rule="evenodd" clip-rule="evenodd" fill="#FFFFFF" width="0.4" height="1.3"/>
			
				<rect x="18.8" y="9.7" clip-path="url(#SVGID_4_)" fill-rule="evenodd" clip-rule="evenodd" fill="#FFFFFF" width="0.4" height="1.3"/>
			
				<rect x="18.8" y="11.9" clip-path="url(#SVGID_4_)" fill-rule="evenodd" clip-rule="evenodd" fill="#FFFFFF" width="0.4" height="1.3"/>
			<rect x="20.9" y="9.7" clip-path="url(#SVGID_4_)" fill-rule="evenodd" clip-rule="evenodd" width="0.4" height="1.3"/>
			<rect x="20.9" y="11.9" clip-path="url(#SVGID_4_)" fill-rule="evenodd" clip-rule="evenodd" width="0.4" height="1.3"/>
			<rect x="21.7" y="9.7" clip-path="url(#SVGID_4_)" fill-rule="evenodd" clip-rule="evenodd" width="0.4" height="1.3"/>
			<rect x="21.7" y="11.9" clip-path="url(#SVGID_4_)" fill-rule="evenodd" clip-rule="evenodd" width="0.4" height="1.3"/>
			<rect x="22.5" y="9.7" clip-path="url(#SVGID_4_)" fill-rule="evenodd" clip-rule="evenodd" width="0.4" height="1.3"/>
			<rect x="22.5" y="11.9" clip-path="url(#SVGID_4_)" fill-rule="evenodd" clip-rule="evenodd" width="0.4" height="1.3"/>
			<rect x="23.3" y="9.7" clip-path="url(#SVGID_4_)" fill-rule="evenodd" clip-rule="evenodd" width="0.4" height="1.3"/>
			<rect x="23.3" y="11.9" clip-path="url(#SVGID_4_)" fill-rule="evenodd" clip-rule="evenodd" width="0.4" height="1.3"/>
			<rect x="24.1" y="9.7" clip-path="url(#SVGID_4_)" fill-rule="evenodd" clip-rule="evenodd" width="0.4" height="1.3"/>
			<rect x="24.1" y="11.9" clip-path="url(#SVGID_4_)" fill-rule="evenodd" clip-rule="evenodd" width="0.4" height="1.3"/>
			<rect x="24.9" y="9.7" clip-path="url(#SVGID_4_)" fill-rule="evenodd" clip-rule="evenodd" width="0.4" height="1.3"/>
			<rect x="24.9" y="11.9" clip-path="url(#SVGID_4_)" fill-rule="evenodd" clip-rule="evenodd" width="0.4" height="1.3"/>
			<path clip-path="url(#SVGID_4_)" fill-rule="evenodd" clip-rule="evenodd" fill="#485BA3" d="M17.3,7.4c-0.2,0.4,0.4-0.1,1.4,0.6
				c0.2,0.1,0.4,0.7,0.4,0.9c-0.2,0-0.6-0.3-0.6-0.3S19,9.1,19,9.7c-0.2-0.1-0.2-0.1-0.3-0.2c0,0.2,0.1,0.3,0.1,0.5
				c-0.1-0.1-0.2-0.1-0.3-0.2c0.1,0.3-0.3,0.7-0.1,0.9c-0.4-0.1-0.7-0.3-0.9-0.5c-0.1,0.1-0.1,0.1-0.1,0.2c0,0-0.6-0.4-0.5-0.6
				c-0.1,0.1-0.1,0.2-0.1,0.3c-0.2-0.2-0.4-0.4-0.5-0.7c-0.1,0.1-0.1,0.1-0.2,0.2c-0.1-0.4-0.1-0.4,0.1-0.8
				c-0.1,0.1-0.2,0.1-0.3,0.2C16.2,8.5,16.6,7.8,17.3,7.4L17.3,7.4z"/>
			<g clip-path="url(#SVGID_4_)">
				<path d="M18.6,10.7L18.6,10.7c-0.4-0.1-0.8-0.3-1-0.6c0,0.1,0,0.1,0,0.2c0,0-0.3-0.2-0.4-0.3C17,9.9,17,9.8,17,9.8
					c0,0.1,0,0.2-0.1,0.3c-0.2-0.2-0.4-0.4-0.5-0.7c0,0.1,0,0.1-0.1,0.1l-0.1,0.2l0-0.1c-0.1-0.4-0.1-0.4,0.1-0.7
					C16.3,9,16.2,9,16.1,9.1c0.1-0.7,0.6-1.4,1.2-1.7c0,0.1,0,0.1,0,0.2c0,0,0.1,0,0.1,0l0.2,0c0.3,0,0.7,0,1.2,0.4
					c0.2,0.1,0.5,0.7,0.5,0.9c-0.2,0-0.5-0.1-0.6-0.2C18.7,8.9,19,9.2,19,9.7c-0.1,0-0.1,0-0.2,0c0,0-0.1,0-0.1-0.1
					c0,0,0,0.1,0.1,0.1c0,0.1,0.1,0.2,0.1,0.3c-0.1-0.1-0.2-0.1-0.3-0.2c0.1,0.1,0,0.3,0,0.5C18.5,10.4,18.4,10.6,18.6,10.7
					L18.6,10.7L18.6,10.7z M17.6,10.1c0.2,0.2,0.5,0.5,0.8,0.5c-0.1-0.1,0-0.2,0-0.4c0.1-0.2,0.1-0.3,0-0.4c0.1,0,0.2,0.1,0.3,0.2
					c0-0.1-0.1-0.2-0.1-0.3c0-0.1-0.1-0.1-0.1-0.2c0.1,0.1,0.1,0.1,0.2,0.1c0,0,0.1,0,0.1,0.1c0-0.5-0.5-0.9-0.5-0.9
					c0,0,0.4,0.2,0.6,0.2c0-0.2-0.3-0.8-0.5-0.9c-0.5-0.4-0.9-0.4-1.2-0.4l-0.2,0c-0.1,0-0.1,0-0.1,0c0,0,0-0.1,0-0.2
					c-0.6,0.4-1.1,1-1.2,1.7c0.1-0.1,0.1-0.2,0.2-0.2l0.1,0l0,0.1c-0.1,0.3-0.1,0.3-0.1,0.7l0.1-0.1c0,0,0-0.1,0.1-0.1
					c0.1,0.3,0.3,0.5,0.5,0.7c0-0.1,0-0.2,0.1-0.3c0,0.1,0.4,0.5,0.5,0.6C17.5,10.3,17.5,10.2,17.6,10.1L17.6,10.1z"/>
			</g>
			<path clip-path="url(#SVGID_4_)" fill-rule="evenodd" clip-rule="evenodd" fill="#980015" d="M16.7,9.6c0-0.3,0.1-0.4,0.1-0.6
				c0-0.3,0-0.6,0.1-0.6c0.1,0,0.2,0.1,0.1,0.5C17,9.2,17,9.3,16.7,9.6L16.7,9.6z"/>
			<path clip-path="url(#SVGID_4_)" fill-rule="evenodd" clip-rule="evenodd" fill="#980015" d="M17.4,10.2c0-0.3,0-0.4,0-0.5
				c0-0.3-0.1-0.5,0-0.5c0.1,0,0.2,0.1,0.2,0.4C17.6,9.8,17.5,9.9,17.4,10.2L17.4,10.2z"/>
			<path clip-path="url(#SVGID_4_)" fill-rule="evenodd" clip-rule="evenodd" fill="#980015" d="M18.4,10.6
				c-0.1-0.2-0.2-0.3-0.3-0.4C18,9.9,18,9.7,17.9,9.8c-0.1,0-0.1,0.1,0,0.4C18.1,10.4,18.1,10.4,18.4,10.6L18.4,10.6z"/>
			<path clip-path="url(#SVGID_4_)" fill-rule="evenodd" clip-rule="evenodd" fill="#980015" d="M18.7,8.6c-0.3-0.1-0.4-0.1-0.6-0.2
				c-0.3-0.2-0.5-0.3-0.6-0.2c-0.1,0.1,0,0.2,0.3,0.3C18.2,8.6,18.3,8.6,18.7,8.6L18.7,8.6z"/>
			<path clip-path="url(#SVGID_4_)" fill-rule="evenodd" clip-rule="evenodd" fill="#980015" d="M18.8,9.5c-0.2-0.2-0.3-0.2-0.5-0.3
				C18.2,9,18,8.8,18,8.9c-0.1,0.1,0,0.2,0.2,0.4C18.4,9.4,18.5,9.4,18.8,9.5L18.8,9.5z"/>
		</g>
	</g>
</g>
<g>
	<path fill="#CCCCCC" d="M39.8,0.2v22.5H0.2V0.2H39.8 M40,0H0v23h40V0L40,0z"/>
</g>
</svg>
